<?xml version="1.0" encoding="UTF-8" standalone="no"?>
<svg
   xmlns:dc="http://purl.org/dc/elements/1.1/"
   xmlns:cc="http://creativecommons.org/ns#"
   xmlns:rdf="http://www.w3.org/1999/02/22-rdf-syntax-ns#"
   xmlns:svg="http://www.w3.org/2000/svg"
   xmlns="http://www.w3.org/2000/svg"
   xmlns:sodipodi="http://sodipodi.sourceforge.net/DTD/sodipodi-0.dtd"
   xmlns:inkscape="http://www.inkscape.org/namespaces/inkscape"
   width="4.6831999mm"
   height="4.8771mm"
   viewBox="0 0 4.6831999 4.8771"
   version="1.1"
   id="svg8"
   sodipodi:docname="long-line.svg"
   inkscape:version="1.0.2 (e86c870879, 2021-01-15)">
  <defs
     id="defs2" />
  <sodipodi:namedview
     id="base"
     pagecolor="#ffffff"
     bordercolor="#666666"
     borderopacity="1.0"
     inkscape:pageopacity="0.0"
     inkscape:pageshadow="2"
     inkscape:zoom="6.0208926"
     inkscape:cx="19.513607"
     inkscape:cy="62.04018"
     inkscape:document-units="mm"
     inkscape:current-layer="layer1"
     inkscape:document-rotation="0"
     showgrid="false"
     inkscape:window-width="1920"
     inkscape:window-height="1043"
     inkscape:window-x="0"
     inkscape:window-y="0"
     inkscape:window-maximized="1"
     fit-margin-top="5"
     fit-margin-left="5"
     fit-margin-right="5"
     fit-margin-bottom="5" />
  <metadata
     id="metadata5">
    <rdf:RDF>
      <cc:Work
         rdf:about="">
        <dc:format>image/svg+xml</dc:format>
        <dc:type
           rdf:resource="http://purl.org/dc/dcmitype/StillImage" />
        <dc:title />
      </cc:Work>
    </rdf:RDF>
  </metadata>
  <g
     inkscape:label="Layer 1"
     inkscape:groupmode="layer"
     id="layer1"
     transform="translate(-62.345485,58.969859)">
    <g
       id="g1964"
       style="stroke:none"
       transform="translate(37.203085,1.9518409)">
      <path
         style="opacity:1;fill:#0066ff;fill-opacity:1;stroke:none;stroke-width:1.05833px;stroke-linejoin:round;stroke-miterlimit:10;stroke-opacity:1"
         d="m 25.1424,-60.9217 c 0,0 1.203,0 2.3896,0 1.1546,0 2.2936,0 2.2936,0 0,0 0,0.0344 0,0.0974 0,0.3172 0,1.3593 0,2.3899 0,1.2028 0,2.3898 0,2.3898 v 0 h -4.6832 c 0,0 0,-0.0344 0,-0.0974 0,-0.6874 0,-4.7797 0,-4.7797 z"
         id="path1760" />
      <path
         style="opacity:1;fill:#0064fc;fill-opacity:1;stroke:none;stroke-width:1.05833px;stroke-linejoin:round;stroke-miterlimit:10;stroke-opacity:1"
         d="m 25.2462,-58.0126 c 0,0.0067 1.1884,0.0131 2.3586,0.0178 1.1386,0.0045 2.2602,0.0071 2.2539,0.0073 -3e-4,0 -6e-4,0.0341 -8e-4,0.0965 -0.0067,0.314 -0.0131,1.3432 -0.0178,2.3588 -0.0047,1.1862 -0.0074,2.3551 -0.0074,2.3485 v 0 c 0,-0.0137 -4.626,-0.0247 -4.6125,-0.0251 3e-4,-1e-4 6e-4,-0.0341 8e-4,-0.0965 0.0139,-0.6806 0.0252,-4.7211 0.0252,-4.7073 z"
         id="path1762" />
      <path
         style="opacity:1;fill:#0063f9;fill-opacity:1;stroke:none;stroke-width:1.05833px;stroke-linejoin:round;stroke-miterlimit:10;stroke-opacity:1"
         d="m 25.3499,-55.1034 c 0,0.0133 1.1739,0.0261 2.3276,0.0355 1.1226,0.009 2.2269,0.0143 2.2142,0.0147 -5e-4,0 -0.0011,0.0337 -0.0016,0.0955 -0.0133,0.3109 -0.0261,1.3271 -0.0355,2.3278 -0.0094,1.1696 -0.0147,2.3203 -0.0147,2.307 v 0 c 0,-0.0272 -4.5688,-0.0494 -4.5418,-0.0502 5e-4,0 10e-4,-0.0338 0.0015,-0.0955 0.0278,-0.6738 0.0503,-4.6626 0.0503,-4.6348 z"
         id="path1764" />
      <path
         style="opacity:1;fill:#0062f7;fill-opacity:1;stroke:none;stroke-width:1.05833px;stroke-linejoin:round;stroke-miterlimit:10;stroke-opacity:1"
         d="m 25.4536,-52.1943 c 0,0.02 1.1594,0.0391 2.2966,0.0533 1.1067,0.0135 2.1937,0.0214 2.1745,0.022 -7e-4,0 -0.0015,0.0334 -0.0023,0.0946 -0.02,0.3077 -0.0392,1.311 -0.0533,2.2968 -0.0142,1.1529 -0.0221,2.2855 -0.0221,2.2655 v 0 c 0,-0.0408 -4.5116,-0.074 -4.4711,-0.0753 8e-4,0 0.0016,-0.0334 0.0024,-0.0946 0.0416,-0.6669 0.0753,-4.6039 0.0753,-4.5623 z"
         id="path1766" />
      <path
         style="opacity:1;fill:#0061f4;fill-opacity:1;stroke:none;stroke-width:1.05833px;stroke-linejoin:round;stroke-miterlimit:10;stroke-opacity:1"
         d="m 25.5574,-49.2852 c 0,0.0267 1.1448,0.0522 2.2655,0.0711 1.0908,0.0181 2.1604,0.0285 2.1349,0.0293 -0.0011,1e-4 -0.0021,0.0331 -0.0032,0.0937 -0.0267,0.3046 -0.0522,1.2949 -0.0711,2.2657 -0.0188,1.1364 -0.0294,2.2508 -0.0294,2.2242 v -1e-4 c 0,-0.0544 -4.4544,-0.0987 -4.4004,-0.1004 0.0011,0 0.0021,-0.033 0.0032,-0.0936 0.0555,-0.6601 0.1005,-4.5454 0.1005,-4.4899 z"
         id="path1768" />
      <path
         style="opacity:1;fill:#0060f2;fill-opacity:1;stroke:none;stroke-width:1.05833px;stroke-linejoin:round;stroke-miterlimit:10;stroke-opacity:1"
         d="m 25.6611,-46.3761 c 0,0.0334 1.1302,0.0653 2.2345,0.0889 1.0748,0.0226 2.1271,0.0357 2.0952,0.0367 -0.0013,0 -0.0026,0.0327 -0.004,0.0926 -0.0333,0.3015 -0.0652,1.2788 -0.0888,2.2348 -0.0235,1.1197 -0.0368,2.216 -0.0368,2.1827 v 0 c 10e-5,-0.0681 -4.3972,-0.1234 -4.3297,-0.1255 0.0013,-10e-5 0.0027,-0.0328 0.004,-0.0927 0.0694,-0.6533 0.1256,-4.4868 0.1256,-4.4175 z"
         id="path1770" />
      <path
         style="opacity:1;fill:#005fef;fill-opacity:1;stroke:none;stroke-width:1.05833px;stroke-linejoin:round;stroke-miterlimit:10;stroke-opacity:1"
         d="m 25.7648,-43.4669 c 0,0.0399 1.1157,0.0783 2.2035,0.1065 1.0589,0.0272 2.0938,0.0429 2.0556,0.0441 -0.0016,10e-5 -0.0032,0.0325 -0.0048,0.0917 -0.04,0.2984 -0.0783,1.2627 -0.1066,2.2038 -0.0283,1.1031 -0.0441,2.1812 -0.0441,2.1413 v -1e-4 c 0,-0.0816 -4.3401,-0.1481 -4.259,-0.1506 0.0015,0 0.0031,-0.0324 0.0047,-0.0917 0.0832,-0.6466 0.1507,-4.4283 0.1507,-4.345 z"
         id="path1772" />
      <path
         style="opacity:1;fill:#005eed;fill-opacity:1;stroke:none;stroke-width:1.05833px;stroke-linejoin:round;stroke-miterlimit:10;stroke-opacity:1"
         d="m 25.8686,-40.5578 c 0,0.0466 1.1011,0.0914 2.1725,0.1243 1.0429,0.0317 2.0604,0.05 2.0158,0.0515 -0.0018,0 -0.0037,0.0321 -0.0056,0.0907 -0.0466,0.2952 -0.0913,1.2466 -0.1243,2.1727 -0.033,1.0865 -0.0515,2.1465 -0.0515,2.0999 v -10e-5 c 0,-0.0952 -4.2829,-0.1728 -4.1883,-0.1757 0.0018,0 0.0037,-0.0321 0.0055,-0.0907 0.0971,-0.6398 0.1759,-4.3697 0.1759,-4.2726 z"
         id="path1774" />
      <path
         style="opacity:1;fill:#005dea;fill-opacity:1;stroke:none;stroke-width:1.05833px;stroke-linejoin:round;stroke-miterlimit:10;stroke-opacity:1"
         d="m 25.9723,-37.6487 c 0,0.0533 1.0866,0.1044 2.1415,0.1421 1.0269,0.0362 2.0272,0.0572 1.9762,0.0588 -0.0022,1e-4 -0.0043,0.0318 -0.0064,0.0898 -0.0533,0.2921 -0.1044,1.2305 -0.1421,2.1417 -0.0377,1.0699 -0.0589,2.1117 -0.0589,2.0584 v 0 c 0,-0.1089 -4.2256,-0.1975 -4.1176,-0.2008 0.0021,-1e-4 0.0042,-0.0318 0.0063,-0.0898 0.111,-0.633 0.201,-4.3112 0.201,-4.2002 z"
         id="path1776" />
      <path
         style="opacity:1;fill:#005ce8;fill-opacity:1;stroke:none;stroke-width:1.05833px;stroke-linejoin:round;stroke-miterlimit:10;stroke-opacity:1"
         d="m 26.076,-34.7396 c 0,0.06 1.0721,0.1175 2.1105,0.1599 1.011,0.0407 1.9939,0.0643 1.9365,0.0661 -0.0024,10e-5 -0.0048,0.0315 -0.0072,0.0889 -0.0599,0.2889 -0.1174,1.2144 -0.1598,2.1107 -0.0424,1.0532 -0.0663,2.0769 -0.0663,2.017 v -10e-5 c 10e-5,-0.1225 -4.1684,-0.2222 -4.0469,-0.2259 0.0024,-10e-5 0.0048,-0.0315 0.0071,-0.0889 0.1249,-0.6261 0.2261,-4.2525 0.2261,-4.1277 z"
         id="path1778" />
      <path
         style="opacity:1;fill:#005be5;fill-opacity:1;stroke:none;stroke-width:1.05833px;stroke-linejoin:round;stroke-miterlimit:10;stroke-opacity:1"
         d="m 26.1798,-31.8304 c 0,0.0666 1.0574,0.1305 2.0794,0.1776 0.9951,0.0452 1.9606,0.0714 1.8969,0.0735 -0.0027,10e-5 -0.0054,0.0311 -0.008,0.0879 -0.0667,0.2857 -0.1306,1.1982 -0.1777,2.0796 -0.0471,1.0366 -0.0735,2.0422 -0.0735,1.9756 v -10e-5 c 0,-0.136 -4.1113,-0.2468 -3.9762,-0.251 0.0026,-10e-5 0.0052,-0.0311 0.0079,-0.0879 0.1387,-0.6193 0.2512,-4.194 0.2512,-4.0552 z"
         id="path1780" />
      <path
         style="opacity:1;fill:#005ae3;fill-opacity:1;stroke:none;stroke-width:1.05833px;stroke-linejoin:round;stroke-miterlimit:10;stroke-opacity:1"
         d="m 26.2835,-28.9213 c 0,0.0733 1.0429,0.1436 2.0484,0.1954 0.9791,0.0498 1.9273,0.0786 1.8572,0.0808 -0.0029,10e-5 -0.0058,0.0308 -0.0088,0.087 -0.0733,0.2826 -0.1436,1.1821 -0.1954,2.0486 -0.0518,1.02 -0.0809,2.0074 -0.0809,1.9342 v -2e-4 c 0,-0.1496 -4.0541,-0.2715 -3.9055,-0.2761 0.0029,0 0.0058,-0.0307 0.0087,-0.0869 0.1526,-0.6125 0.2763,-4.1354 0.2763,-3.9828 z"
         id="path1782" />
      <path
         style="opacity:1;fill:#0059e0;fill-opacity:1;stroke:none;stroke-width:1.05833px;stroke-linejoin:round;stroke-miterlimit:10;stroke-opacity:1"
         d="m 26.3873,-26.0122 c 0,0.08 1.0283,0.1567 2.0174,0.2132 0.9631,0.0543 1.8939,0.0857 1.8175,0.0881 -0.0032,10e-5 -0.0064,0.0305 -0.0096,0.086 -0.08,0.2795 -0.1567,1.1661 -0.2132,2.0176 -0.0565,1.0034 -0.0883,1.9728 -0.0883,1.8928 v -10e-5 c 10e-5,-0.1633 -3.9969,-0.2962 -3.8348,-0.3012 0.0032,-10e-5 0.0063,-0.0305 0.0095,-0.086 0.1665,-0.6057 0.3015,-4.0769 0.3015,-3.9104 z"
         id="path1784" />
      <path
         style="opacity:1;fill:#0058de;fill-opacity:1;stroke:none;stroke-width:1.05833px;stroke-linejoin:round;stroke-miterlimit:10;stroke-opacity:1"
         d="m 26.491,-23.103 c 0,0.0866 1.0138,0.1696 1.9864,0.2309 0.9472,0.0588 1.8606,0.0928 1.7778,0.0955 -0.0035,10e-5 -0.0069,0.0301 -0.0104,0.085 -0.0866,0.2764 -0.1697,1.15 -0.2309,1.9866 -0.0613,0.9868 -0.0957,1.938 -0.0957,1.8513 v -10e-5 c 10e-5,-0.1769 -3.9396,-0.3209 -3.7641,-0.3263 0.0034,-10e-5 0.0069,-0.0301 0.0103,-0.085 0.1804,-0.5989 0.3266,-4.0183 0.3266,-3.8379 z"
         id="path1786" />
      <path
         style="opacity:1;fill:#0057db;fill-opacity:1;stroke:none;stroke-width:1.05833px;stroke-linejoin:round;stroke-miterlimit:10;stroke-opacity:1"
         d="m 26.5947,-20.1939 c 0,0.0933 0.9992,0.1827 1.9554,0.2487 0.9312,0.0633 1.8274,0.1 1.7381,0.1028 -0.0037,10e-5 -0.0074,0.0298 -0.0111,0.0841 -0.0933,0.2732 -0.1828,1.1339 -0.2487,1.9556 -0.066,0.9701 -0.1031,1.9032 -0.1031,1.8099 v -2e-4 c 10e-5,-0.1904 -3.8824,-0.3455 -3.6933,-0.3514 0.0036,-10e-5 0.0073,-0.0298 0.011,-0.0841 0.1943,-0.5921 0.3517,-3.9597 0.3517,-3.7654 z"
         id="path1788" />
      <path
         style="opacity:1;fill:#0056d9;fill-opacity:1;stroke:none;stroke-width:1.05833px;stroke-linejoin:round;stroke-miterlimit:10;stroke-opacity:1"
         d="m 26.6985,-17.2848 c 0,0.1 0.9846,0.1958 1.9243,0.2665 0.9153,0.0678 1.7941,0.1071 1.6985,0.1102 -0.004,10e-5 -0.008,0.0294 -0.012,0.0831 -0.0999,0.2701 -0.1958,1.1177 -0.2665,1.9245 -0.0706,0.9536 -0.1103,1.8685 -0.1103,1.7685 v -10e-5 c 10e-5,-0.2041 -3.8253,-0.3703 -3.6227,-0.3765 0.0039,-2e-4 0.0079,-0.0295 0.0118,-0.0832 0.2081,-0.5853 0.3769,-3.9011 0.3769,-3.693 z"
         id="path1790" />
      <path
         style="opacity:1;fill:#0055d6;fill-opacity:1;stroke:none;stroke-width:1.05833px;stroke-linejoin:round;stroke-miterlimit:10;stroke-opacity:1"
         d="m 26.8022,-14.3757 c 0,0.1066 0.9701,0.2089 1.8933,0.2843 0.8993,0.0723 1.7608,0.1143 1.6588,0.1175 -0.0042,10e-5 -0.0085,0.0291 -0.0127,0.0822 -0.1067,0.2669 -0.2089,1.1016 -0.2843,1.8935 -0.0754,0.9369 -0.1177,1.8337 -0.1177,1.7271 v -2e-4 c 10e-5,-0.2177 -3.7681,-0.3949 -3.552,-0.4016 0.0042,-10e-5 0.0084,-0.0292 0.0126,-0.0822 0.222,-0.5785 0.402,-3.8426 0.402,-3.6206 z"
         id="path1792" />
      <path
         style="opacity:1;fill:#0054d4;fill-opacity:1;stroke:none;stroke-width:1.05833px;stroke-linejoin:round;stroke-miterlimit:10;stroke-opacity:1"
         d="m 26.9059,-11.4665 c 0,0.1132 0.9556,0.2219 1.8624,0.302 0.8833,0.0768 1.7274,0.1214 1.6191,0.1248 -0.0045,2e-4 -0.0091,0.0289 -0.0136,0.0813 -0.1133,0.2638 -0.2219,1.08549 -0.302,1.86248 -0.0801,0.92028 -0.1251,1.79888 -0.1251,1.68561 v -1.7e-4 c 10e-5,-0.2313 -3.7109,-0.41961 -3.4813,-0.4267 0.0045,-1.3e-4 0.009,-0.02881 0.0135,-0.08123 0.2358,-0.57168 0.427,-3.78399 0.427,-3.54809 z"
         id="path1794" />
      <path
         style="opacity:1;fill:#0053d1;fill-opacity:1;stroke:none;stroke-width:1.05833px;stroke-linejoin:round;stroke-miterlimit:10;stroke-opacity:1"
         d="m 27.0097,-8.5574 c 0,0.11993 0.941,0.23495 1.8313,0.31975 0.8674,0.08141 1.6941,0.12857 1.5794,0.13222 -0.0048,1.5e-4 -0.0096,0.0285 -0.0144,0.08029 -0.1199,0.26065 -0.2349,1.06941 -0.3197,1.83148 -0.0848,0.90366 -0.1325,1.76412 -0.1325,1.64419 v -1.8e-4 c 10e-5,-0.2449 -3.6536,-0.44429 -3.4105,-0.4518 0.0047,-1.4e-4 0.0094,-0.02849 0.0142,-0.08028 0.2497,-0.56488 0.4522,-3.72542 0.4522,-3.47567 z"
         id="path1796" />
      <path
         style="opacity:1;fill:#0052cf;fill-opacity:1;stroke:none;stroke-width:1.05833px;stroke-linejoin:round;stroke-miterlimit:10;stroke-opacity:1"
         d="m 27.1134,-5.64828 c 0,0.1266 0.9264,0.24801 1.8003,0.33752 0.8514,0.08593 1.6609,0.13572 1.5398,0.13957 -0.0051,1.6e-4 -0.0101,0.02817 -0.0152,0.07933 -0.1266,0.25751 -0.248,1.05331 -0.3375,1.80047 -0.0895,0.88704 -0.1398,1.72936 -0.1398,1.60276 v -1.9e-4 c 10e-5,-0.25851 -3.5965,-0.46898 -3.3399,-0.4769 0.005,-1.5e-4 0.01,-0.02816 0.015,-0.07933 0.2636,-0.55807 0.4773,-3.66684 0.4773,-3.40323 z"
         id="path1798" />
      <path
         style="opacity:1;fill:#0051cc;fill-opacity:1;stroke:none;stroke-width:1.05833px;stroke-linejoin:round;stroke-miterlimit:10;stroke-opacity:1"
         d="m 27.2171,-2.73915 c 0,0.13326 0.9119,0.26106 1.7693,0.35528 0.8355,0.09046 1.6276,0.14286 1.5001,0.14691 -0.0053,1.7e-4 -0.0106,0.02784 -0.016,0.07839 -0.1332,0.25437 -0.261,1.0372 -0.3552,1.769442 C 30.021,0.481294 29.9681,1.30547 29.9681,1.17221 v -2e-4 c 10e-5,-0.272118 -3.5393,-0.49366 -3.2692,-0.501999 0.0053,-1.62e-4 0.0105,-0.027832 0.0158,-0.078375 0.2775,-0.5512665 0.5024,-3.608276 0.5024,-3.330786 z"
         id="path1800" />
      <path
         style="opacity:1;fill:#0050c9;fill-opacity:1;stroke:none;stroke-width:1.05833px;stroke-linejoin:round;stroke-miterlimit:10;stroke-opacity:1"
         d="m 27.3209,0.169979 c 0,0.139919 0.8973,0.274108 1.7382,0.373046 0.8196,0.094977 1.5943,0.150001 1.4605,0.154255 -0.0056,1.77e-4 -0.0112,0.027514 -0.0168,0.077433 -0.1399,0.251227 -0.2741,1.021097 -0.3731,1.738427 -0.0989,0.8538 -0.1545,1.65983 -0.1545,1.51991 v -2.1e-4 c 10e-5,-0.28573 -3.4821,-0.51834 -3.1985,-0.5271 0.0055,-1.7e-4 0.0111,-0.0275 0.0166,-0.07742 0.2914,-0.54446 0.5276,-3.549708 0.5276,-3.258341 z"
         id="path1802" />
      <path
         style="opacity:1;fill:#004fc7;fill-opacity:1;stroke:none;stroke-width:1.05833px;stroke-linejoin:round;stroke-miterlimit:10;stroke-opacity:1"
         d="m 27.4246,3.07911 c 0,0.14658 0.8828,0.28716 1.7072,0.39081 0.8036,0.0995 1.561,0.15714 1.4208,0.1616 C 30.5468,3.6317 30.5409,3.6587 30.535,3.708 30.3884,3.95609 30.2479,4.71299 30.1442,5.4154 30.0406,6.25258 29.9823,7.04047 29.9823,6.89389 v -2.2e-4 c 2e-4,-0.29933 -3.4249,-0.54303 -3.1277,-0.5522 0.0057,-1.8e-4 0.0115,-0.02718 0.0173,-0.07647 0.3053,-0.53766 0.5527,-3.49114 0.5527,-3.18589 z"
         id="path1804" />
      <path
         style="opacity:1;fill:#004ec4;fill-opacity:1;stroke:none;stroke-width:1.05833px;stroke-linejoin:round;stroke-miterlimit:10;stroke-opacity:1"
         d="m 27.5284,5.98823 c 0,0.15325 0.8682,0.30022 1.6762,0.40858 0.7876,0.10402 1.5276,0.16429 1.3811,0.16894 -0.0062,2e-4 -0.0123,0.02686 -0.0184,0.07553 -0.1533,0.24495 -0.3002,0.98889 -0.4086,1.67639 -0.1084,0.82056 -0.1692,1.5903 -0.1692,1.43706 v -2.4e-4 c 10e-5,-0.31293 -3.3677,-0.5677 -3.0571,-0.57729 0.006,-1.9e-4 0.0121,-0.02685 0.0181,-0.07552 0.3192,-0.53085 0.5779,-3.43256 0.5779,-3.11345 z"
         id="path1806" />
      <path
         style="opacity:1;fill:#004dc2;fill-opacity:1;stroke:none;stroke-width:1.05833px;stroke-linejoin:round;stroke-miterlimit:10;stroke-opacity:1"
         d="m 27.6321,8.89736 c 0,0.15991 0.8536,0.31327 1.6452,0.42634 0.7717,0.10855 1.4943,0.17143 1.3414,0.17629 -0.0064,2e-4 -0.0128,0.02653 -0.0192,0.07458 -0.1599,0.24181 -0.3132,0.97283 -0.4263,1.64533 -0.1131,0.804 -0.1766,1.5556 -0.1766,1.3957 v -3e-4 c 10e-5,-0.3265 -3.3105,-0.5924 -2.9864,-0.6024 0.0063,-2e-4 0.0126,-0.0265 0.019,-0.0745 0.333,-0.5241 0.6029,-3.37403 0.6029,-3.04104 z"
         id="path1808" />
      <path
         style="opacity:1;fill:#004cbf;fill-opacity:1;stroke:none;stroke-width:1.05833px;stroke-linejoin:round;stroke-miterlimit:10;stroke-opacity:1"
         d="m 27.7358,11.8065 c 0,0.1666 0.8391,0.3263 1.6142,0.4441 0.7557,0.1131 1.4611,0.1786 1.3017,0.1836 -0.0066,2e-4 -0.0133,0.0262 -0.0199,0.0737 -0.1666,0.2386 -0.3264,0.9566 -0.4441,1.6143 -0.1178,0.7873 -0.184,1.5208 -0.184,1.3542 v -2e-4 c 10e-5,-0.3402 -3.2533,-0.6171 -2.9157,-0.6275 0.0066,-2e-4 0.0132,-0.0262 0.0198,-0.0737 0.3468,-0.5172 0.628,-3.3154 0.628,-2.9685 z"
         id="path1810" />
      <path
         style="opacity:1;fill:#004bbd;fill-opacity:1;stroke:none;stroke-width:1.05833px;stroke-linejoin:round;stroke-miterlimit:10;stroke-opacity:1"
         d="m 27.8396,14.7156 c 0,0.1733 0.8245,0.3394 1.5831,0.4619 0.7398,0.1176 1.4278,0.1857 1.2621,0.191 -0.0069,2e-4 -0.0139,0.0258 -0.0208,0.0726 -0.1732,0.2356 -0.3394,0.9406 -0.4619,1.5834 -0.1224,0.7707 -0.1913,1.486 -0.1913,1.3127 v -2e-4 c 2e-4,-0.3538 -3.1961,-0.6418 -2.8449,-0.6526 0.0068,-2e-4 0.0136,-0.0259 0.0205,-0.0727 0.3607,-0.5104 0.6532,-3.2568 0.6532,-2.8961 z"
         id="path1812" />
      <path
         style="opacity:1;fill:#004aba;fill-opacity:1;stroke:none;stroke-width:1.05833px;stroke-linejoin:round;stroke-miterlimit:10;stroke-opacity:1"
         d="m 27.9433,17.6247 c 0,0.1799 0.81,0.3525 1.5521,0.4797 0.7239,0.1221 1.3945,0.1928 1.2224,0.1983 -0.0071,2e-4 -0.0143,0.0255 -0.0215,0.0717 -0.1799,0.2324 -0.3525,0.9245 -0.4797,1.5523 -0.1272,0.7541 -0.1986,1.4513 -0.1986,1.2714 v -3e-4 c 10e-5,-0.3673 -3.139,-0.6664 -2.7743,-0.6777 0.0071,-2e-4 0.0142,-0.0255 0.0213,-0.0717 0.3746,-0.5036 0.6783,-3.1983 0.6783,-2.8237 z"
         id="path1814" />
      <path
         style="opacity:1;fill:#0049b8;fill-opacity:1;stroke:none;stroke-width:1.05833px;stroke-linejoin:round;stroke-miterlimit:10;stroke-opacity:1"
         d="m 28.047,20.5339 c 0,0.1865 0.7954,0.3654 1.5212,0.4974 0.7078,0.1266 1.3611,0.2 1.1827,0.2056 -0.0075,3e-4 -0.0149,0.0253 -0.0224,0.0708 -0.1866,0.2293 -0.3655,0.9084 -0.4974,1.5213 -0.1319,0.7375 -0.206,1.4165 -0.206,1.2299 v -3e-4 c 1e-4,-0.3809 -3.0818,-0.6911 -2.7036,-0.7028 0.0074,-2e-4 0.0147,-0.0252 0.0221,-0.0707 0.3885,-0.4968 0.7034,-3.1397 0.7034,-2.7512 z"
         id="path1816" />
      <path
         style="opacity:1;fill:#0048b5;fill-opacity:1;stroke:none;stroke-width:1.05833px;stroke-linejoin:round;stroke-miterlimit:10;stroke-opacity:1"
         d="m 28.1508,23.443 c 0,0.1932 0.7808,0.3785 1.4901,0.5152 0.6919,0.1311 1.3278,0.2071 1.143,0.213 -0.0077,2e-4 -0.0154,0.0249 -0.0231,0.0698 -0.1933,0.2261 -0.3786,0.8923 -0.5152,1.4903 -0.1366,0.7208 -0.2134,1.3817 -0.2134,1.1885 v -3e-4 c 2e-4,-0.3946 -3.0245,-0.7158 -2.6329,-0.7279 0.0076,-3e-4 0.0153,-0.0249 0.0229,-0.0698 0.4024,-0.49 0.7286,-3.0812 0.7286,-2.6788 z"
         id="path1818" />
      <path
         style="opacity:1;fill:#0047b3;fill-opacity:1;stroke:none;stroke-width:1.05833px;stroke-linejoin:round;stroke-miterlimit:10;stroke-opacity:1"
         d="m 28.2545,26.3521 c 0,0.1999 0.7663,0.3916 1.4591,0.533 0.676,0.1356 1.2946,0.2142 1.1034,0.2203 -0.008,3e-4 -0.016,0.0246 -0.024,0.0689 -0.1999,0.2229 -0.3916,0.8761 -0.5329,1.4592 -0.1414,0.7042 -0.2208,1.347 -0.2208,1.1471 v -3e-4 c 2e-4,-0.4082 -2.9673,-0.7405 -2.5621,-0.753 0.0078,-2e-4 0.0157,-0.0245 0.0236,-0.0688 0.4163,-0.4833 0.7537,-3.0226 0.7537,-2.6064 z"
         id="path1820" />
      <path
         style="opacity:1;fill:#0046b0;fill-opacity:1;stroke:none;stroke-width:1.05833px;stroke-linejoin:round;stroke-miterlimit:10;stroke-opacity:1"
         d="m 28.3583,29.2613 c 0,0.2065 0.7517,0.4046 1.428,0.5506 0.66,0.1402 1.2613,0.2215 1.0637,0.2278 -0.0082,2e-4 -0.0165,0.0242 -0.0248,0.0679 -0.2065,0.2198 -0.4046,0.86 -0.5506,1.4282 -0.1461,0.6876 -0.2281,1.3122 -0.2281,1.1056 v -3e-4 c 10e-5,-0.4218 -2.9102,-0.7651 -2.4915,-0.7781 0.0081,-2e-4 0.0163,-0.0242 0.0245,-0.0679 0.4301,-0.4764 0.7787,-2.964 0.7788,-2.5338 z"
         id="path1822" />
      <path
         style="opacity:1;fill:#0045ae;fill-opacity:1;stroke:none;stroke-width:1.05833px;stroke-linejoin:round;stroke-miterlimit:10;stroke-opacity:1"
         d="m 28.462,32.1704 c 0,0.2132 0.7372,0.4177 1.397,0.5684 0.6441,0.1448 1.228,0.2286 1.0241,0.2351 -0.0086,3e-4 -0.0171,0.0239 -0.0256,0.067 -0.2132,0.2166 -0.4177,0.8439 -0.5685,1.3972 -0.1507,0.6709 -0.2354,1.2774 -0.2354,1.0642 v -3e-4 c 2e-4,-0.4354 -2.853,-0.7899 -2.4208,-0.8032 0.0084,-3e-4 0.0168,-0.0239 0.0253,-0.067 0.444,-0.4696 0.8039,-2.9054 0.8039,-2.4614 z"
         id="path1824" />
      <path
         style="opacity:1;fill:#0044ab;fill-opacity:1;stroke:none;stroke-width:1.05833px;stroke-linejoin:round;stroke-miterlimit:10;stroke-opacity:1"
         d="m 28.5657,35.0795 c 0,0.2199 0.7226,0.4308 1.3661,0.5862 0.628,0.1493 1.1946,0.2357 0.9843,0.2424 -0.0088,3e-4 -0.0176,0.0236 -0.0264,0.066 -0.2198,0.2136 -0.4307,0.8279 -0.5862,1.3662 -0.1555,0.6544 -0.2428,1.2427 -0.2428,1.0228 v -3e-4 c 2e-4,-0.449 -2.7958,-0.8145 -2.3501,-0.8283 0.0087,-3e-4 0.0174,-0.0236 0.0261,-0.066 0.4579,-0.4628 0.829,-2.8469 0.829,-2.389 z"
         id="path1826" />
      <path
         style="opacity:1;fill:#0043a9;fill-opacity:1;stroke:none;stroke-width:1.05833px;stroke-linejoin:round;stroke-miterlimit:10;stroke-opacity:1"
         d="m 28.6695,37.9886 c 0,0.2266 0.708,0.4438 1.335,0.604 0.6121,0.1538 1.1613,0.2429 0.9446,0.2498 -0.009,3e-4 -0.018,0.0232 -0.0271,0.065 -0.2266,0.2104 -0.4438,0.8118 -0.604,1.3352 -0.1602,0.6377 -0.2502,1.2079 -0.2502,0.9814 v -4e-4 c 2e-4,-0.4626 -2.7385,-0.8392 -2.2793,-0.8534 0.0089,-3e-4 0.0178,-0.0232 0.0268,-0.065 0.4717,-0.456 0.8542,-2.7883 0.8542,-2.3166 z"
         id="path1828" />
      <path
         style="opacity:1;fill:#0042a6;fill-opacity:1;stroke:none;stroke-width:1.05833px;stroke-linejoin:round;stroke-miterlimit:10;stroke-opacity:1"
         d="m 28.7732,40.8978 c 0,0.2332 0.6935,0.4568 1.304,0.6217 0.5962,0.1583 1.128,0.25 0.905,0.2571 -0.0093,3e-4 -0.0186,0.0229 -0.028,0.0641 -0.2332,0.2073 -0.4568,0.7956 -0.6217,1.3042 -0.1649,0.6211 -0.2575,1.1731 -0.2575,0.9399 v -4e-4 c 10e-5,-0.4762 -2.6814,-0.8639 -2.2087,-0.8785 0.0092,-2e-4 0.0184,-0.0229 0.0276,-0.064 0.4856,-0.4492 0.8793,-2.7297 0.8793,-2.2441 z"
         id="path1830" />
      <path
         style="opacity:1;fill:#0041a4;fill-opacity:1;stroke:none;stroke-width:1.05833px;stroke-linejoin:round;stroke-miterlimit:10;stroke-opacity:1"
         d="m 28.8769,43.8069 c 0,0.2399 0.679,0.4699 1.273,0.6395 0.5802,0.1628 1.0948,0.2571 0.8653,0.2644 -0.0095,3e-4 -0.0191,0.0226 -0.0287,0.0632 -0.2399,0.2041 -0.4699,0.7795 -0.6395,1.2731 -0.1696,0.6045 -0.2649,1.1384 -0.2649,0.8985 v -3e-4 c 2e-4,-0.4898 -2.6242,-0.8886 -2.138,-0.9036 0.0094,-3e-4 0.0189,-0.0226 0.0284,-0.0632 0.4995,-0.4423 0.9044,-2.6711 0.9044,-2.1716 z"
         id="path1832" />
      <path
         style="opacity:1;fill:#0040a1;fill-opacity:1;stroke:none;stroke-width:1.05833px;stroke-linejoin:round;stroke-miterlimit:10;stroke-opacity:1"
         d="m 28.9807,46.716 c 0,0.2465 0.6644,0.483 1.2419,0.6573 0.5643,0.1673 1.0615,0.2643 0.8257,0.2718 -0.0099,3e-4 -0.0197,0.0222 -0.0296,0.0622 -0.2465,0.201 -0.4829,0.7634 -0.6573,1.2421 -0.1743,0.5879 -0.2722,1.1036 -0.2722,0.8571 v -4e-4 c 2e-4,-0.5034 -2.567,-0.9133 -2.0673,-0.9287 0.0097,-3e-4 0.0195,-0.0222 0.0292,-0.0622 0.5134,-0.4355 0.9296,-2.6125 0.9296,-2.0992 z"
         id="path1834" />
      <path
         style="opacity:1;fill:#003f9f;fill-opacity:1;stroke:none;stroke-width:1.05833px;stroke-linejoin:round;stroke-miterlimit:10;stroke-opacity:1"
         d="m 29.0844,49.6251 c 0,0.2532 0.6498,0.4961 1.211,0.6751 0.5483,0.1718 1.0281,0.2714 0.7859,0.2791 -0.0101,3e-4 -0.0202,0.022 -0.0303,0.0613 -0.2532,0.1978 -0.496,0.7473 -0.6751,1.211 -0.179,0.5713 -0.2796,1.0689 -0.2796,0.8157 v -4e-4 c 2e-4,-0.517 -2.5098,-0.9379 -1.9965,-0.9538 0.0099,-3e-4 0.0199,-0.0219 0.03,-0.0612 0.5272,-0.4288 0.9546,-2.554 0.9546,-2.0268 z"
         id="path1836" />
      <path
         style="opacity:1;fill:#003e9c;fill-opacity:1;stroke:none;stroke-width:1.05833px;stroke-linejoin:round;stroke-miterlimit:10;stroke-opacity:1"
         d="m 29.1881,52.5343 c 0,0.2598 0.6353,0.509 1.18,0.6928 0.5323,0.1764 0.9948,0.2785 0.7463,0.2864 -0.0104,4e-4 -0.0208,0.0217 -0.0312,0.0603 -0.2598,0.1948 -0.509,0.7313 -0.6928,1.1801 -0.1837,0.5546 -0.287,1.0341 -0.287,0.7743 v -4e-4 c 3e-4,-0.5307 -2.4525,-0.9627 -1.9258,-0.9789 0.0102,-3e-4 0.0205,-0.0216 0.0308,-0.0603 0.5411,-0.422 0.9797,-2.4954 0.9797,-1.9543 z"
         id="path1838" />
      <path
         style="opacity:1;fill:#003d9a;fill-opacity:1;stroke:none;stroke-width:1.05833px;stroke-linejoin:round;stroke-miterlimit:10;stroke-opacity:1"
         d="m 29.2919,55.4434 c 0,0.2665 0.6207,0.5221 1.1489,0.7106 0.5164,0.1809 0.9615,0.2857 0.7066,0.2938 -0.0106,3e-4 -0.0213,0.0213 -0.0319,0.0593 -0.2666,0.1916 -0.5222,0.7151 -0.7106,1.1491 -0.1885,0.538 -0.2943,0.9993 -0.2943,0.7328 v -4e-4 c 2e-4,-0.5442 -2.3954,-0.9873 -1.8552,-1.004 0.0105,-3e-4 0.021,-0.0213 0.0316,-0.0593 0.555,-0.4152 1.0049,-2.4369 1.0049,-1.8819 z"
         id="path1840" />
      <path
         style="opacity:1;fill:#003c97;fill-opacity:1;stroke:none;stroke-width:1.05833px;stroke-linejoin:round;stroke-miterlimit:10;stroke-opacity:1"
         d="m 29.3956,58.3525 c 0,0.2732 0.6062,0.5352 1.1179,0.7284 0.5005,0.1854 0.9283,0.2928 0.667,0.3011 -0.0109,4e-4 -0.0219,0.021 -0.0328,0.0584 -0.2732,0.1884 -0.5352,0.699 -0.7283,1.118 -0.1932,0.5214 -0.3017,0.9646 -0.3017,0.6914 v -4e-4 c 2e-4,-0.5578 -2.3382,-1.012 -1.7845,-1.0291 0.0108,-3e-4 0.0216,-0.0209 0.0324,-0.0583 0.5689,-0.4084 1.03,-2.3783 1.03,-1.8095 z"
         id="path1842" />
      <path
         style="opacity:1;fill:#003b94;fill-opacity:1;stroke:none;stroke-width:1.05833px;stroke-linejoin:round;stroke-miterlimit:10;stroke-opacity:1"
         d="m 29.4994,61.2617 c 0,0.2798 0.5916,0.5482 1.0868,0.7461 0.4845,0.1899 0.895,0.3 0.6273,0.3085 -0.0112,3e-4 -0.0223,0.0206 -0.0335,0.0574 -0.2799,0.1853 -0.5483,0.6829 -0.7461,1.087 -0.1979,0.5048 -0.3091,0.9298 -0.3091,0.65 v -5e-4 c 2e-4,-0.5714 -2.281,-1.0366 -1.7137,-1.0541 0.011,-4e-4 0.022,-0.0207 0.0331,-0.0575 0.5828,-0.4015 1.0552,-2.3197 1.0552,-1.7369 z"
         id="path1844" />
      <path
         style="opacity:1;fill:#003a92;fill-opacity:1;stroke:none;stroke-width:1.05833px;stroke-linejoin:round;stroke-miterlimit:10;stroke-opacity:1"
         d="m 29.6031,64.1708 c 0,0.2865 0.577,0.5613 1.0558,0.7638 0.4686,0.1945 0.8617,0.3072 0.5877,0.3159 -0.0115,4e-4 -0.0229,0.0203 -0.0344,0.0565 -0.2865,0.1821 -0.5613,0.6668 -0.7639,1.056 -0.2025,0.4881 -0.3164,0.895 -0.3164,0.6085 v -4e-4 c 3e-4,-0.5851 -2.2238,-1.0614 -1.643,-1.0793 0.0113,-4e-4 0.0226,-0.0203 0.0339,-0.0565 0.5966,-0.3947 1.0803,-2.2611 1.0803,-1.6645 z"
         id="path1846" />
      <path
         style="opacity:1;fill:#00398f;fill-opacity:1;stroke:none;stroke-width:1.05833px;stroke-linejoin:round;stroke-miterlimit:10;stroke-opacity:1"
         d="m 29.7068,67.0799 c 0,0.2932 0.5625,0.5743 1.0249,0.7816 0.4526,0.199 0.8283,0.3143 0.5479,0.3232 -0.0117,4e-4 -0.0234,0.02 -0.0352,0.0556 -0.2931,0.179 -0.5743,0.6507 -0.7816,1.0249 -0.2073,0.4716 -0.3237,0.8603 -0.3237,0.5672 v -5e-4 c 2e-4,-0.5986 -2.1666,-1.086 -1.5724,-1.1044 0.0115,-3e-4 0.0231,-0.0199 0.0348,-0.0555 0.6104,-0.3879 1.1053,-2.2026 1.1053,-1.5921 z"
         id="path1848" />
      <path
         style="opacity:1;fill:#00388d;fill-opacity:1;stroke:none;stroke-width:1.05833px;stroke-linejoin:round;stroke-miterlimit:10;stroke-opacity:1"
         d="m 29.8106,69.989 c 0,0.2999 0.5479,0.5874 0.9938,0.7994 0.4366,0.2035 0.795,0.3215 0.5082,0.3306 -0.0119,4e-4 -0.0239,0.0196 -0.0359,0.0546 -0.2998,0.1758 -0.5874,0.6345 -0.7994,0.9939 -0.212,0.4549 -0.3311,0.8255 -0.3311,0.5257 v -5e-4 c 2e-4,-0.6122 -2.1094,-1.1107 -1.5017,-1.1295 0.0118,-3e-4 0.0237,-0.0196 0.0356,-0.0545 0.6243,-0.3811 1.1305,-2.144 1.1305,-1.5197 z"
         id="path1850" />
      <path
         style="opacity:1;fill:#00378a;fill-opacity:1;stroke:none;stroke-width:1.05833px;stroke-linejoin:round;stroke-miterlimit:10;stroke-opacity:1"
         d="m 29.9143,72.8982 c 0,0.3065 0.5334,0.6004 0.9628,0.8171 0.4207,0.2081 0.7617,0.3286 0.4686,0.3379 -0.0122,4e-4 -0.0245,0.0193 -0.0368,0.0536 -0.3065,0.1728 -0.6004,0.6185 -0.8171,0.963 -0.2167,0.4383 -0.3385,0.7907 -0.3385,0.4842 v -4e-4 c 3e-4,-0.6259 -2.0522,-1.1354 -1.4309,-1.1546 0.012,-4e-4 0.0241,-0.0193 0.0363,-0.0536 0.6382,-0.3744 1.1556,-2.0855 1.1556,-1.4472 z"
         id="path1852" />
      <path
         style="opacity:1;fill:#003688;fill-opacity:1;stroke:none;stroke-width:1.05833px;stroke-linejoin:round;stroke-miterlimit:10;stroke-opacity:1"
         d="m 30.018,75.8073 c 0,0.3132 0.5188,0.6135 0.9318,0.8349 0.4048,0.2126 0.7285,0.3357 0.4289,0.3452 -0.0125,4e-4 -0.025,0.019 -0.0375,0.0527 -0.3132,0.1696 -0.6135,0.6024 -0.8349,0.9319 -0.2215,0.4217 -0.3459,0.756 -0.3459,0.4429 v -5e-4 c 3e-4,-0.6395 -1.995,-1.1601 -1.3602,-1.1797 0.0123,-4e-4 0.0247,-0.019 0.0371,-0.0527 0.6521,-0.3675 1.1807,-2.0268 1.1807,-1.3747 z"
         id="path1854" />
      <path
         style="opacity:1;fill:#003585;fill-opacity:1;stroke:none;stroke-width:1.05833px;stroke-linejoin:round;stroke-miterlimit:10;stroke-opacity:1"
         d="m 30.1218,78.7164 c 0,0.3198 0.5042,0.6266 0.9007,0.8527 0.3888,0.2171 0.6952,0.3429 0.3893,0.3526 -0.0128,4e-4 -0.0256,0.0186 -0.0384,0.0517 -0.3198,0.1665 -0.6265,0.5863 -0.8526,0.9009 -0.2262,0.405 -0.3532,0.7212 -0.3532,0.4014 v -5e-4 c 2e-4,-0.6531 -1.9379,-1.1848 -1.2896,-1.2048 0.0126,-4e-4 0.0252,-0.0186 0.0379,-0.0517 0.666,-0.3607 1.2059,-1.9683 1.2059,-1.3023 z"
         id="path1856" />
      <path
         style="opacity:1;fill:#003483;fill-opacity:1;stroke:none;stroke-width:1.05833px;stroke-linejoin:round;stroke-miterlimit:10;stroke-opacity:1"
         d="m 30.2255,81.6256 c 0,0.3264 0.4897,0.6395 0.8698,0.8704 0.3728,0.2216 0.6618,0.35 0.3495,0.3599 -0.013,4e-4 -0.0261,0.0184 -0.0391,0.0508 -0.3265,0.1633 -0.6396,0.5702 -0.8705,0.8699 -0.2308,0.3884 -0.3605,0.6864 -0.3605,0.3599 v -4e-4 c 3e-4,-0.6667 -1.8807,-1.2095 -1.2189,-1.2299 0.0129,-4e-4 0.0258,-0.0183 0.0387,-0.0508 0.6799,-0.3539 1.231,-1.9097 1.231,-1.2298 z"
         id="path1858" />
      <path
         style="opacity:1;fill:#003380;fill-opacity:1;stroke:none;stroke-width:1.05833px;stroke-linejoin:round;stroke-miterlimit:10;stroke-opacity:1"
         d="m 30.3292,84.5347 c 0,0.3331 0.4752,0.6526 0.8388,0.8882 0.3569,0.2261 0.6285,0.3571 0.3099,0.3673 -0.0133,4e-4 -0.0266,0.018 -0.04,0.0498 -0.3331,0.1601 -0.6526,0.554 -0.8882,0.8388 -0.2356,0.3718 -0.3679,0.6517 -0.3679,0.3186 v -5e-4 c 3e-4,-0.6803 -1.8234,-1.2342 -1.1481,-1.255 0.0131,-4e-4 0.0262,-0.018 0.0394,-0.0498 0.6938,-0.3471 1.2561,-1.8511 1.2561,-1.1574 z"
         id="path1860" />
      <path
         style="opacity:1;fill:#00327e;fill-opacity:1;stroke:none;stroke-width:1.05833px;stroke-linejoin:round;stroke-miterlimit:10;stroke-opacity:1"
         d="m 30.433,87.4438 c 0,0.3398 0.4606,0.6657 0.8077,0.906 0.3409,0.2306 0.5952,0.3643 0.2702,0.3746 -0.0135,4e-4 -0.0271,0.0177 -0.0407,0.0489 -0.3398,0.157 -0.6657,0.5379 -0.906,0.8078 -0.2403,0.3552 -0.3753,0.6169 -0.3753,0.2771 v -5e-4 c 3e-4,-0.6939 -1.7662,-1.2588 -1.0774,-1.2801 0.0134,-4e-4 0.0268,-0.0176 0.0403,-0.0488 0.7076,-0.3403 1.2812,-1.7926 1.2812,-1.085 z"
         id="path1862" />
      <path
         style="opacity:1;fill:#00317b;fill-opacity:1;stroke:none;stroke-width:1.05833px;stroke-linejoin:round;stroke-miterlimit:10;stroke-opacity:1"
         d="m 30.5367,90.3529 c 0,0.3465 0.446,0.6788 0.7767,0.9238 0.325,0.2352 0.5619,0.3714 0.2306,0.3819 -0.0139,5e-4 -0.0277,0.0174 -0.0416,0.048 -0.3465,0.1538 -0.6787,0.5218 -0.9237,0.7768 -0.245,0.3385 -0.3826,0.5821 -0.3826,0.2357 v -6e-4 c 2e-4,-0.7075 -1.7091,-1.2835 -1.0068,-1.3052 0.0136,-4e-4 0.0273,-0.0173 0.0411,-0.0479 0.7214,-0.3334 1.3063,-1.7339 1.3063,-1.0125 z"
         id="path1864" />
      <path
         style="opacity:1;fill:#003079;fill-opacity:1;stroke:none;stroke-width:1.05833px;stroke-linejoin:round;stroke-miterlimit:10;stroke-opacity:1"
         d="m 30.6405,93.2621 c 0,0.3531 0.4314,0.6918 0.7456,0.9415 0.309,0.2397 0.5287,0.3785 0.1909,0.3893 -0.0141,4e-4 -0.0282,0.017 -0.0423,0.0469 -0.3532,0.1508 -0.6918,0.5058 -0.9415,0.7458 -0.2497,0.322 -0.39,0.5474 -0.39,0.1943 v -5e-4 c 3e-4,-0.7211 -1.6519,-1.3082 -0.9361,-1.3303 0.0139,-5e-4 0.0279,-0.017 0.0419,-0.047 0.7353,-0.3266 1.3315,-1.6754 1.3315,-0.94 z"
         id="path1866" />
      <path
         style="opacity:1;fill:#002f76;fill-opacity:1;stroke:none;stroke-width:1.05833px;stroke-linejoin:round;stroke-miterlimit:10;stroke-opacity:1"
         d="m 30.7442,96.1712 c 0,0.3598 0.4169,0.7048 0.7147,0.9593 0.293,0.2442 0.4953,0.3857 0.1511,0.3966 -0.0143,5e-4 -0.0287,0.0167 -0.0431,0.046 -0.3598,0.1476 -0.7048,0.4897 -0.9593,0.7148 -0.2544,0.3053 -0.3973,0.5126 -0.3973,0.1528 v -5e-4 c 3e-4,-0.7347 -1.5947,-1.3329 -0.8653,-1.3554 0.0141,-4e-4 0.0283,-0.0167 0.0426,-0.046 0.7492,-0.3199 1.3566,-1.6168 1.3566,-0.8676 z"
         id="path1868" />
      <path
         style="opacity:1;fill:#002e74;fill-opacity:1;stroke:none;stroke-width:1.05833px;stroke-linejoin:round;stroke-miterlimit:10;stroke-opacity:1"
         d="m 30.8479,99.0803 c 0,0.3665 0.4024,0.7179 0.6837,0.9767 0.2771,0.249 0.462,0.393 0.1115,0.404 -0.0146,0.001 -0.0293,0.017 -0.0439,0.045 -0.3665,0.145 -0.718,0.474 -0.9771,0.684 -0.2591,0.289 -0.4047,0.478 -0.4047,0.112 v -0.001 c 3e-4,-0.748 -1.5374,-1.3575 -0.7946,-1.3805 0.0144,-4e-4 0.0289,-0.0163 0.0434,-0.045 0.7631,-0.3131 1.3817,-1.5583 1.3817,-0.7952 z"
         id="path1870" />
      <path
         style="opacity:1;fill:#002d71;fill-opacity:1;stroke:none;stroke-width:1.05833px;stroke-linejoin:round;stroke-miterlimit:10;stroke-opacity:1"
         d="m 30.9517,101.989 c 0,0.374 0.3878,0.731 0.6526,0.995 0.2611,0.254 0.4287,0.4 0.0718,0.412 -0.0148,0 -0.0298,0.016 -0.0447,0.044 -0.3731,0.141 -0.731,0.457 -0.9948,0.652 -0.2638,0.273 -0.412,0.444 -0.412,0.07 v 0 c 3e-4,-0.762 -1.4803,-1.382 -0.724,-1.406 0.0147,0 0.0294,-0.016 0.0442,-0.044 0.777,-0.306 1.4069,-1.5 1.4069,-0.723 z"
         id="path1872" />
      <path
         style="opacity:1;fill:#002c6f;fill-opacity:1;stroke:none;stroke-width:1.05833px;stroke-linejoin:round;stroke-miterlimit:10;stroke-opacity:1"
         d="m 31.0554,104.899 c 0,0.379 0.3732,0.744 0.6216,1.012 0.2452,0.258 0.3954,0.407 0.0322,0.419 -0.0152,0 -0.0303,0.016 -0.0456,0.043 -0.3797,0.138 -0.744,0.441 -1.0125,0.622 -0.2686,0.255 -0.4194,0.408 -0.4194,0.028 v 0 c 3e-4,-0.776 -1.4231,-1.407 -0.6533,-1.431 0.015,0 0.03,-0.016 0.045,-0.043 0.7909,-0.3 1.432,-1.441 1.432,-0.65 z"
         id="path1874" />
      <path
         style="opacity:1;fill:#002b6c;fill-opacity:1;stroke:none;stroke-width:1.05833px;stroke-linejoin:round;stroke-miterlimit:10;stroke-opacity:1"
         d="m 31.1591,107.808 c 0,0.386 0.3587,0.757 0.5906,1.03 0.2293,0.262 0.3622,0.414 -0.0075,0.426 -0.0154,0.001 -0.0308,0.015 -0.0463,0.042 -0.3865,0.135 -0.7571,0.425 -1.0303,0.591 -0.2733,0.239 -0.4268,0.374 -0.4268,-0.013 v 0 c 3e-4,-0.79 -1.3659,-1.432 -0.5825,-1.456 0.0152,-10e-4 0.0304,-0.016 0.0458,-0.042 0.8047,-0.293 1.457,-1.383 1.457,-0.578 z"
         id="path1876" />
      <path
         style="opacity:1;fill:#002a6a;fill-opacity:1;stroke:none;stroke-width:1.05833px;stroke-linejoin:round;stroke-miterlimit:10;stroke-opacity:1"
         d="m 31.2629,110.717 c 0,0.393 0.3441,0.77 0.5596,1.048 0.2132,0.267 0.3288,0.421 -0.0472,0.433 -0.0157,0.001 -0.0314,0.015 -0.0472,0.042 -0.3931,0.131 -0.7701,0.409 -1.048,0.559 -0.278,0.222 -0.4342,0.339 -0.4342,-0.054 v -0.001 c 3e-4,-0.802 -1.3087,-1.456 -0.5118,-1.481 0.0155,0 0.031,-0.015 0.0466,-0.041 0.8186,-0.286 1.4822,-1.324 1.4822,-0.505 z"
         id="path1878" />
      <path
         style="opacity:1;fill:#002967;fill-opacity:1;stroke:none;stroke-width:1.05833px;stroke-linejoin:round;stroke-miterlimit:10;stroke-opacity:1"
         d="m 31.3666,113.626 c 0,0.4 0.3296,0.783 0.5286,1.066 0.1973,0.271 0.2955,0.428 -0.0869,0.441 -0.0159,0 -0.0319,0.014 -0.0479,0.04 -0.3998,0.129 -0.7832,0.393 -1.0659,0.528 -0.2826,0.206 -0.4415,0.305 -0.4415,-0.095 v -10e-4 c 4e-4,-0.816 -1.2514,-1.481 -0.4411,-1.506 0.0157,0 0.0315,-0.015 0.0474,-0.04 0.8325,-0.279 1.5073,-1.266 1.5073,-0.433 z"
         id="path1880" />
      <path
         style="opacity:1;fill:#002864;fill-opacity:1;stroke:none;stroke-width:1.05833px;stroke-linejoin:round;stroke-miterlimit:10;stroke-opacity:1"
         d="m 31.4704,116.535 c 0,0.407 0.3149,0.796 0.4975,1.084 0.1814,0.276 0.2622,0.435 -0.1265,0.448 -0.0163,0 -0.0325,0.014 -0.0488,0.039 -0.4064,0.126 -0.7962,0.377 -1.0836,0.498 -0.2874,0.189 -0.4488,0.269 -0.4488,-0.137 v -0.001 c 3e-4,-0.83 -1.1943,-1.506 -0.3705,-1.531 0.016,-0.001 0.0321,-0.014 0.0482,-0.039 0.8463,-0.273 1.5324,-1.207 1.5325,-0.361 z"
         id="path1882" />
      <path
         style="opacity:1;fill:#002762;fill-opacity:1;stroke:none;stroke-width:1.05833px;stroke-linejoin:round;stroke-miterlimit:10;stroke-opacity:1"
         d="m 31.5741,119.444 c 0,0.413 0.3004,0.809 0.4665,1.102 0.1654,0.28 0.2289,0.442 -0.1662,0.455 -0.0165,10e-4 -0.033,0.014 -0.0495,0.038 -0.4131,0.123 -0.8093,0.361 -1.1014,0.467 -0.2921,0.172 -0.4562,0.235 -0.4562,-0.179 v 0 c 3e-4,-0.844 -1.1371,-1.531 -0.2997,-1.556 0.0162,-0.001 0.0325,-0.014 0.0489,-0.039 0.8602,-0.265 1.5576,-1.148 1.5576,-0.288 z"
         id="path1884" />
      <path
         style="opacity:1;fill:#00265f;fill-opacity:1;stroke:none;stroke-width:1.05833px;stroke-linejoin:round;stroke-miterlimit:10;stroke-opacity:1"
         d="m 31.6778,122.353 c 0,0.42 0.2859,0.823 0.4355,1.119 0.1495,0.285 0.1956,0.45 -0.2058,0.463 -0.0168,0.001 -0.0336,0.014 -0.0504,0.038 -0.4197,0.119 -0.8223,0.344 -1.1191,0.435 -0.2968,0.156 -0.4636,0.2 -0.4636,-0.22 v 0 c 4e-4,-0.858 -1.0799,-1.555 -0.229,-1.582 0.0165,0 0.0331,-0.013 0.0497,-0.037 0.8741,-0.259 1.5827,-1.09 1.5827,-0.216 z"
         id="path1886" />
      <path
         style="opacity:1;fill:#00255d;fill-opacity:1;stroke:none;stroke-width:1.05833px;stroke-linejoin:round;stroke-miterlimit:10;stroke-opacity:1"
         d="m 31.7816,125.262 c 0,0.427 0.2713,0.836 0.4044,1.137 0.1336,0.29 0.1624,0.458 -0.2455,0.47 -0.017,0.001 -0.0341,0.014 -0.0511,0.037 -0.4265,0.116 -0.8354,0.329 -1.1369,0.405 -0.3016,0.139 -0.471,0.165 -0.471,-0.262 v -0.001 c 4e-4,-0.87 -1.0227,-1.579 -0.1583,-1.606 0.0168,0 0.0336,-0.013 0.0505,-0.036 0.888,-0.252 1.6079,-1.032 1.6079,-0.144 z"
         id="path1888" />
      <path
         style="opacity:1;fill:#00245a;fill-opacity:1;stroke:none;stroke-width:1.05833px;stroke-linejoin:round;stroke-miterlimit:10;stroke-opacity:1"
         d="m 31.8853,128.172 c 0,0.433 0.2568,0.848 0.3735,1.154 0.1175,0.294 0.129,0.465 -0.2853,0.478 -0.0172,0 -0.0345,0.013 -0.0519,0.035 -0.4331,0.113 -0.8484,0.313 -1.1547,0.374 -0.3062,0.122 -0.4782,0.13 -0.4782,-0.303 v -0.001 c 3e-4,-0.884 -0.9655,-1.604 -0.0877,-1.631 0.0171,-0.001 0.0342,-0.013 0.0514,-0.036 0.9018,-0.245 1.6329,-0.972 1.6329,-0.07 z"
         id="path1890" />
      <path
         style="opacity:1;fill:#002358;fill-opacity:1;stroke:none;stroke-width:1.05833px;stroke-linejoin:round;stroke-miterlimit:10;stroke-opacity:1"
         d="m 31.989,131.081 c 0,0.439 0.2422,0.861 0.3425,1.172 0.1016,0.299 0.0957,0.472 -0.3249,0.485 -0.0176,0.001 -0.0351,0.013 -0.0527,0.035 -0.4398,0.109 -0.8615,0.296 -1.1725,0.342 -0.3109,0.106 -0.4856,0.096 -0.4856,-0.344 v -10e-4 c 3e-4,-0.898 -0.9083,-1.629 -0.0169,-1.656 0.0173,-0.001 0.0346,-0.013 0.0521,-0.035 0.9157,-0.238 1.658,-0.914 1.658,0.002 z"
         id="path1892" />
      <path
         style="opacity:1;fill:#002255;fill-opacity:1;stroke:none;stroke-width:1.05833px;stroke-linejoin:round;stroke-miterlimit:10;stroke-opacity:1"
         d="m 32.0928,133.99 c 0,0.446 0.2276,0.874 0.3114,1.19 0.0857,0.303 0.0624,0.479 -0.3646,0.492 -0.0178,0.001 -0.0356,0.013 -0.0535,0.034 -0.4464,0.107 -0.8745,0.28 -1.1902,0.311 -0.3156,0.09 -0.493,0.061 -0.493,-0.385 v -0.001 c 4e-4,-0.912 -0.8511,-1.654 0.0538,-1.682 0.0176,0 0.0352,-0.012 0.0529,-0.033 0.9296,-0.232 1.6832,-0.856 1.6832,0.074 z"
         id="path1894" />
      <path
         style="opacity:1;fill:#002153;fill-opacity:1;stroke:none;stroke-width:1.05833px;stroke-linejoin:round;stroke-miterlimit:10;stroke-opacity:1"
         d="m 32.1965,136.899 c 0,0.453 0.2131,0.888 0.2804,1.208 0.0697,0.307 0.0291,0.486 -0.4042,0.499 -0.0181,0.001 -0.0362,0.013 -0.0543,0.033 -0.4531,0.104 -0.8876,0.264 -1.208,0.281 -0.3204,0.072 -0.5004,0.026 -0.5004,-0.428 v 0 c 4e-4,-0.925 -0.7939,-1.679 0.1245,-1.707 0.0178,-0.001 0.0357,-0.012 0.0537,-0.033 0.9435,-0.224 1.7083,-0.796 1.7083,0.147 z"
         id="path1896" />
      <path
         style="opacity:1;fill:#002050;fill-opacity:1;stroke:none;stroke-width:1.05833px;stroke-linejoin:round;stroke-miterlimit:10;stroke-opacity:1"
         d="m 32.3002,139.808 c 0,0.46 0.1986,0.901 0.2494,1.226 0.0538,0.312 -0.0041,0.493 -0.4439,0.507 -0.0183,0 -0.0367,0.011 -0.0551,0.031 -0.4597,0.101 -0.9006,0.248 -1.2257,0.25 -0.3251,0.056 -0.5077,-0.009 -0.5077,-0.469 v 0 c 3e-4,-0.939 -0.7368,-1.703 0.1951,-1.732 0.0181,-0.001 0.0363,-0.012 0.0545,-0.032 0.9574,-0.218 1.7334,-0.738 1.7334,0.219 z"
         id="path1898" />
      <path
         style="opacity:1;fill:#001f4e;fill-opacity:1;stroke:none;stroke-width:1.05833px;stroke-linejoin:round;stroke-miterlimit:10;stroke-opacity:1"
         d="m 32.404,142.717 c 0,0.467 0.184,0.914 0.2184,1.244 0.0377,0.316 -0.0375,0.5 -0.4836,0.514 -0.0186,0 -0.0373,0.011 -0.056,0.031 -0.4664,0.097 -0.9137,0.232 -1.2434,0.218 -0.3298,0.04 -0.5151,-0.043 -0.5151,-0.51 v -0.001 c 4e-4,-0.952 -0.6796,-1.727 0.2659,-1.757 0.0183,0 0.0367,-0.011 0.0552,-0.03 0.9712,-0.211 1.7586,-0.68 1.7586,0.291 z"
         id="path1900" />
      <path
         style="opacity:1;fill:#001e4b;fill-opacity:1;stroke:none;stroke-width:1.05833px;stroke-linejoin:round;stroke-miterlimit:10;stroke-opacity:1"
         d="m 32.5077,145.626 c 0,0.473 0.1694,0.927 0.1874,1.262 0.0218,0.321 -0.0708,0.507 -0.5233,0.521 -0.0189,0.001 -0.0378,0.011 -0.0567,0.03 -0.4731,0.094 -0.9268,0.216 -1.2613,0.187 -0.3345,0.023 -0.5224,-0.078 -0.5224,-0.551 v -10e-4 c 4e-4,-0.966 -0.6223,-1.752 0.3366,-1.782 0.0186,0 0.0373,-0.011 0.056,-0.03 0.9851,-0.204 1.7837,-0.621 1.7837,0.364 z"
         id="path1902" />
      <path
         style="opacity:1;fill:#001d49;fill-opacity:1;stroke:none;stroke-width:1.05833px;stroke-linejoin:round;stroke-miterlimit:10;stroke-opacity:1"
         d="m 32.6115,148.535 c 0,0.48 0.1548,0.94 0.1563,1.28 0.0059,0.325 -0.1041,0.514 -0.5629,0.528 -0.0192,0.001 -0.0384,0.011 -0.0576,0.029 -0.4797,0.091 -0.9398,0.2 -1.279,0.157 -0.3392,0.006 -0.5298,-0.113 -0.5298,-0.593 v -0.001 c 4e-4,-0.979 -0.5651,-1.777 0.4073,-1.807 0.0189,-10e-4 0.0378,-0.011 0.0569,-0.029 0.9989,-0.197 1.8088,-0.562 1.8088,0.436 z"
         id="path1904" />
      <path
         style="opacity:1;fill:#001c46;fill-opacity:1;stroke:none;stroke-width:1.05833px;stroke-linejoin:round;stroke-miterlimit:10;stroke-opacity:1"
         d="m 32.7152,151.445 c 0,0.486 0.1403,0.952 0.1253,1.296 -0.0101,0.331 -0.1374,0.522 -0.6026,0.537 -0.0194,0 -0.0388,0.01 -0.0583,0.028 -0.4864,0.087 -0.9529,0.183 -1.2968,0.125 -0.3439,-0.011 -0.5371,-0.148 -0.5371,-0.634 v -0.001 c 4e-4,-0.993 -0.508,-1.802 0.4779,-1.832 0.0192,-0.001 0.0384,-0.011 0.0577,-0.028 1.0128,-0.191 1.8339,-0.504 1.8339,0.509 z"
         id="path1906" />
      <path
         style="opacity:1;fill:#001b44;fill-opacity:1;stroke:none;stroke-width:1.05833px;stroke-linejoin:round;stroke-miterlimit:10;stroke-opacity:1"
         d="m 32.8189,154.354 c 0,0.493 0.1258,0.966 0.0943,1.314 -0.026,0.335 -0.1707,0.529 -0.6423,0.544 -0.0196,0 -0.0393,0.01 -0.0591,0.027 -0.493,0.085 -0.9659,0.167 -1.3145,0.094 -0.3487,-0.027 -0.5445,-0.182 -0.5445,-0.675 v -10e-4 c 4e-4,-1.007 -0.4508,-1.827 0.5487,-1.858 0.0194,0 0.0388,-0.01 0.0584,-0.027 1.0267,-0.183 1.859,-0.445 1.859,0.582 z"
         id="path1908" />
      <path
         style="opacity:1;fill:#001a41;fill-opacity:1;stroke:none;stroke-width:1.05833px;stroke-linejoin:round;stroke-miterlimit:10;stroke-opacity:1"
         d="m 32.9227,157.263 c 0,0.5 0.1111,0.979 0.0633,1.332 -0.042,0.339 -0.204,0.536 -0.682,0.551 -0.0199,0.001 -0.0399,0.01 -0.0599,0.026 -0.4997,0.082 -0.979,0.152 -1.3323,0.063 -0.3534,-0.043 -0.5519,-0.217 -0.5519,-0.717 v 0 c 4e-4,-1.021 -0.3936,-1.852 0.6194,-1.883 0.0196,0 0.0394,-0.01 0.0592,-0.026 1.0406,-0.177 1.8842,-0.387 1.8842,0.654 z"
         id="path1910" />
      <path
         style="opacity:1;fill:#00193f;fill-opacity:1;stroke:none;stroke-width:1.05833px;stroke-linejoin:round;stroke-miterlimit:10;stroke-opacity:1"
         d="m 33.0264,160.172 c 0,0.506 0.0966,0.992 0.0323,1.35 -0.058,0.344 -0.2373,0.543 -0.7217,0.558 -0.0202,10e-4 -0.0404,0.01 -0.0607,0.025 -0.5064,0.079 -0.992,0.136 -1.3501,0.033 -0.358,-0.061 -0.5592,-0.252 -0.5592,-0.759 v -0.001 c 4e-4,-1.034 -0.3363,-1.875 0.6901,-1.907 0.0199,-0.001 0.0399,-0.01 0.06,-0.025 1.0545,-0.17 1.9093,-0.328 1.9093,0.726 z"
         id="path1912" />
      <path
         style="opacity:1;fill:#00183c;fill-opacity:1;stroke:none;stroke-width:1.05833px;stroke-linejoin:round;stroke-miterlimit:10;stroke-opacity:1"
         d="m 33.1301,163.081 c 0,0.513 0.0821,1.005 0.0013,1.368 -0.0739,0.348 -0.2706,0.55 -0.7613,0.566 -0.0205,0 -0.041,0.009 -0.0615,0.024 -0.5131,0.075 -1.0051,0.119 -1.3679,0.001 -0.3627,-0.077 -0.5665,-0.287 -0.5665,-0.8 v -0.001 c 4e-4,-1.047 -0.2792,-1.9 0.7607,-1.932 0.0202,-10e-4 0.0405,-0.01 0.0608,-0.025 1.0684,-0.163 1.9344,-0.269 1.9344,0.799 z"
         id="path1914" />
      <path
         style="opacity:1;fill:#00173a;fill-opacity:1;stroke:none;stroke-width:1.05833px;stroke-linejoin:round;stroke-miterlimit:10;stroke-opacity:1"
         d="m 33.2339,165.99 c 0,0.52 0.0675,1.018 -0.0298,1.386 -0.0898,0.353 -0.3039,0.557 -0.801,0.573 -0.0207,0 -0.0415,0.009 -0.0623,0.023 -0.5197,0.072 -1.0181,0.103 -1.3856,-0.03 -0.3675,-0.093 -0.5739,-0.321 -0.5739,-0.841 V 167.1 c 4e-4,-1.061 -0.222,-1.925 0.8315,-1.958 0.0204,0 0.0409,-0.008 0.0615,-0.023 1.0823,-0.156 1.9596,-0.211 1.9596,0.871 z"
         id="path1916" />
      <path
         style="opacity:1;fill:#001637;fill-opacity:1;stroke:none;stroke-width:1.05833px;stroke-linejoin:round;stroke-miterlimit:10;stroke-opacity:1"
         d="m 33.3376,168.899 c 0,0.527 0.053,1.032 -0.0608,1.404 -0.1058,0.357 -0.3372,0.564 -0.8406,0.58 -0.021,10e-4 -0.0421,0.009 -0.0631,0.022 -0.5264,0.069 -1.0312,0.087 -1.4034,-0.06 -0.3722,-0.111 -0.5813,-0.357 -0.5813,-0.883 v -10e-4 c 4e-4,-1.075 -0.1648,-1.95 0.9022,-1.983 0.0207,-0.001 0.0415,-0.008 0.0624,-0.022 1.096,-0.15 1.9846,-0.153 1.9846,0.943 z"
         id="path1918" />
      <path
         style="opacity:1;fill:#001535;fill-opacity:1;stroke:none;stroke-width:1.05833px;stroke-linejoin:round;stroke-miterlimit:10;stroke-opacity:1"
         d="m 33.4413,171.809 c 0,0.533 0.0384,1.044 -0.0917,1.421 -0.1218,0.361 -0.3705,0.571 -0.8804,0.587 -0.0212,0.001 -0.0426,0.008 -0.0639,0.022 -0.533,0.065 -1.0442,0.07 -1.4211,-0.092 -0.3769,-0.127 -0.5887,-0.391 -0.5887,-0.924 v -0.001 c 5e-4,-1.089 -0.1076,-1.975 0.9729,-2.008 0.021,-0.001 0.042,-0.008 0.0632,-0.021 1.1099,-0.143 2.0097,-0.094 2.0097,1.016 z"
         id="path1920" />
      <path
         style="opacity:1;fill:#001432;fill-opacity:1;stroke:none;stroke-width:1.05833px;stroke-linejoin:round;stroke-miterlimit:10;stroke-opacity:1"
         d="m 33.5451,174.718 c 0,0.539 0.0238,1.057 -0.1228,1.439 -0.1377,0.366 -0.4038,0.578 -0.92,0.595 -0.0216,0 -0.0431,0.007 -0.0647,0.02 -0.5397,0.063 -1.0573,0.055 -1.4389,-0.123 -0.3817,-0.143 -0.596,-0.426 -0.596,-0.966 v 0 c 4e-4,-1.102 -0.0504,-2 1.0435,-2.034 0.0213,0 0.0426,-0.007 0.064,-0.02 1.1238,-0.136 2.0349,-0.035 2.0349,1.089 z"
         id="path1922" />
      <path
         style="opacity:1;fill:#00132f;fill-opacity:1;stroke:none;stroke-width:1.05833px;stroke-linejoin:round;stroke-miterlimit:10;stroke-opacity:1"
         d="m 33.6488,177.627 c 0,0.546 0.0093,1.07 -0.1538,1.456 -0.1537,0.371 -0.4371,0.586 -0.9597,0.603 -0.0218,0 -0.0436,0.007 -0.0655,0.019 -0.5464,0.06 -1.0703,0.039 -1.4567,-0.154 -0.3863,-0.16 -0.6033,-0.46 -0.6033,-1.007 v -0.001 c 4e-4,-1.115 0.0068,-2.024 1.1143,-2.058 0.0215,0 0.043,-0.007 0.0647,-0.019 1.1377,-0.129 2.06,0.023 2.06,1.161 z"
         id="path1924" />
      <path
         style="opacity:1;fill:#00122d;fill-opacity:1;stroke:none;stroke-width:1.05833px;stroke-linejoin:round;stroke-miterlimit:10;stroke-opacity:1"
         d="m 33.7526,180.536 c 0,0.553 -0.0053,1.083 -0.1849,1.474 -0.1696,0.376 -0.4704,0.593 -0.9993,0.61 -0.0221,0.001 -0.0442,0.007 -0.0664,0.018 -0.553,0.057 -1.0833,0.023 -1.4744,-0.184 -0.391,-0.177 -0.6107,-0.496 -0.6107,-1.049 v -0.001 c 4e-4,-1.129 0.064,-2.048 1.185,-2.083 0.0217,-0.001 0.0436,-0.007 0.0655,-0.018 1.1516,-0.123 2.0852,0.081 2.0852,1.233 z"
         id="path1926" />
      <path
         style="opacity:1;fill:#00112a;fill-opacity:1;stroke:none;stroke-width:1.05833px;stroke-linejoin:round;stroke-miterlimit:10;stroke-opacity:1"
         d="m 33.8563,183.445 c 0,0.56 -0.0198,1.096 -0.2159,1.492 -0.1855,0.38 -0.5037,0.6 -1.039,0.617 -0.0223,0.001 -0.0447,0.007 -0.0671,0.018 -0.5597,0.053 -1.0964,0.006 -1.4922,-0.216 -0.3957,-0.193 -0.6181,-0.53 -0.6181,-1.09 v -0.001 c 5e-4,-1.143 0.1212,-2.073 1.2557,-2.108 0.022,-0.001 0.0441,-0.007 0.0663,-0.018 1.1655,-0.115 2.1103,0.141 2.1103,1.306 z"
         id="path1928" />
      <path
         style="opacity:1;fill:#001028;fill-opacity:1;stroke:none;stroke-width:1.05833px;stroke-linejoin:round;stroke-miterlimit:10;stroke-opacity:1"
         d="m 33.96,186.354 c 0,0.566 -0.0344,1.11 -0.2469,1.51 -0.2015,0.385 -0.537,0.607 -1.0787,0.624 -0.0225,0.001 -0.0452,0.007 -0.0679,0.017 -0.5663,0.05 -1.1095,-0.01 -1.5099,-0.247 -0.4005,-0.21 -0.6255,-0.565 -0.6255,-1.131 v -0.001 c 5e-4,-1.157 0.1784,-2.098 1.3264,-2.134 0.0223,0 0.0447,-0.006 0.0671,-0.016 1.1794,-0.109 2.1354,0.199 2.1354,1.378 z"
         id="path1930" />
      <path
         style="opacity:1;fill:#000f25;fill-opacity:1;stroke:none;stroke-width:1.05833px;stroke-linejoin:round;stroke-miterlimit:10;stroke-opacity:1"
         d="m 34.0638,189.263 c 0,0.573 -0.049,1.123 -0.2779,1.528 -0.2175,0.389 -0.5703,0.614 -1.1184,0.632 -0.0229,0 -0.0458,0.006 -0.0687,0.015 -0.573,0.047 -1.1226,-0.025 -1.5277,-0.278 -0.4052,-0.226 -0.6328,-0.599 -0.6328,-1.172 v -0.001 c 4e-4,-1.17 0.2355,-2.123 1.3971,-2.159 0.0225,-0.001 0.0451,-0.006 0.0679,-0.015 1.1932,-0.102 2.1605,0.257 2.1605,1.45 z"
         id="path1932" />
      <path
         style="opacity:1;fill:#000e23;fill-opacity:1;stroke:none;stroke-width:1.05833px;stroke-linejoin:round;stroke-miterlimit:10;stroke-opacity:1"
         d="m 34.1675,192.172 c 0,0.58 -0.0635,1.136 -0.3089,1.546 -0.2335,0.393 -0.6036,0.621 -1.1581,0.639 -0.0231,0.001 -0.0463,0.006 -0.0695,0.015 -0.5796,0.044 -1.1356,-0.042 -1.5454,-0.309 -0.4099,-0.244 -0.6402,-0.635 -0.6402,-1.215 v 0 c 5e-4,-1.184 0.2928,-2.148 1.4678,-2.184 0.0228,-10e-4 0.0457,-0.006 0.0687,-0.015 1.2071,-0.095 2.1856,0.316 2.1856,1.523 z"
         id="path1934" />
      <path
         style="opacity:1;fill:#000d20;fill-opacity:1;stroke:none;stroke-width:1.05833px;stroke-linejoin:round;stroke-miterlimit:10;stroke-opacity:1"
         d="m 34.2712,195.082 c 0,0.586 -0.078,1.148 -0.3399,1.563 -0.2494,0.398 -0.6369,0.628 -1.1977,0.646 -0.0234,0.001 -0.0468,0.006 -0.0703,0.014 -0.5864,0.041 -1.1487,-0.058 -1.5633,-0.34 -0.4146,-0.26 -0.6475,-0.669 -0.6475,-1.256 v -0.001 c 5e-4,-1.197 0.35,-2.172 1.5385,-2.208 0.0231,-0.001 0.0462,-0.006 0.0695,-0.014 1.221,-0.088 2.2107,0.375 2.2107,1.596 z"
         id="path1936" />
      <path
         style="opacity:1;fill:#000c1e;fill-opacity:1;stroke:none;stroke-width:1.05833px;stroke-linejoin:round;stroke-miterlimit:10;stroke-opacity:1"
         d="m 34.375,197.991 c 0,0.593 -0.0927,1.161 -0.371,1.581 -0.2653,0.402 -0.6702,0.635 -1.2374,0.653 -0.0236,0.001 -0.0473,0.006 -0.0711,0.013 -0.593,0.038 -1.1617,-0.074 -1.581,-0.371 -0.4193,-0.276 -0.6549,-0.704 -0.6549,-1.297 v -0.001 c 5e-4,-1.211 0.4072,-2.197 1.6092,-2.234 0.0234,0 0.0468,-0.005 0.0703,-0.012 1.2348,-0.082 2.2359,0.433 2.2359,1.668 z"
         id="path1938" />
      <path
         style="opacity:1;fill:#000b1b;fill-opacity:1;stroke:none;stroke-width:1.05833px;stroke-linejoin:round;stroke-miterlimit:10;stroke-opacity:1"
         d="m 34.4787,200.9 c 0,0.599 -0.1072,1.175 -0.402,1.599 -0.2813,0.407 -0.7035,0.642 -1.277,0.661 -0.024,0 -0.0479,0.005 -0.0719,0.011 -0.5997,0.035 -1.1748,-0.09 -1.5988,-0.402 -0.424,-0.293 -0.6622,-0.738 -0.6622,-1.338 v -0.001 c 5e-4,-1.224 0.4643,-2.221 1.6799,-2.259 0.0236,-0.001 0.0472,-0.005 0.071,-0.012 1.2487,-0.075 2.261,0.492 2.261,1.741 z"
         id="path1940" />
      <path
         style="opacity:1;fill:#000a19;fill-opacity:1;stroke:none;stroke-width:1.05833px;stroke-linejoin:round;stroke-miterlimit:10;stroke-opacity:1"
         d="m 34.5825,203.809 c 0,0.606 -0.1218,1.188 -0.433,1.616 -0.2973,0.412 -0.7369,0.65 -1.3168,0.669 -0.0242,0.001 -0.0484,0.004 -0.0727,0.011 -0.6063,0.031 -1.1878,-0.107 -1.6165,-0.433 -0.4288,-0.31 -0.6696,-0.774 -0.6696,-1.38 v -0.001 c 5e-4,-1.238 0.5215,-2.246 1.7506,-2.284 0.0238,-0.001 0.0478,-0.005 0.0718,-0.011 1.2626,-0.068 2.2861,0.55 2.2862,1.813 z"
         id="path1942" />
      <path
         style="opacity:1;fill:#000916;fill-opacity:1;stroke:none;stroke-width:1.05833px;stroke-linejoin:round;stroke-miterlimit:10;stroke-opacity:1"
         d="m 34.6862,206.718 c 0,0.613 -0.1363,1.201 -0.464,1.634 -0.3132,0.416 -0.7701,0.657 -1.3564,0.676 -0.0245,0.001 -0.049,0.004 -0.0735,0.01 -0.613,0.028 -1.2009,-0.122 -1.6343,-0.464 -0.4335,-0.326 -0.677,-0.808 -0.677,-1.421 v -0.001 c 5e-4,-1.252 0.5788,-2.271 1.8213,-2.309 0.0241,-10e-4 0.0483,-0.005 0.0726,-0.01 1.2765,-0.062 2.3113,0.609 2.3113,1.885 z"
         id="path1944" />
      <path
         style="opacity:1;fill:#000814;fill-opacity:1;stroke:none;stroke-width:1.05833px;stroke-linejoin:round;stroke-miterlimit:10;stroke-opacity:1"
         d="m 34.7899,209.627 c 0,0.62 -0.1508,1.214 -0.495,1.652 -0.3292,0.421 -0.8034,0.665 -1.3961,0.683 -0.0247,0.001 -0.0495,0.004 -0.0743,0.009 -0.6196,0.025 -1.2139,-0.138 -1.6521,-0.495 -0.4381,-0.343 -0.6843,-0.843 -0.6843,-1.463 v 0 c 5e-4,-1.266 0.636,-2.296 1.892,-2.335 0.0244,-0.001 0.0489,-0.004 0.0735,-0.009 1.2903,-0.054 2.3363,0.668 2.3363,1.958 z"
         id="path1946" />
      <path
         style="opacity:1;fill:#000711;fill-opacity:1;stroke:none;stroke-width:1.05833px;stroke-linejoin:round;stroke-miterlimit:10;stroke-opacity:1"
         d="m 34.8937,212.536 c 0,0.627 -0.1655,1.227 -0.5261,1.67 -0.3451,0.425 -0.8367,0.672 -1.4358,0.691 -0.0249,0 -0.05,0.003 -0.075,0.008 -0.6264,0.022 -1.227,-0.155 -1.6699,-0.526 -0.4428,-0.36 -0.6916,-0.878 -0.6916,-1.505 v -0.001 c 5e-4,-1.279 0.6931,-2.32 1.9627,-2.359 0.0246,-0.001 0.0493,-0.004 0.0742,-0.008 1.3042,-0.048 2.3615,0.726 2.3615,2.03 z"
         id="path1948" />
      <path
         style="opacity:1;fill:#00060f;fill-opacity:1;stroke:none;stroke-width:1.05833px;stroke-linejoin:round;stroke-miterlimit:10;stroke-opacity:1"
         d="m 34.9974,215.445 c 0,0.633 -0.18,1.24 -0.5571,1.688 -0.361,0.43 -0.87,0.679 -1.4754,0.698 -0.0253,0.001 -0.0506,0.003 -0.0759,0.007 -0.633,0.019 -1.24,-0.171 -1.6876,-0.557 -0.4476,-0.376 -0.699,-0.913 -0.699,-1.546 v -0.001 c 5e-4,-1.292 0.7503,-2.345 2.0334,-2.384 0.0249,-0.001 0.0499,-0.003 0.075,-0.007 1.3181,-0.041 2.3866,0.784 2.3866,2.102 z"
         id="path1950" />
      <path
         style="opacity:1;fill:#00050c;fill-opacity:1;stroke:none;stroke-width:1.05833px;stroke-linejoin:round;stroke-miterlimit:10;stroke-opacity:1"
         d="m 35.1011,218.355 c 0,0.639 -0.1945,1.253 -0.588,1.705 -0.3771,0.434 -0.9034,0.686 -1.5152,0.705 -0.0255,0.001 -0.051,0.003 -0.0767,0.006 -0.6396,0.016 -1.253,-0.187 -1.7053,-0.588 -0.4523,-0.393 -0.7064,-0.947 -0.7064,-1.587 v -0.001 c 5e-4,-1.306 0.8075,-2.37 2.1041,-2.41 0.0252,0 0.0504,-0.002 0.0758,-0.006 1.332,-0.034 2.4117,0.844 2.4117,2.176 z"
         id="path1952" />
      <path
         style="opacity:1;fill:#00040a;fill-opacity:1;stroke:none;stroke-width:1.05833px;stroke-linejoin:round;stroke-miterlimit:10;stroke-opacity:1"
         d="m 35.2049,221.264 c 0,0.646 -0.2091,1.266 -0.6191,1.723 -0.393,0.439 -0.9366,0.693 -1.5548,0.712 -0.0258,10e-4 -0.0516,0.003 -0.0775,0.005 -0.6463,0.013 -1.2661,-0.203 -1.7231,-0.619 -0.457,-0.409 -0.7138,-0.982 -0.7138,-1.628 v -0.001 c 6e-4,-1.32 0.8648,-2.394 2.1748,-2.435 0.0255,-10e-4 0.051,-0.002 0.0766,-0.005 1.3459,-0.027 2.4369,0.902 2.4369,2.248 z"
         id="path1954" />
      <path
         style="opacity:1;fill:#000307;fill-opacity:1;stroke:none;stroke-width:1.05833px;stroke-linejoin:round;stroke-miterlimit:10;stroke-opacity:1"
         d="m 35.3086,224.173 c 0,0.653 -0.2236,1.279 -0.6501,1.741 -0.4089,0.443 -0.9699,0.7 -1.5945,0.72 -0.026,0 -0.0521,0.002 -0.0783,0.004 -0.6529,0.009 -1.2791,-0.219 -1.7408,-0.65 -0.4618,-0.426 -0.7211,-1.017 -0.7211,-1.67 v -0.001 c 5e-4,-1.334 0.9219,-2.419 2.2455,-2.46 0.0257,-0.001 0.0514,-0.002 0.0773,-0.004 1.3597,-0.021 2.462,0.96 2.462,2.32 z"
         id="path1956" />
      <path
         style="opacity:1;fill:#000205;fill-opacity:1;stroke:none;stroke-width:1.05833px;stroke-linejoin:round;stroke-miterlimit:10;stroke-opacity:1"
         d="m 35.4123,227.082 c 0,0.66 -0.2382,1.292 -0.6811,1.759 -0.4249,0.447 -1.0032,0.707 -1.6341,0.727 -0.0263,10e-4 -0.0527,0.002 -0.0791,0.003 -0.6596,0.006 -1.2922,-0.235 -1.7587,-0.681 -0.4664,-0.443 -0.7284,-1.052 -0.7284,-1.711 v -0.001 c 5e-4,-1.347 0.9791,-2.444 2.3162,-2.485 0.0259,-0.001 0.052,-0.002 0.0781,-0.004 1.3736,-0.013 2.4871,1.019 2.4871,2.393 z"
         id="path1958" />
      <path
         style="opacity:1;fill:#000102;fill-opacity:1;stroke:none;stroke-width:1.05833px;stroke-linejoin:round;stroke-miterlimit:10;stroke-opacity:1"
         d="m 35.5161,229.991 c 0,0.666 -0.2528,1.305 -0.7122,1.776 -0.4408,0.453 -1.0365,0.715 -1.6738,0.735 -0.0266,10e-4 -0.0532,0.002 -0.0799,0.002 -0.6663,0.003 -1.3053,-0.251 -1.7764,-0.712 -0.4711,-0.459 -0.7358,-1.086 -0.7358,-1.753 v -10e-4 c 5e-4,-1.36 1.0363,-2.468 2.3869,-2.51 0.0262,0 0.0525,-0.001 0.079,-0.002 1.3874,-0.007 2.5122,1.078 2.5122,2.465 z"
         id="path1960" />
      <path
         style="opacity:1;fill:#000000;fill-opacity:1;stroke:none;stroke-width:1.05833px;stroke-linejoin:round;stroke-miterlimit:10;stroke-opacity:1"
         d="m 35.6198,232.9 c 0,0.673 -0.2673,1.319 -0.7432,1.794 -0.4567,0.457 -1.0698,0.722 -1.7134,0.742 -0.0269,0.001 -0.0538,0.002 -0.0807,0.002 -0.673,0 -1.3184,-0.268 -1.7942,-0.744 -0.4758,-0.475 -0.7432,-1.121 -0.7432,-1.794 v -0.001 c 6e-4,-1.374 1.0935,-2.493 2.4576,-2.535 0.0265,-0.001 0.0531,-0.001 0.0798,-0.001 1.4013,0 2.5373,1.136 2.5373,2.537 z"
         id="path1962" />
    </g>
  </g>
</svg>
