<?xml version="1.0" encoding="UTF-8" standalone="no"?>
<svg
   xmlns:dc="http://purl.org/dc/elements/1.1/"
   xmlns:cc="http://creativecommons.org/ns#"
   xmlns:rdf="http://www.w3.org/1999/02/22-rdf-syntax-ns#"
   xmlns:svg="http://www.w3.org/2000/svg"
   xmlns="http://www.w3.org/2000/svg"
   xmlns:sodipodi="http://sodipodi.sourceforge.net/DTD/sodipodi-0.dtd"
   xmlns:inkscape="http://www.inkscape.org/namespaces/inkscape"
   width="2.7353928mm"
   height="2.7919004mm"
   viewBox="0 0 2.7353928 2.7919004"
   version="1.1"
   id="svg8"
   sodipodi:docname="long-line.svg"
   inkscape:version="1.0.2 (e86c870879, 2021-01-15)">
  <defs
     id="defs2" />
  <sodipodi:namedview
     id="base"
     pagecolor="#ffffff"
     bordercolor="#666666"
     borderopacity="1.0"
     inkscape:pageopacity="0.0"
     inkscape:pageshadow="2"
     inkscape:zoom="6.0208926"
     inkscape:cx="19.513607"
     inkscape:cy="62.04018"
     inkscape:document-units="mm"
     inkscape:current-layer="layer1"
     inkscape:document-rotation="0"
     showgrid="false"
     inkscape:window-width="1920"
     inkscape:window-height="1043"
     inkscape:window-x="0"
     inkscape:window-y="0"
     inkscape:window-maximized="1"
     fit-margin-top="5"
     fit-margin-left="5"
     fit-margin-right="5"
     fit-margin-bottom="5" />
  <metadata
     id="metadata5">
    <rdf:RDF>
      <cc:Work
         rdf:about="">
        <dc:format>image/svg+xml</dc:format>
        <dc:type
           rdf:resource="http://purl.org/dc/dcmitype/StillImage" />
        <dc:title />
      </cc:Work>
    </rdf:RDF>
  </metadata>
  <g
     inkscape:label="Layer 1"
     inkscape:groupmode="layer"
     id="layer1"
     transform="translate(-66.086779,-86.305936)">
    <g
       id="g1964"
       style="stroke:none"
       transform="translate(37.203085,1.9518409)">
      <path
         style="opacity:1;fill:#003380;fill-opacity:1;stroke:none;stroke-width:1.05833px;stroke-linejoin:round;stroke-miterlimit:10;stroke-opacity:1"
         d="m 30.3292,84.5347 c 0,0.3331 0.4752,0.6526 0.8388,0.8882 0.3569,0.2261 0.6285,0.3571 0.3099,0.3673 -0.0133,4e-4 -0.0266,0.018 -0.04,0.0498 -0.3331,0.1601 -0.6526,0.554 -0.8882,0.8388 -0.2356,0.3718 -0.3679,0.6517 -0.3679,0.3186 v -5e-4 c 3e-4,-0.6803 -1.8234,-1.2342 -1.1481,-1.255 0.0131,-4e-4 0.0262,-0.018 0.0394,-0.0498 0.6938,-0.3471 1.2561,-1.8511 1.2561,-1.1574 z"
         id="path1860" />
    </g>
  </g>
</svg>
