<?xml version="1.0" encoding="UTF-8" standalone="no"?>
<!DOCTYPE svg PUBLIC "-//W3C//DTD SVG 1.1//EN"
 "http://www.w3.org/Graphics/SVG/1.1/DTD/svg11.dtd">
<!-- Generated by graphviz version 2.43.0 (0)
 -->
<!-- Title: mygraph Pages: 1 -->
<svg width="312pt" height="332pt"
 viewBox="0.00 0.00 312.00 332.00" xmlns="http://www.w3.org/2000/svg" xmlns:xlink="http://www.w3.org/1999/xlink">
<g id="graph0" class="graph" transform="scale(1 1) rotate(0) translate(4 328)">
<title>mygraph</title>
<polygon fill="white" stroke="transparent" points="-4,4 -4,-328 308,-328 308,4 -4,4"/>
<!-- Inbound Demand -->
<g id="node1" class="node">
<title>Inbound Demand</title>
<text text-anchor="middle" x="235.5" y="-302.3" font-family="Times-Roman" font-size="14.00">Inbound Demand</text>
</g>
<!-- Opportunity Rate -->
<g id="node2" class="node">
<title>Opportunity Rate</title>
<text text-anchor="middle" x="107.5" y="-230.3" font-family="Times-Roman" font-size="14.00">Opportunity Rate</text>
</g>
<!-- Inbound Demand&#45;&gt;Opportunity Rate -->
<g id="edge1" class="edge">
<title>Inbound Demand&#45;&gt;Opportunity Rate</title>
<path fill="none" stroke="black" d="M204.19,-287.88C187.3,-278.64 166.25,-267.13 148.12,-257.21"/>
<polygon fill="black" stroke="black" points="149.39,-253.92 138.93,-252.19 146.03,-260.06 149.39,-253.92"/>
<text text-anchor="middle" x="153.9" y="-249.45" font-family="Times-Roman" font-size="14.00">+</text>
</g>
<!-- Closed Deal Rate -->
<g id="node4" class="node">
<title>Closed Deal Rate</title>
<text text-anchor="middle" x="107.5" y="-158.3" font-family="Times-Roman" font-size="14.00">Closed Deal Rate</text>
</g>
<!-- Opportunity Rate&#45;&gt;Closed Deal Rate -->
<g id="edge3" class="edge">
<title>Opportunity Rate&#45;&gt;Closed Deal Rate</title>
<path fill="none" stroke="black" d="M107.5,-215.7C107.5,-207.98 107.5,-198.71 107.5,-190.11"/>
<polygon fill="black" stroke="black" points="111,-190.1 107.5,-180.1 104,-190.1 111,-190.1"/>
<text text-anchor="middle" x="113.84" y="-190" font-family="Times-Roman" font-size="14.00">+</text>
</g>
<!-- Outbound Demand -->
<g id="node3" class="node">
<title>Outbound Demand</title>
<text text-anchor="middle" x="74.5" y="-302.3" font-family="Times-Roman" font-size="14.00">Outbound Demand</text>
</g>
<!-- Outbound Demand&#45;&gt;Opportunity Rate -->
<g id="edge2" class="edge">
<title>Outbound Demand&#45;&gt;Opportunity Rate</title>
<path fill="none" stroke="black" d="M82.66,-287.7C86.41,-279.73 90.95,-270.1 95.12,-261.26"/>
<polygon fill="black" stroke="black" points="98.34,-262.64 99.44,-252.1 92.01,-259.66 98.34,-262.64"/>
<text text-anchor="middle" x="99.37" y="-263.4" font-family="Times-Roman" font-size="14.00">+</text>
</g>
<!-- Accomplished Project Rate -->
<g id="node5" class="node">
<title>Accomplished Project Rate</title>
<text text-anchor="middle" x="107.5" y="-86.3" font-family="Times-Roman" font-size="14.00">Accomplished Project Rate</text>
</g>
<!-- Closed Deal Rate&#45;&gt;Accomplished Project Rate -->
<g id="edge4" class="edge">
<title>Closed Deal Rate&#45;&gt;Accomplished Project Rate</title>
<path fill="none" stroke="black" d="M107.5,-143.7C107.5,-135.98 107.5,-126.71 107.5,-118.11"/>
<polygon fill="black" stroke="black" points="111,-118.1 107.5,-108.1 104,-118.1 111,-118.1"/>
<text text-anchor="middle" x="113.84" y="-118" font-family="Times-Roman" font-size="14.00">+</text>
</g>
<!-- Customer Satisfaction -->
<g id="node6" class="node">
<title>Customer Satisfaction</title>
<text text-anchor="middle" x="171.5" y="-14.3" font-family="Times-Roman" font-size="14.00">Customer Satisfaction</text>
</g>
<!-- Accomplished Project Rate&#45;&gt;Customer Satisfaction -->
<g id="edge5" class="edge">
<title>Accomplished Project Rate&#45;&gt;Customer Satisfaction</title>
<path fill="none" stroke="black" d="M123.32,-71.7C131.07,-63.22 140.54,-52.86 149.02,-43.58"/>
<polygon fill="black" stroke="black" points="151.7,-45.85 155.86,-36.1 146.53,-41.12 151.7,-45.85"/>
<text text-anchor="middle" x="151.37" y="-46.72" font-family="Times-Roman" font-size="14.00">+</text>
</g>
<!-- Customer Satisfaction&#45;&gt;Inbound Demand -->
<g id="edge6" class="edge">
<title>Customer Satisfaction&#45;&gt;Inbound Demand</title>
<path fill="none" stroke="black" d="M190.95,-36.18C200.38,-45.72 210.87,-58.39 216.5,-72 245.34,-141.63 242.34,-232.84 238.51,-277.68"/>
<polygon fill="black" stroke="black" points="235.01,-277.51 237.57,-287.79 241.98,-278.16 235.01,-277.51"/>
<text text-anchor="middle" x="232.52" y="-269.97" font-family="Times-Roman" font-size="14.00">+</text>
</g>
</g>
</svg>
