<?xml version="1.0" encoding="UTF-8" standalone="no"?>
<!DOCTYPE svg PUBLIC "-//W3C//DTD SVG 1.1//EN"
 "http://www.w3.org/Graphics/SVG/1.1/DTD/svg11.dtd">
<!-- Generated by graphviz version 2.43.0 (0)
 -->
<!-- Title: mygraph Pages: 1 -->
<svg width="448pt" height="750pt"
 viewBox="0.00 0.00 447.50 750.00" xmlns="http://www.w3.org/2000/svg" xmlns:xlink="http://www.w3.org/1999/xlink">
<g id="graph0" class="graph" transform="scale(1 1) rotate(0) translate(4 746)">
<title>mygraph</title>
<polygon fill="white" stroke="transparent" points="-4,4 -4,-746 443.5,-746 443.5,4 -4,4"/>
<!-- Inbound Demand -->
<g id="node1" class="node">
<title>Inbound Demand</title>
<text text-anchor="middle" x="241" y="-720.3" font-family="Times-Roman" font-size="14.00">Inbound Demand</text>
</g>
<!-- Qualification calls -->
<g id="node2" class="node">
<title>Qualification calls</title>
<text text-anchor="middle" x="241" y="-647.3" font-family="Times-Roman" font-size="14.00">Qualification calls</text>
</g>
<!-- Inbound Demand&#45;&gt;Qualification calls -->
<g id="edge1" class="edge">
<title>Inbound Demand&#45;&gt;Qualification calls</title>
<path fill="none" stroke="black" d="M241,-705.81C241,-697.79 241,-688.05 241,-679.07"/>
<polygon fill="black" stroke="black" points="244.5,-679.03 241,-669.03 237.5,-679.03 244.5,-679.03"/>
<text text-anchor="middle" x="247.34" y="-678.92" font-family="Times-Roman" font-size="14.00">+</text>
</g>
<!-- Project offerings -->
<g id="node3" class="node">
<title>Project offerings</title>
<text text-anchor="middle" x="195" y="-574.3" font-family="Times-Roman" font-size="14.00">Project offerings</text>
</g>
<!-- Qualification calls&#45;&gt;Project offerings -->
<g id="edge2" class="edge">
<title>Qualification calls&#45;&gt;Project offerings</title>
<path fill="none" stroke="black" d="M229.86,-632.81C224.38,-624.35 217.67,-613.98 211.59,-604.61"/>
<polygon fill="black" stroke="black" points="214.41,-602.52 206.03,-596.03 208.53,-606.32 214.41,-602.52"/>
<text text-anchor="middle" x="218.74" y="-600.29" font-family="Times-Roman" font-size="14.00">+</text>
</g>
<!-- Closed deals -->
<g id="node6" class="node">
<title>Closed deals</title>
<text text-anchor="middle" x="194" y="-501.3" font-family="Times-Roman" font-size="14.00">Closed deals</text>
</g>
<!-- Project offerings&#45;&gt;Closed deals -->
<g id="edge7" class="edge">
<title>Project offerings&#45;&gt;Closed deals</title>
<path fill="none" stroke="black" d="M194.76,-559.81C194.64,-551.79 194.51,-542.05 194.38,-533.07"/>
<polygon fill="black" stroke="black" points="197.88,-532.98 194.24,-523.03 190.88,-533.08 197.88,-532.98"/>
<text text-anchor="middle" x="200.77" y="-532.83" font-family="Times-Roman" font-size="14.00">+</text>
</g>
<!-- Bench Engineers -->
<g id="node4" class="node">
<title>Bench Engineers</title>
<text text-anchor="middle" x="289" y="-428.3" font-family="Times-Roman" font-size="14.00">Bench Engineers</text>
</g>
<!-- Bench Engineers&#45;&gt;Qualification calls -->
<g id="edge3" class="edge">
<title>Bench Engineers&#45;&gt;Qualification calls</title>
<path fill="none" stroke="black" d="M288.67,-450.05C287.68,-480.15 283.72,-544.42 268,-596 265.16,-605.32 260.82,-615 256.44,-623.54"/>
<polygon fill="black" stroke="black" points="253.21,-622.16 251.57,-632.63 259.38,-625.47 253.21,-622.16"/>
<text text-anchor="middle" x="252.41" y="-613.95" font-family="Times-Roman" font-size="14.00">+</text>
</g>
<!-- Bench Quality -->
<g id="node5" class="node">
<title>Bench Quality</title>
<text text-anchor="middle" x="230" y="-341.3" font-family="Times-Roman" font-size="14.00">Bench Quality</text>
</g>
<!-- Bench Engineers&#45;&gt;Bench Quality -->
<g id="edge9" class="edge">
<title>Bench Engineers&#45;&gt;Bench Quality</title>
<path fill="none" stroke="black" d="M277.06,-413.8C268.66,-401.7 257.28,-385.3 247.82,-371.67"/>
<polygon fill="black" stroke="black" points="250.5,-369.39 241.92,-363.18 244.75,-373.39 250.5,-369.39"/>
<text text-anchor="middle" x="254.88" y="-367.03" font-family="Times-Roman" font-size="14.00">+</text>
</g>
<!-- Bench Engineers&#45;&gt;Closed deals -->
<g id="edge8" class="edge">
<title>Bench Engineers&#45;&gt;Closed deals</title>
<path fill="none" stroke="black" d="M271.97,-450.11C260.56,-459.37 245.25,-470.94 231.17,-480.97"/>
<polygon fill="black" stroke="black" points="228.78,-478.38 222.61,-486.99 232.81,-484.1 228.78,-478.38"/>
<text text-anchor="middle" x="230.09" y="-470.29" font-family="Times-Roman" font-size="14.00">+</text>
</g>
<!-- Bench Quality&#45;&gt;Closed deals -->
<g id="edge4" class="edge">
<title>Bench Quality&#45;&gt;Closed deals</title>
<path fill="none" stroke="black" d="M225.56,-363C222.03,-376.73 217.02,-396.57 213,-414 208.17,-434.98 203.15,-458.81 199.49,-476.68"/>
<polygon fill="black" stroke="black" points="196.02,-476.21 197.45,-486.7 202.88,-477.6 196.02,-476.21"/>
<text text-anchor="middle" x="193.95" y="-468.42" font-family="Times-Roman" font-size="14.00">+</text>
</g>
<!-- Open Source Contributions -->
<g id="node7" class="node">
<title>Open Source Contributions</title>
<text text-anchor="middle" x="230" y="-214.3" font-family="Times-Roman" font-size="14.00">Open Source Contributions</text>
</g>
<!-- Bench Quality&#45;&gt;Open Source Contributions -->
<g id="edge5" class="edge">
<title>Bench Quality&#45;&gt;Open Source Contributions</title>
<path fill="none" stroke="black" d="M230,-326.88C230,-306.15 230,-270.95 230,-246.42"/>
<polygon fill="black" stroke="black" points="233.5,-246.31 230,-236.31 226.5,-246.31 233.5,-246.31"/>
<text text-anchor="middle" x="236.34" y="-246.21" font-family="Times-Roman" font-size="14.00">+</text>
</g>
<!-- Team Quality -->
<g id="node12" class="node">
<title>Team Quality</title>
<text text-anchor="middle" x="131" y="-268.3" font-family="Times-Roman" font-size="14.00">Team Quality</text>
</g>
<!-- Bench Quality&#45;&gt;Team Quality -->
<g id="edge18" class="edge">
<title>Bench Quality&#45;&gt;Team Quality</title>
<path fill="none" stroke="black" d="M206.29,-326.99C193.4,-317.75 177.28,-306.19 163.27,-296.14"/>
<polygon fill="black" stroke="black" points="165.03,-293.1 154.86,-290.11 160.95,-298.79 165.03,-293.1"/>
<text text-anchor="middle" x="169.6" y="-289.18" font-family="Times-Roman" font-size="14.00">+</text>
</g>
<!-- Closed deals&#45;&gt;Bench Engineers -->
<g id="edge13" class="edge">
<title>Closed deals&#45;&gt;Bench Engineers</title>
<path fill="none" stroke="black" d="M211.12,-486.81C222.52,-477.57 237.78,-466.04 251.82,-456.03"/>
<polygon fill="black" stroke="black" points="254.19,-458.64 260.35,-450.03 250.16,-452.92 254.19,-458.64"/>
<text text-anchor="middle" x="252.88" y="-459.33" font-family="Times-Roman" font-size="14.00">&#45;</text>
</g>
<!-- Project Engineers -->
<g id="node9" class="node">
<title>Project Engineers</title>
<text text-anchor="middle" x="97" y="-428.3" font-family="Times-Roman" font-size="14.00">Project Engineers</text>
</g>
<!-- Closed deals&#45;&gt;Project Engineers -->
<g id="edge10" class="edge">
<title>Closed deals&#45;&gt;Project Engineers</title>
<path fill="none" stroke="black" d="M170.52,-486.81C157.89,-477.57 142.14,-466.04 128.47,-456.03"/>
<polygon fill="black" stroke="black" points="130.4,-453.11 120.26,-450.03 126.27,-458.76 130.4,-453.11"/>
<text text-anchor="middle" x="134.98" y="-449.24" font-family="Times-Roman" font-size="14.00">+</text>
</g>
<!-- Reputation -->
<g id="node8" class="node">
<title>Reputation</title>
<text text-anchor="middle" x="222" y="-87.3" font-family="Times-Roman" font-size="14.00">Reputation</text>
</g>
<!-- Open Source Contributions&#45;&gt;Reputation -->
<g id="edge6" class="edge">
<title>Open Source Contributions&#45;&gt;Reputation</title>
<path fill="none" stroke="black" d="M228.9,-199.88C227.58,-179.15 225.32,-143.95 223.75,-119.42"/>
<polygon fill="black" stroke="black" points="227.24,-119.07 223.11,-109.31 220.25,-119.52 227.24,-119.07"/>
<text text-anchor="middle" x="247" y="-160.3" font-family="Times-Roman" font-size="14.00">delay</text>
<text text-anchor="middle" x="230.3" y="-118.77" font-family="Times-Roman" font-size="14.00">+</text>
</g>
<!-- Reputation&#45;&gt;Closed deals -->
<g id="edge12" class="edge">
<title>Reputation&#45;&gt;Closed deals</title>
<path fill="none" stroke="black" d="M175.73,-97.32C110.67,-106.11 0,-126.43 0,-163 0,-433 0,-433 0,-433 0,-461.55 75.02,-482.05 131.75,-493.47"/>
<polygon fill="black" stroke="black" points="131.27,-496.94 141.76,-495.43 132.62,-490.07 131.27,-496.94"/>
<text text-anchor="middle" x="127.2" y="-495.33" font-family="Times-Roman" font-size="14.00">+</text>
</g>
<!-- Candidate Quality -->
<g id="node11" class="node">
<title>Candidate Quality</title>
<text text-anchor="middle" x="290" y="-14.3" font-family="Times-Roman" font-size="14.00">Candidate Quality</text>
</g>
<!-- Reputation&#45;&gt;Candidate Quality -->
<g id="edge17" class="edge">
<title>Reputation&#45;&gt;Candidate Quality</title>
<path fill="none" stroke="black" d="M238.46,-72.81C246.9,-64 257.32,-53.13 266.58,-43.46"/>
<polygon fill="black" stroke="black" points="269.3,-45.67 273.69,-36.03 264.25,-40.83 269.3,-45.67"/>
<text text-anchor="middle" x="268.87" y="-46.53" font-family="Times-Roman" font-size="14.00">+</text>
</g>
<!-- Project Engineers&#45;&gt;Bench Quality -->
<g id="edge11" class="edge">
<title>Project Engineers&#45;&gt;Bench Quality</title>
<path fill="none" stroke="black" d="M109.17,-413.85C117.43,-403.22 129.16,-389.94 142,-381 149.43,-375.83 157.74,-371.26 166.2,-367.27"/>
<polygon fill="black" stroke="black" points="167.69,-370.44 175.41,-363.18 164.85,-364.04 167.69,-370.44"/>
<text text-anchor="middle" x="161" y="-384.8" font-family="Times-Roman" font-size="14.00">delay</text>
<text text-anchor="middle" x="165.56" y="-370.79" font-family="Times-Roman" font-size="14.00">+</text>
</g>
<!-- Hiring Number -->
<g id="node10" class="node">
<title>Hiring Number</title>
<text text-anchor="middle" x="380" y="-501.3" font-family="Times-Roman" font-size="14.00">Hiring Number</text>
</g>
<!-- Hiring Number&#45;&gt;Bench Engineers -->
<g id="edge14" class="edge">
<title>Hiring Number&#45;&gt;Bench Engineers</title>
<path fill="none" stroke="black" d="M357.97,-486.81C346.23,-477.66 331.63,-466.26 318.88,-456.32"/>
<polygon fill="black" stroke="black" points="320.86,-453.42 310.83,-450.03 316.56,-458.94 320.86,-453.42"/>
<text text-anchor="middle" x="325.44" y="-449.69" font-family="Times-Roman" font-size="14.00">+</text>
</g>
<!-- Hiring Number&#45;&gt;Bench Quality -->
<g id="edge15" class="edge">
<title>Hiring Number&#45;&gt;Bench Quality</title>
<path fill="none" stroke="black" d="M381.51,-486.65C382.29,-467.11 380.68,-435.3 365,-414 348.31,-391.33 321.89,-375.71 296.84,-365.23"/>
<polygon fill="black" stroke="black" points="297.91,-361.89 287.32,-361.45 295.33,-368.39 297.91,-361.89"/>
<text text-anchor="middle" x="302.3" y="-356.87" font-family="Times-Roman" font-size="14.00">&#45;</text>
</g>
<!-- Candidate Quality&#45;&gt;Bench Quality -->
<g id="edge16" class="edge">
<title>Candidate Quality&#45;&gt;Bench Quality</title>
<path fill="none" stroke="black" d="M314.84,-36.17C330.2,-48.98 347,-68.03 347,-90 347,-273 347,-273 347,-273 347,-300.51 323.07,-317.66 296.85,-328.19"/>
<polygon fill="black" stroke="black" points="295.3,-325.03 287.13,-331.78 297.72,-331.6 295.3,-325.03"/>
<text text-anchor="middle" x="297.69" y="-317.43" font-family="Times-Roman" font-size="14.00">+</text>
</g>
<!-- Customer Satisfaction -->
<g id="node13" class="node">
<title>Customer Satisfaction</title>
<text text-anchor="middle" x="113" y="-160.3" font-family="Times-Roman" font-size="14.00">Customer Satisfaction</text>
</g>
<!-- Team Quality&#45;&gt;Customer Satisfaction -->
<g id="edge19" class="edge">
<title>Team Quality&#45;&gt;Customer Satisfaction</title>
<path fill="none" stroke="black" d="M128.11,-253.97C125.29,-237.38 120.96,-211.88 117.66,-192.43"/>
<polygon fill="black" stroke="black" points="121.07,-191.61 115.94,-182.34 114.17,-192.79 121.07,-191.61"/>
<text text-anchor="middle" x="124.47" y="-190.98" font-family="Times-Roman" font-size="14.00">+</text>
</g>
<!-- Customer Satisfaction&#45;&gt;Reputation -->
<g id="edge20" class="edge">
<title>Customer Satisfaction&#45;&gt;Reputation</title>
<path fill="none" stroke="black" d="M139.11,-145.99C153.56,-136.58 171.71,-124.76 187.34,-114.57"/>
<polygon fill="black" stroke="black" points="189.26,-117.5 195.73,-109.11 185.44,-111.64 189.26,-117.5"/>
<text text-anchor="middle" x="187.8" y="-118.15" font-family="Times-Roman" font-size="14.00">+</text>
</g>
</g>
</svg>
