<?xml version="1.0" encoding="UTF-8" standalone="no"?>
<!DOCTYPE svg PUBLIC "-//W3C//DTD SVG 1.1//EN"
 "http://www.w3.org/Graphics/SVG/1.1/DTD/svg11.dtd">
<!-- Generated by graphviz version 2.43.0 (0)
 -->
<!-- Title: mygraph Pages: 1 -->
<svg width="875pt" height="823pt"
 viewBox="0.00 0.00 874.50 823.00" xmlns="http://www.w3.org/2000/svg" xmlns:xlink="http://www.w3.org/1999/xlink">
<g id="graph0" class="graph" transform="scale(1 1) rotate(0) translate(4 819)">
<title>mygraph</title>
<polygon fill="white" stroke="transparent" points="-4,4 -4,-819 870.5,-819 870.5,4 -4,4"/>
<!-- Inbound Demand -->
<g id="node1" class="node">
<title>Inbound Demand</title>
<text text-anchor="middle" x="68.5" y="-793.3" font-family="Times-Roman" font-size="14.00">Inbound Demand</text>
</g>
<!-- Qualification calls -->
<g id="node2" class="node">
<title>Qualification calls</title>
<text text-anchor="middle" x="294.5" y="-720.3" font-family="Times-Roman" font-size="14.00">Qualification calls</text>
</g>
<!-- Inbound Demand&#45;&gt;Qualification calls -->
<g id="edge1" class="edge">
<title>Inbound Demand&#45;&gt;Qualification calls</title>
<path fill="none" stroke="black" d="M122.63,-778.99C154.96,-768.84 196.21,-755.88 230.19,-745.2"/>
<polygon fill="black" stroke="black" points="231.53,-748.45 240.03,-742.11 229.44,-741.77 231.53,-748.45"/>
<text text-anchor="middle" x="228.96" y="-748.54" font-family="Times-Roman" font-size="14.00">+</text>
</g>
<!-- Project Offerings -->
<g id="node3" class="node">
<title>Project Offerings</title>
<text text-anchor="middle" x="294.5" y="-647.3" font-family="Times-Roman" font-size="14.00">Project Offerings</text>
</g>
<!-- Qualification calls&#45;&gt;Project Offerings -->
<g id="edge2" class="edge">
<title>Qualification calls&#45;&gt;Project Offerings</title>
<path fill="none" stroke="black" d="M294.5,-705.81C294.5,-697.79 294.5,-688.05 294.5,-679.07"/>
<polygon fill="black" stroke="black" points="298,-679.03 294.5,-669.03 291,-679.03 298,-679.03"/>
<text text-anchor="middle" x="300.84" y="-678.92" font-family="Times-Roman" font-size="14.00">+</text>
</g>
<!-- Closed Deals -->
<g id="node6" class="node">
<title>Closed Deals</title>
<text text-anchor="middle" x="427.5" y="-574.3" font-family="Times-Roman" font-size="14.00">Closed Deals</text>
</g>
<!-- Project Offerings&#45;&gt;Closed Deals -->
<g id="edge8" class="edge">
<title>Project Offerings&#45;&gt;Closed Deals</title>
<path fill="none" stroke="black" d="M326.36,-632.99C344.4,-623.36 367.17,-611.21 386.53,-600.87"/>
<polygon fill="black" stroke="black" points="388.27,-603.91 395.44,-596.11 384.97,-597.74 388.27,-603.91"/>
<text text-anchor="middle" x="386.43" y="-604.41" font-family="Times-Roman" font-size="14.00">+</text>
</g>
<!-- Hiring Target -->
<g id="node10" class="node">
<title>Hiring Target</title>
<text text-anchor="middle" x="229.5" y="-574.3" font-family="Times-Roman" font-size="14.00">Hiring Target</text>
</g>
<!-- Project Offerings&#45;&gt;Hiring Target -->
<g id="edge9" class="edge">
<title>Project Offerings&#45;&gt;Hiring Target</title>
<path fill="none" stroke="black" d="M278.77,-632.81C270.7,-624 260.74,-613.13 251.89,-603.46"/>
<polygon fill="black" stroke="black" points="254.42,-601.04 245.09,-596.03 249.26,-605.77 254.42,-601.04"/>
<text text-anchor="middle" x="258.95" y="-598.08" font-family="Times-Roman" font-size="14.00">+</text>
</g>
<!-- Bench Engineers -->
<g id="node4" class="node">
<title>Bench Engineers</title>
<text text-anchor="middle" x="799.5" y="-14.3" font-family="Times-Roman" font-size="14.00">Bench Engineers</text>
</g>
<!-- Bench Engineers&#45;&gt;Qualification calls -->
<g id="edge3" class="edge">
<title>Bench Engineers&#45;&gt;Qualification calls</title>
<path fill="none" stroke="black" d="M819.16,-36.21C832.04,-49.46 846.5,-69.01 846.5,-90 846.5,-652 846.5,-652 846.5,-652 846.5,-699.02 527.36,-715.58 374.41,-720.82"/>
<polygon fill="black" stroke="black" points="374.01,-717.33 364.13,-721.17 374.24,-724.33 374.01,-717.33"/>
<text text-anchor="middle" x="377.51" y="-710.68" font-family="Times-Roman" font-size="14.00">+</text>
</g>
<!-- Bench Engineers&#45;&gt;Closed Deals -->
<g id="edge10" class="edge">
<title>Bench Engineers&#45;&gt;Closed Deals</title>
<path fill="none" stroke="black" d="M806.73,-36.22C808.5,-50.59 808.5,-71.63 808.5,-90 808.5,-506 808.5,-506 808.5,-506 808.5,-569.14 599.13,-577.5 490.74,-577.74"/>
<polygon fill="black" stroke="black" points="490.57,-574.24 480.57,-577.74 490.57,-581.24 490.57,-574.24"/>
<text text-anchor="middle" x="494.17" y="-567.7" font-family="Times-Roman" font-size="14.00">+</text>
</g>
<!-- Team Quality -->
<g id="node5" class="node">
<title>Team Quality</title>
<text text-anchor="middle" x="456.5" y="-393.3" font-family="Times-Roman" font-size="14.00">Team Quality</text>
</g>
<!-- Team Quality&#45;&gt;Closed Deals -->
<g id="edge4" class="edge">
<title>Team Quality&#45;&gt;Closed Deals</title>
<path fill="none" stroke="black" d="M474.09,-415.08C478.93,-420.47 483.85,-426.67 487.5,-433 507.89,-468.33 524.43,-486.87 505.5,-523 498.8,-535.8 487.53,-546.16 475.61,-554.26"/>
<polygon fill="black" stroke="black" points="473.48,-551.47 466.88,-559.76 477.21,-557.4 473.48,-551.47"/>
<text text-anchor="middle" x="475" y="-543.45" font-family="Times-Roman" font-size="14.00">+</text>
</g>
<!-- Open Source Contributions -->
<g id="node8" class="node">
<title>Open Source Contributions</title>
<text text-anchor="middle" x="622.5" y="-320.3" font-family="Times-Roman" font-size="14.00">Open Source Contributions</text>
</g>
<!-- Team Quality&#45;&gt;Open Source Contributions -->
<g id="edge6" class="edge">
<title>Team Quality&#45;&gt;Open Source Contributions</title>
<path fill="none" stroke="black" d="M496.26,-378.99C519.29,-369.14 548.49,-356.66 573,-346.17"/>
<polygon fill="black" stroke="black" points="574.67,-349.26 582.49,-342.11 571.92,-342.83 574.67,-349.26"/>
<text text-anchor="middle" x="572.48" y="-349.59" font-family="Times-Roman" font-size="14.00">+</text>
</g>
<!-- Customer Satisfaction -->
<g id="node18" class="node">
<title>Customer Satisfaction</title>
<text text-anchor="middle" x="417.5" y="-320.3" font-family="Times-Roman" font-size="14.00">Customer Satisfaction</text>
</g>
<!-- Team Quality&#45;&gt;Customer Satisfaction -->
<g id="edge27" class="edge">
<title>Team Quality&#45;&gt;Customer Satisfaction</title>
<path fill="none" stroke="black" d="M447.06,-378.81C442.46,-370.44 436.83,-360.2 431.73,-350.9"/>
<polygon fill="black" stroke="black" points="434.74,-349.11 426.85,-342.03 428.6,-352.48 434.74,-349.11"/>
<text text-anchor="middle" x="438.96" y="-347.19" font-family="Times-Roman" font-size="14.00">+</text>
</g>
<!-- Closed Deals&#45;&gt;Bench Engineers -->
<g id="edge16" class="edge">
<title>Closed Deals&#45;&gt;Bench Engineers</title>
<path fill="none" stroke="black" d="M480.82,-577.74C581.79,-577.48 790.5,-569.04 790.5,-506 790.5,-506 790.5,-506 790.5,-90 790.5,-75.65 790.5,-59.67 791.35,-46.51"/>
<polygon fill="black" stroke="black" points="794.86,-46.49 792.27,-36.22 787.89,-45.86 794.86,-46.49"/>
<text text-anchor="middle" x="797.37" y="-46.63" font-family="Times-Roman" font-size="14.00">&#45;</text>
</g>
<!-- Project Engineers -->
<g id="node11" class="node">
<title>Project Engineers</title>
<text text-anchor="middle" x="427.5" y="-501.3" font-family="Times-Roman" font-size="14.00">Project Engineers</text>
</g>
<!-- Closed Deals&#45;&gt;Project Engineers -->
<g id="edge11" class="edge">
<title>Closed Deals&#45;&gt;Project Engineers</title>
<path fill="none" stroke="black" d="M427.5,-559.81C427.5,-551.79 427.5,-542.05 427.5,-533.07"/>
<polygon fill="black" stroke="black" points="431,-533.03 427.5,-523.03 424,-533.03 431,-533.03"/>
<text text-anchor="middle" x="433.84" y="-532.92" font-family="Times-Roman" font-size="14.00">+</text>
</g>
<!-- Accomplished Projects -->
<g id="node13" class="node">
<title>Accomplished Projects</title>
<text text-anchor="middle" x="330.5" y="-447.3" font-family="Times-Roman" font-size="14.00">Accomplished Projects</text>
</g>
<!-- Closed Deals&#45;&gt;Accomplished Projects -->
<g id="edge17" class="edge">
<title>Closed Deals&#45;&gt;Accomplished Projects</title>
<path fill="none" stroke="black" d="M392.5,-560C377.25,-550.96 360.4,-538.49 349.5,-523 340.49,-510.2 335.75,-493.35 333.26,-479.28"/>
<polygon fill="black" stroke="black" points="336.69,-478.56 331.76,-469.18 329.76,-479.59 336.69,-478.56"/>
<text text-anchor="middle" x="340.02" y="-478" font-family="Times-Roman" font-size="14.00">+</text>
</g>
<!-- Price -->
<g id="node7" class="node">
<title>Price</title>
<text text-anchor="middle" x="427.5" y="-647.3" font-family="Times-Roman" font-size="14.00">Price</text>
</g>
<!-- Price&#45;&gt;Closed Deals -->
<g id="edge5" class="edge">
<title>Price&#45;&gt;Closed Deals</title>
<path fill="none" stroke="black" d="M427.5,-632.81C427.5,-624.79 427.5,-615.05 427.5,-606.07"/>
<polygon fill="black" stroke="black" points="431,-606.03 427.5,-596.03 424,-606.03 431,-606.03"/>
<text text-anchor="middle" x="433.84" y="-605.92" font-family="Times-Roman" font-size="14.00">&#45;</text>
</g>
<!-- Reputation -->
<g id="node9" class="node">
<title>Reputation</title>
<text text-anchor="middle" x="256.5" y="-233.3" font-family="Times-Roman" font-size="14.00">Reputation</text>
</g>
<!-- Open Source Contributions&#45;&gt;Reputation -->
<g id="edge7" class="edge">
<title>Open Source Contributions&#45;&gt;Reputation</title>
<path fill="none" stroke="black" d="M548.87,-305.9C479.03,-289.68 375.61,-265.66 312.32,-250.96"/>
<polygon fill="black" stroke="black" points="313.05,-247.54 302.52,-248.69 311.47,-254.36 313.05,-247.54"/>
<text text-anchor="middle" x="479.5" y="-276.8" font-family="Times-Roman" font-size="14.00">delay</text>
<text text-anchor="middle" x="317.2" y="-241.89" font-family="Times-Roman" font-size="14.00">+</text>
</g>
<!-- Reputation&#45;&gt;Inbound Demand -->
<g id="edge15" class="edge">
<title>Reputation&#45;&gt;Inbound Demand</title>
<path fill="none" stroke="black" d="M210.36,-238.25C151.3,-241.28 56.5,-256.5 56.5,-323 56.5,-725 56.5,-725 56.5,-725 56.5,-739.7 59.03,-755.87 61.77,-769.06"/>
<polygon fill="black" stroke="black" points="58.37,-769.92 63.96,-778.92 65.21,-768.4 58.37,-769.92"/>
<text text-anchor="middle" x="54.82" y="-763.33" font-family="Times-Roman" font-size="14.00">+</text>
</g>
<!-- Reputation&#45;&gt;Closed Deals -->
<g id="edge13" class="edge">
<title>Reputation&#45;&gt;Closed Deals</title>
<path fill="none" stroke="black" d="M210.33,-249.51C175.07,-261.4 132.5,-283.85 132.5,-323 132.5,-506 132.5,-506 132.5,-506 132.5,-529.66 277.76,-555.07 364.41,-568.13"/>
<polygon fill="black" stroke="black" points="364.01,-571.61 374.42,-569.62 365.04,-564.69 364.01,-571.61"/>
<text text-anchor="middle" x="360.04" y="-570.19" font-family="Times-Roman" font-size="14.00">+</text>
</g>
<!-- Candidate Number -->
<g id="node12" class="node">
<title>Candidate Number</title>
<text text-anchor="middle" x="256.5" y="-160.3" font-family="Times-Roman" font-size="14.00">Candidate Number</text>
</g>
<!-- Reputation&#45;&gt;Candidate Number -->
<g id="edge14" class="edge">
<title>Reputation&#45;&gt;Candidate Number</title>
<path fill="none" stroke="black" d="M256.5,-218.81C256.5,-210.79 256.5,-201.05 256.5,-192.07"/>
<polygon fill="black" stroke="black" points="260,-192.03 256.5,-182.03 253,-192.03 260,-192.03"/>
<text text-anchor="middle" x="262.84" y="-191.92" font-family="Times-Roman" font-size="14.00">+</text>
</g>
<!-- Candidate Quality -->
<g id="node17" class="node">
<title>Candidate Quality</title>
<text text-anchor="middle" x="589.5" y="-160.3" font-family="Times-Roman" font-size="14.00">Candidate Quality</text>
</g>
<!-- Reputation&#45;&gt;Candidate Quality -->
<g id="edge26" class="edge">
<title>Reputation&#45;&gt;Candidate Quality</title>
<path fill="none" stroke="black" d="M302.8,-226.13C355.98,-214.79 444.19,-195.98 508.75,-182.22"/>
<polygon fill="black" stroke="black" points="509.85,-185.56 518.9,-180.05 508.39,-178.72 509.85,-185.56"/>
<text text-anchor="middle" x="506.92" y="-185.39" font-family="Times-Roman" font-size="14.00">+</text>
</g>
<!-- Hiring Number -->
<g id="node15" class="node">
<title>Hiring Number</title>
<text text-anchor="middle" x="256.5" y="-87.3" font-family="Times-Roman" font-size="14.00">Hiring Number</text>
</g>
<!-- Hiring Target&#45;&gt;Hiring Number -->
<g id="edge22" class="edge">
<title>Hiring Target&#45;&gt;Hiring Number</title>
<path fill="none" stroke="black" d="M176.92,-570.52C139.01,-562.56 94.5,-544.93 94.5,-506 94.5,-506 94.5,-506 94.5,-163 94.5,-120.12 142.69,-102.9 186.5,-96.1"/>
<polygon fill="black" stroke="black" points="187.21,-99.53 196.64,-94.69 186.25,-92.6 187.21,-99.53"/>
<text text-anchor="middle" x="184.04" y="-99.14" font-family="Times-Roman" font-size="14.00">+</text>
</g>
<!-- Hiring Quality -->
<g id="node16" class="node">
<title>Hiring Quality</title>
<text text-anchor="middle" x="229.5" y="-501.3" font-family="Times-Roman" font-size="14.00">Hiring Quality</text>
</g>
<!-- Hiring Target&#45;&gt;Hiring Quality -->
<g id="edge23" class="edge">
<title>Hiring Target&#45;&gt;Hiring Quality</title>
<path fill="none" stroke="black" d="M229.5,-559.81C229.5,-551.79 229.5,-542.05 229.5,-533.07"/>
<polygon fill="black" stroke="black" points="233,-533.03 229.5,-523.03 226,-533.03 233,-533.03"/>
<text text-anchor="middle" x="235.84" y="-532.92" font-family="Times-Roman" font-size="14.00">&#45;</text>
</g>
<!-- Project Engineers&#45;&gt;Team Quality -->
<g id="edge12" class="edge">
<title>Project Engineers&#45;&gt;Team Quality</title>
<path fill="none" stroke="black" d="M432.16,-486.97C436.72,-470.3 443.74,-444.65 449.07,-425.16"/>
<polygon fill="black" stroke="black" points="452.49,-425.91 451.76,-415.34 445.74,-424.06 452.49,-425.91"/>
<text text-anchor="middle" x="464.5" y="-447.3" font-family="Times-Roman" font-size="14.00">delay</text>
<text text-anchor="middle" x="454.28" y="-426.43" font-family="Times-Roman" font-size="14.00">+</text>
</g>
<!-- Candidate Number&#45;&gt;Hiring Number -->
<g id="edge25" class="edge">
<title>Candidate Number&#45;&gt;Hiring Number</title>
<path fill="none" stroke="black" d="M256.5,-145.81C256.5,-137.79 256.5,-128.05 256.5,-119.07"/>
<polygon fill="black" stroke="black" points="260,-119.03 256.5,-109.03 253,-119.03 260,-119.03"/>
<text text-anchor="middle" x="262.84" y="-118.92" font-family="Times-Roman" font-size="14.00">+</text>
</g>
<!-- Accomplished Projects&#45;&gt;Reputation -->
<g id="edge18" class="edge">
<title>Accomplished Projects&#45;&gt;Reputation</title>
<path fill="none" stroke="black" d="M291.86,-432.84C257.88,-415.41 210.66,-384.86 189.5,-342 175.23,-313.1 200.71,-282.36 224.23,-261.85"/>
<polygon fill="black" stroke="black" points="226.64,-264.4 232.08,-255.31 222.16,-259.03 226.64,-264.4"/>
<text text-anchor="middle" x="225.7" y="-265.18" font-family="Times-Roman" font-size="14.00">+</text>
</g>
<!-- Failed Projects -->
<g id="node14" class="node">
<title>Failed Projects</title>
<text text-anchor="middle" x="256.5" y="-320.3" font-family="Times-Roman" font-size="14.00">Failed Projects</text>
</g>
<!-- Failed Projects&#45;&gt;Reputation -->
<g id="edge19" class="edge">
<title>Failed Projects&#45;&gt;Reputation</title>
<path fill="none" stroke="black" d="M256.5,-305.8C256.5,-294.16 256.5,-278.55 256.5,-265.24"/>
<polygon fill="black" stroke="black" points="260,-265.18 256.5,-255.18 253,-265.18 260,-265.18"/>
<text text-anchor="middle" x="262.84" y="-265.07" font-family="Times-Roman" font-size="14.00">&#45;</text>
</g>
<!-- Hiring Number&#45;&gt;Bench Engineers -->
<g id="edge20" class="edge">
<title>Hiring Number&#45;&gt;Bench Engineers</title>
<path fill="none" stroke="black" d="M316.16,-82.2C415.01,-69.27 612.68,-43.43 722.12,-29.12"/>
<polygon fill="black" stroke="black" points="722.65,-32.58 732.11,-27.81 721.74,-25.64 722.65,-32.58"/>
<text text-anchor="middle" x="719.45" y="-32.16" font-family="Times-Roman" font-size="14.00">+</text>
</g>
<!-- Hiring Quality&#45;&gt;Team Quality -->
<g id="edge21" class="edge">
<title>Hiring Quality&#45;&gt;Team Quality</title>
<path fill="none" stroke="black" d="M227.82,-486.82C227.25,-470.62 229.24,-446.81 243.5,-433 264.34,-412.81 337.91,-404.24 392.79,-400.62"/>
<polygon fill="black" stroke="black" points="393.04,-404.11 402.8,-400 392.61,-397.12 393.04,-404.11"/>
<text text-anchor="middle" x="389.63" y="-403.47" font-family="Times-Roman" font-size="14.00">&#45;</text>
</g>
<!-- Candidate Quality&#45;&gt;Team Quality -->
<g id="edge24" class="edge">
<title>Candidate Quality&#45;&gt;Team Quality</title>
<path fill="none" stroke="black" d="M621.94,-182.14C677.77,-213.82 781.61,-283.6 733.5,-342 707.02,-374.14 593.55,-387.41 520.31,-392.69"/>
<polygon fill="black" stroke="black" points="519.99,-389.21 510.25,-393.39 520.47,-396.19 519.99,-389.21"/>
<text text-anchor="middle" x="523.38" y="-382.43" font-family="Times-Roman" font-size="14.00">+</text>
</g>
<!-- Customer Satisfaction&#45;&gt;Reputation -->
<g id="edge28" class="edge">
<title>Customer Satisfaction&#45;&gt;Reputation</title>
<path fill="none" stroke="black" d="M384.92,-305.8C359.74,-292.51 324.73,-274.02 297.62,-259.71"/>
<polygon fill="black" stroke="black" points="299.23,-256.6 288.76,-255.03 295.97,-262.79 299.23,-256.6"/>
<text text-anchor="middle" x="303.74" y="-252.07" font-family="Times-Roman" font-size="14.00">+</text>
</g>
</g>
</svg>
