<?xml version="1.0" encoding="UTF-8" standalone="no"?>
<!DOCTYPE svg PUBLIC "-//W3C//DTD SVG 1.1//EN"
 "http://www.w3.org/Graphics/SVG/1.1/DTD/svg11.dtd">
<!-- Generated by graphviz version 2.43.0 (0)
 -->
<!-- Title: mygraph Pages: 1 -->
<svg width="342pt" height="332pt"
 viewBox="0.00 0.00 341.69 332.00" xmlns="http://www.w3.org/2000/svg" xmlns:xlink="http://www.w3.org/1999/xlink">
<g id="graph0" class="graph" transform="scale(1 1) rotate(0) translate(4 328)">
<title>mygraph</title>
<polygon fill="white" stroke="transparent" points="-4,4 -4,-328 337.69,-328 337.69,4 -4,4"/>
<!-- Inbound Demand -->
<g id="node1" class="node">
<title>Inbound Demand</title>
<ellipse fill="none" stroke="black" cx="90.34" cy="-306" rx="89.08" ry="18"/>
<text text-anchor="middle" x="90.34" y="-302.3" font-family="Times-Roman" font-size="14.00">Inbound Demand</text>
</g>
<!-- Qualification calls -->
<g id="node2" class="node">
<title>Qualification calls</title>
<ellipse fill="none" stroke="black" cx="90.34" cy="-234" rx="90.18" ry="18"/>
<text text-anchor="middle" x="90.34" y="-230.3" font-family="Times-Roman" font-size="14.00">Qualification calls</text>
</g>
<!-- Inbound Demand&#45;&gt;Qualification calls -->
<g id="edge1" class="edge">
<title>Inbound Demand&#45;&gt;Qualification calls</title>
<path fill="none" stroke="black" d="M90.34,-287.7C90.34,-279.98 90.34,-270.71 90.34,-262.11"/>
<polygon fill="black" stroke="black" points="93.84,-262.1 90.34,-252.1 86.84,-262.1 93.84,-262.1"/>
<text text-anchor="middle" x="83.84" y="-255.9" font-family="Times-Roman" font-size="14.00">+</text>
</g>
<!-- Project offerings -->
<g id="node3" class="node">
<title>Project offerings</title>
<ellipse fill="none" stroke="black" cx="90.34" cy="-162" rx="83.69" ry="18"/>
<text text-anchor="middle" x="90.34" y="-158.3" font-family="Times-Roman" font-size="14.00">Project offerings</text>
</g>
<!-- Qualification calls&#45;&gt;Project offerings -->
<g id="edge2" class="edge">
<title>Qualification calls&#45;&gt;Project offerings</title>
<path fill="none" stroke="black" d="M90.34,-215.7C90.34,-207.98 90.34,-198.71 90.34,-190.11"/>
<polygon fill="black" stroke="black" points="93.84,-190.1 90.34,-180.1 86.84,-190.1 93.84,-190.1"/>
<text text-anchor="middle" x="83.84" y="-183.9" font-family="Times-Roman" font-size="14.00">+</text>
</g>
<!-- Closed deals -->
<g id="node4" class="node">
<title>Closed deals</title>
<ellipse fill="none" stroke="black" cx="171.34" cy="-90" rx="67.69" ry="18"/>
<text text-anchor="middle" x="171.34" y="-86.3" font-family="Times-Roman" font-size="14.00">Closed deals</text>
</g>
<!-- Project offerings&#45;&gt;Closed deals -->
<g id="edge3" class="edge">
<title>Project offerings&#45;&gt;Closed deals</title>
<path fill="none" stroke="black" d="M109.54,-144.41C120.03,-135.34 133.19,-123.97 144.66,-114.06"/>
<polygon fill="black" stroke="black" points="147.01,-116.66 152.28,-107.47 142.43,-111.36 147.01,-116.66"/>
<text text-anchor="middle" x="145.78" y="-111.27" font-family="Times-Roman" font-size="14.00">+</text>
</g>
<!-- Bench Engineers -->
<g id="node5" class="node">
<title>Bench Engineers</title>
<ellipse fill="none" stroke="black" cx="171.34" cy="-18" rx="87.18" ry="18"/>
<text text-anchor="middle" x="171.34" y="-14.3" font-family="Times-Roman" font-size="14.00">Bench Engineers</text>
</g>
<!-- Closed deals&#45;&gt;Bench Engineers -->
<g id="edge6" class="edge">
<title>Closed deals&#45;&gt;Bench Engineers</title>
<path fill="none" stroke="black" d="M165.46,-72.05C164.65,-64.35 164.4,-55.03 164.74,-46.36"/>
<polygon fill="black" stroke="black" points="168.24,-46.49 165.43,-36.28 161.25,-46.01 168.24,-46.49"/>
<text text-anchor="middle" x="162.43" y="-40.08" font-family="Times-Roman" font-size="14.00">&#45;</text>
</g>
<!-- Bench Engineers&#45;&gt;Closed deals -->
<g id="edge4" class="edge">
<title>Bench Engineers&#45;&gt;Closed deals</title>
<path fill="none" stroke="black" d="M177.25,-36.28C178.06,-44.03 178.28,-53.36 177.93,-62.01"/>
<polygon fill="black" stroke="black" points="174.44,-61.83 177.22,-72.05 181.42,-62.33 174.44,-61.83"/>
<text text-anchor="middle" x="170.72" y="-60.85" font-family="Times-Roman" font-size="14.00">+</text>
</g>
<!-- Reputation -->
<g id="node6" class="node">
<title>Reputation</title>
<ellipse fill="none" stroke="black" cx="252.34" cy="-162" rx="59.59" ry="18"/>
<text text-anchor="middle" x="252.34" y="-158.3" font-family="Times-Roman" font-size="14.00">Reputation</text>
</g>
<!-- Reputation&#45;&gt;Closed deals -->
<g id="edge5" class="edge">
<title>Reputation&#45;&gt;Closed deals</title>
<path fill="none" stroke="black" d="M233.56,-144.76C223,-135.64 209.65,-124.1 198.02,-114.06"/>
<polygon fill="black" stroke="black" points="200.16,-111.28 190.31,-107.39 195.58,-116.58 200.16,-111.28"/>
<text text-anchor="middle" x="183.81" y="-111.19" font-family="Times-Roman" font-size="14.00">+</text>
</g>
<!-- Hiring -->
<g id="node7" class="node">
<title>Hiring</title>
<ellipse fill="none" stroke="black" cx="295.34" cy="-90" rx="38.19" ry="18"/>
<text text-anchor="middle" x="295.34" y="-86.3" font-family="Times-Roman" font-size="14.00">Hiring</text>
</g>
<!-- Hiring&#45;&gt;Bench Engineers -->
<g id="edge7" class="edge">
<title>Hiring&#45;&gt;Bench Engineers</title>
<path fill="none" stroke="black" d="M271.73,-75.67C253.98,-65.65 229.3,-51.72 208.86,-40.18"/>
<polygon fill="black" stroke="black" points="210.53,-37.1 200.1,-35.23 207.09,-43.2 210.53,-37.1"/>
<text text-anchor="middle" x="193.6" y="-39.03" font-family="Times-Roman" font-size="14.00">+</text>
</g>
</g>
</svg>
