<?xml version="1.0" encoding="UTF-8" standalone="no"?>
<!DOCTYPE svg PUBLIC "-//W3C//DTD SVG 1.1//EN"
 "http://www.w3.org/Graphics/SVG/1.1/DTD/svg11.dtd">
<!-- Generated by graphviz version 2.43.0 (0)
 -->
<!-- Title: mygraph Pages: 1 -->
<svg width="754pt" height="750pt"
 viewBox="0.00 0.00 754.33 750.00" xmlns="http://www.w3.org/2000/svg" xmlns:xlink="http://www.w3.org/1999/xlink">
<g id="graph0" class="graph" transform="scale(1 1) rotate(0) translate(4 746)">
<title>mygraph</title>
<polygon fill="white" stroke="transparent" points="-4,4 -4,-746 750.33,-746 750.33,4 -4,4"/>
<!-- Inbound Demand -->
<g id="node1" class="node">
<title>Inbound Demand</title>
<text text-anchor="middle" x="565.33" y="-720.3" font-family="Times-Roman" font-size="14.00">Inbound Demand</text>
</g>
<!-- Qualification calls -->
<g id="node2" class="node">
<title>Qualification calls</title>
<text text-anchor="middle" x="87.33" y="-647.3" font-family="Times-Roman" font-size="14.00">Qualification calls</text>
</g>
<!-- Inbound Demand&#45;&gt;Qualification calls -->
<g id="edge1" class="edge">
<title>Inbound Demand&#45;&gt;Qualification calls</title>
<path fill="none" stroke="black" d="M496.59,-712.79C409.44,-699.84 259.46,-677.57 167.28,-663.88"/>
<polygon fill="black" stroke="black" points="167.57,-660.38 157.16,-662.37 166.54,-667.3 167.57,-660.38"/>
<text text-anchor="middle" x="171.54" y="-654.4" font-family="Times-Roman" font-size="14.00">+</text>
</g>
<!-- Project offerings -->
<g id="node3" class="node">
<title>Project offerings</title>
<text text-anchor="middle" x="87.33" y="-574.3" font-family="Times-Roman" font-size="14.00">Project offerings</text>
</g>
<!-- Qualification calls&#45;&gt;Project offerings -->
<g id="edge2" class="edge">
<title>Qualification calls&#45;&gt;Project offerings</title>
<path fill="none" stroke="black" d="M87.33,-632.81C87.33,-624.79 87.33,-615.05 87.33,-606.07"/>
<polygon fill="black" stroke="black" points="90.83,-606.03 87.33,-596.03 83.83,-606.03 90.83,-606.03"/>
<text text-anchor="middle" x="93.67" y="-605.92" font-family="Times-Roman" font-size="14.00">+</text>
</g>
<!-- Closed Deals -->
<g id="node6" class="node">
<title>Closed Deals</title>
<text text-anchor="middle" x="161.33" y="-501.3" font-family="Times-Roman" font-size="14.00">Closed Deals</text>
</g>
<!-- Project offerings&#45;&gt;Closed Deals -->
<g id="edge8" class="edge">
<title>Project offerings&#45;&gt;Closed Deals</title>
<path fill="none" stroke="black" d="M105.24,-559.81C114.51,-550.92 125.99,-539.91 136.14,-530.17"/>
<polygon fill="black" stroke="black" points="138.79,-532.48 143.58,-523.03 133.94,-527.43 138.79,-532.48"/>
<text text-anchor="middle" x="138.16" y="-533.32" font-family="Times-Roman" font-size="14.00">+</text>
</g>
<!-- Bench Engineers -->
<g id="node4" class="node">
<title>Bench Engineers</title>
<text text-anchor="middle" x="81.33" y="-428.3" font-family="Times-Roman" font-size="14.00">Bench Engineers</text>
</g>
<!-- Bench Engineers&#45;&gt;Qualification calls -->
<g id="edge3" class="edge">
<title>Bench Engineers&#45;&gt;Qualification calls</title>
<path fill="none" stroke="black" d="M64.4,-450.03C36.65,-480.11 -12.93,-544.34 13.33,-596 19.77,-608.66 30.72,-619.06 42.25,-627.24"/>
<polygon fill="black" stroke="black" points="40.42,-630.22 50.7,-632.8 44.27,-624.38 40.42,-630.22"/>
<text text-anchor="middle" x="35.86" y="-626.92" font-family="Times-Roman" font-size="14.00">+</text>
</g>
<!-- Team Quality -->
<g id="node5" class="node">
<title>Team Quality</title>
<text text-anchor="middle" x="355.33" y="-320.3" font-family="Times-Roman" font-size="14.00">Team Quality</text>
</g>
<!-- Bench Engineers&#45;&gt;Team Quality -->
<g id="edge10" class="edge">
<title>Bench Engineers&#45;&gt;Team Quality</title>
<path fill="none" stroke="black" d="M125.35,-413.97C173.25,-395.44 249.84,-365.81 301.33,-345.89"/>
<polygon fill="black" stroke="black" points="302.9,-349.04 310.96,-342.16 300.37,-342.51 302.9,-349.04"/>
<text text-anchor="middle" x="300.57" y="-349.28" font-family="Times-Roman" font-size="14.00">+</text>
</g>
<!-- Bench Engineers&#45;&gt;Closed Deals -->
<g id="edge9" class="edge">
<title>Bench Engineers&#45;&gt;Closed Deals</title>
<path fill="none" stroke="black" d="M106.38,-450.03C117.31,-458.9 129.9,-469.9 140.34,-479.65"/>
<polygon fill="black" stroke="black" points="138.19,-482.44 147.84,-486.81 143.02,-477.38 138.19,-482.44"/>
<text text-anchor="middle" x="133.63" y="-478.31" font-family="Times-Roman" font-size="14.00">+</text>
</g>
<!-- Team Quality&#45;&gt;Team Quality -->
<g id="edge27" class="edge">
<title>Team Quality&#45;&gt;Team Quality</title>
<path fill="none" stroke="black" d="M408.96,-330.45C419.41,-329.7 426.83,-327.55 426.83,-324 426.83,-321.78 423.93,-320.11 419.21,-318.98"/>
<polygon fill="black" stroke="black" points="419.35,-315.47 408.96,-317.55 418.38,-322.4 419.35,-315.47"/>
<text text-anchor="middle" x="423.3" y="-309.46" font-family="Times-Roman" font-size="14.00">+</text>
</g>
<!-- Team Quality&#45;&gt;Closed Deals -->
<g id="edge4" class="edge">
<title>Team Quality&#45;&gt;Closed Deals</title>
<path fill="none" stroke="black" d="M382.89,-342.15C419.1,-366.78 474.72,-413.26 444.33,-450 417,-483.04 299.36,-496.04 224.62,-501.03"/>
<polygon fill="black" stroke="black" points="224.13,-497.55 214.37,-501.68 224.58,-504.54 224.13,-497.55"/>
<text text-anchor="middle" x="227.54" y="-490.79" font-family="Times-Roman" font-size="14.00">+</text>
</g>
<!-- Open Source Contributions -->
<g id="node8" class="node">
<title>Open Source Contributions</title>
<text text-anchor="middle" x="540.33" y="-247.3" font-family="Times-Roman" font-size="14.00">Open Source Contributions</text>
</g>
<!-- Team Quality&#45;&gt;Open Source Contributions -->
<g id="edge6" class="edge">
<title>Team Quality&#45;&gt;Open Source Contributions</title>
<path fill="none" stroke="black" d="M399.64,-305.99C425.65,-296.01 458.71,-283.32 486.25,-272.76"/>
<polygon fill="black" stroke="black" points="487.66,-275.96 495.74,-269.11 485.15,-269.43 487.66,-275.96"/>
<text text-anchor="middle" x="485.32" y="-276.2" font-family="Times-Roman" font-size="14.00">+</text>
</g>
<!-- Customer Satisfaction -->
<g id="node18" class="node">
<title>Customer Satisfaction</title>
<text text-anchor="middle" x="335.33" y="-247.3" font-family="Times-Roman" font-size="14.00">Customer Satisfaction</text>
</g>
<!-- Team Quality&#45;&gt;Customer Satisfaction -->
<g id="edge28" class="edge">
<title>Team Quality&#45;&gt;Customer Satisfaction</title>
<path fill="none" stroke="black" d="M350.49,-305.81C348.2,-297.7 345.42,-287.84 342.87,-278.78"/>
<polygon fill="black" stroke="black" points="346.21,-277.71 340.13,-269.03 339.47,-279.6 346.21,-277.71"/>
<text text-anchor="middle" x="349.91" y="-276.7" font-family="Times-Roman" font-size="14.00">+</text>
</g>
<!-- Closed Deals&#45;&gt;Bench Engineers -->
<g id="edge16" class="edge">
<title>Closed Deals&#45;&gt;Bench Engineers</title>
<path fill="none" stroke="black" d="M136.09,-486.81C125.13,-477.92 112.54,-466.91 102.13,-457.17"/>
<polygon fill="black" stroke="black" points="104.3,-454.41 94.66,-450.03 99.47,-459.47 104.3,-454.41"/>
<text text-anchor="middle" x="108.86" y="-451.14" font-family="Times-Roman" font-size="14.00">&#45;</text>
</g>
<!-- Project Engineers -->
<g id="node10" class="node">
<title>Project Engineers</title>
<text text-anchor="middle" x="366.33" y="-428.3" font-family="Times-Roman" font-size="14.00">Project Engineers</text>
</g>
<!-- Closed Deals&#45;&gt;Project Engineers -->
<g id="edge11" class="edge">
<title>Closed Deals&#45;&gt;Project Engineers</title>
<path fill="none" stroke="black" d="M210.43,-486.99C239.5,-476.92 276.53,-464.1 307.2,-453.48"/>
<polygon fill="black" stroke="black" points="308.61,-456.69 316.92,-450.11 306.32,-450.08 308.61,-456.69"/>
<text text-anchor="middle" x="306.15" y="-456.85" font-family="Times-Roman" font-size="14.00">+</text>
</g>
<!-- Accomplished Projects -->
<g id="node12" class="node">
<title>Accomplished Projects</title>
<text text-anchor="middle" x="607.33" y="-374.3" font-family="Times-Roman" font-size="14.00">Accomplished Projects</text>
</g>
<!-- Closed Deals&#45;&gt;Accomplished Projects -->
<g id="edge17" class="edge">
<title>Closed Deals&#45;&gt;Accomplished Projects</title>
<path fill="none" stroke="black" d="M214.74,-501.45C327.35,-495.52 580.88,-479.05 606.33,-450 616.59,-438.28 616.97,-420.84 614.72,-406.18"/>
<polygon fill="black" stroke="black" points="618.1,-405.24 612.72,-396.11 611.23,-406.6 618.1,-405.24"/>
<text text-anchor="middle" x="621.58" y="-404.51" font-family="Times-Roman" font-size="14.00">+</text>
</g>
<!-- Price -->
<g id="node7" class="node">
<title>Price</title>
<text text-anchor="middle" x="197.33" y="-574.3" font-family="Times-Roman" font-size="14.00">Price</text>
</g>
<!-- Price&#45;&gt;Closed Deals -->
<g id="edge5" class="edge">
<title>Price&#45;&gt;Closed Deals</title>
<path fill="none" stroke="black" d="M188.61,-559.81C184.41,-551.53 179.28,-541.41 174.61,-532.19"/>
<polygon fill="black" stroke="black" points="177.61,-530.37 169.96,-523.03 171.36,-533.53 177.61,-530.37"/>
<text text-anchor="middle" x="181.77" y="-528.59" font-family="Times-Roman" font-size="14.00">&#45;</text>
</g>
<!-- Reputation -->
<g id="node9" class="node">
<title>Reputation</title>
<text text-anchor="middle" x="335.33" y="-160.3" font-family="Times-Roman" font-size="14.00">Reputation</text>
</g>
<!-- Open Source Contributions&#45;&gt;Reputation -->
<g id="edge7" class="edge">
<title>Open Source Contributions&#45;&gt;Reputation</title>
<path fill="none" stroke="black" d="M498.84,-232.8C466.23,-219.27 420.65,-200.38 385.9,-185.97"/>
<polygon fill="black" stroke="black" points="386.98,-182.63 376.4,-182.03 384.3,-189.09 386.98,-182.63"/>
<text text-anchor="middle" x="468.33" y="-203.8" font-family="Times-Roman" font-size="14.00">delay</text>
<text text-anchor="middle" x="391.39" y="-177.68" font-family="Times-Roman" font-size="14.00">+</text>
</g>
<!-- Reputation&#45;&gt;Inbound Demand -->
<g id="edge15" class="edge">
<title>Reputation&#45;&gt;Inbound Demand</title>
<path fill="none" stroke="black" d="M381.68,-164.92C489.16,-165.98 746.33,-176.23 746.33,-250 746.33,-652 746.33,-652 746.33,-652 746.33,-675.49 692.84,-694.42 644.02,-706.81"/>
<polygon fill="black" stroke="black" points="642.89,-703.48 634.02,-709.28 644.56,-710.28 642.89,-703.48"/>
<text text-anchor="middle" x="645.7" y="-696.17" font-family="Times-Roman" font-size="14.00">+</text>
</g>
<!-- Reputation&#45;&gt;Closed Deals -->
<g id="edge13" class="edge">
<title>Reputation&#45;&gt;Closed Deals</title>
<path fill="none" stroke="black" d="M289.12,-168.6C239.43,-174.62 160.43,-190.61 107.33,-233 35.17,-290.61 28.76,-324.68 5.33,-414 1.27,-429.48 -3.95,-436.97 5.33,-450 26.35,-479.51 64.65,-493.05 98.04,-499.19"/>
<polygon fill="black" stroke="black" points="97.78,-502.69 108.22,-500.86 98.92,-495.78 97.78,-502.69"/>
<text text-anchor="middle" x="93.78" y="-501.21" font-family="Times-Roman" font-size="14.00">+</text>
</g>
<!-- Candidate Number -->
<g id="node11" class="node">
<title>Candidate Number</title>
<text text-anchor="middle" x="335.33" y="-87.3" font-family="Times-Roman" font-size="14.00">Candidate Number</text>
</g>
<!-- Reputation&#45;&gt;Candidate Number -->
<g id="edge14" class="edge">
<title>Reputation&#45;&gt;Candidate Number</title>
<path fill="none" stroke="black" d="M335.33,-145.81C335.33,-137.79 335.33,-128.05 335.33,-119.07"/>
<polygon fill="black" stroke="black" points="338.83,-119.03 335.33,-109.03 331.83,-119.03 338.83,-119.03"/>
<text text-anchor="middle" x="341.67" y="-118.92" font-family="Times-Roman" font-size="14.00">+</text>
</g>
<!-- Candidate Quality -->
<g id="node17" class="node">
<title>Candidate Quality</title>
<text text-anchor="middle" x="141.33" y="-87.3" font-family="Times-Roman" font-size="14.00">Candidate Quality</text>
</g>
<!-- Reputation&#45;&gt;Candidate Quality -->
<g id="edge26" class="edge">
<title>Reputation&#45;&gt;Candidate Quality</title>
<path fill="none" stroke="black" d="M288.86,-145.99C261.47,-135.97 226.61,-123.21 197.66,-112.62"/>
<polygon fill="black" stroke="black" points="198.68,-109.26 188.09,-109.11 196.28,-115.84 198.68,-109.26"/>
<text text-anchor="middle" x="203.04" y="-104.13" font-family="Times-Roman" font-size="14.00">+</text>
</g>
<!-- Project Engineers&#45;&gt;Team Quality -->
<g id="edge12" class="edge">
<title>Project Engineers&#45;&gt;Team Quality</title>
<path fill="none" stroke="black" d="M364.56,-413.97C362.84,-397.38 360.19,-371.88 358.18,-352.43"/>
<polygon fill="black" stroke="black" points="361.64,-351.93 357.13,-342.34 354.68,-352.65 361.64,-351.93"/>
<text text-anchor="middle" x="381.33" y="-374.3" font-family="Times-Roman" font-size="14.00">delay</text>
<text text-anchor="middle" x="364.84" y="-351.51" font-family="Times-Roman" font-size="14.00">+</text>
</g>
<!-- Hiring Number -->
<g id="node14" class="node">
<title>Hiring Number</title>
<text text-anchor="middle" x="335.33" y="-14.3" font-family="Times-Roman" font-size="14.00">Hiring Number</text>
</g>
<!-- Candidate Number&#45;&gt;Hiring Number -->
<g id="edge25" class="edge">
<title>Candidate Number&#45;&gt;Hiring Number</title>
<path fill="none" stroke="black" d="M335.33,-72.81C335.33,-64.79 335.33,-55.05 335.33,-46.07"/>
<polygon fill="black" stroke="black" points="338.83,-46.03 335.33,-36.03 331.83,-46.03 338.83,-46.03"/>
<text text-anchor="middle" x="341.67" y="-45.92" font-family="Times-Roman" font-size="14.00">+</text>
</g>
<!-- Accomplished Projects&#45;&gt;Reputation -->
<g id="edge18" class="edge">
<title>Accomplished Projects&#45;&gt;Reputation</title>
<path fill="none" stroke="black" d="M621.89,-359.54C644.41,-330.34 682.04,-271.03 651.33,-233 619.29,-193.33 473.5,-175.72 391.6,-168.83"/>
<polygon fill="black" stroke="black" points="391.71,-165.33 381.46,-168.01 391.14,-172.31 391.71,-165.33"/>
<text text-anchor="middle" x="395.52" y="-159.09" font-family="Times-Roman" font-size="14.00">+</text>
</g>
<!-- Failed Projects -->
<g id="node13" class="node">
<title>Failed Projects</title>
<text text-anchor="middle" x="174.33" y="-247.3" font-family="Times-Roman" font-size="14.00">Failed Projects</text>
</g>
<!-- Failed Projects&#45;&gt;Reputation -->
<g id="edge19" class="edge">
<title>Failed Projects&#45;&gt;Reputation</title>
<path fill="none" stroke="black" d="M206.91,-232.8C232.09,-219.51 267.1,-201.02 294.21,-186.71"/>
<polygon fill="black" stroke="black" points="295.86,-189.79 303.07,-182.03 292.59,-183.6 295.86,-189.79"/>
<text text-anchor="middle" x="294.01" y="-190.28" font-family="Times-Roman" font-size="14.00">&#45;</text>
</g>
<!-- Hiring Number&#45;&gt;Bench Engineers -->
<g id="edge20" class="edge">
<title>Hiring Number&#45;&gt;Bench Engineers</title>
<path fill="none" stroke="black" d="M275.71,-20.06C182.38,-23.35 12.33,-36.68 12.33,-90 12.33,-208.5 12.33,-208.5 12.33,-208.5 12.33,-282.45 47.53,-364.27 67.64,-404.99"/>
<polygon fill="black" stroke="black" points="64.54,-406.61 72.17,-413.97 70.79,-403.46 64.54,-406.61"/>
<text text-anchor="middle" x="60.39" y="-400.98" font-family="Times-Roman" font-size="14.00">+</text>
</g>
<!-- Hiring Quality -->
<g id="node15" class="node">
<title>Hiring Quality</title>
<text text-anchor="middle" x="223.33" y="-428.3" font-family="Times-Roman" font-size="14.00">Hiring Quality</text>
</g>
<!-- Hiring Quality&#45;&gt;Team Quality -->
<g id="edge21" class="edge">
<title>Hiring Quality&#45;&gt;Team Quality</title>
<path fill="none" stroke="black" d="M244.54,-413.97C266.54,-396.3 301.11,-368.54 325.78,-348.73"/>
<polygon fill="black" stroke="black" points="328.13,-351.33 333.74,-342.34 323.75,-345.87 328.13,-351.33"/>
<text text-anchor="middle" x="327.1" y="-352.1" font-family="Times-Roman" font-size="14.00">&#45;</text>
</g>
<!-- Hiring Target -->
<g id="node16" class="node">
<title>Hiring Target</title>
<text text-anchor="middle" x="544.33" y="-428.3" font-family="Times-Roman" font-size="14.00">Hiring Target</text>
</g>
<!-- Hiring Target&#45;&gt;Team Quality -->
<g id="edge23" class="edge">
<title>Hiring Target&#45;&gt;Team Quality</title>
<path fill="none" stroke="black" d="M529.12,-413.96C511.33,-394.18 483.52,-363.77 477.33,-360 459.62,-349.22 438.44,-341.63 418.74,-336.35"/>
<polygon fill="black" stroke="black" points="419.46,-332.92 408.91,-333.87 417.75,-339.71 419.46,-332.92"/>
<text text-anchor="middle" x="423.64" y="-327.35" font-family="Times-Roman" font-size="14.00">&#45;</text>
</g>
<!-- Hiring Target&#45;&gt;Hiring Number -->
<g id="edge22" class="edge">
<title>Hiring Target&#45;&gt;Hiring Number</title>
<path fill="none" stroke="black" d="M596.88,-424.83C634.53,-419.32 680.86,-409.94 694.33,-396 716.68,-372.87 708.33,-357.16 708.33,-325 708.33,-325 708.33,-325 708.33,-90 708.33,-28.93 512.96,-19.07 405.01,-18.28"/>
<polygon fill="black" stroke="black" points="404.86,-14.78 394.84,-18.23 404.83,-21.78 404.86,-14.78"/>
<text text-anchor="middle" x="408.47" y="-8.26" font-family="Times-Roman" font-size="14.00">+</text>
</g>
<!-- Candidate Quality&#45;&gt;Team Quality -->
<g id="edge24" class="edge">
<title>Candidate Quality&#45;&gt;Team Quality</title>
<path fill="none" stroke="black" d="M130.1,-109C109.02,-143.26 68.95,-221.36 107.33,-269 130.03,-297.17 225.65,-311.42 291.3,-318.02"/>
<polygon fill="black" stroke="black" points="291.28,-321.53 301.57,-319.01 291.95,-314.56 291.28,-321.53"/>
<text text-anchor="middle" x="287.42" y="-320.31" font-family="Times-Roman" font-size="14.00">+</text>
</g>
<!-- Customer Satisfaction&#45;&gt;Reputation -->
<g id="edge29" class="edge">
<title>Customer Satisfaction&#45;&gt;Reputation</title>
<path fill="none" stroke="black" d="M335.33,-232.8C335.33,-221.16 335.33,-205.55 335.33,-192.24"/>
<polygon fill="black" stroke="black" points="338.83,-192.18 335.33,-182.18 331.83,-192.18 338.83,-192.18"/>
<text text-anchor="middle" x="341.67" y="-192.07" font-family="Times-Roman" font-size="14.00">+</text>
</g>
</g>
</svg>
