<?xml version="1.0" encoding="UTF-8" standalone="no"?>
<!DOCTYPE svg PUBLIC "-//W3C//DTD SVG 1.1//EN"
 "http://www.w3.org/Graphics/SVG/1.1/DTD/svg11.dtd">
<!-- Generated by graphviz version 2.43.0 (0)
 -->
<!-- Title: mygraph Pages: 1 -->
<svg width="651pt" height="332pt"
 viewBox="0.00 0.00 650.50 332.00" xmlns="http://www.w3.org/2000/svg" xmlns:xlink="http://www.w3.org/1999/xlink">
<g id="graph0" class="graph" transform="scale(1 1) rotate(0) translate(4 328)">
<title>mygraph</title>
<polygon fill="white" stroke="transparent" points="-4,4 -4,-328 646.5,-328 646.5,4 -4,4"/>
<!-- nodes -->
<g id="node1" class="node">
<title>nodes</title>
<ellipse fill="none" stroke="black" cx="38.35" cy="-306" rx="38.19" ry="18"/>
<text text-anchor="middle" x="38.35" y="-302.3" font-family="Times-Roman" font-size="14.00">nodes</text>
</g>
<!-- Inbound Demand -->
<g id="node2" class="node">
<title>Inbound Demand</title>
<ellipse fill="none" stroke="black" cx="183.35" cy="-306" rx="89.08" ry="18"/>
<text text-anchor="middle" x="183.35" y="-302.3" font-family="Times-Roman" font-size="14.00">Inbound Demand</text>
</g>
<!-- Qualification calls -->
<g id="node3" class="node">
<title>Qualification calls</title>
<ellipse fill="none" stroke="black" cx="183.35" cy="-234" rx="90.18" ry="18"/>
<text text-anchor="middle" x="183.35" y="-230.3" font-family="Times-Roman" font-size="14.00">Qualification calls</text>
</g>
<!-- Inbound Demand&#45;&gt;Qualification calls -->
<g id="edge1" class="edge">
<title>Inbound Demand&#45;&gt;Qualification calls</title>
<path fill="none" stroke="black" d="M183.35,-287.7C183.35,-279.98 183.35,-270.71 183.35,-262.11"/>
<polygon fill="black" stroke="black" points="186.85,-262.1 183.35,-252.1 179.85,-262.1 186.85,-262.1"/>
<text text-anchor="middle" x="176.85" y="-255.9" font-family="Times-Roman" font-size="14.00">+</text>
</g>
<!-- Project offerings -->
<g id="node4" class="node">
<title>Project offerings</title>
<ellipse fill="none" stroke="black" cx="239.35" cy="-162" rx="83.69" ry="18"/>
<text text-anchor="middle" x="239.35" y="-158.3" font-family="Times-Roman" font-size="14.00">Project offerings</text>
</g>
<!-- Qualification calls&#45;&gt;Project offerings -->
<g id="edge2" class="edge">
<title>Qualification calls&#45;&gt;Project offerings</title>
<path fill="none" stroke="black" d="M196.9,-216.05C203.71,-207.54 212.09,-197.07 219.6,-187.68"/>
<polygon fill="black" stroke="black" points="222.4,-189.78 225.92,-179.79 216.94,-185.41 222.4,-189.78"/>
<text text-anchor="middle" x="219.42" y="-183.59" font-family="Times-Roman" font-size="14.00">+</text>
</g>
<!-- Closed deals -->
<g id="node7" class="node">
<title>Closed deals</title>
<ellipse fill="none" stroke="black" cx="415.35" cy="-90" rx="67.69" ry="18"/>
<text text-anchor="middle" x="415.35" y="-86.3" font-family="Times-Roman" font-size="14.00">Closed deals</text>
</g>
<!-- Project offerings&#45;&gt;Closed deals -->
<g id="edge5" class="edge">
<title>Project offerings&#45;&gt;Closed deals</title>
<path fill="none" stroke="black" d="M277.54,-145.81C304.69,-135.01 341.29,-120.45 369.95,-109.06"/>
<polygon fill="black" stroke="black" points="371.34,-112.27 379.33,-105.32 368.75,-105.77 371.34,-112.27"/>
<text text-anchor="middle" x="372.83" y="-109.12" font-family="Times-Roman" font-size="14.00">+</text>
</g>
<!-- Bench Engineers -->
<g id="node5" class="node">
<title>Bench Engineers</title>
<ellipse fill="none" stroke="black" cx="415.35" cy="-18" rx="87.18" ry="18"/>
<text text-anchor="middle" x="415.35" y="-14.3" font-family="Times-Roman" font-size="14.00">Bench Engineers</text>
</g>
<!-- Bench Engineers&#45;&gt;Qualification calls -->
<g id="edge3" class="edge">
<title>Bench Engineers&#45;&gt;Qualification calls</title>
<path fill="none" stroke="black" d="M348.02,-29.44C283.78,-43.37 190.46,-74.86 146.35,-144 133.47,-164.18 146.55,-189.61 160.59,-208.11"/>
<polygon fill="black" stroke="black" points="158.01,-210.5 167.02,-216.08 163.46,-206.1 158.01,-210.5"/>
<text text-anchor="middle" x="160.52" y="-204.88" font-family="Times-Roman" font-size="14.00">+</text>
</g>
<!-- Bench Engineers&#45;&gt;Closed deals -->
<g id="edge6" class="edge">
<title>Bench Engineers&#45;&gt;Closed deals</title>
<path fill="none" stroke="black" d="M421.26,-36.28C422.06,-44.03 422.29,-53.36 421.94,-62.01"/>
<polygon fill="black" stroke="black" points="418.44,-61.83 421.22,-72.05 425.42,-62.33 418.44,-61.83"/>
<text text-anchor="middle" x="414.72" y="-60.85" font-family="Times-Roman" font-size="14.00">+</text>
</g>
<!-- Bench Quality -->
<g id="node6" class="node">
<title>Bench Quality</title>
<ellipse fill="none" stroke="black" cx="415.35" cy="-162" rx="74.19" ry="18"/>
<text text-anchor="middle" x="415.35" y="-158.3" font-family="Times-Roman" font-size="14.00">Bench Quality</text>
</g>
<!-- Bench Quality&#45;&gt;Closed deals -->
<g id="edge4" class="edge">
<title>Bench Quality&#45;&gt;Closed deals</title>
<path fill="none" stroke="black" d="M415.35,-143.7C415.35,-135.98 415.35,-126.71 415.35,-118.11"/>
<polygon fill="black" stroke="black" points="418.85,-118.1 415.35,-108.1 411.85,-118.1 418.85,-118.1"/>
<text text-anchor="middle" x="408.85" y="-111.9" font-family="Times-Roman" font-size="14.00">+</text>
</g>
<!-- Closed deals&#45;&gt;Bench Engineers -->
<g id="edge8" class="edge">
<title>Closed deals&#45;&gt;Bench Engineers</title>
<path fill="none" stroke="black" d="M409.47,-72.05C408.65,-64.35 408.41,-55.03 408.74,-46.36"/>
<polygon fill="black" stroke="black" points="412.24,-46.49 409.43,-36.28 405.26,-46.01 412.24,-46.49"/>
<text text-anchor="middle" x="403.93" y="-40.08" font-family="Times-Roman" font-size="14.00">&#45;&#45;</text>
</g>
<!-- Reputation -->
<g id="node8" class="node">
<title>Reputation</title>
<ellipse fill="none" stroke="black" cx="567.35" cy="-162" rx="59.59" ry="18"/>
<text text-anchor="middle" x="567.35" y="-158.3" font-family="Times-Roman" font-size="14.00">Reputation</text>
</g>
<!-- Reputation&#45;&gt;Closed deals -->
<g id="edge7" class="edge">
<title>Reputation&#45;&gt;Closed deals</title>
<path fill="none" stroke="black" d="M535.85,-146.5C512.95,-135.95 481.73,-121.57 456.8,-110.09"/>
<polygon fill="black" stroke="black" points="458.13,-106.85 447.59,-105.85 455.21,-113.21 458.13,-106.85"/>
<text text-anchor="middle" x="441.09" y="-109.65" font-family="Times-Roman" font-size="14.00">+</text>
</g>
<!-- Hiring -->
<g id="node9" class="node">
<title>Hiring</title>
<ellipse fill="none" stroke="black" cx="535.35" cy="-234" rx="38.19" ry="18"/>
<text text-anchor="middle" x="535.35" y="-230.3" font-family="Times-Roman" font-size="14.00">Hiring</text>
</g>
<!-- Hiring&#45;&gt;Bench Engineers -->
<g id="edge9" class="edge">
<title>Hiring&#45;&gt;Bench Engineers</title>
<path fill="none" stroke="black" d="M568.94,-225.15C592.31,-217.74 621.8,-204.06 636.35,-180 644.62,-166.31 644.41,-157.82 636.35,-144 602.58,-86.11 530.97,-52.89 478.38,-35.46"/>
<polygon fill="black" stroke="black" points="479.39,-32.11 468.79,-32.39 477.25,-38.77 479.39,-32.11"/>
<text text-anchor="middle" x="462.29" y="-36.19" font-family="Times-Roman" font-size="14.00">+</text>
</g>
<!-- Hiring&#45;&gt;Bench Quality -->
<g id="edge10" class="edge">
<title>Hiring&#45;&gt;Bench Quality</title>
<path fill="none" stroke="black" d="M512.21,-219.5C494.96,-209.44 471.08,-195.51 451.35,-184"/>
<polygon fill="black" stroke="black" points="453.02,-180.92 442.61,-178.91 449.49,-186.97 453.02,-180.92"/>
<text text-anchor="middle" x="437.11" y="-182.71" font-family="Times-Roman" font-size="14.00">&#45;&#45;</text>
</g>
</g>
</svg>
