<?xml version="1.0" encoding="UTF-8" standalone="no"?>
<!DOCTYPE svg PUBLIC "-//W3C//DTD SVG 1.1//EN"
 "http://www.w3.org/Graphics/SVG/1.1/DTD/svg11.dtd">
<!-- Generated by graphviz version 2.43.0 (0)
 -->
<!-- Title: mygraph Pages: 1 -->
<svg width="913pt" height="1018pt"
 viewBox="0.00 0.00 912.50 1018.00" xmlns="http://www.w3.org/2000/svg" xmlns:xlink="http://www.w3.org/1999/xlink">
<g id="graph0" class="graph" transform="scale(1 1) rotate(0) translate(4 1014)">
<title>mygraph</title>
<polygon fill="white" stroke="transparent" points="-4,4 -4,-1014 908.5,-1014 908.5,4 -4,4"/>
<!-- Inbound Demand -->
<g id="node1" class="node">
<title>Inbound Demand</title>
<text text-anchor="middle" x="506.5" y="-988.3" font-family="Times-Roman" font-size="14.00">Inbound Demand</text>
</g>
<!-- Qualification calls -->
<g id="node2" class="node">
<title>Qualification calls</title>
<text text-anchor="middle" x="225.5" y="-915.3" font-family="Times-Roman" font-size="14.00">Qualification calls</text>
</g>
<!-- Inbound Demand&#45;&gt;Qualification calls -->
<g id="edge1" class="edge">
<title>Inbound Demand&#45;&gt;Qualification calls</title>
<path fill="none" stroke="black" d="M439.19,-973.99C398.22,-963.64 345.73,-950.38 303.02,-939.59"/>
<polygon fill="black" stroke="black" points="303.78,-936.17 293.23,-937.11 302.07,-942.96 303.78,-936.17"/>
<text text-anchor="middle" x="307.96" y="-930.6" font-family="Times-Roman" font-size="14.00">+</text>
</g>
<!-- Project Offerings -->
<g id="node3" class="node">
<title>Project Offerings</title>
<text text-anchor="middle" x="225.5" y="-842.3" font-family="Times-Roman" font-size="14.00">Project Offerings</text>
</g>
<!-- Qualification calls&#45;&gt;Project Offerings -->
<g id="edge2" class="edge">
<title>Qualification calls&#45;&gt;Project Offerings</title>
<path fill="none" stroke="black" d="M225.5,-900.81C225.5,-892.79 225.5,-883.05 225.5,-874.07"/>
<polygon fill="black" stroke="black" points="229,-874.03 225.5,-864.03 222,-874.03 229,-874.03"/>
<text text-anchor="middle" x="231.84" y="-873.92" font-family="Times-Roman" font-size="14.00">+</text>
</g>
<!-- Closed Deals -->
<g id="node6" class="node">
<title>Closed Deals</title>
<text text-anchor="middle" x="331.5" y="-769.3" font-family="Times-Roman" font-size="14.00">Closed Deals</text>
</g>
<!-- Project Offerings&#45;&gt;Closed Deals -->
<g id="edge8" class="edge">
<title>Project Offerings&#45;&gt;Closed Deals</title>
<path fill="none" stroke="black" d="M250.89,-827.99C264.82,-818.67 282.27,-806.97 297.37,-796.86"/>
<polygon fill="black" stroke="black" points="299.59,-799.59 305.95,-791.11 295.69,-793.77 299.59,-799.59"/>
<text text-anchor="middle" x="298.18" y="-800.25" font-family="Times-Roman" font-size="14.00">+</text>
</g>
<!-- Hiring Target -->
<g id="node10" class="node">
<title>Hiring Target</title>
<text text-anchor="middle" x="52.5" y="-480.3" font-family="Times-Roman" font-size="14.00">Hiring Target</text>
</g>
<!-- Project Offerings&#45;&gt;Hiring Target -->
<g id="edge9" class="edge">
<title>Project Offerings&#45;&gt;Hiring Target</title>
<path fill="none" stroke="black" d="M159.11,-843.41C110.32,-838.27 52.5,-822.05 52.5,-774 52.5,-774 52.5,-774 52.5,-591 52.5,-564.24 52.5,-533.67 52.5,-512.26"/>
<polygon fill="black" stroke="black" points="56,-512.26 52.5,-502.26 49,-512.26 56,-512.26"/>
<text text-anchor="middle" x="58.84" y="-512.15" font-family="Times-Roman" font-size="14.00">+</text>
</g>
<!-- Bench Engineers -->
<g id="node4" class="node">
<title>Bench Engineers</title>
<text text-anchor="middle" x="147.5" y="-696.3" font-family="Times-Roman" font-size="14.00">Bench Engineers</text>
</g>
<!-- Bench Engineers&#45;&gt;Qualification calls -->
<g id="edge3" class="edge">
<title>Bench Engineers&#45;&gt;Qualification calls</title>
<path fill="none" stroke="black" d="M107.6,-718.03C68.09,-737.53 16.42,-771.76 38.5,-810 63.59,-853.47 113.58,-881.01 155.56,-897.39"/>
<polygon fill="black" stroke="black" points="154.35,-900.67 164.94,-900.92 156.81,-894.12 154.35,-900.67"/>
<text text-anchor="middle" x="149.98" y="-898.36" font-family="Times-Roman" font-size="14.00">+</text>
</g>
<!-- Price -->
<g id="node7" class="node">
<title>Price</title>
<text text-anchor="middle" x="218.5" y="-588.3" font-family="Times-Roman" font-size="14.00">Price</text>
</g>
<!-- Bench Engineers&#45;&gt;Price -->
<g id="edge24" class="edge">
<title>Bench Engineers&#45;&gt;Price</title>
<path fill="none" stroke="black" d="M158.91,-681.97C170.33,-664.92 188.05,-638.46 201.2,-618.82"/>
<polygon fill="black" stroke="black" points="204.23,-620.6 206.89,-610.34 198.41,-616.7 204.23,-620.6"/>
<text text-anchor="middle" x="204.59" y="-621.46" font-family="Times-Roman" font-size="14.00">&#45;</text>
</g>
<!-- Team Quality -->
<g id="node5" class="node">
<title>Team Quality</title>
<text text-anchor="middle" x="454.5" y="-320.3" font-family="Times-Roman" font-size="14.00">Team Quality</text>
</g>
<!-- Team Quality&#45;&gt;Closed Deals -->
<g id="edge4" class="edge">
<title>Team Quality&#45;&gt;Closed Deals</title>
<path fill="none" stroke="black" d="M446.06,-342.05C439.85,-356.16 432.5,-376.9 432.5,-396 432.5,-701 432.5,-701 432.5,-701 432.5,-724.16 414.5,-740.42 393.7,-751.48"/>
<polygon fill="black" stroke="black" points="392.11,-748.36 384.66,-755.9 395.18,-754.65 392.11,-748.36"/>
<text text-anchor="middle" x="394.09" y="-740.53" font-family="Times-Roman" font-size="14.00">+</text>
</g>
<!-- Open Source Contributions -->
<g id="node8" class="node">
<title>Open Source Contributions</title>
<text text-anchor="middle" x="736.5" y="-247.3" font-family="Times-Roman" font-size="14.00">Open Source Contributions</text>
</g>
<!-- Team Quality&#45;&gt;Open Source Contributions -->
<g id="edge6" class="edge">
<title>Team Quality&#45;&gt;Open Source Contributions</title>
<path fill="none" stroke="black" d="M508.21,-309.48C550.89,-298.73 611.17,-283.56 659.07,-271.5"/>
<polygon fill="black" stroke="black" points="659.94,-274.89 668.78,-269.05 658.23,-268.1 659.94,-274.89"/>
<text text-anchor="middle" x="657.15" y="-274.82" font-family="Times-Roman" font-size="14.00">+</text>
</g>
<!-- Failed Project Rate -->
<g id="node14" class="node">
<title>Failed Project Rate</title>
<text text-anchor="middle" x="356.5" y="-247.3" font-family="Times-Roman" font-size="14.00">Failed Project Rate</text>
</g>
<!-- Team Quality&#45;&gt;Failed Project Rate -->
<g id="edge18" class="edge">
<title>Team Quality&#45;&gt;Failed Project Rate</title>
<path fill="none" stroke="black" d="M430.78,-305.81C418.02,-296.57 402.11,-285.04 388.29,-275.03"/>
<polygon fill="black" stroke="black" points="390.16,-272.06 380,-269.03 386.05,-277.73 390.16,-272.06"/>
<text text-anchor="middle" x="394.73" y="-268.17" font-family="Times-Roman" font-size="14.00">&#45;</text>
</g>
<!-- Customer Satisfaction -->
<g id="node19" class="node">
<title>Customer Satisfaction</title>
<text text-anchor="middle" x="531.5" y="-247.3" font-family="Times-Roman" font-size="14.00">Customer Satisfaction</text>
</g>
<!-- Team Quality&#45;&gt;Customer Satisfaction -->
<g id="edge31" class="edge">
<title>Team Quality&#45;&gt;Customer Satisfaction</title>
<path fill="none" stroke="black" d="M473.14,-305.81C482.88,-296.83 494.96,-285.69 505.6,-275.89"/>
<polygon fill="black" stroke="black" points="508.05,-278.38 513.03,-269.03 503.31,-273.23 508.05,-278.38"/>
<text text-anchor="middle" x="507.34" y="-279.2" font-family="Times-Roman" font-size="14.00">+</text>
</g>
<!-- Closed Deals&#45;&gt;Bench Engineers -->
<g id="edge15" class="edge">
<title>Closed Deals&#45;&gt;Bench Engineers</title>
<path fill="none" stroke="black" d="M278.24,-754.93C262.15,-749.49 244.51,-743.26 228.5,-737 216.97,-732.49 204.68,-727.26 193.26,-722.2"/>
<polygon fill="black" stroke="black" points="194.45,-718.9 183.9,-718.02 191.6,-725.29 194.45,-718.9"/>
<text text-anchor="middle" x="198.89" y="-714.08" font-family="Times-Roman" font-size="14.00">&#45;</text>
</g>
<!-- Project Engineers -->
<g id="node11" class="node">
<title>Project Engineers</title>
<text text-anchor="middle" x="516.5" y="-534.3" font-family="Times-Roman" font-size="14.00">Project Engineers</text>
</g>
<!-- Closed Deals&#45;&gt;Project Engineers -->
<g id="edge10" class="edge">
<title>Closed Deals&#45;&gt;Project Engineers</title>
<path fill="none" stroke="black" d="M384.57,-766.38C406.13,-761.64 429.84,-752.94 446.5,-737 494.97,-690.63 509.93,-608.64 514.51,-566.18"/>
<polygon fill="black" stroke="black" points="518.01,-566.33 515.48,-556.04 511.04,-565.66 518.01,-566.33"/>
<text text-anchor="middle" x="520.49" y="-566.48" font-family="Times-Roman" font-size="14.00">+</text>
</g>
<!-- Accomplished Projects -->
<g id="node13" class="node">
<title>Accomplished Projects</title>
<text text-anchor="middle" x="331.5" y="-642.3" font-family="Times-Roman" font-size="14.00">Accomplished Projects</text>
</g>
<!-- Closed Deals&#45;&gt;Accomplished Projects -->
<g id="edge16" class="edge">
<title>Closed Deals&#45;&gt;Accomplished Projects</title>
<path fill="none" stroke="black" d="M331.5,-754.88C331.5,-734.15 331.5,-698.95 331.5,-674.42"/>
<polygon fill="black" stroke="black" points="335,-674.31 331.5,-664.31 328,-674.31 335,-674.31"/>
<text text-anchor="middle" x="337.84" y="-674.21" font-family="Times-Roman" font-size="14.00">+</text>
</g>
<!-- Price&#45;&gt;Closed Deals -->
<g id="edge5" class="edge">
<title>Price&#45;&gt;Closed Deals</title>
<path fill="none" stroke="black" d="M223.02,-610.03C227.36,-624.86 234.68,-646.63 244.5,-664 262.15,-695.22 288.72,-726.68 307.85,-747.52"/>
<polygon fill="black" stroke="black" points="305.41,-750.04 314.78,-754.97 310.53,-745.27 305.41,-750.04"/>
<text text-anchor="middle" x="300.88" y="-745.64" font-family="Times-Roman" font-size="14.00">&#45;</text>
</g>
<!-- Salary -->
<g id="node17" class="node">
<title>Salary</title>
<text text-anchor="middle" x="218.5" y="-480.3" font-family="Times-Roman" font-size="14.00">Salary</text>
</g>
<!-- Price&#45;&gt;Salary -->
<g id="edge25" class="edge">
<title>Price&#45;&gt;Salary</title>
<path fill="none" stroke="black" d="M218.5,-573.97C218.5,-557.38 218.5,-531.88 218.5,-512.43"/>
<polygon fill="black" stroke="black" points="222,-512.34 218.5,-502.34 215,-512.34 222,-512.34"/>
<text text-anchor="middle" x="224.84" y="-512.24" font-family="Times-Roman" font-size="14.00">+</text>
</g>
<!-- Reputation -->
<g id="node9" class="node">
<title>Reputation</title>
<text text-anchor="middle" x="500.5" y="-160.3" font-family="Times-Roman" font-size="14.00">Reputation</text>
</g>
<!-- Open Source Contributions&#45;&gt;Reputation -->
<g id="edge7" class="edge">
<title>Open Source Contributions&#45;&gt;Reputation</title>
<path fill="none" stroke="black" d="M689.03,-232.9C650.65,-219.08 596.54,-199.59 556.13,-185.04"/>
<polygon fill="black" stroke="black" points="557.29,-181.73 546.69,-181.64 554.92,-188.32 557.29,-181.73"/>
<text text-anchor="middle" x="652.5" y="-203.8" font-family="Times-Roman" font-size="14.00">delay</text>
<text text-anchor="middle" x="561.63" y="-176.58" font-family="Times-Roman" font-size="14.00">+</text>
</g>
<!-- Reputation&#45;&gt;Inbound Demand -->
<g id="edge14" class="edge">
<title>Reputation&#45;&gt;Inbound Demand</title>
<path fill="none" stroke="black" d="M546.84,-165.09C652.96,-166.54 904.5,-177.61 904.5,-250 904.5,-920 904.5,-920 904.5,-920 904.5,-952.06 701.71,-974.53 585.64,-984.76"/>
<polygon fill="black" stroke="black" points="585.03,-981.3 575.37,-985.65 585.64,-988.27 585.03,-981.3"/>
<text text-anchor="middle" x="588.37" y="-974.46" font-family="Times-Roman" font-size="14.00">+</text>
</g>
<!-- Reputation&#45;&gt;Closed Deals -->
<g id="edge12" class="edge">
<title>Reputation&#45;&gt;Closed Deals</title>
<path fill="none" stroke="black" d="M546.85,-166.11C645.34,-169.73 866.5,-185.09 866.5,-250 866.5,-701 866.5,-701 866.5,-701 866.5,-748.08 536.78,-765 395.03,-770.09"/>
<polygon fill="black" stroke="black" points="394.62,-766.61 384.75,-770.45 394.87,-773.6 394.62,-766.61"/>
<text text-anchor="middle" x="398.12" y="-759.94" font-family="Times-Roman" font-size="14.00">+</text>
</g>
<!-- Candidate Number -->
<g id="node12" class="node">
<title>Candidate Number</title>
<text text-anchor="middle" x="491.5" y="-87.3" font-family="Times-Roman" font-size="14.00">Candidate Number</text>
</g>
<!-- Reputation&#45;&gt;Candidate Number -->
<g id="edge13" class="edge">
<title>Reputation&#45;&gt;Candidate Number</title>
<path fill="none" stroke="black" d="M498.32,-145.81C497.3,-137.79 496.07,-128.05 494.93,-119.07"/>
<polygon fill="black" stroke="black" points="498.39,-118.51 493.66,-109.03 491.44,-119.39 498.39,-118.51"/>
<text text-anchor="middle" x="501.66" y="-118.02" font-family="Times-Roman" font-size="14.00">+</text>
</g>
<!-- Candidate Quality -->
<g id="node18" class="node">
<title>Candidate Quality</title>
<text text-anchor="middle" x="310.5" y="-87.3" font-family="Times-Roman" font-size="14.00">Candidate Quality</text>
</g>
<!-- Reputation&#45;&gt;Candidate Quality -->
<g id="edge30" class="edge">
<title>Reputation&#45;&gt;Candidate Quality</title>
<path fill="none" stroke="black" d="M454.99,-145.99C428.16,-135.97 394.03,-123.21 365.67,-112.62"/>
<polygon fill="black" stroke="black" points="366.89,-109.34 356.3,-109.11 364.44,-115.89 366.89,-109.34"/>
<text text-anchor="middle" x="371.25" y="-104.23" font-family="Times-Roman" font-size="14.00">+</text>
</g>
<!-- Hiring Number -->
<g id="node15" class="node">
<title>Hiring Number</title>
<text text-anchor="middle" x="152.5" y="-14.3" font-family="Times-Roman" font-size="14.00">Hiring Number</text>
</g>
<!-- Hiring Target&#45;&gt;Hiring Number -->
<g id="edge22" class="edge">
<title>Hiring Target&#45;&gt;Hiring Number</title>
<path fill="none" stroke="black" d="M55.08,-465.79C57.41,-448.65 60.5,-421.57 60.5,-398 60.5,-398 60.5,-398 60.5,-90 60.5,-68.22 76.86,-52.18 95.79,-40.92"/>
<polygon fill="black" stroke="black" points="97.53,-43.95 104.61,-36.07 94.16,-37.81 97.53,-43.95"/>
<text text-anchor="middle" x="95.75" y="-44.47" font-family="Times-Roman" font-size="14.00">+</text>
</g>
<!-- Hiring Quality -->
<g id="node16" class="node">
<title>Hiring Quality</title>
<text text-anchor="middle" x="218.5" y="-393.3" font-family="Times-Roman" font-size="14.00">Hiring Quality</text>
</g>
<!-- Hiring Target&#45;&gt;Hiring Quality -->
<g id="edge23" class="edge">
<title>Hiring Target&#45;&gt;Hiring Quality</title>
<path fill="none" stroke="black" d="M86.09,-465.8C112.05,-452.51 148.15,-434.02 176.1,-419.71"/>
<polygon fill="black" stroke="black" points="177.94,-422.7 185.24,-415.03 174.74,-416.47 177.94,-422.7"/>
<text text-anchor="middle" x="176.03" y="-423.17" font-family="Times-Roman" font-size="14.00">&#45;</text>
</g>
<!-- Project Engineers&#45;&gt;Team Quality -->
<g id="edge11" class="edge">
<title>Project Engineers&#45;&gt;Team Quality</title>
<path fill="none" stroke="black" d="M511.43,-519.65C500.64,-482.76 475.34,-396.27 462.41,-352.06"/>
<polygon fill="black" stroke="black" points="465.72,-350.91 459.56,-342.29 459,-352.87 465.72,-350.91"/>
<text text-anchor="middle" x="509.5" y="-436.8" font-family="Times-Roman" font-size="14.00">delay</text>
<text text-anchor="middle" x="469.46" y="-349.86" font-family="Times-Roman" font-size="14.00">+</text>
</g>
<!-- Candidate Number&#45;&gt;Hiring Number -->
<g id="edge29" class="edge">
<title>Candidate Number&#45;&gt;Hiring Number</title>
<path fill="none" stroke="black" d="M417.11,-74.42C359,-62.25 278.86,-45.46 222.04,-33.56"/>
<polygon fill="black" stroke="black" points="222.57,-30.1 212.06,-31.48 221.13,-36.95 222.57,-30.1"/>
<text text-anchor="middle" x="226.67" y="-24.36" font-family="Times-Roman" font-size="14.00">+</text>
</g>
<!-- Accomplished Projects&#45;&gt;Reputation -->
<g id="edge17" class="edge">
<title>Accomplished Projects&#45;&gt;Reputation</title>
<path fill="none" stroke="black" d="M328.48,-627.8C315.25,-551.82 263.46,-249.21 275.5,-233 295.71,-205.78 384.45,-185.25 444.26,-174.19"/>
<polygon fill="black" stroke="black" points="445.12,-177.6 454.33,-172.37 443.87,-170.71 445.12,-177.6"/>
<text text-anchor="middle" x="442.09" y="-177.33" font-family="Times-Roman" font-size="14.00">+</text>
</g>
<!-- Failed Project Rate&#45;&gt;Reputation -->
<g id="edge19" class="edge">
<title>Failed Project Rate&#45;&gt;Reputation</title>
<path fill="none" stroke="black" d="M385.64,-232.8C407.79,-219.72 438.46,-201.62 462.53,-187.41"/>
<polygon fill="black" stroke="black" points="464.57,-190.27 471.4,-182.18 461.01,-184.24 464.57,-190.27"/>
<text text-anchor="middle" x="462.92" y="-190.85" font-family="Times-Roman" font-size="14.00">&#45;</text>
</g>
<!-- Hiring Number&#45;&gt;Bench Engineers -->
<g id="edge20" class="edge">
<title>Hiring Number&#45;&gt;Bench Engineers</title>
<path fill="none" stroke="black" d="M145.21,-36.16C139.85,-50.34 133.5,-71.12 133.5,-90 133.5,-593 133.5,-593 133.5,-593 133.5,-620 138.02,-650.53 141.92,-671.87"/>
<polygon fill="black" stroke="black" points="138.51,-672.67 143.82,-681.83 145.39,-671.35 138.51,-672.67"/>
<text text-anchor="middle" x="135.05" y="-665.97" font-family="Times-Roman" font-size="14.00">+</text>
</g>
<!-- Hiring Quality&#45;&gt;Team Quality -->
<g id="edge21" class="edge">
<title>Hiring Quality&#45;&gt;Team Quality</title>
<path fill="none" stroke="black" d="M275.03,-378.99C309.93,-368.49 354.78,-355 390.92,-344.13"/>
<polygon fill="black" stroke="black" points="392.3,-347.37 400.86,-341.14 390.28,-340.67 392.3,-347.37"/>
<text text-anchor="middle" x="389.67" y="-347.42" font-family="Times-Roman" font-size="14.00">+</text>
</g>
<!-- Hiring Quality&#45;&gt;Hiring Number -->
<g id="edge27" class="edge">
<title>Hiring Quality&#45;&gt;Hiring Number</title>
<path fill="none" stroke="black" d="M200.76,-378.76C188.92,-365.35 175.5,-345.61 175.5,-325 175.5,-325 175.5,-325 175.5,-90 175.5,-74.72 170.62,-58.45 165.35,-45.34"/>
<polygon fill="black" stroke="black" points="168.5,-43.8 161.33,-36.01 162.07,-46.58 168.5,-43.8"/>
<text text-anchor="middle" x="172.53" y="-42.28" font-family="Times-Roman" font-size="14.00">&#45;</text>
</g>
<!-- Salary&#45;&gt;Hiring Quality -->
<g id="edge26" class="edge">
<title>Salary&#45;&gt;Hiring Quality</title>
<path fill="none" stroke="black" d="M218.5,-465.8C218.5,-454.16 218.5,-438.55 218.5,-425.24"/>
<polygon fill="black" stroke="black" points="222,-425.18 218.5,-415.18 215,-425.18 222,-425.18"/>
</g>
<!-- Candidate Quality&#45;&gt;Hiring Quality -->
<g id="edge28" class="edge">
<title>Candidate Quality&#45;&gt;Hiring Quality</title>
<path fill="none" stroke="black" d="M262.61,-109.07C240.26,-120.4 218.5,-137.88 218.5,-163 218.5,-325 218.5,-325 218.5,-325 218.5,-339.35 218.5,-355.33 218.5,-368.49"/>
<polygon fill="black" stroke="black" points="215,-368.78 218.5,-378.78 222,-368.78 215,-368.78"/>
<text text-anchor="middle" x="212.16" y="-361.49" font-family="Times-Roman" font-size="14.00">+</text>
</g>
<!-- Customer Satisfaction&#45;&gt;Reputation -->
<g id="edge32" class="edge">
<title>Customer Satisfaction&#45;&gt;Reputation</title>
<path fill="none" stroke="black" d="M525.23,-232.8C520.94,-221.05 515.18,-205.24 510.29,-191.84"/>
<polygon fill="black" stroke="black" points="513.48,-190.37 506.76,-182.18 506.9,-192.77 513.48,-190.37"/>
<text text-anchor="middle" x="517.38" y="-189.08" font-family="Times-Roman" font-size="14.00">+</text>
</g>
</g>
</svg>
