<?xml version="1.0" encoding="UTF-8" standalone="no"?>
<!DOCTYPE svg PUBLIC "-//W3C//DTD SVG 1.1//EN"
 "http://www.w3.org/Graphics/SVG/1.1/DTD/svg11.dtd">
<!-- Generated by graphviz version 2.43.0 (0)
 -->
<!-- Title: mygraph Pages: 1 -->
<svg width="767pt" height="750pt"
 viewBox="0.00 0.00 767.00 750.00" xmlns="http://www.w3.org/2000/svg" xmlns:xlink="http://www.w3.org/1999/xlink">
<g id="graph0" class="graph" transform="scale(1 1) rotate(0) translate(4 746)">
<title>mygraph</title>
<polygon fill="white" stroke="transparent" points="-4,4 -4,-746 763,-746 763,4 -4,4"/>
<!-- Inbound Demand -->
<g id="node1" class="node">
<title>Inbound Demand</title>
<text text-anchor="middle" x="467" y="-720.3" font-family="Times-Roman" font-size="14.00">Inbound Demand</text>
</g>
<!-- Qualification calls -->
<g id="node2" class="node">
<title>Qualification calls</title>
<text text-anchor="middle" x="164" y="-647.3" font-family="Times-Roman" font-size="14.00">Qualification calls</text>
</g>
<!-- Inbound Demand&#45;&gt;Qualification calls -->
<g id="edge1" class="edge">
<title>Inbound Demand&#45;&gt;Qualification calls</title>
<path fill="none" stroke="black" d="M398.24,-706.89C352.18,-696.09 291.39,-681.85 243.29,-670.58"/>
<polygon fill="black" stroke="black" points="244.07,-667.17 233.53,-668.29 242.47,-673.98 244.07,-667.17"/>
<text text-anchor="middle" x="248.21" y="-661.52" font-family="Times-Roman" font-size="14.00">+</text>
</g>
<!-- Project offerings -->
<g id="node3" class="node">
<title>Project offerings</title>
<text text-anchor="middle" x="164" y="-574.3" font-family="Times-Roman" font-size="14.00">Project offerings</text>
</g>
<!-- Qualification calls&#45;&gt;Project offerings -->
<g id="edge2" class="edge">
<title>Qualification calls&#45;&gt;Project offerings</title>
<path fill="none" stroke="black" d="M164,-632.81C164,-624.79 164,-615.05 164,-606.07"/>
<polygon fill="black" stroke="black" points="167.5,-606.03 164,-596.03 160.5,-606.03 167.5,-606.03"/>
<text text-anchor="middle" x="170.34" y="-605.92" font-family="Times-Roman" font-size="14.00">+</text>
</g>
<!-- Closed Deals -->
<g id="node6" class="node">
<title>Closed Deals</title>
<text text-anchor="middle" x="123" y="-501.3" font-family="Times-Roman" font-size="14.00">Closed Deals</text>
</g>
<!-- Project offerings&#45;&gt;Closed Deals -->
<g id="edge8" class="edge">
<title>Project offerings&#45;&gt;Closed Deals</title>
<path fill="none" stroke="black" d="M154.08,-559.81C149.24,-551.44 143.33,-541.2 137.96,-531.9"/>
<polygon fill="black" stroke="black" points="140.87,-529.94 132.83,-523.03 134.8,-533.44 140.87,-529.94"/>
<text text-anchor="middle" x="145.12" y="-527.93" font-family="Times-Roman" font-size="14.00">+</text>
</g>
<!-- Bench Engineers -->
<g id="node4" class="node">
<title>Bench Engineers</title>
<text text-anchor="middle" x="92" y="-428.3" font-family="Times-Roman" font-size="14.00">Bench Engineers</text>
</g>
<!-- Bench Engineers&#45;&gt;Qualification calls -->
<g id="edge3" class="edge">
<title>Bench Engineers&#45;&gt;Qualification calls</title>
<path fill="none" stroke="black" d="M73.05,-450.25C41.36,-481.23 -15.74,-547.54 18,-596 33.41,-618.12 58.97,-631.21 84.45,-638.93"/>
<polygon fill="black" stroke="black" points="83.61,-642.33 94.18,-641.64 85.49,-635.59 83.61,-642.33"/>
<text text-anchor="middle" x="79.39" y="-640.41" font-family="Times-Roman" font-size="14.00">+</text>
</g>
<!-- Team Quality -->
<g id="node5" class="node">
<title>Team Quality</title>
<text text-anchor="middle" x="246" y="-320.3" font-family="Times-Roman" font-size="14.00">Team Quality</text>
</g>
<!-- Bench Engineers&#45;&gt;Team Quality -->
<g id="edge10" class="edge">
<title>Bench Engineers&#45;&gt;Team Quality</title>
<path fill="none" stroke="black" d="M116.74,-413.97C142.71,-396.1 183.69,-367.89 212.53,-348.04"/>
<polygon fill="black" stroke="black" points="214.81,-350.72 221.06,-342.16 210.84,-344.95 214.81,-350.72"/>
<text text-anchor="middle" x="213.46" y="-351.39" font-family="Times-Roman" font-size="14.00">+</text>
</g>
<!-- Bench Engineers&#45;&gt;Closed Deals -->
<g id="edge9" class="edge">
<title>Bench Engineers&#45;&gt;Closed Deals</title>
<path fill="none" stroke="black" d="M105.3,-450.03C109.73,-458.2 114.32,-468.19 117.92,-477.34"/>
<polygon fill="black" stroke="black" points="114.66,-478.62 121.37,-486.81 121.24,-476.22 114.66,-478.62"/>
<text text-anchor="middle" x="110.76" y="-472.51" font-family="Times-Roman" font-size="14.00">+</text>
</g>
<!-- Team Quality&#45;&gt;Team Quality -->
<g id="edge26" class="edge">
<title>Team Quality&#45;&gt;Team Quality</title>
<path fill="none" stroke="black" d="M299.63,-330.45C310.08,-329.7 317.5,-327.55 317.5,-324 317.5,-321.78 314.6,-320.11 309.88,-318.98"/>
<polygon fill="black" stroke="black" points="310.02,-315.47 299.63,-317.55 309.05,-322.4 310.02,-315.47"/>
<text text-anchor="middle" x="313.97" y="-309.46" font-family="Times-Roman" font-size="14.00">+</text>
</g>
<!-- Team Quality&#45;&gt;Closed Deals -->
<g id="edge4" class="edge">
<title>Team Quality&#45;&gt;Closed Deals</title>
<path fill="none" stroke="black" d="M192.46,-328.6C137.41,-335.52 54.48,-355.65 16,-414 7.19,-427.36 7.61,-436.37 16,-450 26.12,-466.45 42.97,-478.07 60.33,-486.2"/>
<polygon fill="black" stroke="black" points="59.43,-489.62 70,-490.36 62.2,-483.19 59.43,-489.62"/>
<text text-anchor="middle" x="55" y="-487.1" font-family="Times-Roman" font-size="14.00">+</text>
</g>
<!-- Open Source Contributions -->
<g id="node8" class="node">
<title>Open Source Contributions</title>
<text text-anchor="middle" x="490" y="-247.3" font-family="Times-Roman" font-size="14.00">Open Source Contributions</text>
</g>
<!-- Team Quality&#45;&gt;Open Source Contributions -->
<g id="edge6" class="edge">
<title>Team Quality&#45;&gt;Open Source Contributions</title>
<path fill="none" stroke="black" d="M299.55,-307.42C335.5,-296.96 383.18,-283.08 421.84,-271.83"/>
<polygon fill="black" stroke="black" points="422.83,-275.19 431.46,-269.04 420.88,-268.47 422.83,-275.19"/>
<text text-anchor="middle" x="420.17" y="-275.22" font-family="Times-Roman" font-size="14.00">+</text>
</g>
<!-- Customer Satisfaction -->
<g id="node18" class="node">
<title>Customer Satisfaction</title>
<text text-anchor="middle" x="285" y="-247.3" font-family="Times-Roman" font-size="14.00">Customer Satisfaction</text>
</g>
<!-- Team Quality&#45;&gt;Customer Satisfaction -->
<g id="edge27" class="edge">
<title>Team Quality&#45;&gt;Customer Satisfaction</title>
<path fill="none" stroke="black" d="M255.44,-305.81C260.04,-297.44 265.67,-287.2 270.77,-277.9"/>
<polygon fill="black" stroke="black" points="273.9,-279.48 275.65,-269.03 267.76,-276.11 273.9,-279.48"/>
<text text-anchor="middle" x="274.66" y="-280.3" font-family="Times-Roman" font-size="14.00">+</text>
</g>
<!-- Closed Deals&#45;&gt;Bench Engineers -->
<g id="edge16" class="edge">
<title>Closed Deals&#45;&gt;Bench Engineers</title>
<path fill="none" stroke="black" d="M109.62,-486.81C105.18,-478.62 100.59,-468.62 97.01,-459.48"/>
<polygon fill="black" stroke="black" points="100.28,-458.23 93.57,-450.03 93.7,-460.62 100.28,-458.23"/>
<text text-anchor="middle" x="104.18" y="-456.94" font-family="Times-Roman" font-size="14.00">&#45;</text>
</g>
<!-- Project Engineers -->
<g id="node10" class="node">
<title>Project Engineers</title>
<text text-anchor="middle" x="246" y="-428.3" font-family="Times-Roman" font-size="14.00">Project Engineers</text>
</g>
<!-- Closed Deals&#45;&gt;Project Engineers -->
<g id="edge11" class="edge">
<title>Closed Deals&#45;&gt;Project Engineers</title>
<path fill="none" stroke="black" d="M152.46,-486.99C168.92,-477.49 189.63,-465.54 207.38,-455.29"/>
<polygon fill="black" stroke="black" points="209.44,-458.14 216.35,-450.11 205.94,-452.08 209.44,-458.14"/>
<text text-anchor="middle" x="207.75" y="-458.7" font-family="Times-Roman" font-size="14.00">+</text>
</g>
<!-- Accomplished Projects -->
<g id="node12" class="node">
<title>Accomplished Projects</title>
<text text-anchor="middle" x="658" y="-374.3" font-family="Times-Roman" font-size="14.00">Accomplished Projects</text>
</g>
<!-- Closed Deals&#45;&gt;Accomplished Projects -->
<g id="edge17" class="edge">
<title>Closed Deals&#45;&gt;Accomplished Projects</title>
<path fill="none" stroke="black" d="M176.26,-504.51C279.42,-504.74 502.36,-501.33 571,-469 600.89,-454.92 625.97,-425.82 641.4,-404.5"/>
<polygon fill="black" stroke="black" points="644.35,-406.39 647.22,-396.2 638.62,-402.38 644.35,-406.39"/>
<text text-anchor="middle" x="644.61" y="-407.27" font-family="Times-Roman" font-size="14.00">+</text>
</g>
<!-- Price -->
<g id="node7" class="node">
<title>Price</title>
<text text-anchor="middle" x="54" y="-574.3" font-family="Times-Roman" font-size="14.00">Price</text>
</g>
<!-- Price&#45;&gt;Closed Deals -->
<g id="edge5" class="edge">
<title>Price&#45;&gt;Closed Deals</title>
<path fill="none" stroke="black" d="M70.7,-559.81C79.26,-551 89.84,-540.13 99.23,-530.46"/>
<polygon fill="black" stroke="black" points="101.99,-532.64 106.45,-523.03 96.97,-527.76 101.99,-532.64"/>
<text text-anchor="middle" x="101.52" y="-533.5" font-family="Times-Roman" font-size="14.00">&#45;</text>
</g>
<!-- Reputation -->
<g id="node9" class="node">
<title>Reputation</title>
<text text-anchor="middle" x="455" y="-160.3" font-family="Times-Roman" font-size="14.00">Reputation</text>
</g>
<!-- Open Source Contributions&#45;&gt;Reputation -->
<g id="edge7" class="edge">
<title>Open Source Contributions&#45;&gt;Reputation</title>
<path fill="none" stroke="black" d="M482.92,-232.8C478.03,-220.93 471.44,-204.93 465.89,-191.45"/>
<polygon fill="black" stroke="black" points="469.12,-190.09 462.07,-182.18 462.64,-192.75 469.12,-190.09"/>
<text text-anchor="middle" x="493" y="-203.8" font-family="Times-Roman" font-size="14.00">delay</text>
<text text-anchor="middle" x="473.11" y="-188.63" font-family="Times-Roman" font-size="14.00">+</text>
</g>
<!-- Reputation&#45;&gt;Inbound Demand -->
<g id="edge15" class="edge">
<title>Reputation&#45;&gt;Inbound Demand</title>
<path fill="none" stroke="black" d="M501.17,-168.3C586.21,-175.66 759,-197.12 759,-250 759,-652 759,-652 759,-652 759,-695.97 632.38,-712.82 545.9,-719.2"/>
<polygon fill="black" stroke="black" points="545.56,-715.72 535.83,-719.91 546.05,-722.7 545.56,-715.72"/>
<text text-anchor="middle" x="548.95" y="-708.93" font-family="Times-Roman" font-size="14.00">+</text>
</g>
<!-- Reputation&#45;&gt;Closed Deals -->
<g id="edge13" class="edge">
<title>Reputation&#45;&gt;Closed Deals</title>
<path fill="none" stroke="black" d="M501.25,-172.98C535.26,-181.54 579.21,-198.81 601,-233 632.24,-282.01 505.25,-420.79 455,-450 410.48,-475.89 269.69,-491.74 186.43,-499.09"/>
<polygon fill="black" stroke="black" points="185.98,-495.62 176.32,-499.97 186.59,-502.59 185.98,-495.62"/>
<text text-anchor="middle" x="189.32" y="-488.78" font-family="Times-Roman" font-size="14.00">+</text>
</g>
<!-- Candidate Number -->
<g id="node11" class="node">
<title>Candidate Number</title>
<text text-anchor="middle" x="433" y="-87.3" font-family="Times-Roman" font-size="14.00">Candidate Number</text>
</g>
<!-- Reputation&#45;&gt;Candidate Number -->
<g id="edge14" class="edge">
<title>Reputation&#45;&gt;Candidate Number</title>
<path fill="none" stroke="black" d="M449.67,-145.81C447.16,-137.7 444.1,-127.84 441.3,-118.78"/>
<polygon fill="black" stroke="black" points="444.58,-117.54 438.28,-109.03 437.89,-119.62 444.58,-117.54"/>
<text text-anchor="middle" x="448.36" y="-116.44" font-family="Times-Roman" font-size="14.00">+</text>
</g>
<!-- Candidate Quality -->
<g id="node17" class="node">
<title>Candidate Quality</title>
<text text-anchor="middle" x="213" y="-87.3" font-family="Times-Roman" font-size="14.00">Candidate Quality</text>
</g>
<!-- Reputation&#45;&gt;Candidate Quality -->
<g id="edge25" class="edge">
<title>Reputation&#45;&gt;Candidate Quality</title>
<path fill="none" stroke="black" d="M408.91,-149.48C372.73,-138.86 321.81,-123.92 280.95,-111.94"/>
<polygon fill="black" stroke="black" points="281.92,-108.57 271.33,-109.11 279.94,-115.29 281.92,-108.57"/>
<text text-anchor="middle" x="286.16" y="-103.16" font-family="Times-Roman" font-size="14.00">+</text>
</g>
<!-- Project Engineers&#45;&gt;Team Quality -->
<g id="edge12" class="edge">
<title>Project Engineers&#45;&gt;Team Quality</title>
<path fill="none" stroke="black" d="M246,-413.97C246,-397.38 246,-371.88 246,-352.43"/>
<polygon fill="black" stroke="black" points="249.5,-352.34 246,-342.34 242.5,-352.34 249.5,-352.34"/>
<text text-anchor="middle" x="265" y="-374.3" font-family="Times-Roman" font-size="14.00">delay</text>
<text text-anchor="middle" x="252.34" y="-352.24" font-family="Times-Roman" font-size="14.00">+</text>
</g>
<!-- Hiring Number -->
<g id="node14" class="node">
<title>Hiring Number</title>
<text text-anchor="middle" x="433" y="-14.3" font-family="Times-Roman" font-size="14.00">Hiring Number</text>
</g>
<!-- Candidate Number&#45;&gt;Hiring Number -->
<g id="edge24" class="edge">
<title>Candidate Number&#45;&gt;Hiring Number</title>
<path fill="none" stroke="black" d="M433,-72.81C433,-64.79 433,-55.05 433,-46.07"/>
<polygon fill="black" stroke="black" points="436.5,-46.03 433,-36.03 429.5,-46.03 436.5,-46.03"/>
<text text-anchor="middle" x="439.34" y="-45.92" font-family="Times-Roman" font-size="14.00">+</text>
</g>
<!-- Accomplished Projects&#45;&gt;Reputation -->
<g id="edge18" class="edge">
<title>Accomplished Projects&#45;&gt;Reputation</title>
<path fill="none" stroke="black" d="M661.49,-359.94C667.58,-324.89 675.81,-244.33 634,-200 617.49,-182.49 557.48,-173.44 511.44,-168.97"/>
<polygon fill="black" stroke="black" points="511.54,-165.46 501.26,-168.03 510.9,-172.43 511.54,-165.46"/>
<text text-anchor="middle" x="515.38" y="-159.26" font-family="Times-Roman" font-size="14.00">+</text>
</g>
<!-- Failed Projects -->
<g id="node13" class="node">
<title>Failed Projects</title>
<text text-anchor="middle" x="124" y="-247.3" font-family="Times-Roman" font-size="14.00">Failed Projects</text>
</g>
<!-- Failed Projects&#45;&gt;Reputation -->
<g id="edge19" class="edge">
<title>Failed Projects&#45;&gt;Reputation</title>
<path fill="none" stroke="black" d="M181.66,-235.19C242.8,-219.49 338.73,-194.86 399.17,-179.34"/>
<polygon fill="black" stroke="black" points="400.11,-182.71 408.93,-176.83 398.37,-175.93 400.11,-182.71"/>
<text text-anchor="middle" x="397.34" y="-182.65" font-family="Times-Roman" font-size="14.00">&#45;</text>
</g>
<!-- Hiring Number&#45;&gt;Bench Engineers -->
<g id="edge20" class="edge">
<title>Hiring Number&#45;&gt;Bench Engineers</title>
<path fill="none" stroke="black" d="M373.25,-22.69C254.46,-30.83 0,-52.63 0,-90 0,-208.5 0,-208.5 0,-208.5 0,-284.86 46.85,-365.54 73.68,-405.49"/>
<polygon fill="black" stroke="black" points="70.86,-407.57 79.4,-413.84 76.64,-403.61 70.86,-407.57"/>
<text text-anchor="middle" x="66.49" y="-402.51" font-family="Times-Roman" font-size="14.00">+</text>
</g>
<!-- Hiring Quality -->
<g id="node15" class="node">
<title>Hiring Quality</title>
<text text-anchor="middle" x="389" y="-428.3" font-family="Times-Roman" font-size="14.00">Hiring Quality</text>
</g>
<!-- Hiring Quality&#45;&gt;Team Quality -->
<g id="edge21" class="edge">
<title>Hiring Quality&#45;&gt;Team Quality</title>
<path fill="none" stroke="black" d="M366.02,-413.97C342.09,-396.23 304.41,-368.3 277.66,-348.47"/>
<polygon fill="black" stroke="black" points="279.51,-345.48 269.39,-342.34 275.34,-351.11 279.51,-345.48"/>
<text text-anchor="middle" x="284.09" y="-341.64" font-family="Times-Roman" font-size="14.00">&#45;</text>
</g>
<!-- Hiring Target -->
<g id="node16" class="node">
<title>Hiring Target</title>
<text text-anchor="middle" x="578" y="-87.3" font-family="Times-Roman" font-size="14.00">Hiring Target</text>
</g>
<!-- Hiring Target&#45;&gt;Hiring Number -->
<g id="edge22" class="edge">
<title>Hiring Target&#45;&gt;Hiring Number</title>
<path fill="none" stroke="black" d="M543.27,-72.99C523.42,-63.27 498.32,-50.99 477.09,-40.59"/>
<polygon fill="black" stroke="black" points="478.47,-37.37 467.95,-36.11 475.39,-43.65 478.47,-37.37"/>
<text text-anchor="middle" x="482.95" y="-32.7" font-family="Times-Roman" font-size="14.00">+</text>
</g>
<!-- Candidate Quality&#45;&gt;Team Quality -->
<g id="edge23" class="edge">
<title>Candidate Quality&#45;&gt;Team Quality</title>
<path fill="none" stroke="black" d="M177.63,-109.11C118.74,-139.89 11.43,-207.17 58,-269 73.16,-289.13 133.95,-304.07 182.36,-313.07"/>
<polygon fill="black" stroke="black" points="182.01,-316.57 192.48,-314.9 183.26,-309.68 182.01,-316.57"/>
<text text-anchor="middle" x="177.97" y="-315.02" font-family="Times-Roman" font-size="14.00">+</text>
</g>
<!-- Customer Satisfaction&#45;&gt;Reputation -->
<g id="edge28" class="edge">
<title>Customer Satisfaction&#45;&gt;Reputation</title>
<path fill="none" stroke="black" d="M319.4,-232.8C346.1,-219.45 383.28,-200.86 411.95,-186.52"/>
<polygon fill="black" stroke="black" points="413.56,-189.63 420.94,-182.03 410.43,-183.37 413.56,-189.63"/>
<text text-anchor="middle" x="411.62" y="-190.08" font-family="Times-Roman" font-size="14.00">+</text>
</g>
</g>
</svg>
