<?xml version="1.0" encoding="UTF-8" standalone="no"?>
<!DOCTYPE svg PUBLIC "-//W3C//DTD SVG 1.1//EN"
 "http://www.w3.org/Graphics/SVG/1.1/DTD/svg11.dtd">
<!-- Generated by graphviz version 2.43.0 (0)
 -->
<!-- Title: mygraph Pages: 1 -->
<svg width="550pt" height="823pt"
 viewBox="0.00 0.00 550.00 823.00" xmlns="http://www.w3.org/2000/svg" xmlns:xlink="http://www.w3.org/1999/xlink">
<g id="graph0" class="graph" transform="scale(1 1) rotate(0) translate(4 819)">
<title>mygraph</title>
<polygon fill="white" stroke="transparent" points="-4,4 -4,-819 546,-819 546,4 -4,4"/>
<!-- Inbound Demand -->
<g id="node1" class="node">
<title>Inbound Demand</title>
<text text-anchor="middle" x="473.5" y="-793.3" font-family="Times-Roman" font-size="14.00">Inbound Demand</text>
</g>
<!-- Qualification calls -->
<g id="node2" class="node">
<title>Qualification calls</title>
<text text-anchor="middle" x="424.5" y="-720.3" font-family="Times-Roman" font-size="14.00">Qualification calls</text>
</g>
<!-- Inbound Demand&#45;&gt;Qualification calls -->
<g id="edge1" class="edge">
<title>Inbound Demand&#45;&gt;Qualification calls</title>
<path fill="none" stroke="black" d="M461.64,-778.81C455.74,-770.27 448.5,-759.77 441.98,-750.32"/>
<polygon fill="black" stroke="black" points="444.81,-748.27 436.25,-742.03 439.05,-752.25 444.81,-748.27"/>
<text text-anchor="middle" x="449.19" y="-745.92" font-family="Times-Roman" font-size="14.00">+</text>
</g>
<!-- Project offerings -->
<g id="node3" class="node">
<title>Project offerings</title>
<text text-anchor="middle" x="334.5" y="-647.3" font-family="Times-Roman" font-size="14.00">Project offerings</text>
</g>
<!-- Qualification calls&#45;&gt;Project offerings -->
<g id="edge2" class="edge">
<title>Qualification calls&#45;&gt;Project offerings</title>
<path fill="none" stroke="black" d="M402.71,-705.81C391.11,-696.66 376.66,-685.26 364.06,-675.32"/>
<polygon fill="black" stroke="black" points="366.1,-672.47 356.09,-669.03 361.77,-677.97 366.1,-672.47"/>
<text text-anchor="middle" x="370.69" y="-668.77" font-family="Times-Roman" font-size="14.00">+</text>
</g>
<!-- Closed Deals -->
<g id="node6" class="node">
<title>Closed Deals</title>
<text text-anchor="middle" x="332.5" y="-574.3" font-family="Times-Roman" font-size="14.00">Closed Deals</text>
</g>
<!-- Project offerings&#45;&gt;Closed Deals -->
<g id="edge8" class="edge">
<title>Project offerings&#45;&gt;Closed Deals</title>
<path fill="none" stroke="black" d="M334.02,-632.81C333.79,-624.79 333.52,-615.05 333.26,-606.07"/>
<polygon fill="black" stroke="black" points="336.76,-605.93 332.98,-596.03 329.76,-606.12 336.76,-605.93"/>
<text text-anchor="middle" x="339.7" y="-605.74" font-family="Times-Roman" font-size="14.00">+</text>
</g>
<!-- Bench Engineers -->
<g id="node4" class="node">
<title>Bench Engineers</title>
<text text-anchor="middle" x="427.5" y="-501.3" font-family="Times-Roman" font-size="14.00">Bench Engineers</text>
</g>
<!-- Bench Engineers&#45;&gt;Qualification calls -->
<g id="edge3" class="edge">
<title>Bench Engineers&#45;&gt;Qualification calls</title>
<path fill="none" stroke="black" d="M427.26,-523.25C426.74,-560.84 425.5,-650.39 424.88,-695.72"/>
<polygon fill="black" stroke="black" points="421.37,-695.92 424.74,-705.97 428.37,-696.02 421.37,-695.92"/>
<text text-anchor="middle" x="418.58" y="-688.59" font-family="Times-Roman" font-size="14.00">+</text>
</g>
<!-- Bench Quality -->
<g id="node5" class="node">
<title>Bench Quality</title>
<text text-anchor="middle" x="235.5" y="-414.3" font-family="Times-Roman" font-size="14.00">Bench Quality</text>
</g>
<!-- Bench Engineers&#45;&gt;Bench Quality -->
<g id="edge10" class="edge">
<title>Bench Engineers&#45;&gt;Bench Quality</title>
<path fill="none" stroke="black" d="M403.21,-486.8C387.57,-476.29 366.49,-463.15 346.5,-454 332.56,-447.62 317.13,-441.95 302.32,-437.12"/>
<polygon fill="black" stroke="black" points="303.29,-433.76 292.7,-434.07 301.18,-440.43 303.29,-433.76"/>
<text text-anchor="middle" x="307.57" y="-428.44" font-family="Times-Roman" font-size="14.00">+</text>
</g>
<!-- Bench Engineers&#45;&gt;Closed Deals -->
<g id="edge9" class="edge">
<title>Bench Engineers&#45;&gt;Closed Deals</title>
<path fill="none" stroke="black" d="M410.47,-523.11C399.06,-532.37 383.75,-543.94 369.67,-553.97"/>
<polygon fill="black" stroke="black" points="367.28,-551.38 361.11,-559.99 371.31,-557.1 367.28,-551.38"/>
<text text-anchor="middle" x="368.59" y="-543.29" font-family="Times-Roman" font-size="14.00">+</text>
</g>
<!-- Bench Quality&#45;&gt;Closed Deals -->
<g id="edge4" class="edge">
<title>Bench Quality&#45;&gt;Closed Deals</title>
<path fill="none" stroke="black" d="M262.87,-436.18C279.84,-448.3 300.6,-466.07 312.5,-487 323.41,-506.19 328.37,-530.83 330.62,-549.47"/>
<polygon fill="black" stroke="black" points="327.17,-550.08 331.66,-559.67 334.13,-549.37 327.17,-550.08"/>
<text text-anchor="middle" x="323.98" y="-543.09" font-family="Times-Roman" font-size="14.00">+</text>
</g>
<!-- Open Source Contributions -->
<g id="node8" class="node">
<title>Open Source Contributions</title>
<text text-anchor="middle" x="324.5" y="-287.3" font-family="Times-Roman" font-size="14.00">Open Source Contributions</text>
</g>
<!-- Bench Quality&#45;&gt;Open Source Contributions -->
<g id="edge6" class="edge">
<title>Bench Quality&#45;&gt;Open Source Contributions</title>
<path fill="none" stroke="black" d="M249.46,-399.75C257.8,-389.27 268.49,-375.54 277.5,-363 288.11,-348.23 299.38,-331.25 308.22,-317.61"/>
<polygon fill="black" stroke="black" points="311.18,-319.48 313.65,-309.17 305.3,-315.69 311.18,-319.48"/>
<text text-anchor="middle" x="311.62" y="-320.34" font-family="Times-Roman" font-size="14.00">+</text>
</g>
<!-- Team Quality -->
<g id="node16" class="node">
<title>Team Quality</title>
<text text-anchor="middle" x="215.5" y="-341.3" font-family="Times-Roman" font-size="14.00">Team Quality</text>
</g>
<!-- Bench Quality&#45;&gt;Team Quality -->
<g id="edge23" class="edge">
<title>Bench Quality&#45;&gt;Team Quality</title>
<path fill="none" stroke="black" d="M230.66,-399.81C228.37,-391.7 225.59,-381.84 223.04,-372.78"/>
<polygon fill="black" stroke="black" points="226.38,-371.71 220.3,-363.03 219.64,-373.6 226.38,-371.71"/>
<text text-anchor="middle" x="230.08" y="-370.7" font-family="Times-Roman" font-size="14.00">+</text>
</g>
<!-- Closed Deals&#45;&gt;Bench Engineers -->
<g id="edge16" class="edge">
<title>Closed Deals&#45;&gt;Bench Engineers</title>
<path fill="none" stroke="black" d="M349.62,-559.81C361.02,-550.57 376.28,-539.04 390.32,-529.03"/>
<polygon fill="black" stroke="black" points="392.69,-531.64 398.85,-523.03 388.66,-525.92 392.69,-531.64"/>
<text text-anchor="middle" x="391.38" y="-532.33" font-family="Times-Roman" font-size="14.00">&#45;</text>
</g>
<!-- Project Engineers -->
<g id="node10" class="node">
<title>Project Engineers</title>
<text text-anchor="middle" x="235.5" y="-501.3" font-family="Times-Roman" font-size="14.00">Project Engineers</text>
</g>
<!-- Closed Deals&#45;&gt;Project Engineers -->
<g id="edge11" class="edge">
<title>Closed Deals&#45;&gt;Project Engineers</title>
<path fill="none" stroke="black" d="M309.02,-559.81C296.39,-550.57 280.64,-539.04 266.97,-529.03"/>
<polygon fill="black" stroke="black" points="268.9,-526.11 258.76,-523.03 264.77,-531.76 268.9,-526.11"/>
<text text-anchor="middle" x="273.48" y="-522.24" font-family="Times-Roman" font-size="14.00">+</text>
</g>
<!-- Price -->
<g id="node7" class="node">
<title>Price</title>
<text text-anchor="middle" x="224.5" y="-647.3" font-family="Times-Roman" font-size="14.00">Price</text>
</g>
<!-- Price&#45;&gt;Closed Deals -->
<g id="edge5" class="edge">
<title>Price&#45;&gt;Closed Deals</title>
<path fill="none" stroke="black" d="M250.37,-632.99C264.56,-623.67 282.34,-611.97 297.73,-601.86"/>
<polygon fill="black" stroke="black" points="300.03,-604.53 306.47,-596.11 296.19,-598.68 300.03,-604.53"/>
<text text-anchor="middle" x="298.59" y="-605.18" font-family="Times-Roman" font-size="14.00">&#45;</text>
</g>
<!-- Reputation -->
<g id="node9" class="node">
<title>Reputation</title>
<text text-anchor="middle" x="226.5" y="-160.3" font-family="Times-Roman" font-size="14.00">Reputation</text>
</g>
<!-- Open Source Contributions&#45;&gt;Reputation -->
<g id="edge7" class="edge">
<title>Open Source Contributions&#45;&gt;Reputation</title>
<path fill="none" stroke="black" d="M321.45,-272.88C318.08,-257.59 311.46,-235.19 299.5,-219 290.61,-206.96 278.27,-196.42 266.26,-187.93"/>
<polygon fill="black" stroke="black" points="267.88,-184.8 257.63,-182.11 263.97,-190.61 267.88,-184.8"/>
<text text-anchor="middle" x="335.5" y="-233.3" font-family="Times-Roman" font-size="14.00">delay</text>
<text text-anchor="middle" x="272.45" y="-180.76" font-family="Times-Roman" font-size="14.00">+</text>
</g>
<!-- Reputation&#45;&gt;Inbound Demand -->
<g id="edge15" class="edge">
<title>Reputation&#45;&gt;Inbound Demand</title>
<path fill="none" stroke="black" d="M272.75,-166.58C356,-170.7 522.5,-185.27 522.5,-236 522.5,-725 522.5,-725 522.5,-725 522.5,-742.61 512.16,-759.02 500.98,-771.62"/>
<polygon fill="black" stroke="black" points="498.36,-769.3 494,-778.95 503.43,-774.13 498.36,-769.3"/>
<text text-anchor="middle" x="498.79" y="-761.04" font-family="Times-Roman" font-size="14.00">+</text>
</g>
<!-- Reputation&#45;&gt;Closed Deals -->
<g id="edge13" class="edge">
<title>Reputation&#45;&gt;Closed Deals</title>
<path fill="none" stroke="black" d="M180.32,-170.51C116.07,-179.48 7.5,-199.98 7.5,-236 7.5,-506 7.5,-506 7.5,-506 7.5,-559.01 174.6,-572.5 269.16,-575.9"/>
<polygon fill="black" stroke="black" points="269.09,-579.39 279.2,-576.23 269.32,-572.4 269.09,-579.39"/>
<text text-anchor="middle" x="265.4" y="-578.41" font-family="Times-Roman" font-size="14.00">+</text>
</g>
<!-- Candidate Number -->
<g id="node11" class="node">
<title>Candidate Number</title>
<text text-anchor="middle" x="233.5" y="-87.3" font-family="Times-Roman" font-size="14.00">Candidate Number</text>
</g>
<!-- Reputation&#45;&gt;Candidate Number -->
<g id="edge14" class="edge">
<title>Reputation&#45;&gt;Candidate Number</title>
<path fill="none" stroke="black" d="M228.19,-145.81C228.99,-137.79 229.95,-128.05 230.83,-119.07"/>
<polygon fill="black" stroke="black" points="234.32,-119.32 231.82,-109.03 227.36,-118.64 234.32,-119.32"/>
<text text-anchor="middle" x="236.8" y="-119.48" font-family="Times-Roman" font-size="14.00">+</text>
</g>
<!-- Candidate Quality -->
<g id="node15" class="node">
<title>Candidate Quality</title>
<text text-anchor="middle" x="70.5" y="-87.3" font-family="Times-Roman" font-size="14.00">Candidate Quality</text>
</g>
<!-- Reputation&#45;&gt;Candidate Quality -->
<g id="edge22" class="edge">
<title>Reputation&#45;&gt;Candidate Quality</title>
<path fill="none" stroke="black" d="M189.13,-145.99C167.59,-136.19 140.3,-123.77 117.32,-113.31"/>
<polygon fill="black" stroke="black" points="118.65,-110.07 108.1,-109.11 115.75,-116.44 118.65,-110.07"/>
<text text-anchor="middle" x="123.1" y="-105.28" font-family="Times-Roman" font-size="14.00">+</text>
</g>
<!-- Project Engineers&#45;&gt;Bench Quality -->
<g id="edge12" class="edge">
<title>Project Engineers&#45;&gt;Bench Quality</title>
<path fill="none" stroke="black" d="M235.5,-486.8C235.5,-475.16 235.5,-459.55 235.5,-446.24"/>
<polygon fill="black" stroke="black" points="239,-446.18 235.5,-436.18 232,-446.18 239,-446.18"/>
<text text-anchor="middle" x="254.5" y="-457.8" font-family="Times-Roman" font-size="14.00">delay</text>
<text text-anchor="middle" x="241.84" y="-446.07" font-family="Times-Roman" font-size="14.00">+</text>
</g>
<!-- Hiring Number -->
<g id="node12" class="node">
<title>Hiring Number</title>
<text text-anchor="middle" x="378.5" y="-14.3" font-family="Times-Roman" font-size="14.00">Hiring Number</text>
</g>
<!-- Candidate Number&#45;&gt;Hiring Number -->
<g id="edge21" class="edge">
<title>Candidate Number&#45;&gt;Hiring Number</title>
<path fill="none" stroke="black" d="M268.23,-72.99C288.08,-63.27 313.18,-50.99 334.41,-40.59"/>
<polygon fill="black" stroke="black" points="336.11,-43.65 343.55,-36.11 333.03,-37.37 336.11,-43.65"/>
<text text-anchor="middle" x="334.13" y="-44.09" font-family="Times-Roman" font-size="14.00">+</text>
</g>
<!-- Hiring Number&#45;&gt;Bench Engineers -->
<g id="edge17" class="edge">
<title>Hiring Number&#45;&gt;Bench Engineers</title>
<path fill="none" stroke="black" d="M418.05,-36C438.61,-47.76 459.5,-65.69 459.5,-90 459.5,-419 459.5,-419 459.5,-419 459.5,-439.69 451.09,-461.51 442.89,-477.86"/>
<polygon fill="black" stroke="black" points="439.74,-476.33 438.16,-486.8 445.93,-479.6 439.74,-476.33"/>
<text text-anchor="middle" x="438.92" y="-468.12" font-family="Times-Roman" font-size="14.00">+</text>
</g>
<!-- Hiring Quality -->
<g id="node13" class="node">
<title>Hiring Quality</title>
<text text-anchor="middle" x="92.5" y="-501.3" font-family="Times-Roman" font-size="14.00">Hiring Quality</text>
</g>
<!-- Hiring Quality&#45;&gt;Bench Quality -->
<g id="edge18" class="edge">
<title>Hiring Quality&#45;&gt;Bench Quality</title>
<path fill="none" stroke="black" d="M121.44,-486.8C143.44,-473.72 173.89,-455.62 197.79,-441.41"/>
<polygon fill="black" stroke="black" points="199.8,-444.29 206.6,-436.18 196.22,-438.28 199.8,-444.29"/>
<text text-anchor="middle" x="198.16" y="-444.87" font-family="Times-Roman" font-size="14.00">&#45;</text>
</g>
<!-- Hiring Target -->
<g id="node14" class="node">
<title>Hiring Target</title>
<text text-anchor="middle" x="378.5" y="-87.3" font-family="Times-Roman" font-size="14.00">Hiring Target</text>
</g>
<!-- Hiring Target&#45;&gt;Hiring Number -->
<g id="edge19" class="edge">
<title>Hiring Target&#45;&gt;Hiring Number</title>
<path fill="none" stroke="black" d="M378.5,-72.81C378.5,-64.79 378.5,-55.05 378.5,-46.07"/>
<polygon fill="black" stroke="black" points="382,-46.03 378.5,-36.03 375,-46.03 382,-46.03"/>
<text text-anchor="middle" x="384.84" y="-45.92" font-family="Times-Roman" font-size="14.00">+</text>
</g>
<!-- Candidate Quality&#45;&gt;Bench Quality -->
<g id="edge20" class="edge">
<title>Candidate Quality&#45;&gt;Bench Quality</title>
<path fill="none" stroke="black" d="M73.9,-109.14C76.45,-123.47 79.5,-144.49 79.5,-163 79.5,-346 79.5,-346 79.5,-346 79.5,-387.6 126.02,-404.94 168.25,-412.11"/>
<polygon fill="black" stroke="black" points="167.88,-415.59 178.3,-413.64 168.94,-408.67 167.88,-415.59"/>
<text text-anchor="middle" x="163.9" y="-414.15" font-family="Times-Roman" font-size="14.00">+</text>
</g>
<!-- Customer Satisfaction -->
<g id="node17" class="node">
<title>Customer Satisfaction</title>
<text text-anchor="middle" x="205.5" y="-233.3" font-family="Times-Roman" font-size="14.00">Customer Satisfaction</text>
</g>
<!-- Team Quality&#45;&gt;Customer Satisfaction -->
<g id="edge24" class="edge">
<title>Team Quality&#45;&gt;Customer Satisfaction</title>
<path fill="none" stroke="black" d="M213.89,-326.97C212.33,-310.38 209.92,-284.88 208.09,-265.43"/>
<polygon fill="black" stroke="black" points="211.56,-264.97 207.14,-255.34 204.59,-265.63 211.56,-264.97"/>
<text text-anchor="middle" x="214.72" y="-264.58" font-family="Times-Roman" font-size="14.00">+</text>
</g>
<!-- Customer Satisfaction&#45;&gt;Reputation -->
<g id="edge25" class="edge">
<title>Customer Satisfaction&#45;&gt;Reputation</title>
<path fill="none" stroke="black" d="M210.58,-218.81C212.98,-210.7 215.9,-200.84 218.58,-191.78"/>
<polygon fill="black" stroke="black" points="221.98,-192.61 221.46,-182.03 215.27,-190.63 221.98,-192.61"/>
<text text-anchor="middle" x="223.69" y="-193.16" font-family="Times-Roman" font-size="14.00">+</text>
</g>
</g>
</svg>
