<?xml version="1.0" encoding="UTF-8" standalone="no"?>
<!DOCTYPE svg PUBLIC "-//W3C//DTD SVG 1.1//EN"
 "http://www.w3.org/Graphics/SVG/1.1/DTD/svg11.dtd">
<!-- Generated by graphviz version 2.43.0 (0)
 -->
<!-- Title: mygraph Pages: 1 -->
<svg width="436pt" height="332pt"
 viewBox="0.00 0.00 435.91 332.00" xmlns="http://www.w3.org/2000/svg" xmlns:xlink="http://www.w3.org/1999/xlink">
<g id="graph0" class="graph" transform="scale(1 1) rotate(0) translate(4 328)">
<title>mygraph</title>
<polygon fill="white" stroke="transparent" points="-4,4 -4,-328 431.91,-328 431.91,4 -4,4"/>
<!-- Inbound Demand -->
<g id="node1" class="node">
<title>Inbound Demand</title>
<ellipse fill="none" stroke="black" cx="90.34" cy="-306" rx="89.08" ry="18"/>
<text text-anchor="middle" x="90.34" y="-302.3" font-family="Times-Roman" font-size="14.00">Inbound Demand</text>
</g>
<!-- Qualification calls -->
<g id="node2" class="node">
<title>Qualification calls</title>
<ellipse fill="none" stroke="black" cx="90.34" cy="-234" rx="90.18" ry="18"/>
<text text-anchor="middle" x="90.34" y="-230.3" font-family="Times-Roman" font-size="14.00">Qualification calls</text>
</g>
<!-- Inbound Demand&#45;&gt;Qualification calls -->
<g id="edge1" class="edge">
<title>Inbound Demand&#45;&gt;Qualification calls</title>
<path fill="none" stroke="black" d="M90.34,-287.7C90.34,-279.98 90.34,-270.71 90.34,-262.11"/>
<polygon fill="black" stroke="black" points="93.84,-262.1 90.34,-252.1 86.84,-262.1 93.84,-262.1"/>
<text text-anchor="middle" x="83.84" y="-255.9" font-family="Times-Roman" font-size="14.00">+</text>
</g>
<!-- Project offerings -->
<g id="node3" class="node">
<title>Project offerings</title>
<ellipse fill="none" stroke="black" cx="146.34" cy="-162" rx="83.69" ry="18"/>
<text text-anchor="middle" x="146.34" y="-158.3" font-family="Times-Roman" font-size="14.00">Project offerings</text>
</g>
<!-- Qualification calls&#45;&gt;Project offerings -->
<g id="edge2" class="edge">
<title>Qualification calls&#45;&gt;Project offerings</title>
<path fill="none" stroke="black" d="M103.9,-216.05C110.71,-207.54 119.09,-197.07 126.6,-187.68"/>
<polygon fill="black" stroke="black" points="129.4,-189.78 132.91,-179.79 123.93,-185.41 129.4,-189.78"/>
<text text-anchor="middle" x="126.41" y="-183.59" font-family="Times-Roman" font-size="14.00">+</text>
</g>
<!-- Closed deals -->
<g id="node6" class="node">
<title>Closed deals</title>
<ellipse fill="none" stroke="black" cx="258.34" cy="-90" rx="67.69" ry="18"/>
<text text-anchor="middle" x="258.34" y="-86.3" font-family="Times-Roman" font-size="14.00">Closed deals</text>
</g>
<!-- Project offerings&#45;&gt;Closed deals -->
<g id="edge6" class="edge">
<title>Project offerings&#45;&gt;Closed deals</title>
<path fill="none" stroke="black" d="M172.32,-144.76C187.69,-135.15 207.36,-122.87 224,-112.46"/>
<polygon fill="black" stroke="black" points="226.27,-115.17 232.89,-106.91 222.56,-109.24 226.27,-115.17"/>
<text text-anchor="middle" x="226.39" y="-110.71" font-family="Times-Roman" font-size="14.00">+</text>
</g>
<!-- Bench Engineers -->
<g id="node4" class="node">
<title>Bench Engineers</title>
<ellipse fill="none" stroke="black" cx="258.34" cy="-18" rx="87.18" ry="18"/>
<text text-anchor="middle" x="258.34" y="-14.3" font-family="Times-Roman" font-size="14.00">Bench Engineers</text>
</g>
<!-- Bench Engineers&#45;&gt;Qualification calls -->
<g id="edge3" class="edge">
<title>Bench Engineers&#45;&gt;Qualification calls</title>
<path fill="none" stroke="black" d="M210.01,-33.05C160.62,-50.28 86.61,-84.75 53.34,-144 41.69,-164.75 54.4,-189.91 68.01,-208.18"/>
<polygon fill="black" stroke="black" points="65.28,-210.38 74.24,-216.05 70.77,-206.04 65.28,-210.38"/>
<text text-anchor="middle" x="67.74" y="-204.85" font-family="Times-Roman" font-size="14.00">+</text>
</g>
<!-- Bench Engineers&#45;&gt;Closed deals -->
<g id="edge7" class="edge">
<title>Bench Engineers&#45;&gt;Closed deals</title>
<path fill="none" stroke="black" d="M264.25,-36.28C265.06,-44.03 265.28,-53.36 264.93,-62.01"/>
<polygon fill="black" stroke="black" points="261.44,-61.83 264.22,-72.05 268.42,-62.33 261.44,-61.83"/>
<text text-anchor="middle" x="257.72" y="-60.85" font-family="Times-Roman" font-size="14.00">+</text>
</g>
<!-- Bench Quality -->
<g id="node5" class="node">
<title>Bench Quality</title>
<ellipse fill="none" stroke="black" cx="332.34" cy="-234" rx="74.19" ry="18"/>
<text text-anchor="middle" x="332.34" y="-230.3" font-family="Times-Roman" font-size="14.00">Bench Quality</text>
</g>
<!-- Bench Quality&#45;&gt;Closed deals -->
<g id="edge4" class="edge">
<title>Bench Quality&#45;&gt;Closed deals</title>
<path fill="none" stroke="black" d="M309.92,-216.72C298.48,-207.26 285.33,-194.37 277.34,-180 266.76,-160.95 262.06,-136.59 259.98,-118.18"/>
<polygon fill="black" stroke="black" points="263.46,-117.73 259.04,-108.1 256.49,-118.39 263.46,-117.73"/>
<text text-anchor="middle" x="252.54" y="-111.9" font-family="Times-Roman" font-size="14.00">+</text>
</g>
<!-- Reputation -->
<g id="node7" class="node">
<title>Reputation</title>
<ellipse fill="none" stroke="black" cx="346.34" cy="-162" rx="59.59" ry="18"/>
<text text-anchor="middle" x="346.34" y="-158.3" font-family="Times-Roman" font-size="14.00">Reputation</text>
</g>
<!-- Bench Quality&#45;&gt;Reputation -->
<g id="edge5" class="edge">
<title>Bench Quality&#45;&gt;Reputation</title>
<path fill="none" stroke="black" d="M335.8,-215.7C337.35,-207.98 339.2,-198.71 340.92,-190.11"/>
<polygon fill="black" stroke="black" points="344.39,-190.6 342.92,-180.1 337.53,-189.22 344.39,-190.6"/>
<text text-anchor="middle" x="336.42" y="-183.9" font-family="Times-Roman" font-size="14.00">+</text>
</g>
<!-- Closed deals&#45;&gt;Bench Engineers -->
<g id="edge9" class="edge">
<title>Closed deals&#45;&gt;Bench Engineers</title>
<path fill="none" stroke="black" d="M252.46,-72.05C251.65,-64.35 251.4,-55.03 251.74,-46.36"/>
<polygon fill="black" stroke="black" points="255.24,-46.49 252.43,-36.28 248.25,-46.01 255.24,-46.49"/>
<text text-anchor="middle" x="246.93" y="-40.08" font-family="Times-Roman" font-size="14.00">&#45;&#45;</text>
</g>
<!-- Reputation&#45;&gt;Closed deals -->
<g id="edge8" class="edge">
<title>Reputation&#45;&gt;Closed deals</title>
<path fill="none" stroke="black" d="M325.93,-144.76C314.35,-135.55 299.68,-123.88 286.97,-113.77"/>
<polygon fill="black" stroke="black" points="288.95,-110.88 278.95,-107.39 284.59,-116.35 288.95,-110.88"/>
<text text-anchor="middle" x="272.45" y="-111.19" font-family="Times-Roman" font-size="14.00">+</text>
</g>
<!-- Hiring -->
<g id="node8" class="node">
<title>Hiring</title>
<ellipse fill="none" stroke="black" cx="383.34" cy="-306" rx="38.19" ry="18"/>
<text text-anchor="middle" x="383.34" y="-302.3" font-family="Times-Roman" font-size="14.00">Hiring</text>
</g>
<!-- Hiring&#45;&gt;Bench Engineers -->
<g id="edge10" class="edge">
<title>Hiring&#45;&gt;Bench Engineers</title>
<path fill="none" stroke="black" d="M396.24,-288.9C403.4,-278.92 411.59,-265.46 415.34,-252 428.22,-205.76 434.87,-187.85 415.34,-144 393.43,-94.79 340.72,-59.43 302.41,-39.14"/>
<polygon fill="black" stroke="black" points="303.98,-36.01 293.49,-34.55 300.78,-42.24 303.98,-36.01"/>
<text text-anchor="middle" x="286.99" y="-38.35" font-family="Times-Roman" font-size="14.00">+</text>
</g>
<!-- Hiring&#45;&gt;Bench Quality -->
<g id="edge11" class="edge">
<title>Hiring&#45;&gt;Bench Quality</title>
<path fill="none" stroke="black" d="M371.51,-288.76C365.39,-280.35 357.76,-269.89 350.87,-260.44"/>
<polygon fill="black" stroke="black" points="353.54,-258.15 344.82,-252.12 347.88,-262.27 353.54,-258.15"/>
<text text-anchor="middle" x="339.32" y="-255.92" font-family="Times-Roman" font-size="14.00">&#45;&#45;</text>
</g>
</g>
</svg>
