<?xml version="1.0" encoding="UTF-8" standalone="no"?>
<!DOCTYPE svg PUBLIC "-//W3C//DTD SVG 1.1//EN"
 "http://www.w3.org/Graphics/SVG/1.1/DTD/svg11.dtd">
<!-- Generated by graphviz version 2.43.0 (0)
 -->
<!-- Title: mygraph Pages: 1 -->
<svg width="729pt" height="1063pt"
 viewBox="0.00 0.00 729.00 1063.00" xmlns="http://www.w3.org/2000/svg" xmlns:xlink="http://www.w3.org/1999/xlink">
<g id="graph0" class="graph" transform="scale(1 1) rotate(0) translate(4 1059)">
<title>mygraph</title>
<polygon fill="white" stroke="transparent" points="-4,4 -4,-1059 725,-1059 725,4 -4,4"/>
<!-- Inbound Demand -->
<g id="node1" class="node">
<title>Inbound Demand</title>
<text text-anchor="middle" x="68.5" y="-1033.3" font-family="Times-Roman" font-size="14.00">Inbound Demand</text>
</g>
<!-- Qualification calls -->
<g id="node2" class="node">
<title>Qualification calls</title>
<text text-anchor="middle" x="510.5" y="-960.3" font-family="Times-Roman" font-size="14.00">Qualification calls</text>
</g>
<!-- Inbound Demand&#45;&gt;Qualification calls -->
<g id="edge1" class="edge">
<title>Inbound Demand&#45;&gt;Qualification calls</title>
<path fill="none" stroke="black" d="M137.08,-1024.98C216.42,-1012.24 346.86,-991.29 430.68,-977.82"/>
<polygon fill="black" stroke="black" points="431.35,-981.26 440.67,-976.22 430.24,-974.35 431.35,-981.26"/>
<text text-anchor="middle" x="428.25" y="-980.93" font-family="Times-Roman" font-size="14.00">+</text>
</g>
<!-- Project Offerings -->
<g id="node3" class="node">
<title>Project Offerings</title>
<text text-anchor="middle" x="510.5" y="-887.3" font-family="Times-Roman" font-size="14.00">Project Offerings</text>
</g>
<!-- Qualification calls&#45;&gt;Project Offerings -->
<g id="edge2" class="edge">
<title>Qualification calls&#45;&gt;Project Offerings</title>
<path fill="none" stroke="black" d="M510.5,-945.81C510.5,-937.79 510.5,-928.05 510.5,-919.07"/>
<polygon fill="black" stroke="black" points="514,-919.03 510.5,-909.03 507,-919.03 514,-919.03"/>
<text text-anchor="middle" x="516.84" y="-918.92" font-family="Times-Roman" font-size="14.00">+</text>
</g>
<!-- Closed Deals -->
<g id="node6" class="node">
<title>Closed Deals</title>
<text text-anchor="middle" x="443.5" y="-814.3" font-family="Times-Roman" font-size="14.00">Closed Deals</text>
</g>
<!-- Project Offerings&#45;&gt;Closed Deals -->
<g id="edge8" class="edge">
<title>Project Offerings&#45;&gt;Closed Deals</title>
<path fill="none" stroke="black" d="M494.28,-872.81C485.97,-864 475.7,-853.13 466.58,-843.46"/>
<polygon fill="black" stroke="black" points="468.98,-840.9 459.57,-836.03 463.89,-845.7 468.98,-840.9"/>
<text text-anchor="middle" x="473.51" y="-837.87" font-family="Times-Roman" font-size="14.00">+</text>
</g>
<!-- Hiring Target -->
<g id="node10" class="node">
<title>Hiring Target</title>
<text text-anchor="middle" x="668.5" y="-560.3" font-family="Times-Roman" font-size="14.00">Hiring Target</text>
</g>
<!-- Project Offerings&#45;&gt;Hiring Target -->
<g id="edge9" class="edge">
<title>Project Offerings&#45;&gt;Hiring Target</title>
<path fill="none" stroke="black" d="M576.51,-882.16C613.59,-873.66 652.5,-855.93 652.5,-819 652.5,-819 652.5,-819 652.5,-636 652.5,-621.24 655.83,-605.18 659.45,-592.06"/>
<polygon fill="black" stroke="black" points="662.87,-592.85 662.36,-582.26 656.16,-590.85 662.87,-592.85"/>
<text text-anchor="middle" x="664.57" y="-593.4" font-family="Times-Roman" font-size="14.00">+</text>
</g>
<!-- Bench Engineers -->
<g id="node4" class="node">
<title>Bench Engineers</title>
<text text-anchor="middle" x="557.5" y="-741.3" font-family="Times-Roman" font-size="14.00">Bench Engineers</text>
</g>
<!-- Bench Engineers&#45;&gt;Qualification calls -->
<g id="edge3" class="edge">
<title>Bench Engineers&#45;&gt;Qualification calls</title>
<path fill="none" stroke="black" d="M597.51,-763.05C636.41,-782.32 686.87,-816.12 666.5,-855 645.17,-895.71 600.75,-924.13 564.74,-941.56"/>
<polygon fill="black" stroke="black" points="562.89,-938.56 555.31,-945.97 565.86,-944.9 562.89,-938.56"/>
<text text-anchor="middle" x="564.94" y="-930.77" font-family="Times-Roman" font-size="14.00">+</text>
</g>
<!-- Price -->
<g id="node7" class="node">
<title>Price</title>
<text text-anchor="middle" x="519.5" y="-633.3" font-family="Times-Roman" font-size="14.00">Price</text>
</g>
<!-- Bench Engineers&#45;&gt;Price -->
<g id="edge23" class="edge">
<title>Bench Engineers&#45;&gt;Price</title>
<path fill="none" stroke="black" d="M551.39,-726.97C545.39,-710.22 536.14,-684.41 529.14,-664.89"/>
<polygon fill="black" stroke="black" points="532.39,-663.57 525.72,-655.34 525.8,-665.94 532.39,-663.57"/>
<text text-anchor="middle" x="536.27" y="-662.3" font-family="Times-Roman" font-size="14.00">&#45;</text>
</g>
<!-- Team Quality -->
<g id="node5" class="node">
<title>Team Quality</title>
<text text-anchor="middle" x="380.5" y="-414.3" font-family="Times-Roman" font-size="14.00">Team Quality</text>
</g>
<!-- Team Quality&#45;&gt;Closed Deals -->
<g id="edge4" class="edge">
<title>Team Quality&#45;&gt;Closed Deals</title>
<path fill="none" stroke="black" d="M398.65,-436.17C410.77,-449.54 424.5,-469.26 424.5,-490 424.5,-746 424.5,-746 424.5,-746 424.5,-760.9 428.45,-776.98 432.75,-790.07"/>
<polygon fill="black" stroke="black" points="429.58,-791.57 436.21,-799.84 436.17,-789.24 429.58,-791.57"/>
<text text-anchor="middle" x="425.7" y="-785.43" font-family="Times-Roman" font-size="14.00">+</text>
</g>
<!-- Open Source Contributions -->
<g id="node8" class="node">
<title>Open Source Contributions</title>
<text text-anchor="middle" x="411.5" y="-287.3" font-family="Times-Roman" font-size="14.00">Open Source Contributions</text>
</g>
<!-- Team Quality&#45;&gt;Open Source Contributions -->
<g id="edge6" class="edge">
<title>Team Quality&#45;&gt;Open Source Contributions</title>
<path fill="none" stroke="black" d="M384.75,-399.88C389.91,-379.05 398.69,-343.64 404.78,-319.09"/>
<polygon fill="black" stroke="black" points="408.2,-319.86 407.21,-309.31 401.4,-318.18 408.2,-319.86"/>
<text text-anchor="middle" x="410.09" y="-320.33" font-family="Times-Roman" font-size="14.00">+</text>
</g>
<!-- Accomplished Project Rate -->
<g id="node14" class="node">
<title>Accomplished Project Rate</title>
<text text-anchor="middle" x="225.5" y="-341.3" font-family="Times-Roman" font-size="14.00">Accomplished Project Rate</text>
</g>
<!-- Team Quality&#45;&gt;Accomplished Project Rate -->
<g id="edge17" class="edge">
<title>Team Quality&#45;&gt;Accomplished Project Rate</title>
<path fill="none" stroke="black" d="M343.37,-399.99C321.96,-390.19 294.85,-377.77 272.02,-367.31"/>
<polygon fill="black" stroke="black" points="273.41,-364.1 262.86,-363.11 270.49,-370.46 273.41,-364.1"/>
<text text-anchor="middle" x="277.86" y="-359.31" font-family="Times-Roman" font-size="14.00">+</text>
</g>
<!-- Customer Satisfaction -->
<g id="node19" class="node">
<title>Customer Satisfaction</title>
<text text-anchor="middle" x="219.5" y="-287.3" font-family="Times-Roman" font-size="14.00">Customer Satisfaction</text>
</g>
<!-- Team Quality&#45;&gt;Customer Satisfaction -->
<g id="edge30" class="edge">
<title>Team Quality&#45;&gt;Customer Satisfaction</title>
<path fill="none" stroke="black" d="M376.16,-399.84C370.15,-379.55 357.38,-346.15 334.5,-327 328.25,-321.77 321.24,-317.33 313.84,-313.54"/>
<polygon fill="black" stroke="black" points="314.83,-310.14 304.28,-309.1 311.87,-316.49 314.83,-310.14"/>
<text text-anchor="middle" x="319.28" y="-305.38" font-family="Times-Roman" font-size="14.00">+</text>
</g>
<!-- Closed Deals&#45;&gt;Bench Engineers -->
<g id="edge14" class="edge">
<title>Closed Deals&#45;&gt;Bench Engineers</title>
<path fill="none" stroke="black" d="M470.81,-799.99C485.92,-790.58 504.91,-778.76 521.25,-768.57"/>
<polygon fill="black" stroke="black" points="523.38,-771.37 530.02,-763.11 519.68,-765.43 523.38,-771.37"/>
<text text-anchor="middle" x="521.83" y="-771.98" font-family="Times-Roman" font-size="14.00">&#45;</text>
</g>
<!-- Project Engineers -->
<g id="node11" class="node">
<title>Project Engineers</title>
<text text-anchor="middle" x="340.5" y="-687.3" font-family="Times-Roman" font-size="14.00">Project Engineers</text>
</g>
<!-- Closed Deals&#45;&gt;Project Engineers -->
<g id="edge10" class="edge">
<title>Closed Deals&#45;&gt;Project Engineers</title>
<path fill="none" stroke="black" d="M426.72,-799.85C421.41,-794.26 415.61,-787.96 410.5,-782 392.46,-760.95 373.2,-735.99 359.46,-717.7"/>
<polygon fill="black" stroke="black" points="361.98,-715.22 353.19,-709.3 356.37,-719.41 361.98,-715.22"/>
<text text-anchor="middle" x="366.4" y="-712.7" font-family="Times-Roman" font-size="14.00">+</text>
</g>
<!-- Accomplished Projects -->
<g id="node13" class="node">
<title>Accomplished Projects</title>
<text text-anchor="middle" x="170.5" y="-233.3" font-family="Times-Roman" font-size="14.00">Accomplished Projects</text>
</g>
<!-- Closed Deals&#45;&gt;Accomplished Projects -->
<g id="edge15" class="edge">
<title>Closed Deals&#45;&gt;Accomplished Projects</title>
<path fill="none" stroke="black" d="M390.49,-817.06C292.86,-815.72 94.5,-805.67 94.5,-746 94.5,-746 94.5,-746 94.5,-344 94.5,-309.74 103.49,-300.06 124.5,-273 127.65,-268.94 131.38,-265.11 135.33,-261.57"/>
<polygon fill="black" stroke="black" points="137.62,-264.22 143.11,-255.15 133.17,-258.82 137.62,-264.22"/>
<text text-anchor="middle" x="136.66" y="-264.99" font-family="Times-Roman" font-size="14.00">+</text>
</g>
<!-- Price&#45;&gt;Closed Deals -->
<g id="edge5" class="edge">
<title>Price&#45;&gt;Closed Deals</title>
<path fill="none" stroke="black" d="M512.19,-655.05C504.53,-672.96 492.14,-701.95 481.5,-727 472.44,-748.34 462.22,-772.55 454.66,-790.48"/>
<polygon fill="black" stroke="black" points="451.42,-789.16 450.76,-799.74 457.87,-791.88 451.42,-789.16"/>
<text text-anchor="middle" x="450.2" y="-781.05" font-family="Times-Roman" font-size="14.00">&#45;</text>
</g>
<!-- Salary -->
<g id="node17" class="node">
<title>Salary</title>
<text text-anchor="middle" x="519.5" y="-560.3" font-family="Times-Roman" font-size="14.00">Salary</text>
</g>
<!-- Price&#45;&gt;Salary -->
<g id="edge24" class="edge">
<title>Price&#45;&gt;Salary</title>
<path fill="none" stroke="black" d="M519.5,-618.81C519.5,-610.79 519.5,-601.05 519.5,-592.07"/>
<polygon fill="black" stroke="black" points="523,-592.03 519.5,-582.03 516,-592.03 523,-592.03"/>
<text text-anchor="middle" x="525.84" y="-591.92" font-family="Times-Roman" font-size="14.00">+</text>
</g>
<!-- Reputation -->
<g id="node9" class="node">
<title>Reputation</title>
<text text-anchor="middle" x="295.5" y="-160.3" font-family="Times-Roman" font-size="14.00">Reputation</text>
</g>
<!-- Open Source Contributions&#45;&gt;Reputation -->
<g id="edge7" class="edge">
<title>Open Source Contributions&#45;&gt;Reputation</title>
<path fill="none" stroke="black" d="M395.61,-272.88C375.68,-251.4 341.35,-214.41 318.54,-189.82"/>
<polygon fill="black" stroke="black" points="320.93,-187.26 311.57,-182.31 315.8,-192.02 320.93,-187.26"/>
<text text-anchor="middle" x="398.5" y="-233.3" font-family="Times-Roman" font-size="14.00">delay</text>
<text text-anchor="middle" x="325.46" y="-184.27" font-family="Times-Roman" font-size="14.00">+</text>
</g>
<!-- Reputation&#45;&gt;Inbound Demand -->
<g id="edge13" class="edge">
<title>Reputation&#45;&gt;Inbound Demand</title>
<path fill="none" stroke="black" d="M249.42,-169.24C179.97,-176.92 56.5,-196.18 56.5,-236 56.5,-965 56.5,-965 56.5,-965 56.5,-979.7 59.03,-995.87 61.77,-1009.06"/>
<polygon fill="black" stroke="black" points="58.37,-1009.92 63.96,-1018.92 65.21,-1008.4 58.37,-1009.92"/>
<text text-anchor="middle" x="54.82" y="-1003.33" font-family="Times-Roman" font-size="14.00">+</text>
</g>
<!-- Candidate Number -->
<g id="node12" class="node">
<title>Candidate Number</title>
<text text-anchor="middle" x="302.5" y="-87.3" font-family="Times-Roman" font-size="14.00">Candidate Number</text>
</g>
<!-- Reputation&#45;&gt;Candidate Number -->
<g id="edge12" class="edge">
<title>Reputation&#45;&gt;Candidate Number</title>
<path fill="none" stroke="black" d="M297.19,-145.81C297.99,-137.79 298.95,-128.05 299.83,-119.07"/>
<polygon fill="black" stroke="black" points="303.32,-119.32 300.82,-109.03 296.36,-118.64 303.32,-119.32"/>
<text text-anchor="middle" x="305.8" y="-119.48" font-family="Times-Roman" font-size="14.00">+</text>
</g>
<!-- Candidate Quality -->
<g id="node18" class="node">
<title>Candidate Quality</title>
<text text-anchor="middle" x="466.5" y="-87.3" font-family="Times-Roman" font-size="14.00">Candidate Quality</text>
</g>
<!-- Reputation&#45;&gt;Candidate Quality -->
<g id="edge29" class="edge">
<title>Reputation&#45;&gt;Candidate Quality</title>
<path fill="none" stroke="black" d="M336.46,-145.99C360.29,-136.1 390.53,-123.54 415.84,-113.03"/>
<polygon fill="black" stroke="black" points="417.39,-116.18 425.28,-109.11 414.71,-109.72 417.39,-116.18"/>
<text text-anchor="middle" x="415.16" y="-116.48" font-family="Times-Roman" font-size="14.00">+</text>
</g>
<!-- Hiring Number -->
<g id="node15" class="node">
<title>Hiring Number</title>
<text text-anchor="middle" x="585.5" y="-14.3" font-family="Times-Roman" font-size="14.00">Hiring Number</text>
</g>
<!-- Hiring Target&#45;&gt;Hiring Number -->
<g id="edge21" class="edge">
<title>Hiring Target&#45;&gt;Hiring Number</title>
<path fill="none" stroke="black" d="M666.99,-545.8C665.86,-531.43 664.5,-510.4 664.5,-492 664.5,-492 664.5,-492 664.5,-90 664.5,-69.59 649.73,-53.55 632.96,-41.92"/>
<polygon fill="black" stroke="black" points="634.39,-38.68 624.07,-36.25 630.62,-44.58 634.39,-38.68"/>
<text text-anchor="middle" x="638.94" y="-34.53" font-family="Times-Roman" font-size="14.00">+</text>
</g>
<!-- Hiring Quality -->
<g id="node16" class="node">
<title>Hiring Quality</title>
<text text-anchor="middle" x="519.5" y="-487.3" font-family="Times-Roman" font-size="14.00">Hiring Quality</text>
</g>
<!-- Hiring Target&#45;&gt;Hiring Quality -->
<g id="edge22" class="edge">
<title>Hiring Target&#45;&gt;Hiring Quality</title>
<path fill="none" stroke="black" d="M632.81,-545.99C612.32,-536.23 586.4,-523.88 564.52,-513.45"/>
<polygon fill="black" stroke="black" points="565.95,-510.26 555.41,-509.11 562.94,-516.57 565.95,-510.26"/>
<text text-anchor="middle" x="570.41" y="-505.54" font-family="Times-Roman" font-size="14.00">&#45;</text>
</g>
<!-- Project Engineers&#45;&gt;Team Quality -->
<g id="edge11" class="edge">
<title>Project Engineers&#45;&gt;Team Quality</title>
<path fill="none" stroke="black" d="M343.25,-672.99C345.9,-655.12 349.5,-626.16 349.5,-601 349.5,-601 349.5,-601 349.5,-490 349.5,-474.2 356.03,-457.95 363.09,-444.99"/>
<polygon fill="black" stroke="black" points="366.22,-446.58 368.25,-436.18 360.17,-443.05 366.22,-446.58"/>
<text text-anchor="middle" x="368.5" y="-560.3" font-family="Times-Roman" font-size="14.00">delay</text>
<text text-anchor="middle" x="366.85" y="-447.42" font-family="Times-Roman" font-size="14.00">+</text>
</g>
<!-- Candidate Number&#45;&gt;Hiring Number -->
<g id="edge28" class="edge">
<title>Candidate Number&#45;&gt;Hiring Number</title>
<path fill="none" stroke="black" d="M370.29,-72.99C414.37,-61.93 471.71,-47.55 516.11,-36.41"/>
<polygon fill="black" stroke="black" points="517.1,-39.77 525.95,-33.94 515.4,-32.98 517.1,-39.77"/>
<text text-anchor="middle" x="514.31" y="-39.7" font-family="Times-Roman" font-size="14.00">+</text>
</g>
<!-- Accomplished Projects&#45;&gt;Reputation -->
<g id="edge16" class="edge">
<title>Accomplished Projects&#45;&gt;Reputation</title>
<path fill="none" stroke="black" d="M200.44,-218.99C217.17,-209.49 238.22,-197.54 256.25,-187.29"/>
<polygon fill="black" stroke="black" points="258.4,-190.1 265.37,-182.11 254.95,-184.01 258.4,-190.1"/>
<text text-anchor="middle" x="256.68" y="-190.64" font-family="Times-Roman" font-size="14.00">+</text>
</g>
<!-- Accomplished Project Rate&#45;&gt;Accomplished Projects -->
<g id="edge18" class="edge">
<title>Accomplished Project Rate&#45;&gt;Accomplished Projects</title>
<path fill="none" stroke="black" d="M153.4,-326.95C145.6,-322.33 138.64,-316.46 133.5,-309 124.42,-295.83 127.17,-287.7 133.5,-273 135.07,-269.36 137.22,-265.92 139.71,-262.72"/>
<polygon fill="black" stroke="black" points="142.31,-265.06 146.43,-255.3 137.12,-260.36 142.31,-265.06"/>
<text text-anchor="middle" x="142" y="-265.93" font-family="Times-Roman" font-size="14.00">+</text>
</g>
<!-- Hiring Number&#45;&gt;Bench Engineers -->
<g id="edge19" class="edge">
<title>Hiring Number&#45;&gt;Bench Engineers</title>
<path fill="none" stroke="black" d="M592.79,-36.16C598.15,-50.34 604.5,-71.12 604.5,-90 604.5,-455 604.5,-455 604.5,-455 604.5,-552.52 578.1,-666.19 564.87,-717.03"/>
<polygon fill="black" stroke="black" points="561.44,-716.33 562.27,-726.89 568.21,-718.12 561.44,-716.33"/>
<text text-anchor="middle" x="559.61" y="-708.43" font-family="Times-Roman" font-size="14.00">+</text>
</g>
<!-- Hiring Quality&#45;&gt;Team Quality -->
<g id="edge20" class="edge">
<title>Hiring Quality&#45;&gt;Team Quality</title>
<path fill="none" stroke="black" d="M486.21,-472.99C467.26,-463.32 443.34,-451.1 423.04,-440.73"/>
<polygon fill="black" stroke="black" points="424.5,-437.55 414,-436.11 421.32,-443.78 424.5,-437.55"/>
<text text-anchor="middle" x="428.99" y="-432.95" font-family="Times-Roman" font-size="14.00">+</text>
</g>
<!-- Hiring Quality&#45;&gt;Hiring Number -->
<g id="edge26" class="edge">
<title>Hiring Quality&#45;&gt;Hiring Number</title>
<path fill="none" stroke="black" d="M539.16,-472.79C552.04,-459.54 566.5,-439.99 566.5,-419 566.5,-419 566.5,-419 566.5,-90 566.5,-75.1 570.45,-59.02 574.75,-45.93"/>
<polygon fill="black" stroke="black" points="578.17,-46.76 578.21,-36.16 571.58,-44.43 578.17,-46.76"/>
<text text-anchor="middle" x="579.65" y="-47.39" font-family="Times-Roman" font-size="14.00">&#45;</text>
</g>
<!-- Salary&#45;&gt;Hiring Quality -->
<g id="edge25" class="edge">
<title>Salary&#45;&gt;Hiring Quality</title>
<path fill="none" stroke="black" d="M519.5,-545.81C519.5,-537.79 519.5,-528.05 519.5,-519.07"/>
<polygon fill="black" stroke="black" points="523,-519.03 519.5,-509.03 516,-519.03 523,-519.03"/>
</g>
<!-- Candidate Quality&#45;&gt;Hiring Quality -->
<g id="edge27" class="edge">
<title>Candidate Quality&#45;&gt;Hiring Quality</title>
<path fill="none" stroke="black" d="M494.24,-109.23C510.74,-121.82 528.5,-140.58 528.5,-163 528.5,-419 528.5,-419 528.5,-419 528.5,-433.61 526.6,-449.77 524.55,-462.98"/>
<polygon fill="black" stroke="black" points="521.09,-462.42 522.9,-472.86 528,-463.57 521.09,-462.42"/>
<text text-anchor="middle" x="518.88" y="-454.71" font-family="Times-Roman" font-size="14.00">+</text>
</g>
<!-- Customer Satisfaction&#45;&gt;Reputation -->
<g id="edge31" class="edge">
<title>Customer Satisfaction&#45;&gt;Reputation</title>
<path fill="none" stroke="black" d="M246.6,-272.99C253.16,-267.86 259.66,-261.76 264.5,-255 277.96,-236.17 285.97,-211.01 290.47,-192.07"/>
<polygon fill="black" stroke="black" points="293.89,-192.79 292.62,-182.28 287.06,-191.29 293.89,-192.79"/>
<text text-anchor="middle" x="295.9" y="-193.21" font-family="Times-Roman" font-size="14.00">+</text>
</g>
</g>
</svg>
