<?xml version="1.0" encoding="UTF-8" standalone="no"?>
<!DOCTYPE svg PUBLIC "-//W3C//DTD SVG 1.1//EN"
 "http://www.w3.org/Graphics/SVG/1.1/DTD/svg11.dtd">
<!-- Generated by graphviz version 2.43.0 (0)
 -->
<!-- Title: mygraph Pages: 1 -->
<svg width="693pt" height="476pt"
 viewBox="0.00 0.00 693.16 476.00" xmlns="http://www.w3.org/2000/svg" xmlns:xlink="http://www.w3.org/1999/xlink">
<g id="graph0" class="graph" transform="scale(1 1) rotate(0) translate(4 472)">
<title>mygraph</title>
<polygon fill="white" stroke="transparent" points="-4,4 -4,-472 689.16,-472 689.16,4 -4,4"/>
<!-- Inbound Demand -->
<g id="node1" class="node">
<title>Inbound Demand</title>
<text text-anchor="middle" x="69.5" y="-302.3" font-family="Times-Roman" font-size="14.00">Inbound Demand</text>
</g>
<!-- Qualification calls -->
<g id="node2" class="node">
<title>Qualification calls</title>
<text text-anchor="middle" x="69.5" y="-230.3" font-family="Times-Roman" font-size="14.00">Qualification calls</text>
</g>
<!-- Inbound Demand&#45;&gt;Qualification calls -->
<g id="edge1" class="edge">
<title>Inbound Demand&#45;&gt;Qualification calls</title>
<path fill="none" stroke="black" d="M69.5,-287.7C69.5,-279.98 69.5,-270.71 69.5,-262.11"/>
<polygon fill="black" stroke="black" points="73,-262.1 69.5,-252.1 66,-262.1 73,-262.1"/>
<text text-anchor="middle" x="75.84" y="-262" font-family="Times-Roman" font-size="14.00">+</text>
</g>
<!-- Project offerings -->
<g id="node3" class="node">
<title>Project offerings</title>
<text text-anchor="middle" x="118.5" y="-158.3" font-family="Times-Roman" font-size="14.00">Project offerings</text>
</g>
<!-- Qualification calls&#45;&gt;Project offerings -->
<g id="edge2" class="edge">
<title>Qualification calls&#45;&gt;Project offerings</title>
<path fill="none" stroke="black" d="M81.61,-215.7C87.37,-207.47 94.36,-197.48 100.71,-188.42"/>
<polygon fill="black" stroke="black" points="103.66,-190.3 106.53,-180.1 97.92,-186.29 103.66,-190.3"/>
<text text-anchor="middle" x="103.92" y="-191.18" font-family="Times-Roman" font-size="14.00">+</text>
</g>
<!-- Closed deals -->
<g id="node6" class="node">
<title>Closed deals</title>
<text text-anchor="middle" x="291.5" y="-86.3" font-family="Times-Roman" font-size="14.00">Closed deals</text>
</g>
<!-- Project offerings&#45;&gt;Closed deals -->
<g id="edge7" class="edge">
<title>Project offerings&#45;&gt;Closed deals</title>
<path fill="none" stroke="black" d="M160.82,-143.88C184.68,-134.22 214.67,-122.09 239.9,-111.88"/>
<polygon fill="black" stroke="black" points="241.36,-115.06 249.32,-108.07 238.73,-108.57 241.36,-115.06"/>
<text text-anchor="middle" x="239.09" y="-115.34" font-family="Times-Roman" font-size="14.00">+</text>
</g>
<!-- Bench Engineers -->
<g id="node4" class="node">
<title>Bench Engineers</title>
<text text-anchor="middle" x="251.5" y="-14.3" font-family="Times-Roman" font-size="14.00">Bench Engineers</text>
</g>
<!-- Bench Engineers&#45;&gt;Qualification calls -->
<g id="edge3" class="edge">
<title>Bench Engineers&#45;&gt;Qualification calls</title>
<path fill="none" stroke="black" d="M193.75,-36.08C144.28,-54.12 76.17,-87.88 44.5,-144 33.37,-163.73 42.11,-188.76 52.2,-207.25"/>
<polygon fill="black" stroke="black" points="49.25,-209.15 57.34,-216 55.29,-205.6 49.25,-209.15"/>
<text text-anchor="middle" x="44.99" y="-203.79" font-family="Times-Roman" font-size="14.00">+</text>
</g>
<!-- Bench Engineers&#45;&gt;Closed deals -->
<g id="edge8" class="edge">
<title>Bench Engineers&#45;&gt;Closed deals</title>
<path fill="none" stroke="black" d="M267.17,-36.1C272.54,-44.04 278.26,-53.67 282.93,-62.51"/>
<polygon fill="black" stroke="black" points="279.92,-64.32 287.53,-71.7 286.18,-61.19 279.92,-64.32"/>
<text text-anchor="middle" x="275.78" y="-58.67" font-family="Times-Roman" font-size="14.00">+</text>
</g>
<!-- Bench Quality -->
<g id="node5" class="node">
<title>Bench Quality</title>
<text text-anchor="middle" x="379.5" y="-374.3" font-family="Times-Roman" font-size="14.00">Bench Quality</text>
</g>
<!-- Bench Quality&#45;&gt;Closed deals -->
<g id="edge4" class="edge">
<title>Bench Quality&#45;&gt;Closed deals</title>
<path fill="none" stroke="black" d="M356.27,-359.77C329.22,-338.11 286.02,-298.12 268.5,-252 251.32,-206.79 267.43,-150.01 279.97,-117.37"/>
<polygon fill="black" stroke="black" points="283.23,-118.64 283.7,-108.06 276.73,-116.04 283.23,-118.64"/>
<text text-anchor="middle" x="284.53" y="-119.34" font-family="Times-Roman" font-size="14.00">+</text>
</g>
<!-- Open Source Contributions -->
<g id="node7" class="node">
<title>Open Source Contributions</title>
<text text-anchor="middle" x="379.5" y="-230.3" font-family="Times-Roman" font-size="14.00">Open Source Contributions</text>
</g>
<!-- Bench Quality&#45;&gt;Open Source Contributions -->
<g id="edge5" class="edge">
<title>Bench Quality&#45;&gt;Open Source Contributions</title>
<path fill="none" stroke="black" d="M379.5,-359.87C379.5,-335.67 379.5,-291.21 379.5,-262.39"/>
<polygon fill="black" stroke="black" points="383,-262.19 379.5,-252.19 376,-262.19 383,-262.19"/>
<text text-anchor="middle" x="385.84" y="-262.08" font-family="Times-Roman" font-size="14.00">+</text>
</g>
<!-- Team Quality -->
<g id="node11" class="node">
<title>Team Quality</title>
<text text-anchor="middle" x="523.5" y="-302.3" font-family="Times-Roman" font-size="14.00">Team Quality</text>
</g>
<!-- Bench Quality&#45;&gt;Team Quality -->
<g id="edge15" class="edge">
<title>Bench Quality&#45;&gt;Team Quality</title>
<path fill="none" stroke="black" d="M414.73,-359.88C434.08,-350.47 458.27,-338.71 478.93,-328.67"/>
<polygon fill="black" stroke="black" points="480.67,-331.71 488.14,-324.19 477.61,-325.41 480.67,-331.71"/>
<text text-anchor="middle" x="478.68" y="-332.13" font-family="Times-Roman" font-size="14.00">+</text>
</g>
<!-- Closed deals&#45;&gt;Bench Engineers -->
<g id="edge10" class="edge">
<title>Closed deals&#45;&gt;Bench Engineers</title>
<path fill="none" stroke="black" d="M275.7,-71.7C270.32,-63.73 264.6,-54.1 259.95,-45.26"/>
<polygon fill="black" stroke="black" points="262.97,-43.49 255.38,-36.1 256.71,-46.62 262.97,-43.49"/>
<text text-anchor="middle" x="267.12" y="-41.74" font-family="Times-Roman" font-size="14.00">&#45;</text>
</g>
<!-- Reputation -->
<g id="node8" class="node">
<title>Reputation</title>
<text text-anchor="middle" x="444.5" y="-158.3" font-family="Times-Roman" font-size="14.00">Reputation</text>
</g>
<!-- Open Source Contributions&#45;&gt;Reputation -->
<g id="edge6" class="edge">
<title>Open Source Contributions&#45;&gt;Reputation</title>
<path fill="none" stroke="black" d="M395.57,-215.7C403.44,-207.22 413.06,-196.86 421.67,-187.58"/>
<polygon fill="black" stroke="black" points="424.38,-189.81 428.62,-180.1 419.25,-185.05 424.38,-189.81"/>
<text text-anchor="middle" x="424.01" y="-190.68" font-family="Times-Roman" font-size="14.00">+</text>
</g>
<!-- Reputation&#45;&gt;Closed deals -->
<g id="edge9" class="edge">
<title>Reputation&#45;&gt;Closed deals</title>
<path fill="none" stroke="black" d="M407.07,-143.88C386.25,-134.35 360.15,-122.41 338.02,-112.28"/>
<polygon fill="black" stroke="black" points="339.36,-109.05 328.81,-108.07 336.44,-115.41 339.36,-109.05"/>
<text text-anchor="middle" x="343.81" y="-104.26" font-family="Times-Roman" font-size="14.00">+</text>
</g>
<!-- Candidate Quality -->
<g id="node10" class="node">
<title>Candidate Quality</title>
<text text-anchor="middle" x="508.5" y="-86.3" font-family="Times-Roman" font-size="14.00">Candidate Quality</text>
</g>
<!-- Reputation&#45;&gt;Candidate Quality -->
<g id="edge14" class="edge">
<title>Reputation&#45;&gt;Candidate Quality</title>
<path fill="none" stroke="black" d="M460.32,-143.7C468.07,-135.22 477.54,-124.86 486.02,-115.58"/>
<polygon fill="black" stroke="black" points="488.7,-117.85 492.86,-108.1 483.53,-113.12 488.7,-117.85"/>
<text text-anchor="middle" x="488.37" y="-118.72" font-family="Times-Roman" font-size="14.00">+</text>
</g>
<!-- Hiring Number -->
<g id="node9" class="node">
<title>Hiring Number</title>
<text text-anchor="middle" x="295.5" y="-446.3" font-family="Times-Roman" font-size="14.00">Hiring Number</text>
</g>
<!-- Hiring Number&#45;&gt;Bench Engineers -->
<g id="edge11" class="edge">
<title>Hiring Number&#45;&gt;Bench Engineers</title>
<path fill="none" stroke="black" d="M276.86,-431.69C252.11,-406.72 211.5,-357.98 211.5,-307 211.5,-307 211.5,-307 211.5,-161 211.5,-119.48 227.54,-73.61 239.3,-45.54"/>
<polygon fill="black" stroke="black" points="242.65,-46.62 243.41,-36.05 236.23,-43.84 242.65,-46.62"/>
<text text-anchor="middle" x="243.83" y="-47.34" font-family="Times-Roman" font-size="14.00">+</text>
</g>
<!-- Hiring Number&#45;&gt;Bench Quality -->
<g id="edge12" class="edge">
<title>Hiring Number&#45;&gt;Bench Quality</title>
<path fill="none" stroke="black" d="M316.26,-431.7C326.74,-422.97 339.61,-412.24 351,-402.75"/>
<polygon fill="black" stroke="black" points="353.53,-405.19 358.97,-396.1 349.05,-399.82 353.53,-405.19"/>
<text text-anchor="middle" x="352.59" y="-405.98" font-family="Times-Roman" font-size="14.00">&#45;</text>
</g>
<!-- Candidate Quality&#45;&gt;Bench Quality -->
<g id="edge13" class="edge">
<title>Candidate Quality&#45;&gt;Bench Quality</title>
<path fill="none" stroke="black" d="M553.83,-108.1C614.39,-133.84 710.59,-186.58 678.5,-252 636.97,-336.67 521.64,-364.05 446.96,-372.87"/>
<polygon fill="black" stroke="black" points="446.26,-369.42 436.7,-373.99 447.03,-376.38 446.26,-369.42"/>
<text text-anchor="middle" x="449.53" y="-362.51" font-family="Times-Roman" font-size="14.00">+</text>
</g>
<!-- Customer Satisfaction -->
<g id="node12" class="node">
<title>Customer Satisfaction</title>
<text text-anchor="middle" x="584.5" y="-230.3" font-family="Times-Roman" font-size="14.00">Customer Satisfaction</text>
</g>
<!-- Team Quality&#45;&gt;Customer Satisfaction -->
<g id="edge16" class="edge">
<title>Team Quality&#45;&gt;Customer Satisfaction</title>
<path fill="none" stroke="black" d="M538.58,-287.7C545.89,-279.3 554.81,-269.07 562.84,-259.86"/>
<polygon fill="black" stroke="black" points="565.66,-261.94 569.59,-252.1 560.39,-257.34 565.66,-261.94"/>
<text text-anchor="middle" x="565.44" y="-262.82" font-family="Times-Roman" font-size="14.00">+</text>
</g>
<!-- Customer Satisfaction&#45;&gt;Reputation -->
<g id="edge17" class="edge">
<title>Customer Satisfaction&#45;&gt;Reputation</title>
<path fill="none" stroke="black" d="M550.25,-215.88C531.44,-206.47 507.92,-194.71 487.83,-184.67"/>
<polygon fill="black" stroke="black" points="489.39,-181.53 478.88,-180.19 486.26,-187.79 489.39,-181.53"/>
<text text-anchor="middle" x="493.87" y="-176.9" font-family="Times-Roman" font-size="14.00">+</text>
</g>
</g>
</svg>
