<?xml version="1.0" encoding="UTF-8" standalone="no"?>
<!DOCTYPE svg PUBLIC "-//W3C//DTD SVG 1.1//EN"
 "http://www.w3.org/Graphics/SVG/1.1/DTD/svg11.dtd">
<!-- Generated by graphviz version 2.43.0 (0)
 -->
<!-- Title: mygraph Pages: 1 -->
<svg width="432pt" height="332pt"
 viewBox="0.00 0.00 431.50 332.00" xmlns="http://www.w3.org/2000/svg" xmlns:xlink="http://www.w3.org/1999/xlink">
<g id="graph0" class="graph" transform="scale(1 1) rotate(0) translate(4 328)">
<title>mygraph</title>
<polygon fill="white" stroke="transparent" points="-4,4 -4,-328 427.5,-328 427.5,4 -4,4"/>
<!-- Inbound Demand -->
<g id="node1" class="node">
<title>Inbound Demand</title>
<text text-anchor="middle" x="355" y="-302.3" font-family="Times-Roman" font-size="14.00">Inbound Demand</text>
</g>
<!-- Opportunity Rate -->
<g id="node2" class="node">
<title>Opportunity Rate</title>
<text text-anchor="middle" x="220" y="-230.3" font-family="Times-Roman" font-size="14.00">Opportunity Rate</text>
</g>
<!-- Inbound Demand&#45;&gt;Opportunity Rate -->
<g id="edge1" class="edge">
<title>Inbound Demand&#45;&gt;Opportunity Rate</title>
<path fill="none" stroke="black" d="M321.98,-287.88C303.92,-278.51 281.35,-266.81 262.05,-256.8"/>
<polygon fill="black" stroke="black" points="263.64,-253.69 253.15,-252.19 260.42,-259.9 263.64,-253.69"/>
<text text-anchor="middle" x="268.14" y="-249.12" font-family="Times-Roman" font-size="14.00">+</text>
</g>
<!-- Closed Deal Rate -->
<g id="node4" class="node">
<title>Closed Deal Rate</title>
<text text-anchor="middle" x="220" y="-158.3" font-family="Times-Roman" font-size="14.00">Closed Deal Rate</text>
</g>
<!-- Opportunity Rate&#45;&gt;Closed Deal Rate -->
<g id="edge3" class="edge">
<title>Opportunity Rate&#45;&gt;Closed Deal Rate</title>
<path fill="none" stroke="black" d="M220,-215.7C220,-207.98 220,-198.71 220,-190.11"/>
<polygon fill="black" stroke="black" points="223.5,-190.1 220,-180.1 216.5,-190.1 223.5,-190.1"/>
<text text-anchor="middle" x="226.34" y="-190" font-family="Times-Roman" font-size="14.00">+</text>
</g>
<!-- Outbound Demand -->
<g id="node3" class="node">
<title>Outbound Demand</title>
<text text-anchor="middle" x="194" y="-302.3" font-family="Times-Roman" font-size="14.00">Outbound Demand</text>
</g>
<!-- Outbound Demand&#45;&gt;Opportunity Rate -->
<g id="edge2" class="edge">
<title>Outbound Demand&#45;&gt;Opportunity Rate</title>
<path fill="none" stroke="black" d="M200.43,-287.7C203.36,-279.81 206.89,-270.3 210.14,-261.55"/>
<polygon fill="black" stroke="black" points="213.45,-262.7 213.65,-252.1 206.88,-260.26 213.45,-262.7"/>
<text text-anchor="middle" x="214.86" y="-263.36" font-family="Times-Roman" font-size="14.00">+</text>
</g>
<!-- Accomplished Project Rate -->
<g id="node7" class="node">
<title>Accomplished Project Rate</title>
<text text-anchor="middle" x="224" y="-86.3" font-family="Times-Roman" font-size="14.00">Accomplished Project Rate</text>
</g>
<!-- Closed Deal Rate&#45;&gt;Accomplished Project Rate -->
<g id="edge6" class="edge">
<title>Closed Deal Rate&#45;&gt;Accomplished Project Rate</title>
<path fill="none" stroke="black" d="M220.99,-143.7C221.43,-135.98 221.96,-126.71 222.45,-118.11"/>
<polygon fill="black" stroke="black" points="225.95,-118.29 223.02,-108.1 218.96,-117.89 225.95,-118.29"/>
<text text-anchor="middle" x="228.58" y="-118.34" font-family="Times-Roman" font-size="14.00">+</text>
</g>
<!-- Team Size -->
<g id="node5" class="node">
<title>Team Size</title>
<text text-anchor="middle" x="58" y="-302.3" font-family="Times-Roman" font-size="14.00">Team Size</text>
</g>
<!-- Team Availability -->
<g id="node6" class="node">
<title>Team Availability</title>
<text text-anchor="middle" x="66" y="-230.3" font-family="Times-Roman" font-size="14.00">Team Availability</text>
</g>
<!-- Team Size&#45;&gt;Team Availability -->
<g id="edge4" class="edge">
<title>Team Size&#45;&gt;Team Availability</title>
<path fill="none" stroke="black" d="M59.98,-287.7C60.86,-279.98 61.92,-270.71 62.9,-262.11"/>
<polygon fill="black" stroke="black" points="66.39,-262.44 64.05,-252.1 59.43,-261.64 66.39,-262.44"/>
<text text-anchor="middle" x="68.8" y="-262.63" font-family="Times-Roman" font-size="14.00">+</text>
</g>
<!-- Team Availability&#45;&gt;Closed Deal Rate -->
<g id="edge5" class="edge">
<title>Team Availability&#45;&gt;Closed Deal Rate</title>
<path fill="none" stroke="black" d="M103.67,-215.88C124.63,-206.35 150.9,-194.41 173.18,-184.28"/>
<polygon fill="black" stroke="black" points="174.79,-187.39 182.45,-180.07 171.9,-181.02 174.79,-187.39"/>
<text text-anchor="middle" x="172.7" y="-187.76" font-family="Times-Roman" font-size="14.00">+</text>
</g>
<!-- Customer Satisfaction -->
<g id="node8" class="node">
<title>Customer Satisfaction</title>
<text text-anchor="middle" x="288" y="-14.3" font-family="Times-Roman" font-size="14.00">Customer Satisfaction</text>
</g>
<!-- Accomplished Project Rate&#45;&gt;Customer Satisfaction -->
<g id="edge7" class="edge">
<title>Accomplished Project Rate&#45;&gt;Customer Satisfaction</title>
<path fill="none" stroke="black" d="M239.82,-71.7C247.57,-63.22 257.04,-52.86 265.52,-43.58"/>
<polygon fill="black" stroke="black" points="268.2,-45.85 272.36,-36.1 263.03,-41.12 268.2,-45.85"/>
<text text-anchor="middle" x="267.87" y="-46.72" font-family="Times-Roman" font-size="14.00">+</text>
</g>
<!-- Customer Satisfaction&#45;&gt;Inbound Demand -->
<g id="edge8" class="edge">
<title>Customer Satisfaction&#45;&gt;Inbound Demand</title>
<path fill="none" stroke="black" d="M307.38,-36.21C316.79,-45.76 327.28,-58.43 333,-72 362.31,-141.52 360.68,-232.78 357.57,-277.66"/>
<polygon fill="black" stroke="black" points="354.07,-277.54 356.78,-287.78 361.05,-278.08 354.07,-277.54"/>
<text text-anchor="middle" x="351.51" y="-270.03" font-family="Times-Roman" font-size="14.00">+</text>
</g>
</g>
</svg>
