<?xml version="1.0" encoding="UTF-8" standalone="no"?>
<!DOCTYPE svg PUBLIC "-//W3C//DTD SVG 1.1//EN"
 "http://www.w3.org/Graphics/SVG/1.1/DTD/svg11.dtd">
<!-- Generated by graphviz version 2.43.0 (0)
 -->
<!-- Title: mygraph Pages: 1 -->
<svg width="590pt" height="476pt"
 viewBox="0.00 0.00 590.00 476.00" xmlns="http://www.w3.org/2000/svg" xmlns:xlink="http://www.w3.org/1999/xlink">
<g id="graph0" class="graph" transform="scale(1 1) rotate(0) translate(4 472)">
<title>mygraph</title>
<polygon fill="white" stroke="transparent" points="-4,4 -4,-472 586,-472 586,4 -4,4"/>
<!-- Inbound Demand -->
<g id="node1" class="node">
<title>Inbound Demand</title>
<text text-anchor="middle" x="112" y="-302.3" font-family="Times-Roman" font-size="14.00">Inbound Demand</text>
</g>
<!-- Qualification calls -->
<g id="node2" class="node">
<title>Qualification calls</title>
<text text-anchor="middle" x="112" y="-230.3" font-family="Times-Roman" font-size="14.00">Qualification calls</text>
</g>
<!-- Inbound Demand&#45;&gt;Qualification calls -->
<g id="edge1" class="edge">
<title>Inbound Demand&#45;&gt;Qualification calls</title>
<path fill="none" stroke="black" d="M112,-287.7C112,-279.98 112,-270.71 112,-262.11"/>
<polygon fill="black" stroke="black" points="115.5,-262.1 112,-252.1 108.5,-262.1 115.5,-262.1"/>
<text text-anchor="middle" x="118.34" y="-262" font-family="Times-Roman" font-size="14.00">+</text>
</g>
<!-- Project offerings -->
<g id="node3" class="node">
<title>Project offerings</title>
<text text-anchor="middle" x="131" y="-158.3" font-family="Times-Roman" font-size="14.00">Project offerings</text>
</g>
<!-- Qualification calls&#45;&gt;Project offerings -->
<g id="edge2" class="edge">
<title>Qualification calls&#45;&gt;Project offerings</title>
<path fill="none" stroke="black" d="M116.7,-215.7C118.81,-207.9 121.36,-198.51 123.72,-189.83"/>
<polygon fill="black" stroke="black" points="127.12,-190.67 126.36,-180.1 120.36,-188.84 127.12,-190.67"/>
<text text-anchor="middle" x="128.91" y="-191.18" font-family="Times-Roman" font-size="14.00">+</text>
</g>
<!-- Closed deals -->
<g id="node6" class="node">
<title>Closed deals</title>
<text text-anchor="middle" x="131" y="-86.3" font-family="Times-Roman" font-size="14.00">Closed deals</text>
</g>
<!-- Project offerings&#45;&gt;Closed deals -->
<g id="edge6" class="edge">
<title>Project offerings&#45;&gt;Closed deals</title>
<path fill="none" stroke="black" d="M131,-143.7C131,-135.98 131,-126.71 131,-118.11"/>
<polygon fill="black" stroke="black" points="134.5,-118.1 131,-108.1 127.5,-118.1 134.5,-118.1"/>
<text text-anchor="middle" x="137.34" y="-118" font-family="Times-Roman" font-size="14.00">+</text>
</g>
<!-- Bench Engineers -->
<g id="node4" class="node">
<title>Bench Engineers</title>
<text text-anchor="middle" x="84" y="-14.3" font-family="Times-Roman" font-size="14.00">Bench Engineers</text>
</g>
<!-- Bench Engineers&#45;&gt;Qualification calls -->
<g id="edge3" class="edge">
<title>Bench Engineers&#45;&gt;Qualification calls</title>
<path fill="none" stroke="black" d="M75.11,-36.18C60.75,-66.44 36.04,-130.7 57,-180 61.73,-191.14 70.08,-201.07 78.87,-209.24"/>
<polygon fill="black" stroke="black" points="76.77,-212.05 86.62,-215.95 81.35,-206.76 76.77,-212.05"/>
<text text-anchor="middle" x="72.19" y="-208.15" font-family="Times-Roman" font-size="14.00">+</text>
</g>
<!-- Bench Engineers&#45;&gt;Closed deals -->
<g id="edge7" class="edge">
<title>Bench Engineers&#45;&gt;Closed deals</title>
<path fill="none" stroke="black" d="M101.38,-36.1C107.67,-44.21 114.51,-54.08 120.14,-63.08"/>
<polygon fill="black" stroke="black" points="117.16,-64.91 125.3,-71.7 123.17,-61.32 117.16,-64.91"/>
<text text-anchor="middle" x="112.88" y="-59.59" font-family="Times-Roman" font-size="14.00">+</text>
</g>
<!-- Bench Quality -->
<g id="node5" class="node">
<title>Bench Quality</title>
<text text-anchor="middle" x="265" y="-374.3" font-family="Times-Roman" font-size="14.00">Bench Quality</text>
</g>
<!-- Bench Quality&#45;&gt;Closed deals -->
<g id="edge4" class="edge">
<title>Bench Quality&#45;&gt;Closed deals</title>
<path fill="none" stroke="black" d="M256.86,-359.63C252.31,-349.42 246.81,-336.17 243,-324 218.54,-245.88 248.73,-212.56 204,-144 196.15,-131.97 184.55,-121.75 172.9,-113.6"/>
<polygon fill="black" stroke="black" points="174.73,-110.61 164.46,-108.03 170.88,-116.46 174.73,-110.61"/>
<text text-anchor="middle" x="179.3" y="-106.52" font-family="Times-Roman" font-size="14.00">+</text>
</g>
<!-- Open Source Contributions -->
<g id="node7" class="node">
<title>Open Source Contributions</title>
<text text-anchor="middle" x="480" y="-302.3" font-family="Times-Roman" font-size="14.00">Open Source Contributions</text>
</g>
<!-- Bench Quality&#45;&gt;Open Source Contributions -->
<g id="edge5" class="edge">
<title>Bench Quality&#45;&gt;Open Source Contributions</title>
<path fill="none" stroke="black" d="M317.32,-359.97C347.62,-350.1 385.95,-337.62 417.79,-327.25"/>
<polygon fill="black" stroke="black" points="419.02,-330.53 427.45,-324.11 416.85,-323.88 419.02,-330.53"/>
<text text-anchor="middle" x="416.48" y="-330.65" font-family="Times-Roman" font-size="14.00">+</text>
</g>
<!-- Team Quality -->
<g id="node10" class="node">
<title>Team Quality</title>
<text text-anchor="middle" x="306" y="-302.3" font-family="Times-Roman" font-size="14.00">Team Quality</text>
</g>
<!-- Bench Quality&#45;&gt;Team Quality -->
<g id="edge12" class="edge">
<title>Bench Quality&#45;&gt;Team Quality</title>
<path fill="none" stroke="black" d="M275.13,-359.7C279.85,-351.64 285.56,-341.89 290.78,-332.98"/>
<polygon fill="black" stroke="black" points="293.95,-334.5 295.98,-324.1 287.91,-330.96 293.95,-334.5"/>
<text text-anchor="middle" x="294.58" y="-335.34" font-family="Times-Roman" font-size="14.00">+</text>
</g>
<!-- Closed deals&#45;&gt;Bench Engineers -->
<g id="edge9" class="edge">
<title>Closed deals&#45;&gt;Bench Engineers</title>
<path fill="none" stroke="black" d="M113.47,-71.7C107.16,-63.56 100.33,-53.69 94.72,-44.7"/>
<polygon fill="black" stroke="black" points="97.72,-42.9 89.59,-36.1 91.71,-46.48 97.72,-42.9"/>
<text text-anchor="middle" x="102" y="-40.83" font-family="Times-Roman" font-size="14.00">&#45;</text>
</g>
<!-- Reputation -->
<g id="node8" class="node">
<title>Reputation</title>
<text text-anchor="middle" x="317" y="-158.3" font-family="Times-Roman" font-size="14.00">Reputation</text>
</g>
<!-- Reputation&#45;&gt;Closed deals -->
<g id="edge8" class="edge">
<title>Reputation&#45;&gt;Closed deals</title>
<path fill="none" stroke="black" d="M271.5,-143.88C245.62,-134.14 213.03,-121.87 185.76,-111.61"/>
<polygon fill="black" stroke="black" points="186.94,-108.31 176.35,-108.07 184.48,-114.87 186.94,-108.31"/>
<text text-anchor="middle" x="191.31" y="-103.22" font-family="Times-Roman" font-size="14.00">+</text>
</g>
<!-- Hiring -->
<g id="node9" class="node">
<title>Hiring</title>
<text text-anchor="middle" x="112" y="-446.3" font-family="Times-Roman" font-size="14.00">Hiring</text>
</g>
<!-- Hiring&#45;&gt;Bench Engineers -->
<g id="edge10" class="edge">
<title>Hiring&#45;&gt;Bench Engineers</title>
<path fill="none" stroke="black" d="M85.46,-431.85C52.34,-408.13 0,-361.95 0,-307 0,-307 0,-307 0,-161 0,-114.6 33.64,-70.06 58.34,-43.6"/>
<polygon fill="black" stroke="black" points="60.95,-45.95 65.36,-36.31 55.9,-41.09 60.95,-45.95"/>
<text text-anchor="middle" x="60.5" y="-46.81" font-family="Times-Roman" font-size="14.00">+</text>
</g>
<!-- Hiring&#45;&gt;Bench Quality -->
<g id="edge11" class="edge">
<title>Hiring&#45;&gt;Bench Quality</title>
<path fill="none" stroke="black" d="M141.86,-435.34C163.61,-425.39 193.48,-411.72 218.36,-400.34"/>
<polygon fill="black" stroke="black" points="219.99,-403.44 227.63,-396.1 217.08,-397.08 219.99,-403.44"/>
<text text-anchor="middle" x="217.9" y="-403.82" font-family="Times-Roman" font-size="14.00">&#45;</text>
</g>
<!-- Customer Satisfaction -->
<g id="node11" class="node">
<title>Customer Satisfaction</title>
<text text-anchor="middle" x="337" y="-230.3" font-family="Times-Roman" font-size="14.00">Customer Satisfaction</text>
</g>
<!-- Team Quality&#45;&gt;Customer Satisfaction -->
<g id="edge13" class="edge">
<title>Team Quality&#45;&gt;Customer Satisfaction</title>
<path fill="none" stroke="black" d="M313.66,-287.7C317.19,-279.73 321.46,-270.1 325.37,-261.26"/>
<polygon fill="black" stroke="black" points="328.58,-262.67 329.43,-252.1 322.18,-259.83 328.58,-262.67"/>
<text text-anchor="middle" x="329.72" y="-263.4" font-family="Times-Roman" font-size="14.00">+</text>
</g>
<!-- Customer Satisfaction&#45;&gt;Reputation -->
<g id="edge14" class="edge">
<title>Customer Satisfaction&#45;&gt;Reputation</title>
<path fill="none" stroke="black" d="M332.06,-215.7C329.83,-207.9 327.15,-198.51 324.67,-189.83"/>
<polygon fill="black" stroke="black" points="328,-188.76 321.89,-180.1 321.27,-190.68 328,-188.76"/>
<text text-anchor="middle" x="331.72" y="-187.73" font-family="Times-Roman" font-size="14.00">+</text>
</g>
</g>
</svg>
