<?xml version="1.0" encoding="UTF-8" standalone="no"?>
<!DOCTYPE svg PUBLIC "-//W3C//DTD SVG 1.1//EN"
 "http://www.w3.org/Graphics/SVG/1.1/DTD/svg11.dtd">
<!-- Generated by graphviz version 2.43.0 (0)
 -->
<!-- Title: mygraph Pages: 1 -->
<svg width="847pt" height="750pt"
 viewBox="0.00 0.00 847.00 750.00" xmlns="http://www.w3.org/2000/svg" xmlns:xlink="http://www.w3.org/1999/xlink">
<g id="graph0" class="graph" transform="scale(1 1) rotate(0) translate(4 746)">
<title>mygraph</title>
<polygon fill="white" stroke="transparent" points="-4,4 -4,-746 843,-746 843,4 -4,4"/>
<!-- Inbound Demand -->
<g id="node1" class="node">
<title>Inbound Demand</title>
<text text-anchor="middle" x="68.5" y="-720.3" font-family="Times-Roman" font-size="14.00">Inbound Demand</text>
</g>
<!-- Qualification calls -->
<g id="node2" class="node">
<title>Qualification calls</title>
<text text-anchor="middle" x="283.5" y="-647.3" font-family="Times-Roman" font-size="14.00">Qualification calls</text>
</g>
<!-- Inbound Demand&#45;&gt;Qualification calls -->
<g id="edge1" class="edge">
<title>Inbound Demand&#45;&gt;Qualification calls</title>
<path fill="none" stroke="black" d="M120,-705.99C150.62,-695.88 189.66,-682.99 221.9,-672.34"/>
<polygon fill="black" stroke="black" points="223.28,-675.57 231.68,-669.11 221.08,-668.93 223.28,-675.57"/>
<text text-anchor="middle" x="220.76" y="-675.7" font-family="Times-Roman" font-size="14.00">+</text>
</g>
<!-- Project offerings -->
<g id="node3" class="node">
<title>Project offerings</title>
<text text-anchor="middle" x="283.5" y="-574.3" font-family="Times-Roman" font-size="14.00">Project offerings</text>
</g>
<!-- Qualification calls&#45;&gt;Project offerings -->
<g id="edge2" class="edge">
<title>Qualification calls&#45;&gt;Project offerings</title>
<path fill="none" stroke="black" d="M283.5,-632.81C283.5,-624.79 283.5,-615.05 283.5,-606.07"/>
<polygon fill="black" stroke="black" points="287,-606.03 283.5,-596.03 280,-606.03 287,-606.03"/>
<text text-anchor="middle" x="289.84" y="-605.92" font-family="Times-Roman" font-size="14.00">+</text>
</g>
<!-- Closed Deals -->
<g id="node6" class="node">
<title>Closed Deals</title>
<text text-anchor="middle" x="374.5" y="-501.3" font-family="Times-Roman" font-size="14.00">Closed Deals</text>
</g>
<!-- Project offerings&#45;&gt;Closed Deals -->
<g id="edge8" class="edge">
<title>Project offerings&#45;&gt;Closed Deals</title>
<path fill="none" stroke="black" d="M305.53,-559.81C317.27,-550.66 331.87,-539.26 344.62,-529.32"/>
<polygon fill="black" stroke="black" points="346.94,-531.94 352.67,-523.03 342.64,-526.42 346.94,-531.94"/>
<text text-anchor="middle" x="345.86" y="-532.69" font-family="Times-Roman" font-size="14.00">+</text>
</g>
<!-- Bench Engineers -->
<g id="node4" class="node">
<title>Bench Engineers</title>
<text text-anchor="middle" x="569.5" y="-428.3" font-family="Times-Roman" font-size="14.00">Bench Engineers</text>
</g>
<!-- Bench Engineers&#45;&gt;Qualification calls -->
<g id="edge3" class="edge">
<title>Bench Engineers&#45;&gt;Qualification calls</title>
<path fill="none" stroke="black" d="M559.14,-450.03C538.42,-482.75 488.76,-554.78 429.5,-596 408.83,-610.38 383.87,-621.44 360.48,-629.7"/>
<polygon fill="black" stroke="black" points="359.25,-626.42 350.91,-632.95 361.51,-633.05 359.25,-626.42"/>
<text text-anchor="middle" x="361.74" y="-618.87" font-family="Times-Roman" font-size="14.00">+</text>
</g>
<!-- Team Quality -->
<g id="node5" class="node">
<title>Team Quality</title>
<text text-anchor="middle" x="569.5" y="-320.3" font-family="Times-Roman" font-size="14.00">Team Quality</text>
</g>
<!-- Bench Engineers&#45;&gt;Team Quality -->
<g id="edge10" class="edge">
<title>Bench Engineers&#45;&gt;Team Quality</title>
<path fill="none" stroke="black" d="M569.5,-413.97C569.5,-397.38 569.5,-371.88 569.5,-352.43"/>
<polygon fill="black" stroke="black" points="573,-352.34 569.5,-342.34 566,-352.34 573,-352.34"/>
<text text-anchor="middle" x="575.84" y="-352.24" font-family="Times-Roman" font-size="14.00">+</text>
</g>
<!-- Bench Engineers&#45;&gt;Closed Deals -->
<g id="edge9" class="edge">
<title>Bench Engineers&#45;&gt;Closed Deals</title>
<path fill="none" stroke="black" d="M510.66,-450.04C493.06,-455.19 473.87,-461.29 456.5,-468 445.69,-472.18 434.32,-477.37 423.56,-482.5"/>
<polygon fill="black" stroke="black" points="421.78,-479.47 414.29,-486.97 424.82,-485.78 421.78,-479.47"/>
<text text-anchor="middle" x="423.79" y="-471.66" font-family="Times-Roman" font-size="14.00">+</text>
</g>
<!-- Team Quality&#45;&gt;Closed Deals -->
<g id="edge4" class="edge">
<title>Team Quality&#45;&gt;Closed Deals</title>
<path fill="none" stroke="black" d="M515.79,-328.44C460.31,-335.22 376.49,-355.23 337.5,-414 324.08,-434.23 337.39,-460.12 351.65,-478.93"/>
<polygon fill="black" stroke="black" points="348.96,-481.17 357.96,-486.77 354.42,-476.79 348.96,-481.17"/>
<text text-anchor="middle" x="344.5" y="-476.45" font-family="Times-Roman" font-size="14.00">+</text>
</g>
<!-- Open Source Contributions -->
<g id="node8" class="node">
<title>Open Source Contributions</title>
<text text-anchor="middle" x="396.5" y="-247.3" font-family="Times-Roman" font-size="14.00">Open Source Contributions</text>
</g>
<!-- Team Quality&#45;&gt;Open Source Contributions -->
<g id="edge6" class="edge">
<title>Team Quality&#45;&gt;Open Source Contributions</title>
<path fill="none" stroke="black" d="M528.06,-305.99C503.95,-296.1 473.36,-283.54 447.75,-273.03"/>
<polygon fill="black" stroke="black" points="448.78,-269.67 438.2,-269.11 446.12,-276.15 448.78,-269.67"/>
<text text-anchor="middle" x="453.18" y="-264.71" font-family="Times-Roman" font-size="14.00">+</text>
</g>
<!-- Customer Satisfaction -->
<g id="node18" class="node">
<title>Customer Satisfaction</title>
<text text-anchor="middle" x="601.5" y="-247.3" font-family="Times-Roman" font-size="14.00">Customer Satisfaction</text>
</g>
<!-- Team Quality&#45;&gt;Customer Satisfaction -->
<g id="edge27" class="edge">
<title>Team Quality&#45;&gt;Customer Satisfaction</title>
<path fill="none" stroke="black" d="M577.25,-305.81C580.98,-297.53 585.54,-287.41 589.69,-278.19"/>
<polygon fill="black" stroke="black" points="592.91,-279.58 593.83,-269.03 586.53,-276.71 592.91,-279.58"/>
<text text-anchor="middle" x="594.02" y="-280.33" font-family="Times-Roman" font-size="14.00">+</text>
</g>
<!-- Closed Deals&#45;&gt;Bench Engineers -->
<g id="edge16" class="edge">
<title>Closed Deals&#45;&gt;Bench Engineers</title>
<path fill="none" stroke="black" d="M397.57,-486.97C409.61,-480.5 424.53,-473.4 438.5,-468 455.58,-461.4 474.43,-455.39 492.41,-450.3"/>
<polygon fill="black" stroke="black" points="493.59,-453.6 502.29,-447.56 491.72,-446.86 493.59,-453.6"/>
<text text-anchor="middle" x="490.88" y="-453.6" font-family="Times-Roman" font-size="14.00">&#45;</text>
</g>
<!-- Project Engineers -->
<g id="node10" class="node">
<title>Project Engineers</title>
<text text-anchor="middle" x="415.5" y="-428.3" font-family="Times-Roman" font-size="14.00">Project Engineers</text>
</g>
<!-- Closed Deals&#45;&gt;Project Engineers -->
<g id="edge11" class="edge">
<title>Closed Deals&#45;&gt;Project Engineers</title>
<path fill="none" stroke="black" d="M384.42,-486.81C389.26,-478.44 395.17,-468.2 400.54,-458.9"/>
<polygon fill="black" stroke="black" points="403.7,-460.44 405.67,-450.03 397.63,-456.94 403.7,-460.44"/>
<text text-anchor="middle" x="404.36" y="-461.27" font-family="Times-Roman" font-size="14.00">+</text>
</g>
<!-- Accomplished Projects -->
<g id="node12" class="node">
<title>Accomplished Projects</title>
<text text-anchor="middle" x="165.5" y="-374.3" font-family="Times-Roman" font-size="14.00">Accomplished Projects</text>
</g>
<!-- Closed Deals&#45;&gt;Accomplished Projects -->
<g id="edge17" class="edge">
<title>Closed Deals&#45;&gt;Accomplished Projects</title>
<path fill="none" stroke="black" d="M321.3,-495.08C298.96,-489.77 273.37,-481.54 252.5,-469 224.79,-452.36 199.91,-424.67 183.92,-404.39"/>
<polygon fill="black" stroke="black" points="186.5,-402 177.64,-396.21 180.95,-406.27 186.5,-402"/>
<text text-anchor="middle" x="190.95" y="-399.42" font-family="Times-Roman" font-size="14.00">+</text>
</g>
<!-- Price -->
<g id="node7" class="node">
<title>Price</title>
<text text-anchor="middle" x="393.5" y="-574.3" font-family="Times-Roman" font-size="14.00">Price</text>
</g>
<!-- Price&#45;&gt;Closed Deals -->
<g id="edge5" class="edge">
<title>Price&#45;&gt;Closed Deals</title>
<path fill="none" stroke="black" d="M388.9,-559.81C386.73,-551.7 384.09,-541.84 381.67,-532.78"/>
<polygon fill="black" stroke="black" points="385.02,-531.78 379.06,-523.03 378.26,-533.59 385.02,-531.78"/>
<text text-anchor="middle" x="388.7" y="-530.82" font-family="Times-Roman" font-size="14.00">&#45;</text>
</g>
<!-- Reputation -->
<g id="node9" class="node">
<title>Reputation</title>
<text text-anchor="middle" x="280.5" y="-160.3" font-family="Times-Roman" font-size="14.00">Reputation</text>
</g>
<!-- Open Source Contributions&#45;&gt;Reputation -->
<g id="edge7" class="edge">
<title>Open Source Contributions&#45;&gt;Reputation</title>
<path fill="none" stroke="black" d="M373.03,-232.8C355.49,-219.95 331.35,-202.26 312.12,-188.17"/>
<polygon fill="black" stroke="black" points="314.07,-185.26 303.94,-182.18 309.94,-190.91 314.07,-185.26"/>
<text text-anchor="middle" x="364.5" y="-203.8" font-family="Times-Roman" font-size="14.00">delay</text>
<text text-anchor="middle" x="318.65" y="-181.4" font-family="Times-Roman" font-size="14.00">+</text>
</g>
<!-- Reputation&#45;&gt;Inbound Demand -->
<g id="edge15" class="edge">
<title>Reputation&#45;&gt;Inbound Demand</title>
<path fill="none" stroke="black" d="M234.36,-172.87C168.79,-185.38 56.5,-212.3 56.5,-250 56.5,-652 56.5,-652 56.5,-652 56.5,-666.7 59.03,-682.87 61.77,-696.06"/>
<polygon fill="black" stroke="black" points="58.37,-696.92 63.96,-705.92 65.21,-695.4 58.37,-696.92"/>
<text text-anchor="middle" x="54.82" y="-690.33" font-family="Times-Roman" font-size="14.00">+</text>
</g>
<!-- Reputation&#45;&gt;Closed Deals -->
<g id="edge13" class="edge">
<title>Reputation&#45;&gt;Closed Deals</title>
<path fill="none" stroke="black" d="M275.99,-182.12C271.9,-199.19 266.5,-226.22 266.5,-250 266.5,-433 266.5,-433 266.5,-433 266.5,-458.77 288.23,-475.7 312.2,-486.55"/>
<polygon fill="black" stroke="black" points="310.87,-489.79 321.45,-490.41 313.57,-483.33 310.87,-489.79"/>
<text text-anchor="middle" x="306.46" y="-487.32" font-family="Times-Roman" font-size="14.00">+</text>
</g>
<!-- Candidate Number -->
<g id="node11" class="node">
<title>Candidate Number</title>
<text text-anchor="middle" x="406.5" y="-87.3" font-family="Times-Roman" font-size="14.00">Candidate Number</text>
</g>
<!-- Reputation&#45;&gt;Candidate Number -->
<g id="edge14" class="edge">
<title>Reputation&#45;&gt;Candidate Number</title>
<path fill="none" stroke="black" d="M310.68,-145.99C327.54,-136.49 348.76,-124.54 366.94,-114.29"/>
<polygon fill="black" stroke="black" points="369.14,-117.07 376.13,-109.11 365.7,-110.97 369.14,-117.07"/>
<text text-anchor="middle" x="367.4" y="-117.61" font-family="Times-Roman" font-size="14.00">+</text>
</g>
<!-- Candidate Quality -->
<g id="node17" class="node">
<title>Candidate Quality</title>
<text text-anchor="middle" x="625.5" y="-87.3" font-family="Times-Roman" font-size="14.00">Candidate Quality</text>
</g>
<!-- Reputation&#45;&gt;Candidate Quality -->
<g id="edge26" class="edge">
<title>Reputation&#45;&gt;Candidate Quality</title>
<path fill="none" stroke="black" d="M326.67,-153.5C382.41,-142.03 477.1,-122.54 544.96,-108.57"/>
<polygon fill="black" stroke="black" points="545.68,-112 554.77,-106.56 544.27,-105.14 545.68,-112"/>
<text text-anchor="middle" x="542.74" y="-111.8" font-family="Times-Roman" font-size="14.00">+</text>
</g>
<!-- Project Engineers&#45;&gt;Team Quality -->
<g id="edge12" class="edge">
<title>Project Engineers&#45;&gt;Team Quality</title>
<path fill="none" stroke="black" d="M440.24,-413.97C466.21,-396.1 507.19,-367.89 536.03,-348.04"/>
<polygon fill="black" stroke="black" points="538.31,-350.72 544.56,-342.16 534.34,-344.95 538.31,-350.72"/>
<text text-anchor="middle" x="533.5" y="-374.3" font-family="Times-Roman" font-size="14.00">delay</text>
<text text-anchor="middle" x="536.96" y="-351.39" font-family="Times-Roman" font-size="14.00">+</text>
</g>
<!-- Hiring Number -->
<g id="node14" class="node">
<title>Hiring Number</title>
<text text-anchor="middle" x="752.5" y="-14.3" font-family="Times-Roman" font-size="14.00">Hiring Number</text>
</g>
<!-- Candidate Number&#45;&gt;Hiring Number -->
<g id="edge25" class="edge">
<title>Candidate Number&#45;&gt;Hiring Number</title>
<path fill="none" stroke="black" d="M480.73,-74.77C540.6,-62.48 624.23,-45.32 682.85,-33.29"/>
<polygon fill="black" stroke="black" points="683.67,-36.7 692.76,-31.26 682.26,-29.84 683.67,-36.7"/>
<text text-anchor="middle" x="680.72" y="-36.5" font-family="Times-Roman" font-size="14.00">+</text>
</g>
<!-- Accomplished Projects&#45;&gt;Reputation -->
<g id="edge18" class="edge">
<title>Accomplished Projects&#45;&gt;Reputation</title>
<path fill="none" stroke="black" d="M172.49,-359.75C185.94,-327.31 217.26,-255.5 252.5,-200 254.54,-196.79 256.82,-193.53 259.18,-190.35"/>
<polygon fill="black" stroke="black" points="262.1,-192.29 265.47,-182.25 256.58,-188 262.1,-192.29"/>
<text text-anchor="middle" x="262.14" y="-193.17" font-family="Times-Roman" font-size="14.00">+</text>
</g>
<!-- Failed Projects -->
<g id="node13" class="node">
<title>Failed Projects</title>
<text text-anchor="middle" x="142.5" y="-247.3" font-family="Times-Roman" font-size="14.00">Failed Projects</text>
</g>
<!-- Failed Projects&#45;&gt;Reputation -->
<g id="edge19" class="edge">
<title>Failed Projects&#45;&gt;Reputation</title>
<path fill="none" stroke="black" d="M165.7,-232.84C179.58,-222.83 197.74,-210.22 214.5,-200 221.82,-195.54 229.77,-191.04 237.52,-186.84"/>
<polygon fill="black" stroke="black" points="239.32,-189.84 246.49,-182.04 236.02,-183.67 239.32,-189.84"/>
<text text-anchor="middle" x="237.49" y="-190.34" font-family="Times-Roman" font-size="14.00">&#45;</text>
</g>
<!-- Hiring Number&#45;&gt;Bench Engineers -->
<g id="edge20" class="edge">
<title>Hiring Number&#45;&gt;Bench Engineers</title>
<path fill="none" stroke="black" d="M752.5,-36.22C752.5,-50.59 752.5,-71.63 752.5,-90 752.5,-325 752.5,-325 752.5,-325 752.5,-376.98 696.54,-403.88 646.51,-417.55"/>
<polygon fill="black" stroke="black" points="645.41,-414.22 636.6,-420.11 647.16,-421 645.41,-414.22"/>
<text text-anchor="middle" x="648.18" y="-406.87" font-family="Times-Roman" font-size="14.00">+</text>
</g>
<!-- Hiring Quality -->
<g id="node15" class="node">
<title>Hiring Quality</title>
<text text-anchor="middle" x="728.5" y="-428.3" font-family="Times-Roman" font-size="14.00">Hiring Quality</text>
</g>
<!-- Hiring Quality&#45;&gt;Team Quality -->
<g id="edge21" class="edge">
<title>Hiring Quality&#45;&gt;Team Quality</title>
<path fill="none" stroke="black" d="M702.95,-413.97C676.03,-396.02 633.47,-367.65 603.67,-347.78"/>
<polygon fill="black" stroke="black" points="605.51,-344.8 595.25,-342.16 601.63,-350.62 605.51,-344.8"/>
<text text-anchor="middle" x="610.07" y="-340.73" font-family="Times-Roman" font-size="14.00">&#45;</text>
</g>
<!-- Hiring Target -->
<g id="node16" class="node">
<title>Hiring Target</title>
<text text-anchor="middle" x="786.5" y="-501.3" font-family="Times-Roman" font-size="14.00">Hiring Target</text>
</g>
<!-- Hiring Target&#45;&gt;Hiring Number -->
<g id="edge22" class="edge">
<title>Hiring Target&#45;&gt;Hiring Number</title>
<path fill="none" stroke="black" d="M797.02,-486.89C804.6,-472.92 813.5,-452.39 813.5,-433 813.5,-433 813.5,-433 813.5,-90 813.5,-71.25 801.11,-54.98 787.5,-42.77"/>
<polygon fill="black" stroke="black" points="789.36,-39.76 779.43,-36.05 784.88,-45.14 789.36,-39.76"/>
<text text-anchor="middle" x="793.94" y="-36.17" font-family="Times-Roman" font-size="14.00">+</text>
</g>
<!-- Hiring Target&#45;&gt;Hiring Quality -->
<g id="edge23" class="edge">
<title>Hiring Target&#45;&gt;Hiring Quality</title>
<path fill="none" stroke="black" d="M772.46,-486.81C765.41,-478.18 756.73,-467.56 748.95,-458.03"/>
<polygon fill="black" stroke="black" points="751.45,-455.56 742.41,-450.03 746.03,-459.99 751.45,-455.56"/>
<text text-anchor="middle" x="755.92" y="-452.85" font-family="Times-Roman" font-size="14.00">&#45;</text>
</g>
<!-- Candidate Quality&#45;&gt;Team Quality -->
<g id="edge24" class="edge">
<title>Candidate Quality&#45;&gt;Team Quality</title>
<path fill="none" stroke="black" d="M642.51,-109.21C672.99,-142.19 730.61,-215.76 695.5,-269 681.34,-290.48 656.67,-303.45 632.89,-311.26"/>
<polygon fill="black" stroke="black" points="631.7,-307.96 623.14,-314.21 633.73,-314.67 631.7,-307.96"/>
<text text-anchor="middle" x="634.32" y="-300.51" font-family="Times-Roman" font-size="14.00">+</text>
</g>
<!-- Customer Satisfaction&#45;&gt;Reputation -->
<g id="edge28" class="edge">
<title>Customer Satisfaction&#45;&gt;Reputation</title>
<path fill="none" stroke="black" d="M536.93,-232.9C478.21,-217.35 392.42,-194.64 336.53,-179.84"/>
<polygon fill="black" stroke="black" points="337.36,-176.44 326.8,-177.26 335.57,-183.2 337.36,-176.44"/>
<text text-anchor="middle" x="341.56" y="-170.91" font-family="Times-Roman" font-size="14.00">+</text>
</g>
</g>
</svg>
