<?xml version="1.0" encoding="UTF-8" standalone="no"?>
<!DOCTYPE svg PUBLIC "-//W3C//DTD SVG 1.1//EN"
 "http://www.w3.org/Graphics/SVG/1.1/DTD/svg11.dtd">
<!-- Generated by graphviz version 2.43.0 (0)
 -->
<!-- Title: mygraph Pages: 1 -->
<svg width="525pt" height="750pt"
 viewBox="0.00 0.00 524.50 750.00" xmlns="http://www.w3.org/2000/svg" xmlns:xlink="http://www.w3.org/1999/xlink">
<g id="graph0" class="graph" transform="scale(1 1) rotate(0) translate(4 746)">
<title>mygraph</title>
<polygon fill="white" stroke="transparent" points="-4,4 -4,-746 520.5,-746 520.5,4 -4,4"/>
<!-- Inbound Demand -->
<g id="node1" class="node">
<title>Inbound Demand</title>
<text text-anchor="middle" x="447" y="-720.3" font-family="Times-Roman" font-size="14.00">Inbound Demand</text>
</g>
<!-- Qualification calls -->
<g id="node2" class="node">
<title>Qualification calls</title>
<text text-anchor="middle" x="447" y="-647.3" font-family="Times-Roman" font-size="14.00">Qualification calls</text>
</g>
<!-- Inbound Demand&#45;&gt;Qualification calls -->
<g id="edge1" class="edge">
<title>Inbound Demand&#45;&gt;Qualification calls</title>
<path fill="none" stroke="black" d="M447,-705.81C447,-697.79 447,-688.05 447,-679.07"/>
<polygon fill="black" stroke="black" points="450.5,-679.03 447,-669.03 443.5,-679.03 450.5,-679.03"/>
<text text-anchor="middle" x="453.34" y="-678.92" font-family="Times-Roman" font-size="14.00">+</text>
</g>
<!-- Project offerings -->
<g id="node3" class="node">
<title>Project offerings</title>
<text text-anchor="middle" x="291" y="-574.3" font-family="Times-Roman" font-size="14.00">Project offerings</text>
</g>
<!-- Qualification calls&#45;&gt;Project offerings -->
<g id="edge2" class="edge">
<title>Qualification calls&#45;&gt;Project offerings</title>
<path fill="none" stroke="black" d="M409.63,-632.99C388.09,-623.19 360.8,-610.77 337.82,-600.31"/>
<polygon fill="black" stroke="black" points="339.15,-597.07 328.6,-596.11 336.25,-603.44 339.15,-597.07"/>
<text text-anchor="middle" x="343.6" y="-592.28" font-family="Times-Roman" font-size="14.00">+</text>
</g>
<!-- Closed deals -->
<g id="node6" class="node">
<title>Closed deals</title>
<text text-anchor="middle" x="290" y="-501.3" font-family="Times-Roman" font-size="14.00">Closed deals</text>
</g>
<!-- Project offerings&#45;&gt;Closed deals -->
<g id="edge8" class="edge">
<title>Project offerings&#45;&gt;Closed deals</title>
<path fill="none" stroke="black" d="M290.76,-559.81C290.64,-551.79 290.51,-542.05 290.38,-533.07"/>
<polygon fill="black" stroke="black" points="293.88,-532.98 290.24,-523.03 286.88,-533.08 293.88,-532.98"/>
<text text-anchor="middle" x="296.77" y="-532.83" font-family="Times-Roman" font-size="14.00">+</text>
</g>
<!-- Bench Engineers -->
<g id="node4" class="node">
<title>Bench Engineers</title>
<text text-anchor="middle" x="420" y="-428.3" font-family="Times-Roman" font-size="14.00">Bench Engineers</text>
</g>
<!-- Bench Engineers&#45;&gt;Qualification calls -->
<g id="edge3" class="edge">
<title>Bench Engineers&#45;&gt;Qualification calls</title>
<path fill="none" stroke="black" d="M453.13,-450.02C466.89,-459 481.4,-471.41 489,-487 510.22,-530.55 503.77,-550.19 488,-596 484.4,-606.46 477.92,-616.52 471.16,-625.06"/>
<polygon fill="black" stroke="black" points="468.44,-622.84 464.67,-632.74 473.79,-627.36 468.44,-622.84"/>
<text text-anchor="middle" x="468.59" y="-614.56" font-family="Times-Roman" font-size="14.00">+</text>
</g>
<!-- Bench Quality -->
<g id="node5" class="node">
<title>Bench Quality</title>
<text text-anchor="middle" x="230" y="-341.3" font-family="Times-Roman" font-size="14.00">Bench Quality</text>
</g>
<!-- Bench Engineers&#45;&gt;Bench Quality -->
<g id="edge10" class="edge">
<title>Bench Engineers&#45;&gt;Bench Quality</title>
<path fill="none" stroke="black" d="M395.7,-413.84C380.04,-403.34 358.96,-390.2 339,-381 325.65,-374.85 310.92,-369.33 296.72,-364.59"/>
<polygon fill="black" stroke="black" points="297.59,-361.2 287,-361.44 295.43,-367.86 297.59,-361.2"/>
<text text-anchor="middle" x="301.89" y="-355.91" font-family="Times-Roman" font-size="14.00">+</text>
</g>
<!-- Bench Engineers&#45;&gt;Closed deals -->
<g id="edge9" class="edge">
<title>Bench Engineers&#45;&gt;Closed deals</title>
<path fill="none" stroke="black" d="M394.54,-450.11C377.88,-459.77 355.76,-471.92 336.11,-482.24"/>
<polygon fill="black" stroke="black" points="334.25,-479.27 327,-486.99 337.48,-485.48 334.25,-479.27"/>
<text text-anchor="middle" x="336.12" y="-471.39" font-family="Times-Roman" font-size="14.00">+</text>
</g>
<!-- Bench Quality&#45;&gt;Closed deals -->
<g id="edge4" class="edge">
<title>Bench Quality&#45;&gt;Closed deals</title>
<path fill="none" stroke="black" d="M259.81,-363.26C276.97,-375.07 296.9,-392.48 306,-414 314.55,-434.23 309.19,-458.88 302.45,-477.27"/>
<polygon fill="black" stroke="black" points="299.11,-476.19 298.64,-486.77 305.61,-478.79 299.11,-476.19"/>
<text text-anchor="middle" x="297.81" y="-468.09" font-family="Times-Roman" font-size="14.00">+</text>
</g>
<!-- Open Source Contributions -->
<g id="node8" class="node">
<title>Open Source Contributions</title>
<text text-anchor="middle" x="230" y="-214.3" font-family="Times-Roman" font-size="14.00">Open Source Contributions</text>
</g>
<!-- Bench Quality&#45;&gt;Open Source Contributions -->
<g id="edge6" class="edge">
<title>Bench Quality&#45;&gt;Open Source Contributions</title>
<path fill="none" stroke="black" d="M230,-326.88C230,-306.15 230,-270.95 230,-246.42"/>
<polygon fill="black" stroke="black" points="233.5,-246.31 230,-236.31 226.5,-246.31 233.5,-246.31"/>
<text text-anchor="middle" x="236.34" y="-246.21" font-family="Times-Roman" font-size="14.00">+</text>
</g>
<!-- Team Quality -->
<g id="node16" class="node">
<title>Team Quality</title>
<text text-anchor="middle" x="131" y="-268.3" font-family="Times-Roman" font-size="14.00">Team Quality</text>
</g>
<!-- Bench Quality&#45;&gt;Team Quality -->
<g id="edge21" class="edge">
<title>Bench Quality&#45;&gt;Team Quality</title>
<path fill="none" stroke="black" d="M206.29,-326.99C193.4,-317.75 177.28,-306.19 163.27,-296.14"/>
<polygon fill="black" stroke="black" points="165.03,-293.1 154.86,-290.11 160.95,-298.79 165.03,-293.1"/>
<text text-anchor="middle" x="169.6" y="-289.18" font-family="Times-Roman" font-size="14.00">+</text>
</g>
<!-- Closed deals&#45;&gt;Bench Engineers -->
<g id="edge15" class="edge">
<title>Closed deals&#45;&gt;Bench Engineers</title>
<path fill="none" stroke="black" d="M315.28,-486.99C331.9,-477.36 354.01,-465.21 373.67,-454.87"/>
<polygon fill="black" stroke="black" points="375.54,-457.84 382.79,-450.11 372.31,-451.63 375.54,-457.84"/>
<text text-anchor="middle" x="373.67" y="-458.32" font-family="Times-Roman" font-size="14.00">&#45;</text>
</g>
<!-- Project Engineers -->
<g id="node10" class="node">
<title>Project Engineers</title>
<text text-anchor="middle" x="228" y="-428.3" font-family="Times-Roman" font-size="14.00">Project Engineers</text>
</g>
<!-- Closed deals&#45;&gt;Project Engineers -->
<g id="edge11" class="edge">
<title>Closed deals&#45;&gt;Project Engineers</title>
<path fill="none" stroke="black" d="M274.99,-486.81C267.38,-478.09 257.99,-467.34 249.61,-457.75"/>
<polygon fill="black" stroke="black" points="252.08,-455.26 242.87,-450.03 246.81,-459.86 252.08,-455.26"/>
<text text-anchor="middle" x="256.59" y="-452.4" font-family="Times-Roman" font-size="14.00">+</text>
</g>
<!-- Price -->
<g id="node7" class="node">
<title>Price</title>
<text text-anchor="middle" x="181" y="-574.3" font-family="Times-Roman" font-size="14.00">Price</text>
</g>
<!-- Price&#45;&gt;Closed deals -->
<g id="edge5" class="edge">
<title>Price&#45;&gt;Closed deals</title>
<path fill="none" stroke="black" d="M207.11,-559.99C221.56,-550.58 239.71,-538.76 255.34,-528.57"/>
<polygon fill="black" stroke="black" points="257.26,-531.5 263.73,-523.11 253.44,-525.64 257.26,-531.5"/>
<text text-anchor="middle" x="255.8" y="-532.15" font-family="Times-Roman" font-size="14.00">&#45;</text>
</g>
<!-- Reputation -->
<g id="node9" class="node">
<title>Reputation</title>
<text text-anchor="middle" x="131" y="-87.3" font-family="Times-Roman" font-size="14.00">Reputation</text>
</g>
<!-- Open Source Contributions&#45;&gt;Reputation -->
<g id="edge7" class="edge">
<title>Open Source Contributions&#45;&gt;Reputation</title>
<path fill="none" stroke="black" d="M227.58,-199.83C224.73,-184.51 218.81,-162.09 207,-146 197.97,-133.7 185.29,-123.14 172.87,-114.7"/>
<polygon fill="black" stroke="black" points="174.66,-111.69 164.36,-109.21 170.86,-117.57 174.66,-111.69"/>
<text text-anchor="middle" x="243" y="-160.3" font-family="Times-Roman" font-size="14.00">delay</text>
<text text-anchor="middle" x="179.22" y="-107.56" font-family="Times-Roman" font-size="14.00">+</text>
</g>
<!-- Reputation&#45;&gt;Closed deals -->
<g id="edge13" class="edge">
<title>Reputation&#45;&gt;Closed deals</title>
<path fill="none" stroke="black" d="M84.81,-97.93C47.1,-105.68 0,-123.29 0,-163 0,-433 0,-433 0,-433 0,-479.51 142.5,-495.7 227.72,-501.23"/>
<polygon fill="black" stroke="black" points="227.62,-504.73 237.82,-501.85 228.05,-497.74 227.62,-504.73"/>
<text text-anchor="middle" x="223.86" y="-503.64" font-family="Times-Roman" font-size="14.00">+</text>
</g>
<!-- Candidate number -->
<g id="node11" class="node">
<title>Candidate number</title>
<text text-anchor="middle" x="131" y="-14.3" font-family="Times-Roman" font-size="14.00">Candidate number</text>
</g>
<!-- Reputation&#45;&gt;Candidate number -->
<g id="edge14" class="edge">
<title>Reputation&#45;&gt;Candidate number</title>
<path fill="none" stroke="black" d="M131,-72.81C131,-64.79 131,-55.05 131,-46.07"/>
<polygon fill="black" stroke="black" points="134.5,-46.03 131,-36.03 127.5,-46.03 134.5,-46.03"/>
<text text-anchor="middle" x="137.34" y="-45.92" font-family="Times-Roman" font-size="14.00">+</text>
</g>
<!-- Candidate Quality -->
<g id="node15" class="node">
<title>Candidate Quality</title>
<text text-anchor="middle" x="329" y="-14.3" font-family="Times-Roman" font-size="14.00">Candidate Quality</text>
</g>
<!-- Reputation&#45;&gt;Candidate Quality -->
<g id="edge20" class="edge">
<title>Reputation&#45;&gt;Candidate Quality</title>
<path fill="none" stroke="black" d="M177.17,-73.44C205.43,-63.31 241.8,-50.27 271.86,-39.49"/>
<polygon fill="black" stroke="black" points="273.14,-42.75 281.38,-36.08 270.78,-36.16 273.14,-42.75"/>
<text text-anchor="middle" x="270.72" y="-42.93" font-family="Times-Roman" font-size="14.00">+</text>
</g>
<!-- Project Engineers&#45;&gt;Bench Quality -->
<g id="edge12" class="edge">
<title>Project Engineers&#45;&gt;Bench Quality</title>
<path fill="none" stroke="black" d="M228.4,-413.8C228.68,-402.16 229.05,-386.55 229.36,-373.24"/>
<polygon fill="black" stroke="black" points="232.86,-373.26 229.6,-363.18 225.86,-373.09 232.86,-373.26"/>
<text text-anchor="middle" x="249" y="-384.8" font-family="Times-Roman" font-size="14.00">delay</text>
<text text-anchor="middle" x="235.61" y="-373.22" font-family="Times-Roman" font-size="14.00">+</text>
</g>
<!-- Hiring Number -->
<g id="node12" class="node">
<title>Hiring Number</title>
<text text-anchor="middle" x="420" y="-501.3" font-family="Times-Roman" font-size="14.00">Hiring Number</text>
</g>
<!-- Hiring Number&#45;&gt;Bench Engineers -->
<g id="edge16" class="edge">
<title>Hiring Number&#45;&gt;Bench Engineers</title>
<path fill="none" stroke="black" d="M420,-486.81C420,-478.79 420,-469.05 420,-460.07"/>
<polygon fill="black" stroke="black" points="423.5,-460.03 420,-450.03 416.5,-460.03 423.5,-460.03"/>
<text text-anchor="middle" x="426.34" y="-459.92" font-family="Times-Roman" font-size="14.00">+</text>
</g>
<!-- Hiring Quality -->
<g id="node13" class="node">
<title>Hiring Quality</title>
<text text-anchor="middle" x="85" y="-428.3" font-family="Times-Roman" font-size="14.00">Hiring Quality</text>
</g>
<!-- Hiring Quality&#45;&gt;Bench Quality -->
<g id="edge17" class="edge">
<title>Hiring Quality&#45;&gt;Bench Quality</title>
<path fill="none" stroke="black" d="M114.34,-413.8C136.65,-400.72 167.53,-382.62 191.77,-368.41"/>
<polygon fill="black" stroke="black" points="193.84,-371.25 200.7,-363.18 190.3,-365.21 193.84,-371.25"/>
<text text-anchor="middle" x="192.18" y="-371.82" font-family="Times-Roman" font-size="14.00">&#45;</text>
</g>
<!-- Hiring Target -->
<g id="node14" class="node">
<title>Hiring Target</title>
<text text-anchor="middle" x="426" y="-574.3" font-family="Times-Roman" font-size="14.00">Hiring Target</text>
</g>
<!-- Hiring Target&#45;&gt;Hiring Number -->
<g id="edge18" class="edge">
<title>Hiring Target&#45;&gt;Hiring Number</title>
<path fill="none" stroke="black" d="M424.55,-559.81C423.87,-551.79 423.05,-542.05 422.29,-533.07"/>
<polygon fill="black" stroke="black" points="425.77,-532.7 421.44,-523.03 418.79,-533.29 425.77,-532.7"/>
<text text-anchor="middle" x="428.9" y="-532.34" font-family="Times-Roman" font-size="14.00">+</text>
</g>
<!-- Candidate Quality&#45;&gt;Bench Quality -->
<g id="edge19" class="edge">
<title>Candidate Quality&#45;&gt;Bench Quality</title>
<path fill="none" stroke="black" d="M335.91,-36.2C340.98,-50.39 347,-71.18 347,-90 347,-273 347,-273 347,-273 347,-300.51 323.07,-317.66 296.85,-328.19"/>
<polygon fill="black" stroke="black" points="295.3,-325.03 287.13,-331.78 297.72,-331.6 295.3,-325.03"/>
<text text-anchor="middle" x="297.69" y="-317.43" font-family="Times-Roman" font-size="14.00">+</text>
</g>
<!-- Customer Satisfaction -->
<g id="node17" class="node">
<title>Customer Satisfaction</title>
<text text-anchor="middle" x="113" y="-160.3" font-family="Times-Roman" font-size="14.00">Customer Satisfaction</text>
</g>
<!-- Team Quality&#45;&gt;Customer Satisfaction -->
<g id="edge22" class="edge">
<title>Team Quality&#45;&gt;Customer Satisfaction</title>
<path fill="none" stroke="black" d="M128.11,-253.97C125.29,-237.38 120.96,-211.88 117.66,-192.43"/>
<polygon fill="black" stroke="black" points="121.07,-191.61 115.94,-182.34 114.17,-192.79 121.07,-191.61"/>
<text text-anchor="middle" x="124.47" y="-190.98" font-family="Times-Roman" font-size="14.00">+</text>
</g>
<!-- Customer Satisfaction&#45;&gt;Reputation -->
<g id="edge23" class="edge">
<title>Customer Satisfaction&#45;&gt;Reputation</title>
<path fill="none" stroke="black" d="M117.36,-145.81C119.41,-137.7 121.91,-127.84 124.21,-118.78"/>
<polygon fill="black" stroke="black" points="127.62,-119.58 126.68,-109.03 120.83,-117.86 127.62,-119.58"/>
<text text-anchor="middle" x="129.49" y="-120.06" font-family="Times-Roman" font-size="14.00">+</text>
</g>
</g>
</svg>
