<?xml version="1.0" encoding="UTF-8" standalone="no"?>
<!DOCTYPE svg PUBLIC "-//W3C//DTD SVG 1.1//EN"
 "http://www.w3.org/Graphics/SVG/1.1/DTD/svg11.dtd">
<!-- Generated by graphviz version 2.43.0 (0)
 -->
<!-- Title: mygraph Pages: 1 -->
<svg width="743pt" height="1063pt"
 viewBox="0.00 0.00 743.00 1063.00" xmlns="http://www.w3.org/2000/svg" xmlns:xlink="http://www.w3.org/1999/xlink">
<g id="graph0" class="graph" transform="scale(1 1) rotate(0) translate(4 1059)">
<title>mygraph</title>
<polygon fill="white" stroke="transparent" points="-4,4 -4,-1059 739,-1059 739,4 -4,4"/>
<!-- Inbound Demand -->
<g id="node1" class="node">
<title>Inbound Demand</title>
<text text-anchor="middle" x="486" y="-1033.3" font-family="Times-Roman" font-size="14.00">Inbound Demand</text>
</g>
<!-- Qualification calls -->
<g id="node2" class="node">
<title>Qualification calls</title>
<text text-anchor="middle" x="409" y="-960.3" font-family="Times-Roman" font-size="14.00">Qualification calls</text>
</g>
<!-- Inbound Demand&#45;&gt;Qualification calls -->
<g id="edge1" class="edge">
<title>Inbound Demand&#45;&gt;Qualification calls</title>
<path fill="none" stroke="black" d="M467.36,-1018.81C457.62,-1009.83 445.54,-998.69 434.9,-988.89"/>
<polygon fill="black" stroke="black" points="437.19,-986.23 427.47,-982.03 432.45,-991.38 437.19,-986.23"/>
<text text-anchor="middle" x="441.76" y="-982.88" font-family="Times-Roman" font-size="14.00">+</text>
</g>
<!-- Project Offerings -->
<g id="node3" class="node">
<title>Project Offerings</title>
<text text-anchor="middle" x="409" y="-887.3" font-family="Times-Roman" font-size="14.00">Project Offerings</text>
</g>
<!-- Qualification calls&#45;&gt;Project Offerings -->
<g id="edge2" class="edge">
<title>Qualification calls&#45;&gt;Project Offerings</title>
<path fill="none" stroke="black" d="M409,-945.81C409,-937.79 409,-928.05 409,-919.07"/>
<polygon fill="black" stroke="black" points="412.5,-919.03 409,-909.03 405.5,-919.03 412.5,-919.03"/>
<text text-anchor="middle" x="415.34" y="-918.92" font-family="Times-Roman" font-size="14.00">+</text>
</g>
<!-- Closed Deals -->
<g id="node6" class="node">
<title>Closed Deals</title>
<text text-anchor="middle" x="238" y="-814.3" font-family="Times-Roman" font-size="14.00">Closed Deals</text>
</g>
<!-- Project Offerings&#45;&gt;Closed Deals -->
<g id="edge8" class="edge">
<title>Project Offerings&#45;&gt;Closed Deals</title>
<path fill="none" stroke="black" d="M368.04,-872.99C344.21,-863.1 313.97,-850.54 288.66,-840.03"/>
<polygon fill="black" stroke="black" points="289.79,-836.72 279.22,-836.11 287.11,-843.18 289.79,-836.72"/>
<text text-anchor="middle" x="294.2" y="-831.77" font-family="Times-Roman" font-size="14.00">+</text>
</g>
<!-- Hiring Target -->
<g id="node10" class="node">
<title>Hiring Target</title>
<text text-anchor="middle" x="487" y="-560.3" font-family="Times-Roman" font-size="14.00">Hiring Target</text>
</g>
<!-- Project Offerings&#45;&gt;Hiring Target -->
<g id="edge9" class="edge">
<title>Project Offerings&#45;&gt;Hiring Target</title>
<path fill="none" stroke="black" d="M433.84,-872.83C449.2,-860.02 466,-840.97 466,-819 466,-819 466,-819 466,-636 466,-620.84 470.46,-604.58 475.26,-591.45"/>
<polygon fill="black" stroke="black" points="478.54,-592.68 478.94,-582.09 472.03,-590.12 478.54,-592.68"/>
<text text-anchor="middle" x="479.87" y="-593.36" font-family="Times-Roman" font-size="14.00">+</text>
</g>
<!-- Bench Engineers -->
<g id="node4" class="node">
<title>Bench Engineers</title>
<text text-anchor="middle" x="67" y="-741.3" font-family="Times-Roman" font-size="14.00">Bench Engineers</text>
</g>
<!-- Bench Engineers&#45;&gt;Qualification calls -->
<g id="edge3" class="edge">
<title>Bench Engineers&#45;&gt;Qualification calls</title>
<path fill="none" stroke="black" d="M85.43,-763.09C106.44,-782.11 142.25,-813.18 176,-836 238.07,-877.98 315.33,-917.88 363.42,-941.4"/>
<polygon fill="black" stroke="black" points="362.11,-944.66 372.63,-945.88 365.17,-938.36 362.11,-944.66"/>
<text text-anchor="middle" x="357.63" y="-941.94" font-family="Times-Roman" font-size="14.00">+</text>
</g>
<!-- Price -->
<g id="node7" class="node">
<title>Price</title>
<text text-anchor="middle" x="115" y="-633.3" font-family="Times-Roman" font-size="14.00">Price</text>
</g>
<!-- Bench Engineers&#45;&gt;Price -->
<g id="edge25" class="edge">
<title>Bench Engineers&#45;&gt;Price</title>
<path fill="none" stroke="black" d="M74.71,-726.97C82.33,-710.15 94.09,-684.17 102.94,-664.62"/>
<polygon fill="black" stroke="black" points="106.21,-665.89 107.15,-655.34 99.83,-663.01 106.21,-665.89"/>
<text text-anchor="middle" x="107.31" y="-666.64" font-family="Times-Roman" font-size="14.00">&#45;</text>
</g>
<!-- Team Quality -->
<g id="node5" class="node">
<title>Team Quality</title>
<text text-anchor="middle" x="374" y="-414.3" font-family="Times-Roman" font-size="14.00">Team Quality</text>
</g>
<!-- Team Quality&#45;&gt;Closed Deals -->
<g id="edge4" class="edge">
<title>Team Quality&#45;&gt;Closed Deals</title>
<path fill="none" stroke="black" d="M386.65,-436.13C395.59,-449.94 406,-470.26 406,-490 406,-746 406,-746 406,-746 406,-793.3 348.8,-809.57 301.15,-814.93"/>
<polygon fill="black" stroke="black" points="300.77,-811.45 291.16,-815.91 301.45,-818.41 300.77,-811.45"/>
<text text-anchor="middle" x="304.07" y="-804.57" font-family="Times-Roman" font-size="14.00">+</text>
</g>
<!-- Open Source Contributions -->
<g id="node8" class="node">
<title>Open Source Contributions</title>
<text text-anchor="middle" x="380" y="-287.3" font-family="Times-Roman" font-size="14.00">Open Source Contributions</text>
</g>
<!-- Team Quality&#45;&gt;Open Source Contributions -->
<g id="edge6" class="edge">
<title>Team Quality&#45;&gt;Open Source Contributions</title>
<path fill="none" stroke="black" d="M367.18,-399.86C360.87,-381.59 353.38,-351.91 360,-327 360.8,-323.99 361.93,-320.96 363.25,-318.02"/>
<polygon fill="black" stroke="black" points="366.41,-319.51 367.93,-309.03 360.2,-316.28 366.41,-319.51"/>
<text text-anchor="middle" x="367.27" y="-320.31" font-family="Times-Roman" font-size="14.00">+</text>
</g>
<!-- Accomplished Project Rate -->
<g id="node14" class="node">
<title>Accomplished Project Rate</title>
<text text-anchor="middle" x="469" y="-341.3" font-family="Times-Roman" font-size="14.00">Accomplished Project Rate</text>
</g>
<!-- Team Quality&#45;&gt;Accomplished Project Rate -->
<g id="edge18" class="edge">
<title>Team Quality&#45;&gt;Accomplished Project Rate</title>
<path fill="none" stroke="black" d="M397,-399.81C409.37,-390.57 424.79,-379.04 438.18,-369.03"/>
<polygon fill="black" stroke="black" points="440.3,-371.82 446.21,-363.03 436.11,-366.21 440.3,-371.82"/>
<text text-anchor="middle" x="439.12" y="-372.55" font-family="Times-Roman" font-size="14.00">&#45;</text>
</g>
<!-- Customer Satisfaction -->
<g id="node19" class="node">
<title>Customer Satisfaction</title>
<text text-anchor="middle" x="597" y="-287.3" font-family="Times-Roman" font-size="14.00">Customer Satisfaction</text>
</g>
<!-- Team Quality&#45;&gt;Customer Satisfaction -->
<g id="edge32" class="edge">
<title>Team Quality&#45;&gt;Customer Satisfaction</title>
<path fill="none" stroke="black" d="M427.67,-417C473.62,-414.06 538.44,-402.45 578,-363 589.41,-351.62 594.19,-334.18 596.1,-319.43"/>
<polygon fill="black" stroke="black" points="599.6,-319.58 597.04,-309.3 592.63,-318.93 599.6,-319.58"/>
<text text-anchor="middle" x="602.1" y="-319.72" font-family="Times-Roman" font-size="14.00">+</text>
</g>
<!-- Closed Deals&#45;&gt;Bench Engineers -->
<g id="edge15" class="edge">
<title>Closed Deals&#45;&gt;Bench Engineers</title>
<path fill="none" stroke="black" d="M192.97,-799.97C178.55,-794.39 162.55,-788.06 148,-782 136.79,-777.33 124.8,-772.12 113.56,-767.15"/>
<polygon fill="black" stroke="black" points="114.9,-763.91 104.34,-763.04 112.06,-770.31 114.9,-763.91"/>
<text text-anchor="middle" x="119.34" y="-759.08" font-family="Times-Roman" font-size="14.00">&#45;</text>
</g>
<!-- Project Engineers -->
<g id="node11" class="node">
<title>Project Engineers</title>
<text text-anchor="middle" x="322" y="-687.3" font-family="Times-Roman" font-size="14.00">Project Engineers</text>
</g>
<!-- Closed Deals&#45;&gt;Project Engineers -->
<g id="edge10" class="edge">
<title>Closed Deals&#45;&gt;Project Engineers</title>
<path fill="none" stroke="black" d="M249.5,-799.88C263.75,-778.68 288.15,-742.37 304.67,-717.79"/>
<polygon fill="black" stroke="black" points="307.69,-719.57 310.37,-709.31 301.88,-715.66 307.69,-719.57"/>
<text text-anchor="middle" x="308.04" y="-720.43" font-family="Times-Roman" font-size="14.00">+</text>
</g>
<!-- Accomplished Projects -->
<g id="node13" class="node">
<title>Accomplished Projects</title>
<text text-anchor="middle" x="309" y="-233.3" font-family="Times-Roman" font-size="14.00">Accomplished Projects</text>
</g>
<!-- Closed Deals&#45;&gt;Accomplished Projects -->
<g id="edge16" class="edge">
<title>Closed Deals&#45;&gt;Accomplished Projects</title>
<path fill="none" stroke="black" d="M238,-799.78C238,-785.41 238,-764.37 238,-746 238,-746 238,-746 238,-344 238,-309.91 246.87,-300.5 267,-273 269.86,-269.09 273.25,-265.35 276.85,-261.86"/>
<polygon fill="black" stroke="black" points="279.3,-264.37 284.41,-255.09 274.63,-259.15 279.3,-264.37"/>
<text text-anchor="middle" x="278.51" y="-265.18" font-family="Times-Roman" font-size="14.00">+</text>
</g>
<!-- Price&#45;&gt;Closed Deals -->
<g id="edge5" class="edge">
<title>Price&#45;&gt;Closed Deals</title>
<path fill="none" stroke="black" d="M120.22,-655.19C129.63,-684.01 151.7,-742.75 186,-782 189.71,-786.25 194.06,-790.22 198.63,-793.84"/>
<polygon fill="black" stroke="black" points="196.86,-796.88 207,-799.97 201,-791.24 196.86,-796.88"/>
<text text-anchor="middle" x="192.28" y="-793.35" font-family="Times-Roman" font-size="14.00">&#45;</text>
</g>
<!-- Salary -->
<g id="node17" class="node">
<title>Salary</title>
<text text-anchor="middle" x="115" y="-560.3" font-family="Times-Roman" font-size="14.00">Salary</text>
</g>
<!-- Price&#45;&gt;Salary -->
<g id="edge26" class="edge">
<title>Price&#45;&gt;Salary</title>
<path fill="none" stroke="black" d="M115,-618.81C115,-610.79 115,-601.05 115,-592.07"/>
<polygon fill="black" stroke="black" points="118.5,-592.03 115,-582.03 111.5,-592.03 118.5,-592.03"/>
<text text-anchor="middle" x="121.34" y="-591.92" font-family="Times-Roman" font-size="14.00">+</text>
</g>
<!-- Reputation -->
<g id="node9" class="node">
<title>Reputation</title>
<text text-anchor="middle" x="408" y="-160.3" font-family="Times-Roman" font-size="14.00">Reputation</text>
</g>
<!-- Open Source Contributions&#45;&gt;Reputation -->
<g id="edge7" class="edge">
<title>Open Source Contributions&#45;&gt;Reputation</title>
<path fill="none" stroke="black" d="M394.53,-272.87C398.31,-267.48 401.9,-261.29 404,-255 410.77,-234.76 411.46,-210.53 410.63,-192.31"/>
<polygon fill="black" stroke="black" points="414.1,-191.85 409.97,-182.09 407.12,-192.29 414.1,-191.85"/>
<text text-anchor="middle" x="429" y="-233.3" font-family="Times-Roman" font-size="14.00">delay</text>
<text text-anchor="middle" x="417.17" y="-191.55" font-family="Times-Roman" font-size="14.00">+</text>
</g>
<!-- Reputation&#45;&gt;Inbound Demand -->
<g id="edge14" class="edge">
<title>Reputation&#45;&gt;Inbound Demand</title>
<path fill="none" stroke="black" d="M454.16,-172.69C544.3,-189.02 735,-230.59 735,-290 735,-965 735,-965 735,-965 735,-1000.96 637.76,-1019.7 564.82,-1028.7"/>
<polygon fill="black" stroke="black" points="564.21,-1025.25 554.7,-1029.91 565.04,-1032.2 564.21,-1025.25"/>
<text text-anchor="middle" x="567.45" y="-1018.3" font-family="Times-Roman" font-size="14.00">+</text>
</g>
<!-- Reputation&#45;&gt;Closed Deals -->
<g id="edge12" class="edge">
<title>Reputation&#45;&gt;Closed Deals</title>
<path fill="none" stroke="black" d="M361.99,-171.58C310.7,-179.94 232.51,-196.09 214,-219 148.26,-300.4 200,-349.37 200,-454 200,-746 200,-746 200,-746 200,-762.47 208.05,-778.82 216.74,-791.67"/>
<polygon fill="black" stroke="black" points="214.05,-793.93 222.76,-799.96 219.72,-789.82 214.05,-793.93"/>
<text text-anchor="middle" x="209.64" y="-788.99" font-family="Times-Roman" font-size="14.00">+</text>
</g>
<!-- Candidate Number -->
<g id="node12" class="node">
<title>Candidate Number</title>
<text text-anchor="middle" x="387" y="-87.3" font-family="Times-Roman" font-size="14.00">Candidate Number</text>
</g>
<!-- Reputation&#45;&gt;Candidate Number -->
<g id="edge13" class="edge">
<title>Reputation&#45;&gt;Candidate Number</title>
<path fill="none" stroke="black" d="M402.92,-145.81C400.52,-137.7 397.6,-127.84 394.92,-118.78"/>
<polygon fill="black" stroke="black" points="398.23,-117.63 392.04,-109.03 391.52,-119.61 398.23,-117.63"/>
<text text-anchor="middle" x="401.97" y="-116.57" font-family="Times-Roman" font-size="14.00">+</text>
</g>
<!-- Candidate Quality -->
<g id="node18" class="node">
<title>Candidate Quality</title>
<text text-anchor="middle" x="216" y="-87.3" font-family="Times-Roman" font-size="14.00">Candidate Quality</text>
</g>
<!-- Reputation&#45;&gt;Candidate Quality -->
<g id="edge31" class="edge">
<title>Reputation&#45;&gt;Candidate Quality</title>
<path fill="none" stroke="black" d="M362.01,-145.99C334.9,-135.97 300.41,-123.21 271.75,-112.62"/>
<polygon fill="black" stroke="black" points="272.87,-109.3 262.28,-109.11 270.44,-115.86 272.87,-109.3"/>
<text text-anchor="middle" x="277.23" y="-104.18" font-family="Times-Roman" font-size="14.00">+</text>
</g>
<!-- Hiring Number -->
<g id="node15" class="node">
<title>Hiring Number</title>
<text text-anchor="middle" x="259" y="-14.3" font-family="Times-Roman" font-size="14.00">Hiring Number</text>
</g>
<!-- Hiring Target&#45;&gt;Hiring Number -->
<g id="edge23" class="edge">
<title>Hiring Target&#45;&gt;Hiring Number</title>
<path fill="none" stroke="black" d="M539.72,-555.82C601.93,-545.83 697,-525.15 697,-492 697,-492 697,-492 697,-90 697,-53.14 452.24,-31.72 328.65,-23.24"/>
<polygon fill="black" stroke="black" points="328.74,-19.74 318.53,-22.56 328.27,-26.73 328.74,-19.74"/>
<text text-anchor="middle" x="332.52" y="-13.45" font-family="Times-Roman" font-size="14.00">+</text>
</g>
<!-- Hiring Quality -->
<g id="node16" class="node">
<title>Hiring Quality</title>
<text text-anchor="middle" x="115" y="-487.3" font-family="Times-Roman" font-size="14.00">Hiring Quality</text>
</g>
<!-- Hiring Target&#45;&gt;Hiring Quality -->
<g id="edge24" class="edge">
<title>Hiring Target&#45;&gt;Hiring Quality</title>
<path fill="none" stroke="black" d="M434.49,-552.98C368.12,-540.31 253.81,-518.49 181.43,-504.68"/>
<polygon fill="black" stroke="black" points="181.98,-501.22 171.5,-502.78 180.67,-508.1 181.98,-501.22"/>
<text text-anchor="middle" x="186.05" y="-495.41" font-family="Times-Roman" font-size="14.00">&#45;</text>
</g>
<!-- Project Engineers&#45;&gt;Team Quality -->
<g id="edge11" class="edge">
<title>Project Engineers&#45;&gt;Team Quality</title>
<path fill="none" stroke="black" d="M324.44,-672.98C326.8,-655.1 330,-626.13 330,-601 330,-601 330,-601 330,-490 330,-472.99 339.24,-456.66 349.25,-443.96"/>
<polygon fill="black" stroke="black" points="352.06,-446.06 355.85,-436.17 346.72,-441.54 352.06,-446.06"/>
<text text-anchor="middle" x="349" y="-560.3" font-family="Times-Roman" font-size="14.00">delay</text>
<text text-anchor="middle" x="351.9" y="-446.94" font-family="Times-Roman" font-size="14.00">+</text>
</g>
<!-- Candidate Number&#45;&gt;Hiring Number -->
<g id="edge30" class="edge">
<title>Candidate Number&#45;&gt;Hiring Number</title>
<path fill="none" stroke="black" d="M356.34,-72.99C339.05,-63.4 317.26,-51.32 298.68,-41.01"/>
<polygon fill="black" stroke="black" points="300.3,-37.9 289.85,-36.11 296.9,-44.02 300.3,-37.9"/>
<text text-anchor="middle" x="304.82" y="-33.46" font-family="Times-Roman" font-size="14.00">+</text>
</g>
<!-- Accomplished Projects&#45;&gt;Reputation -->
<g id="edge17" class="edge">
<title>Accomplished Projects&#45;&gt;Reputation</title>
<path fill="none" stroke="black" d="M332.71,-218.99C345.6,-209.75 361.72,-198.19 375.73,-188.14"/>
<polygon fill="black" stroke="black" points="378.05,-190.79 384.14,-182.11 373.97,-185.1 378.05,-190.79"/>
<text text-anchor="middle" x="376.78" y="-191.49" font-family="Times-Roman" font-size="14.00">+</text>
</g>
<!-- Accomplished Project Rate&#45;&gt;Reputation -->
<g id="edge19" class="edge">
<title>Accomplished Project Rate&#45;&gt;Reputation</title>
<path fill="none" stroke="black" d="M477.33,-326.95C479.64,-321.36 481.84,-315.04 483,-309 486.03,-293.29 487.12,-288.46 483,-273 474.38,-240.68 451.05,-209.97 432.68,-189.62"/>
<polygon fill="black" stroke="black" points="435.04,-187.02 425.67,-182.08 429.92,-191.79 435.04,-187.02"/>
<text text-anchor="middle" x="439.57" y="-184.02" font-family="Times-Roman" font-size="14.00">&#45;</text>
</g>
<!-- Accomplished Project Rate&#45;&gt;Accomplished Projects -->
<g id="edge20" class="edge">
<title>Accomplished Project Rate&#45;&gt;Accomplished Projects</title>
<path fill="none" stroke="black" d="M368.99,-337.36C328.97,-332.43 289.4,-323.86 277,-309 266.75,-296.71 271.21,-287.92 277,-273 278.36,-269.49 280.26,-266.12 282.45,-262.95"/>
<polygon fill="black" stroke="black" points="285.25,-265.06 288.8,-255.07 279.8,-260.67 285.25,-265.06"/>
<text text-anchor="middle" x="285.21" y="-265.94" font-family="Times-Roman" font-size="14.00">+</text>
</g>
<!-- Hiring Number&#45;&gt;Bench Engineers -->
<g id="edge21" class="edge">
<title>Hiring Number&#45;&gt;Bench Engineers</title>
<path fill="none" stroke="black" d="M199.43,-25.59C131.58,-34.8 30,-54.52 30,-90 30,-638 30,-638 30,-638 30,-666.4 41.98,-696.8 52.31,-717.73"/>
<polygon fill="black" stroke="black" points="49.21,-719.35 56.89,-726.64 55.43,-716.15 49.21,-719.35"/>
<text text-anchor="middle" x="45.04" y="-713.75" font-family="Times-Roman" font-size="14.00">+</text>
</g>
<!-- Hiring Quality&#45;&gt;Team Quality -->
<g id="edge22" class="edge">
<title>Hiring Quality&#45;&gt;Team Quality</title>
<path fill="none" stroke="black" d="M171.52,-474.51C212.53,-463.26 268.04,-448.05 310.57,-436.39"/>
<polygon fill="black" stroke="black" points="311.54,-439.75 320.26,-433.73 309.69,-433 311.54,-439.75"/>
<text text-anchor="middle" x="308.82" y="-439.74" font-family="Times-Roman" font-size="14.00">+</text>
</g>
<!-- Hiring Quality&#45;&gt;Hiring Number -->
<g id="edge28" class="edge">
<title>Hiring Quality&#45;&gt;Hiring Number</title>
<path fill="none" stroke="black" d="M113.87,-472.79C113.02,-458.42 112,-437.38 112,-419 112,-419 112,-419 112,-90 112,-52.54 151.19,-34.83 189.11,-26.47"/>
<polygon fill="black" stroke="black" points="190.09,-29.84 199.21,-24.44 188.72,-22.98 190.09,-29.84"/>
<text text-anchor="middle" x="187.13" y="-29.63" font-family="Times-Roman" font-size="14.00">&#45;</text>
</g>
<!-- Salary&#45;&gt;Hiring Quality -->
<g id="edge27" class="edge">
<title>Salary&#45;&gt;Hiring Quality</title>
<path fill="none" stroke="black" d="M115,-545.81C115,-537.79 115,-528.05 115,-519.07"/>
<polygon fill="black" stroke="black" points="118.5,-519.03 115,-509.03 111.5,-519.03 118.5,-519.03"/>
</g>
<!-- Candidate Quality&#45;&gt;Hiring Quality -->
<g id="edge29" class="edge">
<title>Candidate Quality&#45;&gt;Hiring Quality</title>
<path fill="none" stroke="black" d="M186.09,-109.09C168.63,-121.5 150,-140.11 150,-163 150,-419 150,-419 150,-419 150,-435.19 142.59,-451.52 134.58,-464.42"/>
<polygon fill="black" stroke="black" points="131.66,-462.5 129.03,-472.77 137.49,-466.38 131.66,-462.5"/>
<text text-anchor="middle" x="131.28" y="-454.24" font-family="Times-Roman" font-size="14.00">+</text>
</g>
<!-- Customer Satisfaction&#45;&gt;Reputation -->
<g id="edge33" class="edge">
<title>Customer Satisfaction&#45;&gt;Reputation</title>
<path fill="none" stroke="black" d="M584.62,-272.69C569.41,-252.57 541.79,-219.64 511,-200 496.76,-190.92 479.9,-183.91 463.98,-178.63"/>
<polygon fill="black" stroke="black" points="464.82,-175.23 454.23,-175.57 462.72,-181.9 464.82,-175.23"/>
<text text-anchor="middle" x="469.1" y="-169.89" font-family="Times-Roman" font-size="14.00">+</text>
</g>
</g>
</svg>
