<?xml version="1.0" encoding="UTF-8" standalone="no"?>
<!DOCTYPE svg PUBLIC "-//W3C//DTD SVG 1.1//EN"
 "http://www.w3.org/Graphics/SVG/1.1/DTD/svg11.dtd">
<!-- Generated by graphviz version 2.43.0 (0)
 -->
<!-- Title: mygraph Pages: 1 -->
<svg width="468pt" height="476pt"
 viewBox="0.00 0.00 468.00 476.00" xmlns="http://www.w3.org/2000/svg" xmlns:xlink="http://www.w3.org/1999/xlink">
<g id="graph0" class="graph" transform="scale(1 1) rotate(0) translate(4 472)">
<title>mygraph</title>
<polygon fill="white" stroke="transparent" points="-4,4 -4,-472 464,-472 464,4 -4,4"/>
<!-- Inbound Demand -->
<g id="node1" class="node">
<title>Inbound Demand</title>
<text text-anchor="middle" x="112" y="-302.3" font-family="Times-Roman" font-size="14.00">Inbound Demand</text>
</g>
<!-- Qualification calls -->
<g id="node2" class="node">
<title>Qualification calls</title>
<text text-anchor="middle" x="112" y="-230.3" font-family="Times-Roman" font-size="14.00">Qualification calls</text>
</g>
<!-- Inbound Demand&#45;&gt;Qualification calls -->
<g id="edge1" class="edge">
<title>Inbound Demand&#45;&gt;Qualification calls</title>
<path fill="none" stroke="black" d="M112,-287.7C112,-279.98 112,-270.71 112,-262.11"/>
<polygon fill="black" stroke="black" points="115.5,-262.1 112,-252.1 108.5,-262.1 115.5,-262.1"/>
<text text-anchor="middle" x="118.34" y="-262" font-family="Times-Roman" font-size="14.00">+</text>
</g>
<!-- Project offerings -->
<g id="node3" class="node">
<title>Project offerings</title>
<text text-anchor="middle" x="131" y="-158.3" font-family="Times-Roman" font-size="14.00">Project offerings</text>
</g>
<!-- Qualification calls&#45;&gt;Project offerings -->
<g id="edge2" class="edge">
<title>Qualification calls&#45;&gt;Project offerings</title>
<path fill="none" stroke="black" d="M116.7,-215.7C118.81,-207.9 121.36,-198.51 123.72,-189.83"/>
<polygon fill="black" stroke="black" points="127.12,-190.67 126.36,-180.1 120.36,-188.84 127.12,-190.67"/>
<text text-anchor="middle" x="128.91" y="-191.18" font-family="Times-Roman" font-size="14.00">+</text>
</g>
<!-- Closed deals -->
<g id="node6" class="node">
<title>Closed deals</title>
<text text-anchor="middle" x="131" y="-86.3" font-family="Times-Roman" font-size="14.00">Closed deals</text>
</g>
<!-- Project offerings&#45;&gt;Closed deals -->
<g id="edge6" class="edge">
<title>Project offerings&#45;&gt;Closed deals</title>
<path fill="none" stroke="black" d="M131,-143.7C131,-135.98 131,-126.71 131,-118.11"/>
<polygon fill="black" stroke="black" points="134.5,-118.1 131,-108.1 127.5,-118.1 134.5,-118.1"/>
<text text-anchor="middle" x="137.34" y="-118" font-family="Times-Roman" font-size="14.00">+</text>
</g>
<!-- Bench Engineers -->
<g id="node4" class="node">
<title>Bench Engineers</title>
<text text-anchor="middle" x="84" y="-14.3" font-family="Times-Roman" font-size="14.00">Bench Engineers</text>
</g>
<!-- Bench Engineers&#45;&gt;Qualification calls -->
<g id="edge3" class="edge">
<title>Bench Engineers&#45;&gt;Qualification calls</title>
<path fill="none" stroke="black" d="M75.11,-36.18C60.75,-66.44 36.04,-130.7 57,-180 61.73,-191.14 70.08,-201.07 78.87,-209.24"/>
<polygon fill="black" stroke="black" points="76.77,-212.05 86.62,-215.95 81.35,-206.76 76.77,-212.05"/>
<text text-anchor="middle" x="72.19" y="-208.15" font-family="Times-Roman" font-size="14.00">+</text>
</g>
<!-- Bench Engineers&#45;&gt;Closed deals -->
<g id="edge7" class="edge">
<title>Bench Engineers&#45;&gt;Closed deals</title>
<path fill="none" stroke="black" d="M101.38,-36.1C107.67,-44.21 114.51,-54.08 120.14,-63.08"/>
<polygon fill="black" stroke="black" points="117.16,-64.91 125.3,-71.7 123.17,-61.32 117.16,-64.91"/>
<text text-anchor="middle" x="112.88" y="-59.59" font-family="Times-Roman" font-size="14.00">+</text>
</g>
<!-- Bench Quality -->
<g id="node5" class="node">
<title>Bench Quality</title>
<text text-anchor="middle" x="243" y="-374.3" font-family="Times-Roman" font-size="14.00">Bench Quality</text>
</g>
<!-- Bench Quality&#45;&gt;Closed deals -->
<g id="edge4" class="edge">
<title>Bench Quality&#45;&gt;Closed deals</title>
<path fill="none" stroke="black" d="M244.33,-359.98C246.67,-319.3 247.72,-214.62 204,-144 196.5,-131.89 185.12,-121.7 173.56,-113.59"/>
<polygon fill="black" stroke="black" points="175.44,-110.63 165.17,-108.05 171.59,-116.48 175.44,-110.63"/>
<text text-anchor="middle" x="180.01" y="-106.54" font-family="Times-Roman" font-size="14.00">+</text>
</g>
<!-- Reputation -->
<g id="node7" class="node">
<title>Reputation</title>
<text text-anchor="middle" x="298" y="-158.3" font-family="Times-Roman" font-size="14.00">Reputation</text>
</g>
<!-- Bench Quality&#45;&gt;Reputation -->
<g id="edge5" class="edge">
<title>Bench Quality&#45;&gt;Reputation</title>
<path fill="none" stroke="black" d="M246.56,-359.97C252.83,-330.46 266.54,-268.02 281,-216 283.39,-207.4 286.27,-198.1 288.98,-189.72"/>
<polygon fill="black" stroke="black" points="292.35,-190.68 292.14,-180.08 285.7,-188.49 292.35,-190.68"/>
<text text-anchor="middle" x="293.92" y="-191.28" font-family="Times-Roman" font-size="14.00">+</text>
</g>
<!-- Team Quality -->
<g id="node9" class="node">
<title>Team Quality</title>
<text text-anchor="middle" x="359" y="-302.3" font-family="Times-Roman" font-size="14.00">Team Quality</text>
</g>
<!-- Bench Quality&#45;&gt;Team Quality -->
<g id="edge12" class="edge">
<title>Bench Quality&#45;&gt;Team Quality</title>
<path fill="none" stroke="black" d="M271.38,-359.88C286.54,-350.72 305.41,-339.34 321.74,-329.48"/>
<polygon fill="black" stroke="black" points="323.76,-332.35 330.51,-324.19 320.14,-326.36 323.76,-332.35"/>
<text text-anchor="middle" x="322.15" y="-332.94" font-family="Times-Roman" font-size="14.00">+</text>
</g>
<!-- Closed deals&#45;&gt;Bench Engineers -->
<g id="edge9" class="edge">
<title>Closed deals&#45;&gt;Bench Engineers</title>
<path fill="none" stroke="black" d="M113.47,-71.7C107.16,-63.56 100.33,-53.69 94.72,-44.7"/>
<polygon fill="black" stroke="black" points="97.72,-42.9 89.59,-36.1 91.71,-46.48 97.72,-42.9"/>
<text text-anchor="middle" x="102" y="-40.83" font-family="Times-Roman" font-size="14.00">&#45;</text>
</g>
<!-- Reputation&#45;&gt;Closed deals -->
<g id="edge8" class="edge">
<title>Reputation&#45;&gt;Closed deals</title>
<path fill="none" stroke="black" d="M257.15,-143.88C234.22,-134.26 205.42,-122.19 181.13,-112.01"/>
<polygon fill="black" stroke="black" points="182.3,-108.71 171.72,-108.07 179.59,-115.16 182.3,-108.71"/>
<text text-anchor="middle" x="186.71" y="-103.78" font-family="Times-Roman" font-size="14.00">+</text>
</g>
<!-- Hiring -->
<g id="node8" class="node">
<title>Hiring</title>
<text text-anchor="middle" x="112" y="-446.3" font-family="Times-Roman" font-size="14.00">Hiring</text>
</g>
<!-- Hiring&#45;&gt;Bench Engineers -->
<g id="edge10" class="edge">
<title>Hiring&#45;&gt;Bench Engineers</title>
<path fill="none" stroke="black" d="M85.46,-431.85C52.34,-408.13 0,-361.95 0,-307 0,-307 0,-307 0,-161 0,-114.6 33.64,-70.06 58.34,-43.6"/>
<polygon fill="black" stroke="black" points="60.95,-45.95 65.36,-36.31 55.9,-41.09 60.95,-45.95"/>
<text text-anchor="middle" x="60.5" y="-46.81" font-family="Times-Roman" font-size="14.00">+</text>
</g>
<!-- Hiring&#45;&gt;Bench Quality -->
<g id="edge11" class="edge">
<title>Hiring&#45;&gt;Bench Quality</title>
<path fill="none" stroke="black" d="M141.73,-433.12C159.58,-423.57 182.55,-411.3 202.11,-400.85"/>
<polygon fill="black" stroke="black" points="203.93,-403.84 211.1,-396.04 200.63,-397.67 203.93,-403.84"/>
<text text-anchor="middle" x="202.1" y="-404.34" font-family="Times-Roman" font-size="14.00">&#45;</text>
</g>
<!-- Customer Satisfaction -->
<g id="node10" class="node">
<title>Customer Satisfaction</title>
<text text-anchor="middle" x="375" y="-230.3" font-family="Times-Roman" font-size="14.00">Customer Satisfaction</text>
</g>
<!-- Team Quality&#45;&gt;Customer Satisfaction -->
<g id="edge13" class="edge">
<title>Team Quality&#45;&gt;Customer Satisfaction</title>
<path fill="none" stroke="black" d="M362.96,-287.7C364.72,-279.98 366.84,-270.71 368.8,-262.11"/>
<polygon fill="black" stroke="black" points="372.27,-262.63 371.09,-252.1 365.45,-261.07 372.27,-262.63"/>
<text text-anchor="middle" x="374.24" y="-263.07" font-family="Times-Roman" font-size="14.00">+</text>
</g>
<!-- Customer Satisfaction&#45;&gt;Reputation -->
<g id="edge14" class="edge">
<title>Customer Satisfaction&#45;&gt;Reputation</title>
<path fill="none" stroke="black" d="M355.97,-215.7C346.46,-207.05 334.79,-196.45 324.43,-187.03"/>
<polygon fill="black" stroke="black" points="326.57,-184.24 316.81,-180.1 321.86,-189.42 326.57,-184.24"/>
<text text-anchor="middle" x="331.14" y="-180.86" font-family="Times-Roman" font-size="14.00">+</text>
</g>
</g>
</svg>
