<?xml version="1.0" encoding="UTF-8" standalone="no"?>
<!DOCTYPE svg PUBLIC "-//W3C//DTD SVG 1.1//EN"
 "http://www.w3.org/Graphics/SVG/1.1/DTD/svg11.dtd">
<!-- Generated by graphviz version 2.43.0 (0)
 -->
<!-- Title: mygraph Pages: 1 -->
<svg width="956pt" height="823pt"
 viewBox="0.00 0.00 955.50 823.00" xmlns="http://www.w3.org/2000/svg" xmlns:xlink="http://www.w3.org/1999/xlink">
<g id="graph0" class="graph" transform="scale(1 1) rotate(0) translate(4 819)">
<title>mygraph</title>
<polygon fill="white" stroke="transparent" points="-4,4 -4,-819 951.5,-819 951.5,4 -4,4"/>
<!-- Inbound Demand -->
<g id="node1" class="node">
<title>Inbound Demand</title>
<text text-anchor="middle" x="118.5" y="-793.3" font-family="Times-Roman" font-size="14.00">Inbound Demand</text>
</g>
<!-- Qualification calls -->
<g id="node2" class="node">
<title>Qualification calls</title>
<text text-anchor="middle" x="69.5" y="-720.3" font-family="Times-Roman" font-size="14.00">Qualification calls</text>
</g>
<!-- Inbound Demand&#45;&gt;Qualification calls -->
<g id="edge1" class="edge">
<title>Inbound Demand&#45;&gt;Qualification calls</title>
<path fill="none" stroke="black" d="M106.64,-778.81C100.74,-770.27 93.5,-759.77 86.98,-750.32"/>
<polygon fill="black" stroke="black" points="89.81,-748.27 81.25,-742.03 84.05,-752.25 89.81,-748.27"/>
<text text-anchor="middle" x="94.19" y="-745.92" font-family="Times-Roman" font-size="14.00">+</text>
</g>
<!-- Project Offerings -->
<g id="node3" class="node">
<title>Project Offerings</title>
<text text-anchor="middle" x="280.5" y="-647.3" font-family="Times-Roman" font-size="14.00">Project Offerings</text>
</g>
<!-- Qualification calls&#45;&gt;Project Offerings -->
<g id="edge2" class="edge">
<title>Qualification calls&#45;&gt;Project Offerings</title>
<path fill="none" stroke="black" d="M120.04,-705.99C150.09,-695.88 188.4,-682.99 220.05,-672.34"/>
<polygon fill="black" stroke="black" points="221.28,-675.62 229.64,-669.11 219.05,-668.99 221.28,-675.62"/>
<text text-anchor="middle" x="218.78" y="-675.76" font-family="Times-Roman" font-size="14.00">+</text>
</g>
<!-- Closed Deals -->
<g id="node6" class="node">
<title>Closed Deals</title>
<text text-anchor="middle" x="530.5" y="-574.3" font-family="Times-Roman" font-size="14.00">Closed Deals</text>
</g>
<!-- Project Offerings&#45;&gt;Closed Deals -->
<g id="edge8" class="edge">
<title>Project Offerings&#45;&gt;Closed Deals</title>
<path fill="none" stroke="black" d="M340.38,-632.99C378.87,-622.06 428.78,-607.89 467.8,-596.81"/>
<polygon fill="black" stroke="black" points="468.81,-600.16 477.48,-594.06 466.9,-593.42 468.81,-600.16"/>
<text text-anchor="middle" x="466.13" y="-600.17" font-family="Times-Roman" font-size="14.00">+</text>
</g>
<!-- Hiring Target -->
<g id="node10" class="node">
<title>Hiring Target</title>
<text text-anchor="middle" x="280.5" y="-574.3" font-family="Times-Roman" font-size="14.00">Hiring Target</text>
</g>
<!-- Project Offerings&#45;&gt;Hiring Target -->
<g id="edge9" class="edge">
<title>Project Offerings&#45;&gt;Hiring Target</title>
<path fill="none" stroke="black" d="M280.5,-632.81C280.5,-624.79 280.5,-615.05 280.5,-606.07"/>
<polygon fill="black" stroke="black" points="284,-606.03 280.5,-596.03 277,-606.03 284,-606.03"/>
<text text-anchor="middle" x="286.84" y="-605.92" font-family="Times-Roman" font-size="14.00">+</text>
</g>
<!-- Bench Engineers -->
<g id="node4" class="node">
<title>Bench Engineers</title>
<text text-anchor="middle" x="802.5" y="-14.3" font-family="Times-Roman" font-size="14.00">Bench Engineers</text>
</g>
<!-- Bench Engineers&#45;&gt;Qualification calls -->
<g id="edge3" class="edge">
<title>Bench Engineers&#45;&gt;Qualification calls</title>
<path fill="none" stroke="black" d="M735.32,-18.65C556.33,-18.62 81.5,-24.67 81.5,-90 81.5,-652 81.5,-652 81.5,-652 81.5,-666.7 78.97,-682.87 76.23,-696.06"/>
<polygon fill="black" stroke="black" points="72.79,-695.4 74.04,-705.92 79.63,-696.92 72.79,-695.4"/>
<text text-anchor="middle" x="70.8" y="-687.57" font-family="Times-Roman" font-size="14.00">+</text>
</g>
<!-- Bench Engineers&#45;&gt;Closed Deals -->
<g id="edge10" class="edge">
<title>Bench Engineers&#45;&gt;Closed Deals</title>
<path fill="none" stroke="black" d="M869.73,-26.83C907.69,-35.36 947.5,-53.11 947.5,-90 947.5,-506 947.5,-506 947.5,-506 947.5,-541.07 710.5,-563.92 593.78,-572.81"/>
<polygon fill="black" stroke="black" points="593.26,-569.34 583.55,-573.58 593.78,-576.32 593.26,-569.34"/>
<text text-anchor="middle" x="596.63" y="-562.54" font-family="Times-Roman" font-size="14.00">+</text>
</g>
<!-- Team Quality -->
<g id="node5" class="node">
<title>Team Quality</title>
<text text-anchor="middle" x="599.5" y="-393.3" font-family="Times-Roman" font-size="14.00">Team Quality</text>
</g>
<!-- Team Quality&#45;&gt;Closed Deals -->
<g id="edge4" class="edge">
<title>Team Quality&#45;&gt;Closed Deals</title>
<path fill="none" stroke="black" d="M588.2,-415.02C577.12,-432.43 560.47,-460.6 550.5,-487 542.75,-507.53 537.56,-531.88 534.42,-550.07"/>
<polygon fill="black" stroke="black" points="530.96,-549.57 532.8,-560 537.87,-550.69 530.96,-549.57"/>
<text text-anchor="middle" x="528.73" y="-541.86" font-family="Times-Roman" font-size="14.00">+</text>
</g>
<!-- Open Source Contributions -->
<g id="node8" class="node">
<title>Open Source Contributions</title>
<text text-anchor="middle" x="599.5" y="-320.3" font-family="Times-Roman" font-size="14.00">Open Source Contributions</text>
</g>
<!-- Team Quality&#45;&gt;Open Source Contributions -->
<g id="edge6" class="edge">
<title>Team Quality&#45;&gt;Open Source Contributions</title>
<path fill="none" stroke="black" d="M599.5,-378.81C599.5,-370.79 599.5,-361.05 599.5,-352.07"/>
<polygon fill="black" stroke="black" points="603,-352.03 599.5,-342.03 596,-352.03 603,-352.03"/>
<text text-anchor="middle" x="605.84" y="-351.92" font-family="Times-Roman" font-size="14.00">+</text>
</g>
<!-- Failed Project Rate -->
<g id="node14" class="node">
<title>Failed Project Rate</title>
<text text-anchor="middle" x="791.5" y="-320.3" font-family="Times-Roman" font-size="14.00">Failed Project Rate</text>
</g>
<!-- Team Quality&#45;&gt;Failed Project Rate -->
<g id="edge19" class="edge">
<title>Team Quality&#45;&gt;Failed Project Rate</title>
<path fill="none" stroke="black" d="M645.49,-378.99C672.6,-368.97 707.09,-356.21 735.75,-345.62"/>
<polygon fill="black" stroke="black" points="737.06,-348.86 745.22,-342.11 734.63,-342.3 737.06,-348.86"/>
<text text-anchor="middle" x="734.67" y="-349.07" font-family="Times-Roman" font-size="14.00">&#45;</text>
</g>
<!-- Customer Satisfaction -->
<g id="node18" class="node">
<title>Customer Satisfaction</title>
<text text-anchor="middle" x="394.5" y="-320.3" font-family="Times-Roman" font-size="14.00">Customer Satisfaction</text>
</g>
<!-- Team Quality&#45;&gt;Customer Satisfaction -->
<g id="edge28" class="edge">
<title>Team Quality&#45;&gt;Customer Satisfaction</title>
<path fill="none" stroke="black" d="M550.4,-378.99C521.32,-368.92 484.3,-356.1 453.63,-345.48"/>
<polygon fill="black" stroke="black" points="454.51,-342.08 443.91,-342.11 452.22,-348.69 454.51,-342.08"/>
<text text-anchor="middle" x="458.83" y="-336.87" font-family="Times-Roman" font-size="14.00">+</text>
</g>
<!-- Closed Deals&#45;&gt;Bench Engineers -->
<g id="edge16" class="edge">
<title>Closed Deals&#45;&gt;Bench Engineers</title>
<path fill="none" stroke="black" d="M583.52,-572.83C692.16,-563.96 929.5,-541.1 929.5,-506 929.5,-506 929.5,-506 929.5,-90 929.5,-61.65 905.99,-44.6 879.16,-34.35"/>
<polygon fill="black" stroke="black" points="880.16,-31 869.56,-31.01 877.85,-37.6 880.16,-31"/>
<text text-anchor="middle" x="884.49" y="-25.8" font-family="Times-Roman" font-size="14.00">&#45;</text>
</g>
<!-- Project Engineers -->
<g id="node11" class="node">
<title>Project Engineers</title>
<text text-anchor="middle" x="627.5" y="-501.3" font-family="Times-Roman" font-size="14.00">Project Engineers</text>
</g>
<!-- Closed Deals&#45;&gt;Project Engineers -->
<g id="edge11" class="edge">
<title>Closed Deals&#45;&gt;Project Engineers</title>
<path fill="none" stroke="black" d="M553.98,-559.81C566.61,-550.57 582.36,-539.04 596.03,-529.03"/>
<polygon fill="black" stroke="black" points="598.23,-531.76 604.24,-523.03 594.1,-526.11 598.23,-531.76"/>
<text text-anchor="middle" x="597.01" y="-532.47" font-family="Times-Roman" font-size="14.00">+</text>
</g>
<!-- Accomplished Projects -->
<g id="node13" class="node">
<title>Accomplished Projects</title>
<text text-anchor="middle" x="429.5" y="-447.3" font-family="Times-Roman" font-size="14.00">Accomplished Projects</text>
</g>
<!-- Closed Deals&#45;&gt;Accomplished Projects -->
<g id="edge17" class="edge">
<title>Closed Deals&#45;&gt;Accomplished Projects</title>
<path fill="none" stroke="black" d="M516.67,-559.88C499.39,-538.5 469.68,-501.73 449.82,-477.14"/>
<polygon fill="black" stroke="black" points="452.5,-474.89 443.49,-469.31 447.05,-479.29 452.5,-474.89"/>
<text text-anchor="middle" x="456.96" y="-472.2" font-family="Times-Roman" font-size="14.00">+</text>
</g>
<!-- Price -->
<g id="node7" class="node">
<title>Price</title>
<text text-anchor="middle" x="530.5" y="-647.3" font-family="Times-Roman" font-size="14.00">Price</text>
</g>
<!-- Price&#45;&gt;Closed Deals -->
<g id="edge5" class="edge">
<title>Price&#45;&gt;Closed Deals</title>
<path fill="none" stroke="black" d="M530.5,-632.81C530.5,-624.79 530.5,-615.05 530.5,-606.07"/>
<polygon fill="black" stroke="black" points="534,-606.03 530.5,-596.03 527,-606.03 534,-606.03"/>
<text text-anchor="middle" x="536.84" y="-605.92" font-family="Times-Roman" font-size="14.00">&#45;</text>
</g>
<!-- Reputation -->
<g id="node9" class="node">
<title>Reputation</title>
<text text-anchor="middle" x="394.5" y="-233.3" font-family="Times-Roman" font-size="14.00">Reputation</text>
</g>
<!-- Open Source Contributions&#45;&gt;Reputation -->
<g id="edge7" class="edge">
<title>Open Source Contributions&#45;&gt;Reputation</title>
<path fill="none" stroke="black" d="M558.02,-305.8C525.4,-292.27 479.82,-273.38 445.07,-258.97"/>
<polygon fill="black" stroke="black" points="446.15,-255.63 435.57,-255.03 443.47,-262.09 446.15,-255.63"/>
<text text-anchor="middle" x="528.5" y="-276.8" font-family="Times-Roman" font-size="14.00">delay</text>
<text text-anchor="middle" x="450.56" y="-250.68" font-family="Times-Roman" font-size="14.00">+</text>
</g>
<!-- Reputation&#45;&gt;Inbound Demand -->
<g id="edge15" class="edge">
<title>Reputation&#45;&gt;Inbound Demand</title>
<path fill="none" stroke="black" d="M348.29,-245.65C281.92,-257.97 167.5,-284.76 167.5,-323 167.5,-725 167.5,-725 167.5,-725 167.5,-742.61 157.16,-759.02 145.98,-771.62"/>
<polygon fill="black" stroke="black" points="143.36,-769.3 139,-778.95 148.43,-774.13 143.36,-769.3"/>
<text text-anchor="middle" x="143.79" y="-761.04" font-family="Times-Roman" font-size="14.00">+</text>
</g>
<!-- Reputation&#45;&gt;Closed Deals -->
<g id="edge13" class="edge">
<title>Reputation&#45;&gt;Closed Deals</title>
<path fill="none" stroke="black" d="M348.37,-244.25C303.97,-253.17 243.5,-274.26 243.5,-323 243.5,-506 243.5,-506 243.5,-506 243.5,-551.75 382.65,-568.21 467.17,-573.99"/>
<polygon fill="black" stroke="black" points="466.98,-577.49 477.19,-574.64 467.44,-570.5 466.98,-577.49"/>
<text text-anchor="middle" x="463.21" y="-576.39" font-family="Times-Roman" font-size="14.00">+</text>
</g>
<!-- Candidate Number -->
<g id="node12" class="node">
<title>Candidate Number</title>
<text text-anchor="middle" x="394.5" y="-160.3" font-family="Times-Roman" font-size="14.00">Candidate Number</text>
</g>
<!-- Reputation&#45;&gt;Candidate Number -->
<g id="edge14" class="edge">
<title>Reputation&#45;&gt;Candidate Number</title>
<path fill="none" stroke="black" d="M394.5,-218.81C394.5,-210.79 394.5,-201.05 394.5,-192.07"/>
<polygon fill="black" stroke="black" points="398,-192.03 394.5,-182.03 391,-192.03 398,-192.03"/>
<text text-anchor="middle" x="400.84" y="-191.92" font-family="Times-Roman" font-size="14.00">+</text>
</g>
<!-- Candidate Quality -->
<g id="node17" class="node">
<title>Candidate Quality</title>
<text text-anchor="middle" x="694.5" y="-160.3" font-family="Times-Roman" font-size="14.00">Candidate Quality</text>
</g>
<!-- Reputation&#45;&gt;Candidate Quality -->
<g id="edge27" class="edge">
<title>Reputation&#45;&gt;Candidate Quality</title>
<path fill="none" stroke="black" d="M440.72,-225.06C486.85,-214.14 558.66,-197.15 614.13,-184.02"/>
<polygon fill="black" stroke="black" points="615.02,-187.41 623.94,-181.7 613.4,-180.6 615.02,-187.41"/>
<text text-anchor="middle" x="612.17" y="-187.3" font-family="Times-Roman" font-size="14.00">+</text>
</g>
<!-- Hiring Number -->
<g id="node15" class="node">
<title>Hiring Number</title>
<text text-anchor="middle" x="394.5" y="-87.3" font-family="Times-Roman" font-size="14.00">Hiring Number</text>
</g>
<!-- Hiring Target&#45;&gt;Hiring Number -->
<g id="edge23" class="edge">
<title>Hiring Target&#45;&gt;Hiring Number</title>
<path fill="none" stroke="black" d="M244.76,-559.82C225.44,-547.8 205.5,-529.67 205.5,-506 205.5,-506 205.5,-506 205.5,-163 205.5,-136.56 271.13,-116.63 325.05,-104.71"/>
<polygon fill="black" stroke="black" points="325.92,-108.1 334.96,-102.58 324.45,-101.26 325.92,-108.1"/>
<text text-anchor="middle" x="323" y="-107.94" font-family="Times-Roman" font-size="14.00">+</text>
</g>
<!-- Hiring Quality -->
<g id="node16" class="node">
<title>Hiring Quality</title>
<text text-anchor="middle" x="328.5" y="-501.3" font-family="Times-Roman" font-size="14.00">Hiring Quality</text>
</g>
<!-- Hiring Target&#45;&gt;Hiring Quality -->
<g id="edge24" class="edge">
<title>Hiring Target&#45;&gt;Hiring Quality</title>
<path fill="none" stroke="black" d="M292.12,-559.81C297.9,-551.27 304.99,-540.77 311.38,-531.32"/>
<polygon fill="black" stroke="black" points="314.29,-533.27 316.99,-523.03 308.49,-529.35 314.29,-533.27"/>
<text text-anchor="middle" x="314.63" y="-534.14" font-family="Times-Roman" font-size="14.00">&#45;</text>
</g>
<!-- Project Engineers&#45;&gt;Team Quality -->
<g id="edge12" class="edge">
<title>Project Engineers&#45;&gt;Team Quality</title>
<path fill="none" stroke="black" d="M623,-486.97C618.6,-470.3 611.82,-444.65 606.67,-425.16"/>
<polygon fill="black" stroke="black" points="610.02,-424.12 604.08,-415.34 603.25,-425.9 610.02,-424.12"/>
<text text-anchor="middle" x="636.5" y="-447.3" font-family="Times-Roman" font-size="14.00">delay</text>
<text text-anchor="middle" x="613.68" y="-423.17" font-family="Times-Roman" font-size="14.00">+</text>
</g>
<!-- Candidate Number&#45;&gt;Hiring Number -->
<g id="edge26" class="edge">
<title>Candidate Number&#45;&gt;Hiring Number</title>
<path fill="none" stroke="black" d="M394.5,-145.81C394.5,-137.79 394.5,-128.05 394.5,-119.07"/>
<polygon fill="black" stroke="black" points="398,-119.03 394.5,-109.03 391,-119.03 398,-119.03"/>
<text text-anchor="middle" x="400.84" y="-118.92" font-family="Times-Roman" font-size="14.00">+</text>
</g>
<!-- Accomplished Projects&#45;&gt;Reputation -->
<g id="edge18" class="edge">
<title>Accomplished Projects&#45;&gt;Reputation</title>
<path fill="none" stroke="black" d="M395.55,-432.85C364.31,-414.96 319.97,-383.68 300.5,-342 293.73,-327.5 293.22,-320.25 300.5,-306 310.5,-286.42 329.06,-271.18 347.06,-260.13"/>
<polygon fill="black" stroke="black" points="348.93,-263.1 355.81,-255.05 345.41,-257.04 348.93,-263.1"/>
<text text-anchor="middle" x="347.25" y="-263.66" font-family="Times-Roman" font-size="14.00">+</text>
</g>
<!-- Failed Project Rate&#45;&gt;Reputation -->
<g id="edge20" class="edge">
<title>Failed Project Rate&#45;&gt;Reputation</title>
<path fill="none" stroke="black" d="M719.61,-307.61C642.4,-291.08 521.35,-265.16 450.78,-250.05"/>
<polygon fill="black" stroke="black" points="451.26,-246.57 440.75,-247.9 449.8,-253.42 451.26,-246.57"/>
<text text-anchor="middle" x="455.37" y="-240.85" font-family="Times-Roman" font-size="14.00">&#45;</text>
</g>
<!-- Hiring Number&#45;&gt;Bench Engineers -->
<g id="edge21" class="edge">
<title>Hiring Number&#45;&gt;Bench Engineers</title>
<path fill="none" stroke="black" d="M454.26,-79.6C526.11,-67.1 646.84,-46.09 725.58,-32.39"/>
<polygon fill="black" stroke="black" points="726.2,-35.83 735.45,-30.67 725,-28.93 726.2,-35.83"/>
<text text-anchor="middle" x="723.14" y="-35.54" font-family="Times-Roman" font-size="14.00">+</text>
</g>
<!-- Hiring Quality&#45;&gt;Team Quality -->
<g id="edge22" class="edge">
<title>Hiring Quality&#45;&gt;Team Quality</title>
<path fill="none" stroke="black" d="M326.73,-486.74C326.11,-470.47 328.05,-446.61 342.5,-433 369.58,-407.48 468.8,-400.32 535.74,-398.46"/>
<polygon fill="black" stroke="black" points="535.87,-401.95 545.78,-398.21 535.69,-394.96 535.87,-401.95"/>
<text text-anchor="middle" x="532.34" y="-401.18" font-family="Times-Roman" font-size="14.00">&#45;</text>
</g>
<!-- Candidate Quality&#45;&gt;Team Quality -->
<g id="edge25" class="edge">
<title>Candidate Quality&#45;&gt;Team Quality</title>
<path fill="none" stroke="black" d="M735.71,-182.07C803.17,-212.39 924.72,-278.44 872.5,-342 846.56,-373.58 735.67,-387 663.45,-392.48"/>
<polygon fill="black" stroke="black" points="662.81,-389.01 653.09,-393.23 663.32,-395.99 662.81,-389.01"/>
<text text-anchor="middle" x="666.19" y="-382.22" font-family="Times-Roman" font-size="14.00">+</text>
</g>
<!-- Customer Satisfaction&#45;&gt;Reputation -->
<g id="edge29" class="edge">
<title>Customer Satisfaction&#45;&gt;Reputation</title>
<path fill="none" stroke="black" d="M394.5,-305.8C394.5,-294.16 394.5,-278.55 394.5,-265.24"/>
<polygon fill="black" stroke="black" points="398,-265.18 394.5,-255.18 391,-265.18 398,-265.18"/>
<text text-anchor="middle" x="400.84" y="-265.07" font-family="Times-Roman" font-size="14.00">+</text>
</g>
</g>
</svg>
