<?xml version="1.0" encoding="UTF-8" standalone="no"?>
<!DOCTYPE svg PUBLIC "-//W3C//DTD SVG 1.1//EN"
 "http://www.w3.org/Graphics/SVG/1.1/DTD/svg11.dtd">
<!-- Generated by graphviz version 2.43.0 (0)
 -->
<!-- Title: mygraph Pages: 1 -->
<svg width="456pt" height="332pt"
 viewBox="0.00 0.00 455.50 332.00" xmlns="http://www.w3.org/2000/svg" xmlns:xlink="http://www.w3.org/1999/xlink">
<g id="graph0" class="graph" transform="scale(1 1) rotate(0) translate(4 328)">
<title>mygraph</title>
<polygon fill="white" stroke="transparent" points="-4,4 -4,-328 451.5,-328 451.5,4 -4,4"/>
<!-- Inbound Demand -->
<g id="node1" class="node">
<title>Inbound Demand</title>
<text text-anchor="middle" x="68.5" y="-302.3" font-family="Times-Roman" font-size="14.00">Inbound Demand</text>
</g>
<!-- Opportunity Rate -->
<g id="node2" class="node">
<title>Opportunity Rate</title>
<text text-anchor="middle" x="173.5" y="-230.3" font-family="Times-Roman" font-size="14.00">Opportunity Rate</text>
</g>
<!-- Inbound Demand&#45;&gt;Opportunity Rate -->
<g id="edge1" class="edge">
<title>Inbound Demand&#45;&gt;Opportunity Rate</title>
<path fill="none" stroke="black" d="M94.19,-287.88C107.79,-278.81 124.67,-267.55 139.36,-257.76"/>
<polygon fill="black" stroke="black" points="141.34,-260.65 147.72,-252.19 137.45,-254.82 141.34,-260.65"/>
<text text-anchor="middle" x="139.92" y="-261.31" font-family="Times-Roman" font-size="14.00">+</text>
</g>
<!-- Closed Deal Rate -->
<g id="node4" class="node">
<title>Closed Deal Rate</title>
<text text-anchor="middle" x="252.5" y="-158.3" font-family="Times-Roman" font-size="14.00">Closed Deal Rate</text>
</g>
<!-- Opportunity Rate&#45;&gt;Closed Deal Rate -->
<g id="edge3" class="edge">
<title>Opportunity Rate&#45;&gt;Closed Deal Rate</title>
<path fill="none" stroke="black" d="M193.03,-215.7C202.88,-206.97 214.99,-196.24 225.7,-186.75"/>
<polygon fill="black" stroke="black" points="228.03,-189.36 233.2,-180.1 223.39,-184.12 228.03,-189.36"/>
<text text-anchor="middle" x="227.23" y="-190.16" font-family="Times-Roman" font-size="14.00">+</text>
</g>
<!-- Outbound Demand -->
<g id="node3" class="node">
<title>Outbound Demand</title>
<text text-anchor="middle" x="229.5" y="-302.3" font-family="Times-Roman" font-size="14.00">Outbound Demand</text>
</g>
<!-- Outbound Demand&#45;&gt;Opportunity Rate -->
<g id="edge2" class="edge">
<title>Outbound Demand&#45;&gt;Opportunity Rate</title>
<path fill="none" stroke="black" d="M215.66,-287.7C209.01,-279.39 200.92,-269.28 193.61,-260.14"/>
<polygon fill="black" stroke="black" points="196.16,-257.73 187.18,-252.1 190.7,-262.1 196.16,-257.73"/>
<text text-anchor="middle" x="200.63" y="-255.06" font-family="Times-Roman" font-size="14.00">+</text>
</g>
<!-- Accomplished Project Rate -->
<g id="node7" class="node">
<title>Accomplished Project Rate</title>
<text text-anchor="middle" x="196.5" y="-86.3" font-family="Times-Roman" font-size="14.00">Accomplished Project Rate</text>
</g>
<!-- Closed Deal Rate&#45;&gt;Accomplished Project Rate -->
<g id="edge6" class="edge">
<title>Closed Deal Rate&#45;&gt;Accomplished Project Rate</title>
<path fill="none" stroke="black" d="M238.66,-143.7C232.01,-135.39 223.92,-125.28 216.61,-116.14"/>
<polygon fill="black" stroke="black" points="219.16,-113.73 210.18,-108.1 213.7,-118.1 219.16,-113.73"/>
<text text-anchor="middle" x="223.63" y="-111.06" font-family="Times-Roman" font-size="14.00">+</text>
</g>
<!-- Revenue -->
<g id="node8" class="node">
<title>Revenue</title>
<text text-anchor="middle" x="353.5" y="-86.3" font-family="Times-Roman" font-size="14.00">Revenue</text>
</g>
<!-- Closed Deal Rate&#45;&gt;Revenue -->
<g id="edge7" class="edge">
<title>Closed Deal Rate&#45;&gt;Revenue</title>
<path fill="none" stroke="black" d="M277.21,-143.88C290.17,-134.89 306.23,-123.76 320.27,-114.03"/>
<polygon fill="black" stroke="black" points="322.47,-116.76 328.7,-108.19 318.48,-111.01 322.47,-116.76"/>
<text text-anchor="middle" x="321.14" y="-117.44" font-family="Times-Roman" font-size="14.00">+</text>
</g>
<!-- Team Size -->
<g id="node5" class="node">
<title>Team Size</title>
<text text-anchor="middle" x="392.5" y="-302.3" font-family="Times-Roman" font-size="14.00">Team Size</text>
</g>
<!-- Team Availability -->
<g id="node6" class="node">
<title>Team Availability</title>
<text text-anchor="middle" x="326.5" y="-230.3" font-family="Times-Roman" font-size="14.00">Team Availability</text>
</g>
<!-- Team Size&#45;&gt;Team Availability -->
<g id="edge4" class="edge">
<title>Team Size&#45;&gt;Team Availability</title>
<path fill="none" stroke="black" d="M376.19,-287.7C368.19,-279.22 358.43,-268.86 349.68,-259.58"/>
<polygon fill="black" stroke="black" points="352.03,-256.98 342.63,-252.1 346.94,-261.78 352.03,-256.98"/>
<text text-anchor="middle" x="356.57" y="-253.95" font-family="Times-Roman" font-size="14.00">+</text>
</g>
<!-- Cost -->
<g id="node9" class="node">
<title>Cost</title>
<text text-anchor="middle" x="420.5" y="-158.3" font-family="Times-Roman" font-size="14.00">Cost</text>
</g>
<!-- Team Size&#45;&gt;Cost -->
<g id="edge8" class="edge">
<title>Team Size&#45;&gt;Cost</title>
<path fill="none" stroke="black" d="M395.88,-287.87C400.67,-263.56 409.49,-218.82 415.17,-190.01"/>
<polygon fill="black" stroke="black" points="418.61,-190.68 417.11,-180.19 411.74,-189.32 418.61,-190.68"/>
<text text-anchor="middle" x="420.7" y="-191.05" font-family="Times-Roman" font-size="14.00">+</text>
</g>
<!-- Team Availability&#45;&gt;Closed Deal Rate -->
<g id="edge5" class="edge">
<title>Team Availability&#45;&gt;Closed Deal Rate</title>
<path fill="none" stroke="black" d="M308.21,-215.7C299.07,-207.05 287.86,-196.45 277.9,-187.03"/>
<polygon fill="black" stroke="black" points="280.25,-184.43 270.58,-180.1 275.44,-189.52 280.25,-184.43"/>
<text text-anchor="middle" x="284.81" y="-181.14" font-family="Times-Roman" font-size="14.00">+</text>
</g>
<!-- Customer Satisfaction -->
<g id="node11" class="node">
<title>Customer Satisfaction</title>
<text text-anchor="middle" x="132.5" y="-14.3" font-family="Times-Roman" font-size="14.00">Customer Satisfaction</text>
</g>
<!-- Accomplished Project Rate&#45;&gt;Customer Satisfaction -->
<g id="edge11" class="edge">
<title>Accomplished Project Rate&#45;&gt;Customer Satisfaction</title>
<path fill="none" stroke="black" d="M180.68,-71.7C172.93,-63.22 163.46,-52.86 154.98,-43.58"/>
<polygon fill="black" stroke="black" points="157.47,-41.12 148.14,-36.1 152.3,-45.85 157.47,-41.12"/>
<text text-anchor="middle" x="161.99" y="-38.16" font-family="Times-Roman" font-size="14.00">+</text>
</g>
<!-- Profit -->
<g id="node10" class="node">
<title>Profit</title>
<text text-anchor="middle" x="386.5" y="-14.3" font-family="Times-Roman" font-size="14.00">Profit</text>
</g>
<!-- Revenue&#45;&gt;Profit -->
<g id="edge9" class="edge">
<title>Revenue&#45;&gt;Profit</title>
<path fill="none" stroke="black" d="M361.66,-71.7C365.41,-63.73 369.95,-54.1 374.12,-45.26"/>
<polygon fill="black" stroke="black" points="377.34,-46.64 378.44,-36.1 371.01,-43.66 377.34,-46.64"/>
<text text-anchor="middle" x="378.37" y="-47.4" font-family="Times-Roman" font-size="14.00">+</text>
</g>
<!-- Cost&#45;&gt;Profit -->
<g id="edge10" class="edge">
<title>Cost&#45;&gt;Profit</title>
<path fill="none" stroke="black" d="M417.19,-143.86C413.63,-125.88 407.66,-96.84 401.5,-72 399.37,-63.42 396.83,-54.13 394.44,-45.76"/>
<polygon fill="black" stroke="black" points="397.79,-44.74 391.65,-36.11 391.07,-46.69 397.79,-44.74"/>
<text text-anchor="middle" x="401.52" y="-43.71" font-family="Times-Roman" font-size="14.00">&#45;</text>
</g>
<!-- Customer Satisfaction&#45;&gt;Inbound Demand -->
<g id="edge12" class="edge">
<title>Customer Satisfaction&#45;&gt;Inbound Demand</title>
<path fill="none" stroke="black" d="M113.05,-36.18C103.62,-45.72 93.13,-58.39 87.5,-72 58.66,-141.63 61.66,-232.84 65.49,-277.68"/>
<polygon fill="black" stroke="black" points="62.02,-278.16 66.43,-287.79 68.99,-277.51 62.02,-278.16"/>
<text text-anchor="middle" x="58.85" y="-271.15" font-family="Times-Roman" font-size="14.00">+</text>
</g>
</g>
</svg>
