<?xml version="1.0" encoding="UTF-8" standalone="no"?>
<!DOCTYPE svg PUBLIC "-//W3C//DTD SVG 1.1//EN"
 "http://www.w3.org/Graphics/SVG/1.1/DTD/svg11.dtd">
<!-- Generated by graphviz version 2.43.0 (0)
 -->
<!-- Title: mygraph Pages: 1 -->
<svg width="356pt" height="332pt"
 viewBox="0.00 0.00 356.42 332.00" xmlns="http://www.w3.org/2000/svg" xmlns:xlink="http://www.w3.org/1999/xlink">
<g id="graph0" class="graph" transform="scale(1 1) rotate(0) translate(4 328)">
<title>mygraph</title>
<polygon fill="white" stroke="transparent" points="-4,4 -4,-328 352.42,-328 352.42,4 -4,4"/>
<!-- Inbound Demand -->
<g id="node1" class="node">
<title>Inbound Demand</title>
<text text-anchor="middle" x="69.5" y="-302.3" font-family="Times-Roman" font-size="14.00">Inbound Demand</text>
</g>
<!-- Qualification calls -->
<g id="node2" class="node">
<title>Qualification calls</title>
<text text-anchor="middle" x="69.5" y="-230.3" font-family="Times-Roman" font-size="14.00">Qualification calls</text>
</g>
<!-- Inbound Demand&#45;&gt;Qualification calls -->
<g id="edge1" class="edge">
<title>Inbound Demand&#45;&gt;Qualification calls</title>
<path fill="none" stroke="black" d="M69.5,-287.7C69.5,-279.98 69.5,-270.71 69.5,-262.11"/>
<polygon fill="black" stroke="black" points="73,-262.1 69.5,-252.1 66,-262.1 73,-262.1"/>
<text text-anchor="middle" x="77.95" y="-266.53" font-family="Times-Roman" font-size="14.00">+</text>
</g>
<!-- Project offerings -->
<g id="node3" class="node">
<title>Project offerings</title>
<text text-anchor="middle" x="115.5" y="-158.3" font-family="Times-Roman" font-size="14.00">Project offerings</text>
</g>
<!-- Qualification calls&#45;&gt;Project offerings -->
<g id="edge2" class="edge">
<title>Qualification calls&#45;&gt;Project offerings</title>
<path fill="none" stroke="black" d="M80.87,-215.7C86.22,-207.56 92.7,-197.69 98.61,-188.7"/>
<polygon fill="black" stroke="black" points="101.69,-190.38 104.26,-180.1 95.84,-186.54 101.69,-190.38"/>
<text text-anchor="middle" x="101.37" y="-196.19" font-family="Times-Roman" font-size="14.00">+</text>
</g>
<!-- Closed deals -->
<g id="node6" class="node">
<title>Closed deals</title>
<text text-anchor="middle" x="208.5" y="-86.3" font-family="Times-Roman" font-size="14.00">Closed deals</text>
</g>
<!-- Project offerings&#45;&gt;Closed deals -->
<g id="edge6" class="edge">
<title>Project offerings&#45;&gt;Closed deals</title>
<path fill="none" stroke="black" d="M138.49,-143.7C150.31,-134.8 164.89,-123.82 177.68,-114.2"/>
<polygon fill="black" stroke="black" points="179.89,-116.91 185.78,-108.1 175.68,-111.32 179.89,-116.91"/>
<text text-anchor="middle" x="176.38" y="-122.06" font-family="Times-Roman" font-size="14.00">+</text>
</g>
<!-- Bench Engineers -->
<g id="node4" class="node">
<title>Bench Engineers</title>
<text text-anchor="middle" x="208.5" y="-14.3" font-family="Times-Roman" font-size="14.00">Bench Engineers</text>
</g>
<!-- Bench Engineers&#45;&gt;Qualification calls -->
<g id="edge3" class="edge">
<title>Bench Engineers&#45;&gt;Qualification calls</title>
<path fill="none" stroke="black" d="M167.73,-36.14C127.29,-55.64 67.68,-91.7 41.5,-144 31.37,-164.23 40.63,-188.87 51.13,-207.1"/>
<polygon fill="black" stroke="black" points="48.4,-209.33 56.64,-215.98 54.35,-205.64 48.4,-209.33"/>
<text text-anchor="middle" x="39.91" y="-201.33" font-family="Times-Roman" font-size="14.00"> &#160;+</text>
</g>
<!-- Bench Engineers&#45;&gt;Closed deals -->
<g id="edge7" class="edge">
<title>Bench Engineers&#45;&gt;Closed deals</title>
<path fill="none" stroke="black" d="M214.4,-36.1C215.2,-43.79 215.44,-53.05 215.1,-61.67"/>
<polygon fill="black" stroke="black" points="211.61,-61.48 214.42,-71.7 218.59,-61.96 211.61,-61.48"/>
<text text-anchor="middle" x="207.22" y="-49.33" font-family="Times-Roman" font-size="14.00">+</text>
</g>
<!-- Bench Quality -->
<g id="node5" class="node">
<title>Bench Quality</title>
<text text-anchor="middle" x="271.5" y="-230.3" font-family="Times-Roman" font-size="14.00">Bench Quality</text>
</g>
<!-- Bench Quality&#45;&gt;Closed deals -->
<g id="edge4" class="edge">
<title>Bench Quality&#45;&gt;Closed deals</title>
<path fill="none" stroke="black" d="M253.63,-215.9C244.5,-206.19 233.97,-193.34 227.5,-180 218.05,-160.51 213.27,-136.37 210.87,-118.15"/>
<polygon fill="black" stroke="black" points="214.34,-117.72 209.72,-108.19 207.39,-118.53 214.34,-117.72"/>
<text text-anchor="middle" x="220.2" y="-121.52" font-family="Times-Roman" font-size="14.00">+</text>
</g>
<!-- Reputation -->
<g id="node7" class="node">
<title>Reputation</title>
<text text-anchor="middle" x="282.5" y="-158.3" font-family="Times-Roman" font-size="14.00">Reputation</text>
</g>
<!-- Bench Quality&#45;&gt;Reputation -->
<g id="edge5" class="edge">
<title>Bench Quality&#45;&gt;Reputation</title>
<path fill="none" stroke="black" d="M274.22,-215.7C275.43,-207.98 276.89,-198.71 278.24,-190.11"/>
<polygon fill="black" stroke="black" points="281.72,-190.53 279.81,-180.1 274.8,-189.44 281.72,-190.53"/>
<text text-anchor="middle" x="285.35" y="-195.62" font-family="Times-Roman" font-size="14.00">+</text>
</g>
<!-- Closed deals&#45;&gt;Bench Engineers -->
<g id="edge9" class="edge">
<title>Closed deals&#45;&gt;Bench Engineers</title>
<path fill="none" stroke="black" d="M202.58,-71.7C201.79,-63.98 201.56,-54.71 201.9,-46.11"/>
<polygon fill="black" stroke="black" points="205.4,-46.32 202.6,-36.1 198.42,-45.84 205.4,-46.32"/>
<text text-anchor="middle" x="209.77" y="-51.08" font-family="Times-Roman" font-size="14.00">&#45;</text>
</g>
<!-- Reputation&#45;&gt;Closed deals -->
<g id="edge8" class="edge">
<title>Reputation&#45;&gt;Closed deals</title>
<path fill="none" stroke="black" d="M264.21,-143.7C255.07,-135.05 243.86,-124.45 233.9,-115.03"/>
<polygon fill="black" stroke="black" points="236.25,-112.43 226.58,-108.1 231.44,-117.52 236.25,-112.43"/>
<text text-anchor="middle" x="245.56" y="-110.72" font-family="Times-Roman" font-size="14.00">+</text>
</g>
<!-- Hiring -->
<g id="node8" class="node">
<title>Hiring</title>
<text text-anchor="middle" x="313.5" y="-302.3" font-family="Times-Roman" font-size="14.00">Hiring</text>
</g>
<!-- Hiring&#45;&gt;Bench Engineers -->
<g id="edge10" class="edge">
<title>Hiring&#45;&gt;Bench Engineers</title>
<path fill="none" stroke="black" d="M323.45,-287.98C328.77,-277.89 334.77,-264.64 337.5,-252 347.63,-205.08 355.23,-188.6 337.5,-144 319.86,-99.63 277.18,-63.62 245.72,-41.84"/>
<polygon fill="black" stroke="black" points="247.42,-38.77 237.17,-36.08 243.51,-44.58 247.42,-38.77"/>
<text text-anchor="middle" x="256.93" y="-35.51" font-family="Times-Roman" font-size="14.00">+</text>
</g>
<!-- Hiring&#45;&gt;Bench Quality -->
<g id="edge11" class="edge">
<title>Hiring&#45;&gt;Bench Quality</title>
<path fill="none" stroke="black" d="M303.12,-287.7C298.24,-279.56 292.31,-269.69 286.92,-260.7"/>
<polygon fill="black" stroke="black" points="289.91,-258.88 281.76,-252.1 283.91,-262.48 289.91,-258.88"/>
<text text-anchor="middle" x="298.34" y="-259.6" font-family="Times-Roman" font-size="14.00">&#45;</text>
</g>
</g>
</svg>
