<?xml version="1.0" encoding="UTF-8" standalone="no"?>
<!DOCTYPE svg PUBLIC "-//W3C//DTD SVG 1.1//EN"
 "http://www.w3.org/Graphics/SVG/1.1/DTD/svg11.dtd">
<!-- Generated by graphviz version 2.43.0 (0)
 -->
<!-- Title: mygraph Pages: 1 -->
<svg width="448pt" height="750pt"
 viewBox="0.00 0.00 447.50 750.00" xmlns="http://www.w3.org/2000/svg" xmlns:xlink="http://www.w3.org/1999/xlink">
<g id="graph0" class="graph" transform="scale(1 1) rotate(0) translate(4 746)">
<title>mygraph</title>
<polygon fill="white" stroke="transparent" points="-4,4 -4,-746 443.5,-746 443.5,4 -4,4"/>
<!-- Inbound Demand -->
<g id="node1" class="node">
<title>Inbound Demand</title>
<text text-anchor="middle" x="242" y="-720.3" font-family="Times-Roman" font-size="14.00">Inbound Demand</text>
</g>
<!-- Qualification calls -->
<g id="node2" class="node">
<title>Qualification calls</title>
<text text-anchor="middle" x="242" y="-647.3" font-family="Times-Roman" font-size="14.00">Qualification calls</text>
</g>
<!-- Inbound Demand&#45;&gt;Qualification calls -->
<g id="edge1" class="edge">
<title>Inbound Demand&#45;&gt;Qualification calls</title>
<path fill="none" stroke="black" d="M242,-705.81C242,-697.79 242,-688.05 242,-679.07"/>
<polygon fill="black" stroke="black" points="245.5,-679.03 242,-669.03 238.5,-679.03 245.5,-679.03"/>
<text text-anchor="middle" x="248.34" y="-678.92" font-family="Times-Roman" font-size="14.00">+</text>
</g>
<!-- Project offerings -->
<g id="node3" class="node">
<title>Project offerings</title>
<text text-anchor="middle" x="196" y="-574.3" font-family="Times-Roman" font-size="14.00">Project offerings</text>
</g>
<!-- Qualification calls&#45;&gt;Project offerings -->
<g id="edge2" class="edge">
<title>Qualification calls&#45;&gt;Project offerings</title>
<path fill="none" stroke="black" d="M230.86,-632.81C225.38,-624.35 218.67,-613.98 212.59,-604.61"/>
<polygon fill="black" stroke="black" points="215.41,-602.52 207.03,-596.03 209.53,-606.32 215.41,-602.52"/>
<text text-anchor="middle" x="219.74" y="-600.29" font-family="Times-Roman" font-size="14.00">+</text>
</g>
<!-- Closed deals -->
<g id="node6" class="node">
<title>Closed deals</title>
<text text-anchor="middle" x="194" y="-501.3" font-family="Times-Roman" font-size="14.00">Closed deals</text>
</g>
<!-- Project offerings&#45;&gt;Closed deals -->
<g id="edge8" class="edge">
<title>Project offerings&#45;&gt;Closed deals</title>
<path fill="none" stroke="black" d="M195.52,-559.81C195.29,-551.79 195.02,-542.05 194.76,-533.07"/>
<polygon fill="black" stroke="black" points="198.26,-532.93 194.48,-523.03 191.26,-533.12 198.26,-532.93"/>
<text text-anchor="middle" x="201.2" y="-532.74" font-family="Times-Roman" font-size="14.00">+</text>
</g>
<!-- Bench Engineers -->
<g id="node4" class="node">
<title>Bench Engineers</title>
<text text-anchor="middle" x="289" y="-428.3" font-family="Times-Roman" font-size="14.00">Bench Engineers</text>
</g>
<!-- Bench Engineers&#45;&gt;Qualification calls -->
<g id="edge3" class="edge">
<title>Bench Engineers&#45;&gt;Qualification calls</title>
<path fill="none" stroke="black" d="M289.02,-450.07C288.61,-480.21 285.77,-544.51 270,-596 267.09,-605.49 262.55,-615.29 257.95,-623.9"/>
<polygon fill="black" stroke="black" points="254.86,-622.26 253.03,-632.69 260.97,-625.68 254.86,-622.26"/>
<text text-anchor="middle" x="254.14" y="-614.03" font-family="Times-Roman" font-size="14.00">+</text>
</g>
<!-- Bench Quality -->
<g id="node5" class="node">
<title>Bench Quality</title>
<text text-anchor="middle" x="234" y="-341.3" font-family="Times-Roman" font-size="14.00">Bench Quality</text>
</g>
<!-- Bench Engineers&#45;&gt;Bench Quality -->
<g id="edge10" class="edge">
<title>Bench Engineers&#45;&gt;Bench Quality</title>
<path fill="none" stroke="black" d="M277.87,-413.8C270.04,-401.7 259.43,-385.3 250.61,-371.67"/>
<polygon fill="black" stroke="black" points="253.48,-369.67 245.11,-363.18 247.61,-373.47 253.48,-369.67"/>
<text text-anchor="middle" x="257.82" y="-367.45" font-family="Times-Roman" font-size="14.00">+</text>
</g>
<!-- Bench Engineers&#45;&gt;Closed deals -->
<g id="edge9" class="edge">
<title>Bench Engineers&#45;&gt;Closed deals</title>
<path fill="none" stroke="black" d="M271.97,-450.11C260.56,-459.37 245.25,-470.94 231.17,-480.97"/>
<polygon fill="black" stroke="black" points="228.78,-478.38 222.61,-486.99 232.81,-484.1 228.78,-478.38"/>
<text text-anchor="middle" x="230.09" y="-470.29" font-family="Times-Roman" font-size="14.00">+</text>
</g>
<!-- Bench Quality&#45;&gt;Closed deals -->
<g id="edge4" class="edge">
<title>Bench Quality&#45;&gt;Closed deals</title>
<path fill="none" stroke="black" d="M228.21,-363.2C223.72,-376.88 217.53,-396.54 213,-414 207.56,-434.96 202.55,-458.97 199.05,-476.92"/>
<polygon fill="black" stroke="black" points="195.56,-476.49 197.11,-486.97 202.44,-477.81 195.56,-476.49"/>
<text text-anchor="middle" x="193.45" y="-468.73" font-family="Times-Roman" font-size="14.00">+</text>
</g>
<!-- Open Source Contributions -->
<g id="node8" class="node">
<title>Open Source Contributions</title>
<text text-anchor="middle" x="117" y="-214.3" font-family="Times-Roman" font-size="14.00">Open Source Contributions</text>
</g>
<!-- Bench Quality&#45;&gt;Open Source Contributions -->
<g id="edge6" class="edge">
<title>Bench Quality&#45;&gt;Open Source Contributions</title>
<path fill="none" stroke="black" d="M212.41,-326.96C200.04,-316.79 184.54,-303.29 172,-290 158.53,-275.73 145.01,-258.33 134.74,-244.32"/>
<polygon fill="black" stroke="black" points="137.49,-242.16 128.8,-236.1 131.82,-246.26 137.49,-242.16"/>
<text text-anchor="middle" x="141.9" y="-239.71" font-family="Times-Roman" font-size="14.00">+</text>
</g>
<!-- Team Quality -->
<g id="node13" class="node">
<title>Team Quality</title>
<text text-anchor="middle" x="234" y="-268.3" font-family="Times-Roman" font-size="14.00">Team Quality</text>
</g>
<!-- Bench Quality&#45;&gt;Team Quality -->
<g id="edge19" class="edge">
<title>Bench Quality&#45;&gt;Team Quality</title>
<path fill="none" stroke="black" d="M234,-326.81C234,-318.79 234,-309.05 234,-300.07"/>
<polygon fill="black" stroke="black" points="237.5,-300.03 234,-290.03 230.5,-300.03 237.5,-300.03"/>
<text text-anchor="middle" x="240.34" y="-299.92" font-family="Times-Roman" font-size="14.00">+</text>
</g>
<!-- Closed deals&#45;&gt;Bench Engineers -->
<g id="edge14" class="edge">
<title>Closed deals&#45;&gt;Bench Engineers</title>
<path fill="none" stroke="black" d="M211.12,-486.81C222.52,-477.57 237.78,-466.04 251.82,-456.03"/>
<polygon fill="black" stroke="black" points="254.19,-458.64 260.35,-450.03 250.16,-452.92 254.19,-458.64"/>
<text text-anchor="middle" x="252.88" y="-459.33" font-family="Times-Roman" font-size="14.00">&#45;</text>
</g>
<!-- Project Engineers -->
<g id="node10" class="node">
<title>Project Engineers</title>
<text text-anchor="middle" x="97" y="-428.3" font-family="Times-Roman" font-size="14.00">Project Engineers</text>
</g>
<!-- Closed deals&#45;&gt;Project Engineers -->
<g id="edge11" class="edge">
<title>Closed deals&#45;&gt;Project Engineers</title>
<path fill="none" stroke="black" d="M170.52,-486.81C157.89,-477.57 142.14,-466.04 128.47,-456.03"/>
<polygon fill="black" stroke="black" points="130.4,-453.11 120.26,-450.03 126.27,-458.76 130.4,-453.11"/>
<text text-anchor="middle" x="134.98" y="-449.24" font-family="Times-Roman" font-size="14.00">+</text>
</g>
<!-- Price -->
<g id="node7" class="node">
<title>Price</title>
<text text-anchor="middle" x="86" y="-574.3" font-family="Times-Roman" font-size="14.00">Price</text>
</g>
<!-- Price&#45;&gt;Closed deals -->
<g id="edge5" class="edge">
<title>Price&#45;&gt;Closed deals</title>
<path fill="none" stroke="black" d="M111.87,-559.99C126.06,-550.67 143.84,-538.97 159.23,-528.86"/>
<polygon fill="black" stroke="black" points="161.53,-531.53 167.97,-523.11 157.69,-525.68 161.53,-531.53"/>
<text text-anchor="middle" x="160.09" y="-532.18" font-family="Times-Roman" font-size="14.00">&#45;</text>
</g>
<!-- Reputation -->
<g id="node9" class="node">
<title>Reputation</title>
<text text-anchor="middle" x="147" y="-87.3" font-family="Times-Roman" font-size="14.00">Reputation</text>
</g>
<!-- Open Source Contributions&#45;&gt;Reputation -->
<g id="edge7" class="edge">
<title>Open Source Contributions&#45;&gt;Reputation</title>
<path fill="none" stroke="black" d="M97.42,-199.83C92.79,-194.62 88.48,-188.53 86,-182 80.33,-167.04 79.43,-160.59 86,-146 91.36,-134.09 100.79,-123.75 110.65,-115.4"/>
<polygon fill="black" stroke="black" points="112.91,-118.07 118.59,-109.13 108.57,-112.58 112.91,-118.07"/>
<text text-anchor="middle" x="105" y="-160.3" font-family="Times-Roman" font-size="14.00">delay</text>
<text text-anchor="middle" x="111.85" y="-118.83" font-family="Times-Roman" font-size="14.00">+</text>
</g>
<!-- Reputation&#45;&gt;Closed deals -->
<g id="edge13" class="edge">
<title>Reputation&#45;&gt;Closed deals</title>
<path fill="none" stroke="black" d="M100.89,-95.28C57.78,-101.15 0,-117.51 0,-163 0,-433 0,-433 0,-433 0,-461.55 75.02,-482.05 131.75,-493.47"/>
<polygon fill="black" stroke="black" points="131.27,-496.94 141.76,-495.43 132.62,-490.07 131.27,-496.94"/>
<text text-anchor="middle" x="127.2" y="-495.33" font-family="Times-Roman" font-size="14.00">+</text>
</g>
<!-- Candidate Quality -->
<g id="node12" class="node">
<title>Candidate Quality</title>
<text text-anchor="middle" x="278" y="-14.3" font-family="Times-Roman" font-size="14.00">Candidate Quality</text>
</g>
<!-- Reputation&#45;&gt;Candidate Quality -->
<g id="edge18" class="edge">
<title>Reputation&#45;&gt;Candidate Quality</title>
<path fill="none" stroke="black" d="M178.38,-72.99C196.07,-63.4 218.37,-51.32 237.39,-41.01"/>
<polygon fill="black" stroke="black" points="239.3,-43.96 246.42,-36.11 235.96,-37.8 239.3,-43.96"/>
<text text-anchor="middle" x="237.49" y="-44.46" font-family="Times-Roman" font-size="14.00">+</text>
</g>
<!-- Project Engineers&#45;&gt;Bench Quality -->
<g id="edge12" class="edge">
<title>Project Engineers&#45;&gt;Bench Quality</title>
<path fill="none" stroke="black" d="M109.12,-413.78C117.37,-403.13 129.09,-389.85 142,-381 149.85,-375.62 158.63,-370.93 167.57,-366.88"/>
<polygon fill="black" stroke="black" points="169.1,-370.03 176.92,-362.88 166.35,-363.59 169.1,-370.03"/>
<text text-anchor="middle" x="161" y="-384.8" font-family="Times-Roman" font-size="14.00">delay</text>
<text text-anchor="middle" x="166.91" y="-370.35" font-family="Times-Roman" font-size="14.00">+</text>
</g>
<!-- Hiring Number -->
<g id="node11" class="node">
<title>Hiring Number</title>
<text text-anchor="middle" x="380" y="-501.3" font-family="Times-Roman" font-size="14.00">Hiring Number</text>
</g>
<!-- Hiring Number&#45;&gt;Bench Engineers -->
<g id="edge15" class="edge">
<title>Hiring Number&#45;&gt;Bench Engineers</title>
<path fill="none" stroke="black" d="M357.97,-486.81C346.23,-477.66 331.63,-466.26 318.88,-456.32"/>
<polygon fill="black" stroke="black" points="320.86,-453.42 310.83,-450.03 316.56,-458.94 320.86,-453.42"/>
<text text-anchor="middle" x="325.44" y="-449.69" font-family="Times-Roman" font-size="14.00">+</text>
</g>
<!-- Hiring Number&#45;&gt;Bench Quality -->
<g id="edge16" class="edge">
<title>Hiring Number&#45;&gt;Bench Quality</title>
<path fill="none" stroke="black" d="M381.46,-486.69C382.2,-467.18 380.55,-435.4 365,-414 349.24,-392.32 324.48,-377 300.72,-366.47"/>
<polygon fill="black" stroke="black" points="301.9,-363.17 291.33,-362.52 299.19,-369.62 301.9,-363.17"/>
<text text-anchor="middle" x="306.32" y="-358.24" font-family="Times-Roman" font-size="14.00">&#45;</text>
</g>
<!-- Candidate Quality&#45;&gt;Bench Quality -->
<g id="edge17" class="edge">
<title>Candidate Quality&#45;&gt;Bench Quality</title>
<path fill="none" stroke="black" d="M300.78,-36.26C315.15,-49.25 331,-68.47 331,-90 331,-273 331,-273 331,-273 331,-295.08 314.43,-311.04 294.99,-322.16"/>
<polygon fill="black" stroke="black" points="293.13,-319.18 285.91,-326.93 296.39,-325.38 293.13,-319.18"/>
<text text-anchor="middle" x="294.99" y="-311.3" font-family="Times-Roman" font-size="14.00">+</text>
</g>
<!-- Customer Satisfaction -->
<g id="node14" class="node">
<title>Customer Satisfaction</title>
<text text-anchor="middle" x="218" y="-160.3" font-family="Times-Roman" font-size="14.00">Customer Satisfaction</text>
</g>
<!-- Team Quality&#45;&gt;Customer Satisfaction -->
<g id="edge20" class="edge">
<title>Team Quality&#45;&gt;Customer Satisfaction</title>
<path fill="none" stroke="black" d="M231.43,-253.97C228.92,-237.38 225.08,-211.88 222.14,-192.43"/>
<polygon fill="black" stroke="black" points="225.57,-191.71 220.62,-182.34 218.65,-192.75 225.57,-191.71"/>
<text text-anchor="middle" x="228.91" y="-191.14" font-family="Times-Roman" font-size="14.00">+</text>
</g>
<!-- Customer Satisfaction&#45;&gt;Reputation -->
<g id="edge21" class="edge">
<title>Customer Satisfaction&#45;&gt;Reputation</title>
<path fill="none" stroke="black" d="M200.81,-145.81C191.92,-136.92 180.91,-125.91 171.17,-116.17"/>
<polygon fill="black" stroke="black" points="173.57,-113.63 164.03,-109.03 168.63,-118.57 173.57,-113.63"/>
<text text-anchor="middle" x="178.12" y="-110.46" font-family="Times-Roman" font-size="14.00">+</text>
</g>
</g>
</svg>
