<?xml version="1.0" encoding="UTF-8" standalone="no"?>
<!DOCTYPE svg PUBLIC "-//W3C//DTD SVG 1.1//EN"
 "http://www.w3.org/Graphics/SVG/1.1/DTD/svg11.dtd">
<!-- Generated by graphviz version 2.43.0 (0)
 -->
<!-- Title: mygraph Pages: 1 -->
<svg width="257pt" height="332pt"
 viewBox="0.00 0.00 257.00 332.00" xmlns="http://www.w3.org/2000/svg" xmlns:xlink="http://www.w3.org/1999/xlink">
<g id="graph0" class="graph" transform="scale(1 1) rotate(0) translate(4 328)">
<title>mygraph</title>
<polygon fill="white" stroke="transparent" points="-4,4 -4,-328 253,-328 253,4 -4,4"/>
<!-- Inbound Demand -->
<g id="node1" class="node">
<title>Inbound Demand</title>
<text text-anchor="middle" x="171" y="-302.3" font-family="Times-Roman" font-size="14.00">Inbound Demand</text>
</g>
<!-- Opportunity Rate -->
<g id="node2" class="node">
<title>Opportunity Rate</title>
<text text-anchor="middle" x="123" y="-230.3" font-family="Times-Roman" font-size="14.00">Opportunity Rate</text>
</g>
<!-- Inbound Demand&#45;&gt;Opportunity Rate -->
<g id="edge1" class="edge">
<title>Inbound Demand&#45;&gt;Opportunity Rate</title>
<path fill="none" stroke="black" d="M159.13,-287.7C153.5,-279.47 146.65,-269.48 140.43,-260.42"/>
<polygon fill="black" stroke="black" points="143.27,-258.37 134.73,-252.1 137.5,-262.33 143.27,-258.37"/>
<text text-anchor="middle" x="147.65" y="-256.03" font-family="Times-Roman" font-size="14.00">+</text>
</g>
<!-- Closed Deal Rate -->
<g id="node3" class="node">
<title>Closed Deal Rate</title>
<text text-anchor="middle" x="108" y="-158.3" font-family="Times-Roman" font-size="14.00">Closed Deal Rate</text>
</g>
<!-- Opportunity Rate&#45;&gt;Closed Deal Rate -->
<g id="edge2" class="edge">
<title>Opportunity Rate&#45;&gt;Closed Deal Rate</title>
<path fill="none" stroke="black" d="M119.29,-215.7C117.64,-207.98 115.65,-198.71 113.81,-190.11"/>
<polygon fill="black" stroke="black" points="117.18,-189.15 111.67,-180.1 110.34,-190.62 117.18,-189.15"/>
<text text-anchor="middle" x="120.71" y="-188.37" font-family="Times-Roman" font-size="14.00">+</text>
</g>
<!-- Accomplished Project Rate -->
<g id="node4" class="node">
<title>Accomplished Project Rate</title>
<text text-anchor="middle" x="100" y="-86.3" font-family="Times-Roman" font-size="14.00">Accomplished Project Rate</text>
</g>
<!-- Closed Deal Rate&#45;&gt;Accomplished Project Rate -->
<g id="edge3" class="edge">
<title>Closed Deal Rate&#45;&gt;Accomplished Project Rate</title>
<path fill="none" stroke="black" d="M106.02,-143.7C105.14,-135.98 104.08,-126.71 103.1,-118.11"/>
<polygon fill="black" stroke="black" points="106.57,-117.64 101.95,-108.1 99.61,-118.44 106.57,-117.64"/>
<text text-anchor="middle" x="109.8" y="-117.19" font-family="Times-Roman" font-size="14.00">+</text>
</g>
<!-- Customer Satisfaction -->
<g id="node5" class="node">
<title>Customer Satisfaction</title>
<text text-anchor="middle" x="164" y="-14.3" font-family="Times-Roman" font-size="14.00">Customer Satisfaction</text>
</g>
<!-- Accomplished Project Rate&#45;&gt;Customer Satisfaction -->
<g id="edge4" class="edge">
<title>Accomplished Project Rate&#45;&gt;Customer Satisfaction</title>
<path fill="none" stroke="black" d="M115.82,-71.7C123.57,-63.22 133.04,-52.86 141.52,-43.58"/>
<polygon fill="black" stroke="black" points="144.2,-45.85 148.36,-36.1 139.03,-41.12 144.2,-45.85"/>
<text text-anchor="middle" x="143.87" y="-46.72" font-family="Times-Roman" font-size="14.00">+</text>
</g>
<!-- Customer Satisfaction&#45;&gt;Inbound Demand -->
<g id="edge5" class="edge">
<title>Customer Satisfaction&#45;&gt;Inbound Demand</title>
<path fill="none" stroke="black" d="M184.38,-36.47C193.81,-45.91 204.01,-58.4 209,-72 236.61,-147.19 222.25,-175.05 200,-252 197.33,-261.22 192.86,-270.63 188.22,-278.91"/>
<polygon fill="black" stroke="black" points="185.1,-277.32 183,-287.7 191.12,-280.89 185.1,-277.32"/>
<text text-anchor="middle" x="184.49" y="-269.07" font-family="Times-Roman" font-size="14.00">+</text>
</g>
</g>
</svg>
