<?xml version="1.0" encoding="UTF-8" standalone="no"?>
<!DOCTYPE svg PUBLIC "-//W3C//DTD SVG 1.1//EN"
 "http://www.w3.org/Graphics/SVG/1.1/DTD/svg11.dtd">
<!-- Generated by graphviz version 2.43.0 (0)
 -->
<!-- Title: mygraph Pages: 1 -->
<svg width="633pt" height="750pt"
 viewBox="0.00 0.00 632.55 750.00" xmlns="http://www.w3.org/2000/svg" xmlns:xlink="http://www.w3.org/1999/xlink">
<g id="graph0" class="graph" transform="scale(1 1) rotate(0) translate(4 746)">
<title>mygraph</title>
<polygon fill="white" stroke="transparent" points="-4,4 -4,-746 628.55,-746 628.55,4 -4,4"/>
<!-- Inbound Demand -->
<g id="node1" class="node">
<title>Inbound Demand</title>
<text text-anchor="middle" x="445" y="-720.3" font-family="Times-Roman" font-size="14.00">Inbound Demand</text>
</g>
<!-- Qualification calls -->
<g id="node2" class="node">
<title>Qualification calls</title>
<text text-anchor="middle" x="445" y="-647.3" font-family="Times-Roman" font-size="14.00">Qualification calls</text>
</g>
<!-- Inbound Demand&#45;&gt;Qualification calls -->
<g id="edge1" class="edge">
<title>Inbound Demand&#45;&gt;Qualification calls</title>
<path fill="none" stroke="black" d="M445,-705.81C445,-697.79 445,-688.05 445,-679.07"/>
<polygon fill="black" stroke="black" points="448.5,-679.03 445,-669.03 441.5,-679.03 448.5,-679.03"/>
<text text-anchor="middle" x="451.34" y="-678.92" font-family="Times-Roman" font-size="14.00">+</text>
</g>
<!-- Project offerings -->
<g id="node3" class="node">
<title>Project offerings</title>
<text text-anchor="middle" x="254" y="-574.3" font-family="Times-Roman" font-size="14.00">Project offerings</text>
</g>
<!-- Qualification calls&#45;&gt;Project offerings -->
<g id="edge2" class="edge">
<title>Qualification calls&#45;&gt;Project offerings</title>
<path fill="none" stroke="black" d="M399.25,-632.99C372.28,-622.97 337.97,-610.21 309.46,-599.62"/>
<polygon fill="black" stroke="black" points="310.63,-596.32 300.04,-596.11 308.19,-602.88 310.63,-596.32"/>
<text text-anchor="middle" x="314.99" y="-591.21" font-family="Times-Roman" font-size="14.00">+</text>
</g>
<!-- Closed deals -->
<g id="node6" class="node">
<title>Closed deals</title>
<text text-anchor="middle" x="254" y="-501.3" font-family="Times-Roman" font-size="14.00">Closed deals</text>
</g>
<!-- Project offerings&#45;&gt;Closed deals -->
<g id="edge8" class="edge">
<title>Project offerings&#45;&gt;Closed deals</title>
<path fill="none" stroke="black" d="M254,-559.81C254,-551.79 254,-542.05 254,-533.07"/>
<polygon fill="black" stroke="black" points="257.5,-533.03 254,-523.03 250.5,-533.03 257.5,-533.03"/>
<text text-anchor="middle" x="260.34" y="-532.92" font-family="Times-Roman" font-size="14.00">+</text>
</g>
<!-- Bench Engineers -->
<g id="node4" class="node">
<title>Bench Engineers</title>
<text text-anchor="middle" x="420" y="-428.3" font-family="Times-Roman" font-size="14.00">Bench Engineers</text>
</g>
<!-- Bench Engineers&#45;&gt;Qualification calls -->
<g id="edge3" class="edge">
<title>Bench Engineers&#45;&gt;Qualification calls</title>
<path fill="none" stroke="black" d="M472.13,-450.05C519.74,-468.72 587.25,-503.74 618,-560 625.67,-574.04 627.48,-583.11 618,-596 596.54,-625.18 559.39,-639.04 525,-645.45"/>
<polygon fill="black" stroke="black" points="524.2,-642.04 514.92,-647.14 525.36,-648.94 524.2,-642.04"/>
<text text-anchor="middle" x="527.28" y="-634.94" font-family="Times-Roman" font-size="14.00">+</text>
</g>
<!-- Bench Quality -->
<g id="node5" class="node">
<title>Bench Quality</title>
<text text-anchor="middle" x="230" y="-341.3" font-family="Times-Roman" font-size="14.00">Bench Quality</text>
</g>
<!-- Bench Engineers&#45;&gt;Bench Quality -->
<g id="edge10" class="edge">
<title>Bench Engineers&#45;&gt;Bench Quality</title>
<path fill="none" stroke="black" d="M395.7,-413.84C380.04,-403.34 358.96,-390.2 339,-381 325.65,-374.85 310.92,-369.33 296.72,-364.59"/>
<polygon fill="black" stroke="black" points="297.59,-361.2 287,-361.44 295.43,-367.86 297.59,-361.2"/>
<text text-anchor="middle" x="301.89" y="-355.91" font-family="Times-Roman" font-size="14.00">+</text>
</g>
<!-- Bench Engineers&#45;&gt;Closed deals -->
<g id="edge9" class="edge">
<title>Bench Engineers&#45;&gt;Closed deals</title>
<path fill="none" stroke="black" d="M390.65,-450.07C377.6,-456.13 362.15,-462.94 348,-469 337.11,-473.66 325.39,-478.56 314.02,-483.17"/>
<polygon fill="black" stroke="black" points="312.55,-479.99 304.57,-486.96 315.16,-486.48 312.55,-479.99"/>
<text text-anchor="middle" x="314.83" y="-472.31" font-family="Times-Roman" font-size="14.00">+</text>
</g>
<!-- Bench Quality&#45;&gt;Closed deals -->
<g id="edge4" class="edge">
<title>Bench Quality&#45;&gt;Closed deals</title>
<path fill="none" stroke="black" d="M259.31,-363.04C276.52,-374.87 296.67,-392.38 306,-414 312.34,-428.69 311.98,-435.16 306,-450 301.45,-461.3 293.27,-471.55 284.73,-480.01"/>
<polygon fill="black" stroke="black" points="282.18,-477.61 277.22,-486.97 286.93,-482.75 282.18,-477.61"/>
<text text-anchor="middle" x="282.89" y="-469.38" font-family="Times-Roman" font-size="14.00">+</text>
</g>
<!-- Open Source Contributions -->
<g id="node8" class="node">
<title>Open Source Contributions</title>
<text text-anchor="middle" x="230" y="-214.3" font-family="Times-Roman" font-size="14.00">Open Source Contributions</text>
</g>
<!-- Bench Quality&#45;&gt;Open Source Contributions -->
<g id="edge6" class="edge">
<title>Bench Quality&#45;&gt;Open Source Contributions</title>
<path fill="none" stroke="black" d="M230,-326.88C230,-306.15 230,-270.95 230,-246.42"/>
<polygon fill="black" stroke="black" points="233.5,-246.31 230,-236.31 226.5,-246.31 233.5,-246.31"/>
<text text-anchor="middle" x="236.34" y="-246.21" font-family="Times-Roman" font-size="14.00">+</text>
</g>
<!-- Team Quality -->
<g id="node17" class="node">
<title>Team Quality</title>
<text text-anchor="middle" x="131" y="-268.3" font-family="Times-Roman" font-size="14.00">Team Quality</text>
</g>
<!-- Bench Quality&#45;&gt;Team Quality -->
<g id="edge22" class="edge">
<title>Bench Quality&#45;&gt;Team Quality</title>
<path fill="none" stroke="black" d="M206.29,-326.99C193.4,-317.75 177.28,-306.19 163.27,-296.14"/>
<polygon fill="black" stroke="black" points="165.03,-293.1 154.86,-290.11 160.95,-298.79 165.03,-293.1"/>
<text text-anchor="middle" x="169.6" y="-289.18" font-family="Times-Roman" font-size="14.00">+</text>
</g>
<!-- Closed deals&#45;&gt;Bench Engineers -->
<g id="edge15" class="edge">
<title>Closed deals&#45;&gt;Bench Engineers</title>
<path fill="none" stroke="black" d="M287.49,-486.96C300.76,-481.32 316.06,-474.97 330,-469 341.05,-464.27 352.9,-459.07 364.29,-454.14"/>
<polygon fill="black" stroke="black" points="365.93,-457.24 373.72,-450.07 363.15,-450.82 365.93,-457.24"/>
<text text-anchor="middle" x="363.75" y="-457.57" font-family="Times-Roman" font-size="14.00">&#45;</text>
</g>
<!-- Project Engineers -->
<g id="node10" class="node">
<title>Project Engineers</title>
<text text-anchor="middle" x="228" y="-428.3" font-family="Times-Roman" font-size="14.00">Project Engineers</text>
</g>
<!-- Closed deals&#45;&gt;Project Engineers -->
<g id="edge11" class="edge">
<title>Closed deals&#45;&gt;Project Engineers</title>
<path fill="none" stroke="black" d="M247.71,-486.81C244.7,-478.62 241.05,-468.62 237.7,-459.48"/>
<polygon fill="black" stroke="black" points="240.96,-458.22 234.24,-450.03 234.39,-460.62 240.96,-458.22"/>
<text text-anchor="middle" x="244.86" y="-456.91" font-family="Times-Roman" font-size="14.00">+</text>
</g>
<!-- Price -->
<g id="node7" class="node">
<title>Price</title>
<text text-anchor="middle" x="144" y="-574.3" font-family="Times-Roman" font-size="14.00">Price</text>
</g>
<!-- Price&#45;&gt;Closed deals -->
<g id="edge5" class="edge">
<title>Price&#45;&gt;Closed deals</title>
<path fill="none" stroke="black" d="M170.35,-559.99C184.93,-550.58 203.25,-538.76 219.02,-528.57"/>
<polygon fill="black" stroke="black" points="220.98,-531.48 227.49,-523.11 217.19,-525.6 220.98,-531.48"/>
<text text-anchor="middle" x="219.5" y="-532.11" font-family="Times-Roman" font-size="14.00">&#45;</text>
</g>
<!-- Reputation -->
<g id="node9" class="node">
<title>Reputation</title>
<text text-anchor="middle" x="131" y="-87.3" font-family="Times-Roman" font-size="14.00">Reputation</text>
</g>
<!-- Open Source Contributions&#45;&gt;Reputation -->
<g id="edge7" class="edge">
<title>Open Source Contributions&#45;&gt;Reputation</title>
<path fill="none" stroke="black" d="M227.58,-199.83C224.73,-184.51 218.81,-162.09 207,-146 197.97,-133.7 185.29,-123.14 172.87,-114.7"/>
<polygon fill="black" stroke="black" points="174.66,-111.69 164.36,-109.21 170.86,-117.57 174.66,-111.69"/>
<text text-anchor="middle" x="242" y="-160.3" font-family="Times-Roman" font-size="14.00">delay</text>
<text text-anchor="middle" x="179.22" y="-107.56" font-family="Times-Roman" font-size="14.00">+</text>
</g>
<!-- Reputation&#45;&gt;Closed deals -->
<g id="edge13" class="edge">
<title>Reputation&#45;&gt;Closed deals</title>
<path fill="none" stroke="black" d="M84.81,-97.93C47.1,-105.68 0,-123.29 0,-163 0,-433 0,-433 0,-433 0,-472.69 116.46,-491.18 191.67,-498.99"/>
<polygon fill="black" stroke="black" points="191.69,-502.51 201.99,-500.02 192.38,-495.54 191.69,-502.51"/>
<text text-anchor="middle" x="187.83" y="-501.27" font-family="Times-Roman" font-size="14.00">+</text>
</g>
<!-- Candidate number -->
<g id="node11" class="node">
<title>Candidate number</title>
<text text-anchor="middle" x="131" y="-14.3" font-family="Times-Roman" font-size="14.00">Candidate number</text>
</g>
<!-- Reputation&#45;&gt;Candidate number -->
<g id="edge14" class="edge">
<title>Reputation&#45;&gt;Candidate number</title>
<path fill="none" stroke="black" d="M131,-72.81C131,-64.79 131,-55.05 131,-46.07"/>
<polygon fill="black" stroke="black" points="134.5,-46.03 131,-36.03 127.5,-46.03 134.5,-46.03"/>
<text text-anchor="middle" x="137.34" y="-45.92" font-family="Times-Roman" font-size="14.00">+</text>
</g>
<!-- Candidate Quality -->
<g id="node15" class="node">
<title>Candidate Quality</title>
<text text-anchor="middle" x="329" y="-14.3" font-family="Times-Roman" font-size="14.00">Candidate Quality</text>
</g>
<!-- Reputation&#45;&gt;Candidate Quality -->
<g id="edge21" class="edge">
<title>Reputation&#45;&gt;Candidate Quality</title>
<path fill="none" stroke="black" d="M177.17,-73.44C205.43,-63.31 241.8,-50.27 271.86,-39.49"/>
<polygon fill="black" stroke="black" points="273.14,-42.75 281.38,-36.08 270.78,-36.16 273.14,-42.75"/>
<text text-anchor="middle" x="270.72" y="-42.93" font-family="Times-Roman" font-size="14.00">+</text>
</g>
<!-- Project Engineers&#45;&gt;Bench Quality -->
<g id="edge12" class="edge">
<title>Project Engineers&#45;&gt;Bench Quality</title>
<path fill="none" stroke="black" d="M228.4,-413.8C228.68,-402.16 229.05,-386.55 229.36,-373.24"/>
<polygon fill="black" stroke="black" points="232.86,-373.26 229.6,-363.18 225.86,-373.09 232.86,-373.26"/>
<text text-anchor="middle" x="248" y="-384.8" font-family="Times-Roman" font-size="14.00">delay</text>
<text text-anchor="middle" x="235.61" y="-373.22" font-family="Times-Roman" font-size="14.00">+</text>
</g>
<!-- Hiring Number -->
<g id="node12" class="node">
<title>Hiring Number</title>
<text text-anchor="middle" x="420" y="-501.3" font-family="Times-Roman" font-size="14.00">Hiring Number</text>
</g>
<!-- Hiring Number&#45;&gt;Bench Engineers -->
<g id="edge16" class="edge">
<title>Hiring Number&#45;&gt;Bench Engineers</title>
<path fill="none" stroke="black" d="M420,-486.81C420,-478.79 420,-469.05 420,-460.07"/>
<polygon fill="black" stroke="black" points="423.5,-460.03 420,-450.03 416.5,-460.03 423.5,-460.03"/>
<text text-anchor="middle" x="426.34" y="-459.92" font-family="Times-Roman" font-size="14.00">+</text>
</g>
<!-- Hiring Quality -->
<g id="node13" class="node">
<title>Hiring Quality</title>
<text text-anchor="middle" x="85" y="-428.3" font-family="Times-Roman" font-size="14.00">Hiring Quality</text>
</g>
<!-- Hiring Quality&#45;&gt;Bench Quality -->
<g id="edge17" class="edge">
<title>Hiring Quality&#45;&gt;Bench Quality</title>
<path fill="none" stroke="black" d="M114.34,-413.8C136.65,-400.72 167.53,-382.62 191.77,-368.41"/>
<polygon fill="black" stroke="black" points="193.84,-371.25 200.7,-363.18 190.3,-365.21 193.84,-371.25"/>
<text text-anchor="middle" x="192.18" y="-371.82" font-family="Times-Roman" font-size="14.00">&#45;</text>
</g>
<!-- Hiring Target -->
<g id="node14" class="node">
<title>Hiring Target</title>
<text text-anchor="middle" x="556" y="-574.3" font-family="Times-Roman" font-size="14.00">Hiring Target</text>
</g>
<!-- Hiring Target&#45;&gt;Hiring Number -->
<g id="edge18" class="edge">
<title>Hiring Target&#45;&gt;Hiring Number</title>
<path fill="none" stroke="black" d="M523.42,-559.99C504.97,-550.36 481.69,-538.21 461.89,-527.87"/>
<polygon fill="black" stroke="black" points="463.27,-524.64 452.78,-523.11 460.03,-530.84 463.27,-524.64"/>
<text text-anchor="middle" x="467.77" y="-520.09" font-family="Times-Roman" font-size="14.00">+</text>
</g>
<!-- Candidate Quality&#45;&gt;Bench Quality -->
<g id="edge19" class="edge">
<title>Candidate Quality&#45;&gt;Bench Quality</title>
<path fill="none" stroke="black" d="M335.91,-36.2C340.98,-50.39 347,-71.18 347,-90 347,-273 347,-273 347,-273 347,-300.51 323.07,-317.66 296.85,-328.19"/>
<polygon fill="black" stroke="black" points="295.3,-325.03 287.13,-331.78 297.72,-331.6 295.3,-325.03"/>
<text text-anchor="middle" x="297.69" y="-317.43" font-family="Times-Roman" font-size="14.00">+</text>
</g>
<!-- Candidate Number -->
<g id="node16" class="node">
<title>Candidate Number</title>
<text text-anchor="middle" x="411" y="-574.3" font-family="Times-Roman" font-size="14.00">Candidate Number</text>
</g>
<!-- Candidate Number&#45;&gt;Hiring Number -->
<g id="edge20" class="edge">
<title>Candidate Number&#45;&gt;Hiring Number</title>
<path fill="none" stroke="black" d="M413.18,-559.81C414.2,-551.79 415.43,-542.05 416.57,-533.07"/>
<polygon fill="black" stroke="black" points="420.06,-533.39 417.84,-523.03 413.11,-532.51 420.06,-533.39"/>
<text text-anchor="middle" x="422.42" y="-533.61" font-family="Times-Roman" font-size="14.00">+</text>
</g>
<!-- Customer Satisfaction -->
<g id="node18" class="node">
<title>Customer Satisfaction</title>
<text text-anchor="middle" x="113" y="-160.3" font-family="Times-Roman" font-size="14.00">Customer Satisfaction</text>
</g>
<!-- Team Quality&#45;&gt;Customer Satisfaction -->
<g id="edge23" class="edge">
<title>Team Quality&#45;&gt;Customer Satisfaction</title>
<path fill="none" stroke="black" d="M128.11,-253.97C125.29,-237.38 120.96,-211.88 117.66,-192.43"/>
<polygon fill="black" stroke="black" points="121.07,-191.61 115.94,-182.34 114.17,-192.79 121.07,-191.61"/>
<text text-anchor="middle" x="124.47" y="-190.98" font-family="Times-Roman" font-size="14.00">+</text>
</g>
<!-- Customer Satisfaction&#45;&gt;Reputation -->
<g id="edge24" class="edge">
<title>Customer Satisfaction&#45;&gt;Reputation</title>
<path fill="none" stroke="black" d="M117.36,-145.81C119.41,-137.7 121.91,-127.84 124.21,-118.78"/>
<polygon fill="black" stroke="black" points="127.62,-119.58 126.68,-109.03 120.83,-117.86 127.62,-119.58"/>
<text text-anchor="middle" x="129.49" y="-120.06" font-family="Times-Roman" font-size="14.00">+</text>
</g>
</g>
</svg>
