<?xml version="1.0" encoding="UTF-8" standalone="no"?>
<!DOCTYPE svg PUBLIC "-//W3C//DTD SVG 1.1//EN"
 "http://www.w3.org/Graphics/SVG/1.1/DTD/svg11.dtd">
<!-- Generated by graphviz version 2.43.0 (0)
 -->
<!-- Title: mygraph Pages: 1 -->
<svg width="742pt" height="1063pt"
 viewBox="0.00 0.00 741.50 1063.00" xmlns="http://www.w3.org/2000/svg" xmlns:xlink="http://www.w3.org/1999/xlink">
<g id="graph0" class="graph" transform="scale(1 1) rotate(0) translate(4 1059)">
<title>mygraph</title>
<polygon fill="white" stroke="transparent" points="-4,4 -4,-1059 737.5,-1059 737.5,4 -4,4"/>
<!-- Inbound Demand -->
<g id="node1" class="node">
<title>Inbound Demand</title>
<text text-anchor="middle" x="425.5" y="-1033.3" font-family="Times-Roman" font-size="14.00">Inbound Demand</text>
</g>
<!-- Qualification calls -->
<g id="node2" class="node">
<title>Qualification calls</title>
<text text-anchor="middle" x="194.5" y="-960.3" font-family="Times-Roman" font-size="14.00">Qualification calls</text>
</g>
<!-- Inbound Demand&#45;&gt;Qualification calls -->
<g id="edge1" class="edge">
<title>Inbound Demand&#45;&gt;Qualification calls</title>
<path fill="none" stroke="black" d="M370.17,-1018.99C336.98,-1008.79 294.6,-995.77 259.79,-985.07"/>
<polygon fill="black" stroke="black" points="260.77,-981.71 250.18,-982.11 258.71,-988.4 260.77,-981.71"/>
<text text-anchor="middle" x="265.04" y="-976.35" font-family="Times-Roman" font-size="14.00">+</text>
</g>
<!-- Project Offerings -->
<g id="node3" class="node">
<title>Project Offerings</title>
<text text-anchor="middle" x="194.5" y="-887.3" font-family="Times-Roman" font-size="14.00">Project Offerings</text>
</g>
<!-- Qualification calls&#45;&gt;Project Offerings -->
<g id="edge2" class="edge">
<title>Qualification calls&#45;&gt;Project Offerings</title>
<path fill="none" stroke="black" d="M194.5,-945.81C194.5,-937.79 194.5,-928.05 194.5,-919.07"/>
<polygon fill="black" stroke="black" points="198,-919.03 194.5,-909.03 191,-919.03 198,-919.03"/>
<text text-anchor="middle" x="200.84" y="-918.92" font-family="Times-Roman" font-size="14.00">+</text>
</g>
<!-- Closed Deals -->
<g id="node6" class="node">
<title>Closed Deals</title>
<text text-anchor="middle" x="271.5" y="-814.3" font-family="Times-Roman" font-size="14.00">Closed Deals</text>
</g>
<!-- Project Offerings&#45;&gt;Closed Deals -->
<g id="edge8" class="edge">
<title>Project Offerings&#45;&gt;Closed Deals</title>
<path fill="none" stroke="black" d="M213.14,-872.81C222.88,-863.83 234.96,-852.69 245.6,-842.89"/>
<polygon fill="black" stroke="black" points="248.05,-845.38 253.03,-836.03 243.31,-840.23 248.05,-845.38"/>
<text text-anchor="middle" x="247.34" y="-846.2" font-family="Times-Roman" font-size="14.00">+</text>
</g>
<!-- Hiring Target -->
<g id="node10" class="node">
<title>Hiring Target</title>
<text text-anchor="middle" x="52.5" y="-560.3" font-family="Times-Roman" font-size="14.00">Hiring Target</text>
</g>
<!-- Project Offerings&#45;&gt;Hiring Target -->
<g id="edge9" class="edge">
<title>Project Offerings&#45;&gt;Hiring Target</title>
<path fill="none" stroke="black" d="M128.11,-879.37C95.24,-869.92 62.5,-852.18 62.5,-819 62.5,-819 62.5,-819 62.5,-636 62.5,-621.36 60.39,-605.2 58.11,-591.99"/>
<polygon fill="black" stroke="black" points="61.54,-591.32 56.28,-582.12 54.66,-592.59 61.54,-591.32"/>
<text text-anchor="middle" x="64.99" y="-590.63" font-family="Times-Roman" font-size="14.00">+</text>
</g>
<!-- Bench Engineers -->
<g id="node4" class="node">
<title>Bench Engineers</title>
<text text-anchor="middle" x="157.5" y="-741.3" font-family="Times-Roman" font-size="14.00">Bench Engineers</text>
</g>
<!-- Bench Engineers&#45;&gt;Qualification calls -->
<g id="edge3" class="edge">
<title>Bench Engineers&#45;&gt;Qualification calls</title>
<path fill="none" stroke="black" d="M117.48,-763.05C78.92,-782.21 29.06,-815.8 48.5,-855 68.21,-894.76 110.39,-923.45 144.37,-941.22"/>
<polygon fill="black" stroke="black" points="143.2,-944.56 153.71,-945.94 146.36,-938.31 143.2,-944.56"/>
<text text-anchor="middle" x="138.72" y="-941.77" font-family="Times-Roman" font-size="14.00">+</text>
</g>
<!-- Price -->
<g id="node7" class="node">
<title>Price</title>
<text text-anchor="middle" x="194.5" y="-633.3" font-family="Times-Roman" font-size="14.00">Price</text>
</g>
<!-- Bench Engineers&#45;&gt;Price -->
<g id="edge25" class="edge">
<title>Bench Engineers&#45;&gt;Price</title>
<path fill="none" stroke="black" d="M163.44,-726.97C169.29,-710.22 178.3,-684.41 185.11,-664.89"/>
<polygon fill="black" stroke="black" points="188.46,-665.94 188.45,-655.34 181.85,-663.63 188.46,-665.94"/>
<text text-anchor="middle" x="189.95" y="-666.56" font-family="Times-Roman" font-size="14.00">&#45;</text>
</g>
<!-- Team Quality -->
<g id="node5" class="node">
<title>Team Quality</title>
<text text-anchor="middle" x="338.5" y="-414.3" font-family="Times-Roman" font-size="14.00">Team Quality</text>
</g>
<!-- Team Quality&#45;&gt;Closed Deals -->
<g id="edge4" class="edge">
<title>Team Quality&#45;&gt;Closed Deals</title>
<path fill="none" stroke="black" d="M318.42,-436.13C305.27,-449.34 290.5,-468.87 290.5,-490 290.5,-746 290.5,-746 290.5,-746 290.5,-760.9 286.55,-776.98 282.25,-790.07"/>
<polygon fill="black" stroke="black" points="278.83,-789.24 278.79,-799.84 285.42,-791.57 278.83,-789.24"/>
<text text-anchor="middle" x="277.35" y="-781.21" font-family="Times-Roman" font-size="14.00">+</text>
</g>
<!-- Open Source Contributions -->
<g id="node8" class="node">
<title>Open Source Contributions</title>
<text text-anchor="middle" x="302.5" y="-287.3" font-family="Times-Roman" font-size="14.00">Open Source Contributions</text>
</g>
<!-- Team Quality&#45;&gt;Open Source Contributions -->
<g id="edge6" class="edge">
<title>Team Quality&#45;&gt;Open Source Contributions</title>
<path fill="none" stroke="black" d="M333.57,-399.88C327.57,-379.05 317.37,-343.64 310.3,-319.09"/>
<polygon fill="black" stroke="black" points="313.62,-317.95 307.49,-309.31 306.89,-319.89 313.62,-317.95"/>
<text text-anchor="middle" x="317.34" y="-316.92" font-family="Times-Roman" font-size="14.00">+</text>
</g>
<!-- Accomplished Project Rate -->
<g id="node14" class="node">
<title>Accomplished Project Rate</title>
<text text-anchor="middle" x="516.5" y="-341.3" font-family="Times-Roman" font-size="14.00">Accomplished Project Rate</text>
</g>
<!-- Team Quality&#45;&gt;Accomplished Project Rate -->
<g id="edge17" class="edge">
<title>Team Quality&#45;&gt;Accomplished Project Rate</title>
<path fill="none" stroke="black" d="M381.14,-399.99C406.05,-390.06 437.69,-377.43 464.12,-366.89"/>
<polygon fill="black" stroke="black" points="465.6,-370.07 473.6,-363.11 463.01,-363.57 465.6,-370.07"/>
<text text-anchor="middle" x="463.32" y="-370.34" font-family="Times-Roman" font-size="14.00">+</text>
</g>
<!-- Customer Satisfaction -->
<g id="node20" class="node">
<title>Customer Satisfaction</title>
<text text-anchor="middle" x="494.5" y="-287.3" font-family="Times-Roman" font-size="14.00">Customer Satisfaction</text>
</g>
<!-- Team Quality&#45;&gt;Customer Satisfaction -->
<g id="edge32" class="edge">
<title>Team Quality&#45;&gt;Customer Satisfaction</title>
<path fill="none" stroke="black" d="M347.81,-399.86C359.42,-379.9 381,-347.13 407.5,-327 414.38,-321.78 422.14,-317.22 430.12,-313.27"/>
<polygon fill="black" stroke="black" points="431.59,-316.44 439.2,-309.06 428.65,-310.09 431.59,-316.44"/>
<text text-anchor="middle" x="429.52" y="-316.83" font-family="Times-Roman" font-size="14.00">+</text>
</g>
<!-- Closed Deals&#45;&gt;Bench Engineers -->
<g id="edge14" class="edge">
<title>Closed Deals&#45;&gt;Bench Engineers</title>
<path fill="none" stroke="black" d="M244.19,-799.99C229.08,-790.58 210.09,-778.76 193.75,-768.57"/>
<polygon fill="black" stroke="black" points="195.32,-765.43 184.98,-763.11 191.62,-771.37 195.32,-765.43"/>
<text text-anchor="middle" x="199.87" y="-761.22" font-family="Times-Roman" font-size="14.00">&#45;</text>
</g>
<!-- Project Engineers -->
<g id="node11" class="node">
<title>Project Engineers</title>
<text text-anchor="middle" x="374.5" y="-687.3" font-family="Times-Roman" font-size="14.00">Project Engineers</text>
</g>
<!-- Closed Deals&#45;&gt;Project Engineers -->
<g id="edge10" class="edge">
<title>Closed Deals&#45;&gt;Project Engineers</title>
<path fill="none" stroke="black" d="M288.28,-799.85C293.59,-794.26 299.39,-787.96 304.5,-782 322.54,-760.95 341.8,-735.99 355.54,-717.7"/>
<polygon fill="black" stroke="black" points="358.63,-719.41 361.81,-709.3 353.02,-715.22 358.63,-719.41"/>
<text text-anchor="middle" x="358.75" y="-720.29" font-family="Times-Roman" font-size="14.00">+</text>
</g>
<!-- Accomplished Projects -->
<g id="node13" class="node">
<title>Accomplished Projects</title>
<text text-anchor="middle" x="619.5" y="-233.3" font-family="Times-Roman" font-size="14.00">Accomplished Projects</text>
</g>
<!-- Closed Deals&#45;&gt;Accomplished Projects -->
<g id="edge15" class="edge">
<title>Closed Deals&#45;&gt;Accomplished Projects</title>
<path fill="none" stroke="black" d="M324.55,-817.77C427.52,-817.84 644.5,-810.35 644.5,-746 644.5,-746 644.5,-746 644.5,-344 644.5,-316.54 636.45,-286.12 629.49,-264.94"/>
<polygon fill="black" stroke="black" points="632.75,-263.66 626.2,-255.33 626.13,-265.93 632.75,-263.66"/>
<text text-anchor="middle" x="636.6" y="-262.44" font-family="Times-Roman" font-size="14.00">+</text>
</g>
<!-- Price&#45;&gt;Closed Deals -->
<g id="edge5" class="edge">
<title>Price&#45;&gt;Closed Deals</title>
<path fill="none" stroke="black" d="M202.04,-655.03C209.95,-672.92 222.7,-701.9 233.5,-727 242.66,-748.3 252.87,-772.51 260.4,-790.45"/>
<polygon fill="black" stroke="black" points="257.19,-791.85 264.28,-799.72 263.65,-789.14 257.19,-791.85"/>
<text text-anchor="middle" x="253.18" y="-785.93" font-family="Times-Roman" font-size="14.00">&#45;</text>
</g>
<!-- Salary -->
<g id="node18" class="node">
<title>Salary</title>
<text text-anchor="middle" x="194.5" y="-560.3" font-family="Times-Roman" font-size="14.00">Salary</text>
</g>
<!-- Price&#45;&gt;Salary -->
<g id="edge26" class="edge">
<title>Price&#45;&gt;Salary</title>
<path fill="none" stroke="black" d="M194.5,-618.81C194.5,-610.79 194.5,-601.05 194.5,-592.07"/>
<polygon fill="black" stroke="black" points="198,-592.03 194.5,-582.03 191,-592.03 198,-592.03"/>
<text text-anchor="middle" x="200.84" y="-591.92" font-family="Times-Roman" font-size="14.00">+</text>
</g>
<!-- Reputation -->
<g id="node9" class="node">
<title>Reputation</title>
<text text-anchor="middle" x="409.5" y="-160.3" font-family="Times-Roman" font-size="14.00">Reputation</text>
</g>
<!-- Open Source Contributions&#45;&gt;Reputation -->
<g id="edge7" class="edge">
<title>Open Source Contributions&#45;&gt;Reputation</title>
<path fill="none" stroke="black" d="M310.22,-272.83C317.51,-257.71 329.4,-235.6 343.5,-219 353.07,-207.74 365.2,-197.06 376.45,-188.21"/>
<polygon fill="black" stroke="black" points="378.61,-190.96 384.44,-182.11 374.36,-185.4 378.61,-190.96"/>
<text text-anchor="middle" x="362.5" y="-233.3" font-family="Times-Roman" font-size="14.00">delay</text>
<text text-anchor="middle" x="377.48" y="-191.7" font-family="Times-Roman" font-size="14.00">+</text>
</g>
<!-- Reputation&#45;&gt;Inbound Demand -->
<g id="edge13" class="edge">
<title>Reputation&#45;&gt;Inbound Demand</title>
<path fill="none" stroke="black" d="M455.58,-165.6C545.03,-168.02 733.5,-179.78 733.5,-236 733.5,-965 733.5,-965 733.5,-965 733.5,-1012.01 595.55,-1027.9 504.29,-1033.26"/>
<polygon fill="black" stroke="black" points="504.03,-1029.77 494.24,-1033.82 504.42,-1036.76 504.03,-1029.77"/>
<text text-anchor="middle" x="507.46" y="-1023.04" font-family="Times-Roman" font-size="14.00">+</text>
</g>
<!-- Candidate Number -->
<g id="node12" class="node">
<title>Candidate Number</title>
<text text-anchor="middle" x="409.5" y="-87.3" font-family="Times-Roman" font-size="14.00">Candidate Number</text>
</g>
<!-- Reputation&#45;&gt;Candidate Number -->
<g id="edge12" class="edge">
<title>Reputation&#45;&gt;Candidate Number</title>
<path fill="none" stroke="black" d="M409.5,-145.81C409.5,-137.79 409.5,-128.05 409.5,-119.07"/>
<polygon fill="black" stroke="black" points="413,-119.03 409.5,-109.03 406,-119.03 413,-119.03"/>
<text text-anchor="middle" x="415.84" y="-118.92" font-family="Times-Roman" font-size="14.00">+</text>
</g>
<!-- Candidate Quality -->
<g id="node19" class="node">
<title>Candidate Quality</title>
<text text-anchor="middle" x="246.5" y="-87.3" font-family="Times-Roman" font-size="14.00">Candidate Quality</text>
</g>
<!-- Reputation&#45;&gt;Candidate Quality -->
<g id="edge31" class="edge">
<title>Reputation&#45;&gt;Candidate Quality</title>
<path fill="none" stroke="black" d="M370.46,-145.99C347.84,-136.14 319.17,-123.66 295.11,-113.17"/>
<polygon fill="black" stroke="black" points="296.35,-109.9 285.79,-109.11 293.56,-116.32 296.35,-109.9"/>
<text text-anchor="middle" x="300.78" y="-105.03" font-family="Times-Roman" font-size="14.00">+</text>
</g>
<!-- Hiring Number -->
<g id="node16" class="node">
<title>Hiring Number</title>
<text text-anchor="middle" x="128.5" y="-14.3" font-family="Times-Roman" font-size="14.00">Hiring Number</text>
</g>
<!-- Hiring Target&#45;&gt;Hiring Number -->
<g id="edge23" class="edge">
<title>Hiring Target&#45;&gt;Hiring Number</title>
<path fill="none" stroke="black" d="M57.41,-545.94C61.1,-531.66 65.5,-510.67 65.5,-492 65.5,-492 65.5,-492 65.5,-90 65.5,-70.95 78.34,-54.63 92.43,-42.45"/>
<polygon fill="black" stroke="black" points="94.71,-45.12 100.32,-36.13 90.33,-39.66 94.71,-45.12"/>
<text text-anchor="middle" x="93.68" y="-45.88" font-family="Times-Roman" font-size="14.00">+</text>
</g>
<!-- Hiring Quality -->
<g id="node17" class="node">
<title>Hiring Quality</title>
<text text-anchor="middle" x="194.5" y="-487.3" font-family="Times-Roman" font-size="14.00">Hiring Quality</text>
</g>
<!-- Hiring Target&#45;&gt;Hiring Quality -->
<g id="edge24" class="edge">
<title>Hiring Target&#45;&gt;Hiring Quality</title>
<path fill="none" stroke="black" d="M86.51,-545.99C105.95,-536.27 130.53,-523.99 151.32,-513.59"/>
<polygon fill="black" stroke="black" points="152.89,-516.72 160.27,-509.11 149.76,-510.46 152.89,-516.72"/>
<text text-anchor="middle" x="150.95" y="-517.16" font-family="Times-Roman" font-size="14.00">&#45;</text>
</g>
<!-- Project Engineers&#45;&gt;Team Quality -->
<g id="edge11" class="edge">
<title>Project Engineers&#45;&gt;Team Quality</title>
<path fill="none" stroke="black" d="M370.46,-672.71C366.64,-654.86 361.5,-626.14 361.5,-601 361.5,-601 361.5,-601 361.5,-490 361.5,-474.72 356.62,-458.45 351.35,-445.34"/>
<polygon fill="black" stroke="black" points="354.5,-443.8 347.33,-436.01 348.07,-446.58 354.5,-443.8"/>
<text text-anchor="middle" x="380.5" y="-560.3" font-family="Times-Roman" font-size="14.00">delay</text>
<text text-anchor="middle" x="358.53" y="-442.28" font-family="Times-Roman" font-size="14.00">+</text>
</g>
<!-- Candidate Number&#45;&gt;Hiring Number -->
<g id="edge30" class="edge">
<title>Candidate Number&#45;&gt;Hiring Number</title>
<path fill="none" stroke="black" d="M342.19,-72.99C298.57,-61.97 241.88,-47.65 197.86,-36.52"/>
<polygon fill="black" stroke="black" points="198.65,-33.11 188.1,-34.06 196.93,-39.9 198.65,-33.11"/>
<text text-anchor="middle" x="202.83" y="-27.54" font-family="Times-Roman" font-size="14.00">+</text>
</g>
<!-- Accomplished Projects&#45;&gt;Reputation -->
<g id="edge16" class="edge">
<title>Accomplished Projects&#45;&gt;Reputation</title>
<path fill="none" stroke="black" d="M569.2,-218.99C537.97,-208.43 497.78,-194.85 465.53,-183.95"/>
<polygon fill="black" stroke="black" points="466.39,-180.54 455.8,-180.65 464.15,-187.17 466.39,-180.54"/>
<text text-anchor="middle" x="470.71" y="-175.3" font-family="Times-Roman" font-size="14.00">+</text>
</g>
<!-- Accomplished Project Rate&#45;&gt;Accomplished Projects -->
<g id="edge18" class="edge">
<title>Accomplished Project Rate&#45;&gt;Accomplished Projects</title>
<path fill="none" stroke="black" d="M573.38,-327C582.35,-322.31 590.85,-316.41 597.5,-309 608.32,-296.95 613.82,-279.64 616.62,-265.14"/>
<polygon fill="black" stroke="black" points="620.08,-265.61 618.21,-255.18 613.17,-264.5 620.08,-265.61"/>
<text text-anchor="middle" x="622.32" y="-265.91" font-family="Times-Roman" font-size="14.00">+</text>
</g>
<!-- Failed Projects -->
<g id="node15" class="node">
<title>Failed Projects</title>
<text text-anchor="middle" x="458.5" y="-233.3" font-family="Times-Roman" font-size="14.00">Failed Projects</text>
</g>
<!-- Accomplished Project Rate&#45;&gt;Failed Projects -->
<g id="edge19" class="edge">
<title>Accomplished Project Rate&#45;&gt;Failed Projects</title>
<path fill="none" stroke="black" d="M562.57,-326.87C569.73,-322.17 576.17,-316.3 580.5,-309 588.66,-295.24 590.13,-285.78 580.5,-273 578.57,-270.43 553.03,-262.93 525.81,-255.52"/>
<polygon fill="black" stroke="black" points="526.72,-252.14 516.15,-252.92 524.9,-258.9 526.72,-252.14"/>
<text text-anchor="middle" x="530.93" y="-246.64" font-family="Times-Roman" font-size="14.00">+</text>
</g>
<!-- Failed Projects&#45;&gt;Reputation -->
<g id="edge20" class="edge">
<title>Failed Projects&#45;&gt;Reputation</title>
<path fill="none" stroke="black" d="M446.64,-218.81C440.74,-210.27 433.5,-199.77 426.98,-190.32"/>
<polygon fill="black" stroke="black" points="429.81,-188.27 421.25,-182.03 424.05,-192.25 429.81,-188.27"/>
<text text-anchor="middle" x="434.19" y="-185.92" font-family="Times-Roman" font-size="14.00">&#45;</text>
</g>
<!-- Hiring Number&#45;&gt;Bench Engineers -->
<g id="edge21" class="edge">
<title>Hiring Number&#45;&gt;Bench Engineers</title>
<path fill="none" stroke="black" d="M121.21,-36.16C115.85,-50.34 109.5,-71.12 109.5,-90 109.5,-455 109.5,-455 109.5,-455 109.5,-552.58 136.46,-666.22 149.97,-717.04"/>
<polygon fill="black" stroke="black" points="146.65,-718.16 152.63,-726.9 153.4,-716.33 146.65,-718.16"/>
<text text-anchor="middle" x="142.97" y="-711.73" font-family="Times-Roman" font-size="14.00">+</text>
</g>
<!-- Hiring Quality&#45;&gt;Team Quality -->
<g id="edge22" class="edge">
<title>Hiring Quality&#45;&gt;Team Quality</title>
<path fill="none" stroke="black" d="M228.99,-472.99C248.71,-463.27 273.63,-450.99 294.71,-440.59"/>
<polygon fill="black" stroke="black" points="296.37,-443.68 303.79,-436.11 293.27,-437.4 296.37,-443.68"/>
<text text-anchor="middle" x="294.4" y="-444.11" font-family="Times-Roman" font-size="14.00">+</text>
</g>
<!-- Hiring Quality&#45;&gt;Hiring Number -->
<g id="edge28" class="edge">
<title>Hiring Quality&#45;&gt;Hiring Number</title>
<path fill="none" stroke="black" d="M174.84,-472.79C161.96,-459.54 147.5,-439.99 147.5,-419 147.5,-419 147.5,-419 147.5,-90 147.5,-75.1 143.55,-59.02 139.25,-45.93"/>
<polygon fill="black" stroke="black" points="142.42,-44.43 135.79,-36.16 135.83,-46.76 142.42,-44.43"/>
<text text-anchor="middle" x="146.3" y="-43.17" font-family="Times-Roman" font-size="14.00">&#45;</text>
</g>
<!-- Salary&#45;&gt;Hiring Quality -->
<g id="edge27" class="edge">
<title>Salary&#45;&gt;Hiring Quality</title>
<path fill="none" stroke="black" d="M194.5,-545.81C194.5,-537.79 194.5,-528.05 194.5,-519.07"/>
<polygon fill="black" stroke="black" points="198,-519.03 194.5,-509.03 191,-519.03 198,-519.03"/>
<text text-anchor="middle" x="200.84" y="-518.92" font-family="Times-Roman" font-size="14.00">+</text>
</g>
<!-- Candidate Quality&#45;&gt;Hiring Quality -->
<g id="edge29" class="edge">
<title>Candidate Quality&#45;&gt;Hiring Quality</title>
<path fill="none" stroke="black" d="M219.57,-109.05C203.23,-121.69 185.5,-140.57 185.5,-163 185.5,-419 185.5,-419 185.5,-419 185.5,-433.61 187.4,-449.77 189.45,-462.98"/>
<polygon fill="black" stroke="black" points="186,-463.57 191.1,-472.86 192.91,-462.42 186,-463.57"/>
<text text-anchor="middle" x="182.61" y="-456.79" font-family="Times-Roman" font-size="14.00">+</text>
</g>
<!-- Customer Satisfaction&#45;&gt;Reputation -->
<g id="edge33" class="edge">
<title>Customer Satisfaction&#45;&gt;Reputation</title>
<path fill="none" stroke="black" d="M412.74,-273C404.86,-268.36 397.83,-262.47 392.5,-255 379.3,-236.51 386.13,-210.63 394.74,-191.36"/>
<polygon fill="black" stroke="black" points="397.95,-192.76 399.17,-182.23 391.65,-189.7 397.95,-192.76"/>
<text text-anchor="middle" x="398.94" y="-193.53" font-family="Times-Roman" font-size="14.00">+</text>
</g>
</g>
</svg>
