<?xml version="1.0" encoding="UTF-8" standalone="no"?>
<!DOCTYPE svg PUBLIC "-//W3C//DTD SVG 1.1//EN"
 "http://www.w3.org/Graphics/SVG/1.1/DTD/svg11.dtd">
<!-- Generated by graphviz version 2.43.0 (0)
 -->
<!-- Title: mygraph Pages: 1 -->
<svg width="612pt" height="332pt"
 viewBox="0.00 0.00 612.19 332.00" xmlns="http://www.w3.org/2000/svg" xmlns:xlink="http://www.w3.org/1999/xlink">
<g id="graph0" class="graph" transform="scale(1 1) rotate(0) translate(4 328)">
<title>mygraph</title>
<polygon fill="white" stroke="transparent" points="-4,4 -4,-328 608.19,-328 608.19,4 -4,4"/>
<!-- Inbound Demand -->
<g id="node1" class="node">
<title>Inbound Demand</title>
<ellipse fill="none" stroke="black" cx="291.84" cy="-306" rx="89.08" ry="18"/>
<text text-anchor="middle" x="291.84" y="-302.3" font-family="Times-Roman" font-size="14.00">Inbound Demand</text>
</g>
<!-- Qualification calls -->
<g id="node2" class="node">
<title>Qualification calls</title>
<ellipse fill="none" stroke="black" cx="291.84" cy="-234" rx="90.18" ry="18"/>
<text text-anchor="middle" x="291.84" y="-230.3" font-family="Times-Roman" font-size="14.00">Qualification calls</text>
</g>
<!-- Inbound Demand&#45;&gt;Qualification calls -->
<g id="edge1" class="edge">
<title>Inbound Demand&#45;&gt;Qualification calls</title>
<path fill="none" stroke="black" d="M291.84,-287.7C291.84,-279.98 291.84,-270.71 291.84,-262.11"/>
<polygon fill="black" stroke="black" points="295.34,-262.1 291.84,-252.1 288.34,-262.1 295.34,-262.1"/>
<text text-anchor="middle" x="285.34" y="-255.9" font-family="Times-Roman" font-size="14.00">+</text>
</g>
<!-- Project offerings -->
<g id="node3" class="node">
<title>Project offerings</title>
<ellipse fill="none" stroke="black" cx="83.84" cy="-162" rx="83.69" ry="18"/>
<text text-anchor="middle" x="83.84" y="-158.3" font-family="Times-Roman" font-size="14.00">Project offerings</text>
</g>
<!-- Qualification calls&#45;&gt;Project offerings -->
<g id="edge2" class="edge">
<title>Qualification calls&#45;&gt;Project offerings</title>
<path fill="none" stroke="black" d="M247.99,-218.24C215.55,-207.32 171.22,-192.41 136.81,-180.82"/>
<polygon fill="black" stroke="black" points="137.52,-177.37 126.93,-177.5 135.29,-184.01 137.52,-177.37"/>
<text text-anchor="middle" x="120.43" y="-181.3" font-family="Times-Roman" font-size="14.00">+</text>
</g>
<!-- Closed deals -->
<g id="node6" class="node">
<title>Closed deals</title>
<ellipse fill="none" stroke="black" cx="403.84" cy="-90" rx="67.69" ry="18"/>
<text text-anchor="middle" x="403.84" y="-86.3" font-family="Times-Roman" font-size="14.00">Closed deals</text>
</g>
<!-- Project offerings&#45;&gt;Closed deals -->
<g id="edge5" class="edge">
<title>Project offerings&#45;&gt;Closed deals</title>
<path fill="none" stroke="black" d="M140.32,-148.65C197.39,-136.16 285.27,-116.94 343.64,-104.17"/>
<polygon fill="black" stroke="black" points="344.44,-107.58 353.46,-102.02 342.95,-100.74 344.44,-107.58"/>
<text text-anchor="middle" x="346.96" y="-105.82" font-family="Times-Roman" font-size="14.00">+</text>
</g>
<!-- Bench Engineers -->
<g id="node4" class="node">
<title>Bench Engineers</title>
<ellipse fill="none" stroke="black" cx="451.84" cy="-18" rx="87.18" ry="18"/>
<text text-anchor="middle" x="451.84" y="-14.3" font-family="Times-Roman" font-size="14.00">Bench Engineers</text>
</g>
<!-- Bench Engineers&#45;&gt;Qualification calls -->
<g id="edge3" class="edge">
<title>Bench Engineers&#45;&gt;Qualification calls</title>
<path fill="none" stroke="black" d="M464.15,-36.22C470.49,-46.16 477.57,-59.2 480.84,-72 492.73,-118.5 509.84,-141.75 480.84,-180 467.15,-198.06 416.68,-211.66 371.33,-220.56"/>
<polygon fill="black" stroke="black" points="370.62,-217.13 361.45,-222.44 371.93,-224.01 370.62,-217.13"/>
<text text-anchor="middle" x="354.95" y="-211.24" font-family="Times-Roman" font-size="14.00">+</text>
</g>
<!-- Bench Engineers&#45;&gt;Closed deals -->
<g id="edge6" class="edge">
<title>Bench Engineers&#45;&gt;Closed deals</title>
<path fill="none" stroke="black" d="M445.81,-36.45C440.89,-44.87 434.04,-55.13 427.24,-64.33"/>
<polygon fill="black" stroke="black" points="424.35,-62.34 421.06,-72.41 429.91,-66.6 424.35,-62.34"/>
<text text-anchor="middle" x="414.56" y="-61.21" font-family="Times-Roman" font-size="14.00">+</text>
</g>
<!-- Bench Quality -->
<g id="node5" class="node">
<title>Bench Quality</title>
<ellipse fill="none" stroke="black" cx="259.84" cy="-162" rx="74.19" ry="18"/>
<text text-anchor="middle" x="259.84" y="-158.3" font-family="Times-Roman" font-size="14.00">Bench Quality</text>
</g>
<!-- Bench Quality&#45;&gt;Closed deals -->
<g id="edge4" class="edge">
<title>Bench Quality&#45;&gt;Closed deals</title>
<path fill="none" stroke="black" d="M291.44,-145.64C312.69,-135.31 340.88,-121.61 363.71,-110.51"/>
<polygon fill="black" stroke="black" points="365.35,-113.61 372.81,-106.09 362.29,-107.31 365.35,-113.61"/>
<text text-anchor="middle" x="366.31" y="-109.89" font-family="Times-Roman" font-size="14.00">+</text>
</g>
<!-- Closed deals&#45;&gt;Bench Engineers -->
<g id="edge8" class="edge">
<title>Closed deals&#45;&gt;Bench Engineers</title>
<path fill="none" stroke="black" d="M409.58,-72.05C414.47,-63.63 421.36,-53.28 428.23,-43.97"/>
<polygon fill="black" stroke="black" points="431.18,-45.86 434.47,-35.79 425.62,-41.61 431.18,-45.86"/>
<text text-anchor="middle" x="431.47" y="-39.59" font-family="Times-Roman" font-size="14.00">&#45;</text>
</g>
<!-- Reputation -->
<g id="node7" class="node">
<title>Reputation</title>
<ellipse fill="none" stroke="black" cx="411.84" cy="-162" rx="59.59" ry="18"/>
<text text-anchor="middle" x="411.84" y="-158.3" font-family="Times-Roman" font-size="14.00">Reputation</text>
</g>
<!-- Reputation&#45;&gt;Closed deals -->
<g id="edge7" class="edge">
<title>Reputation&#45;&gt;Closed deals</title>
<path fill="none" stroke="black" d="M409.87,-143.7C408.98,-135.98 407.92,-126.71 406.94,-118.11"/>
<polygon fill="black" stroke="black" points="410.41,-117.64 405.8,-108.1 403.46,-118.44 410.41,-117.64"/>
<text text-anchor="middle" x="399.3" y="-111.9" font-family="Times-Roman" font-size="14.00">+</text>
</g>
<!-- Hiring -->
<g id="node8" class="node">
<title>Hiring</title>
<ellipse fill="none" stroke="black" cx="565.84" cy="-90" rx="38.19" ry="18"/>
<text text-anchor="middle" x="565.84" y="-86.3" font-family="Times-Roman" font-size="14.00">Hiring</text>
</g>
<!-- Hiring&#45;&gt;Bench Engineers -->
<g id="edge9" class="edge">
<title>Hiring&#45;&gt;Bench Engineers</title>
<path fill="none" stroke="black" d="M543.59,-75.34C527.55,-65.49 505.58,-52 487.16,-40.69"/>
<polygon fill="black" stroke="black" points="488.8,-37.58 478.44,-35.33 485.13,-43.55 488.8,-37.58"/>
<text text-anchor="middle" x="471.94" y="-39.13" font-family="Times-Roman" font-size="14.00">+</text>
</g>
</g>
</svg>
