<?xml version="1.0" encoding="UTF-8" standalone="no"?>
<!DOCTYPE svg PUBLIC "-//W3C//DTD SVG 1.1//EN"
 "http://www.w3.org/Graphics/SVG/1.1/DTD/svg11.dtd">
<!-- Generated by graphviz version 2.43.0 (0)
 -->
<!-- Title: mygraph Pages: 1 -->
<svg width="652pt" height="476pt"
 viewBox="0.00 0.00 652.00 476.00" xmlns="http://www.w3.org/2000/svg" xmlns:xlink="http://www.w3.org/1999/xlink">
<g id="graph0" class="graph" transform="scale(1 1) rotate(0) translate(4 472)">
<title>mygraph</title>
<polygon fill="white" stroke="transparent" points="-4,4 -4,-472 648,-472 648,4 -4,4"/>
<!-- Inbound Demand -->
<g id="node1" class="node">
<title>Inbound Demand</title>
<text text-anchor="middle" x="112" y="-302.3" font-family="Times-Roman" font-size="14.00">Inbound Demand</text>
</g>
<!-- Qualification calls -->
<g id="node2" class="node">
<title>Qualification calls</title>
<text text-anchor="middle" x="112" y="-230.3" font-family="Times-Roman" font-size="14.00">Qualification calls</text>
</g>
<!-- Inbound Demand&#45;&gt;Qualification calls -->
<g id="edge1" class="edge">
<title>Inbound Demand&#45;&gt;Qualification calls</title>
<path fill="none" stroke="black" d="M112,-287.7C112,-279.98 112,-270.71 112,-262.11"/>
<polygon fill="black" stroke="black" points="115.5,-262.1 112,-252.1 108.5,-262.1 115.5,-262.1"/>
<text text-anchor="middle" x="118.34" y="-262" font-family="Times-Roman" font-size="14.00">+</text>
</g>
<!-- Project offerings -->
<g id="node3" class="node">
<title>Project offerings</title>
<text text-anchor="middle" x="131" y="-158.3" font-family="Times-Roman" font-size="14.00">Project offerings</text>
</g>
<!-- Qualification calls&#45;&gt;Project offerings -->
<g id="edge2" class="edge">
<title>Qualification calls&#45;&gt;Project offerings</title>
<path fill="none" stroke="black" d="M116.7,-215.7C118.81,-207.9 121.36,-198.51 123.72,-189.83"/>
<polygon fill="black" stroke="black" points="127.12,-190.67 126.36,-180.1 120.36,-188.84 127.12,-190.67"/>
<text text-anchor="middle" x="128.91" y="-191.18" font-family="Times-Roman" font-size="14.00">+</text>
</g>
<!-- Closed deals -->
<g id="node6" class="node">
<title>Closed deals</title>
<text text-anchor="middle" x="131" y="-86.3" font-family="Times-Roman" font-size="14.00">Closed deals</text>
</g>
<!-- Project offerings&#45;&gt;Closed deals -->
<g id="edge7" class="edge">
<title>Project offerings&#45;&gt;Closed deals</title>
<path fill="none" stroke="black" d="M131,-143.7C131,-135.98 131,-126.71 131,-118.11"/>
<polygon fill="black" stroke="black" points="134.5,-118.1 131,-108.1 127.5,-118.1 134.5,-118.1"/>
<text text-anchor="middle" x="137.34" y="-118" font-family="Times-Roman" font-size="14.00">+</text>
</g>
<!-- Bench Engineers -->
<g id="node4" class="node">
<title>Bench Engineers</title>
<text text-anchor="middle" x="84" y="-14.3" font-family="Times-Roman" font-size="14.00">Bench Engineers</text>
</g>
<!-- Bench Engineers&#45;&gt;Qualification calls -->
<g id="edge3" class="edge">
<title>Bench Engineers&#45;&gt;Qualification calls</title>
<path fill="none" stroke="black" d="M75.11,-36.18C60.75,-66.44 36.04,-130.7 57,-180 61.73,-191.14 70.08,-201.07 78.87,-209.24"/>
<polygon fill="black" stroke="black" points="76.77,-212.05 86.62,-215.95 81.35,-206.76 76.77,-212.05"/>
<text text-anchor="middle" x="72.19" y="-208.15" font-family="Times-Roman" font-size="14.00">+</text>
</g>
<!-- Bench Engineers&#45;&gt;Closed deals -->
<g id="edge8" class="edge">
<title>Bench Engineers&#45;&gt;Closed deals</title>
<path fill="none" stroke="black" d="M101.38,-36.1C107.67,-44.21 114.51,-54.08 120.14,-63.08"/>
<polygon fill="black" stroke="black" points="117.16,-64.91 125.3,-71.7 123.17,-61.32 117.16,-64.91"/>
<text text-anchor="middle" x="112.88" y="-59.59" font-family="Times-Roman" font-size="14.00">+</text>
</g>
<!-- Bench Quality -->
<g id="node5" class="node">
<title>Bench Quality</title>
<text text-anchor="middle" x="266" y="-374.3" font-family="Times-Roman" font-size="14.00">Bench Quality</text>
</g>
<!-- Bench Quality&#45;&gt;Closed deals -->
<g id="edge4" class="edge">
<title>Bench Quality&#45;&gt;Closed deals</title>
<path fill="none" stroke="black" d="M263,-359.97C254.41,-312.54 228.75,-180.07 204,-144 195.8,-132.05 183.99,-121.81 172.25,-113.61"/>
<polygon fill="black" stroke="black" points="174.04,-110.6 163.77,-108.01 170.18,-116.44 174.04,-110.6"/>
<text text-anchor="middle" x="178.6" y="-106.52" font-family="Times-Roman" font-size="14.00">+</text>
</g>
<!-- Open Source Contributions -->
<g id="node7" class="node">
<title>Open Source Contributions</title>
<text text-anchor="middle" x="354" y="-230.3" font-family="Times-Roman" font-size="14.00">Open Source Contributions</text>
</g>
<!-- Bench Quality&#45;&gt;Open Source Contributions -->
<g id="edge5" class="edge">
<title>Bench Quality&#45;&gt;Open Source Contributions</title>
<path fill="none" stroke="black" d="M276.61,-359.87C291.88,-335.24 320.14,-289.64 337.96,-260.88"/>
<polygon fill="black" stroke="black" points="341.05,-262.53 343.35,-252.19 335.1,-258.85 341.05,-262.53"/>
<text text-anchor="middle" x="341.57" y="-263.38" font-family="Times-Roman" font-size="14.00">+</text>
</g>
<!-- Team Quality -->
<g id="node10" class="node">
<title>Team Quality</title>
<text text-anchor="middle" x="474" y="-302.3" font-family="Times-Roman" font-size="14.00">Team Quality</text>
</g>
<!-- Bench Quality&#45;&gt;Team Quality -->
<g id="edge13" class="edge">
<title>Bench Quality&#45;&gt;Team Quality</title>
<path fill="none" stroke="black" d="M316.62,-359.97C345.81,-350.14 382.69,-337.73 413.42,-327.39"/>
<polygon fill="black" stroke="black" points="414.8,-330.62 423.16,-324.11 412.56,-323.98 414.8,-330.62"/>
<text text-anchor="middle" x="412.29" y="-330.76" font-family="Times-Roman" font-size="14.00">+</text>
</g>
<!-- Closed deals&#45;&gt;Bench Engineers -->
<g id="edge10" class="edge">
<title>Closed deals&#45;&gt;Bench Engineers</title>
<path fill="none" stroke="black" d="M113.47,-71.7C107.16,-63.56 100.33,-53.69 94.72,-44.7"/>
<polygon fill="black" stroke="black" points="97.72,-42.9 89.59,-36.1 91.71,-46.48 97.72,-42.9"/>
<text text-anchor="middle" x="102" y="-40.83" font-family="Times-Roman" font-size="14.00">&#45;</text>
</g>
<!-- Reputation -->
<g id="node8" class="node">
<title>Reputation</title>
<text text-anchor="middle" x="354" y="-158.3" font-family="Times-Roman" font-size="14.00">Reputation</text>
</g>
<!-- Open Source Contributions&#45;&gt;Reputation -->
<g id="edge6" class="edge">
<title>Open Source Contributions&#45;&gt;Reputation</title>
<path fill="none" stroke="black" d="M354,-215.7C354,-207.98 354,-198.71 354,-190.11"/>
<polygon fill="black" stroke="black" points="357.5,-190.1 354,-180.1 350.5,-190.1 357.5,-190.1"/>
<text text-anchor="middle" x="360.34" y="-190" font-family="Times-Roman" font-size="14.00">+</text>
</g>
<!-- Reputation&#45;&gt;Closed deals -->
<g id="edge9" class="edge">
<title>Reputation&#45;&gt;Closed deals</title>
<path fill="none" stroke="black" d="M307.79,-146.5C274.68,-136.1 229.69,-121.98 193.39,-110.58"/>
<polygon fill="black" stroke="black" points="193.99,-107.1 183.4,-107.45 191.89,-113.78 193.99,-107.1"/>
<text text-anchor="middle" x="198.27" y="-101.77" font-family="Times-Roman" font-size="14.00">+</text>
</g>
<!-- Hiring -->
<g id="node9" class="node">
<title>Hiring</title>
<text text-anchor="middle" x="112" y="-446.3" font-family="Times-Roman" font-size="14.00">Hiring</text>
</g>
<!-- Hiring&#45;&gt;Bench Engineers -->
<g id="edge11" class="edge">
<title>Hiring&#45;&gt;Bench Engineers</title>
<path fill="none" stroke="black" d="M85.46,-431.85C52.34,-408.13 0,-361.95 0,-307 0,-307 0,-307 0,-161 0,-114.6 33.64,-70.06 58.34,-43.6"/>
<polygon fill="black" stroke="black" points="60.95,-45.95 65.36,-36.31 55.9,-41.09 60.95,-45.95"/>
<text text-anchor="middle" x="60.5" y="-46.81" font-family="Times-Roman" font-size="14.00">+</text>
</g>
<!-- Hiring&#45;&gt;Bench Quality -->
<g id="edge12" class="edge">
<title>Hiring&#45;&gt;Bench Quality</title>
<path fill="none" stroke="black" d="M141.69,-435.5C163.63,-425.53 193.92,-411.76 219.11,-400.31"/>
<polygon fill="black" stroke="black" points="220.83,-403.38 228.49,-396.05 217.94,-397 220.83,-403.38"/>
<text text-anchor="middle" x="218.73" y="-403.75" font-family="Times-Roman" font-size="14.00">&#45;</text>
</g>
<!-- Customer Satisfaction -->
<g id="node11" class="node">
<title>Customer Satisfaction</title>
<text text-anchor="middle" x="559" y="-230.3" font-family="Times-Roman" font-size="14.00">Customer Satisfaction</text>
</g>
<!-- Team Quality&#45;&gt;Customer Satisfaction -->
<g id="edge14" class="edge">
<title>Team Quality&#45;&gt;Customer Satisfaction</title>
<path fill="none" stroke="black" d="M495.01,-287.7C505.72,-278.88 518.89,-268.03 530.5,-258.47"/>
<polygon fill="black" stroke="black" points="532.74,-261.16 538.23,-252.1 528.29,-255.76 532.74,-261.16"/>
<text text-anchor="middle" x="531.77" y="-261.94" font-family="Times-Roman" font-size="14.00">+</text>
</g>
<!-- Customer Satisfaction&#45;&gt;Reputation -->
<g id="edge15" class="edge">
<title>Customer Satisfaction&#45;&gt;Reputation</title>
<path fill="none" stroke="black" d="M509.11,-215.97C479.17,-205.74 441.01,-192.71 410.03,-182.13"/>
<polygon fill="black" stroke="black" points="410.84,-178.71 400.24,-178.79 408.57,-185.33 410.84,-178.71"/>
<text text-anchor="middle" x="415.16" y="-173.48" font-family="Times-Roman" font-size="14.00">+</text>
</g>
</g>
</svg>
