<?xml version="1.0" encoding="UTF-8" standalone="no"?>
<!DOCTYPE svg PUBLIC "-//W3C//DTD SVG 1.1//EN"
 "http://www.w3.org/Graphics/SVG/1.1/DTD/svg11.dtd">
<!-- Generated by graphviz version 2.43.0 (0)
 -->
<!-- Title: mygraph Pages: 1 -->
<svg width="764pt" height="750pt"
 viewBox="0.00 0.00 763.50 750.00" xmlns="http://www.w3.org/2000/svg" xmlns:xlink="http://www.w3.org/1999/xlink">
<g id="graph0" class="graph" transform="scale(1 1) rotate(0) translate(4 746)">
<title>mygraph</title>
<polygon fill="white" stroke="transparent" points="-4,4 -4,-746 759.5,-746 759.5,4 -4,4"/>
<!-- Inbound Demand -->
<g id="node1" class="node">
<title>Inbound Demand</title>
<text text-anchor="middle" x="532.5" y="-720.3" font-family="Times-Roman" font-size="14.00">Inbound Demand</text>
</g>
<!-- Qualification calls -->
<g id="node2" class="node">
<title>Qualification calls</title>
<text text-anchor="middle" x="275.5" y="-647.3" font-family="Times-Roman" font-size="14.00">Qualification calls</text>
</g>
<!-- Inbound Demand&#45;&gt;Qualification calls -->
<g id="edge1" class="edge">
<title>Inbound Demand&#45;&gt;Qualification calls</title>
<path fill="none" stroke="black" d="M470.94,-705.99C433.71,-695.71 386.07,-682.55 347.14,-671.79"/>
<polygon fill="black" stroke="black" points="348.02,-668.4 337.45,-669.11 346.15,-675.15 348.02,-668.4"/>
<text text-anchor="middle" x="352.24" y="-662.92" font-family="Times-Roman" font-size="14.00">+</text>
</g>
<!-- Project Offerings -->
<g id="node3" class="node">
<title>Project Offerings</title>
<text text-anchor="middle" x="181.5" y="-574.3" font-family="Times-Roman" font-size="14.00">Project Offerings</text>
</g>
<!-- Qualification calls&#45;&gt;Project Offerings -->
<g id="edge2" class="edge">
<title>Qualification calls&#45;&gt;Project Offerings</title>
<path fill="none" stroke="black" d="M252.75,-632.81C240.62,-623.66 225.53,-612.26 212.37,-602.32"/>
<polygon fill="black" stroke="black" points="214.13,-599.26 204.05,-596.03 209.92,-604.85 214.13,-599.26"/>
<text text-anchor="middle" x="218.71" y="-595.46" font-family="Times-Roman" font-size="14.00">+</text>
</g>
<!-- Closed Deals -->
<g id="node6" class="node">
<title>Closed Deals</title>
<text text-anchor="middle" x="386.5" y="-501.3" font-family="Times-Roman" font-size="14.00">Closed Deals</text>
</g>
<!-- Project Offerings&#45;&gt;Closed Deals -->
<g id="edge8" class="edge">
<title>Project Offerings&#45;&gt;Closed Deals</title>
<path fill="none" stroke="black" d="M230.6,-559.99C259.68,-549.92 296.7,-537.1 327.37,-526.48"/>
<polygon fill="black" stroke="black" points="328.78,-529.69 337.09,-523.11 326.49,-523.08 328.78,-529.69"/>
<text text-anchor="middle" x="326.32" y="-529.85" font-family="Times-Roman" font-size="14.00">+</text>
</g>
<!-- Hiring Target -->
<g id="node10" class="node">
<title>Hiring Target</title>
<text text-anchor="middle" x="90.5" y="-501.3" font-family="Times-Roman" font-size="14.00">Hiring Target</text>
</g>
<!-- Project Offerings&#45;&gt;Hiring Target -->
<g id="edge9" class="edge">
<title>Project Offerings&#45;&gt;Hiring Target</title>
<path fill="none" stroke="black" d="M159.47,-559.81C147.73,-550.66 133.13,-539.26 120.38,-529.32"/>
<polygon fill="black" stroke="black" points="122.36,-526.42 112.33,-523.03 118.06,-531.94 122.36,-526.42"/>
<text text-anchor="middle" x="126.94" y="-522.69" font-family="Times-Roman" font-size="14.00">+</text>
</g>
<!-- Bench Engineers -->
<g id="node4" class="node">
<title>Bench Engineers</title>
<text text-anchor="middle" x="232.5" y="-428.3" font-family="Times-Roman" font-size="14.00">Bench Engineers</text>
</g>
<!-- Bench Engineers&#45;&gt;Qualification calls -->
<g id="edge3" class="edge">
<title>Bench Engineers&#45;&gt;Qualification calls</title>
<path fill="none" stroke="black" d="M235.92,-450.25C243.38,-487.92 261.19,-577.77 270.15,-623"/>
<polygon fill="black" stroke="black" points="266.75,-623.84 272.13,-632.97 273.62,-622.48 266.75,-623.84"/>
<text text-anchor="middle" x="263.27" y="-617.17" font-family="Times-Roman" font-size="14.00">+</text>
</g>
<!-- Team Quality -->
<g id="node5" class="node">
<title>Team Quality</title>
<text text-anchor="middle" x="232.5" y="-320.3" font-family="Times-Roman" font-size="14.00">Team Quality</text>
</g>
<!-- Bench Engineers&#45;&gt;Team Quality -->
<g id="edge11" class="edge">
<title>Bench Engineers&#45;&gt;Team Quality</title>
<path fill="none" stroke="black" d="M232.5,-413.97C232.5,-397.38 232.5,-371.88 232.5,-352.43"/>
<polygon fill="black" stroke="black" points="236,-352.34 232.5,-342.34 229,-352.34 236,-352.34"/>
<text text-anchor="middle" x="238.84" y="-352.24" font-family="Times-Roman" font-size="14.00">+</text>
</g>
<!-- Bench Engineers&#45;&gt;Closed Deals -->
<g id="edge10" class="edge">
<title>Bench Engineers&#45;&gt;Closed Deals</title>
<path fill="none" stroke="black" d="M275.49,-450.11C297.64,-459.85 324.42,-472.14 346.18,-482.52"/>
<polygon fill="black" stroke="black" points="344.94,-485.81 355.47,-486.99 347.98,-479.51 344.94,-485.81"/>
<text text-anchor="middle" x="340.47" y="-483.12" font-family="Times-Roman" font-size="14.00">+</text>
</g>
<!-- Team Quality&#45;&gt;Closed Deals -->
<g id="edge4" class="edge">
<title>Team Quality&#45;&gt;Closed Deals</title>
<path fill="none" stroke="black" d="M286.05,-327.24C342.93,-332.93 429.38,-351.96 464.5,-414 472.38,-427.92 471.93,-435.83 464.5,-450 457.8,-462.8 446.53,-473.16 434.61,-481.26"/>
<polygon fill="black" stroke="black" points="432.48,-478.47 425.88,-486.76 436.21,-484.4 432.48,-478.47"/>
<text text-anchor="middle" x="434" y="-470.45" font-family="Times-Roman" font-size="14.00">+</text>
</g>
<!-- Open Source Contributions -->
<g id="node8" class="node">
<title>Open Source Contributions</title>
<text text-anchor="middle" x="227.5" y="-247.3" font-family="Times-Roman" font-size="14.00">Open Source Contributions</text>
</g>
<!-- Team Quality&#45;&gt;Open Source Contributions -->
<g id="edge6" class="edge">
<title>Team Quality&#45;&gt;Open Source Contributions</title>
<path fill="none" stroke="black" d="M231.29,-305.81C230.72,-297.79 230.04,-288.05 229.41,-279.07"/>
<polygon fill="black" stroke="black" points="232.89,-278.76 228.7,-269.03 225.91,-279.25 232.89,-278.76"/>
<text text-anchor="middle" x="235.98" y="-278.44" font-family="Times-Roman" font-size="14.00">+</text>
</g>
<!-- Customer Satisfaction -->
<g id="node18" class="node">
<title>Customer Satisfaction</title>
<text text-anchor="middle" x="432.5" y="-247.3" font-family="Times-Roman" font-size="14.00">Customer Satisfaction</text>
</g>
<!-- Team Quality&#45;&gt;Customer Satisfaction -->
<g id="edge28" class="edge">
<title>Team Quality&#45;&gt;Customer Satisfaction</title>
<path fill="none" stroke="black" d="M280.4,-305.99C308.77,-295.92 344.89,-283.1 374.81,-272.48"/>
<polygon fill="black" stroke="black" points="376.04,-275.76 384.29,-269.11 373.7,-269.16 376.04,-275.76"/>
<text text-anchor="middle" x="373.6" y="-275.94" font-family="Times-Roman" font-size="14.00">+</text>
</g>
<!-- Closed Deals&#45;&gt;Bench Engineers -->
<g id="edge17" class="edge">
<title>Closed Deals&#45;&gt;Bench Engineers</title>
<path fill="none" stroke="black" d="M343.75,-486.99C321.54,-477.23 294.61,-464.88 272.77,-454.45"/>
<polygon fill="black" stroke="black" points="274.28,-451.29 263.75,-450.11 271.25,-457.6 274.28,-451.29"/>
<text text-anchor="middle" x="278.75" y="-446.59" font-family="Times-Roman" font-size="14.00">&#45;</text>
</g>
<!-- Project Engineers -->
<g id="node11" class="node">
<title>Project Engineers</title>
<text text-anchor="middle" x="386.5" y="-428.3" font-family="Times-Roman" font-size="14.00">Project Engineers</text>
</g>
<!-- Closed Deals&#45;&gt;Project Engineers -->
<g id="edge12" class="edge">
<title>Closed Deals&#45;&gt;Project Engineers</title>
<path fill="none" stroke="black" d="M386.5,-486.81C386.5,-478.79 386.5,-469.05 386.5,-460.07"/>
<polygon fill="black" stroke="black" points="390,-460.03 386.5,-450.03 383,-460.03 390,-460.03"/>
<text text-anchor="middle" x="392.84" y="-459.92" font-family="Times-Roman" font-size="14.00">+</text>
</g>
<!-- Accomplished Projects -->
<g id="node13" class="node">
<title>Accomplished Projects</title>
<text text-anchor="middle" x="600.5" y="-374.3" font-family="Times-Roman" font-size="14.00">Accomplished Projects</text>
</g>
<!-- Closed Deals&#45;&gt;Accomplished Projects -->
<g id="edge18" class="edge">
<title>Closed Deals&#45;&gt;Accomplished Projects</title>
<path fill="none" stroke="black" d="M439.73,-492.04C458.68,-486.55 479.71,-478.99 497.5,-469 528.53,-451.57 558.52,-423.71 578.06,-403.6"/>
<polygon fill="black" stroke="black" points="580.65,-405.96 585.02,-396.31 575.58,-401.13 580.65,-405.96"/>
<text text-anchor="middle" x="580.22" y="-406.82" font-family="Times-Roman" font-size="14.00">+</text>
</g>
<!-- Price -->
<g id="node7" class="node">
<title>Price</title>
<text text-anchor="middle" x="386.5" y="-574.3" font-family="Times-Roman" font-size="14.00">Price</text>
</g>
<!-- Price&#45;&gt;Closed Deals -->
<g id="edge5" class="edge">
<title>Price&#45;&gt;Closed Deals</title>
<path fill="none" stroke="black" d="M386.5,-559.81C386.5,-551.79 386.5,-542.05 386.5,-533.07"/>
<polygon fill="black" stroke="black" points="390,-533.03 386.5,-523.03 383,-533.03 390,-533.03"/>
<text text-anchor="middle" x="392.84" y="-532.92" font-family="Times-Roman" font-size="14.00">&#45;</text>
</g>
<!-- Reputation -->
<g id="node9" class="node">
<title>Reputation</title>
<text text-anchor="middle" x="512.5" y="-160.3" font-family="Times-Roman" font-size="14.00">Reputation</text>
</g>
<!-- Open Source Contributions&#45;&gt;Reputation -->
<g id="edge7" class="edge">
<title>Open Source Contributions&#45;&gt;Reputation</title>
<path fill="none" stroke="black" d="M284.83,-232.9C334.81,-217.99 406.88,-196.5 456.47,-181.71"/>
<polygon fill="black" stroke="black" points="457.5,-185.06 466.08,-178.84 455.5,-178.35 457.5,-185.06"/>
<text text-anchor="middle" x="405.5" y="-203.8" font-family="Times-Roman" font-size="14.00">delay</text>
<text text-anchor="middle" x="454.86" y="-185.1" font-family="Times-Roman" font-size="14.00">+</text>
</g>
<!-- Reputation&#45;&gt;Inbound Demand -->
<g id="edge16" class="edge">
<title>Reputation&#45;&gt;Inbound Demand</title>
<path fill="none" stroke="black" d="M558.54,-169.23C609.75,-174.58 688.67,-184.94 714.5,-200 739.33,-214.47 755.5,-221.26 755.5,-250 755.5,-652 755.5,-652 755.5,-652 755.5,-683.14 675.53,-702.45 611.37,-712.92"/>
<polygon fill="black" stroke="black" points="610.56,-709.51 601.23,-714.53 611.65,-716.42 610.56,-709.51"/>
<text text-anchor="middle" x="613.66" y="-702.44" font-family="Times-Roman" font-size="14.00">+</text>
</g>
<!-- Reputation&#45;&gt;Closed Deals -->
<g id="edge14" class="edge">
<title>Reputation&#45;&gt;Closed Deals</title>
<path fill="none" stroke="black" d="M558.51,-164.78C618.95,-167.2 717.5,-181.61 717.5,-250 717.5,-433 717.5,-433 717.5,-433 717.5,-487.15 545.97,-500.13 449.87,-503.16"/>
<polygon fill="black" stroke="black" points="449.58,-499.66 439.68,-503.45 449.78,-506.66 449.58,-499.66"/>
<text text-anchor="middle" x="453.09" y="-493.02" font-family="Times-Roman" font-size="14.00">+</text>
</g>
<!-- Candidate Number -->
<g id="node12" class="node">
<title>Candidate Number</title>
<text text-anchor="middle" x="464.5" y="-87.3" font-family="Times-Roman" font-size="14.00">Candidate Number</text>
</g>
<!-- Reputation&#45;&gt;Candidate Number -->
<g id="edge15" class="edge">
<title>Reputation&#45;&gt;Candidate Number</title>
<path fill="none" stroke="black" d="M500.88,-145.81C495.1,-137.27 488.01,-126.77 481.62,-117.32"/>
<polygon fill="black" stroke="black" points="484.51,-115.35 476.01,-109.03 478.71,-119.27 484.51,-115.35"/>
<text text-anchor="middle" x="488.88" y="-113.04" font-family="Times-Roman" font-size="14.00">+</text>
</g>
<!-- Candidate Quality -->
<g id="node17" class="node">
<title>Candidate Quality</title>
<text text-anchor="middle" x="253.5" y="-87.3" font-family="Times-Roman" font-size="14.00">Candidate Quality</text>
</g>
<!-- Reputation&#45;&gt;Candidate Quality -->
<g id="edge27" class="edge">
<title>Reputation&#45;&gt;Candidate Quality</title>
<path fill="none" stroke="black" d="M466.49,-150.39C427.36,-139.66 370.48,-124.07 325.35,-111.69"/>
<polygon fill="black" stroke="black" points="326.18,-108.29 315.61,-109.03 324.33,-115.05 326.18,-108.29"/>
<text text-anchor="middle" x="330.4" y="-102.81" font-family="Times-Roman" font-size="14.00">+</text>
</g>
<!-- Hiring Number -->
<g id="node15" class="node">
<title>Hiring Number</title>
<text text-anchor="middle" x="59.5" y="-14.3" font-family="Times-Roman" font-size="14.00">Hiring Number</text>
</g>
<!-- Hiring Target&#45;&gt;Hiring Number -->
<g id="edge23" class="edge">
<title>Hiring Target&#45;&gt;Hiring Number</title>
<path fill="none" stroke="black" d="M48,-486.96C26.75,-475.36 5.5,-457.61 5.5,-433 5.5,-433 5.5,-433 5.5,-90 5.5,-72.05 16.58,-55.79 28.69,-43.38"/>
<polygon fill="black" stroke="black" points="31.45,-45.59 36.29,-36.17 26.63,-40.52 31.45,-45.59"/>
<text text-anchor="middle" x="30.8" y="-46.43" font-family="Times-Roman" font-size="14.00">+</text>
</g>
<!-- Hiring Quality -->
<g id="node16" class="node">
<title>Hiring Quality</title>
<text text-anchor="middle" x="90.5" y="-428.3" font-family="Times-Roman" font-size="14.00">Hiring Quality</text>
</g>
<!-- Hiring Target&#45;&gt;Hiring Quality -->
<g id="edge24" class="edge">
<title>Hiring Target&#45;&gt;Hiring Quality</title>
<path fill="none" stroke="black" d="M90.5,-486.81C90.5,-478.79 90.5,-469.05 90.5,-460.07"/>
<polygon fill="black" stroke="black" points="94,-460.03 90.5,-450.03 87,-460.03 94,-460.03"/>
<text text-anchor="middle" x="96.84" y="-459.92" font-family="Times-Roman" font-size="14.00">&#45;</text>
</g>
<!-- Project Engineers&#45;&gt;Team Quality -->
<g id="edge13" class="edge">
<title>Project Engineers&#45;&gt;Team Quality</title>
<path fill="none" stroke="black" d="M361.76,-413.97C335.79,-396.1 294.81,-367.89 265.97,-348.04"/>
<polygon fill="black" stroke="black" points="267.66,-344.95 257.44,-342.16 263.69,-350.72 267.66,-344.95"/>
<text text-anchor="middle" x="351.5" y="-374.3" font-family="Times-Roman" font-size="14.00">delay</text>
<text text-anchor="middle" x="272.23" y="-340.95" font-family="Times-Roman" font-size="14.00">+</text>
</g>
<!-- Candidate Number&#45;&gt;Hiring Number -->
<g id="edge26" class="edge">
<title>Candidate Number&#45;&gt;Hiring Number</title>
<path fill="none" stroke="black" d="M390.22,-76.98C315.74,-63.92 201.94,-43.97 129.14,-31.21"/>
<polygon fill="black" stroke="black" points="129.61,-27.74 119.15,-29.46 128.4,-34.63 129.61,-27.74"/>
<text text-anchor="middle" x="133.64" y="-21.86" font-family="Times-Roman" font-size="14.00">+</text>
</g>
<!-- Accomplished Projects&#45;&gt;Reputation -->
<g id="edge19" class="edge">
<title>Accomplished Projects&#45;&gt;Reputation</title>
<path fill="none" stroke="black" d="M618.03,-359.65C644.16,-331.6 687.54,-275.18 660.5,-233 640.31,-201.5 601.45,-184.4 568.62,-175.22"/>
<polygon fill="black" stroke="black" points="569.21,-171.76 558.65,-172.62 567.45,-178.53 569.21,-171.76"/>
<text text-anchor="middle" x="573.41" y="-166.22" font-family="Times-Roman" font-size="14.00">+</text>
</g>
<!-- Failed Projects -->
<g id="node14" class="node">
<title>Failed Projects</title>
<text text-anchor="middle" x="593.5" y="-247.3" font-family="Times-Roman" font-size="14.00">Failed Projects</text>
</g>
<!-- Failed Projects&#45;&gt;Reputation -->
<g id="edge20" class="edge">
<title>Failed Projects&#45;&gt;Reputation</title>
<path fill="none" stroke="black" d="M577.11,-232.8C565.25,-220.36 549.06,-203.36 535.85,-189.5"/>
<polygon fill="black" stroke="black" points="538.3,-187 528.87,-182.18 533.23,-191.83 538.3,-187"/>
<text text-anchor="middle" x="542.83" y="-183.94" font-family="Times-Roman" font-size="14.00">&#45;</text>
</g>
<!-- Hiring Number&#45;&gt;Bench Engineers -->
<g id="edge21" class="edge">
<title>Hiring Number&#45;&gt;Bench Engineers</title>
<path fill="none" stroke="black" d="M59.5,-36.22C59.5,-50.59 59.5,-71.63 59.5,-90 59.5,-325 59.5,-325 59.5,-325 59.5,-353.43 128.31,-388.16 179.14,-409.94"/>
<polygon fill="black" stroke="black" points="177.82,-413.18 188.4,-413.85 180.55,-406.74 177.82,-413.18"/>
<text text-anchor="middle" x="173.41" y="-410.7" font-family="Times-Roman" font-size="14.00">+</text>
</g>
<!-- Hiring Quality&#45;&gt;Team Quality -->
<g id="edge22" class="edge">
<title>Hiring Quality&#45;&gt;Team Quality</title>
<path fill="none" stroke="black" d="M113.31,-413.97C137.08,-396.23 174.5,-368.3 201.06,-348.47"/>
<polygon fill="black" stroke="black" points="203.35,-351.13 209.27,-342.34 199.16,-345.52 203.35,-351.13"/>
<text text-anchor="middle" x="202.17" y="-351.85" font-family="Times-Roman" font-size="14.00">&#45;</text>
</g>
<!-- Candidate Quality&#45;&gt;Team Quality -->
<g id="edge25" class="edge">
<title>Candidate Quality&#45;&gt;Team Quality</title>
<path fill="none" stroke="black" d="M227.21,-109.19C194.1,-132.61 138.83,-177.97 116.5,-233 110.48,-247.83 107.9,-255.51 116.5,-269 128.46,-287.76 148.81,-300.1 169.16,-308.18"/>
<polygon fill="black" stroke="black" points="168.2,-311.56 178.8,-311.71 170.61,-304.99 168.2,-311.56"/>
<text text-anchor="middle" x="163.85" y="-309.29" font-family="Times-Roman" font-size="14.00">+</text>
</g>
<!-- Customer Satisfaction&#45;&gt;Reputation -->
<g id="edge29" class="edge">
<title>Customer Satisfaction&#45;&gt;Reputation</title>
<path fill="none" stroke="black" d="M448.69,-232.8C460.4,-220.36 476.39,-203.36 489.44,-189.5"/>
<polygon fill="black" stroke="black" points="492.03,-191.86 496.33,-182.18 486.93,-187.06 492.03,-191.86"/>
<text text-anchor="middle" x="491.63" y="-192.72" font-family="Times-Roman" font-size="14.00">+</text>
</g>
</g>
</svg>
