<?xml version="1.0" encoding="UTF-8" standalone="no"?>
<!DOCTYPE svg PUBLIC "-//W3C//DTD SVG 1.1//EN"
 "http://www.w3.org/Graphics/SVG/1.1/DTD/svg11.dtd">
<!-- Generated by graphviz version 2.43.0 (0)
 -->
<!-- Title: mygraph Pages: 1 -->
<svg width="257pt" height="350pt"
 viewBox="0.00 0.00 257.00 350.00" xmlns="http://www.w3.org/2000/svg" xmlns:xlink="http://www.w3.org/1999/xlink">
<g id="graph0" class="graph" transform="scale(1 1) rotate(0) translate(4 346)">
<title>mygraph</title>
<polygon fill="white" stroke="transparent" points="-4,4 -4,-346 253,-346 253,4 -4,4"/>
<!-- Inbound Demand -->
<g id="node1" class="node">
<title>Inbound Demand</title>
<text text-anchor="middle" x="179" y="-320.3" font-family="Times-Roman" font-size="14.00">Inbound Demand</text>
</g>
<!-- Opportunity Rate -->
<g id="node2" class="node">
<title>Opportunity Rate</title>
<text text-anchor="middle" x="129" y="-247.3" font-family="Times-Roman" font-size="14.00">Opportunity Rate</text>
</g>
<!-- Inbound Demand&#45;&gt;Opportunity Rate -->
<g id="edge1" class="edge">
<title>Inbound Demand&#45;&gt;Opportunity Rate</title>
<path fill="none" stroke="black" d="M166.9,-305.81C160.88,-297.27 153.49,-286.77 146.83,-277.32"/>
<polygon fill="black" stroke="black" points="149.61,-275.19 140.99,-269.03 143.89,-279.22 149.61,-275.19"/>
<text text-anchor="middle" x="154" y="-272.79" font-family="Times-Roman" font-size="14.00">+</text>
</g>
<!-- Closed Deal Rate -->
<g id="node3" class="node">
<title>Closed Deal Rate</title>
<text text-anchor="middle" x="117" y="-174.3" font-family="Times-Roman" font-size="14.00">Closed Deal Rate</text>
</g>
<!-- Opportunity Rate&#45;&gt;Closed Deal Rate -->
<g id="edge2" class="edge">
<title>Opportunity Rate&#45;&gt;Closed Deal Rate</title>
<path fill="none" stroke="black" d="M126.1,-232.81C124.74,-224.79 123.09,-215.05 121.58,-206.07"/>
<polygon fill="black" stroke="black" points="125,-205.31 119.88,-196.03 118.09,-206.47 125,-205.31"/>
<text text-anchor="middle" x="128.39" y="-204.68" font-family="Times-Roman" font-size="14.00">+</text>
</g>
<!-- Accomplished Project Rate -->
<g id="node4" class="node">
<title>Accomplished Project Rate</title>
<text text-anchor="middle" x="100" y="-87.3" font-family="Times-Roman" font-size="14.00">Accomplished Project Rate</text>
</g>
<!-- Closed Deal Rate&#45;&gt;Accomplished Project Rate -->
<g id="edge3" class="edge">
<title>Closed Deal Rate&#45;&gt;Accomplished Project Rate</title>
<path fill="none" stroke="black" d="M113.56,-159.8C111.23,-148.16 108.11,-132.55 105.45,-119.24"/>
<polygon fill="black" stroke="black" points="108.83,-118.29 103.44,-109.18 101.96,-119.67 108.83,-118.29"/>
<text text-anchor="middle" x="129" y="-130.8" font-family="Times-Roman" font-size="14.00">delay</text>
<text text-anchor="middle" x="112.32" y="-117.56" font-family="Times-Roman" font-size="14.00">+</text>
</g>
<!-- Customer Satisfaction -->
<g id="node5" class="node">
<title>Customer Satisfaction</title>
<text text-anchor="middle" x="164" y="-14.3" font-family="Times-Roman" font-size="14.00">Customer Satisfaction</text>
</g>
<!-- Accomplished Project Rate&#45;&gt;Customer Satisfaction -->
<g id="edge4" class="edge">
<title>Accomplished Project Rate&#45;&gt;Customer Satisfaction</title>
<path fill="none" stroke="black" d="M115.49,-72.81C123.43,-64 133.24,-53.13 141.95,-43.46"/>
<polygon fill="black" stroke="black" points="144.55,-45.8 148.65,-36.03 139.35,-41.11 144.55,-45.8"/>
<text text-anchor="middle" x="144.26" y="-46.67" font-family="Times-Roman" font-size="14.00">+</text>
</g>
<!-- Customer Satisfaction&#45;&gt;Inbound Demand -->
<g id="edge5" class="edge">
<title>Customer Satisfaction&#45;&gt;Inbound Demand</title>
<path fill="none" stroke="black" d="M192.63,-36.02C209.67,-48.53 228,-67.26 228,-90 228,-252 228,-252 228,-252 228,-269.61 217.66,-286.02 206.48,-298.62"/>
<polygon fill="black" stroke="black" points="203.86,-296.3 199.5,-305.95 208.93,-301.13 203.86,-296.3"/>
<text text-anchor="middle" x="204.29" y="-288.04" font-family="Times-Roman" font-size="14.00">+</text>
</g>
</g>
</svg>
