<?xml version="1.0" encoding="UTF-8" standalone="no"?>
<!DOCTYPE svg PUBLIC "-//W3C//DTD SVG 1.1//EN"
 "http://www.w3.org/Graphics/SVG/1.1/DTD/svg11.dtd">
<!-- Generated by graphviz version 2.43.0 (0)
 -->
<!-- Title: mygraph Pages: 1 -->
<svg width="432pt" height="385pt"
 viewBox="0.00 0.00 432.00 385.00" xmlns="http://www.w3.org/2000/svg" xmlns:xlink="http://www.w3.org/1999/xlink">
<g id="graph0" class="graph" transform="scale(1 1) rotate(0) translate(4 381)">
<title>mygraph</title>
<polygon fill="white" stroke="transparent" points="-4,4 -4,-381 428,-381 428,4 -4,4"/>
<!-- Inbound Demand -->
<g id="node1" class="node">
<title>Inbound Demand</title>
<text text-anchor="middle" x="81" y="-355.3" font-family="Times-Roman" font-size="14.00">Inbound Demand</text>
</g>
<!-- Opportunity Rate -->
<g id="node2" class="node">
<title>Opportunity Rate</title>
<text text-anchor="middle" x="147" y="-282.3" font-family="Times-Roman" font-size="14.00">Opportunity Rate</text>
</g>
<!-- Inbound Demand&#45;&gt;Opportunity Rate -->
<g id="edge1" class="edge">
<title>Inbound Demand&#45;&gt;Opportunity Rate</title>
<path fill="none" stroke="black" d="M96.98,-340.81C105.16,-332 115.28,-321.13 124.26,-311.46"/>
<polygon fill="black" stroke="black" points="126.93,-313.74 131.17,-304.03 121.8,-308.97 126.93,-313.74"/>
<text text-anchor="middle" x="126.56" y="-314.6" font-family="Times-Roman" font-size="14.00">+</text>
</g>
<!-- Closed Deal Rate -->
<g id="node3" class="node">
<title>Closed Deal Rate</title>
<text text-anchor="middle" x="208" y="-174.3" font-family="Times-Roman" font-size="14.00">Closed Deal Rate</text>
</g>
<!-- Opportunity Rate&#45;&gt;Closed Deal Rate -->
<g id="edge2" class="edge">
<title>Opportunity Rate&#45;&gt;Closed Deal Rate</title>
<path fill="none" stroke="black" d="M156.8,-267.97C166.57,-250.99 181.7,-224.7 192.99,-205.09"/>
<polygon fill="black" stroke="black" points="196.07,-206.75 198.02,-196.34 190,-203.26 196.07,-206.75"/>
<text text-anchor="middle" x="196.73" y="-207.59" font-family="Times-Roman" font-size="14.00">+</text>
</g>
<!-- Accomplished Project Rate -->
<g id="node6" class="node">
<title>Accomplished Project Rate</title>
<text text-anchor="middle" x="174" y="-87.3" font-family="Times-Roman" font-size="14.00">Accomplished Project Rate</text>
</g>
<!-- Closed Deal Rate&#45;&gt;Accomplished Project Rate -->
<g id="edge5" class="edge">
<title>Closed Deal Rate&#45;&gt;Accomplished Project Rate</title>
<path fill="none" stroke="black" d="M201.12,-159.8C196.42,-148.05 190.1,-132.24 184.74,-118.84"/>
<polygon fill="black" stroke="black" points="187.83,-117.16 180.87,-109.18 181.33,-119.76 187.83,-117.16"/>
<text text-anchor="middle" x="213" y="-130.8" font-family="Times-Roman" font-size="14.00">delay</text>
<text text-anchor="middle" x="191.8" y="-115.74" font-family="Times-Roman" font-size="14.00">+</text>
</g>
<!-- Revenue -->
<g id="node7" class="node">
<title>Revenue</title>
<text text-anchor="middle" x="331" y="-87.3" font-family="Times-Roman" font-size="14.00">Revenue</text>
</g>
<!-- Closed Deal Rate&#45;&gt;Revenue -->
<g id="edge6" class="edge">
<title>Closed Deal Rate&#45;&gt;Revenue</title>
<path fill="none" stroke="black" d="M232.89,-159.8C251.56,-146.9 277.31,-129.1 297.75,-114.98"/>
<polygon fill="black" stroke="black" points="299.91,-117.74 306.15,-109.18 295.93,-111.98 299.91,-117.74"/>
<text text-anchor="middle" x="298.57" y="-118.42" font-family="Times-Roman" font-size="14.00">+</text>
</g>
<!-- Team Size -->
<g id="node4" class="node">
<title>Team Size</title>
<text text-anchor="middle" x="350" y="-355.3" font-family="Times-Roman" font-size="14.00">Team Size</text>
</g>
<!-- Team Availability -->
<g id="node5" class="node">
<title>Team Availability</title>
<text text-anchor="middle" x="302" y="-282.3" font-family="Times-Roman" font-size="14.00">Team Availability</text>
</g>
<!-- Team Size&#45;&gt;Team Availability -->
<g id="edge3" class="edge">
<title>Team Size&#45;&gt;Team Availability</title>
<path fill="none" stroke="black" d="M338.38,-340.81C332.6,-332.27 325.51,-321.77 319.12,-312.32"/>
<polygon fill="black" stroke="black" points="322.01,-310.35 313.51,-304.03 316.21,-314.27 322.01,-310.35"/>
<text text-anchor="middle" x="326.38" y="-308.04" font-family="Times-Roman" font-size="14.00">+</text>
</g>
<!-- Cost -->
<g id="node8" class="node">
<title>Cost</title>
<text text-anchor="middle" x="397" y="-228.3" font-family="Times-Roman" font-size="14.00">Cost</text>
</g>
<!-- Team Size&#45;&gt;Cost -->
<g id="edge7" class="edge">
<title>Team Size&#45;&gt;Cost</title>
<path fill="none" stroke="black" d="M359.61,-340.87C365.2,-330.43 372.08,-316.71 377,-304 382.47,-289.86 387.16,-273.62 390.61,-260.24"/>
<polygon fill="black" stroke="black" points="394.09,-260.77 393.12,-250.22 387.3,-259.08 394.09,-260.77"/>
<text text-anchor="middle" x="395.97" y="-261.25" font-family="Times-Roman" font-size="14.00">+</text>
</g>
<!-- Team Availability&#45;&gt;Closed Deal Rate -->
<g id="edge4" class="edge">
<title>Team Availability&#45;&gt;Closed Deal Rate</title>
<path fill="none" stroke="black" d="M286.9,-267.97C271.57,-250.69 247.68,-223.74 230.2,-204.03"/>
<polygon fill="black" stroke="black" points="232.63,-201.5 223.38,-196.34 227.39,-206.14 232.63,-201.5"/>
<text text-anchor="middle" x="237.14" y="-198.61" font-family="Times-Roman" font-size="14.00">+</text>
</g>
<!-- Customer Satisfaction -->
<g id="node10" class="node">
<title>Customer Satisfaction</title>
<text text-anchor="middle" x="85" y="-14.3" font-family="Times-Roman" font-size="14.00">Customer Satisfaction</text>
</g>
<!-- Accomplished Project Rate&#45;&gt;Customer Satisfaction -->
<g id="edge10" class="edge">
<title>Accomplished Project Rate&#45;&gt;Customer Satisfaction</title>
<path fill="none" stroke="black" d="M152.46,-72.81C140.98,-63.66 126.69,-52.26 114.23,-42.32"/>
<polygon fill="black" stroke="black" points="116.35,-39.53 106.35,-36.03 111.98,-45 116.35,-39.53"/>
<text text-anchor="middle" x="120.93" y="-35.85" font-family="Times-Roman" font-size="14.00">+</text>
</g>
<!-- Profit -->
<g id="node9" class="node">
<title>Profit</title>
<text text-anchor="middle" x="375" y="-14.3" font-family="Times-Roman" font-size="14.00">Profit</text>
</g>
<!-- Revenue&#45;&gt;Profit -->
<g id="edge8" class="edge">
<title>Revenue&#45;&gt;Profit</title>
<path fill="none" stroke="black" d="M341.65,-72.81C346.89,-64.35 353.32,-53.98 359.13,-44.61"/>
<polygon fill="black" stroke="black" points="362.15,-46.37 364.45,-36.03 356.2,-42.69 362.15,-46.37"/>
<text text-anchor="middle" x="362.67" y="-47.22" font-family="Times-Roman" font-size="14.00">+</text>
</g>
<!-- Cost&#45;&gt;Profit -->
<g id="edge9" class="edge">
<title>Cost&#45;&gt;Profit</title>
<path fill="none" stroke="black" d="M395.2,-213.65C391.38,-176.83 382.43,-90.64 377.84,-46.34"/>
<polygon fill="black" stroke="black" points="381.31,-45.88 376.79,-36.29 374.35,-46.6 381.31,-45.88"/>
<text text-anchor="middle" x="384.5" y="-45.46" font-family="Times-Roman" font-size="14.00">&#45;</text>
</g>
<!-- Customer Satisfaction&#45;&gt;Inbound Demand -->
<g id="edge11" class="edge">
<title>Customer Satisfaction&#45;&gt;Inbound Demand</title>
<path fill="none" stroke="black" d="M69.14,-36.25C58.34,-49.82 46,-69.75 46,-90 46,-287 46,-287 46,-287 46,-303.19 53.41,-319.52 61.42,-332.42"/>
<polygon fill="black" stroke="black" points="58.51,-334.38 66.97,-340.77 64.34,-330.5 58.51,-334.38"/>
<text text-anchor="middle" x="54.16" y="-329.26" font-family="Times-Roman" font-size="14.00">+</text>
</g>
</g>
</svg>
