<?xml version="1.0" encoding="UTF-8" standalone="no"?>
<!DOCTYPE svg PUBLIC "-//W3C//DTD SVG 1.1//EN"
 "http://www.w3.org/Graphics/SVG/1.1/DTD/svg11.dtd">
<!-- Generated by graphviz version 2.43.0 (0)
 -->
<!-- Title: mygraph Pages: 1 -->
<svg width="751pt" height="990pt"
 viewBox="0.00 0.00 751.00 990.00" xmlns="http://www.w3.org/2000/svg" xmlns:xlink="http://www.w3.org/1999/xlink">
<g id="graph0" class="graph" transform="scale(1 1) rotate(0) translate(4 986)">
<title>mygraph</title>
<polygon fill="white" stroke="transparent" points="-4,4 -4,-986 747,-986 747,4 -4,4"/>
<!-- Inbound Demand -->
<g id="node1" class="node">
<title>Inbound Demand</title>
<text text-anchor="middle" x="68.5" y="-960.3" font-family="Times-Roman" font-size="14.00">Inbound Demand</text>
</g>
<!-- Project Offerings -->
<g id="node2" class="node">
<title>Project Offerings</title>
<text text-anchor="middle" x="518.5" y="-887.3" font-family="Times-Roman" font-size="14.00">Project Offerings</text>
</g>
<!-- Inbound Demand&#45;&gt;Project Offerings -->
<g id="edge1" class="edge">
<title>Inbound Demand&#45;&gt;Project Offerings</title>
<path fill="none" stroke="black" d="M137.34,-952.14C219.63,-939.15 356.94,-917.49 442.35,-904.02"/>
<polygon fill="black" stroke="black" points="442.91,-907.47 452.24,-902.45 441.82,-900.56 442.91,-907.47"/>
<text text-anchor="middle" x="439.8" y="-907.13" font-family="Times-Roman" font-size="14.00">+</text>
</g>
<!-- Closed Deals -->
<g id="node5" class="node">
<title>Closed Deals</title>
<text text-anchor="middle" x="428.5" y="-814.3" font-family="Times-Roman" font-size="14.00">Closed Deals</text>
</g>
<!-- Project Offerings&#45;&gt;Closed Deals -->
<g id="edge7" class="edge">
<title>Project Offerings&#45;&gt;Closed Deals</title>
<path fill="none" stroke="black" d="M496.71,-872.81C485.11,-863.66 470.66,-852.26 458.06,-842.32"/>
<polygon fill="black" stroke="black" points="460.1,-839.47 450.09,-836.03 455.77,-844.97 460.1,-839.47"/>
<text text-anchor="middle" x="464.69" y="-835.77" font-family="Times-Roman" font-size="14.00">+</text>
</g>
<!-- Hiring Target -->
<g id="node9" class="node">
<title>Hiring Target</title>
<text text-anchor="middle" x="690.5" y="-560.3" font-family="Times-Roman" font-size="14.00">Hiring Target</text>
</g>
<!-- Project Offerings&#45;&gt;Hiring Target -->
<g id="edge8" class="edge">
<title>Project Offerings&#45;&gt;Hiring Target</title>
<path fill="none" stroke="black" d="M584.73,-883.99C624.91,-876.29 668.5,-858.76 668.5,-819 668.5,-819 668.5,-819 668.5,-636 668.5,-620.78 673.17,-604.52 678.21,-591.4"/>
<polygon fill="black" stroke="black" points="681.48,-592.63 682.06,-582.05 675.01,-589.96 681.48,-592.63"/>
<text text-anchor="middle" x="682.74" y="-593.33" font-family="Times-Roman" font-size="14.00">+</text>
</g>
<!-- Bench Engineers -->
<g id="node3" class="node">
<title>Bench Engineers</title>
<text text-anchor="middle" x="558.5" y="-741.3" font-family="Times-Roman" font-size="14.00">Bench Engineers</text>
</g>
<!-- Bench Engineers&#45;&gt;Project Offerings -->
<g id="edge2" class="edge">
<title>Bench Engineers&#45;&gt;Project Offerings</title>
<path fill="none" stroke="black" d="M553.76,-763.06C546.91,-787.73 534.16,-833.61 526.02,-862.93"/>
<polygon fill="black" stroke="black" points="522.55,-862.34 523.25,-872.92 529.29,-864.22 522.55,-862.34"/>
<text text-anchor="middle" x="520.78" y="-854.42" font-family="Times-Roman" font-size="14.00">+</text>
</g>
<!-- Price -->
<g id="node6" class="node">
<title>Price</title>
<text text-anchor="middle" x="544.5" y="-633.3" font-family="Times-Roman" font-size="14.00">Price</text>
</g>
<!-- Bench Engineers&#45;&gt;Price -->
<g id="edge24" class="edge">
<title>Bench Engineers&#45;&gt;Price</title>
<path fill="none" stroke="black" d="M556.25,-726.97C554.06,-710.38 550.69,-684.88 548.12,-665.43"/>
<polygon fill="black" stroke="black" points="551.57,-664.8 546.79,-655.34 544.63,-665.71 551.57,-664.8"/>
<text text-anchor="middle" x="554.86" y="-664.29" font-family="Times-Roman" font-size="14.00">&#45;</text>
</g>
<!-- Team Quality -->
<g id="node4" class="node">
<title>Team Quality</title>
<text text-anchor="middle" x="388.5" y="-414.3" font-family="Times-Roman" font-size="14.00">Team Quality</text>
</g>
<!-- Team Quality&#45;&gt;Closed Deals -->
<g id="edge3" class="edge">
<title>Team Quality&#45;&gt;Closed Deals</title>
<path fill="none" stroke="black" d="M403.34,-436.1C413.63,-449.74 425.5,-469.85 425.5,-490 425.5,-746 425.5,-746 425.5,-746 425.5,-760.36 426.12,-776.34 426.8,-789.5"/>
<polygon fill="black" stroke="black" points="423.32,-790 427.37,-799.79 430.31,-789.61 423.32,-790"/>
<text text-anchor="middle" x="420.29" y="-782.87" font-family="Times-Roman" font-size="14.00">+</text>
</g>
<!-- Open Source Contributions -->
<g id="node7" class="node">
<title>Open Source Contributions</title>
<text text-anchor="middle" x="436.5" y="-287.3" font-family="Times-Roman" font-size="14.00">Open Source Contributions</text>
</g>
<!-- Team Quality&#45;&gt;Open Source Contributions -->
<g id="edge5" class="edge">
<title>Team Quality&#45;&gt;Open Source Contributions</title>
<path fill="none" stroke="black" d="M404.8,-399.95C413.34,-389.97 423.12,-376.68 428.5,-363 433.91,-349.25 436.02,-332.92 436.73,-319.39"/>
<polygon fill="black" stroke="black" points="440.23,-319.34 437.03,-309.24 433.23,-319.13 440.23,-319.34"/>
<text text-anchor="middle" x="442.96" y="-319.32" font-family="Times-Roman" font-size="14.00">+</text>
</g>
<!-- Accomplished Project Rate -->
<g id="node13" class="node">
<title>Accomplished Project Rate</title>
<text text-anchor="middle" x="319.5" y="-341.3" font-family="Times-Roman" font-size="14.00">Accomplished Project Rate</text>
</g>
<!-- Team Quality&#45;&gt;Accomplished Project Rate -->
<g id="edge16" class="edge">
<title>Team Quality&#45;&gt;Accomplished Project Rate</title>
<path fill="none" stroke="black" d="M371.8,-399.81C363.24,-391 352.66,-380.13 343.27,-370.46"/>
<polygon fill="black" stroke="black" points="345.53,-367.76 336.05,-363.03 340.51,-372.64 345.53,-367.76"/>
<text text-anchor="middle" x="350.07" y="-364.66" font-family="Times-Roman" font-size="14.00">+</text>
</g>
<!-- Customer Satisfaction -->
<g id="node19" class="node">
<title>Customer Satisfaction</title>
<text text-anchor="middle" x="194.5" y="-287.3" font-family="Times-Roman" font-size="14.00">Customer Satisfaction</text>
</g>
<!-- Team Quality&#45;&gt;Customer Satisfaction -->
<g id="edge31" class="edge">
<title>Team Quality&#45;&gt;Customer Satisfaction</title>
<path fill="none" stroke="black" d="M334.7,-414.64C294.89,-409.98 242.27,-397.18 210.5,-363 199.63,-351.31 195.59,-333.87 194.29,-319.19"/>
<polygon fill="black" stroke="black" points="197.78,-318.93 193.77,-309.12 190.79,-319.29 197.78,-318.93"/>
<text text-anchor="middle" x="200.8" y="-318.67" font-family="Times-Roman" font-size="14.00">+</text>
</g>
<!-- Closed Deals&#45;&gt;Bench Engineers -->
<g id="edge13" class="edge">
<title>Closed Deals&#45;&gt;Bench Engineers</title>
<path fill="none" stroke="black" d="M459.64,-799.99C477.2,-790.4 499.33,-778.32 518.2,-768.01"/>
<polygon fill="black" stroke="black" points="520.07,-770.98 527.17,-763.11 516.71,-764.84 520.07,-770.98"/>
<text text-anchor="middle" x="518.27" y="-771.49" font-family="Times-Roman" font-size="14.00">&#45;</text>
</g>
<!-- Project Engineers -->
<g id="node10" class="node">
<title>Project Engineers</title>
<text text-anchor="middle" x="341.5" y="-687.3" font-family="Times-Roman" font-size="14.00">Project Engineers</text>
</g>
<!-- Closed Deals&#45;&gt;Project Engineers -->
<g id="edge9" class="edge">
<title>Closed Deals&#45;&gt;Project Engineers</title>
<path fill="none" stroke="black" d="M416.59,-799.88C401.83,-778.68 376.56,-742.37 359.45,-717.79"/>
<polygon fill="black" stroke="black" points="362.14,-715.52 353.55,-709.31 356.39,-719.52 362.14,-715.52"/>
<text text-anchor="middle" x="366.52" y="-713.15" font-family="Times-Roman" font-size="14.00">+</text>
</g>
<!-- Accomplished Projects -->
<g id="node12" class="node">
<title>Accomplished Projects</title>
<text text-anchor="middle" x="208.5" y="-233.3" font-family="Times-Roman" font-size="14.00">Accomplished Projects</text>
</g>
<!-- Closed Deals&#45;&gt;Accomplished Projects -->
<g id="edge14" class="edge">
<title>Closed Deals&#45;&gt;Accomplished Projects</title>
<path fill="none" stroke="black" d="M375.21,-816.55C280.91,-814.3 94.5,-802.69 94.5,-746 94.5,-746 94.5,-746 94.5,-344 94.5,-311.84 87.43,-297.3 108.5,-273 112.69,-268.17 117.59,-264 122.93,-260.41"/>
<polygon fill="black" stroke="black" points="124.83,-263.35 131.63,-255.23 121.25,-257.33 124.83,-263.35"/>
<text text-anchor="middle" x="123.19" y="-263.93" font-family="Times-Roman" font-size="14.00">+</text>
</g>
<!-- Price&#45;&gt;Closed Deals -->
<g id="edge4" class="edge">
<title>Price&#45;&gt;Closed Deals</title>
<path fill="none" stroke="black" d="M532.03,-655.16C519.25,-672.91 498.97,-701.55 482.5,-727 468.76,-748.23 454.04,-772.9 443.45,-791.03"/>
<polygon fill="black" stroke="black" points="440.31,-789.46 438.31,-799.87 446.36,-792.98 440.31,-789.46"/>
<text text-anchor="middle" x="439.66" y="-781.23" font-family="Times-Roman" font-size="14.00">&#45;</text>
</g>
<!-- Salary -->
<g id="node17" class="node">
<title>Salary</title>
<text text-anchor="middle" x="544.5" y="-560.3" font-family="Times-Roman" font-size="14.00">Salary</text>
</g>
<!-- Price&#45;&gt;Salary -->
<g id="edge25" class="edge">
<title>Price&#45;&gt;Salary</title>
<path fill="none" stroke="black" d="M544.5,-618.81C544.5,-610.79 544.5,-601.05 544.5,-592.07"/>
<polygon fill="black" stroke="black" points="548,-592.03 544.5,-582.03 541,-592.03 548,-592.03"/>
<text text-anchor="middle" x="550.84" y="-591.92" font-family="Times-Roman" font-size="14.00">+</text>
</g>
<!-- Reputation -->
<g id="node8" class="node">
<title>Reputation</title>
<text text-anchor="middle" x="329.5" y="-160.3" font-family="Times-Roman" font-size="14.00">Reputation</text>
</g>
<!-- Open Source Contributions&#45;&gt;Reputation -->
<g id="edge6" class="edge">
<title>Open Source Contributions&#45;&gt;Reputation</title>
<path fill="none" stroke="black" d="M440.93,-272.84C443.86,-257.54 445.53,-235.12 435.5,-219 424.1,-200.69 404.37,-188.34 384.99,-180.12"/>
<polygon fill="black" stroke="black" points="386.14,-176.81 375.55,-176.41 383.58,-183.33 386.14,-176.81"/>
<text text-anchor="middle" x="461.5" y="-233.3" font-family="Times-Roman" font-size="14.00">delay</text>
<text text-anchor="middle" x="390.52" y="-171.78" font-family="Times-Roman" font-size="14.00">+</text>
</g>
<!-- Reputation&#45;&gt;Inbound Demand -->
<g id="edge12" class="edge">
<title>Reputation&#45;&gt;Inbound Demand</title>
<path fill="none" stroke="black" d="M283.5,-167.51C205.7,-173.03 56.5,-189.66 56.5,-236 56.5,-892 56.5,-892 56.5,-892 56.5,-906.7 59.03,-922.87 61.77,-936.06"/>
<polygon fill="black" stroke="black" points="58.37,-936.92 63.96,-945.92 65.21,-935.4 58.37,-936.92"/>
<text text-anchor="middle" x="54.82" y="-930.33" font-family="Times-Roman" font-size="14.00">+</text>
</g>
<!-- Candidate Number -->
<g id="node11" class="node">
<title>Candidate Number</title>
<text text-anchor="middle" x="329.5" y="-87.3" font-family="Times-Roman" font-size="14.00">Candidate Number</text>
</g>
<!-- Reputation&#45;&gt;Candidate Number -->
<g id="edge11" class="edge">
<title>Reputation&#45;&gt;Candidate Number</title>
<path fill="none" stroke="black" d="M329.5,-145.81C329.5,-137.79 329.5,-128.05 329.5,-119.07"/>
<polygon fill="black" stroke="black" points="333,-119.03 329.5,-109.03 326,-119.03 333,-119.03"/>
<text text-anchor="middle" x="335.84" y="-118.92" font-family="Times-Roman" font-size="14.00">+</text>
</g>
<!-- Candidate Quality -->
<g id="node18" class="node">
<title>Candidate Quality</title>
<text text-anchor="middle" x="492.5" y="-87.3" font-family="Times-Roman" font-size="14.00">Candidate Quality</text>
</g>
<!-- Reputation&#45;&gt;Candidate Quality -->
<g id="edge30" class="edge">
<title>Reputation&#45;&gt;Candidate Quality</title>
<path fill="none" stroke="black" d="M368.54,-145.99C391.16,-136.14 419.83,-123.66 443.89,-113.17"/>
<polygon fill="black" stroke="black" points="445.44,-116.32 453.21,-109.11 442.65,-109.9 445.44,-116.32"/>
<text text-anchor="middle" x="443.28" y="-116.65" font-family="Times-Roman" font-size="14.00">+</text>
</g>
<!-- Hiring Number -->
<g id="node15" class="node">
<title>Hiring Number</title>
<text text-anchor="middle" x="610.5" y="-14.3" font-family="Times-Roman" font-size="14.00">Hiring Number</text>
</g>
<!-- Hiring Target&#45;&gt;Hiring Number -->
<g id="edge22" class="edge">
<title>Hiring Target&#45;&gt;Hiring Number</title>
<path fill="none" stroke="black" d="M685.96,-545.92C682.57,-531.62 678.5,-510.63 678.5,-492 678.5,-492 678.5,-492 678.5,-90 678.5,-70.56 665.04,-54.36 650.09,-42.37"/>
<polygon fill="black" stroke="black" points="651.83,-39.3 641.71,-36.15 647.66,-44.92 651.83,-39.3"/>
<text text-anchor="middle" x="656.41" y="-35.46" font-family="Times-Roman" font-size="14.00">+</text>
</g>
<!-- Hiring Quality -->
<g id="node16" class="node">
<title>Hiring Quality</title>
<text text-anchor="middle" x="544.5" y="-487.3" font-family="Times-Roman" font-size="14.00">Hiring Quality</text>
</g>
<!-- Hiring Target&#45;&gt;Hiring Quality -->
<g id="edge23" class="edge">
<title>Hiring Target&#45;&gt;Hiring Quality</title>
<path fill="none" stroke="black" d="M655.53,-545.99C635.54,-536.27 610.28,-523.99 588.9,-513.59"/>
<polygon fill="black" stroke="black" points="590.21,-510.34 579.69,-509.11 587.15,-516.63 590.21,-510.34"/>
<text text-anchor="middle" x="594.69" y="-505.66" font-family="Times-Roman" font-size="14.00">&#45;</text>
</g>
<!-- Project Engineers&#45;&gt;Team Quality -->
<g id="edge10" class="edge">
<title>Project Engineers&#45;&gt;Team Quality</title>
<path fill="none" stroke="black" d="M344.25,-672.99C346.9,-655.12 350.5,-626.16 350.5,-601 350.5,-601 350.5,-601 350.5,-490 350.5,-473.53 358.55,-457.18 367.24,-444.33"/>
<polygon fill="black" stroke="black" points="370.22,-446.18 373.26,-436.04 364.55,-442.07 370.22,-446.18"/>
<text text-anchor="middle" x="369.5" y="-560.3" font-family="Times-Roman" font-size="14.00">delay</text>
<text text-anchor="middle" x="370.4" y="-447.06" font-family="Times-Roman" font-size="14.00">+</text>
</g>
<!-- Candidate Number&#45;&gt;Hiring Number -->
<g id="edge29" class="edge">
<title>Candidate Number&#45;&gt;Hiring Number</title>
<path fill="none" stroke="black" d="M396.81,-72.99C440.43,-61.97 497.12,-47.65 541.14,-36.52"/>
<polygon fill="black" stroke="black" points="542.07,-39.9 550.9,-34.06 540.35,-33.11 542.07,-39.9"/>
<text text-anchor="middle" x="539.28" y="-39.83" font-family="Times-Roman" font-size="14.00">+</text>
</g>
<!-- Accomplished Projects&#45;&gt;Reputation -->
<g id="edge15" class="edge">
<title>Accomplished Projects&#45;&gt;Reputation</title>
<path fill="none" stroke="black" d="M237.48,-218.99C253.68,-209.49 274.05,-197.54 291.51,-187.29"/>
<polygon fill="black" stroke="black" points="293.48,-190.19 300.33,-182.11 289.94,-184.16 293.48,-190.19"/>
<text text-anchor="middle" x="291.82" y="-190.76" font-family="Times-Roman" font-size="14.00">+</text>
</g>
<!-- Accomplished Project Rate&#45;&gt;Accomplished Projects -->
<g id="edge17" class="edge">
<title>Accomplished Project Rate&#45;&gt;Accomplished Projects</title>
<path fill="none" stroke="black" d="M313.57,-326.88C307.4,-311.18 296.39,-288.12 280.5,-273 275.49,-268.24 269.72,-264 263.66,-260.27"/>
<polygon fill="black" stroke="black" points="265.06,-257.05 254.63,-255.17 261.61,-263.14 265.06,-257.05"/>
<text text-anchor="middle" x="269.58" y="-252.65" font-family="Times-Roman" font-size="14.00">+</text>
</g>
<!-- Failed Projects -->
<g id="node14" class="node">
<title>Failed Projects</title>
<text text-anchor="middle" x="369.5" y="-233.3" font-family="Times-Roman" font-size="14.00">Failed Projects</text>
</g>
<!-- Accomplished Project Rate&#45;&gt;Failed Projects -->
<g id="edge18" class="edge">
<title>Accomplished Project Rate&#45;&gt;Failed Projects</title>
<path fill="none" stroke="black" d="M320.02,-326.97C321.12,-311.96 324.33,-289.9 333.5,-273 335.51,-269.29 338.05,-265.74 340.84,-262.41"/>
<polygon fill="black" stroke="black" points="343.41,-264.78 347.69,-255.09 338.3,-260 343.41,-264.78"/>
<text text-anchor="middle" x="343.03" y="-265.65" font-family="Times-Roman" font-size="14.00">+</text>
</g>
<!-- Failed Projects&#45;&gt;Reputation -->
<g id="edge19" class="edge">
<title>Failed Projects&#45;&gt;Reputation</title>
<path fill="none" stroke="black" d="M359.82,-218.81C355.1,-210.44 349.33,-200.2 344.09,-190.9"/>
<polygon fill="black" stroke="black" points="347.05,-189.02 339.09,-182.03 340.95,-192.46 347.05,-189.02"/>
<text text-anchor="middle" x="351.29" y="-187.06" font-family="Times-Roman" font-size="14.00">&#45;</text>
</g>
<!-- Hiring Number&#45;&gt;Bench Engineers -->
<g id="edge20" class="edge">
<title>Hiring Number&#45;&gt;Bench Engineers</title>
<path fill="none" stroke="black" d="M617.79,-36.16C623.15,-50.34 629.5,-71.12 629.5,-90 629.5,-455 629.5,-455 629.5,-455 629.5,-554.09 589.65,-666.91 569.66,-717.28"/>
<polygon fill="black" stroke="black" points="566.33,-716.19 565.83,-726.77 572.82,-718.81 566.33,-716.19"/>
<text text-anchor="middle" x="565.04" y="-708.09" font-family="Times-Roman" font-size="14.00">+</text>
</g>
<!-- Hiring Quality&#45;&gt;Team Quality -->
<g id="edge21" class="edge">
<title>Hiring Quality&#45;&gt;Team Quality</title>
<path fill="none" stroke="black" d="M507.13,-472.99C485.59,-463.19 458.3,-450.77 435.32,-440.31"/>
<polygon fill="black" stroke="black" points="436.65,-437.07 426.1,-436.11 433.75,-443.44 436.65,-437.07"/>
<text text-anchor="middle" x="441.1" y="-432.28" font-family="Times-Roman" font-size="14.00">+</text>
</g>
<!-- Hiring Quality&#45;&gt;Hiring Number -->
<g id="edge27" class="edge">
<title>Hiring Quality&#45;&gt;Hiring Number</title>
<path fill="none" stroke="black" d="M564.16,-472.79C577.04,-459.54 591.5,-439.99 591.5,-419 591.5,-419 591.5,-419 591.5,-90 591.5,-75.1 595.45,-59.02 599.75,-45.93"/>
<polygon fill="black" stroke="black" points="603.17,-46.76 603.21,-36.16 596.58,-44.43 603.17,-46.76"/>
<text text-anchor="middle" x="604.65" y="-47.39" font-family="Times-Roman" font-size="14.00">&#45;</text>
</g>
<!-- Salary&#45;&gt;Hiring Quality -->
<g id="edge26" class="edge">
<title>Salary&#45;&gt;Hiring Quality</title>
<path fill="none" stroke="black" d="M544.5,-545.81C544.5,-537.79 544.5,-528.05 544.5,-519.07"/>
<polygon fill="black" stroke="black" points="548,-519.03 544.5,-509.03 541,-519.03 548,-519.03"/>
<text text-anchor="middle" x="550.84" y="-518.92" font-family="Times-Roman" font-size="14.00">+</text>
</g>
<!-- Candidate Quality&#45;&gt;Hiring Quality -->
<g id="edge28" class="edge">
<title>Candidate Quality&#45;&gt;Hiring Quality</title>
<path fill="none" stroke="black" d="M519.43,-109.05C535.77,-121.69 553.5,-140.57 553.5,-163 553.5,-419 553.5,-419 553.5,-419 553.5,-433.61 551.6,-449.77 549.55,-462.98"/>
<polygon fill="black" stroke="black" points="546.09,-462.42 547.9,-472.86 553,-463.57 546.09,-462.42"/>
<text text-anchor="middle" x="543.88" y="-454.71" font-family="Times-Roman" font-size="14.00">+</text>
</g>
<!-- Customer Satisfaction&#45;&gt;Reputation -->
<g id="edge32" class="edge">
<title>Customer Satisfaction&#45;&gt;Reputation</title>
<path fill="none" stroke="black" d="M132.85,-272.9C125.21,-268.28 118.38,-262.42 113.5,-255 104.71,-241.63 103.65,-231.61 113.5,-219 132.97,-194.07 215.84,-178.94 273.08,-171.28"/>
<polygon fill="black" stroke="black" points="273.62,-174.73 283.09,-169.98 272.72,-167.79 273.62,-174.73"/>
<text text-anchor="middle" x="270.43" y="-174.31" font-family="Times-Roman" font-size="14.00">+</text>
</g>
</g>
</svg>
