<?xml version="1.0" encoding="UTF-8" standalone="no"?>
<!DOCTYPE svg PUBLIC "-//W3C//DTD SVG 1.1//EN"
 "http://www.w3.org/Graphics/SVG/1.1/DTD/svg11.dtd">
<!-- Generated by graphviz version 2.43.0 (0)
 -->
<!-- Title: mygraph Pages: 1 -->
<svg width="857pt" height="931pt"
 viewBox="0.00 0.00 856.50 931.00" xmlns="http://www.w3.org/2000/svg" xmlns:xlink="http://www.w3.org/1999/xlink">
<g id="graph0" class="graph" transform="scale(1 1) rotate(0) translate(4 927)">
<title>mygraph</title>
<polygon fill="white" stroke="transparent" points="-4,4 -4,-927 852.5,-927 852.5,4 -4,4"/>
<!-- Inbound Demand -->
<g id="node1" class="node">
<title>Inbound Demand</title>
<text text-anchor="middle" x="780" y="-901.3" font-family="Times-Roman" font-size="14.00">Inbound Demand</text>
</g>
<!-- Qualification calls -->
<g id="node2" class="node">
<title>Qualification calls</title>
<text text-anchor="middle" x="683" y="-828.3" font-family="Times-Roman" font-size="14.00">Qualification calls</text>
</g>
<!-- Inbound Demand&#45;&gt;Qualification calls -->
<g id="edge1" class="edge">
<title>Inbound Demand&#45;&gt;Qualification calls</title>
<path fill="none" stroke="black" d="M756.52,-886.81C743.89,-877.57 728.14,-866.04 714.47,-856.03"/>
<polygon fill="black" stroke="black" points="716.4,-853.11 706.26,-850.03 712.27,-858.76 716.4,-853.11"/>
<text text-anchor="middle" x="720.98" y="-849.24" font-family="Times-Roman" font-size="14.00">+</text>
</g>
<!-- Project Offerings -->
<g id="node3" class="node">
<title>Project Offerings</title>
<text text-anchor="middle" x="683" y="-755.3" font-family="Times-Roman" font-size="14.00">Project Offerings</text>
</g>
<!-- Qualification calls&#45;&gt;Project Offerings -->
<g id="edge2" class="edge">
<title>Qualification calls&#45;&gt;Project Offerings</title>
<path fill="none" stroke="black" d="M683,-813.81C683,-805.79 683,-796.05 683,-787.07"/>
<polygon fill="black" stroke="black" points="686.5,-787.03 683,-777.03 679.5,-787.03 686.5,-787.03"/>
<text text-anchor="middle" x="689.34" y="-786.92" font-family="Times-Roman" font-size="14.00">+</text>
</g>
<!-- Closed Deals -->
<g id="node6" class="node">
<title>Closed Deals</title>
<text text-anchor="middle" x="566" y="-682.3" font-family="Times-Roman" font-size="14.00">Closed Deals</text>
</g>
<!-- Project Offerings&#45;&gt;Closed Deals -->
<g id="edge8" class="edge">
<title>Project Offerings&#45;&gt;Closed Deals</title>
<path fill="none" stroke="black" d="M654.98,-740.99C639.46,-731.58 619.98,-719.76 603.2,-709.57"/>
<polygon fill="black" stroke="black" points="604.57,-706.31 594.2,-704.11 600.93,-712.29 604.57,-706.31"/>
<text text-anchor="middle" x="609.11" y="-702.05" font-family="Times-Roman" font-size="14.00">+</text>
</g>
<!-- Hiring Target -->
<g id="node10" class="node">
<title>Hiring Target</title>
<text text-anchor="middle" x="743" y="-268.3" font-family="Times-Roman" font-size="14.00">Hiring Target</text>
</g>
<!-- Project Offerings&#45;&gt;Hiring Target -->
<g id="edge9" class="edge">
<title>Project Offerings&#45;&gt;Hiring Target</title>
<path fill="none" stroke="black" d="M744.57,-740.88C768.83,-730.05 791,-713.03 791,-687 791,-687 791,-687 791,-344 791,-326.5 780.87,-310.1 769.92,-297.48"/>
<polygon fill="black" stroke="black" points="772.45,-295.06 763.08,-290.13 767.33,-299.83 772.45,-295.06"/>
<text text-anchor="middle" x="776.98" y="-292.06" font-family="Times-Roman" font-size="14.00">+</text>
</g>
<!-- Bench Engineers -->
<g id="node4" class="node">
<title>Bench Engineers</title>
<text text-anchor="middle" x="67" y="-14.3" font-family="Times-Roman" font-size="14.00">Bench Engineers</text>
</g>
<!-- Bench Engineers&#45;&gt;Qualification calls -->
<g id="edge3" class="edge">
<title>Bench Engineers&#45;&gt;Qualification calls</title>
<path fill="none" stroke="black" d="M51.76,-36.04C41.19,-49.64 29,-69.73 29,-90 29,-760 29,-760 29,-760 29,-817.14 428.72,-828.33 603.17,-830.5"/>
<polygon fill="black" stroke="black" points="603.28,-834 613.32,-830.61 603.36,-827 603.28,-834"/>
<text text-anchor="middle" x="599.65" y="-833.09" font-family="Times-Roman" font-size="14.00">+</text>
</g>
<!-- Team Quality -->
<g id="node5" class="node">
<title>Team Quality</title>
<text text-anchor="middle" x="430" y="-501.3" font-family="Times-Roman" font-size="14.00">Team Quality</text>
</g>
<!-- Team Quality&#45;&gt;Closed Deals -->
<g id="edge4" class="edge">
<title>Team Quality&#45;&gt;Closed Deals</title>
<path fill="none" stroke="black" d="M456.14,-523.1C463.3,-528.39 470.8,-534.55 477,-541 511.37,-576.75 539.1,-627.93 554.01,-658.67"/>
<polygon fill="black" stroke="black" points="550.93,-660.36 558.39,-667.89 557.26,-657.36 550.93,-660.36"/>
<text text-anchor="middle" x="546.83" y="-654.64" font-family="Times-Roman" font-size="14.00">+</text>
</g>
<!-- Open Source Contributions -->
<g id="node8" class="node">
<title>Open Source Contributions</title>
<text text-anchor="middle" x="235" y="-428.3" font-family="Times-Roman" font-size="14.00">Open Source Contributions</text>
</g>
<!-- Team Quality&#45;&gt;Open Source Contributions -->
<g id="edge6" class="edge">
<title>Team Quality&#45;&gt;Open Source Contributions</title>
<path fill="none" stroke="black" d="M383.29,-486.99C355.76,-476.97 320.72,-464.21 291.62,-453.62"/>
<polygon fill="black" stroke="black" points="292.6,-450.25 282,-450.11 290.2,-456.82 292.6,-450.25"/>
<text text-anchor="middle" x="296.95" y="-445.11" font-family="Times-Roman" font-size="14.00">+</text>
</g>
<!-- Failed Project Rate -->
<g id="node14" class="node">
<title>Failed Project Rate</title>
<text text-anchor="middle" x="427" y="-428.3" font-family="Times-Roman" font-size="14.00">Failed Project Rate</text>
</g>
<!-- Team Quality&#45;&gt;Failed Project Rate -->
<g id="edge18" class="edge">
<title>Team Quality&#45;&gt;Failed Project Rate</title>
<path fill="none" stroke="black" d="M429.27,-486.81C428.93,-478.79 428.52,-469.05 428.14,-460.07"/>
<polygon fill="black" stroke="black" points="431.64,-459.87 427.72,-450.03 424.64,-460.17 431.64,-459.87"/>
<text text-anchor="middle" x="434.63" y="-459.64" font-family="Times-Roman" font-size="14.00">&#45;</text>
</g>
<!-- Customer Satisfaction -->
<g id="node18" class="node">
<title>Customer Satisfaction</title>
<text text-anchor="middle" x="602" y="-428.3" font-family="Times-Roman" font-size="14.00">Customer Satisfaction</text>
</g>
<!-- Team Quality&#45;&gt;Customer Satisfaction -->
<g id="edge28" class="edge">
<title>Team Quality&#45;&gt;Customer Satisfaction</title>
<path fill="none" stroke="black" d="M471.2,-486.99C495.17,-477.1 525.58,-464.54 551.05,-454.03"/>
<polygon fill="black" stroke="black" points="552.63,-457.16 560.54,-450.11 549.96,-450.69 552.63,-457.16"/>
<text text-anchor="middle" x="550.39" y="-457.46" font-family="Times-Roman" font-size="14.00">+</text>
</g>
<!-- Closed Deals&#45;&gt;Bench Engineers -->
<g id="edge15" class="edge">
<title>Closed Deals&#45;&gt;Bench Engineers</title>
<path fill="none" stroke="black" d="M512.6,-682.93C383.87,-677.22 67,-658.63 67,-614 67,-614 67,-614 67,-90 67,-75.65 67,-59.67 67,-46.51"/>
<polygon fill="black" stroke="black" points="70.5,-46.22 67,-36.22 63.5,-46.22 70.5,-46.22"/>
<text text-anchor="middle" x="73.34" y="-46.11" font-family="Times-Roman" font-size="14.00">&#45;</text>
</g>
<!-- Project Engineers -->
<g id="node11" class="node">
<title>Project Engineers</title>
<text text-anchor="middle" x="437" y="-609.3" font-family="Times-Roman" font-size="14.00">Project Engineers</text>
</g>
<!-- Closed Deals&#45;&gt;Project Engineers -->
<g id="edge10" class="edge">
<title>Closed Deals&#45;&gt;Project Engineers</title>
<path fill="none" stroke="black" d="M535.1,-667.99C517.68,-658.4 495.72,-646.32 476.99,-636.01"/>
<polygon fill="black" stroke="black" points="478.54,-632.87 468.09,-631.11 475.17,-639 478.54,-632.87"/>
<text text-anchor="middle" x="483.06" y="-628.41" font-family="Times-Roman" font-size="14.00">+</text>
</g>
<!-- Accomplished Projects -->
<g id="node13" class="node">
<title>Accomplished Projects</title>
<text text-anchor="middle" x="649" y="-555.3" font-family="Times-Roman" font-size="14.00">Accomplished Projects</text>
</g>
<!-- Closed Deals&#45;&gt;Accomplished Projects -->
<g id="edge16" class="edge">
<title>Closed Deals&#45;&gt;Accomplished Projects</title>
<path fill="none" stroke="black" d="M577.37,-667.88C591.44,-646.68 615.56,-610.37 631.88,-585.79"/>
<polygon fill="black" stroke="black" points="634.89,-587.58 637.5,-577.31 629.06,-583.71 634.89,-587.58"/>
<text text-anchor="middle" x="635.27" y="-588.44" font-family="Times-Roman" font-size="14.00">+</text>
</g>
<!-- Price -->
<g id="node7" class="node">
<title>Price</title>
<text text-anchor="middle" x="566" y="-755.3" font-family="Times-Roman" font-size="14.00">Price</text>
</g>
<!-- Price&#45;&gt;Closed Deals -->
<g id="edge5" class="edge">
<title>Price&#45;&gt;Closed Deals</title>
<path fill="none" stroke="black" d="M566,-740.81C566,-732.79 566,-723.05 566,-714.07"/>
<polygon fill="black" stroke="black" points="569.5,-714.03 566,-704.03 562.5,-714.03 569.5,-714.03"/>
<text text-anchor="middle" x="572.34" y="-713.92" font-family="Times-Roman" font-size="14.00">&#45;</text>
</g>
<!-- Reputation -->
<g id="node9" class="node">
<title>Reputation</title>
<text text-anchor="middle" x="602" y="-341.3" font-family="Times-Roman" font-size="14.00">Reputation</text>
</g>
<!-- Open Source Contributions&#45;&gt;Reputation -->
<g id="edge7" class="edge">
<title>Open Source Contributions&#45;&gt;Reputation</title>
<path fill="none" stroke="black" d="M308.83,-413.9C378.86,-397.68 482.57,-373.66 546.03,-358.96"/>
<polygon fill="black" stroke="black" points="546.9,-362.35 555.85,-356.69 545.32,-355.53 546.9,-362.35"/>
<text text-anchor="middle" x="460" y="-384.8" font-family="Times-Roman" font-size="14.00">delay</text>
<text text-anchor="middle" x="544.04" y="-362.23" font-family="Times-Roman" font-size="14.00">+</text>
</g>
<!-- Reputation&#45;&gt;Inbound Demand -->
<g id="edge14" class="edge">
<title>Reputation&#45;&gt;Inbound Demand</title>
<path fill="none" stroke="black" d="M648.21,-353.65C714.58,-365.97 829,-392.76 829,-431 829,-833 829,-833 829,-833 829,-850.61 818.66,-867.02 807.48,-879.62"/>
<polygon fill="black" stroke="black" points="804.86,-877.3 800.5,-886.95 809.93,-882.13 804.86,-877.3"/>
<text text-anchor="middle" x="805.29" y="-869.04" font-family="Times-Roman" font-size="14.00">+</text>
</g>
<!-- Reputation&#45;&gt;Closed Deals -->
<g id="edge12" class="edge">
<title>Reputation&#45;&gt;Closed Deals</title>
<path fill="none" stroke="black" d="M648.13,-352.25C692.53,-361.17 753,-382.26 753,-431 753,-614 753,-614 753,-614 753,-641.13 683.32,-661.6 629.02,-673.42"/>
<polygon fill="black" stroke="black" points="628.14,-670.03 619.09,-675.53 629.6,-676.88 628.14,-670.03"/>
<text text-anchor="middle" x="631.07" y="-662.81" font-family="Times-Roman" font-size="14.00">+</text>
</g>
<!-- Candidate Number -->
<g id="node12" class="node">
<title>Candidate Number</title>
<text text-anchor="middle" x="508" y="-214.3" font-family="Times-Roman" font-size="14.00">Candidate Number</text>
</g>
<!-- Reputation&#45;&gt;Candidate Number -->
<g id="edge13" class="edge">
<title>Reputation&#45;&gt;Candidate Number</title>
<path fill="none" stroke="black" d="M564.39,-326.81C548.99,-317.93 532.38,-305.64 522,-290 513.48,-277.15 509.91,-260.31 508.5,-246.25"/>
<polygon fill="black" stroke="black" points="511.98,-245.89 507.8,-236.15 505,-246.37 511.98,-245.89"/>
<text text-anchor="middle" x="515.07" y="-245.58" font-family="Times-Roman" font-size="14.00">+</text>
</g>
<!-- Candidate Quality -->
<g id="node17" class="node">
<title>Candidate Quality</title>
<text text-anchor="middle" x="602" y="-268.3" font-family="Times-Roman" font-size="14.00">Candidate Quality</text>
</g>
<!-- Reputation&#45;&gt;Candidate Quality -->
<g id="edge27" class="edge">
<title>Reputation&#45;&gt;Candidate Quality</title>
<path fill="none" stroke="black" d="M602,-326.81C602,-318.79 602,-309.05 602,-300.07"/>
<polygon fill="black" stroke="black" points="605.5,-300.03 602,-290.03 598.5,-300.03 605.5,-300.03"/>
<text text-anchor="middle" x="608.34" y="-299.92" font-family="Times-Roman" font-size="14.00">+</text>
</g>
<!-- Hiring Number -->
<g id="node15" class="node">
<title>Hiring Number</title>
<text text-anchor="middle" x="539" y="-87.3" font-family="Times-Roman" font-size="14.00">Hiring Number</text>
</g>
<!-- Hiring Target&#45;&gt;Hiring Number -->
<g id="edge22" class="edge">
<title>Hiring Target&#45;&gt;Hiring Number</title>
<path fill="none" stroke="black" d="M736.26,-253.74C725.12,-227.25 700.53,-176.47 665,-146 648.55,-131.89 627.85,-120.98 608.02,-112.79"/>
<polygon fill="black" stroke="black" points="609.27,-109.52 598.68,-109.1 606.69,-116.03 609.27,-109.52"/>
<text text-anchor="middle" x="613.65" y="-104.5" font-family="Times-Roman" font-size="14.00">+</text>
</g>
<!-- Hiring Quality -->
<g id="node16" class="node">
<title>Hiring Quality</title>
<text text-anchor="middle" x="599" y="-160.3" font-family="Times-Roman" font-size="14.00">Hiring Quality</text>
</g>
<!-- Hiring Target&#45;&gt;Hiring Quality -->
<g id="edge23" class="edge">
<title>Hiring Target&#45;&gt;Hiring Quality</title>
<path fill="none" stroke="black" d="M719.86,-253.97C695.76,-236.23 657.82,-208.3 630.88,-188.47"/>
<polygon fill="black" stroke="black" points="632.69,-185.45 622.56,-182.34 628.54,-191.09 632.69,-185.45"/>
<text text-anchor="middle" x="637.26" y="-181.59" font-family="Times-Roman" font-size="14.00">&#45;</text>
</g>
<!-- Project Engineers&#45;&gt;Team Quality -->
<g id="edge11" class="edge">
<title>Project Engineers&#45;&gt;Team Quality</title>
<path fill="none" stroke="black" d="M435.88,-594.97C434.78,-578.38 433.1,-552.88 431.81,-533.43"/>
<polygon fill="black" stroke="black" points="435.3,-533.09 431.15,-523.34 428.31,-533.55 435.3,-533.09"/>
<text text-anchor="middle" x="454" y="-555.3" font-family="Times-Roman" font-size="14.00">delay</text>
<text text-anchor="middle" x="438.37" y="-532.79" font-family="Times-Roman" font-size="14.00">+</text>
</g>
<!-- Candidate Number&#45;&gt;Hiring Number -->
<g id="edge26" class="edge">
<title>Candidate Number&#45;&gt;Hiring Number</title>
<path fill="none" stroke="black" d="M512.25,-199.88C517.41,-179.05 526.19,-143.64 532.28,-119.09"/>
<polygon fill="black" stroke="black" points="535.7,-119.86 534.71,-109.31 528.9,-118.18 535.7,-119.86"/>
<text text-anchor="middle" x="537.59" y="-120.33" font-family="Times-Roman" font-size="14.00">+</text>
</g>
<!-- Accomplished Projects&#45;&gt;Reputation -->
<g id="edge17" class="edge">
<title>Accomplished Projects&#45;&gt;Reputation</title>
<path fill="none" stroke="black" d="M662.95,-540.91C683.73,-513.23 718.13,-457.33 696,-414 686,-394.42 667.44,-379.18 649.44,-368.13"/>
<polygon fill="black" stroke="black" points="651.09,-365.04 640.69,-363.05 647.57,-371.1 651.09,-365.04"/>
<text text-anchor="middle" x="655.63" y="-360.7" font-family="Times-Roman" font-size="14.00">+</text>
</g>
<!-- Failed Project Rate&#45;&gt;Reputation -->
<g id="edge19" class="edge">
<title>Failed Project Rate&#45;&gt;Reputation</title>
<path fill="none" stroke="black" d="M462.41,-413.8C489.9,-400.45 528.17,-381.86 557.69,-367.52"/>
<polygon fill="black" stroke="black" points="559.47,-370.55 566.94,-363.03 556.41,-364.25 559.47,-370.55"/>
<text text-anchor="middle" x="557.48" y="-370.97" font-family="Times-Roman" font-size="14.00">&#45;</text>
</g>
<!-- Hiring Number&#45;&gt;Bench Engineers -->
<g id="edge20" class="edge">
<title>Hiring Number&#45;&gt;Bench Engineers</title>
<path fill="none" stroke="black" d="M479.22,-81.01C394.13,-68.21 238.05,-44.73 144.28,-30.62"/>
<polygon fill="black" stroke="black" points="144.69,-27.15 134.28,-29.12 143.65,-34.07 144.69,-27.15"/>
<text text-anchor="middle" x="148.67" y="-21.17" font-family="Times-Roman" font-size="14.00">+</text>
</g>
<!-- Hiring Quality&#45;&gt;Team Quality -->
<g id="edge21" class="edge">
<title>Hiring Quality&#45;&gt;Team Quality</title>
<path fill="none" stroke="black" d="M542.33,-165.33C412.57,-167.63 105,-182.41 105,-271 105,-433 105,-433 105,-433 105,-485.94 271.66,-499.47 366.29,-502.88"/>
<polygon fill="black" stroke="black" points="366.22,-506.38 376.33,-503.22 366.45,-499.39 366.22,-506.38"/>
<text text-anchor="middle" x="362.53" y="-505.4" font-family="Times-Roman" font-size="14.00">+</text>
</g>
<!-- Hiring Quality&#45;&gt;Hiring Number -->
<g id="edge24" class="edge">
<title>Hiring Quality&#45;&gt;Hiring Number</title>
<path fill="none" stroke="black" d="M584.48,-145.81C577.11,-137.09 568.02,-126.34 559.91,-116.75"/>
<polygon fill="black" stroke="black" points="562.52,-114.41 553.39,-109.03 557.17,-118.93 562.52,-114.41"/>
<text text-anchor="middle" x="567.01" y="-111.62" font-family="Times-Roman" font-size="14.00">&#45;</text>
</g>
<!-- Candidate Quality&#45;&gt;Hiring Quality -->
<g id="edge25" class="edge">
<title>Candidate Quality&#45;&gt;Hiring Quality</title>
<path fill="none" stroke="black" d="M601.52,-253.97C601.05,-237.38 600.33,-211.88 599.78,-192.43"/>
<polygon fill="black" stroke="black" points="603.27,-192.24 599.49,-182.34 596.28,-192.44 603.27,-192.24"/>
<text text-anchor="middle" x="606.21" y="-192.05" font-family="Times-Roman" font-size="14.00">+</text>
</g>
<!-- Customer Satisfaction&#45;&gt;Reputation -->
<g id="edge29" class="edge">
<title>Customer Satisfaction&#45;&gt;Reputation</title>
<path fill="none" stroke="black" d="M602,-413.8C602,-402.16 602,-386.55 602,-373.24"/>
<polygon fill="black" stroke="black" points="605.5,-373.18 602,-363.18 598.5,-373.18 605.5,-373.18"/>
<text text-anchor="middle" x="608.34" y="-373.07" font-family="Times-Roman" font-size="14.00">+</text>
</g>
</g>
</svg>
