<?xml version="1.0" encoding="UTF-8" standalone="no"?>
<!DOCTYPE svg PUBLIC "-//W3C//DTD SVG 1.1//EN"
 "http://www.w3.org/Graphics/SVG/1.1/DTD/svg11.dtd">
<!-- Generated by graphviz version 2.43.0 (0)
 -->
<!-- Title: mygraph Pages: 1 -->
<svg width="857pt" height="823pt"
 viewBox="0.00 0.00 856.50 823.00" xmlns="http://www.w3.org/2000/svg" xmlns:xlink="http://www.w3.org/1999/xlink">
<g id="graph0" class="graph" transform="scale(1 1) rotate(0) translate(4 819)">
<title>mygraph</title>
<polygon fill="white" stroke="transparent" points="-4,4 -4,-819 852.5,-819 852.5,4 -4,4"/>
<!-- Inbound Demand -->
<g id="node1" class="node">
<title>Inbound Demand</title>
<text text-anchor="middle" x="780" y="-793.3" font-family="Times-Roman" font-size="14.00">Inbound Demand</text>
</g>
<!-- Qualification calls -->
<g id="node2" class="node">
<title>Qualification calls</title>
<text text-anchor="middle" x="716" y="-720.3" font-family="Times-Roman" font-size="14.00">Qualification calls</text>
</g>
<!-- Inbound Demand&#45;&gt;Qualification calls -->
<g id="edge1" class="edge">
<title>Inbound Demand&#45;&gt;Qualification calls</title>
<path fill="none" stroke="black" d="M764.51,-778.81C756.57,-770 746.76,-759.13 738.05,-749.46"/>
<polygon fill="black" stroke="black" points="740.65,-747.11 731.35,-742.03 735.45,-751.8 740.65,-747.11"/>
<text text-anchor="middle" x="745.16" y="-744.18" font-family="Times-Roman" font-size="14.00">+</text>
</g>
<!-- Project Offerings -->
<g id="node3" class="node">
<title>Project Offerings</title>
<text text-anchor="middle" x="716" y="-647.3" font-family="Times-Roman" font-size="14.00">Project Offerings</text>
</g>
<!-- Qualification calls&#45;&gt;Project Offerings -->
<g id="edge2" class="edge">
<title>Qualification calls&#45;&gt;Project Offerings</title>
<path fill="none" stroke="black" d="M716,-705.81C716,-697.79 716,-688.05 716,-679.07"/>
<polygon fill="black" stroke="black" points="719.5,-679.03 716,-669.03 712.5,-679.03 719.5,-679.03"/>
<text text-anchor="middle" x="722.34" y="-678.92" font-family="Times-Roman" font-size="14.00">+</text>
</g>
<!-- Closed Deals -->
<g id="node6" class="node">
<title>Closed Deals</title>
<text text-anchor="middle" x="597" y="-574.3" font-family="Times-Roman" font-size="14.00">Closed Deals</text>
</g>
<!-- Project Offerings&#45;&gt;Closed Deals -->
<g id="edge8" class="edge">
<title>Project Offerings&#45;&gt;Closed Deals</title>
<path fill="none" stroke="black" d="M687.5,-632.99C671.57,-623.49 651.53,-611.54 634.36,-601.29"/>
<polygon fill="black" stroke="black" points="636.06,-598.23 625.68,-596.11 632.48,-604.24 636.06,-598.23"/>
<text text-anchor="middle" x="640.61" y="-593.94" font-family="Times-Roman" font-size="14.00">+</text>
</g>
<!-- Hiring Target -->
<g id="node10" class="node">
<title>Hiring Target</title>
<text text-anchor="middle" x="599" y="-160.3" font-family="Times-Roman" font-size="14.00">Hiring Target</text>
</g>
<!-- Project Offerings&#45;&gt;Hiring Target -->
<g id="edge9" class="edge">
<title>Project Offerings&#45;&gt;Hiring Target</title>
<path fill="none" stroke="black" d="M751.74,-632.82C771.06,-620.8 791,-602.67 791,-579 791,-579 791,-579 791,-360 791,-277.42 702.48,-217.08 645.65,-186.85"/>
<polygon fill="black" stroke="black" points="646.96,-183.59 636.48,-182.08 643.74,-189.8 646.96,-183.59"/>
<text text-anchor="middle" x="651.46" y="-179.03" font-family="Times-Roman" font-size="14.00">+</text>
</g>
<!-- Bench Engineers -->
<g id="node4" class="node">
<title>Bench Engineers</title>
<text text-anchor="middle" x="67" y="-14.3" font-family="Times-Roman" font-size="14.00">Bench Engineers</text>
</g>
<!-- Bench Engineers&#45;&gt;Qualification calls -->
<g id="edge3" class="edge">
<title>Bench Engineers&#45;&gt;Qualification calls</title>
<path fill="none" stroke="black" d="M51.76,-36.04C41.19,-49.64 29,-69.73 29,-90 29,-652 29,-652 29,-652 29,-712.43 454.99,-721.71 636.08,-722.93"/>
<polygon fill="black" stroke="black" points="636.33,-726.43 646.35,-722.99 636.37,-719.43 636.33,-726.43"/>
<text text-anchor="middle" x="632.71" y="-725.55" font-family="Times-Roman" font-size="14.00">+</text>
</g>
<!-- Team Quality -->
<g id="node5" class="node">
<title>Team Quality</title>
<text text-anchor="middle" x="425" y="-393.3" font-family="Times-Roman" font-size="14.00">Team Quality</text>
</g>
<!-- Team Quality&#45;&gt;Closed Deals -->
<g id="edge4" class="edge">
<title>Team Quality&#45;&gt;Closed Deals</title>
<path fill="none" stroke="black" d="M448.01,-415.09C454.96,-420.57 462.48,-426.83 469,-433 510.07,-471.89 552.74,-522.23 576.96,-551.93"/>
<polygon fill="black" stroke="black" points="574.28,-554.17 583.29,-559.73 579.71,-549.76 574.28,-554.17"/>
<text text-anchor="middle" x="569.81" y="-549.47" font-family="Times-Roman" font-size="14.00">+</text>
</g>
<!-- Open Source Contributions -->
<g id="node8" class="node">
<title>Open Source Contributions</title>
<text text-anchor="middle" x="423" y="-320.3" font-family="Times-Roman" font-size="14.00">Open Source Contributions</text>
</g>
<!-- Team Quality&#45;&gt;Open Source Contributions -->
<g id="edge6" class="edge">
<title>Team Quality&#45;&gt;Open Source Contributions</title>
<path fill="none" stroke="black" d="M424.52,-378.81C424.29,-370.79 424.02,-361.05 423.76,-352.07"/>
<polygon fill="black" stroke="black" points="427.26,-351.93 423.48,-342.03 420.26,-352.12 427.26,-351.93"/>
<text text-anchor="middle" x="430.2" y="-351.74" font-family="Times-Roman" font-size="14.00">+</text>
</g>
<!-- Failed Project Rate -->
<g id="node14" class="node">
<title>Failed Project Rate</title>
<text text-anchor="middle" x="615" y="-320.3" font-family="Times-Roman" font-size="14.00">Failed Project Rate</text>
</g>
<!-- Team Quality&#45;&gt;Failed Project Rate -->
<g id="edge18" class="edge">
<title>Team Quality&#45;&gt;Failed Project Rate</title>
<path fill="none" stroke="black" d="M470.51,-378.99C497.34,-368.97 531.47,-356.21 559.83,-345.62"/>
<polygon fill="black" stroke="black" points="561.06,-348.89 569.2,-342.11 558.61,-342.34 561.06,-348.89"/>
<text text-anchor="middle" x="558.69" y="-349.11" font-family="Times-Roman" font-size="14.00">&#45;</text>
</g>
<!-- Customer Satisfaction -->
<g id="node18" class="node">
<title>Customer Satisfaction</title>
<text text-anchor="middle" x="218" y="-320.3" font-family="Times-Roman" font-size="14.00">Customer Satisfaction</text>
</g>
<!-- Team Quality&#45;&gt;Customer Satisfaction -->
<g id="edge27" class="edge">
<title>Team Quality&#45;&gt;Customer Satisfaction</title>
<path fill="none" stroke="black" d="M375.42,-378.99C346.06,-368.92 308.68,-356.1 277.71,-345.48"/>
<polygon fill="black" stroke="black" points="278.49,-342.05 267.89,-342.11 276.22,-348.67 278.49,-342.05"/>
<text text-anchor="middle" x="282.81" y="-336.83" font-family="Times-Roman" font-size="14.00">+</text>
</g>
<!-- Closed Deals&#45;&gt;Bench Engineers -->
<g id="edge15" class="edge">
<title>Closed Deals&#45;&gt;Bench Engineers</title>
<path fill="none" stroke="black" d="M543.75,-575.39C409.35,-570.61 67,-553.75 67,-506 67,-506 67,-506 67,-90 67,-75.65 67,-59.67 67,-46.51"/>
<polygon fill="black" stroke="black" points="70.5,-46.22 67,-36.22 63.5,-46.22 70.5,-46.22"/>
<text text-anchor="middle" x="73.34" y="-46.11" font-family="Times-Roman" font-size="14.00">&#45;</text>
</g>
<!-- Project Engineers -->
<g id="node11" class="node">
<title>Project Engineers</title>
<text text-anchor="middle" x="427" y="-501.3" font-family="Times-Roman" font-size="14.00">Project Engineers</text>
</g>
<!-- Closed Deals&#45;&gt;Project Engineers -->
<g id="edge10" class="edge">
<title>Closed Deals&#45;&gt;Project Engineers</title>
<path fill="none" stroke="black" d="M556.28,-559.99C532.59,-550.1 502.53,-537.54 477.36,-527.03"/>
<polygon fill="black" stroke="black" points="478.55,-523.74 467.98,-523.11 475.85,-530.2 478.55,-523.74"/>
<text text-anchor="middle" x="482.96" y="-518.8" font-family="Times-Roman" font-size="14.00">+</text>
</g>
<!-- Accomplished Projects -->
<g id="node13" class="node">
<title>Accomplished Projects</title>
<text text-anchor="middle" x="648" y="-447.3" font-family="Times-Roman" font-size="14.00">Accomplished Projects</text>
</g>
<!-- Closed Deals&#45;&gt;Accomplished Projects -->
<g id="edge16" class="edge">
<title>Closed Deals&#45;&gt;Accomplished Projects</title>
<path fill="none" stroke="black" d="M603.98,-559.88C612.52,-538.96 627.06,-503.32 637.08,-478.76"/>
<polygon fill="black" stroke="black" points="640.4,-479.89 640.94,-469.31 633.92,-477.25 640.4,-479.89"/>
<text text-anchor="middle" x="641.67" y="-480.6" font-family="Times-Roman" font-size="14.00">+</text>
</g>
<!-- Price -->
<g id="node7" class="node">
<title>Price</title>
<text text-anchor="middle" x="597" y="-647.3" font-family="Times-Roman" font-size="14.00">Price</text>
</g>
<!-- Price&#45;&gt;Closed Deals -->
<g id="edge5" class="edge">
<title>Price&#45;&gt;Closed Deals</title>
<path fill="none" stroke="black" d="M597,-632.81C597,-624.79 597,-615.05 597,-606.07"/>
<polygon fill="black" stroke="black" points="600.5,-606.03 597,-596.03 593.5,-606.03 600.5,-606.03"/>
<text text-anchor="middle" x="603.34" y="-605.92" font-family="Times-Roman" font-size="14.00">&#45;</text>
</g>
<!-- Reputation -->
<g id="node9" class="node">
<title>Reputation</title>
<text text-anchor="middle" x="524" y="-233.3" font-family="Times-Roman" font-size="14.00">Reputation</text>
</g>
<!-- Open Source Contributions&#45;&gt;Reputation -->
<g id="edge7" class="edge">
<title>Open Source Contributions&#45;&gt;Reputation</title>
<path fill="none" stroke="black" d="M443.44,-305.8C458.5,-293.13 479.16,-275.73 495.79,-261.74"/>
<polygon fill="black" stroke="black" points="498.19,-264.29 503.59,-255.18 493.69,-258.94 498.19,-264.29"/>
<text text-anchor="middle" x="499" y="-276.8" font-family="Times-Roman" font-size="14.00">delay</text>
<text text-anchor="middle" x="497.27" y="-265.08" font-family="Times-Roman" font-size="14.00">+</text>
</g>
<!-- Reputation&#45;&gt;Inbound Demand -->
<g id="edge14" class="edge">
<title>Reputation&#45;&gt;Inbound Demand</title>
<path fill="none" stroke="black" d="M570.06,-240.76C610.57,-244.46 670.48,-253.06 719,-273 742.95,-282.84 746.54,-290.14 767,-306 795.88,-328.39 829,-323.46 829,-360 829,-725 829,-725 829,-725 829,-742.61 818.66,-759.02 807.48,-771.62"/>
<polygon fill="black" stroke="black" points="804.86,-769.3 800.5,-778.95 809.93,-774.13 804.86,-769.3"/>
<text text-anchor="middle" x="805.29" y="-761.04" font-family="Times-Roman" font-size="14.00">+</text>
</g>
<!-- Reputation&#45;&gt;Closed Deals -->
<g id="edge12" class="edge">
<title>Reputation&#45;&gt;Closed Deals</title>
<path fill="none" stroke="black" d="M570.05,-242.97C602.91,-247.72 647.54,-256.67 684,-273 718.56,-288.48 753,-285.13 753,-323 753,-506 753,-506 753,-506 753,-548.93 703.46,-566.02 660.21,-572.76"/>
<polygon fill="black" stroke="black" points="659.67,-569.31 650.25,-574.16 660.64,-576.24 659.67,-569.31"/>
<text text-anchor="middle" x="662.83" y="-562.3" font-family="Times-Roman" font-size="14.00">+</text>
</g>
<!-- Candidate Number -->
<g id="node12" class="node">
<title>Candidate Number</title>
<text text-anchor="middle" x="169" y="-160.3" font-family="Times-Roman" font-size="14.00">Candidate Number</text>
</g>
<!-- Reputation&#45;&gt;Candidate Number -->
<g id="edge13" class="edge">
<title>Reputation&#45;&gt;Candidate Number</title>
<path fill="none" stroke="black" d="M477.95,-226.79C421.18,-215.44 323.59,-195.92 253.26,-181.85"/>
<polygon fill="black" stroke="black" points="253.59,-178.35 243.09,-179.82 252.21,-185.21 253.59,-178.35"/>
<text text-anchor="middle" x="257.67" y="-172.57" font-family="Times-Roman" font-size="14.00">+</text>
</g>
<!-- Candidate Quality -->
<g id="node17" class="node">
<title>Candidate Quality</title>
<text text-anchor="middle" x="458" y="-160.3" font-family="Times-Roman" font-size="14.00">Candidate Quality</text>
</g>
<!-- Reputation&#45;&gt;Candidate Quality -->
<g id="edge26" class="edge">
<title>Reputation&#45;&gt;Candidate Quality</title>
<path fill="none" stroke="black" d="M508.02,-218.81C499.84,-210 489.72,-199.13 480.74,-189.46"/>
<polygon fill="black" stroke="black" points="483.2,-186.97 473.83,-182.03 478.07,-191.74 483.2,-186.97"/>
<text text-anchor="middle" x="487.73" y="-183.97" font-family="Times-Roman" font-size="14.00">+</text>
</g>
<!-- Hiring Number -->
<g id="node15" class="node">
<title>Hiring Number</title>
<text text-anchor="middle" x="169" y="-87.3" font-family="Times-Roman" font-size="14.00">Hiring Number</text>
</g>
<!-- Hiring Target&#45;&gt;Hiring Number -->
<g id="edge22" class="edge">
<title>Hiring Target&#45;&gt;Hiring Number</title>
<path fill="none" stroke="black" d="M546.34,-148.09C543.19,-147.35 540.06,-146.64 537,-146 434.09,-124.42 313.2,-108.45 238.84,-99.68"/>
<polygon fill="black" stroke="black" points="239.01,-96.17 228.67,-98.49 238.19,-103.12 239.01,-96.17"/>
<text text-anchor="middle" x="242.91" y="-90.07" font-family="Times-Roman" font-size="14.00">+</text>
</g>
<!-- Hiring Quality -->
<g id="node16" class="node">
<title>Hiring Quality</title>
<text text-anchor="middle" x="458" y="-87.3" font-family="Times-Roman" font-size="14.00">Hiring Quality</text>
</g>
<!-- Hiring Target&#45;&gt;Hiring Quality -->
<g id="edge23" class="edge">
<title>Hiring Target&#45;&gt;Hiring Quality</title>
<path fill="none" stroke="black" d="M565.23,-145.99C546.01,-136.32 521.74,-124.1 501.15,-113.73"/>
<polygon fill="black" stroke="black" points="502.49,-110.49 491.99,-109.11 499.34,-116.74 502.49,-110.49"/>
<text text-anchor="middle" x="506.98" y="-105.87" font-family="Times-Roman" font-size="14.00">&#45;</text>
</g>
<!-- Project Engineers&#45;&gt;Team Quality -->
<g id="edge11" class="edge">
<title>Project Engineers&#45;&gt;Team Quality</title>
<path fill="none" stroke="black" d="M426.68,-486.97C426.37,-470.38 425.88,-444.88 425.52,-425.43"/>
<polygon fill="black" stroke="black" points="429.02,-425.27 425.33,-415.34 422.02,-425.4 429.02,-425.27"/>
<text text-anchor="middle" x="446" y="-447.3" font-family="Times-Roman" font-size="14.00">delay</text>
<text text-anchor="middle" x="431.92" y="-425.11" font-family="Times-Roman" font-size="14.00">+</text>
</g>
<!-- Candidate Number&#45;&gt;Hiring Number -->
<g id="edge25" class="edge">
<title>Candidate Number&#45;&gt;Hiring Number</title>
<path fill="none" stroke="black" d="M169,-145.81C169,-137.79 169,-128.05 169,-119.07"/>
<polygon fill="black" stroke="black" points="172.5,-119.03 169,-109.03 165.5,-119.03 172.5,-119.03"/>
<text text-anchor="middle" x="175.34" y="-118.92" font-family="Times-Roman" font-size="14.00">+</text>
</g>
<!-- Accomplished Projects&#45;&gt;Reputation -->
<g id="edge17" class="edge">
<title>Accomplished Projects&#45;&gt;Reputation</title>
<path fill="none" stroke="black" d="M662.99,-432.68C685.73,-404.18 723.56,-346.53 696,-306 670.26,-268.14 619.83,-251.36 580.2,-243.92"/>
<polygon fill="black" stroke="black" points="580.57,-240.43 570.12,-242.18 579.38,-247.33 580.57,-240.43"/>
<text text-anchor="middle" x="584.6" y="-234.55" font-family="Times-Roman" font-size="14.00">+</text>
</g>
<!-- Failed Project Rate&#45;&gt;Reputation -->
<g id="edge19" class="edge">
<title>Failed Project Rate&#45;&gt;Reputation</title>
<path fill="none" stroke="black" d="M596.58,-305.8C583.14,-293.24 564.74,-276.05 549.82,-262.12"/>
<polygon fill="black" stroke="black" points="552.08,-259.44 542.39,-255.18 547.31,-264.56 552.08,-259.44"/>
<text text-anchor="middle" x="556.65" y="-256.12" font-family="Times-Roman" font-size="14.00">&#45;</text>
</g>
<!-- Hiring Number&#45;&gt;Bench Engineers -->
<g id="edge20" class="edge">
<title>Hiring Number&#45;&gt;Bench Engineers</title>
<path fill="none" stroke="black" d="M144.57,-72.99C131.17,-63.67 114.37,-51.97 99.84,-41.86"/>
<polygon fill="black" stroke="black" points="101.79,-38.95 91.59,-36.11 97.79,-44.7 101.79,-38.95"/>
<text text-anchor="middle" x="106.36" y="-34.98" font-family="Times-Roman" font-size="14.00">+</text>
</g>
<!-- Hiring Quality&#45;&gt;Team Quality -->
<g id="edge21" class="edge">
<title>Hiring Quality&#45;&gt;Team Quality</title>
<path fill="none" stroke="black" d="M422.68,-109.13C343.71,-148.23 157.17,-245.35 124,-306 116.32,-320.04 113.73,-329.73 124,-342 153.59,-377.37 281.6,-389.6 360.85,-393.81"/>
<polygon fill="black" stroke="black" points="361.05,-397.33 371.22,-394.33 361.4,-390.33 361.05,-397.33"/>
<text text-anchor="middle" x="357.32" y="-396.28" font-family="Times-Roman" font-size="14.00">+</text>
</g>
<!-- Candidate Quality&#45;&gt;Hiring Quality -->
<g id="edge24" class="edge">
<title>Candidate Quality&#45;&gt;Hiring Quality</title>
<path fill="none" stroke="black" d="M458,-145.81C458,-137.79 458,-128.05 458,-119.07"/>
<polygon fill="black" stroke="black" points="461.5,-119.03 458,-109.03 454.5,-119.03 461.5,-119.03"/>
<text text-anchor="middle" x="464.34" y="-118.92" font-family="Times-Roman" font-size="14.00">+</text>
</g>
<!-- Customer Satisfaction&#45;&gt;Reputation -->
<g id="edge28" class="edge">
<title>Customer Satisfaction&#45;&gt;Reputation</title>
<path fill="none" stroke="black" d="M279.56,-305.9C334.65,-290.6 414.72,-268.36 468.03,-253.55"/>
<polygon fill="black" stroke="black" points="469.29,-256.83 477.99,-250.78 467.42,-250.08 469.29,-256.83"/>
<text text-anchor="middle" x="466.59" y="-256.83" font-family="Times-Roman" font-size="14.00">+</text>
</g>
</g>
</svg>
