<?xml version="1.0" encoding="UTF-8" standalone="no"?>
<!DOCTYPE svg PUBLIC "-//W3C//DTD SVG 1.1//EN"
 "http://www.w3.org/Graphics/SVG/1.1/DTD/svg11.dtd">
<!-- Generated by graphviz version 2.43.0 (0)
 -->
<!-- Title: mygraph Pages: 1 -->
<svg width="938pt" height="823pt"
 viewBox="0.00 0.00 937.50 823.00" xmlns="http://www.w3.org/2000/svg" xmlns:xlink="http://www.w3.org/1999/xlink">
<g id="graph0" class="graph" transform="scale(1 1) rotate(0) translate(4 819)">
<title>mygraph</title>
<polygon fill="white" stroke="transparent" points="-4,4 -4,-819 933.5,-819 933.5,4 -4,4"/>
<!-- Inbound Demand -->
<g id="node1" class="node">
<title>Inbound Demand</title>
<text text-anchor="middle" x="118.5" y="-793.3" font-family="Times-Roman" font-size="14.00">Inbound Demand</text>
</g>
<!-- Qualification calls -->
<g id="node2" class="node">
<title>Qualification calls</title>
<text text-anchor="middle" x="69.5" y="-720.3" font-family="Times-Roman" font-size="14.00">Qualification calls</text>
</g>
<!-- Inbound Demand&#45;&gt;Qualification calls -->
<g id="edge1" class="edge">
<title>Inbound Demand&#45;&gt;Qualification calls</title>
<path fill="none" stroke="black" d="M106.64,-778.81C100.74,-770.27 93.5,-759.77 86.98,-750.32"/>
<polygon fill="black" stroke="black" points="89.81,-748.27 81.25,-742.03 84.05,-752.25 89.81,-748.27"/>
<text text-anchor="middle" x="94.19" y="-745.92" font-family="Times-Roman" font-size="14.00">+</text>
</g>
<!-- Project Offerings -->
<g id="node3" class="node">
<title>Project Offerings</title>
<text text-anchor="middle" x="280.5" y="-647.3" font-family="Times-Roman" font-size="14.00">Project Offerings</text>
</g>
<!-- Qualification calls&#45;&gt;Project Offerings -->
<g id="edge2" class="edge">
<title>Qualification calls&#45;&gt;Project Offerings</title>
<path fill="none" stroke="black" d="M120.04,-705.99C150.09,-695.88 188.4,-682.99 220.05,-672.34"/>
<polygon fill="black" stroke="black" points="221.28,-675.62 229.64,-669.11 219.05,-668.99 221.28,-675.62"/>
<text text-anchor="middle" x="218.78" y="-675.76" font-family="Times-Roman" font-size="14.00">+</text>
</g>
<!-- Closed Deals -->
<g id="node6" class="node">
<title>Closed Deals</title>
<text text-anchor="middle" x="482.5" y="-574.3" font-family="Times-Roman" font-size="14.00">Closed Deals</text>
</g>
<!-- Project Offerings&#45;&gt;Closed Deals -->
<g id="edge8" class="edge">
<title>Project Offerings&#45;&gt;Closed Deals</title>
<path fill="none" stroke="black" d="M328.88,-632.99C357.53,-622.92 394.01,-610.1 424.24,-599.48"/>
<polygon fill="black" stroke="black" points="425.54,-602.73 433.81,-596.11 423.22,-596.13 425.54,-602.73"/>
<text text-anchor="middle" x="423.09" y="-602.9" font-family="Times-Roman" font-size="14.00">+</text>
</g>
<!-- Hiring Target -->
<g id="node10" class="node">
<title>Hiring Target</title>
<text text-anchor="middle" x="280.5" y="-574.3" font-family="Times-Roman" font-size="14.00">Hiring Target</text>
</g>
<!-- Project Offerings&#45;&gt;Hiring Target -->
<g id="edge9" class="edge">
<title>Project Offerings&#45;&gt;Hiring Target</title>
<path fill="none" stroke="black" d="M280.5,-632.81C280.5,-624.79 280.5,-615.05 280.5,-606.07"/>
<polygon fill="black" stroke="black" points="284,-606.03 280.5,-596.03 277,-606.03 284,-606.03"/>
<text text-anchor="middle" x="286.84" y="-605.92" font-family="Times-Roman" font-size="14.00">+</text>
</g>
<!-- Bench Engineers -->
<g id="node4" class="node">
<title>Bench Engineers</title>
<text text-anchor="middle" x="241.5" y="-14.3" font-family="Times-Roman" font-size="14.00">Bench Engineers</text>
</g>
<!-- Bench Engineers&#45;&gt;Qualification calls -->
<g id="edge3" class="edge">
<title>Bench Engineers&#45;&gt;Qualification calls</title>
<path fill="none" stroke="black" d="M174.11,-23.1C130.38,-29.84 81.5,-47 81.5,-90 81.5,-652 81.5,-652 81.5,-652 81.5,-666.7 78.97,-682.87 76.23,-696.06"/>
<polygon fill="black" stroke="black" points="72.79,-695.4 74.04,-705.92 79.63,-696.92 72.79,-695.4"/>
<text text-anchor="middle" x="70.8" y="-687.57" font-family="Times-Roman" font-size="14.00">+</text>
</g>
<!-- Team Quality -->
<g id="node5" class="node">
<title>Team Quality</title>
<text text-anchor="middle" x="599.5" y="-393.3" font-family="Times-Roman" font-size="14.00">Team Quality</text>
</g>
<!-- Team Quality&#45;&gt;Closed Deals -->
<g id="edge4" class="edge">
<title>Team Quality&#45;&gt;Closed Deals</title>
<path fill="none" stroke="black" d="M586.79,-415.13C573.78,-432.85 553.16,-461.48 536.5,-487 522.68,-508.18 507.97,-532.85 497.4,-551"/>
<polygon fill="black" stroke="black" points="494.26,-549.44 492.28,-559.84 500.32,-552.95 494.26,-549.44"/>
<text text-anchor="middle" x="493.6" y="-541.2" font-family="Times-Roman" font-size="14.00">+</text>
</g>
<!-- Open Source Contributions -->
<g id="node8" class="node">
<title>Open Source Contributions</title>
<text text-anchor="middle" x="599.5" y="-320.3" font-family="Times-Roman" font-size="14.00">Open Source Contributions</text>
</g>
<!-- Team Quality&#45;&gt;Open Source Contributions -->
<g id="edge6" class="edge">
<title>Team Quality&#45;&gt;Open Source Contributions</title>
<path fill="none" stroke="black" d="M599.5,-378.81C599.5,-370.79 599.5,-361.05 599.5,-352.07"/>
<polygon fill="black" stroke="black" points="603,-352.03 599.5,-342.03 596,-352.03 603,-352.03"/>
<text text-anchor="middle" x="605.84" y="-351.92" font-family="Times-Roman" font-size="14.00">+</text>
</g>
<!-- Failed Project Rate -->
<g id="node14" class="node">
<title>Failed Project Rate</title>
<text text-anchor="middle" x="791.5" y="-320.3" font-family="Times-Roman" font-size="14.00">Failed Project Rate</text>
</g>
<!-- Team Quality&#45;&gt;Failed Project Rate -->
<g id="edge18" class="edge">
<title>Team Quality&#45;&gt;Failed Project Rate</title>
<path fill="none" stroke="black" d="M645.49,-378.99C672.6,-368.97 707.09,-356.21 735.75,-345.62"/>
<polygon fill="black" stroke="black" points="737.06,-348.86 745.22,-342.11 734.63,-342.3 737.06,-348.86"/>
<text text-anchor="middle" x="734.67" y="-349.07" font-family="Times-Roman" font-size="14.00">&#45;</text>
</g>
<!-- Customer Satisfaction -->
<g id="node18" class="node">
<title>Customer Satisfaction</title>
<text text-anchor="middle" x="394.5" y="-320.3" font-family="Times-Roman" font-size="14.00">Customer Satisfaction</text>
</g>
<!-- Team Quality&#45;&gt;Customer Satisfaction -->
<g id="edge27" class="edge">
<title>Team Quality&#45;&gt;Customer Satisfaction</title>
<path fill="none" stroke="black" d="M550.4,-378.99C521.32,-368.92 484.3,-356.1 453.63,-345.48"/>
<polygon fill="black" stroke="black" points="454.51,-342.08 443.91,-342.11 452.22,-348.69 454.51,-342.08"/>
<text text-anchor="middle" x="458.83" y="-336.87" font-family="Times-Roman" font-size="14.00">+</text>
</g>
<!-- Closed Deals&#45;&gt;Bench Engineers -->
<g id="edge15" class="edge">
<title>Closed Deals&#45;&gt;Bench Engineers</title>
<path fill="none" stroke="black" d="M535.53,-574.04C653.94,-566.74 929.5,-545.48 929.5,-506 929.5,-506 929.5,-506 929.5,-90 929.5,-29.19 498.73,-20.16 318.9,-19.04"/>
<polygon fill="black" stroke="black" points="318.74,-15.54 308.72,-18.98 318.7,-22.54 318.74,-15.54"/>
<text text-anchor="middle" x="322.35" y="-9.02" font-family="Times-Roman" font-size="14.00">&#45;</text>
</g>
<!-- Project Engineers -->
<g id="node11" class="node">
<title>Project Engineers</title>
<text text-anchor="middle" x="613.5" y="-501.3" font-family="Times-Roman" font-size="14.00">Project Engineers</text>
</g>
<!-- Closed Deals&#45;&gt;Project Engineers -->
<g id="edge10" class="edge">
<title>Closed Deals&#45;&gt;Project Engineers</title>
<path fill="none" stroke="black" d="M513.88,-559.99C531.57,-550.4 553.87,-538.32 572.89,-528.01"/>
<polygon fill="black" stroke="black" points="574.8,-530.96 581.92,-523.11 571.46,-524.8 574.8,-530.96"/>
<text text-anchor="middle" x="572.99" y="-531.46" font-family="Times-Roman" font-size="14.00">+</text>
</g>
<!-- Accomplished Projects -->
<g id="node13" class="node">
<title>Accomplished Projects</title>
<text text-anchor="middle" x="415.5" y="-447.3" font-family="Times-Roman" font-size="14.00">Accomplished Projects</text>
</g>
<!-- Closed Deals&#45;&gt;Accomplished Projects -->
<g id="edge16" class="edge">
<title>Closed Deals&#45;&gt;Accomplished Projects</title>
<path fill="none" stroke="black" d="M473.32,-559.88C462.06,-538.87 442.84,-503 429.67,-478.44"/>
<polygon fill="black" stroke="black" points="432.59,-476.47 424.78,-469.31 426.42,-479.78 432.59,-476.47"/>
<text text-anchor="middle" x="436.79" y="-474.6" font-family="Times-Roman" font-size="14.00">+</text>
</g>
<!-- Price -->
<g id="node7" class="node">
<title>Price</title>
<text text-anchor="middle" x="482.5" y="-647.3" font-family="Times-Roman" font-size="14.00">Price</text>
</g>
<!-- Price&#45;&gt;Closed Deals -->
<g id="edge5" class="edge">
<title>Price&#45;&gt;Closed Deals</title>
<path fill="none" stroke="black" d="M482.5,-632.81C482.5,-624.79 482.5,-615.05 482.5,-606.07"/>
<polygon fill="black" stroke="black" points="486,-606.03 482.5,-596.03 479,-606.03 486,-606.03"/>
<text text-anchor="middle" x="488.84" y="-605.92" font-family="Times-Roman" font-size="14.00">&#45;</text>
</g>
<!-- Reputation -->
<g id="node9" class="node">
<title>Reputation</title>
<text text-anchor="middle" x="348.5" y="-233.3" font-family="Times-Roman" font-size="14.00">Reputation</text>
</g>
<!-- Open Source Contributions&#45;&gt;Reputation -->
<g id="edge7" class="edge">
<title>Open Source Contributions&#45;&gt;Reputation</title>
<path fill="none" stroke="black" d="M549.01,-305.9C507.08,-291.7 447.52,-271.53 404.21,-256.87"/>
<polygon fill="black" stroke="black" points="405.28,-253.53 394.68,-253.64 403.03,-260.16 405.28,-253.53"/>
<text text-anchor="middle" x="507.5" y="-276.8" font-family="Times-Roman" font-size="14.00">delay</text>
<text text-anchor="middle" x="409.59" y="-248.3" font-family="Times-Roman" font-size="14.00">+</text>
</g>
<!-- Reputation&#45;&gt;Inbound Demand -->
<g id="edge14" class="edge">
<title>Reputation&#45;&gt;Inbound Demand</title>
<path fill="none" stroke="black" d="M302.36,-240.21C248.73,-245.55 167.5,-263.46 167.5,-323 167.5,-725 167.5,-725 167.5,-725 167.5,-742.61 157.16,-759.02 145.98,-771.62"/>
<polygon fill="black" stroke="black" points="143.36,-769.3 139,-778.95 148.43,-774.13 143.36,-769.3"/>
<text text-anchor="middle" x="143.79" y="-761.04" font-family="Times-Roman" font-size="14.00">+</text>
</g>
<!-- Reputation&#45;&gt;Closed Deals -->
<g id="edge12" class="edge">
<title>Reputation&#45;&gt;Closed Deals</title>
<path fill="none" stroke="black" d="M302.45,-254.75C274.23,-268.3 243.5,-290.52 243.5,-323 243.5,-506 243.5,-506 243.5,-506 243.5,-542.72 348.47,-561.95 419.28,-570.75"/>
<polygon fill="black" stroke="black" points="419.11,-574.25 429.46,-571.97 419.95,-567.3 419.11,-574.25"/>
<text text-anchor="middle" x="415.2" y="-572.94" font-family="Times-Roman" font-size="14.00">+</text>
</g>
<!-- Candidate Number -->
<g id="node12" class="node">
<title>Candidate Number</title>
<text text-anchor="middle" x="319.5" y="-160.3" font-family="Times-Roman" font-size="14.00">Candidate Number</text>
</g>
<!-- Reputation&#45;&gt;Candidate Number -->
<g id="edge13" class="edge">
<title>Reputation&#45;&gt;Candidate Number</title>
<path fill="none" stroke="black" d="M341.48,-218.81C338.13,-210.62 334.05,-200.62 330.32,-191.48"/>
<polygon fill="black" stroke="black" points="333.48,-189.96 326.46,-182.03 327,-192.61 333.48,-189.96"/>
<text text-anchor="middle" x="337.46" y="-188.52" font-family="Times-Roman" font-size="14.00">+</text>
</g>
<!-- Candidate Quality -->
<g id="node17" class="node">
<title>Candidate Quality</title>
<text text-anchor="middle" x="654.5" y="-160.3" font-family="Times-Roman" font-size="14.00">Candidate Quality</text>
</g>
<!-- Reputation&#45;&gt;Candidate Quality -->
<g id="edge26" class="edge">
<title>Reputation&#45;&gt;Candidate Quality</title>
<path fill="none" stroke="black" d="M394.64,-225.29C441.97,-214.31 516.55,-197.01 573.7,-183.75"/>
<polygon fill="black" stroke="black" points="574.84,-187.08 583.79,-181.41 573.26,-180.26 574.84,-187.08"/>
<text text-anchor="middle" x="571.98" y="-186.95" font-family="Times-Roman" font-size="14.00">+</text>
</g>
<!-- Hiring Number -->
<g id="node15" class="node">
<title>Hiring Number</title>
<text text-anchor="middle" x="241.5" y="-87.3" font-family="Times-Roman" font-size="14.00">Hiring Number</text>
</g>
<!-- Hiring Target&#45;&gt;Hiring Number -->
<g id="edge22" class="edge">
<title>Hiring Target&#45;&gt;Hiring Number</title>
<path fill="none" stroke="black" d="M244.76,-559.82C225.44,-547.8 205.5,-529.67 205.5,-506 205.5,-506 205.5,-506 205.5,-163 205.5,-146.72 213.12,-130.38 221.36,-117.5"/>
<polygon fill="black" stroke="black" points="224.3,-119.39 227.06,-109.17 218.52,-115.44 224.3,-119.39"/>
<text text-anchor="middle" x="224.61" y="-120.26" font-family="Times-Roman" font-size="14.00">+</text>
</g>
<!-- Hiring Quality -->
<g id="node16" class="node">
<title>Hiring Quality</title>
<text text-anchor="middle" x="328.5" y="-501.3" font-family="Times-Roman" font-size="14.00">Hiring Quality</text>
</g>
<!-- Hiring Target&#45;&gt;Hiring Quality -->
<g id="edge23" class="edge">
<title>Hiring Target&#45;&gt;Hiring Quality</title>
<path fill="none" stroke="black" d="M292.12,-559.81C297.9,-551.27 304.99,-540.77 311.38,-531.32"/>
<polygon fill="black" stroke="black" points="314.29,-533.27 316.99,-523.03 308.49,-529.35 314.29,-533.27"/>
<text text-anchor="middle" x="314.63" y="-534.14" font-family="Times-Roman" font-size="14.00">&#45;</text>
</g>
<!-- Project Engineers&#45;&gt;Team Quality -->
<g id="edge11" class="edge">
<title>Project Engineers&#45;&gt;Team Quality</title>
<path fill="none" stroke="black" d="M611.25,-486.97C609.06,-470.38 605.69,-444.88 603.12,-425.43"/>
<polygon fill="black" stroke="black" points="606.57,-424.8 601.79,-415.34 599.63,-425.71 606.57,-424.8"/>
<text text-anchor="middle" x="627.5" y="-447.3" font-family="Times-Roman" font-size="14.00">delay</text>
<text text-anchor="middle" x="609.86" y="-424.29" font-family="Times-Roman" font-size="14.00">+</text>
</g>
<!-- Candidate Number&#45;&gt;Hiring Number -->
<g id="edge25" class="edge">
<title>Candidate Number&#45;&gt;Hiring Number</title>
<path fill="none" stroke="black" d="M300.62,-145.81C290.75,-136.83 278.52,-125.69 267.74,-115.89"/>
<polygon fill="black" stroke="black" points="269.96,-113.17 260.21,-109.03 265.25,-118.35 269.96,-113.17"/>
<text text-anchor="middle" x="274.53" y="-109.79" font-family="Times-Roman" font-size="14.00">+</text>
</g>
<!-- Accomplished Projects&#45;&gt;Reputation -->
<g id="edge17" class="edge">
<title>Accomplished Projects&#45;&gt;Reputation</title>
<path fill="none" stroke="black" d="M386.72,-432.97C358.73,-414.55 317.96,-382.34 300.5,-342 288.72,-314.77 306.97,-283.96 324.25,-262.98"/>
<polygon fill="black" stroke="black" points="327.11,-265.03 331.01,-255.18 321.82,-260.45 327.11,-265.03"/>
<text text-anchor="middle" x="326.9" y="-265.91" font-family="Times-Roman" font-size="14.00">+</text>
</g>
<!-- Failed Project Rate&#45;&gt;Reputation -->
<g id="edge19" class="edge">
<title>Failed Project Rate&#45;&gt;Reputation</title>
<path fill="none" stroke="black" d="M719.96,-307.9C716.77,-307.25 713.6,-306.62 710.5,-306 602.45,-284.52 475.89,-261.15 404.66,-248.17"/>
<polygon fill="black" stroke="black" points="405.03,-244.68 394.56,-246.33 403.77,-251.56 405.03,-244.68"/>
<text text-anchor="middle" x="409.07" y="-238.83" font-family="Times-Roman" font-size="14.00">&#45;</text>
</g>
<!-- Hiring Number&#45;&gt;Bench Engineers -->
<g id="edge20" class="edge">
<title>Hiring Number&#45;&gt;Bench Engineers</title>
<path fill="none" stroke="black" d="M241.5,-72.81C241.5,-64.79 241.5,-55.05 241.5,-46.07"/>
<polygon fill="black" stroke="black" points="245,-46.03 241.5,-36.03 238,-46.03 245,-46.03"/>
<text text-anchor="middle" x="247.84" y="-45.92" font-family="Times-Roman" font-size="14.00">+</text>
</g>
<!-- Hiring Quality&#45;&gt;Team Quality -->
<g id="edge21" class="edge">
<title>Hiring Quality&#45;&gt;Team Quality</title>
<path fill="none" stroke="black" d="M322.77,-486.88C318.62,-470.95 315.72,-447.53 328.5,-433 341.96,-417.69 459.56,-407.16 535.35,-401.89"/>
<polygon fill="black" stroke="black" points="536.02,-405.35 545.75,-401.18 535.54,-398.37 536.02,-405.35"/>
<text text-anchor="middle" x="532.62" y="-404.73" font-family="Times-Roman" font-size="14.00">&#45;</text>
</g>
<!-- Candidate Quality&#45;&gt;Team Quality -->
<g id="edge24" class="edge">
<title>Candidate Quality&#45;&gt;Team Quality</title>
<path fill="none" stroke="black" d="M708.38,-182.1C790.03,-210.74 929.83,-272.22 872.5,-342 846.56,-373.58 735.67,-387 663.45,-392.48"/>
<polygon fill="black" stroke="black" points="662.81,-389.01 653.09,-393.23 663.32,-395.99 662.81,-389.01"/>
<text text-anchor="middle" x="666.19" y="-382.22" font-family="Times-Roman" font-size="14.00">+</text>
</g>
<!-- Customer Satisfaction&#45;&gt;Reputation -->
<g id="edge28" class="edge">
<title>Customer Satisfaction&#45;&gt;Reputation</title>
<path fill="none" stroke="black" d="M385.19,-305.8C378.71,-293.82 369.94,-277.62 362.6,-264.06"/>
<polygon fill="black" stroke="black" points="365.63,-262.3 357.79,-255.18 359.48,-265.64 365.63,-262.3"/>
<text text-anchor="middle" x="369.84" y="-260.41" font-family="Times-Roman" font-size="14.00">+</text>
</g>
</g>
</svg>
