<?xml version="1.0" encoding="UTF-8" standalone="no"?>
<!DOCTYPE svg PUBLIC "-//W3C//DTD SVG 1.1//EN"
 "http://www.w3.org/Graphics/SVG/1.1/DTD/svg11.dtd">
<!-- Generated by graphviz version 2.43.0 (0)
 -->
<!-- Title: mygraph Pages: 1 -->
<svg width="697pt" height="476pt"
 viewBox="0.00 0.00 696.82 476.00" xmlns="http://www.w3.org/2000/svg" xmlns:xlink="http://www.w3.org/1999/xlink">
<g id="graph0" class="graph" transform="scale(1 1) rotate(0) translate(4 472)">
<title>mygraph</title>
<polygon fill="white" stroke="transparent" points="-4,4 -4,-472 692.82,-472 692.82,4 -4,4"/>
<!-- Inbound Demand -->
<g id="node1" class="node">
<title>Inbound Demand</title>
<text text-anchor="middle" x="141" y="-302.3" font-family="Times-Roman" font-size="14.00">Inbound Demand</text>
</g>
<!-- Qualification calls -->
<g id="node2" class="node">
<title>Qualification calls</title>
<text text-anchor="middle" x="141" y="-230.3" font-family="Times-Roman" font-size="14.00">Qualification calls</text>
</g>
<!-- Inbound Demand&#45;&gt;Qualification calls -->
<g id="edge1" class="edge">
<title>Inbound Demand&#45;&gt;Qualification calls</title>
<path fill="none" stroke="black" d="M141,-287.7C141,-279.98 141,-270.71 141,-262.11"/>
<polygon fill="black" stroke="black" points="144.5,-262.1 141,-252.1 137.5,-262.1 144.5,-262.1"/>
<text text-anchor="middle" x="147.34" y="-262" font-family="Times-Roman" font-size="14.00">+</text>
</g>
<!-- Project offerings -->
<g id="node3" class="node">
<title>Project offerings</title>
<text text-anchor="middle" x="160" y="-158.3" font-family="Times-Roman" font-size="14.00">Project offerings</text>
</g>
<!-- Qualification calls&#45;&gt;Project offerings -->
<g id="edge2" class="edge">
<title>Qualification calls&#45;&gt;Project offerings</title>
<path fill="none" stroke="black" d="M145.7,-215.7C147.81,-207.9 150.36,-198.51 152.72,-189.83"/>
<polygon fill="black" stroke="black" points="156.12,-190.67 155.36,-180.1 149.36,-188.84 156.12,-190.67"/>
<text text-anchor="middle" x="157.91" y="-191.18" font-family="Times-Roman" font-size="14.00">+</text>
</g>
<!-- Closed deals -->
<g id="node6" class="node">
<title>Closed deals</title>
<text text-anchor="middle" x="190" y="-86.3" font-family="Times-Roman" font-size="14.00">Closed deals</text>
</g>
<!-- Project offerings&#45;&gt;Closed deals -->
<g id="edge7" class="edge">
<title>Project offerings&#45;&gt;Closed deals</title>
<path fill="none" stroke="black" d="M167.42,-143.7C170.79,-135.81 174.87,-126.3 178.62,-117.55"/>
<polygon fill="black" stroke="black" points="181.95,-118.67 182.67,-108.1 175.51,-115.92 181.95,-118.67"/>
<text text-anchor="middle" x="183.14" y="-119.4" font-family="Times-Roman" font-size="14.00">+</text>
</g>
<!-- Bench Engineers -->
<g id="node4" class="node">
<title>Bench Engineers</title>
<text text-anchor="middle" x="67" y="-14.3" font-family="Times-Roman" font-size="14.00">Bench Engineers</text>
</g>
<!-- Bench Engineers&#45;&gt;Qualification calls -->
<g id="edge3" class="edge">
<title>Bench Engineers&#45;&gt;Qualification calls</title>
<path fill="none" stroke="black" d="M65.4,-36.03C63.28,-66.62 62.23,-132.1 86,-180 91.43,-190.93 100.06,-200.85 108.89,-209.08"/>
<polygon fill="black" stroke="black" points="106.8,-211.9 116.63,-215.85 111.41,-206.63 106.8,-211.9"/>
<text text-anchor="middle" x="102.23" y="-207.97" font-family="Times-Roman" font-size="14.00">+</text>
</g>
<!-- Bench Engineers&#45;&gt;Closed deals -->
<g id="edge8" class="edge">
<title>Bench Engineers&#45;&gt;Closed deals</title>
<path fill="none" stroke="black" d="M103.11,-36.19C120.16,-45.35 140.31,-56.74 156.96,-66.59"/>
<polygon fill="black" stroke="black" points="155.43,-69.75 165.81,-71.88 159.02,-63.74 155.43,-69.75"/>
<text text-anchor="middle" x="150.89" y="-66.64" font-family="Times-Roman" font-size="14.00">+</text>
</g>
<!-- Bench Quality -->
<g id="node5" class="node">
<title>Bench Quality</title>
<text text-anchor="middle" x="383" y="-374.3" font-family="Times-Roman" font-size="14.00">Bench Quality</text>
</g>
<!-- Bench Quality&#45;&gt;Closed deals -->
<g id="edge4" class="edge">
<title>Bench Quality&#45;&gt;Closed deals</title>
<path fill="none" stroke="black" d="M363.65,-359.71C339.33,-337.07 297.66,-295.16 272,-252 245.92,-208.13 258.09,-188.44 233,-144 227.44,-134.15 220.04,-124.27 212.95,-115.76"/>
<polygon fill="black" stroke="black" points="215.5,-113.36 206.32,-108.06 210.2,-117.93 215.5,-113.36"/>
<text text-anchor="middle" x="220" y="-110.53" font-family="Times-Roman" font-size="14.00">+</text>
</g>
<!-- Open Source Contributions -->
<g id="node7" class="node">
<title>Open Source Contributions</title>
<text text-anchor="middle" x="383" y="-230.3" font-family="Times-Roman" font-size="14.00">Open Source Contributions</text>
</g>
<!-- Bench Quality&#45;&gt;Open Source Contributions -->
<g id="edge5" class="edge">
<title>Bench Quality&#45;&gt;Open Source Contributions</title>
<path fill="none" stroke="black" d="M383,-359.87C383,-335.67 383,-291.21 383,-262.39"/>
<polygon fill="black" stroke="black" points="386.5,-262.19 383,-252.19 379.5,-262.19 386.5,-262.19"/>
<text text-anchor="middle" x="389.34" y="-262.08" font-family="Times-Roman" font-size="14.00">+</text>
</g>
<!-- Team Quality -->
<g id="node12" class="node">
<title>Team Quality</title>
<text text-anchor="middle" x="527" y="-302.3" font-family="Times-Roman" font-size="14.00">Team Quality</text>
</g>
<!-- Bench Quality&#45;&gt;Team Quality -->
<g id="edge16" class="edge">
<title>Bench Quality&#45;&gt;Team Quality</title>
<path fill="none" stroke="black" d="M418.23,-359.88C437.58,-350.47 461.77,-338.71 482.43,-328.67"/>
<polygon fill="black" stroke="black" points="484.17,-331.71 491.64,-324.19 481.11,-325.41 484.17,-331.71"/>
<text text-anchor="middle" x="482.18" y="-332.13" font-family="Times-Roman" font-size="14.00">+</text>
</g>
<!-- Closed deals&#45;&gt;Bench Engineers -->
<g id="edge11" class="edge">
<title>Closed deals&#45;&gt;Bench Engineers</title>
<path fill="none" stroke="black" d="M154.01,-71.88C136.97,-62.72 116.82,-51.34 100.16,-41.48"/>
<polygon fill="black" stroke="black" points="101.68,-38.32 91.3,-36.19 98.09,-44.33 101.68,-38.32"/>
<text text-anchor="middle" x="106.22" y="-34.02" font-family="Times-Roman" font-size="14.00">&#45;</text>
</g>
<!-- Project Engineers -->
<g id="node9" class="node">
<title>Project Engineers</title>
<text text-anchor="middle" x="221" y="-14.3" font-family="Times-Roman" font-size="14.00">Project Engineers</text>
</g>
<!-- Closed deals&#45;&gt;Project Engineers -->
<g id="edge9" class="edge">
<title>Closed deals&#45;&gt;Project Engineers</title>
<path fill="none" stroke="black" d="M197.66,-71.7C201.19,-63.73 205.46,-54.1 209.37,-45.26"/>
<polygon fill="black" stroke="black" points="212.58,-46.67 213.43,-36.1 206.18,-43.83 212.58,-46.67"/>
<text text-anchor="middle" x="213.72" y="-47.4" font-family="Times-Roman" font-size="14.00">+</text>
</g>
<!-- Reputation -->
<g id="node8" class="node">
<title>Reputation</title>
<text text-anchor="middle" x="485" y="-158.3" font-family="Times-Roman" font-size="14.00">Reputation</text>
</g>
<!-- Open Source Contributions&#45;&gt;Reputation -->
<g id="edge6" class="edge">
<title>Open Source Contributions&#45;&gt;Reputation</title>
<path fill="none" stroke="black" d="M407.95,-215.88C421.04,-206.89 437.26,-195.76 451.44,-186.03"/>
<polygon fill="black" stroke="black" points="453.69,-188.73 459.95,-180.19 449.73,-182.96 453.69,-188.73"/>
<text text-anchor="middle" x="452.33" y="-189.41" font-family="Times-Roman" font-size="14.00">+</text>
</g>
<!-- Reputation&#45;&gt;Closed deals -->
<g id="edge10" class="edge">
<title>Reputation&#45;&gt;Closed deals</title>
<path fill="none" stroke="black" d="M438.91,-150.06C388.61,-138.13 307.83,-118.96 252,-105.71"/>
<polygon fill="black" stroke="black" points="252.77,-102.3 242.23,-103.39 251.15,-109.11 252.77,-102.3"/>
<text text-anchor="middle" x="256.92" y="-96.66" font-family="Times-Roman" font-size="14.00">+</text>
</g>
<!-- Candidate Quality -->
<g id="node11" class="node">
<title>Candidate Quality</title>
<text text-anchor="middle" x="593" y="-86.3" font-family="Times-Roman" font-size="14.00">Candidate Quality</text>
</g>
<!-- Reputation&#45;&gt;Candidate Quality -->
<g id="edge15" class="edge">
<title>Reputation&#45;&gt;Candidate Quality</title>
<path fill="none" stroke="black" d="M511.42,-143.88C525.41,-134.81 542.78,-123.55 557.89,-113.76"/>
<polygon fill="black" stroke="black" points="559.99,-116.57 566.48,-108.19 556.18,-110.69 559.99,-116.57"/>
<text text-anchor="middle" x="558.52" y="-117.2" font-family="Times-Roman" font-size="14.00">+</text>
</g>
<!-- Hiring Number -->
<g id="node10" class="node">
<title>Hiring Number</title>
<text text-anchor="middle" x="206" y="-446.3" font-family="Times-Roman" font-size="14.00">Hiring Number</text>
</g>
<!-- Hiring Number&#45;&gt;Bench Engineers -->
<g id="edge12" class="edge">
<title>Hiring Number&#45;&gt;Bench Engineers</title>
<path fill="none" stroke="black" d="M152.89,-431.82C100.76,-411.22 29,-371.22 29,-307 29,-307 29,-307 29,-161 29,-119.63 44.23,-73.72 55.41,-45.61"/>
<polygon fill="black" stroke="black" points="58.76,-46.67 59.31,-36.09 52.28,-44.02 58.76,-46.67"/>
<text text-anchor="middle" x="60.02" y="-47.38" font-family="Times-Roman" font-size="14.00">+</text>
</g>
<!-- Hiring Number&#45;&gt;Bench Quality -->
<g id="edge13" class="edge">
<title>Hiring Number&#45;&gt;Bench Quality</title>
<path fill="none" stroke="black" d="M249.3,-431.88C273.71,-422.22 304.4,-410.09 330.21,-399.88"/>
<polygon fill="black" stroke="black" points="331.83,-403 339.84,-396.07 329.26,-396.49 331.83,-403"/>
<text text-anchor="middle" x="329.53" y="-403.26" font-family="Times-Roman" font-size="14.00">&#45;</text>
</g>
<!-- Candidate Quality&#45;&gt;Bench Quality -->
<g id="edge14" class="edge">
<title>Candidate Quality&#45;&gt;Bench Quality</title>
<path fill="none" stroke="black" d="M614.61,-108.08C648.61,-137.15 708.16,-198.31 682,-252 640.69,-336.78 525.3,-364.13 450.54,-372.91"/>
<polygon fill="black" stroke="black" points="449.83,-369.46 440.27,-374.03 450.59,-376.42 449.83,-369.46"/>
<text text-anchor="middle" x="453.1" y="-362.55" font-family="Times-Roman" font-size="14.00">+</text>
</g>
<!-- Customer Satisfaction -->
<g id="node13" class="node">
<title>Customer Satisfaction</title>
<text text-anchor="middle" x="588" y="-230.3" font-family="Times-Roman" font-size="14.00">Customer Satisfaction</text>
</g>
<!-- Team Quality&#45;&gt;Customer Satisfaction -->
<g id="edge17" class="edge">
<title>Team Quality&#45;&gt;Customer Satisfaction</title>
<path fill="none" stroke="black" d="M542.08,-287.7C549.39,-279.3 558.31,-269.07 566.34,-259.86"/>
<polygon fill="black" stroke="black" points="569.16,-261.94 573.09,-252.1 563.89,-257.34 569.16,-261.94"/>
<text text-anchor="middle" x="568.94" y="-262.82" font-family="Times-Roman" font-size="14.00">+</text>
</g>
<!-- Customer Satisfaction&#45;&gt;Reputation -->
<g id="edge18" class="edge">
<title>Customer Satisfaction&#45;&gt;Reputation</title>
<path fill="none" stroke="black" d="M562.8,-215.88C549.59,-206.89 533.21,-195.76 518.89,-186.03"/>
<polygon fill="black" stroke="black" points="520.53,-182.92 510.29,-180.19 516.6,-188.71 520.53,-182.92"/>
<text text-anchor="middle" x="525.1" y="-178.89" font-family="Times-Roman" font-size="14.00">+</text>
</g>
</g>
</svg>
