<?xml version="1.0" encoding="UTF-8" standalone="no"?>
<!DOCTYPE svg PUBLIC "-//W3C//DTD SVG 1.1//EN"
 "http://www.w3.org/Graphics/SVG/1.1/DTD/svg11.dtd">
<!-- Generated by graphviz version 2.43.0 (0)
 -->
<!-- Title: mygraph Pages: 1 -->
<svg width="497pt" height="332pt"
 viewBox="0.00 0.00 496.50 332.00" xmlns="http://www.w3.org/2000/svg" xmlns:xlink="http://www.w3.org/1999/xlink">
<g id="graph0" class="graph" transform="scale(1 1) rotate(0) translate(4 328)">
<title>mygraph</title>
<polygon fill="white" stroke="transparent" points="-4,4 -4,-328 492.5,-328 492.5,4 -4,4"/>
<!-- Inbound Demand -->
<g id="node1" class="node">
<title>Inbound Demand</title>
<text text-anchor="middle" x="420" y="-302.3" font-family="Times-Roman" font-size="14.00">Inbound Demand</text>
</g>
<!-- Opportunity Rate -->
<g id="node2" class="node">
<title>Opportunity Rate</title>
<text text-anchor="middle" x="291" y="-230.3" font-family="Times-Roman" font-size="14.00">Opportunity Rate</text>
</g>
<!-- Inbound Demand&#45;&gt;Opportunity Rate -->
<g id="edge1" class="edge">
<title>Inbound Demand&#45;&gt;Opportunity Rate</title>
<path fill="none" stroke="black" d="M388.44,-287.88C371.34,-278.6 350.02,-267.03 331.68,-257.08"/>
<polygon fill="black" stroke="black" points="333.14,-253.88 322.68,-252.19 329.8,-260.04 333.14,-253.88"/>
<text text-anchor="middle" x="337.65" y="-249.4" font-family="Times-Roman" font-size="14.00">+</text>
</g>
<!-- Closed Deal Rate -->
<g id="node4" class="node">
<title>Closed Deal Rate</title>
<text text-anchor="middle" x="213" y="-158.3" font-family="Times-Roman" font-size="14.00">Closed Deal Rate</text>
</g>
<!-- Opportunity Rate&#45;&gt;Closed Deal Rate -->
<g id="edge3" class="edge">
<title>Opportunity Rate&#45;&gt;Closed Deal Rate</title>
<path fill="none" stroke="black" d="M271.72,-215.7C262.08,-207.05 250.27,-196.45 239.77,-187.03"/>
<polygon fill="black" stroke="black" points="241.84,-184.18 232.06,-180.1 237.16,-189.39 241.84,-184.18"/>
<text text-anchor="middle" x="246.41" y="-180.77" font-family="Times-Roman" font-size="14.00">+</text>
</g>
<!-- Outbound Demand -->
<g id="node3" class="node">
<title>Outbound Demand</title>
<text text-anchor="middle" x="259" y="-302.3" font-family="Times-Roman" font-size="14.00">Outbound Demand</text>
</g>
<!-- Outbound Demand&#45;&gt;Opportunity Rate -->
<g id="edge2" class="edge">
<title>Outbound Demand&#45;&gt;Opportunity Rate</title>
<path fill="none" stroke="black" d="M266.91,-287.7C270.55,-279.73 274.95,-270.1 278.99,-261.26"/>
<polygon fill="black" stroke="black" points="282.21,-262.65 283.18,-252.1 275.84,-259.74 282.21,-262.65"/>
<text text-anchor="middle" x="283.29" y="-263.4" font-family="Times-Roman" font-size="14.00">+</text>
</g>
<!-- Accomplished Project Rate -->
<g id="node7" class="node">
<title>Accomplished Project Rate</title>
<text text-anchor="middle" x="292" y="-86.3" font-family="Times-Roman" font-size="14.00">Accomplished Project Rate</text>
</g>
<!-- Closed Deal Rate&#45;&gt;Accomplished Project Rate -->
<g id="edge6" class="edge">
<title>Closed Deal Rate&#45;&gt;Accomplished Project Rate</title>
<path fill="none" stroke="black" d="M232.53,-143.7C242.38,-134.97 254.49,-124.24 265.2,-114.75"/>
<polygon fill="black" stroke="black" points="267.53,-117.36 272.7,-108.1 262.89,-112.12 267.53,-117.36"/>
<text text-anchor="middle" x="266.73" y="-118.16" font-family="Times-Roman" font-size="14.00">+</text>
</g>
<!-- Revenue -->
<g id="node8" class="node">
<title>Revenue</title>
<text text-anchor="middle" x="135" y="-86.3" font-family="Times-Roman" font-size="14.00">Revenue</text>
</g>
<!-- Closed Deal Rate&#45;&gt;Revenue -->
<g id="edge7" class="edge">
<title>Closed Deal Rate&#45;&gt;Revenue</title>
<path fill="none" stroke="black" d="M193.72,-143.7C184.08,-135.05 172.27,-124.45 161.77,-115.03"/>
<polygon fill="black" stroke="black" points="163.84,-112.18 154.06,-108.1 159.16,-117.39 163.84,-112.18"/>
<text text-anchor="middle" x="168.41" y="-108.77" font-family="Times-Roman" font-size="14.00">+</text>
</g>
<!-- Team Size -->
<g id="node5" class="node">
<title>Team Size</title>
<text text-anchor="middle" x="95" y="-302.3" font-family="Times-Roman" font-size="14.00">Team Size</text>
</g>
<!-- Team Availability -->
<g id="node6" class="node">
<title>Team Availability</title>
<text text-anchor="middle" x="66" y="-230.3" font-family="Times-Roman" font-size="14.00">Team Availability</text>
</g>
<!-- Team Size&#45;&gt;Team Availability -->
<g id="edge4" class="edge">
<title>Team Size&#45;&gt;Team Availability</title>
<path fill="none" stroke="black" d="M87.83,-287.7C84.57,-279.81 80.63,-270.3 77,-261.55"/>
<polygon fill="black" stroke="black" points="80.15,-260 73.09,-252.1 73.68,-262.68 80.15,-260"/>
<text text-anchor="middle" x="84.15" y="-258.54" font-family="Times-Roman" font-size="14.00">+</text>
</g>
<!-- Cost -->
<g id="node9" class="node">
<title>Cost</title>
<text text-anchor="middle" x="177" y="-230.3" font-family="Times-Roman" font-size="14.00">Cost</text>
</g>
<!-- Team Size&#45;&gt;Cost -->
<g id="edge8" class="edge">
<title>Team Size&#45;&gt;Cost</title>
<path fill="none" stroke="black" d="M115.27,-287.7C125.5,-278.97 138.06,-268.24 149.18,-258.75"/>
<polygon fill="black" stroke="black" points="151.63,-261.26 156.96,-252.1 147.09,-255.94 151.63,-261.26"/>
<text text-anchor="middle" x="150.74" y="-262.05" font-family="Times-Roman" font-size="14.00">+</text>
</g>
<!-- Team Availability&#45;&gt;Closed Deal Rate -->
<g id="edge5" class="edge">
<title>Team Availability&#45;&gt;Closed Deal Rate</title>
<path fill="none" stroke="black" d="M101.96,-215.88C121.88,-206.39 146.82,-194.51 168.02,-184.42"/>
<polygon fill="black" stroke="black" points="169.63,-187.53 177.16,-180.07 166.62,-181.21 169.63,-187.53"/>
<text text-anchor="middle" x="167.61" y="-187.94" font-family="Times-Roman" font-size="14.00">+</text>
</g>
<!-- Customer Satisfaction -->
<g id="node10" class="node">
<title>Customer Satisfaction</title>
<text text-anchor="middle" x="356" y="-14.3" font-family="Times-Roman" font-size="14.00">Customer Satisfaction</text>
</g>
<!-- Accomplished Project Rate&#45;&gt;Customer Satisfaction -->
<g id="edge9" class="edge">
<title>Accomplished Project Rate&#45;&gt;Customer Satisfaction</title>
<path fill="none" stroke="black" d="M307.82,-71.7C315.57,-63.22 325.04,-52.86 333.52,-43.58"/>
<polygon fill="black" stroke="black" points="336.2,-45.85 340.36,-36.1 331.03,-41.12 336.2,-45.85"/>
<text text-anchor="middle" x="335.87" y="-46.72" font-family="Times-Roman" font-size="14.00">+</text>
</g>
<!-- Customer Satisfaction&#45;&gt;Inbound Demand -->
<g id="edge10" class="edge">
<title>Customer Satisfaction&#45;&gt;Inbound Demand</title>
<path fill="none" stroke="black" d="M375.45,-36.18C384.88,-45.72 395.37,-58.39 401,-72 429.84,-141.63 426.84,-232.84 423.01,-277.68"/>
<polygon fill="black" stroke="black" points="419.51,-277.51 422.07,-287.79 426.48,-278.16 419.51,-277.51"/>
<text text-anchor="middle" x="417.02" y="-269.97" font-family="Times-Roman" font-size="14.00">+</text>
</g>
</g>
</svg>
