<?xml version="1.0" encoding="UTF-8" standalone="no"?>
<!DOCTYPE svg PUBLIC "-//W3C//DTD SVG 1.1//EN"
 "http://www.w3.org/Graphics/SVG/1.1/DTD/svg11.dtd">
<!-- Generated by graphviz version 2.43.0 (0)
 -->
<!-- Title: mygraph Pages: 1 -->
<svg width="401pt" height="332pt"
 viewBox="0.00 0.00 400.50 332.00" xmlns="http://www.w3.org/2000/svg" xmlns:xlink="http://www.w3.org/1999/xlink">
<g id="graph0" class="graph" transform="scale(1 1) rotate(0) translate(4 328)">
<title>mygraph</title>
<polygon fill="white" stroke="transparent" points="-4,4 -4,-328 396.5,-328 396.5,4 -4,4"/>
<!-- Inbound Demand -->
<g id="node1" class="node">
<title>Inbound Demand</title>
<text text-anchor="middle" x="324" y="-302.3" font-family="Times-Roman" font-size="14.00">Inbound Demand</text>
</g>
<!-- Opportunity Rate -->
<g id="node2" class="node">
<title>Opportunity Rate</title>
<text text-anchor="middle" x="195" y="-230.3" font-family="Times-Roman" font-size="14.00">Opportunity Rate</text>
</g>
<!-- Inbound Demand&#45;&gt;Opportunity Rate -->
<g id="edge1" class="edge">
<title>Inbound Demand&#45;&gt;Opportunity Rate</title>
<path fill="none" stroke="black" d="M292.44,-287.88C275.34,-278.6 254.02,-267.03 235.68,-257.08"/>
<polygon fill="black" stroke="black" points="237.14,-253.88 226.68,-252.19 233.8,-260.04 237.14,-253.88"/>
<text text-anchor="middle" x="241.65" y="-249.4" font-family="Times-Roman" font-size="14.00">+</text>
</g>
<!-- Closed Deal Rate -->
<g id="node4" class="node">
<title>Closed Deal Rate</title>
<text text-anchor="middle" x="195" y="-158.3" font-family="Times-Roman" font-size="14.00">Closed Deal Rate</text>
</g>
<!-- Opportunity Rate&#45;&gt;Closed Deal Rate -->
<g id="edge3" class="edge">
<title>Opportunity Rate&#45;&gt;Closed Deal Rate</title>
<path fill="none" stroke="black" d="M195,-215.7C195,-207.98 195,-198.71 195,-190.11"/>
<polygon fill="black" stroke="black" points="198.5,-190.1 195,-180.1 191.5,-190.1 198.5,-190.1"/>
<text text-anchor="middle" x="201.34" y="-190" font-family="Times-Roman" font-size="14.00">+</text>
</g>
<!-- Outbound Demand -->
<g id="node3" class="node">
<title>Outbound Demand</title>
<text text-anchor="middle" x="163" y="-302.3" font-family="Times-Roman" font-size="14.00">Outbound Demand</text>
</g>
<!-- Outbound Demand&#45;&gt;Opportunity Rate -->
<g id="edge2" class="edge">
<title>Outbound Demand&#45;&gt;Opportunity Rate</title>
<path fill="none" stroke="black" d="M170.91,-287.7C174.55,-279.73 178.95,-270.1 182.99,-261.26"/>
<polygon fill="black" stroke="black" points="186.21,-262.65 187.18,-252.1 179.84,-259.74 186.21,-262.65"/>
<text text-anchor="middle" x="187.29" y="-263.4" font-family="Times-Roman" font-size="14.00">+</text>
</g>
<!-- Accomplished Project Rate -->
<g id="node5" class="node">
<title>Accomplished Project Rate</title>
<text text-anchor="middle" x="100" y="-86.3" font-family="Times-Roman" font-size="14.00">Accomplished Project Rate</text>
</g>
<!-- Closed Deal Rate&#45;&gt;Accomplished Project Rate -->
<g id="edge4" class="edge">
<title>Closed Deal Rate&#45;&gt;Accomplished Project Rate</title>
<path fill="none" stroke="black" d="M171.52,-143.7C159.44,-134.8 144.55,-123.82 131.48,-114.2"/>
<polygon fill="black" stroke="black" points="133.34,-111.22 123.21,-108.1 129.19,-116.85 133.34,-111.22"/>
<text text-anchor="middle" x="137.92" y="-107.37" font-family="Times-Roman" font-size="14.00">+</text>
</g>
<!-- Revenue -->
<g id="node6" class="node">
<title>Revenue</title>
<text text-anchor="middle" x="257" y="-86.3" font-family="Times-Roman" font-size="14.00">Revenue</text>
</g>
<!-- Closed Deal Rate&#45;&gt;Revenue -->
<g id="edge5" class="edge">
<title>Closed Deal Rate&#45;&gt;Revenue</title>
<path fill="none" stroke="black" d="M210.33,-143.7C217.76,-135.3 226.82,-125.07 234.98,-115.86"/>
<polygon fill="black" stroke="black" points="237.84,-117.91 241.85,-108.1 232.6,-113.27 237.84,-117.91"/>
<text text-anchor="middle" x="237.58" y="-118.78" font-family="Times-Roman" font-size="14.00">+</text>
</g>
<!-- Customer Satisfaction -->
<g id="node7" class="node">
<title>Customer Satisfaction</title>
<text text-anchor="middle" x="212" y="-14.3" font-family="Times-Roman" font-size="14.00">Customer Satisfaction</text>
</g>
<!-- Accomplished Project Rate&#45;&gt;Customer Satisfaction -->
<g id="edge6" class="edge">
<title>Accomplished Project Rate&#45;&gt;Customer Satisfaction</title>
<path fill="none" stroke="black" d="M127.4,-71.88C141.91,-62.81 159.92,-51.55 175.59,-41.76"/>
<polygon fill="black" stroke="black" points="177.87,-44.46 184.5,-36.19 174.16,-38.52 177.87,-44.46"/>
<text text-anchor="middle" x="176.33" y="-45.07" font-family="Times-Roman" font-size="14.00">+</text>
</g>
<!-- Customer Satisfaction&#45;&gt;Inbound Demand -->
<g id="edge7" class="edge">
<title>Customer Satisfaction&#45;&gt;Inbound Demand</title>
<path fill="none" stroke="black" d="M261.42,-36.11C277.99,-44.35 294.82,-56.01 305,-72 345.96,-136.31 337.03,-231.71 329.38,-277.94"/>
<polygon fill="black" stroke="black" points="325.93,-277.35 327.64,-287.81 332.83,-278.57 325.93,-277.35"/>
<text text-anchor="middle" x="323.76" y="-269.62" font-family="Times-Roman" font-size="14.00">+</text>
</g>
</g>
</svg>
