<?xml version="1.0" encoding="UTF-8" standalone="no"?>
<!DOCTYPE svg PUBLIC "-//W3C//DTD SVG 1.1//EN"
 "http://www.w3.org/Graphics/SVG/1.1/DTD/svg11.dtd">
<!-- Generated by graphviz version 2.43.0 (0)
 -->
<!-- Title: mygraph Pages: 1 -->
<svg width="464pt" height="692pt"
 viewBox="0.00 0.00 463.71 692.00" xmlns="http://www.w3.org/2000/svg" xmlns:xlink="http://www.w3.org/1999/xlink">
<g id="graph0" class="graph" transform="scale(1 1) rotate(0) translate(4 688)">
<title>mygraph</title>
<polygon fill="white" stroke="transparent" points="-4,4 -4,-688 459.71,-688 459.71,4 -4,4"/>
<!-- Inbound Demand -->
<g id="node1" class="node">
<title>Inbound Demand</title>
<text text-anchor="middle" x="257.21" y="-662.3" font-family="Times-Roman" font-size="14.00">Inbound Demand</text>
</g>
<!-- Qualification calls -->
<g id="node2" class="node">
<title>Qualification calls</title>
<text text-anchor="middle" x="257.21" y="-590.3" font-family="Times-Roman" font-size="14.00">Qualification calls</text>
</g>
<!-- Inbound Demand&#45;&gt;Qualification calls -->
<g id="edge1" class="edge">
<title>Inbound Demand&#45;&gt;Qualification calls</title>
<path fill="none" stroke="black" d="M257.21,-647.7C257.21,-639.98 257.21,-630.71 257.21,-622.11"/>
<polygon fill="black" stroke="black" points="260.71,-622.1 257.21,-612.1 253.71,-622.1 260.71,-622.1"/>
<text text-anchor="middle" x="263.55" y="-622" font-family="Times-Roman" font-size="14.00">+</text>
</g>
<!-- Project offerings -->
<g id="node3" class="node">
<title>Project offerings</title>
<text text-anchor="middle" x="211.21" y="-518.3" font-family="Times-Roman" font-size="14.00">Project offerings</text>
</g>
<!-- Qualification calls&#45;&gt;Project offerings -->
<g id="edge2" class="edge">
<title>Qualification calls&#45;&gt;Project offerings</title>
<path fill="none" stroke="black" d="M245.84,-575.7C240.49,-567.56 234.01,-557.69 228.1,-548.7"/>
<polygon fill="black" stroke="black" points="230.87,-546.54 222.45,-540.1 225.02,-550.38 230.87,-546.54"/>
<text text-anchor="middle" x="235.21" y="-544.28" font-family="Times-Roman" font-size="14.00">+</text>
</g>
<!-- Closed deals -->
<g id="node6" class="node">
<title>Closed deals</title>
<text text-anchor="middle" x="210.21" y="-446.3" font-family="Times-Roman" font-size="14.00">Closed deals</text>
</g>
<!-- Project offerings&#45;&gt;Closed deals -->
<g id="edge7" class="edge">
<title>Project offerings&#45;&gt;Closed deals</title>
<path fill="none" stroke="black" d="M210.96,-503.7C210.85,-495.98 210.72,-486.71 210.6,-478.11"/>
<polygon fill="black" stroke="black" points="214.1,-478.05 210.45,-468.1 207.1,-478.15 214.1,-478.05"/>
<text text-anchor="middle" x="216.99" y="-477.91" font-family="Times-Roman" font-size="14.00">+</text>
</g>
<!-- Bench Engineers -->
<g id="node4" class="node">
<title>Bench Engineers</title>
<text text-anchor="middle" x="305.21" y="-374.3" font-family="Times-Roman" font-size="14.00">Bench Engineers</text>
</g>
<!-- Bench Engineers&#45;&gt;Qualification calls -->
<g id="edge3" class="edge">
<title>Bench Engineers&#45;&gt;Qualification calls</title>
<path fill="none" stroke="black" d="M304.87,-396.33C303.87,-426.28 299.89,-489.38 284.21,-540 281.37,-549.17 277.03,-558.68 272.65,-567.06"/>
<polygon fill="black" stroke="black" points="269.51,-565.52 267.78,-575.97 275.65,-568.88 269.51,-565.52"/>
<text text-anchor="middle" x="268.74" y="-557.3" font-family="Times-Roman" font-size="14.00">+</text>
</g>
<!-- Bench Quality -->
<g id="node5" class="node">
<title>Bench Quality</title>
<text text-anchor="middle" x="312.21" y="-302.3" font-family="Times-Roman" font-size="14.00">Bench Quality</text>
</g>
<!-- Bench Engineers&#45;&gt;Bench Quality -->
<g id="edge9" class="edge">
<title>Bench Engineers&#45;&gt;Bench Quality</title>
<path fill="none" stroke="black" d="M306.94,-359.7C307.71,-351.98 308.64,-342.71 309.5,-334.11"/>
<polygon fill="black" stroke="black" points="312.99,-334.4 310.5,-324.1 306.02,-333.71 312.99,-334.4"/>
<text text-anchor="middle" x="315.45" y="-334.56" font-family="Times-Roman" font-size="14.00">+</text>
</g>
<!-- Bench Engineers&#45;&gt;Closed deals -->
<g id="edge8" class="edge">
<title>Bench Engineers&#45;&gt;Closed deals</title>
<path fill="none" stroke="black" d="M287.78,-396.19C276.52,-405.18 261.57,-416.32 247.76,-426.04"/>
<polygon fill="black" stroke="black" points="245.56,-423.3 239.35,-431.88 249.56,-429.05 245.56,-423.3"/>
<text text-anchor="middle" x="246.9" y="-415.22" font-family="Times-Roman" font-size="14.00">+</text>
</g>
<!-- Bench Quality&#45;&gt;Closed deals -->
<g id="edge4" class="edge">
<title>Bench Quality&#45;&gt;Closed deals</title>
<path fill="none" stroke="black" d="M272.04,-324.21C256.45,-332.81 239.83,-344.69 229.21,-360 216.66,-378.1 212.14,-402.88 210.63,-421.7"/>
<polygon fill="black" stroke="black" points="207.13,-421.54 210.06,-431.73 214.12,-421.94 207.13,-421.54"/>
<text text-anchor="middle" x="204.5" y="-414.09" font-family="Times-Roman" font-size="14.00">+</text>
</g>
<!-- Open Source Contributions -->
<g id="node7" class="node">
<title>Open Source Contributions</title>
<text text-anchor="middle" x="320.21" y="-158.3" font-family="Times-Roman" font-size="14.00">Open Source Contributions</text>
</g>
<!-- Bench Quality&#45;&gt;Open Source Contributions -->
<g id="edge5" class="edge">
<title>Bench Quality&#45;&gt;Open Source Contributions</title>
<path fill="none" stroke="black" d="M313.17,-287.87C314.54,-263.67 317.04,-219.21 318.67,-190.39"/>
<polygon fill="black" stroke="black" points="322.17,-190.37 319.24,-180.19 315.18,-189.98 322.17,-190.37"/>
<text text-anchor="middle" x="324.81" y="-190.42" font-family="Times-Roman" font-size="14.00">+</text>
</g>
<!-- Team Quality -->
<g id="node12" class="node">
<title>Team Quality</title>
<text text-anchor="middle" x="173.21" y="-230.3" font-family="Times-Roman" font-size="14.00">Team Quality</text>
</g>
<!-- Bench Quality&#45;&gt;Team Quality -->
<g id="edge17" class="edge">
<title>Bench Quality&#45;&gt;Team Quality</title>
<path fill="none" stroke="black" d="M278.21,-287.88C259.61,-278.51 236.38,-266.81 216.5,-256.8"/>
<polygon fill="black" stroke="black" points="217.85,-253.56 207.34,-252.19 214.7,-259.81 217.85,-253.56"/>
<text text-anchor="middle" x="222.34" y="-248.94" font-family="Times-Roman" font-size="14.00">+</text>
</g>
<!-- Closed deals&#45;&gt;Bench Engineers -->
<g id="edge12" class="edge">
<title>Closed deals&#45;&gt;Bench Engineers</title>
<path fill="none" stroke="black" d="M227.78,-431.7C239.05,-422.71 253.95,-411.61 267.72,-401.92"/>
<polygon fill="black" stroke="black" points="269.88,-404.68 276.1,-396.1 265.89,-398.93 269.88,-404.68"/>
<text text-anchor="middle" x="268.55" y="-405.36" font-family="Times-Roman" font-size="14.00">&#45;</text>
</g>
<!-- Project Engineers -->
<g id="node9" class="node">
<title>Project Engineers</title>
<text text-anchor="middle" x="113.21" y="-374.3" font-family="Times-Roman" font-size="14.00">Project Engineers</text>
</g>
<!-- Closed deals&#45;&gt;Project Engineers -->
<g id="edge10" class="edge">
<title>Closed deals&#45;&gt;Project Engineers</title>
<path fill="none" stroke="black" d="M186.23,-431.7C173.9,-422.8 158.69,-411.82 145.36,-402.2"/>
<polygon fill="black" stroke="black" points="147.07,-399.12 136.91,-396.1 142.97,-404.79 147.07,-399.12"/>
<text text-anchor="middle" x="151.65" y="-395.22" font-family="Times-Roman" font-size="14.00">+</text>
</g>
<!-- Reputation -->
<g id="node8" class="node">
<title>Reputation</title>
<text text-anchor="middle" x="218.21" y="-86.3" font-family="Times-Roman" font-size="14.00">Reputation</text>
</g>
<!-- Open Source Contributions&#45;&gt;Reputation -->
<g id="edge6" class="edge">
<title>Open Source Contributions&#45;&gt;Reputation</title>
<path fill="none" stroke="black" d="M295.26,-143.88C282.17,-134.89 265.95,-123.76 251.77,-114.03"/>
<polygon fill="black" stroke="black" points="253.48,-110.96 243.26,-108.19 249.52,-116.73 253.48,-110.96"/>
<text text-anchor="middle" x="258.05" y="-106.96" font-family="Times-Roman" font-size="14.00">+</text>
</g>
<!-- Reputation&#45;&gt;Closed deals -->
<g id="edge11" class="edge">
<title>Reputation&#45;&gt;Closed deals</title>
<path fill="none" stroke="black" d="M171.91,-90.45C127,-92.53 60.09,-103.02 21.21,-144 -6.63,-173.34 2.21,-192.55 2.21,-233 2.21,-307 2.21,-307 2.21,-307 2.21,-349.19 4.48,-367.09 35.21,-396 65.64,-424.63 111.04,-437.83 147.98,-443.9"/>
<polygon fill="black" stroke="black" points="147.74,-447.4 158.15,-445.43 148.78,-440.48 147.74,-447.4"/>
<text text-anchor="middle" x="143.76" y="-445.98" font-family="Times-Roman" font-size="14.00">+</text>
</g>
<!-- Candidate Quality -->
<g id="node11" class="node">
<title>Candidate Quality</title>
<text text-anchor="middle" x="334.21" y="-14.3" font-family="Times-Roman" font-size="14.00">Candidate Quality</text>
</g>
<!-- Reputation&#45;&gt;Candidate Quality -->
<g id="edge16" class="edge">
<title>Reputation&#45;&gt;Candidate Quality</title>
<path fill="none" stroke="black" d="M246.59,-71.88C261.75,-62.72 280.62,-51.34 296.95,-41.48"/>
<polygon fill="black" stroke="black" points="298.97,-44.35 305.72,-36.19 295.35,-38.36 298.97,-44.35"/>
<text text-anchor="middle" x="297.36" y="-44.94" font-family="Times-Roman" font-size="14.00">+</text>
</g>
<!-- Hiring Number -->
<g id="node10" class="node">
<title>Hiring Number</title>
<text text-anchor="middle" x="396.21" y="-446.3" font-family="Times-Roman" font-size="14.00">Hiring Number</text>
</g>
<!-- Hiring Number&#45;&gt;Bench Engineers -->
<g id="edge13" class="edge">
<title>Hiring Number&#45;&gt;Bench Engineers</title>
<path fill="none" stroke="black" d="M373.72,-431.7C362.25,-422.88 348.15,-412.03 335.73,-402.47"/>
<polygon fill="black" stroke="black" points="337.51,-399.43 327.45,-396.1 333.24,-404.98 337.51,-399.43"/>
<text text-anchor="middle" x="342.09" y="-395.67" font-family="Times-Roman" font-size="14.00">+</text>
</g>
<!-- Hiring Number&#45;&gt;Bench Quality -->
<g id="edge14" class="edge">
<title>Hiring Number&#45;&gt;Bench Quality</title>
<path fill="none" stroke="black" d="M396.92,-432C396.94,-413.1 394.61,-382.29 381.21,-360 374.14,-348.24 363.4,-338.15 352.48,-330.03"/>
<polygon fill="black" stroke="black" points="354.36,-327.07 344.16,-324.21 350.35,-332.81 354.36,-327.07"/>
<text text-anchor="middle" x="358.93" y="-323.11" font-family="Times-Roman" font-size="14.00">&#45;</text>
</g>
<!-- Candidate Quality&#45;&gt;Bench Quality -->
<g id="edge15" class="edge">
<title>Candidate Quality&#45;&gt;Bench Quality</title>
<path fill="none" stroke="black" d="M357.34,-36.12C392.66,-64.51 453.69,-123.79 431.21,-180 414.05,-222.92 374.35,-259.5 345.52,-281.8"/>
<polygon fill="black" stroke="black" points="343.2,-279.17 337.33,-287.98 347.42,-284.75 343.2,-279.17"/>
<text text-anchor="middle" x="344.36" y="-271.03" font-family="Times-Roman" font-size="14.00">+</text>
</g>
<!-- Customer Satisfaction -->
<g id="node13" class="node">
<title>Customer Satisfaction</title>
<text text-anchor="middle" x="115.21" y="-158.3" font-family="Times-Roman" font-size="14.00">Customer Satisfaction</text>
</g>
<!-- Team Quality&#45;&gt;Customer Satisfaction -->
<g id="edge18" class="edge">
<title>Team Quality&#45;&gt;Customer Satisfaction</title>
<path fill="none" stroke="black" d="M158.87,-215.7C151.92,-207.3 143.44,-197.07 135.81,-187.86"/>
<polygon fill="black" stroke="black" points="138.46,-185.57 129.38,-180.1 133.07,-190.04 138.46,-185.57"/>
<text text-anchor="middle" x="142.94" y="-182.83" font-family="Times-Roman" font-size="14.00">+</text>
</g>
<!-- Customer Satisfaction&#45;&gt;Reputation -->
<g id="edge19" class="edge">
<title>Customer Satisfaction&#45;&gt;Reputation</title>
<path fill="none" stroke="black" d="M140.41,-143.88C153.62,-134.89 170,-123.76 184.32,-114.03"/>
<polygon fill="black" stroke="black" points="186.61,-116.71 192.92,-108.19 182.68,-110.92 186.61,-116.71"/>
<text text-anchor="middle" x="185.24" y="-117.37" font-family="Times-Roman" font-size="14.00">+</text>
</g>
</g>
</svg>
