<?xml version="1.0" encoding="UTF-8" standalone="no"?>
<!DOCTYPE svg PUBLIC "-//W3C//DTD SVG 1.1//EN"
 "http://www.w3.org/Graphics/SVG/1.1/DTD/svg11.dtd">
<!-- Generated by graphviz version 2.43.0 (0)
 -->
<!-- Title: mygraph Pages: 1 -->
<svg width="890pt" height="966pt"
 viewBox="0.00 0.00 890.00 966.00" xmlns="http://www.w3.org/2000/svg" xmlns:xlink="http://www.w3.org/1999/xlink">
<g id="graph0" class="graph" transform="scale(1 1) rotate(0) translate(4 962)">
<title>mygraph</title>
<polygon fill="white" stroke="transparent" points="-4,4 -4,-962 886,-962 886,4 -4,4"/>
<!-- Inbound Demand -->
<g id="node1" class="node">
<title>Inbound Demand</title>
<text text-anchor="middle" x="94" y="-936.3" font-family="Times-Roman" font-size="14.00">Inbound Demand</text>
</g>
<!-- Qualification calls -->
<g id="node2" class="node">
<title>Qualification calls</title>
<text text-anchor="middle" x="618" y="-863.3" font-family="Times-Roman" font-size="14.00">Qualification calls</text>
</g>
<!-- Inbound Demand&#45;&gt;Qualification calls -->
<g id="edge1" class="edge">
<title>Inbound Demand&#45;&gt;Qualification calls</title>
<path fill="none" stroke="black" d="M162.5,-929.72C259.29,-916.6 435.67,-892.71 538.23,-878.81"/>
<polygon fill="black" stroke="black" points="538.79,-882.27 548.23,-877.45 537.85,-875.33 538.79,-882.27"/>
<text text-anchor="middle" x="535.61" y="-881.86" font-family="Times-Roman" font-size="14.00">+</text>
</g>
<!-- Project Offerings -->
<g id="node3" class="node">
<title>Project Offerings</title>
<text text-anchor="middle" x="618" y="-790.3" font-family="Times-Roman" font-size="14.00">Project Offerings</text>
</g>
<!-- Qualification calls&#45;&gt;Project Offerings -->
<g id="edge2" class="edge">
<title>Qualification calls&#45;&gt;Project Offerings</title>
<path fill="none" stroke="black" d="M618,-848.81C618,-840.79 618,-831.05 618,-822.07"/>
<polygon fill="black" stroke="black" points="621.5,-822.03 618,-812.03 614.5,-822.03 621.5,-822.03"/>
<text text-anchor="middle" x="624.34" y="-821.92" font-family="Times-Roman" font-size="14.00">+</text>
</g>
<!-- Closed Deals -->
<g id="node6" class="node">
<title>Closed Deals</title>
<text text-anchor="middle" x="379" y="-717.3" font-family="Times-Roman" font-size="14.00">Closed Deals</text>
</g>
<!-- Project Offerings&#45;&gt;Closed Deals -->
<g id="edge8" class="edge">
<title>Project Offerings&#45;&gt;Closed Deals</title>
<path fill="none" stroke="black" d="M560.75,-775.99C524.88,-765.34 478.62,-751.59 441.74,-740.64"/>
<polygon fill="black" stroke="black" points="442.68,-737.27 432.1,-737.77 440.69,-743.98 442.68,-737.27"/>
<text text-anchor="middle" x="446.94" y="-731.87" font-family="Times-Roman" font-size="14.00">+</text>
</g>
<!-- Hiring Target -->
<g id="node10" class="node">
<title>Hiring Target</title>
<text text-anchor="middle" x="725" y="-268.3" font-family="Times-Roman" font-size="14.00">Hiring Target</text>
</g>
<!-- Project Offerings&#45;&gt;Hiring Target -->
<g id="edge9" class="edge">
<title>Project Offerings&#45;&gt;Hiring Target</title>
<path fill="none" stroke="black" d="M684.28,-785.19C750.97,-775.44 844,-755.78 844,-722 844,-722 844,-722 844,-344 844,-314.17 816.09,-296.58 787.3,-286.37"/>
<polygon fill="black" stroke="black" points="788.13,-282.96 777.54,-283.19 785.96,-289.62 788.13,-282.96"/>
<text text-anchor="middle" x="792.43" y="-277.68" font-family="Times-Roman" font-size="14.00">+</text>
</g>
<!-- Bench Engineers -->
<g id="node4" class="node">
<title>Bench Engineers</title>
<text text-anchor="middle" x="806" y="-14.3" font-family="Times-Roman" font-size="14.00">Bench Engineers</text>
</g>
<!-- Bench Engineers&#45;&gt;Qualification calls -->
<g id="edge3" class="edge">
<title>Bench Engineers&#45;&gt;Qualification calls</title>
<path fill="none" stroke="black" d="M842.22,-36.06C861.79,-48.03 882,-66.17 882,-90 882,-795 882,-795 882,-795 882,-833.55 775.68,-851.77 697.99,-859.93"/>
<polygon fill="black" stroke="black" points="697.31,-856.48 687.71,-860.97 698.01,-863.45 697.31,-856.48"/>
<text text-anchor="middle" x="700.6" y="-849.6" font-family="Times-Roman" font-size="14.00">+</text>
</g>
<!-- Team Quality -->
<g id="node5" class="node">
<title>Team Quality</title>
<text text-anchor="middle" x="476" y="-501.3" font-family="Times-Roman" font-size="14.00">Team Quality</text>
</g>
<!-- Team Quality&#45;&gt;Closed Deals -->
<g id="edge4" class="edge">
<title>Team Quality&#45;&gt;Closed Deals</title>
<path fill="none" stroke="black" d="M476.18,-523.03C475.81,-547.91 472.7,-595.14 456,-631 444.4,-655.89 423.76,-679.18 406.76,-695.69"/>
<polygon fill="black" stroke="black" points="404.12,-693.37 399.25,-702.78 408.93,-698.46 404.12,-693.37"/>
<text text-anchor="middle" x="404.79" y="-685.13" font-family="Times-Roman" font-size="14.00">+</text>
</g>
<!-- Open Source Contributions -->
<g id="node8" class="node">
<title>Open Source Contributions</title>
<text text-anchor="middle" x="476" y="-428.3" font-family="Times-Roman" font-size="14.00">Open Source Contributions</text>
</g>
<!-- Team Quality&#45;&gt;Open Source Contributions -->
<g id="edge6" class="edge">
<title>Team Quality&#45;&gt;Open Source Contributions</title>
<path fill="none" stroke="black" d="M476,-486.81C476,-478.79 476,-469.05 476,-460.07"/>
<polygon fill="black" stroke="black" points="479.5,-460.03 476,-450.03 472.5,-460.03 479.5,-460.03"/>
<text text-anchor="middle" x="482.34" y="-459.92" font-family="Times-Roman" font-size="14.00">+</text>
</g>
<!-- Failed Project Rate -->
<g id="node14" class="node">
<title>Failed Project Rate</title>
<text text-anchor="middle" x="668" y="-428.3" font-family="Times-Roman" font-size="14.00">Failed Project Rate</text>
</g>
<!-- Team Quality&#45;&gt;Failed Project Rate -->
<g id="edge18" class="edge">
<title>Team Quality&#45;&gt;Failed Project Rate</title>
<path fill="none" stroke="black" d="M521.99,-486.99C549.1,-476.97 583.59,-464.21 612.25,-453.62"/>
<polygon fill="black" stroke="black" points="613.56,-456.86 621.72,-450.11 611.13,-450.3 613.56,-456.86"/>
<text text-anchor="middle" x="611.17" y="-457.07" font-family="Times-Roman" font-size="14.00">&#45;</text>
</g>
<!-- Customer Satisfaction -->
<g id="node19" class="node">
<title>Customer Satisfaction</title>
<text text-anchor="middle" x="271" y="-428.3" font-family="Times-Roman" font-size="14.00">Customer Satisfaction</text>
</g>
<!-- Team Quality&#45;&gt;Customer Satisfaction -->
<g id="edge30" class="edge">
<title>Team Quality&#45;&gt;Customer Satisfaction</title>
<path fill="none" stroke="black" d="M426.9,-486.99C397.82,-476.92 360.8,-464.1 330.13,-453.48"/>
<polygon fill="black" stroke="black" points="331.01,-450.08 320.41,-450.11 328.72,-456.69 331.01,-450.08"/>
<text text-anchor="middle" x="335.33" y="-444.87" font-family="Times-Roman" font-size="14.00">+</text>
</g>
<!-- Closed Deals&#45;&gt;Bench Engineers -->
<g id="edge15" class="edge">
<title>Closed Deals&#45;&gt;Bench Engineers</title>
<path fill="none" stroke="black" d="M432.22,-717.92C546.68,-712.01 806,-690.19 806,-614 806,-614 806,-614 806,-90 806,-75.65 806,-59.67 806,-46.51"/>
<polygon fill="black" stroke="black" points="809.5,-46.22 806,-36.22 802.5,-46.22 809.5,-46.22"/>
<text text-anchor="middle" x="812.34" y="-46.11" font-family="Times-Roman" font-size="14.00">&#45;</text>
</g>
<!-- Project Engineers -->
<g id="node11" class="node">
<title>Project Engineers</title>
<text text-anchor="middle" x="379" y="-609.3" font-family="Times-Roman" font-size="14.00">Project Engineers</text>
</g>
<!-- Closed Deals&#45;&gt;Project Engineers -->
<g id="edge10" class="edge">
<title>Closed Deals&#45;&gt;Project Engineers</title>
<path fill="none" stroke="black" d="M379,-702.97C379,-686.38 379,-660.88 379,-641.43"/>
<polygon fill="black" stroke="black" points="382.5,-641.34 379,-631.34 375.5,-641.34 382.5,-641.34"/>
<text text-anchor="middle" x="385.34" y="-641.24" font-family="Times-Roman" font-size="14.00">+</text>
</g>
<!-- Accomplished Projects -->
<g id="node13" class="node">
<title>Accomplished Projects</title>
<text text-anchor="middle" x="261" y="-555.3" font-family="Times-Roman" font-size="14.00">Accomplished Projects</text>
</g>
<!-- Closed Deals&#45;&gt;Accomplished Projects -->
<g id="edge16" class="edge">
<title>Closed Deals&#45;&gt;Accomplished Projects</title>
<path fill="none" stroke="black" d="M362.02,-702.83C345.4,-685.53 319.88,-657.66 301,-631 290.97,-616.84 281.36,-599.94 274.08,-586.19"/>
<polygon fill="black" stroke="black" points="277.15,-584.5 269.43,-577.24 270.94,-587.72 277.15,-584.5"/>
<text text-anchor="middle" x="281.33" y="-582.68" font-family="Times-Roman" font-size="14.00">+</text>
</g>
<!-- Price -->
<g id="node7" class="node">
<title>Price</title>
<text text-anchor="middle" x="27" y="-790.3" font-family="Times-Roman" font-size="14.00">Price</text>
</g>
<!-- Price&#45;&gt;Closed Deals -->
<g id="edge5" class="edge">
<title>Price&#45;&gt;Closed Deals</title>
<path fill="none" stroke="black" d="M54.04,-787.55C109.58,-776.34 237.82,-750.48 315.57,-734.79"/>
<polygon fill="black" stroke="black" points="316.61,-738.15 325.72,-732.75 315.23,-731.29 316.61,-738.15"/>
<text text-anchor="middle" x="313.65" y="-737.95" font-family="Times-Roman" font-size="14.00">&#45;</text>
</g>
<!-- Salary -->
<g id="node17" class="node">
<title>Salary</title>
<text text-anchor="middle" x="34" y="-663.3" font-family="Times-Roman" font-size="14.00">Salary</text>
</g>
<!-- Price&#45;&gt;Salary -->
<g id="edge24" class="edge">
<title>Price&#45;&gt;Salary</title>
<path fill="none" stroke="black" d="M27.96,-775.88C29.12,-755.15 31.09,-719.95 32.46,-695.42"/>
<polygon fill="black" stroke="black" points="35.97,-695.49 33.03,-685.31 28.98,-695.1 35.97,-695.49"/>
<text text-anchor="middle" x="38.6" y="-695.54" font-family="Times-Roman" font-size="14.00">+</text>
</g>
<!-- Reputation -->
<g id="node9" class="node">
<title>Reputation</title>
<text text-anchor="middle" x="330" y="-341.3" font-family="Times-Roman" font-size="14.00">Reputation</text>
</g>
<!-- Open Source Contributions&#45;&gt;Reputation -->
<g id="edge7" class="edge">
<title>Open Source Contributions&#45;&gt;Reputation</title>
<path fill="none" stroke="black" d="M446.45,-413.8C423.89,-400.66 392.63,-382.46 368.17,-368.22"/>
<polygon fill="black" stroke="black" points="369.9,-365.18 359.5,-363.18 366.38,-371.23 369.9,-365.18"/>
<text text-anchor="middle" x="431" y="-384.8" font-family="Times-Roman" font-size="14.00">delay</text>
<text text-anchor="middle" x="374.44" y="-360.84" font-family="Times-Roman" font-size="14.00">+</text>
</g>
<!-- Reputation&#45;&gt;Inbound Demand -->
<g id="edge14" class="edge">
<title>Reputation&#45;&gt;Inbound Demand</title>
<path fill="none" stroke="black" d="M283.93,-345.68C241.09,-347.23 176.74,-354.41 128,-381 101.49,-395.46 82,-400.8 82,-431 82,-868 82,-868 82,-868 82,-882.7 84.53,-898.87 87.27,-912.06"/>
<polygon fill="black" stroke="black" points="83.87,-912.92 89.46,-921.92 90.71,-911.4 83.87,-912.92"/>
<text text-anchor="middle" x="80.32" y="-906.33" font-family="Times-Roman" font-size="14.00">+</text>
</g>
<!-- Reputation&#45;&gt;Closed Deals -->
<g id="edge12" class="edge">
<title>Reputation&#45;&gt;Closed Deals</title>
<path fill="none" stroke="black" d="M283.91,-345.35C222.1,-347.17 120,-360.79 120,-431 120,-614 120,-614 120,-614 120,-698.39 239.24,-717.06 315.91,-720.34"/>
<polygon fill="black" stroke="black" points="315.85,-723.84 325.96,-720.7 316.09,-716.85 315.85,-723.84"/>
<text text-anchor="middle" x="312.15" y="-722.86" font-family="Times-Roman" font-size="14.00">+</text>
</g>
<!-- Candidate Number -->
<g id="node12" class="node">
<title>Candidate Number</title>
<text text-anchor="middle" x="377" y="-214.3" font-family="Times-Roman" font-size="14.00">Candidate Number</text>
</g>
<!-- Reputation&#45;&gt;Candidate Number -->
<g id="edge13" class="edge">
<title>Reputation&#45;&gt;Candidate Number</title>
<path fill="none" stroke="black" d="M336.44,-326.88C344.3,-305.96 357.7,-270.32 366.94,-245.76"/>
<polygon fill="black" stroke="black" points="370.25,-246.91 370.49,-236.31 363.69,-244.44 370.25,-246.91"/>
<text text-anchor="middle" x="371.64" y="-247.57" font-family="Times-Roman" font-size="14.00">+</text>
</g>
<!-- Candidate Quality -->
<g id="node18" class="node">
<title>Candidate Quality</title>
<text text-anchor="middle" x="499" y="-268.3" font-family="Times-Roman" font-size="14.00">Candidate Quality</text>
</g>
<!-- Reputation&#45;&gt;Candidate Quality -->
<g id="edge29" class="edge">
<title>Reputation&#45;&gt;Candidate Quality</title>
<path fill="none" stroke="black" d="M370.48,-326.99C394.03,-317.1 423.91,-304.54 448.94,-294.03"/>
<polygon fill="black" stroke="black" points="450.4,-297.21 458.26,-290.11 447.69,-290.76 450.4,-297.21"/>
<text text-anchor="middle" x="448.19" y="-297.52" font-family="Times-Roman" font-size="14.00">+</text>
</g>
<!-- Hiring Number -->
<g id="node15" class="node">
<title>Hiring Number</title>
<text text-anchor="middle" x="679" y="-87.3" font-family="Times-Roman" font-size="14.00">Hiring Number</text>
</g>
<!-- Hiring Target&#45;&gt;Hiring Number -->
<g id="edge22" class="edge">
<title>Hiring Target&#45;&gt;Hiring Number</title>
<path fill="none" stroke="black" d="M724.07,-253.63C722.39,-229.13 717.82,-183.24 706,-146 703.05,-136.71 698.68,-127.04 694.31,-118.5"/>
<polygon fill="black" stroke="black" points="697.26,-116.58 689.46,-109.41 691.08,-119.88 697.26,-116.58"/>
<text text-anchor="middle" x="701.45" y="-114.71" font-family="Times-Roman" font-size="14.00">+</text>
</g>
<!-- Hiring Quality -->
<g id="node16" class="node">
<title>Hiring Quality</title>
<text text-anchor="middle" x="640" y="-160.3" font-family="Times-Roman" font-size="14.00">Hiring Quality</text>
</g>
<!-- Hiring Target&#45;&gt;Hiring Quality -->
<g id="edge23" class="edge">
<title>Hiring Target&#45;&gt;Hiring Quality</title>
<path fill="none" stroke="black" d="M711.34,-253.97C697.55,-236.76 676.07,-209.98 660.28,-190.29"/>
<polygon fill="black" stroke="black" points="662.89,-187.95 653.91,-182.34 657.43,-192.33 662.89,-187.95"/>
<text text-anchor="middle" x="667.36" y="-185.28" font-family="Times-Roman" font-size="14.00">&#45;</text>
</g>
<!-- Project Engineers&#45;&gt;Team Quality -->
<g id="edge11" class="edge">
<title>Project Engineers&#45;&gt;Team Quality</title>
<path fill="none" stroke="black" d="M387.28,-594.84C395.23,-579.53 408.33,-557.11 424,-541 428.13,-536.75 432.86,-532.73 437.74,-529.03"/>
<polygon fill="black" stroke="black" points="439.92,-531.77 446.02,-523.11 435.85,-526.07 439.92,-531.77"/>
<text text-anchor="middle" x="443" y="-555.3" font-family="Times-Roman" font-size="14.00">delay</text>
<text text-anchor="middle" x="438.64" y="-532.47" font-family="Times-Roman" font-size="14.00">+</text>
</g>
<!-- Candidate Number&#45;&gt;Hiring Number -->
<g id="edge28" class="edge">
<title>Candidate Number&#45;&gt;Hiring Number</title>
<path fill="none" stroke="black" d="M418.36,-199.88C472.99,-177.27 569.16,-137.46 628.16,-113.04"/>
<polygon fill="black" stroke="black" points="629.76,-116.17 637.66,-109.11 627.08,-109.7 629.76,-116.17"/>
<text text-anchor="middle" x="627.52" y="-116.47" font-family="Times-Roman" font-size="14.00">+</text>
</g>
<!-- Accomplished Projects&#45;&gt;Reputation -->
<g id="edge17" class="edge">
<title>Accomplished Projects&#45;&gt;Reputation</title>
<path fill="none" stroke="black" d="M237.92,-540.83C204.07,-513.51 147.98,-458.65 177,-414 198.34,-381.17 239.58,-364.06 273.87,-355.22"/>
<polygon fill="black" stroke="black" points="274.89,-358.57 283.8,-352.84 273.26,-351.77 274.89,-358.57"/>
<text text-anchor="middle" x="272.06" y="-358.47" font-family="Times-Roman" font-size="14.00">+</text>
</g>
<!-- Failed Project Rate&#45;&gt;Reputation -->
<g id="edge19" class="edge">
<title>Failed Project Rate&#45;&gt;Reputation</title>
<path fill="none" stroke="black" d="M600.01,-413.9C537.14,-398.09 444.81,-374.87 386.06,-360.1"/>
<polygon fill="black" stroke="black" points="386.76,-356.67 376.21,-357.62 385.06,-363.45 386.76,-356.67"/>
<text text-anchor="middle" x="390.94" y="-351.09" font-family="Times-Roman" font-size="14.00">&#45;</text>
</g>
<!-- Hiring Number&#45;&gt;Bench Engineers -->
<g id="edge20" class="edge">
<title>Hiring Number&#45;&gt;Bench Engineers</title>
<path fill="none" stroke="black" d="M709.42,-72.99C726.57,-63.4 748.19,-51.32 766.63,-41.01"/>
<polygon fill="black" stroke="black" points="768.37,-44.05 775.39,-36.11 764.95,-37.94 768.37,-44.05"/>
<text text-anchor="middle" x="766.62" y="-44.58" font-family="Times-Roman" font-size="14.00">+</text>
</g>
<!-- Hiring Quality&#45;&gt;Team Quality -->
<g id="edge21" class="edge">
<title>Hiring Quality&#45;&gt;Team Quality</title>
<path fill="none" stroke="black" d="M641.07,-182.22C643.1,-206.93 648.77,-253.5 664,-290 706.06,-390.79 788.38,-402.07 749,-450 723.06,-481.58 612.17,-495 539.95,-500.48"/>
<polygon fill="black" stroke="black" points="539.31,-497.01 529.59,-501.23 539.82,-503.99 539.31,-497.01"/>
<text text-anchor="middle" x="542.69" y="-490.22" font-family="Times-Roman" font-size="14.00">+</text>
</g>
<!-- Hiring Quality&#45;&gt;Hiring Number -->
<g id="edge26" class="edge">
<title>Hiring Quality&#45;&gt;Hiring Number</title>
<path fill="none" stroke="black" d="M649.44,-145.81C654.04,-137.44 659.67,-127.2 664.77,-117.9"/>
<polygon fill="black" stroke="black" points="667.9,-119.48 669.65,-109.03 661.76,-116.11 667.9,-119.48"/>
<text text-anchor="middle" x="668.66" y="-120.3" font-family="Times-Roman" font-size="14.00">&#45;</text>
</g>
<!-- Salary&#45;&gt;Hiring Quality -->
<g id="edge25" class="edge">
<title>Salary&#45;&gt;Hiring Quality</title>
<path fill="none" stroke="black" d="M35.84,-648.76C37.91,-627.81 41,-591.35 41,-560 41,-560 41,-560 41,-271 41,-217.48 416.6,-182.25 572.95,-169.91"/>
<polygon fill="black" stroke="black" points="573.68,-173.36 583.38,-169.09 573.14,-166.38 573.68,-173.36"/>
</g>
<!-- Candidate Quality&#45;&gt;Hiring Quality -->
<g id="edge27" class="edge">
<title>Candidate Quality&#45;&gt;Hiring Quality</title>
<path fill="none" stroke="black" d="M521.65,-253.97C545.26,-236.23 582.4,-208.3 608.78,-188.47"/>
<polygon fill="black" stroke="black" points="611.04,-191.15 616.93,-182.34 606.84,-185.55 611.04,-191.15"/>
<text text-anchor="middle" x="609.88" y="-191.88" font-family="Times-Roman" font-size="14.00">+</text>
</g>
<!-- Customer Satisfaction&#45;&gt;Reputation -->
<g id="edge31" class="edge">
<title>Customer Satisfaction&#45;&gt;Reputation</title>
<path fill="none" stroke="black" d="M282.94,-413.8C291.34,-401.7 302.72,-385.3 312.18,-371.67"/>
<polygon fill="black" stroke="black" points="315.25,-373.39 318.08,-363.18 309.5,-369.39 315.25,-373.39"/>
<text text-anchor="middle" x="315.53" y="-374.26" font-family="Times-Roman" font-size="14.00">+</text>
</g>
</g>
</svg>
