<?xml version="1.0" encoding="UTF-8" standalone="no"?>
<!DOCTYPE svg PUBLIC "-//W3C//DTD SVG 1.1//EN"
 "http://www.w3.org/Graphics/SVG/1.1/DTD/svg11.dtd">
<!-- Generated by graphviz version 2.43.0 (0)
 -->
<!-- Title: mygraph Pages: 1 -->
<svg width="407pt" height="332pt"
 viewBox="0.00 0.00 407.00 332.00" xmlns="http://www.w3.org/2000/svg" xmlns:xlink="http://www.w3.org/1999/xlink">
<g id="graph0" class="graph" transform="scale(1 1) rotate(0) translate(4 328)">
<title>mygraph</title>
<polygon fill="white" stroke="transparent" points="-4,4 -4,-328 403,-328 403,4 -4,4"/>
<!-- Inbound Demand -->
<g id="node1" class="node">
<title>Inbound Demand</title>
<text text-anchor="middle" x="74" y="-302.3" font-family="Times-Roman" font-size="14.00">Inbound Demand</text>
</g>
<!-- Opportunity Rate -->
<g id="node2" class="node">
<title>Opportunity Rate</title>
<text text-anchor="middle" x="122" y="-230.3" font-family="Times-Roman" font-size="14.00">Opportunity Rate</text>
</g>
<!-- Inbound Demand&#45;&gt;Opportunity Rate -->
<g id="edge1" class="edge">
<title>Inbound Demand&#45;&gt;Opportunity Rate</title>
<path fill="none" stroke="black" d="M85.87,-287.7C91.5,-279.47 98.35,-269.48 104.57,-260.42"/>
<polygon fill="black" stroke="black" points="107.5,-262.33 110.27,-252.1 101.73,-258.37 107.5,-262.33"/>
<text text-anchor="middle" x="107.81" y="-263.2" font-family="Times-Roman" font-size="14.00">+</text>
</g>
<!-- Closed Deal Rate -->
<g id="node3" class="node">
<title>Closed Deal Rate</title>
<text text-anchor="middle" x="204" y="-158.3" font-family="Times-Roman" font-size="14.00">Closed Deal Rate</text>
</g>
<!-- Opportunity Rate&#45;&gt;Closed Deal Rate -->
<g id="edge2" class="edge">
<title>Opportunity Rate&#45;&gt;Closed Deal Rate</title>
<path fill="none" stroke="black" d="M142.27,-215.7C152.5,-206.97 165.06,-196.24 176.18,-186.75"/>
<polygon fill="black" stroke="black" points="178.63,-189.26 183.96,-180.1 174.09,-183.94 178.63,-189.26"/>
<text text-anchor="middle" x="177.74" y="-190.05" font-family="Times-Roman" font-size="14.00">+</text>
</g>
<!-- Accomplished Project Rate -->
<g id="node6" class="node">
<title>Accomplished Project Rate</title>
<text text-anchor="middle" x="149" y="-86.3" font-family="Times-Roman" font-size="14.00">Accomplished Project Rate</text>
</g>
<!-- Closed Deal Rate&#45;&gt;Accomplished Project Rate -->
<g id="edge5" class="edge">
<title>Closed Deal Rate&#45;&gt;Accomplished Project Rate</title>
<path fill="none" stroke="black" d="M190.4,-143.7C183.88,-135.39 175.93,-125.28 168.75,-116.14"/>
<polygon fill="black" stroke="black" points="171.37,-113.81 162.44,-108.1 165.87,-118.13 171.37,-113.81"/>
<text text-anchor="middle" x="175.82" y="-111.18" font-family="Times-Roman" font-size="14.00">+</text>
</g>
<!-- Revenue -->
<g id="node7" class="node">
<title>Revenue</title>
<text text-anchor="middle" x="306" y="-86.3" font-family="Times-Roman" font-size="14.00">Revenue</text>
</g>
<!-- Closed Deal Rate&#45;&gt;Revenue -->
<g id="edge6" class="edge">
<title>Closed Deal Rate&#45;&gt;Revenue</title>
<path fill="none" stroke="black" d="M228.95,-143.88C242.04,-134.89 258.26,-123.76 272.44,-114.03"/>
<polygon fill="black" stroke="black" points="274.69,-116.73 280.95,-108.19 270.73,-110.96 274.69,-116.73"/>
<text text-anchor="middle" x="273.33" y="-117.41" font-family="Times-Roman" font-size="14.00">+</text>
</g>
<!-- Team Size -->
<g id="node4" class="node">
<title>Team Size</title>
<text text-anchor="middle" x="324" y="-302.3" font-family="Times-Roman" font-size="14.00">Team Size</text>
</g>
<!-- Team Availability -->
<g id="node5" class="node">
<title>Team Availability</title>
<text text-anchor="middle" x="277" y="-230.3" font-family="Times-Roman" font-size="14.00">Team Availability</text>
</g>
<!-- Team Size&#45;&gt;Team Availability -->
<g id="edge3" class="edge">
<title>Team Size&#45;&gt;Team Availability</title>
<path fill="none" stroke="black" d="M312.38,-287.7C306.86,-279.47 300.15,-269.48 294.07,-260.42"/>
<polygon fill="black" stroke="black" points="296.96,-258.46 288.48,-252.1 291.15,-262.36 296.96,-258.46"/>
<text text-anchor="middle" x="301.33" y="-256.16" font-family="Times-Roman" font-size="14.00">+</text>
</g>
<!-- Cost -->
<g id="node8" class="node">
<title>Cost</title>
<text text-anchor="middle" x="372" y="-158.3" font-family="Times-Roman" font-size="14.00">Cost</text>
</g>
<!-- Team Size&#45;&gt;Cost -->
<g id="edge7" class="edge">
<title>Team Size&#45;&gt;Cost</title>
<path fill="none" stroke="black" d="M334.54,-287.87C340.39,-277.75 347.39,-264.5 352,-252 359.44,-231.85 364.61,-208.07 367.82,-190.16"/>
<polygon fill="black" stroke="black" points="371.31,-190.56 369.54,-180.11 364.41,-189.38 371.31,-190.56"/>
<text text-anchor="middle" x="373.5" y="-190.88" font-family="Times-Roman" font-size="14.00">+</text>
</g>
<!-- Team Availability&#45;&gt;Closed Deal Rate -->
<g id="edge4" class="edge">
<title>Team Availability&#45;&gt;Closed Deal Rate</title>
<path fill="none" stroke="black" d="M258.96,-215.7C249.94,-207.05 238.88,-196.45 229.06,-187.03"/>
<polygon fill="black" stroke="black" points="231.48,-184.5 221.84,-180.1 226.63,-189.55 231.48,-184.5"/>
<text text-anchor="middle" x="236.04" y="-181.24" font-family="Times-Roman" font-size="14.00">+</text>
</g>
<!-- Customer Satisfaction -->
<g id="node10" class="node">
<title>Customer Satisfaction</title>
<text text-anchor="middle" x="85" y="-14.3" font-family="Times-Roman" font-size="14.00">Customer Satisfaction</text>
</g>
<!-- Accomplished Project Rate&#45;&gt;Customer Satisfaction -->
<g id="edge10" class="edge">
<title>Accomplished Project Rate&#45;&gt;Customer Satisfaction</title>
<path fill="none" stroke="black" d="M133.18,-71.7C125.43,-63.22 115.96,-52.86 107.48,-43.58"/>
<polygon fill="black" stroke="black" points="109.97,-41.12 100.64,-36.1 104.8,-45.85 109.97,-41.12"/>
<text text-anchor="middle" x="114.49" y="-38.16" font-family="Times-Roman" font-size="14.00">+</text>
</g>
<!-- Profit -->
<g id="node9" class="node">
<title>Profit</title>
<text text-anchor="middle" x="339" y="-14.3" font-family="Times-Roman" font-size="14.00">Profit</text>
</g>
<!-- Revenue&#45;&gt;Profit -->
<g id="edge8" class="edge">
<title>Revenue&#45;&gt;Profit</title>
<path fill="none" stroke="black" d="M314.16,-71.7C317.91,-63.73 322.45,-54.1 326.62,-45.26"/>
<polygon fill="black" stroke="black" points="329.84,-46.64 330.94,-36.1 323.51,-43.66 329.84,-46.64"/>
<text text-anchor="middle" x="330.87" y="-47.4" font-family="Times-Roman" font-size="14.00">+</text>
</g>
<!-- Cost&#45;&gt;Profit -->
<g id="edge9" class="edge">
<title>Cost&#45;&gt;Profit</title>
<path fill="none" stroke="black" d="M368.93,-143.85C365.62,-125.87 360.01,-96.82 354,-72 351.92,-63.41 349.39,-54.11 347,-45.74"/>
<polygon fill="black" stroke="black" points="350.35,-44.73 344.2,-36.1 343.62,-46.68 350.35,-44.73"/>
<text text-anchor="middle" x="354.08" y="-43.69" font-family="Times-Roman" font-size="14.00">&#45;</text>
</g>
<!-- Customer Satisfaction&#45;&gt;Inbound Demand -->
<g id="edge11" class="edge">
<title>Customer Satisfaction&#45;&gt;Inbound Demand</title>
<path fill="none" stroke="black" d="M64.62,-36.47C55.19,-45.91 44.99,-58.4 40,-72 12.41,-147.11 22.55,-174.91 44,-252 46.62,-261.43 51.27,-270.96 56.13,-279.3"/>
<polygon fill="black" stroke="black" points="53.17,-281.15 61.41,-287.81 59.12,-277.46 53.17,-281.15"/>
<text text-anchor="middle" x="48.86" y="-275.9" font-family="Times-Roman" font-size="14.00">+</text>
</g>
</g>
</svg>
