<?xml version="1.0" encoding="UTF-8" standalone="no"?>
<!DOCTYPE svg PUBLIC "-//W3C//DTD SVG 1.1//EN"
 "http://www.w3.org/Graphics/SVG/1.1/DTD/svg11.dtd">
<!-- Generated by graphviz version 2.43.0 (0)
 -->
<!-- Title: mygraph Pages: 1 -->
<svg width="568pt" height="823pt"
 viewBox="0.00 0.00 567.50 823.00" xmlns="http://www.w3.org/2000/svg" xmlns:xlink="http://www.w3.org/1999/xlink">
<g id="graph0" class="graph" transform="scale(1 1) rotate(0) translate(4 819)">
<title>mygraph</title>
<polygon fill="white" stroke="transparent" points="-4,4 -4,-819 563.5,-819 563.5,4 -4,4"/>
<!-- Inbound Demand -->
<g id="node1" class="node">
<title>Inbound Demand</title>
<text text-anchor="middle" x="69.5" y="-793.3" font-family="Times-Roman" font-size="14.00">Inbound Demand</text>
</g>
<!-- Qualification calls -->
<g id="node2" class="node">
<title>Qualification calls</title>
<text text-anchor="middle" x="69.5" y="-720.3" font-family="Times-Roman" font-size="14.00">Qualification calls</text>
</g>
<!-- Inbound Demand&#45;&gt;Qualification calls -->
<g id="edge1" class="edge">
<title>Inbound Demand&#45;&gt;Qualification calls</title>
<path fill="none" stroke="black" d="M69.5,-778.81C69.5,-770.79 69.5,-761.05 69.5,-752.07"/>
<polygon fill="black" stroke="black" points="73,-752.03 69.5,-742.03 66,-752.03 73,-752.03"/>
<text text-anchor="middle" x="75.84" y="-751.92" font-family="Times-Roman" font-size="14.00">+</text>
</g>
<!-- Project offerings -->
<g id="node3" class="node">
<title>Project offerings</title>
<text text-anchor="middle" x="357.5" y="-647.3" font-family="Times-Roman" font-size="14.00">Project offerings</text>
</g>
<!-- Qualification calls&#45;&gt;Project offerings -->
<g id="edge2" class="edge">
<title>Qualification calls&#45;&gt;Project offerings</title>
<path fill="none" stroke="black" d="M138.48,-705.99C181.96,-695.28 238.09,-681.44 282.64,-670.46"/>
<polygon fill="black" stroke="black" points="283.67,-673.81 292.54,-668.02 281.99,-667.01 283.67,-673.81"/>
<text text-anchor="middle" x="280.86" y="-673.72" font-family="Times-Roman" font-size="14.00">+</text>
</g>
<!-- Closed Deals -->
<g id="node6" class="node">
<title>Closed Deals</title>
<text text-anchor="middle" x="357.5" y="-574.3" font-family="Times-Roman" font-size="14.00">Closed Deals</text>
</g>
<!-- Project offerings&#45;&gt;Closed Deals -->
<g id="edge8" class="edge">
<title>Project offerings&#45;&gt;Closed Deals</title>
<path fill="none" stroke="black" d="M357.5,-632.81C357.5,-624.79 357.5,-615.05 357.5,-606.07"/>
<polygon fill="black" stroke="black" points="361,-606.03 357.5,-596.03 354,-606.03 361,-606.03"/>
<text text-anchor="middle" x="363.84" y="-605.92" font-family="Times-Roman" font-size="14.00">+</text>
</g>
<!-- Bench Engineers -->
<g id="node4" class="node">
<title>Bench Engineers</title>
<text text-anchor="middle" x="464.5" y="-501.3" font-family="Times-Roman" font-size="14.00">Bench Engineers</text>
</g>
<!-- Bench Engineers&#45;&gt;Qualification calls -->
<g id="edge3" class="edge">
<title>Bench Engineers&#45;&gt;Qualification calls</title>
<path fill="none" stroke="black" d="M397.19,-522.24C365.42,-531.21 327.54,-543.84 295.5,-560 217.51,-599.33 137.1,-664.27 96.49,-699.12"/>
<polygon fill="black" stroke="black" points="93.95,-696.69 88.68,-705.88 98.53,-701.99 93.95,-696.69"/>
<text text-anchor="middle" x="94.81" y="-688.49" font-family="Times-Roman" font-size="14.00">+</text>
</g>
<!-- Bench Quality -->
<g id="node5" class="node">
<title>Bench Quality</title>
<text text-anchor="middle" x="261.5" y="-414.3" font-family="Times-Roman" font-size="14.00">Bench Quality</text>
</g>
<!-- Bench Engineers&#45;&gt;Bench Quality -->
<g id="edge10" class="edge">
<title>Bench Engineers&#45;&gt;Bench Quality</title>
<path fill="none" stroke="black" d="M423.42,-486.8C391.12,-473.27 345.99,-454.38 311.57,-439.97"/>
<polygon fill="black" stroke="black" points="312.75,-436.66 302.17,-436.03 310.04,-443.12 312.75,-436.66"/>
<text text-anchor="middle" x="317.16" y="-431.73" font-family="Times-Roman" font-size="14.00">+</text>
</g>
<!-- Bench Engineers&#45;&gt;Closed Deals -->
<g id="edge9" class="edge">
<title>Bench Engineers&#45;&gt;Closed Deals</title>
<path fill="none" stroke="black" d="M444.58,-523.11C431.36,-532.55 413.69,-544.37 397.67,-554.54"/>
<polygon fill="black" stroke="black" points="395.6,-551.71 388.99,-559.99 399.32,-557.64 395.6,-551.71"/>
<text text-anchor="middle" x="397.13" y="-543.7" font-family="Times-Roman" font-size="14.00">+</text>
</g>
<!-- Bench Quality&#45;&gt;Closed Deals -->
<g id="edge4" class="edge">
<title>Bench Quality&#45;&gt;Closed Deals</title>
<path fill="none" stroke="black" d="M204.29,-432.39C145.36,-448.86 66.65,-480.03 101.5,-523 125.31,-552.36 226.39,-566.37 294.19,-572.58"/>
<polygon fill="black" stroke="black" points="294.08,-576.08 304.35,-573.47 294.7,-569.11 294.08,-576.08"/>
<text text-anchor="middle" x="290.25" y="-574.9" font-family="Times-Roman" font-size="14.00">+</text>
</g>
<!-- Open Source Contributions -->
<g id="node8" class="node">
<title>Open Source Contributions</title>
<text text-anchor="middle" x="380.5" y="-287.3" font-family="Times-Roman" font-size="14.00">Open Source Contributions</text>
</g>
<!-- Bench Quality&#45;&gt;Open Source Contributions -->
<g id="edge6" class="edge">
<title>Bench Quality&#45;&gt;Open Source Contributions</title>
<path fill="none" stroke="black" d="M283.42,-399.98C295.98,-389.8 311.73,-376.3 324.5,-363 338.19,-348.74 351.95,-331.34 362.41,-317.33"/>
<polygon fill="black" stroke="black" points="365.36,-319.24 368.46,-309.11 359.72,-315.09 365.36,-319.24"/>
<text text-anchor="middle" x="365.51" y="-320.12" font-family="Times-Roman" font-size="14.00">+</text>
</g>
<!-- Team Quality -->
<g id="node16" class="node">
<title>Team Quality</title>
<text text-anchor="middle" x="261.5" y="-341.3" font-family="Times-Roman" font-size="14.00">Team Quality</text>
</g>
<!-- Bench Quality&#45;&gt;Team Quality -->
<g id="edge22" class="edge">
<title>Bench Quality&#45;&gt;Team Quality</title>
<path fill="none" stroke="black" d="M261.5,-399.81C261.5,-391.79 261.5,-382.05 261.5,-373.07"/>
<polygon fill="black" stroke="black" points="265,-373.03 261.5,-363.03 258,-373.03 265,-373.03"/>
<text text-anchor="middle" x="267.84" y="-372.92" font-family="Times-Roman" font-size="14.00">+</text>
</g>
<!-- Closed Deals&#45;&gt;Bench Engineers -->
<g id="edge15" class="edge">
<title>Closed Deals&#45;&gt;Bench Engineers</title>
<path fill="none" stroke="black" d="M377.27,-559.99C390.46,-550.58 408.12,-538.76 424.14,-528.57"/>
<polygon fill="black" stroke="black" points="426.23,-531.4 432.84,-523.11 422.51,-525.47 426.23,-531.4"/>
<text text-anchor="middle" x="424.7" y="-532.01" font-family="Times-Roman" font-size="14.00">&#45;</text>
</g>
<!-- Project Engineers -->
<g id="node10" class="node">
<title>Project Engineers</title>
<text text-anchor="middle" x="310.5" y="-501.3" font-family="Times-Roman" font-size="14.00">Project Engineers</text>
</g>
<!-- Closed Deals&#45;&gt;Project Engineers -->
<g id="edge11" class="edge">
<title>Closed Deals&#45;&gt;Project Engineers</title>
<path fill="none" stroke="black" d="M346.12,-559.81C340.52,-551.35 333.66,-540.98 327.45,-531.61"/>
<polygon fill="black" stroke="black" points="330.21,-529.44 321.77,-523.03 324.37,-533.3 330.21,-529.44"/>
<text text-anchor="middle" x="334.56" y="-527.17" font-family="Times-Roman" font-size="14.00">+</text>
</g>
<!-- Price -->
<g id="node7" class="node">
<title>Price</title>
<text text-anchor="middle" x="247.5" y="-647.3" font-family="Times-Roman" font-size="14.00">Price</text>
</g>
<!-- Price&#45;&gt;Closed Deals -->
<g id="edge5" class="edge">
<title>Price&#45;&gt;Closed Deals</title>
<path fill="none" stroke="black" d="M273.85,-632.99C288.43,-623.58 306.75,-611.76 322.52,-601.57"/>
<polygon fill="black" stroke="black" points="324.48,-604.48 330.99,-596.11 320.69,-598.6 324.48,-604.48"/>
<text text-anchor="middle" x="323" y="-605.11" font-family="Times-Roman" font-size="14.00">&#45;</text>
</g>
<!-- Reputation -->
<g id="node9" class="node">
<title>Reputation</title>
<text text-anchor="middle" x="311.5" y="-160.3" font-family="Times-Roman" font-size="14.00">Reputation</text>
</g>
<!-- Open Source Contributions&#45;&gt;Reputation -->
<g id="edge7" class="edge">
<title>Open Source Contributions&#45;&gt;Reputation</title>
<path fill="none" stroke="black" d="M376.29,-272.95C372.21,-258.11 365.22,-236.32 355.5,-219 349.79,-208.82 342.14,-198.65 334.82,-189.92"/>
<polygon fill="black" stroke="black" points="337.45,-187.61 328.25,-182.35 332.16,-192.2 337.45,-187.61"/>
<text text-anchor="middle" x="388.5" y="-233.3" font-family="Times-Roman" font-size="14.00">delay</text>
<text text-anchor="middle" x="341.95" y="-184.77" font-family="Times-Roman" font-size="14.00">+</text>
</g>
<!-- Reputation&#45;&gt;Closed Deals -->
<g id="edge13" class="edge">
<title>Reputation&#45;&gt;Closed Deals</title>
<path fill="none" stroke="black" d="M357.57,-167.87C429.29,-175.11 559.5,-200.56 559.5,-290 559.5,-506 559.5,-506 559.5,-506 559.5,-535.87 479.9,-556.22 420.64,-567.23"/>
<polygon fill="black" stroke="black" points="419.79,-563.82 410.57,-569.04 421.04,-570.71 419.79,-563.82"/>
<text text-anchor="middle" x="422.82" y="-556.69" font-family="Times-Roman" font-size="14.00">+</text>
</g>
<!-- Candidate Number -->
<g id="node11" class="node">
<title>Candidate Number</title>
<text text-anchor="middle" x="311.5" y="-87.3" font-family="Times-Roman" font-size="14.00">Candidate Number</text>
</g>
<!-- Reputation&#45;&gt;Candidate Number -->
<g id="edge14" class="edge">
<title>Reputation&#45;&gt;Candidate Number</title>
<path fill="none" stroke="black" d="M311.5,-145.81C311.5,-137.79 311.5,-128.05 311.5,-119.07"/>
<polygon fill="black" stroke="black" points="315,-119.03 311.5,-109.03 308,-119.03 315,-119.03"/>
<text text-anchor="middle" x="317.84" y="-118.92" font-family="Times-Roman" font-size="14.00">+</text>
</g>
<!-- Candidate Quality -->
<g id="node15" class="node">
<title>Candidate Quality</title>
<text text-anchor="middle" x="148.5" y="-87.3" font-family="Times-Roman" font-size="14.00">Candidate Quality</text>
</g>
<!-- Reputation&#45;&gt;Candidate Quality -->
<g id="edge21" class="edge">
<title>Reputation&#45;&gt;Candidate Quality</title>
<path fill="none" stroke="black" d="M272.46,-145.99C249.84,-136.14 221.17,-123.66 197.11,-113.17"/>
<polygon fill="black" stroke="black" points="198.35,-109.9 187.79,-109.11 195.56,-116.32 198.35,-109.9"/>
<text text-anchor="middle" x="202.78" y="-105.03" font-family="Times-Roman" font-size="14.00">+</text>
</g>
<!-- Project Engineers&#45;&gt;Bench Quality -->
<g id="edge12" class="edge">
<title>Project Engineers&#45;&gt;Bench Quality</title>
<path fill="none" stroke="black" d="M300.58,-486.8C293.68,-474.82 284.34,-458.62 276.52,-445.06"/>
<polygon fill="black" stroke="black" points="279.43,-443.09 271.4,-436.18 273.36,-446.59 279.43,-443.09"/>
<text text-anchor="middle" x="307.5" y="-457.8" font-family="Times-Roman" font-size="14.00">delay</text>
<text text-anchor="middle" x="283.68" y="-441.09" font-family="Times-Roman" font-size="14.00">+</text>
</g>
<!-- Hiring Number -->
<g id="node12" class="node">
<title>Hiring Number</title>
<text text-anchor="middle" x="456.5" y="-14.3" font-family="Times-Roman" font-size="14.00">Hiring Number</text>
</g>
<!-- Candidate Number&#45;&gt;Hiring Number -->
<g id="edge20" class="edge">
<title>Candidate Number&#45;&gt;Hiring Number</title>
<path fill="none" stroke="black" d="M346.23,-72.99C366.08,-63.27 391.18,-50.99 412.41,-40.59"/>
<polygon fill="black" stroke="black" points="414.11,-43.65 421.55,-36.11 411.03,-37.37 414.11,-43.65"/>
<text text-anchor="middle" x="412.13" y="-44.09" font-family="Times-Roman" font-size="14.00">+</text>
</g>
<!-- Hiring Number&#45;&gt;Bench Engineers -->
<g id="edge16" class="edge">
<title>Hiring Number&#45;&gt;Bench Engineers</title>
<path fill="none" stroke="black" d="M485.27,-36.07C497.92,-45.27 511.48,-57.85 518.5,-73 559.06,-160.51 521.5,-193.55 521.5,-290 521.5,-419 521.5,-419 521.5,-419 521.5,-442.36 506.46,-464.15 491.84,-479.82"/>
<polygon fill="black" stroke="black" points="489.29,-477.42 484.76,-486.99 494.27,-482.33 489.29,-477.42"/>
<text text-anchor="middle" x="489.79" y="-469.16" font-family="Times-Roman" font-size="14.00">+</text>
</g>
<!-- Hiring Quality -->
<g id="node13" class="node">
<title>Hiring Quality</title>
<text text-anchor="middle" x="167.5" y="-501.3" font-family="Times-Roman" font-size="14.00">Hiring Quality</text>
</g>
<!-- Hiring Quality&#45;&gt;Bench Quality -->
<g id="edge17" class="edge">
<title>Hiring Quality&#45;&gt;Bench Quality</title>
<path fill="none" stroke="black" d="M186.52,-486.8C200.41,-474.24 219.42,-457.05 234.83,-443.12"/>
<polygon fill="black" stroke="black" points="237.44,-445.48 242.51,-436.18 232.74,-440.29 237.44,-445.48"/>
<text text-anchor="middle" x="236.67" y="-446.3" font-family="Times-Roman" font-size="14.00">&#45;</text>
</g>
<!-- Hiring Target -->
<g id="node14" class="node">
<title>Hiring Target</title>
<text text-anchor="middle" x="456.5" y="-87.3" font-family="Times-Roman" font-size="14.00">Hiring Target</text>
</g>
<!-- Hiring Target&#45;&gt;Hiring Number -->
<g id="edge18" class="edge">
<title>Hiring Target&#45;&gt;Hiring Number</title>
<path fill="none" stroke="black" d="M456.5,-72.81C456.5,-64.79 456.5,-55.05 456.5,-46.07"/>
<polygon fill="black" stroke="black" points="460,-46.03 456.5,-36.03 453,-46.03 460,-46.03"/>
<text text-anchor="middle" x="462.84" y="-45.92" font-family="Times-Roman" font-size="14.00">+</text>
</g>
<!-- Candidate Quality&#45;&gt;Bench Quality -->
<g id="edge19" class="edge">
<title>Candidate Quality&#45;&gt;Bench Quality</title>
<path fill="none" stroke="black" d="M148.5,-109.22C148.5,-123.59 148.5,-144.63 148.5,-163 148.5,-346 148.5,-346 148.5,-346 148.5,-372.09 170.37,-388.97 194.86,-399.69"/>
<polygon fill="black" stroke="black" points="193.75,-403.01 204.34,-403.5 196.37,-396.52 193.75,-403.01"/>
<text text-anchor="middle" x="189.36" y="-400.61" font-family="Times-Roman" font-size="14.00">+</text>
</g>
<!-- Customer Satisfaction -->
<g id="node17" class="node">
<title>Customer Satisfaction</title>
<text text-anchor="middle" x="261.5" y="-233.3" font-family="Times-Roman" font-size="14.00">Customer Satisfaction</text>
</g>
<!-- Team Quality&#45;&gt;Customer Satisfaction -->
<g id="edge23" class="edge">
<title>Team Quality&#45;&gt;Customer Satisfaction</title>
<path fill="none" stroke="black" d="M261.5,-326.97C261.5,-310.38 261.5,-284.88 261.5,-265.43"/>
<polygon fill="black" stroke="black" points="265,-265.34 261.5,-255.34 258,-265.34 265,-265.34"/>
<text text-anchor="middle" x="267.84" y="-265.24" font-family="Times-Roman" font-size="14.00">+</text>
</g>
<!-- Customer Satisfaction&#45;&gt;Reputation -->
<g id="edge24" class="edge">
<title>Customer Satisfaction&#45;&gt;Reputation</title>
<path fill="none" stroke="black" d="M273.6,-218.81C279.62,-210.27 287.01,-199.77 293.67,-190.32"/>
<polygon fill="black" stroke="black" points="296.61,-192.22 299.51,-182.03 290.89,-188.19 296.61,-192.22"/>
<text text-anchor="middle" x="296.86" y="-193.09" font-family="Times-Roman" font-size="14.00">+</text>
</g>
</g>
</svg>
