<?xml version="1.0" encoding="UTF-8" standalone="no"?>
<!DOCTYPE svg PUBLIC "-//W3C//DTD SVG 1.1//EN"
 "http://www.w3.org/Graphics/SVG/1.1/DTD/svg11.dtd">
<!-- Generated by graphviz version 2.43.0 (0)
 -->
<!-- Title: mygraph Pages: 1 -->
<svg width="557pt" height="332pt"
 viewBox="0.00 0.00 557.50 332.00" xmlns="http://www.w3.org/2000/svg" xmlns:xlink="http://www.w3.org/1999/xlink">
<g id="graph0" class="graph" transform="scale(1 1) rotate(0) translate(4 328)">
<title>mygraph</title>
<polygon fill="white" stroke="transparent" points="-4,4 -4,-328 553.5,-328 553.5,4 -4,4"/>
<!-- Inbound Demand -->
<g id="node1" class="node">
<title>Inbound Demand</title>
<ellipse fill="none" stroke="black" cx="90.34" cy="-306" rx="89.08" ry="18"/>
<text text-anchor="middle" x="90.34" y="-302.3" font-family="Times-Roman" font-size="14.00">Inbound Demand</text>
</g>
<!-- Qualification calls -->
<g id="node2" class="node">
<title>Qualification calls</title>
<ellipse fill="none" stroke="black" cx="90.34" cy="-234" rx="90.18" ry="18"/>
<text text-anchor="middle" x="90.34" y="-230.3" font-family="Times-Roman" font-size="14.00">Qualification calls</text>
</g>
<!-- Inbound Demand&#45;&gt;Qualification calls -->
<g id="edge1" class="edge">
<title>Inbound Demand&#45;&gt;Qualification calls</title>
<path fill="none" stroke="black" d="M90.34,-287.7C90.34,-279.98 90.34,-270.71 90.34,-262.11"/>
<polygon fill="black" stroke="black" points="93.84,-262.1 90.34,-252.1 86.84,-262.1 93.84,-262.1"/>
<text text-anchor="middle" x="83.84" y="-255.9" font-family="Times-Roman" font-size="14.00">+</text>
</g>
<!-- Project offerings -->
<g id="node3" class="node">
<title>Project offerings</title>
<ellipse fill="none" stroke="black" cx="146.34" cy="-162" rx="83.69" ry="18"/>
<text text-anchor="middle" x="146.34" y="-158.3" font-family="Times-Roman" font-size="14.00">Project offerings</text>
</g>
<!-- Qualification calls&#45;&gt;Project offerings -->
<g id="edge2" class="edge">
<title>Qualification calls&#45;&gt;Project offerings</title>
<path fill="none" stroke="black" d="M103.9,-216.05C110.71,-207.54 119.09,-197.07 126.6,-187.68"/>
<polygon fill="black" stroke="black" points="129.4,-189.78 132.91,-179.79 123.93,-185.41 129.4,-189.78"/>
<text text-anchor="middle" x="126.41" y="-183.59" font-family="Times-Roman" font-size="14.00">+</text>
</g>
<!-- Closed deals -->
<g id="node6" class="node">
<title>Closed deals</title>
<ellipse fill="none" stroke="black" cx="322.34" cy="-90" rx="67.69" ry="18"/>
<text text-anchor="middle" x="322.34" y="-86.3" font-family="Times-Roman" font-size="14.00">Closed deals</text>
</g>
<!-- Project offerings&#45;&gt;Closed deals -->
<g id="edge5" class="edge">
<title>Project offerings&#45;&gt;Closed deals</title>
<path fill="none" stroke="black" d="M184.53,-145.81C211.69,-135.01 248.29,-120.45 276.94,-109.06"/>
<polygon fill="black" stroke="black" points="278.33,-112.27 286.33,-105.32 275.74,-105.77 278.33,-112.27"/>
<text text-anchor="middle" x="279.83" y="-109.12" font-family="Times-Roman" font-size="14.00">+</text>
</g>
<!-- Bench Engineers -->
<g id="node4" class="node">
<title>Bench Engineers</title>
<ellipse fill="none" stroke="black" cx="322.34" cy="-18" rx="87.18" ry="18"/>
<text text-anchor="middle" x="322.34" y="-14.3" font-family="Times-Roman" font-size="14.00">Bench Engineers</text>
</g>
<!-- Bench Engineers&#45;&gt;Qualification calls -->
<g id="edge3" class="edge">
<title>Bench Engineers&#45;&gt;Qualification calls</title>
<path fill="none" stroke="black" d="M255.02,-29.44C190.78,-43.37 97.45,-74.86 53.34,-144 40.46,-164.18 53.54,-189.61 67.58,-208.11"/>
<polygon fill="black" stroke="black" points="65.01,-210.5 74.01,-216.08 70.46,-206.1 65.01,-210.5"/>
<text text-anchor="middle" x="67.51" y="-204.88" font-family="Times-Roman" font-size="14.00">+</text>
</g>
<!-- Bench Engineers&#45;&gt;Closed deals -->
<g id="edge6" class="edge">
<title>Bench Engineers&#45;&gt;Closed deals</title>
<path fill="none" stroke="black" d="M328.25,-36.28C329.06,-44.03 329.28,-53.36 328.93,-62.01"/>
<polygon fill="black" stroke="black" points="325.44,-61.83 328.22,-72.05 332.42,-62.33 325.44,-61.83"/>
<text text-anchor="middle" x="321.72" y="-60.85" font-family="Times-Roman" font-size="14.00">+</text>
</g>
<!-- Bench Quality -->
<g id="node5" class="node">
<title>Bench Quality</title>
<ellipse fill="none" stroke="black" cx="322.34" cy="-162" rx="74.19" ry="18"/>
<text text-anchor="middle" x="322.34" y="-158.3" font-family="Times-Roman" font-size="14.00">Bench Quality</text>
</g>
<!-- Bench Quality&#45;&gt;Closed deals -->
<g id="edge4" class="edge">
<title>Bench Quality&#45;&gt;Closed deals</title>
<path fill="none" stroke="black" d="M322.34,-143.7C322.34,-135.98 322.34,-126.71 322.34,-118.11"/>
<polygon fill="black" stroke="black" points="325.84,-118.1 322.34,-108.1 318.84,-118.1 325.84,-118.1"/>
<text text-anchor="middle" x="315.84" y="-111.9" font-family="Times-Roman" font-size="14.00">+</text>
</g>
<!-- Closed deals&#45;&gt;Bench Engineers -->
<g id="edge8" class="edge">
<title>Closed deals&#45;&gt;Bench Engineers</title>
<path fill="none" stroke="black" d="M316.46,-72.05C315.65,-64.35 315.4,-55.03 315.74,-46.36"/>
<polygon fill="black" stroke="black" points="319.24,-46.49 316.43,-36.28 312.25,-46.01 319.24,-46.49"/>
<text text-anchor="middle" x="310.93" y="-40.08" font-family="Times-Roman" font-size="14.00">&#45;&#45;</text>
</g>
<!-- Reputation -->
<g id="node7" class="node">
<title>Reputation</title>
<ellipse fill="none" stroke="black" cx="474.34" cy="-162" rx="59.59" ry="18"/>
<text text-anchor="middle" x="474.34" y="-158.3" font-family="Times-Roman" font-size="14.00">Reputation</text>
</g>
<!-- Reputation&#45;&gt;Closed deals -->
<g id="edge7" class="edge">
<title>Reputation&#45;&gt;Closed deals</title>
<path fill="none" stroke="black" d="M442.85,-146.5C419.95,-135.95 388.72,-121.57 363.8,-110.09"/>
<polygon fill="black" stroke="black" points="365.13,-106.85 354.58,-105.85 362.2,-113.21 365.13,-106.85"/>
<text text-anchor="middle" x="348.08" y="-109.65" font-family="Times-Roman" font-size="14.00">+</text>
</g>
<!-- Hiring -->
<g id="node8" class="node">
<title>Hiring</title>
<ellipse fill="none" stroke="black" cx="442.34" cy="-234" rx="38.19" ry="18"/>
<text text-anchor="middle" x="442.34" y="-230.3" font-family="Times-Roman" font-size="14.00">Hiring</text>
</g>
<!-- Hiring&#45;&gt;Bench Engineers -->
<g id="edge9" class="edge">
<title>Hiring&#45;&gt;Bench Engineers</title>
<path fill="none" stroke="black" d="M475.94,-225.15C499.31,-217.74 528.79,-204.06 543.34,-180 551.62,-166.31 551.4,-157.82 543.34,-144 509.58,-86.11 437.97,-52.89 385.38,-35.46"/>
<polygon fill="black" stroke="black" points="386.38,-32.11 375.79,-32.39 384.24,-38.77 386.38,-32.11"/>
<text text-anchor="middle" x="369.29" y="-36.19" font-family="Times-Roman" font-size="14.00">+</text>
</g>
<!-- Hiring&#45;&gt;Bench Quality -->
<g id="edge10" class="edge">
<title>Hiring&#45;&gt;Bench Quality</title>
<path fill="none" stroke="black" d="M419.2,-219.5C401.96,-209.44 378.08,-195.51 358.35,-184"/>
<polygon fill="black" stroke="black" points="360.01,-180.92 349.61,-178.91 356.48,-186.97 360.01,-180.92"/>
<text text-anchor="middle" x="344.11" y="-182.71" font-family="Times-Roman" font-size="14.00">&#45;&#45;</text>
</g>
</g>
</svg>
