<?xml version="1.0" encoding="UTF-8" standalone="no"?>
<svg
   xmlns:dc="http://purl.org/dc/elements/1.1/"
   xmlns:cc="http://creativecommons.org/ns#"
   xmlns:rdf="http://www.w3.org/1999/02/22-rdf-syntax-ns#"
   xmlns:svg="http://www.w3.org/2000/svg"
   xmlns="http://www.w3.org/2000/svg"
   xmlns:sodipodi="http://sodipodi.sourceforge.net/DTD/sodipodi-0.dtd"
   xmlns:inkscape="http://www.inkscape.org/namespaces/inkscape"
   width="2.9448349mm"
   height="3.0124347mm"
   viewBox="0 0 2.944835 3.0124347"
   version="1.1"
   id="svg8"
   sodipodi:docname="long-line.svg"
   inkscape:version="1.0.2 (e86c870879, 2021-01-15)">
  <defs
     id="defs2" />
  <sodipodi:namedview
     id="base"
     pagecolor="#ffffff"
     bordercolor="#666666"
     borderopacity="1.0"
     inkscape:pageopacity="0.0"
     inkscape:pageshadow="2"
     inkscape:zoom="6.0208926"
     inkscape:cx="19.513607"
     inkscape:cy="62.04018"
     inkscape:document-units="mm"
     inkscape:current-layer="layer1"
     inkscape:document-rotation="0"
     showgrid="false"
     inkscape:window-width="1920"
     inkscape:window-height="1043"
     inkscape:window-x="0"
     inkscape:window-y="0"
     inkscape:window-maximized="1"
     fit-margin-top="5"
     fit-margin-left="5"
     fit-margin-right="5"
     fit-margin-bottom="5" />
  <metadata
     id="metadata5">
    <rdf:RDF>
      <cc:Work
         rdf:about="">
        <dc:format>image/svg+xml</dc:format>
        <dc:type
           rdf:resource="http://purl.org/dc/dcmitype/StillImage" />
        <dc:title />
      </cc:Work>
    </rdf:RDF>
  </metadata>
  <g
     inkscape:label="Layer 1"
     inkscape:groupmode="layer"
     id="layer1"
     transform="translate(-65.595243,-66.005997)">
    <g
       id="g1964"
       style="stroke:none"
       transform="translate(37.203085,1.9518409)">
      <path
         style="opacity:1;fill:#003a92;fill-opacity:1;stroke:none;stroke-width:1.05833px;stroke-linejoin:round;stroke-miterlimit:10;stroke-opacity:1"
         d="m 29.6031,64.1708 c 0,0.2865 0.577,0.5613 1.0558,0.7638 0.4686,0.1945 0.8617,0.3072 0.5877,0.3159 -0.0115,4e-4 -0.0229,0.0203 -0.0344,0.0565 -0.2865,0.1821 -0.5613,0.6668 -0.7639,1.056 -0.2025,0.4881 -0.3164,0.895 -0.3164,0.6085 v -4e-4 c 3e-4,-0.5851 -2.2238,-1.0614 -1.643,-1.0793 0.0113,-4e-4 0.0226,-0.0203 0.0339,-0.0565 0.5966,-0.3947 1.0803,-2.2611 1.0803,-1.6645 z"
         id="path1846" />
    </g>
  </g>
</svg>
