<?xml version="1.0" encoding="UTF-8" standalone="no"?>
<svg
   xmlns:dc="http://purl.org/dc/elements/1.1/"
   xmlns:cc="http://creativecommons.org/ns#"
   xmlns:rdf="http://www.w3.org/1999/02/22-rdf-syntax-ns#"
   xmlns:svg="http://www.w3.org/2000/svg"
   xmlns="http://www.w3.org/2000/svg"
   xmlns:sodipodi="http://sodipodi.sourceforge.net/DTD/sodipodi-0.dtd"
   xmlns:inkscape="http://www.inkscape.org/namespaces/inkscape"
   width="4.638556mm"
   height="4.8289633mm"
   viewBox="0 0 4.638556 4.8289633"
   version="1.1"
   id="svg8"
   sodipodi:docname="long-line.svg"
   inkscape:version="1.0.2 (e86c870879, 2021-01-15)">
  <defs
     id="defs2" />
  <sodipodi:namedview
     id="base"
     pagecolor="#ffffff"
     bordercolor="#666666"
     borderopacity="1.0"
     inkscape:pageopacity="0.0"
     inkscape:pageshadow="2"
     inkscape:zoom="6.0208926"
     inkscape:cx="19.513607"
     inkscape:cy="62.04018"
     inkscape:document-units="mm"
     inkscape:current-layer="layer1"
     inkscape:document-rotation="0"
     showgrid="false"
     inkscape:window-width="1920"
     inkscape:window-height="1043"
     inkscape:window-x="0"
     inkscape:window-y="0"
     inkscape:window-maximized="1"
     fit-margin-top="5"
     fit-margin-left="5"
     fit-margin-right="5"
     fit-margin-bottom="5" />
  <metadata
     id="metadata5">
    <rdf:RDF>
      <cc:Work
         rdf:about="">
        <dc:format>image/svg+xml</dc:format>
        <dc:type
           rdf:resource="http://purl.org/dc/dcmitype/StillImage" />
        <dc:title />
      </cc:Work>
    </rdf:RDF>
  </metadata>
  <g
     inkscape:label="Layer 1"
     inkscape:groupmode="layer"
     id="layer1"
     transform="translate(-62.423256,56.060794)">
    <g
       id="g1964"
       style="stroke:none"
       transform="translate(37.203085,1.9518409)">
      <path
         style="opacity:1;fill:#0064fc;fill-opacity:1;stroke:none;stroke-width:1.05833px;stroke-linejoin:round;stroke-miterlimit:10;stroke-opacity:1"
         d="m 25.2462,-58.0126 c 0,0.0067 1.1884,0.0131 2.3586,0.0178 1.1386,0.0045 2.2602,0.0071 2.2539,0.0073 -3e-4,0 -6e-4,0.0341 -8e-4,0.0965 -0.0067,0.314 -0.0131,1.3432 -0.0178,2.3588 -0.0047,1.1862 -0.0074,2.3551 -0.0074,2.3485 v 0 c 0,-0.0137 -4.626,-0.0247 -4.6125,-0.0251 3e-4,-1e-4 6e-4,-0.0341 8e-4,-0.0965 0.0139,-0.6806 0.0252,-4.7211 0.0252,-4.7073 z"
         id="path1762" />
    </g>
  </g>
</svg>
