<?xml version="1.0" encoding="UTF-8" standalone="no"?>
<svg
   xmlns:dc="http://purl.org/dc/elements/1.1/"
   xmlns:cc="http://creativecommons.org/ns#"
   xmlns:rdf="http://www.w3.org/1999/02/22-rdf-syntax-ns#"
   xmlns:svg="http://www.w3.org/2000/svg"
   xmlns="http://www.w3.org/2000/svg"
   xmlns:sodipodi="http://sodipodi.sourceforge.net/DTD/sodipodi-0.dtd"
   xmlns:inkscape="http://www.inkscape.org/namespaces/inkscape"
   width="3.1151521mm"
   height="3.193414mm"
   viewBox="0 0 3.1151521 3.193414"
   version="1.1"
   id="svg8"
   sodipodi:docname="long-line.svg"
   inkscape:version="1.0.2 (e86c870879, 2021-01-15)">
  <defs
     id="defs2" />
  <sodipodi:namedview
     id="base"
     pagecolor="#ffffff"
     bordercolor="#666666"
     borderopacity="1.0"
     inkscape:pageopacity="0.0"
     inkscape:pageshadow="2"
     inkscape:zoom="6.0208926"
     inkscape:cx="19.513607"
     inkscape:cy="62.04018"
     inkscape:document-units="mm"
     inkscape:current-layer="layer1"
     inkscape:document-rotation="0"
     showgrid="false"
     inkscape:window-width="1920"
     inkscape:window-height="1043"
     inkscape:window-x="0"
     inkscape:window-y="0"
     inkscape:window-maximized="1"
     fit-margin-top="5"
     fit-margin-left="5"
     fit-margin-right="5"
     fit-margin-bottom="5" />
  <metadata
     id="metadata5">
    <rdf:RDF>
      <cc:Work
         rdf:about="">
        <dc:format>image/svg+xml</dc:format>
        <dc:type
           rdf:resource="http://purl.org/dc/dcmitype/StillImage" />
        <dc:title />
      </cc:Work>
    </rdf:RDF>
  </metadata>
  <g
     inkscape:label="Layer 1"
     inkscape:groupmode="layer"
     id="layer1"
     transform="translate(-65.233669,-51.493454)">
    <g
       id="g1964"
       style="stroke:none"
       transform="translate(37.203085,1.9518409)">
      <path
         style="opacity:1;fill:#003f9f;fill-opacity:1;stroke:none;stroke-width:1.05833px;stroke-linejoin:round;stroke-miterlimit:10;stroke-opacity:1"
         d="m 29.0844,49.6251 c 0,0.2532 0.6498,0.4961 1.211,0.6751 0.5483,0.1718 1.0281,0.2714 0.7859,0.2791 -0.0101,3e-4 -0.0202,0.022 -0.0303,0.0613 -0.2532,0.1978 -0.496,0.7473 -0.6751,1.211 -0.179,0.5713 -0.2796,1.0689 -0.2796,0.8157 v -4e-4 c 2e-4,-0.517 -2.5098,-0.9379 -1.9965,-0.9538 0.0099,-3e-4 0.0199,-0.0219 0.03,-0.0612 0.5272,-0.4288 0.9546,-2.554 0.9546,-2.0268 z"
         id="path1836" />
    </g>
  </g>
</svg>
