<?xml version="1.0" encoding="UTF-8" standalone="no"?>
<!-- Created with Inkscape (http://www.inkscape.org/) -->

<svg
   xmlns:dc="http://purl.org/dc/elements/1.1/"
   xmlns:cc="http://creativecommons.org/ns#"
   xmlns:rdf="http://www.w3.org/1999/02/22-rdf-syntax-ns#"
   xmlns:svg="http://www.w3.org/2000/svg"
   xmlns="http://www.w3.org/2000/svg"
   xmlns:sodipodi="http://sodipodi.sourceforge.net/DTD/sodipodi-0.dtd"
   xmlns:inkscape="http://www.inkscape.org/namespaces/inkscape"
   width="1250"
   height="700"
   viewBox="0 0 1250 699.99995"
   id="svg5056"
   version="1.1"
   inkscape:version="0.91 r"
   sodipodi:docname="logo.svg"
   inkscape:export-filename="/home/matthias/projects/homepage/MMesch.github.io/images/logo.png"
   inkscape:export-xdpi="100"
   inkscape:export-ydpi="100">
  <sodipodi:namedview
     id="base"
     pagecolor="#ffffff"
     bordercolor="#666666"
     borderopacity="1.0"
     inkscape:pageopacity="0.0"
     inkscape:pageshadow="2"
     inkscape:zoom="0.49497475"
     inkscape:cx="586.84387"
     inkscape:cy="146.08851"
     inkscape:document-units="px"
     inkscape:current-layer="layer1"
     showgrid="false"
     inkscape:window-width="1855"
     inkscape:window-height="1056"
     inkscape:window-x="193"
     inkscape:window-y="1104"
     inkscape:window-maximized="1"
     fit-margin-top="5"
     fit-margin-left="5"
     fit-margin-right="5"
     fit-margin-bottom="5"
     units="px" />
  <defs
     id="defs5058" />
  <metadata
     id="metadata5061">
    <rdf:RDF>
      <cc:Work
         rdf:about="">
        <dc:format>image/svg+xml</dc:format>
        <dc:type
           rdf:resource="http://purl.org/dc/dcmitype/StillImage" />
        <dc:title></dc:title>
      </cc:Work>
    </rdf:RDF>
  </metadata>
  <g
     transform="translate(86.285709,259.31844)"
     inkscape:label="Layer 1"
     inkscape:groupmode="layer"
     id="layer1">
    <g
       id="g7099"
       transform="matrix(2.7586283,0,0,2.7586283,169.21532,-917.72478)">
      <path
         id="path7101"
         style="opacity:1;fill:none;fill-rule:evenodd;stroke:#ff0000;stroke-width:1;stroke-linecap:butt;stroke-linejoin:miter;stroke-opacity:1"
         d="m -80.812204,363.43817 c 21.905414,3.61033 25.967338,27.53232 33.875896,46.77555 5.760286,14.01601 13.561251,25.54989 31.78402,24.94527 4.998098,-0.16583 9.8700923,-1.13167 14.64033383,-2.71049 C 22.803507,424.73174 43.688152,402.37125 64.98541,387.20497 c 12.043331,-8.57634 24.218606,-14.85215 37.04,-14.87848 0,0 15.72391,0 39.24501,0 69.79438,0 208.24236,0 208.24236,0"
         inkscape:connector-curvature="0" />
      <path
         id="path7103"
         style="opacity:1;fill:none;fill-rule:evenodd;stroke:#d4002a;stroke-width:1;stroke-linecap:butt;stroke-linejoin:miter;stroke-opacity:1"
         d="m -80.812204,362.46186 c 21.30087,-5.97308 24.874497,12.61832 33.289209,28.50424 6.120157,11.57141 13.323968,26.1397 29.963031,28.48258 4.720421,0.94951 9.4453113,0.92431 14.2712367,-0.32001 23.5234953,-6.08722 40.6343183,-35.80444 64.6826623,-48.64626 12.79507,-7.23595 23.724119,-9.41209 35.478819,-6.5354 0.9543,2.58472 15.240236,5.04615 37.856826,5.04615 58.16199,0 214.7832,0 214.7832,0"
         inkscape:connector-curvature="0" />
      <path
         id="path7105"
         style="opacity:1;fill:none;fill-rule:evenodd;stroke:#aa0055;stroke-width:1;stroke-linecap:butt;stroke-linejoin:miter;stroke-opacity:1"
         d="m -80.812204,361.48555 c 20.696325,-15.55648 23.781656,-2.29568 32.702522,10.23293 6.480027,9.1268 13.086686,26.7295 28.142041,32.01988 4.442745,2.06487 9.020531,2.98031 13.9021406,2.07048 23.7315284,-4.45769 37.0685314,-41.53164 63.8679604,-52.04899 13.546809,-5.89556 23.229633,-3.97204 33.917639,1.80769 1.9086,5.16943 14.756561,10.09228 36.468651,10.09228 46.52958,0 221.32403,0 221.32403,0"
         inkscape:connector-curvature="0" />
      <path
         id="path7107"
         style="opacity:1;fill:none;fill-rule:evenodd;stroke:#7f007f;stroke-width:1;stroke-linecap:butt;stroke-linejoin:miter;stroke-opacity:1"
         d="m -80.812204,360.50924 c 20.091781,-25.13989 22.688816,-17.20969 32.115835,-8.03838 6.839898,6.6822 12.849403,27.31931 26.321052,35.55719 4.165068,3.18022 8.59575,5.03629 13.5330434,4.46097 23.9395616,-2.82816 33.5027436,-47.25884 63.0532586,-55.45173 14.298549,-4.55516 22.735146,1.46802 32.356458,10.15077 2.8629,7.75415 14.272877,15.13843 35.080467,15.13843 34.89719,0 227.86487,0 227.86487,0"
         inkscape:connector-curvature="0" />
      <path
         id="path7109"
         style="opacity:1;fill:none;fill-rule:evenodd;stroke:#5500aa;stroke-width:1;stroke-linecap:butt;stroke-linejoin:miter;stroke-opacity:1"
         d="m -80.812204,359.53293 c 19.487237,-34.7233 21.595975,-32.12369 31.529149,-26.30969 7.199767,4.23759 12.61212,27.90911 24.500062,39.0945 3.887391,4.29556 8.170969,7.09228 13.163946,6.85145 24.147595,-1.19863 29.936956,-52.98604 62.238557,-58.85445 15.050288,-3.21478 22.24066,6.90806 30.795277,18.49385 3.8172,10.33885 13.789203,20.18457 33.692293,20.18457 23.26479,0 234.4057,0 234.4057,0"
         inkscape:connector-curvature="0" />
      <path
         id="path7111"
         style="opacity:1;fill:none;fill-rule:evenodd;stroke:#2a00d4;stroke-width:1;stroke-linecap:butt;stroke-linejoin:miter;stroke-opacity:1"
         d="m -80.812204,358.55662 c 18.882692,-44.30671 20.503134,-47.0377 30.942462,-44.581 7.559637,1.79298 12.374837,28.49892 22.679073,42.6318 3.609714,5.41092 7.746188,9.14827 12.794849,9.24194 24.3556277,0.43091 26.371168,-58.71323 61.423855,-62.25718 15.802027,-1.87438 21.746173,12.34811 29.234097,26.83693 4.771499,12.92357 13.305524,25.23071 32.304108,25.23071 11.6324,0 240.94654,0 240.94654,0"
         inkscape:connector-curvature="0" />
      <path
         id="path7113"
         style="opacity:1;fill:none;fill-rule:evenodd;stroke:#0000ff;stroke-width:1;stroke-linecap:butt;stroke-linejoin:miter;stroke-opacity:1"
         d="m -80.812204,357.58031 c 18.278148,-53.89012 19.410293,-61.9517 30.355775,-62.85231 7.919508,-0.65162 12.137555,29.08872 20.858083,46.16911 3.332037,6.52627 7.321408,11.20426 12.425753,11.63242 24.5636608,2.06044 22.8053805,-64.44043 60.609153,-65.65991 16.553767,-0.53399 21.251687,17.78817 27.672916,35.18002 5.7258,15.50828 12.821847,30.27685 30.915934,30.27685 0,0 247.48737,0 247.48737,0"
         inkscape:connector-curvature="0" />
    </g>
  </g>
</svg>
