<?xml version="1.0" encoding="UTF-8" standalone="no"?>
<!-- Created with Inkscape (http://www.inkscape.org/) -->

<svg
   xmlns:dc="http://purl.org/dc/elements/1.1/"
   xmlns:cc="http://creativecommons.org/ns#"
   xmlns:rdf="http://www.w3.org/1999/02/22-rdf-syntax-ns#"
   xmlns:svg="http://www.w3.org/2000/svg"
   xmlns="http://www.w3.org/2000/svg"
   xmlns:sodipodi="http://sodipodi.sourceforge.net/DTD/sodipodi-0.dtd"
   xmlns:inkscape="http://www.inkscape.org/namespaces/inkscape"
   width="131.5809mm"
   height="52.143673mm"
   viewBox="0 0 466.23154 184.76104"
   id="svg5056"
   version="1.1"
   inkscape:version="0.91 r"
   sodipodi:docname="logo.svg">
  <sodipodi:namedview
     id="base"
     pagecolor="#ffffff"
     bordercolor="#666666"
     borderopacity="1.0"
     inkscape:pageopacity="0.0"
     inkscape:pageshadow="2"
     inkscape:zoom="0.98994949"
     inkscape:cx="420.93312"
     inkscape:cy="82.802145"
     inkscape:document-units="px"
     inkscape:current-layer="layer1"
     showgrid="false"
     inkscape:window-width="1855"
     inkscape:window-height="1056"
     inkscape:window-x="193"
     inkscape:window-y="1104"
     inkscape:window-maximized="1"
     fit-margin-top="5"
     fit-margin-left="5"
     fit-margin-right="5"
     fit-margin-bottom="5" />
  <defs
     id="defs5058" />
  <metadata
     id="metadata5061">
    <rdf:RDF>
      <cc:Work
         rdf:about="">
        <dc:format>image/svg+xml</dc:format>
        <dc:type
           rdf:resource="http://purl.org/dc/dcmitype/StillImage" />
        <dc:title></dc:title>
      </cc:Work>
    </rdf:RDF>
  </metadata>
  <g
     transform="translate(99.002245,-268.63706)"
     inkscape:label="Layer 1"
     inkscape:groupmode="layer"
     id="layer1">
    <path
       style="fill:none;fill-rule:evenodd;stroke:#ff0000;stroke-width:1px;stroke-linecap:butt;stroke-linejoin:miter;stroke-opacity:1"
       d="m -80.812204,363.43817 c 37.860468,6.23996 22.418283,73.15556 65.659916,71.72082 43.241633,-1.43474 77.044299,-62.75008 117.177698,-62.8325 l 247.48737,0"
       id="path5604"
       inkscape:connector-curvature="0"
       sodipodi:nodetypes="czcc" />
    <path
       style="fill:none;fill-rule:evenodd;stroke:#0000ff;stroke-width:1px;stroke-linecap:butt;stroke-linejoin:miter;stroke-opacity:1"
       d="m -80.812204,357.58031 c 18.278148,-53.89012 19.410293,-61.9517 30.355775,-62.85231 10.945482,-0.9006 14.820522,56.2528 33.283836,57.80153 24.5636608,2.06044 22.8053805,-64.44043 60.609153,-65.65991 31.314734,-1.01015 20.203051,65.45687 58.58885,65.45687 l 247.48737,0"
       id="path5604-0"
       inkscape:connector-curvature="0"
       sodipodi:nodetypes="czsssc" />
    <g
       id="g7099">
      <path
         id="path7101"
         style="stroke-linejoin:miter;opacity:1.0;stroke-opacity:1.0;fill-rule:evenodd;stroke:#ff0000;stroke-linecap:butt;stroke-width:1.0;fill:none"
         d="M-80.812204 363.43817C-58.9067897906 367.048503302 -54.8448658628 390.970493374 -46.9363082637 410.213715262C-41.1760217567 424.229731458 -33.3750574732 435.763614166 -15.152288 435.15899C-10.1541897033 434.993155108 -5.2821957022 434.027317324 -0.511954169741 432.448502117C22.8035074769 424.731742876 43.6881521869 402.371251388 64.9854096904 387.204968988C77.0287409586 378.628627034 89.2040159061 372.35282067 102.02541 372.32649C102.02541 372.32649 117.749324934 372.32649 141.270416802 372.32649C211.064796611 372.32649 349.51278 372.32649 349.51278 372.32649" />
      <path
         id="path7103"
         style="stroke-linejoin:miter;opacity:1.0;stroke-opacity:1.0;fill-rule:evenodd;stroke:#d4002a;stroke-linecap:butt;stroke-width:1.0;fill:none"
         d="M-80.812204 362.46186C-59.5113341589 356.488784418 -55.937706719 375.080179478 -47.5229950531 390.966096052C-41.4028383248 402.537506006 -34.1990269345 417.105798554 -17.5599642757 419.448676698C-12.839542839 420.398192022 -8.11465267333 420.37299278 -3.28872730812 419.12867343C20.2347675307 413.041447396 37.3455914058 383.324226156 61.393934742 370.482410823C74.189005224 363.246460688 85.1180544143 361.070315461 96.8727543124 363.947014642C97.8270542574 366.531728598 112.112991235 368.993156667 134.729582335 368.993156667C192.891565509 368.993156667 349.51278 368.993156667 349.51278 368.993156667" />
      <path
         id="path7105"
         style="stroke-linejoin:miter;opacity:1.0;stroke-opacity:1.0;fill-rule:evenodd;stroke:#aa0055;stroke-linecap:butt;stroke-width:1.0;fill:none"
         d="M-80.812204 361.48555C-60.1158785271 345.929065535 -57.0305475752 359.189865583 -48.1096818425 371.718476842C-41.6296548928 380.845280553 -35.0229963958 398.447982942 -19.9676405514 403.738363396C-15.5248959748 405.803228937 -10.9471096445 406.718668235 -6.06550044649 405.808844744C17.6660275846 401.351151917 31.0030306246 364.277200925 57.8024597936 353.759852659C71.3492694895 347.864294343 81.0320929225 349.787810251 91.7200986248 355.567539283C93.6286985148 360.736967197 106.476657536 365.659823333 128.188747868 365.659823333C174.718334407 365.659823333 349.51278 365.659823333 349.51278 365.659823333" />
      <path
         id="path7107"
         style="stroke-linejoin:miter;opacity:1.0;stroke-opacity:1.0;fill-rule:evenodd;stroke:#7f007f;stroke-linecap:butt;stroke-width:1.0;fill:none"
         d="M-80.812204 360.50924C-60.7204228953 335.369346651 -58.1233884314 343.299551687 -48.6963686318 352.470857631C-41.8564714608 359.1530551 -35.8469658572 379.79016733 -22.3753168271 388.028050095C-18.2102491105 391.208265852 -13.7795666156 393.06434369 -8.84227358487 392.489016058C15.0972876384 389.660856438 24.6604698435 345.230175694 54.2109848452 337.037294494C68.5095337549 332.482127998 76.9461314307 338.505305041 86.5674429372 347.188063925C89.4303427722 354.942205795 100.840323837 362.32649 121.647913401 362.32649C156.545103306 362.32649 349.51278 362.32649 349.51278 362.32649" />
      <path
         id="path7109"
         style="stroke-linejoin:miter;opacity:1.0;stroke-opacity:1.0;fill-rule:evenodd;stroke:#5500aa;stroke-linecap:butt;stroke-width:1.0;fill:none"
         d="M-80.812204 359.53293C-61.3249672635 324.809627767 -59.2162292876 327.409237791 -49.2830554212 333.223238421C-42.0832880289 337.460829647 -36.6709353185 361.132351718 -24.7829931028 372.317736793C-20.8956022463 376.613302767 -16.6120235867 379.410019145 -11.6190467232 379.169187372C12.5285476923 377.970560959 18.3179090623 326.183150463 50.6195098968 320.314736329C65.6697980203 317.099961653 72.8601699389 327.222799831 81.4147872496 338.808588566C85.2319870295 349.147444394 95.2039901376 358.993156667 115.107078934 358.993156667C138.371872204 358.993156667 349.51278 358.993156667 349.51278 358.993156667" />
      <path
         id="path7111"
         style="stroke-linejoin:miter;opacity:1.0;stroke-opacity:1.0;fill-rule:evenodd;stroke:#2a00d4;stroke-linecap:butt;stroke-width:1.0;fill:none"
         d="M-80.812204 358.55662C-61.9295116318 314.249908884 -60.3090701438 311.518923896 -49.8697422106 313.97561921C-42.3101045969 315.768604194 -37.4949047798 342.474536106 -27.1906693785 356.607423491C-23.580955382 362.018339681 -19.4444805579 365.7556946 -14.3958198616 365.849358686C9.95980774614 366.280265479 11.9753482812 307.136125231 47.0280349484 303.592178165C62.8300622857 301.717795308 68.7742084471 315.940294622 76.2621315619 330.429113208C81.0336312869 343.352682992 89.5676564385 355.659823333 108.566244467 355.659823333C120.198641102 355.659823333 349.51278 355.659823333 349.51278 355.659823333" />
      <path
         id="path7113"
         style="stroke-linejoin:miter;opacity:1.0;stroke-opacity:1.0;fill-rule:evenodd;stroke:#0000ff;stroke-linecap:butt;stroke-width:1.0;fill:none"
         d="M-80.812204 357.58031C-62.534056 303.69019 -61.401911 295.62861 -50.456429 294.728C-42.536921165 294.076378741 -38.3188742411 323.816720494 -29.5983456543 340.897110189C-26.2663085178 347.423376596 -22.276937529 352.101370055 -17.172593 352.52953C7.3910678 354.58997 5.6327875 288.0891 43.43656 286.86962C59.9903265511 286.335628963 64.6882469553 304.657789412 71.1094758743 322.04963785C76.8352755443 337.557921591 83.9313227394 352.32649 102.02541 352.32649C102.02541 352.32649 349.51278 352.32649 349.51278 352.32649" />
    </g>
  </g>
</svg>
