<?xml version="1.0" encoding="UTF-8" standalone="no"?>
<!-- Created with Inkscape (http://www.inkscape.org/) -->

<svg
   xmlns:dc="http://purl.org/dc/elements/1.1/"
   xmlns:cc="http://creativecommons.org/ns#"
   xmlns:rdf="http://www.w3.org/1999/02/22-rdf-syntax-ns#"
   xmlns:svg="http://www.w3.org/2000/svg"
   xmlns="http://www.w3.org/2000/svg"
   xmlns:sodipodi="http://sodipodi.sourceforge.net/DTD/sodipodi-0.dtd"
   xmlns:inkscape="http://www.inkscape.org/namespaces/inkscape"
   width="2000"
   height="5000"
   viewBox="0 0 529.16665 1322.9167"
   version="1.1"
   id="svg1080"
   inkscape:version="0.92.4 (5da689c313, 2019-01-14)"
   sodipodi:docname="brokensquares.svg">
  <defs
     id="defs1074" />
  <sodipodi:namedview
     id="base"
     pagecolor="#ffffff"
     bordercolor="#666666"
     borderopacity="1.0"
     inkscape:pageopacity="0.0"
     inkscape:pageshadow="2"
     inkscape:zoom="0.12374369"
     inkscape:cx="265.48467"
     inkscape:cy="2419.7453"
     inkscape:document-units="mm"
     inkscape:current-layer="layer1"
     showgrid="false"
     units="px"
     inkscape:window-width="1920"
     inkscape:window-height="1016"
     inkscape:window-x="0"
     inkscape:window-y="27"
     inkscape:window-maximized="1" />
  <metadata
     id="metadata1077">
    <rdf:RDF>
      <cc:Work
         rdf:about="">
        <dc:format>image/svg+xml</dc:format>
        <dc:type
           rdf:resource="http://purl.org/dc/dcmitype/StillImage" />
        <dc:title />
      </cc:Work>
    </rdf:RDF>
  </metadata>
  <g
     inkscape:label="Layer 1"
     inkscape:groupmode="layer"
     id="layer1"
     transform="translate(0,1025.9167)">
    <path
       inkscape:connector-curvature="0"
       id="path1677"
       d="m 71.782076,-1008.0304 c -1.837344,3.7803 0.347922,42.55372 7.153591,51.7765 7.568347,6.37578 296.317253,3.36173 302.180473,10.73426 -9.13528,-2.86017 -14.3744,-85.55636 -11.30297,-79.71626 -5.74347,-1.0216 -74.8413,2.0784 -82.53698,4.4093 6.47945,6.0932 17.09671,211.77233 13.28327,205.07084 -0.88626,1.32623 176.71163,4.04609 175.91145,-1.14739 2.8431,9.3795 -1.18231,-137.9586 -1.224,-128.84178 4.27531,7.68393 22.46497,-0.87306 13.24278,0.213 4.50705,-2.99628 13.49332,245.42038 8.77905,239.06638 5.00012,-1.56941 -100.60831,5.7983 -98.76134,0.32155 5.03619,-8.82184 -4.06825,-195.91086 -9.00699,-188.25949 -6.05873,7.03777 -258.49748,0.20723 -264.97249,-1.73374 -0.67277,-3.04749 -16.80978,368.97954 -15.61606,363.31712 -2.16786,8.23165 299.75706,6.0395 307.45807,-1.75585 -2.10553,7.93315 -7.65104,-69.67475 -1.46319,-68.03731 -9.17084,5.49609 -181.63969,2.31502 -186.36927,-3.06648 -9.33613,-6.87015 3.89919,-170.69243 3.96368,-176.87083 4.0561,-6.45431 72.0761,-11.31249 71.20285,-13.63799 -1.49221,-2.94534 0.86734,389.54817 -1.11067,386.60941 -9.45721,6.77066 -114.28026,8.14066 -106.76473,3.0127 8.04553,-1.59354 -0.0973,-189.42453 5.82664,-183.81412 -9.0297,-2.25888 -136.376269,-1.54737 -135.031291,3.60974 -6.415406,2.81415 -1.662273,383.14696 6.524106,385.23665 -7.113724,9.08861 106.895035,9.33289 115.114495,10.73395 2.68751,4.92792 -12.88753,-66.36175 -5.93365,-63.44366 2.9768,2.78437 -183.4053426,-8.85385 -186.2591723,-8.56234 -2.3953534,-7.74883 5.5934948,-98.89919 -3.2698759,-98.01262 -0.526642,-3.81466 251.1890682,-7.53735 253.7213182,-5.77443 5.78801,4.85653 -5.33333,-93.03285 0.0296,-95.94413 7.95879,7.02452 225.58458,-10.23429 226.85831,-7.82877 -1.26047,6.70078 4.13199,-202.55703 -2.82043,-200.48469 -0.40624,-6.15979 -456.905963,15.36884 -448.329457,13.49478 -0.323013,-3.17992 19.981191,-69.57042 11.404096,-60.85873 7.855257,-8.58696 528.604081,7.13918 535.228671,-0.22521 -2.34358,-7.28944 -0.11785,400.90242 -4.81158,401.24528 -0.26116,6.2552 -446.61492,-0.81311 -442.41872,-0.75536 -3.72725,7.04358 -2.51092,201.55152 -7.40526,205.32367 -4.19476,-9.07221 105.11442,-4.30655 113.47744,-0.78722 -5.86591,-2.60301 4.90142,-105.11699 13.26221,-105.36446 0.12193,-0.94539 138.59759,-16.04935 135.28527,-13.44301 -2.22769,-2.73379 -15.5813,-122.74921 -7.08755,-123.63591 2.81334,3.77654 90.76362,-1.48326 98.29056,-8.85521 7.43997,-2.96349 11.66765,184.19338 15.22333,183.91059 -6.23954,3.87551 -193.45771,-11.65164 -188.08699,-4.82362 8.83152,8.04287 2.51339,-75.17254 7.70055,-78.18204 -0.39039,-3.03242 129.3819,-1.98799 121.97438,6.16779 8.81861,2.67961 -20.70643,150.01546 -15.8076,150.10254 8.35428,-1.89735 -143.47178,-4.46958 -135.02418,-1.25712 1.10743,-8.75622 -7.95019,61.332901 -4.87142,70.410822 -5.96707,9.108192 -182.09817,5.069763 -188.037826,10.316315 3.839266,-0.202646 0.684018,-42.789018 -0.968903,-46.678033 0.702805,-4.490836 -109.244385,-11.3716 -116.591828,-4.722276 -7.612428,4.021195 -0.06472,-63.953658 -0.855252,-64.417958 -5.688587,5.07783 204.158029,2.87498 213.336039,9.96335 -7.33156,1.22918 3.94641,211.3645 5.55324,203.985636 C 181.45771,62.908288 0.92402988,70.643981 7.8596311,71.669922 6.6967003,69.726289 11.508063,123.10102 7.7753494,121.89582 12.865882,120.75528 259.30374,109.98166 261.97543,115.90327 c -6.31283,-5.71463 6.99669,-73.03463 5.11215,-74.404534 6.69036,-3.886759 96.56493,-1.250337 99.25236,-4.776983 -4.88102,9.389131 5.50968,-188.549233 -2.01344,-190.239723 6.83938,8.11213 129.58687,3.86707 132.04509,4.86338 -9.02116,-5.95833 5.89252,117.416067 13.23501,118.634317 8.94287,4.104278 -203.94861,13.017132 -198.85762,7.280235 5.57189,5.130625 -1.0151,102.971721 -5.71488,99.924754 8.05418,-3.074104 -90.87019,-2.603254 -98.46133,2.794607 -3.47141,9.44927 -0.92839,94.338907 3.21181,99.884337 7.64211,-6.12505 -121.321789,-5.35228 -123.657367,-3.49506 -4.663676,8.00435 -0.195061,-160.435652 6.487823,-155.3243 -1.892186,-5.063553 29.336694,23.649253 36.537414,15.728464 3.72107,-4.721697 1.1557,195.330316 0.48466,186.363036 -2.66754,-0.84407 273.12388,11.16935 280.84872,6.652 7.36719,0.72094 10.38426,-118.21172 5.03271,-116.05165 -6.55865,8.60398 -63.48124,8.20574 -66.29191,5.02613 -5.90551,-9.42874 -4.31784,174.94376 -3.1927,180.64552 -2.50982,-4.79254 111.47756,0.73893 110.94012,-7.09479 4.23372,-9.42503 -11.96815,-122.19473 -11.00602,-128.95534 4.85681,0.82987 34.23963,-13.20045 40.36843,-10.9077 -6.83891,-2.02501 4.10237,111.91047 0.42706,119.55401"
       style="fill:#999999;fill-opacity:1;stroke:none;stroke-width:0.26458332px;stroke-linecap:butt;stroke-linejoin:miter;stroke-opacity:1" />
  </g>
</svg>
