<svg class="marks" width="795" height="354" viewBox="0 0 795 354" version="1.1" xmlns="http://www.w3.org/2000/svg" xmlns:xlink="http://www.w3.org/1999/xlink"><rect width="795" height="354" style="fill: #f9f9f9;"></rect><defs><linearGradient id="gradient_11" x1="0" x2="0" y1="1" y2="0"><stop offset="0" stop-color="rgb(247, 251, 255)"></stop><stop offset="0.024390243902439025" stop-color="rgb(242, 248, 253)"></stop><stop offset="0.07317073170731707" stop-color="rgb(232, 242, 250)"></stop><stop offset="0.12195121951219512" stop-color="rgb(223, 235, 247)"></stop><stop offset="0.17073170731707318" stop-color="rgb(213, 229, 244)"></stop><stop offset="0.21951219512195122" stop-color="rgb(203, 223, 241)"></stop><stop offset="0.2682926829268293" stop-color="rgb(190, 216, 236)"></stop><stop offset="0.3170731707317073" stop-color="rgb(176, 210, 231)"></stop><stop offset="0.36585365853658536" stop-color="rgb(159, 202, 226)"></stop><stop offset="0.4146341463414634" stop-color="rgb(141, 193, 222)"></stop><stop offset="0.4634146341463415" stop-color="rgb(122, 182, 217)"></stop><stop offset="0.5121951219512195" stop-color="rgb(104, 171, 212)"></stop><stop offset="0.5609756097560976" stop-color="rgb(87, 160, 206)"></stop><stop offset="0.6097560975609756" stop-color="rgb(72, 149, 200)"></stop><stop offset="0.6585365853658537" stop-color="rgb(58, 137, 193)"></stop><stop offset="0.7073170731707317" stop-color="rgb(45, 124, 186)"></stop><stop offset="0.7560975609756098" stop-color="rgb(33, 112, 179)"></stop><stop offset="0.8048780487804879" stop-color="rgb(23, 99, 169)"></stop><stop offset="0.8536585365853658" stop-color="rgb(15, 86, 158)"></stop><stop offset="0.9024390243902439" stop-color="rgb(10, 74, 143)"></stop><stop offset="0.9512195121951219" stop-color="rgb(8, 61, 126)"></stop><stop offset="1" stop-color="rgb(8, 48, 107)"></stop></linearGradient></defs><g transform="translate(52,11)"><g class="mark-group role-frame root"><g transform="translate(0,0)"><path class="background" d="M0.5,0.5h600v300h-600Z" style="fill: none; stroke: none;"></path><g><g class="mark-group role-axis"><g transform="translate(0.5,300.5)"><path class="background" d="M0,0h0v0h0Z" style="pointer-events: none; fill: none;"></path><g><g class="mark-rule role-axis-grid" style="pointer-events: none;"><line transform="translate(0,-300)" x2="0" y2="300" style="fill: none; stroke: #FFFFFF; stroke-opacity: 1; stroke-width: 1; opacity: 1;"></line><line transform="translate(27,-300)" x2="0" y2="300" style="fill: none; stroke: #FFFFFF; stroke-opacity: 1; stroke-width: 1; opacity: 1;"></line><line transform="translate(55,-300)" x2="0" y2="300" style="fill: none; stroke: #FFFFFF; stroke-opacity: 1; stroke-width: 1; opacity: 1;"></line><line transform="translate(82,-300)" x2="0" y2="300" style="fill: none; stroke: #FFFFFF; stroke-opacity: 1; stroke-width: 1; opacity: 1;"></line><line transform="translate(109,-300)" x2="0" y2="300" style="fill: none; stroke: #FFFFFF; stroke-opacity: 1; stroke-width: 1; opacity: 1;"></line><line transform="translate(136,-300)" x2="0" y2="300" style="fill: none; stroke: #FFFFFF; stroke-opacity: 1; stroke-width: 1; opacity: 1;"></line><line transform="translate(164,-300)" x2="0" y2="300" style="fill: none; stroke: #FFFFFF; stroke-opacity: 1; stroke-width: 1; opacity: 1;"></line><line transform="translate(191,-300)" x2="0" y2="300" style="fill: none; stroke: #FFFFFF; stroke-opacity: 1; stroke-width: 1; opacity: 1;"></line><line transform="translate(218,-300)" x2="0" y2="300" style="fill: none; stroke: #FFFFFF; stroke-opacity: 1; stroke-width: 1; opacity: 1;"></line><line transform="translate(245,-300)" x2="0" y2="300" style="fill: none; stroke: #FFFFFF; stroke-opacity: 1; stroke-width: 1; opacity: 1;"></line><line transform="translate(273,-300)" x2="0" y2="300" style="fill: none; stroke: #FFFFFF; stroke-opacity: 1; stroke-width: 1; opacity: 1;"></line><line transform="translate(300,-300)" x2="0" y2="300" style="fill: none; stroke: #FFFFFF; stroke-opacity: 1; stroke-width: 1; opacity: 1;"></line><line transform="translate(327,-300)" x2="0" y2="300" style="fill: none; stroke: #FFFFFF; stroke-opacity: 1; stroke-width: 1; opacity: 1;"></line><line transform="translate(355,-300)" x2="0" y2="300" style="fill: none; stroke: #FFFFFF; stroke-opacity: 1; stroke-width: 1; opacity: 1;"></line><line transform="translate(382,-300)" x2="0" y2="300" style="fill: none; stroke: #FFFFFF; stroke-opacity: 1; stroke-width: 1; opacity: 1;"></line><line transform="translate(409,-300)" x2="0" y2="300" style="fill: none; stroke: #FFFFFF; stroke-opacity: 1; stroke-width: 1; opacity: 1;"></line><line transform="translate(436,-300)" x2="0" y2="300" style="fill: none; stroke: #FFFFFF; stroke-opacity: 1; stroke-width: 1; opacity: 1;"></line><line transform="translate(464,-300)" x2="0" y2="300" style="fill: none; stroke: #FFFFFF; stroke-opacity: 1; stroke-width: 1; opacity: 1;"></line><line transform="translate(491,-300)" x2="0" y2="300" style="fill: none; stroke: #FFFFFF; stroke-opacity: 1; stroke-width: 1; opacity: 1;"></line><line transform="translate(518,-300)" x2="0" y2="300" style="fill: none; stroke: #FFFFFF; stroke-opacity: 1; stroke-width: 1; opacity: 1;"></line><line transform="translate(545,-300)" x2="0" y2="300" style="fill: none; stroke: #FFFFFF; stroke-opacity: 1; stroke-width: 1; opacity: 1;"></line><line transform="translate(573,-300)" x2="0" y2="300" style="fill: none; stroke: #FFFFFF; stroke-opacity: 1; stroke-width: 1; opacity: 1;"></line><line transform="translate(600,-300)" x2="0" y2="300" style="fill: none; stroke: #FFFFFF; stroke-opacity: 1; stroke-width: 1; opacity: 1;"></line></g></g></g></g><g class="mark-group role-axis"><g transform="translate(0.5,0.5)"><path class="background" d="M0,0h0v0h0Z" style="pointer-events: none; fill: none;"></path><g><g class="mark-rule role-axis-grid" style="pointer-events: none;"><line transform="translate(0,300)" x2="600" y2="0" style="fill: none; stroke: #FFFFFF; stroke-opacity: 1; stroke-width: 1; opacity: 1;"></line><line transform="translate(0,273)" x2="600" y2="0" style="fill: none; stroke: #FFFFFF; stroke-opacity: 1; stroke-width: 1; opacity: 1;"></line><line transform="translate(0,245)" x2="600" y2="0" style="fill: none; stroke: #FFFFFF; stroke-opacity: 1; stroke-width: 1; opacity: 1;"></line><line transform="translate(0,218)" x2="600" y2="0" style="fill: none; stroke: #FFFFFF; stroke-opacity: 1; stroke-width: 1; opacity: 1;"></line><line transform="translate(0,191)" x2="600" y2="0" style="fill: none; stroke: #FFFFFF; stroke-opacity: 1; stroke-width: 1; opacity: 1;"></line><line transform="translate(0,164)" x2="600" y2="0" style="fill: none; stroke: #FFFFFF; stroke-opacity: 1; stroke-width: 1; opacity: 1;"></line><line transform="translate(0,136)" x2="600" y2="0" style="fill: none; stroke: #FFFFFF; stroke-opacity: 1; stroke-width: 1; opacity: 1;"></line><line transform="translate(0,109)" x2="600" y2="0" style="fill: none; stroke: #FFFFFF; stroke-opacity: 1; stroke-width: 1; opacity: 1;"></line><line transform="translate(0,82)" x2="600" y2="0" style="fill: none; stroke: #FFFFFF; stroke-opacity: 1; stroke-width: 1; opacity: 1;"></line><line transform="translate(0,55)" x2="600" y2="0" style="fill: none; stroke: #FFFFFF; stroke-opacity: 1; stroke-width: 1; opacity: 1;"></line><line transform="translate(0,27)" x2="600" y2="0" style="fill: none; stroke: #FFFFFF; stroke-opacity: 1; stroke-width: 1; opacity: 1;"></line><line transform="translate(0,0)" x2="600" y2="0" style="fill: none; stroke: #FFFFFF; stroke-opacity: 1; stroke-width: 1; opacity: 1;"></line></g></g></g></g><g class="mark-rect role-mark layer_0_marks"><path d="M136.36363636363635,218.1818181818182h27.27272727272731v13.636363636363626h-27.27272727272731Z" style="fill: rgb(228, 239, 249);"></path><path d="M300,218.1818181818182h27.27272727272731v13.636363636363626h-27.27272727272731Z" style="fill: rgb(141, 193, 222);"></path><path d="M463.6363636363636,218.1818181818182h27.272727272727252v13.636363636363626h-27.272727272727252Z" style="fill: rgb(65, 143, 197);"></path><path d="M463.6363636363636,245.45454545454544h27.272727272727252v13.636363636363626h-27.272727272727252Z" style="fill: rgb(79, 155, 203);"></path><path d="M381.8181818181818,245.45454545454544h27.272727272727252v13.636363636363626h-27.272727272727252Z" style="fill: rgb(176, 210, 231);"></path><path d="M545.4545454545454,245.45454545454544h27.272727272727252v13.636363636363626h-27.272727272727252Z" style="fill: rgb(159, 202, 226);"></path><path d="M190.9090909090909,245.45454545454544h27.27272727272728v13.636363636363626h-27.27272727272728Z" style="fill: rgb(28, 105, 174);"></path><path d="M436.3636363636364,245.45454545454544h27.272727272727252v13.636363636363626h-27.272727272727252Z" style="fill: rgb(28, 105, 174);"></path><path d="M381.8181818181818,177.27272727272728h27.272727272727252v13.636363636363626h-27.272727272727252Z" style="fill: rgb(132, 187, 219);"></path><path d="M245.45454545454544,177.27272727272728h27.272727272727252v13.636363636363626h-27.272727272727252Z" style="fill: rgb(65, 143, 197);"></path><path d="M272.7272727272727,177.27272727272728h27.27272727272731v13.636363636363626h-27.27272727272731Z" style="fill: rgb(122, 182, 217);"></path><path d="M409.09090909090907,177.27272727272728h27.27272727272731v13.636363636363626h-27.27272727272731Z" style="fill: rgb(72, 149, 200);"></path><path d="M409.09090909090907,136.36363636363635h27.27272727272731v13.636363636363654h-27.27272727272731Z" style="fill: rgb(18, 93, 164);"></path><path d="M409.09090909090907,259.09090909090907h27.27272727272731v13.636363636363683h-27.27272727272731Z" style="fill: rgb(28, 105, 174);"></path><path d="M190.9090909090909,259.09090909090907h27.27272727272728v13.636363636363683h-27.27272727272728Z" style="fill: rgb(104, 171, 212);"></path><path d="M381.8181818181818,259.09090909090907h27.272727272727252v13.636363636363683h-27.272727272727252Z" style="fill: rgb(87, 160, 206);"></path><path d="M327.2727272727273,259.09090909090907h27.272727272727252v13.636363636363683h-27.272727272727252Z" style="fill: rgb(8, 54, 117);"></path><path d="M327.2727272727273,272.72727272727275h27.272727272727252v13.636363636363626h-27.272727272727252Z" style="fill: rgb(28, 105, 174);"></path><path d="M354.5454545454545,259.09090909090907h27.27272727272731v13.636363636363683h-27.27272727272731Z" style="fill: rgb(23, 99, 169);"></path><path d="M109.0909090909091,259.09090909090907h27.272727272727252v13.636363636363683h-27.272727272727252Z" style="fill: rgb(176, 210, 231);"></path><path d="M109.0909090909091,245.45454545454544h27.272727272727252v13.636363636363626h-27.272727272727252Z" style="fill: rgb(113, 177, 214);"></path><path d="M218.1818181818182,245.45454545454544h27.272727272727252v13.636363636363626h-27.272727272727252Z" style="fill: rgb(168, 206, 229);"></path><path d="M218.1818181818182,218.1818181818182h27.272727272727252v13.636363636363626h-27.272727272727252Z" style="fill: rgb(141, 193, 222);"></path><path d="M545.4545454545454,218.1818181818182h27.272727272727252v13.636363636363626h-27.272727272727252Z" style="fill: rgb(65, 143, 197);"></path><path d="M272.7272727272727,218.1818181818182h27.27272727272731v13.636363636363626h-27.27272727272731Z" style="fill: rgb(8, 48, 107);"></path><path d="M436.3636363636364,218.1818181818182h27.272727272727252v13.636363636363626h-27.272727272727252Z" style="fill: rgb(96, 166, 209);"></path><path d="M327.2727272727273,218.1818181818182h27.272727272727252v13.636363636363626h-27.272727272727252Z" style="fill: rgb(28, 105, 174);"></path><path d="M327.2727272727273,204.54545454545453h27.272727272727252v13.636363636363654h-27.272727272727252Z" style="fill: rgb(18, 93, 164);"></path><path d="M300,204.54545454545453h27.27272727272731v13.636363636363654h-27.27272727272731Z" style="fill: rgb(45, 124, 186);"></path><path d="M300,163.63636363636365h27.27272727272731v13.636363636363626h-27.27272727272731Z" style="fill: rgb(45, 124, 186);"></path><path d="M300,150h27.27272727272731v13.636363636363654h-27.27272727272731Z" style="fill: rgb(15, 86, 158);"></path><path d="M381.8181818181818,150h27.272727272727252v13.636363636363654h-27.272727272727252Z" style="fill: rgb(10, 74, 143);"></path><path d="M381.8181818181818,163.63636363636365h27.272727272727252v13.636363636363626h-27.272727272727252Z" style="fill: rgb(12, 80, 151);"></path><path d="M409.09090909090907,163.63636363636365h27.27272727272731v13.636363636363626h-27.27272727272731Z" style="fill: rgb(65, 143, 197);"></path><path d="M245.45454545454544,163.63636363636365h27.272727272727252v13.636363636363626h-27.272727272727252Z" style="fill: rgb(190, 216, 236);"></path><path d="M245.45454545454544,204.54545454545453h27.272727272727252v13.636363636363654h-27.272727272727252Z" style="fill: rgb(132, 187, 219);"></path><path d="M272.7272727272727,163.63636363636365h27.27272727272731v13.636363636363626h-27.27272727272731Z" style="fill: rgb(104, 171, 212);"></path><path d="M272.7272727272727,150h27.27272727272731v13.636363636363654h-27.27272727272731Z" style="fill: rgb(203, 223, 241);"></path><path d="M272.7272727272727,190.9090909090909h27.27272727272731v13.636363636363654h-27.27272727272731Z" style="fill: rgb(45, 124, 186);"></path><path d="M245.45454545454544,218.1818181818182h27.272727272727252v13.636363636363626h-27.272727272727252Z" style="fill: rgb(65, 143, 197);"></path><path d="M463.6363636363636,122.72727272727272h27.272727272727252v13.636363636363626h-27.272727272727252Z" style="fill: rgb(72, 149, 200);"></path><path d="M545.4545454545454,122.72727272727272h27.272727272727252v13.636363636363626h-27.272727272727252Z" style="fill: rgb(168, 206, 229);"></path><path d="M545.4545454545454,136.36363636363635h27.272727272727252v13.636363636363654h-27.272727272727252Z" style="fill: rgb(122, 182, 217);"></path><path d="M545.4545454545454,109.0909090909091h27.272727272727252v13.636363636363654h-27.272727272727252Z" style="fill: rgb(79, 155, 203);"></path><path d="M518.1818181818182,109.0909090909091h27.27272727272714v13.636363636363654h-27.27272727272714Z" style="fill: rgb(132, 187, 219);"></path><path d="M518.1818181818182,81.81818181818181h27.27272727272714v13.636363636363654h-27.27272727272714Z" style="fill: rgb(28, 105, 174);"></path><path d="M463.6363636363636,81.81818181818181h27.272727272727252v13.636363636363654h-27.272727272727252Z" style="fill: rgb(39, 118, 183);"></path><path d="M463.6363636363636,231.8181818181818h27.272727272727252v13.636363636363626h-27.272727272727252Z" style="fill: rgb(190, 216, 236);"></path><path d="M463.6363636363636,150h27.272727272727252v13.636363636363654h-27.272727272727252Z" style="fill: rgb(176, 210, 231);"></path><path d="M490.9090909090909,150h27.272727272727366v13.636363636363654h-27.272727272727366Z" style="fill: rgb(184, 213, 234);"></path><path d="M545.4545454545454,150h27.272727272727252v13.636363636363654h-27.272727272727252Z" style="fill: rgb(79, 155, 203);"></path><path d="M545.4545454545454,95.45454545454547h27.272727272727252v13.636363636363626h-27.272727272727252Z" style="fill: rgb(190, 216, 236);"></path><path d="M545.4545454545454,272.72727272727275h27.272727272727252v13.636363636363626h-27.272727272727252Z" style="fill: rgb(159, 202, 226);"></path><path d="M545.4545454545454,81.81818181818181h27.272727272727252v13.636363636363654h-27.272727272727252Z" style="fill: rgb(72, 149, 200);"></path><path d="M545.4545454545454,54.54545454545456h27.272727272727252v13.636363636363626h-27.272727272727252Z" style="fill: rgb(184, 213, 234);"></path><path d="M545.4545454545454,40.90909090909088h27.272727272727252v13.636363636363683h-27.272727272727252Z" style="fill: rgb(122, 182, 217);"></path><path d="M545.4545454545454,68.18181818181819h27.272727272727252v13.636363636363626h-27.272727272727252Z" style="fill: rgb(141, 193, 222);"></path><path d="M436.3636363636364,68.18181818181819h27.272727272727252v13.636363636363626h-27.272727272727252Z" style="fill: rgb(197, 220, 239);"></path><path d="M436.3636363636364,190.9090909090909h27.272727272727252v13.636363636363654h-27.272727272727252Z" style="fill: rgb(79, 155, 203);"></path><path d="M436.3636363636364,150h27.272727272727252v13.636363636363654h-27.272727272727252Z" style="fill: rgb(39, 118, 183);"></path><path d="M409.09090909090907,150h27.27272727272731v13.636363636363654h-27.27272727272731Z" style="fill: rgb(65, 143, 197);"></path><path d="M327.2727272727273,150h27.272727272727252v13.636363636363654h-27.272727272727252Z" style="fill: rgb(10, 74, 143);"></path><path d="M327.2727272727273,122.72727272727272h27.272727272727252v13.636363636363626h-27.272727272727252Z" style="fill: rgb(168, 206, 229);"></path><path d="M327.2727272727273,231.8181818181818h27.272727272727252v13.636363636363626h-27.272727272727252Z" style="fill: rgb(87, 160, 206);"></path><path d="M272.7272727272727,231.8181818181818h27.27272727272731v13.636363636363626h-27.27272727272731Z" style="fill: rgb(104, 171, 212);"></path><path d="M409.09090909090907,231.8181818181818h27.27272727272731v13.636363636363626h-27.27272727272731Z" style="fill: rgb(176, 210, 231);"></path><path d="M545.4545454545454,231.8181818181818h27.272727272727252v13.636363636363626h-27.272727272727252Z" style="fill: rgb(151, 197, 224);"></path><path d="M545.4545454545454,163.63636363636365h27.272727272727252v13.636363636363626h-27.272727272727252Z" style="fill: rgb(79, 155, 203);"></path><path d="M545.4545454545454,204.54545454545453h27.272727272727252v13.636363636363654h-27.272727272727252Z" style="fill: rgb(151, 197, 224);"></path><path d="M190.9090909090909,204.54545454545453h27.27272727272728v13.636363636363654h-27.27272727272728Z" style="fill: rgb(9, 67, 135);"></path><path d="M190.9090909090909,272.72727272727275h27.27272727272728v13.636363636363626h-27.27272727272728Z" style="fill: rgb(10, 74, 143);"></path><path d="M518.1818181818182,272.72727272727275h27.27272727272714v13.636363636363626h-27.27272727272714Z" style="fill: rgb(168, 206, 229);"></path><path d="M436.3636363636364,272.72727272727275h27.272727272727252v13.636363636363626h-27.272727272727252Z" style="fill: rgb(96, 166, 209);"></path><path d="M109.0909090909091,272.72727272727275h27.272727272727252v13.636363636363626h-27.272727272727252Z" style="fill: rgb(79, 155, 203);"></path><path d="M136.36363636363635,272.72727272727275h27.27272727272731v13.636363636363626h-27.27272727272731Z" style="fill: rgb(8, 48, 107);"></path><path d="M490.9090909090909,272.72727272727275h27.272727272727366v13.636363636363626h-27.272727272727366Z" style="fill: rgb(51, 131, 190);"></path><path d="M27.272727272727295,272.72727272727275h27.27272727272726v13.636363636363626h-27.27272727272726Z" style="fill: rgb(197, 220, 239);"></path><path d="M463.6363636363636,204.54545454545453h27.272727272727252v13.636363636363654h-27.272727272727252Z" style="fill: rgb(79, 155, 203);"></path><path d="M436.3636363636364,204.54545454545453h27.272727272727252v13.636363636363654h-27.272727272727252Z" style="fill: rgb(113, 177, 214);"></path><path d="M354.5454545454545,204.54545454545453h27.27272727272731v13.636363636363654h-27.27272727272731Z" style="fill: rgb(132, 187, 219);"></path><path d="M436.3636363636364,177.27272727272728h27.272727272727252v13.636363636363626h-27.272727272727252Z" style="fill: rgb(104, 171, 212);"></path><path d="M490.9090909090909,177.27272727272728h27.272727272727366v13.636363636363626h-27.272727272727366Z" style="fill: rgb(151, 197, 224);"></path><path d="M490.9090909090909,122.72727272727272h27.272727272727366v13.636363636363626h-27.272727272727366Z" style="fill: rgb(184, 213, 234);"></path><path d="M490.9090909090909,68.18181818181819h27.272727272727366v13.636363636363626h-27.272727272727366Z" style="fill: rgb(104, 171, 212);"></path><path d="M490.9090909090909,109.0909090909091h27.272727272727366v13.636363636363654h-27.272727272727366Z" style="fill: rgb(176, 210, 231);"></path><path d="M463.6363636363636,109.0909090909091h27.272727272727252v13.636363636363654h-27.272727272727252Z" style="fill: rgb(184, 213, 234);"></path><path d="M463.6363636363636,68.18181818181819h27.272727272727252v13.636363636363626h-27.272727272727252Z" style="fill: rgb(113, 177, 214);"></path><path d="M463.6363636363636,272.72727272727275h27.272727272727252v13.636363636363626h-27.272727272727252Z" style="fill: rgb(168, 206, 229);"></path><path d="M463.6363636363636,136.36363636363635h27.272727272727252v13.636363636363654h-27.272727272727252Z" style="fill: rgb(184, 213, 234);"></path><path d="M490.9090909090909,136.36363636363635h27.272727272727366v13.636363636363654h-27.272727272727366Z" style="fill: rgb(197, 220, 239);"></path><path d="M490.9090909090909,204.54545454545453h27.272727272727366v13.636363636363654h-27.272727272727366Z" style="fill: rgb(141, 193, 222);"></path><path d="M381.8181818181818,204.54545454545453h27.272727272727252v13.636363636363654h-27.272727272727252Z" style="fill: rgb(39, 118, 183);"></path><path d="M327.2727272727273,177.27272727272728h27.272727272727252v13.636363636363626h-27.272727272727252Z" style="fill: rgb(28, 105, 174);"></path><path d="M218.1818181818182,204.54545454545453h27.272727272727252v13.636363636363654h-27.272727272727252Z" style="fill: rgb(141, 193, 222);"></path><path d="M409.09090909090907,204.54545454545453h27.27272727272731v13.636363636363654h-27.27272727272731Z" style="fill: rgb(79, 155, 203);"></path><path d="M190.9090909090909,231.8181818181818h27.27272727272728v13.636363636363626h-27.27272727272728Z" style="fill: rgb(28, 105, 174);"></path><path d="M272.7272727272727,245.45454545454544h27.27272727272731v13.636363636363626h-27.27272727272731Z" style="fill: rgb(65, 143, 197);"></path><path d="M300,245.45454545454544h27.27272727272731v13.636363636363626h-27.27272727272731Z" style="fill: rgb(122, 182, 217);"></path><path d="M518.1818181818182,245.45454545454544h27.27272727272714v13.636363636363626h-27.27272727272714Z" style="fill: rgb(113, 177, 214);"></path><path d="M518.1818181818182,136.36363636363635h27.27272727272714v13.636363636363654h-27.27272727272714Z" style="fill: rgb(141, 193, 222);"></path><path d="M381.8181818181818,136.36363636363635h27.272727272727252v13.636363636363654h-27.272727272727252Z" style="fill: rgb(33, 112, 179);"></path><path d="M436.3636363636364,136.36363636363635h27.272727272727252v13.636363636363654h-27.272727272727252Z" style="fill: rgb(33, 112, 179);"></path><path d="M436.3636363636364,122.72727272727272h27.272727272727252v13.636363636363626h-27.272727272727252Z" style="fill: rgb(23, 99, 169);"></path><path d="M354.5454545454545,218.1818181818182h27.27272727272731v13.636363636363626h-27.27272727272731Z" style="fill: rgb(96, 166, 209);"></path><path d="M354.5454545454545,136.36363636363635h27.27272727272731v13.636363636363654h-27.27272727272731Z" style="fill: rgb(18, 93, 164);"></path><path d="M354.5454545454545,150h27.27272727272731v13.636363636363654h-27.27272727272731Z" style="fill: rgb(39, 118, 183);"></path><path d="M354.5454545454545,163.63636363636365h27.27272727272731v13.636363636363626h-27.27272727272731Z" style="fill: rgb(87, 160, 206);"></path><path d="M518.1818181818182,163.63636363636365h27.27272727272714v13.636363636363626h-27.27272727272714Z" style="fill: rgb(79, 155, 203);"></path><path d="M381.8181818181818,122.72727272727272h27.272727272727252v13.636363636363626h-27.272727272727252Z" style="fill: rgb(141, 193, 222);"></path><path d="M381.8181818181818,218.1818181818182h27.272727272727252v13.636363636363626h-27.272727272727252Z" style="fill: rgb(132, 187, 219);"></path><path d="M381.8181818181818,272.72727272727275h27.272727272727252v13.636363636363626h-27.272727272727252Z" style="fill: rgb(79, 155, 203);"></path><path d="M300,177.27272727272728h27.27272727272731v13.636363636363626h-27.27272727272731Z" style="fill: rgb(45, 124, 186);"></path><path d="M354.5454545454545,109.0909090909091h27.27272727272731v13.636363636363654h-27.27272727272731Z" style="fill: rgb(168, 206, 229);"></path><path d="M381.8181818181818,109.0909090909091h27.272727272727252v13.636363636363654h-27.272727272727252Z" style="fill: rgb(28, 105, 174);"></path><path d="M272.7272727272727,204.54545454545453h27.27272727272731v13.636363636363654h-27.27272727272731Z" style="fill: rgb(9, 67, 135);"></path><path d="M490.9090909090909,218.1818181818182h27.272727272727366v13.636363636363626h-27.272727272727366Z" style="fill: rgb(122, 182, 217);"></path><path d="M409.09090909090907,218.1818181818182h27.27272727272731v13.636363636363626h-27.27272727272731Z" style="fill: rgb(65, 143, 197);"></path><path d="M218.1818181818182,190.9090909090909h27.272727272727252v13.636363636363654h-27.272727272727252Z" style="fill: rgb(228, 239, 249);"></path><path d="M463.6363636363636,190.9090909090909h27.272727272727252v13.636363636363654h-27.272727272727252Z" style="fill: rgb(141, 193, 222);"></path><path d="M463.6363636363636,259.09090909090907h27.272727272727252v13.636363636363683h-27.272727272727252Z" style="fill: rgb(15, 86, 158);"></path><path d="M436.3636363636364,259.09090909090907h27.272727272727252v13.636363636363683h-27.272727272727252Z" style="fill: rgb(45, 124, 186);"></path><path d="M81.81818181818183,259.09090909090907h27.272727272727266v13.636363636363683h-27.272727272727266Z" style="fill: rgb(159, 202, 226);"></path><path d="M300,259.09090909090907h27.27272727272731v13.636363636363683h-27.27272727272731Z" style="fill: rgb(65, 143, 197);"></path><path d="M354.5454545454545,272.72727272727275h27.27272727272731v13.636363636363626h-27.27272727272731Z" style="fill: rgb(58, 137, 193);"></path><path d="M245.45454545454544,272.72727272727275h27.272727272727252v13.636363636363626h-27.272727272727252Z" style="fill: rgb(168, 206, 229);"></path><path d="M490.9090909090909,163.63636363636365h27.272727272727366v13.636363636363626h-27.272727272727366Z" style="fill: rgb(96, 166, 209);"></path><path d="M381.8181818181818,231.8181818181818h27.272727272727252v13.636363636363626h-27.272727272727252Z" style="fill: rgb(39, 118, 183);"></path><path d="M136.36363636363635,231.8181818181818h27.27272727272731v13.636363636363626h-27.27272727272731Z" style="fill: rgb(79, 155, 203);"></path><path d="M436.3636363636364,231.8181818181818h27.272727272727252v13.636363636363626h-27.272727272727252Z" style="fill: rgb(96, 166, 209);"></path><path d="M490.9090909090909,231.8181818181818h27.272727272727366v13.636363636363626h-27.272727272727366Z" style="fill: rgb(96, 166, 209);"></path><path d="M463.6363636363636,163.63636363636365h27.272727272727252v13.636363636363626h-27.272727272727252Z" style="fill: rgb(184, 213, 234);"></path><path d="M518.1818181818182,218.1818181818182h27.27272727272714v13.636363636363626h-27.27272727272714Z" style="fill: rgb(141, 193, 222);"></path><path d="M545.4545454545454,13.636363636363683h27.272727272727252v13.636363636363626h-27.272727272727252Z" style="fill: rgb(228, 239, 249);"></path><path d="M545.4545454545454,27.27272727272731h27.272727272727252v13.63636363636357h-27.272727272727252Z" style="fill: rgb(197, 220, 239);"></path><path d="M545.4545454545454,190.9090909090909h27.272727272727252v13.636363636363654h-27.272727272727252Z" style="fill: rgb(208, 226, 242);"></path><path d="M245.45454545454544,190.9090909090909h27.272727272727252v13.636363636363654h-27.272727272727252Z" style="fill: rgb(141, 193, 222);"></path><path d="M190.9090909090909,190.9090909090909h27.27272727272728v13.636363636363654h-27.27272727272728Z" style="fill: rgb(208, 226, 242);"></path><path d="M490.9090909090909,190.9090909090909h27.272727272727366v13.636363636363654h-27.272727272727366Z" style="fill: rgb(96, 166, 209);"></path><path d="M490.9090909090909,245.45454545454544h27.272727272727366v13.636363636363626h-27.272727272727366Z" style="fill: rgb(87, 160, 206);"></path><path d="M245.45454545454544,245.45454545454544h27.272727272727252v13.636363636363626h-27.272727272727252Z" style="fill: rgb(113, 177, 214);"></path><path d="M354.5454545454545,245.45454545454544h27.27272727272731v13.636363636363626h-27.27272727272731Z" style="fill: rgb(104, 171, 212);"></path><path d="M409.09090909090907,245.45454545454544h27.27272727272731v13.636363636363626h-27.27272727272731Z" style="fill: rgb(28, 105, 174);"></path><path d="M354.5454545454545,190.9090909090909h27.27272727272731v13.636363636363654h-27.27272727272731Z" style="fill: rgb(113, 177, 214);"></path><path d="M354.5454545454545,177.27272727272728h27.27272727272731v13.636363636363626h-27.27272727272731Z" style="fill: rgb(141, 193, 222);"></path><path d="M327.2727272727273,245.45454545454544h27.272727272727252v13.636363636363626h-27.272727272727252Z" style="fill: rgb(104, 171, 212);"></path><path d="M518.1818181818182,259.09090909090907h27.27272727272714v13.636363636363683h-27.27272727272714Z" style="fill: rgb(87, 160, 206);"></path><path d="M518.1818181818182,190.9090909090909h27.27272727272714v13.636363636363654h-27.27272727272714Z" style="fill: rgb(141, 193, 222);"></path><path d="M381.8181818181818,190.9090909090909h27.272727272727252v13.636363636363654h-27.272727272727252Z" style="fill: rgb(184, 213, 234);"></path><path d="M300,190.9090909090909h27.27272727272731v13.636363636363654h-27.27272727272731Z" style="fill: rgb(159, 202, 226);"></path><path d="M218.1818181818182,272.72727272727275h27.272727272727252v13.636363636363626h-27.272727272727252Z" style="fill: rgb(122, 182, 217);"></path><path d="M163.63636363636365,272.72727272727275h27.27272727272728v13.636363636363626h-27.27272727272728Z" style="fill: rgb(104, 171, 212);"></path><path d="M300,272.72727272727275h27.27272727272731v13.636363636363626h-27.27272727272731Z" style="fill: rgb(104, 171, 212);"></path><path d="M490.9090909090909,54.54545454545456h27.272727272727366v13.636363636363626h-27.272727272727366Z" style="fill: rgb(208, 226, 242);"></path><path d="M354.5454545454545,231.8181818181818h27.27272727272731v13.636363636363626h-27.27272727272731Z" style="fill: rgb(203, 223, 241);"></path><path d="M327.2727272727273,190.9090909090909h27.272727272727252v13.636363636363654h-27.272727272727252Z" style="fill: rgb(58, 137, 193);"></path><path d="M300,231.8181818181818h27.27272727272731v13.636363636363626h-27.27272727272731Z" style="fill: rgb(79, 155, 203);"></path><path d="M163.63636363636365,231.8181818181818h27.27272727272728v13.636363636363626h-27.27272727272728Z" style="fill: rgb(208, 226, 242);"></path><path d="M163.63636363636365,259.09090909090907h27.27272727272728v13.636363636363683h-27.27272727272728Z" style="fill: rgb(45, 124, 186);"></path><path d="M81.81818181818183,272.72727272727275h27.272727272727266v13.636363636363626h-27.272727272727266Z" style="fill: rgb(168, 206, 229);"></path><path d="M245.45454545454544,259.09090909090907h27.272727272727252v13.636363636363683h-27.272727272727252Z" style="fill: rgb(58, 137, 193);"></path><path d="M545.4545454545454,259.09090909090907h27.272727272727252v13.636363636363683h-27.272727272727252Z" style="fill: rgb(104, 171, 212);"></path><path d="M136.36363636363635,259.09090909090907h27.27272727272731v13.636363636363683h-27.27272727272731Z" style="fill: rgb(8, 54, 117);"></path><path d="M409.09090909090907,190.9090909090909h27.27272727272731v13.636363636363654h-27.27272727272731Z" style="fill: rgb(151, 197, 224);"></path><path d="M545.4545454545454,177.27272727272728h27.272727272727252v13.636363636363626h-27.272727272727252Z" style="fill: rgb(141, 193, 222);"></path><path d="M327.2727272727273,136.36363636363635h27.272727272727252v13.636363636363654h-27.272727272727252Z" style="fill: rgb(96, 166, 209);"></path><path d="M272.7272727272727,272.72727272727275h27.27272727272731v13.636363636363626h-27.27272727272731Z" style="fill: rgb(141, 193, 222);"></path><path d="M354.5454545454545,122.72727272727272h27.27272727272731v13.636363636363626h-27.27272727272731Z" style="fill: rgb(87, 160, 206);"></path><path d="M436.3636363636364,81.81818181818181h27.272727272727252v13.636363636363654h-27.272727272727252Z" style="fill: rgb(65, 143, 197);"></path><path d="M490.9090909090909,259.09090909090907h27.272727272727366v13.636363636363683h-27.272727272727366Z" style="fill: rgb(159, 202, 226);"></path><path d="M436.3636363636364,163.63636363636365h27.272727272727252v13.636363636363626h-27.272727272727252Z" style="fill: rgb(10, 74, 143);"></path><path d="M436.3636363636364,95.45454545454547h27.272727272727252v13.636363636363626h-27.272727272727252Z" style="fill: rgb(10, 74, 143);"></path><path d="M163.63636363636365,218.1818181818182h27.27272727272728v13.636363636363626h-27.27272727272728Z" style="fill: rgb(51, 131, 190);"></path><path d="M190.9090909090909,218.1818181818182h27.27272727272728v13.636363636363626h-27.27272727272728Z" style="fill: rgb(190, 216, 236);"></path><path d="M518.1818181818182,231.8181818181818h27.27272727272714v13.636363636363626h-27.27272727272714Z" style="fill: rgb(141, 193, 222);"></path><path d="M245.45454545454544,231.8181818181818h27.272727272727252v13.636363636363626h-27.272727272727252Z" style="fill: rgb(79, 155, 203);"></path><path d="M272.7272727272727,259.09090909090907h27.27272727272731v13.636363636363683h-27.27272727272731Z" style="fill: rgb(132, 187, 219);"></path><path d="M218.1818181818182,259.09090909090907h27.272727272727252v13.636363636363683h-27.272727272727252Z" style="fill: rgb(79, 155, 203);"></path><path d="M436.3636363636364,109.0909090909091h27.272727272727252v13.636363636363654h-27.272727272727252Z" style="fill: rgb(79, 155, 203);"></path><path d="M518.1818181818182,204.54545454545453h27.27272727272714v13.636363636363654h-27.27272727272714Z" style="fill: rgb(132, 187, 219);"></path><path d="M518.1818181818182,177.27272727272728h27.27272727272714v13.636363636363626h-27.27272727272714Z" style="fill: rgb(151, 197, 224);"></path><path d="M163.63636363636365,245.45454545454544h27.27272727272728v13.636363636363626h-27.27272727272728Z" style="fill: rgb(113, 177, 214);"></path><path d="M54.54545454545453,272.72727272727275h27.272727272727295v13.636363636363626h-27.272727272727295Z" style="fill: rgb(72, 149, 200);"></path><path d="M518.1818181818182,95.45454545454547h27.27272727272714v13.636363636363626h-27.27272727272714Z" style="fill: rgb(65, 143, 197);"></path><path d="M463.6363636363636,177.27272727272728h27.272727272727252v13.636363636363626h-27.272727272727252Z" style="fill: rgb(96, 166, 209);"></path><path d="M490.9090909090909,81.81818181818181h27.272727272727366v13.636363636363654h-27.272727272727366Z" style="fill: rgb(151, 197, 224);"></path><path d="M409.09090909090907,81.81818181818181h27.27272727272731v13.636363636363654h-27.27272727272731Z" style="fill: rgb(203, 223, 241);"></path><path d="M409.09090909090907,95.45454545454547h27.27272727272731v13.636363636363626h-27.27272727272731Z" style="fill: rgb(184, 213, 234);"></path><path d="M518.1818181818182,122.72727272727272h27.27272727272714v13.636363636363626h-27.27272727272714Z" style="fill: rgb(159, 202, 226);"></path><path d="M409.09090909090907,122.72727272727272h27.27272727272731v13.636363636363626h-27.27272727272731Z" style="fill: rgb(122, 182, 217);"></path><path d="M218.1818181818182,231.8181818181818h27.272727272727252v13.636363636363626h-27.272727272727252Z" style="fill: rgb(87, 160, 206);"></path><path d="M163.63636363636365,204.54545454545453h27.27272727272728v13.636363636363654h-27.27272727272728Z" style="fill: rgb(104, 171, 212);"></path><path d="M136.36363636363635,245.45454545454544h27.27272727272731v13.636363636363626h-27.27272727272731Z" style="fill: rgb(113, 177, 214);"></path><path d="M81.81818181818183,245.45454545454544h27.272727272727266v13.636363636363626h-27.272727272727266Z" style="fill: rgb(176, 210, 231);"></path><path d="M490.9090909090909,95.45454545454547h27.272727272727366v13.636363636363626h-27.272727272727366Z" style="fill: rgb(168, 206, 229);"></path><path d="M463.6363636363636,95.45454545454547h27.272727272727252v13.636363636363626h-27.272727272727252Z" style="fill: rgb(87, 160, 206);"></path><path d="M463.6363636363636,54.54545454545456h27.272727272727252v13.636363636363626h-27.272727272727252Z" style="fill: rgb(132, 187, 219);"></path><path d="M518.1818181818182,54.54545454545456h27.27272727272714v13.636363636363626h-27.27272727272714Z" style="fill: rgb(168, 206, 229);"></path><path d="M518.1818181818182,27.27272727272731h27.27272727272714v13.63636363636357h-27.27272727272714Z" style="fill: rgb(184, 213, 234);"></path><path d="M54.54545454545453,259.09090909090907h27.272727272727295v13.636363636363683h-27.272727272727295Z" style="fill: rgb(197, 220, 239);"></path><path d="M409.09090909090907,272.72727272727275h27.27272727272731v13.636363636363626h-27.27272727272731Z" style="fill: rgb(203, 223, 241);"></path><path d="M518.1818181818182,150h27.27272727272714v13.636363636363654h-27.27272727272714Z" style="fill: rgb(113, 177, 214);"></path><path d="M218.1818181818182,177.27272727272728h27.272727272727252v13.636363636363626h-27.272727272727252Z" style="fill: rgb(237, 245, 252);"></path><path d="M327.2727272727273,163.63636363636365h27.272727272727252v13.636363636363626h-27.272727272727252Z" style="fill: rgb(208, 226, 242);"></path><path d="M518.1818181818182,40.90909090909088h27.27272727272714v13.636363636363683h-27.27272727272714Z" style="fill: rgb(141, 193, 222);"></path><path d="M518.1818181818182,68.18181818181819h27.27272727272714v13.636363636363626h-27.27272727272714Z" style="fill: rgb(168, 206, 229);"></path><path d="M381.8181818181818,95.45454545454547h27.272727272727252v13.636363636363626h-27.272727272727252Z" style="fill: rgb(184, 213, 234);"></path><path d="M409.09090909090907,109.0909090909091h27.27272727272731v13.636363636363654h-27.27272727272731Z" style="fill: rgb(190, 216, 236);"></path><path d="M300,136.36363636363635h27.27272727272731v13.636363636363654h-27.27272727272731Z" style="fill: rgb(247, 251, 255);"></path><path d="M490.9090909090909,40.90909090909088h27.272727272727366v13.636363636363683h-27.272727272727366Z" style="fill: rgb(228, 239, 249);"></path><path d="M27.272727272727295,81.81818181818181h27.27272727272726v13.636363636363654h-27.27272727272726Z" style="fill: rgb(218, 232, 246);"></path></g><g class="mark-group role-legend"><g transform="translate(618,0)"><path class="background" d="M0,0h120v216h-120Z" style="pointer-events: none; fill: none;"></path><g><g class="mark-group role-legend-entry"><g transform="translate(0,16)"><path class="background" d="M0,0h0v0h0Z" style="pointer-events: none; fill: none;"></path><g><g class="mark-rect role-legend-gradient" style="pointer-events: none;"><path d="M0,0h16v200h-16Z" style="fill: url(#gradient_11); stroke: #ddd; stroke-width: 0; opacity: 1;"></path></g><g class="mark-text role-legend-label" style="pointer-events: none;"><text text-anchor="start" transform="translate(18,168.85365853658536)" style="font-family: sans-serif; font-size: 10px; fill: #000; opacity: 1;">10</text><text text-anchor="start" transform="translate(18,120.07317073170734)" style="font-family: sans-serif; font-size: 10px; fill: #000; opacity: 1;">20</text><text text-anchor="start" transform="translate(18,71.29268292682926)" style="font-family: sans-serif; font-size: 10px; fill: #000; opacity: 1;">30</text><text text-anchor="start" transform="translate(18,22.512195121951216)" style="font-family: sans-serif; font-size: 10px; fill: #000; opacity: 1;">40</text></g></g></g></g><g class="mark-text role-legend-title" style="pointer-events: none;"><text text-anchor="start" transform="translate(0,9)" style="font-family: sans-serif; font-size: 11px; font-weight: bold; fill: #000; opacity: 1;">Number of Records</text></g></g></g></g><g class="mark-group role-axis"><g transform="translate(0.5,300.5)"><path class="background" d="M0,0h0v0h0Z" style="pointer-events: none; fill: none;"></path><g><g class="mark-rule role-axis-tick" style="pointer-events: none;"><line transform="translate(0,0)" x2="0" y2="5.67" style="fill: none; stroke: #7F7F7F; stroke-width: 1; opacity: 1;"></line><line transform="translate(27,0)" x2="0" y2="5.67" style="fill: none; stroke: #7F7F7F; stroke-width: 1; opacity: 1;"></line><line transform="translate(55,0)" x2="0" y2="5.67" style="fill: none; stroke: #7F7F7F; stroke-width: 1; opacity: 1;"></line><line transform="translate(82,0)" x2="0" y2="5.67" style="fill: none; stroke: #7F7F7F; stroke-width: 1; opacity: 1;"></line><line transform="translate(109,0)" x2="0" y2="5.67" style="fill: none; stroke: #7F7F7F; stroke-width: 1; opacity: 1;"></line><line transform="translate(136,0)" x2="0" y2="5.67" style="fill: none; stroke: #7F7F7F; stroke-width: 1; opacity: 1;"></line><line transform="translate(164,0)" x2="0" y2="5.67" style="fill: none; stroke: #7F7F7F; stroke-width: 1; opacity: 1;"></line><line transform="translate(191,0)" x2="0" y2="5.67" style="fill: none; stroke: #7F7F7F; stroke-width: 1; opacity: 1;"></line><line transform="translate(218,0)" x2="0" y2="5.67" style="fill: none; stroke: #7F7F7F; stroke-width: 1; opacity: 1;"></line><line transform="translate(245,0)" x2="0" y2="5.67" style="fill: none; stroke: #7F7F7F; stroke-width: 1; opacity: 1;"></line><line transform="translate(273,0)" x2="0" y2="5.67" style="fill: none; stroke: #7F7F7F; stroke-width: 1; opacity: 1;"></line><line transform="translate(300,0)" x2="0" y2="5.67" style="fill: none; stroke: #7F7F7F; stroke-width: 1; opacity: 1;"></line><line transform="translate(327,0)" x2="0" y2="5.67" style="fill: none; stroke: #7F7F7F; stroke-width: 1; opacity: 1;"></line><line transform="translate(355,0)" x2="0" y2="5.67" style="fill: none; stroke: #7F7F7F; stroke-width: 1; opacity: 1;"></line><line transform="translate(382,0)" x2="0" y2="5.67" style="fill: none; stroke: #7F7F7F; stroke-width: 1; opacity: 1;"></line><line transform="translate(409,0)" x2="0" y2="5.67" style="fill: none; stroke: #7F7F7F; stroke-width: 1; opacity: 1;"></line><line transform="translate(436,0)" x2="0" y2="5.67" style="fill: none; stroke: #7F7F7F; stroke-width: 1; opacity: 1;"></line><line transform="translate(464,0)" x2="0" y2="5.67" style="fill: none; stroke: #7F7F7F; stroke-width: 1; opacity: 1;"></line><line transform="translate(491,0)" x2="0" y2="5.67" style="fill: none; stroke: #7F7F7F; stroke-width: 1; opacity: 1;"></line><line transform="translate(518,0)" x2="0" y2="5.67" style="fill: none; stroke: #7F7F7F; stroke-width: 1; opacity: 1;"></line><line transform="translate(545,0)" x2="0" y2="5.67" style="fill: none; stroke: #7F7F7F; stroke-width: 1; opacity: 1;"></line><line transform="translate(573,0)" x2="0" y2="5.67" style="fill: none; stroke: #7F7F7F; stroke-width: 1; opacity: 1;"></line><line transform="translate(600,0)" x2="0" y2="5.67" style="fill: none; stroke: #7F7F7F; stroke-width: 1; opacity: 1;"></line></g><g class="mark-text role-axis-label" style="pointer-events: none;"><text text-anchor="start" transform="translate(0,17.67)" style="font-family: sans-serif; font-size: 10px; fill: #7F7F7F; opacity: 1;">-1.1</text><text text-anchor="middle" transform="translate(27.272727272727295,17.67)" style="font-family: sans-serif; font-size: 10px; fill: #7F7F7F; opacity: 0;">-1.0</text><text text-anchor="middle" transform="translate(54.54545454545453,17.67)" style="font-family: sans-serif; font-size: 10px; fill: #7F7F7F; opacity: 1;">-0.9</text><text text-anchor="middle" transform="translate(81.81818181818183,17.67)" style="font-family: sans-serif; font-size: 10px; fill: #7F7F7F; opacity: 0;">-0.8</text><text text-anchor="middle" transform="translate(109.0909090909091,17.67)" style="font-family: sans-serif; font-size: 10px; fill: #7F7F7F; opacity: 1;">-0.7</text><text text-anchor="middle" transform="translate(136.36363636363635,17.67)" style="font-family: sans-serif; font-size: 10px; fill: #7F7F7F; opacity: 0;">-0.6</text><text text-anchor="middle" transform="translate(163.63636363636365,17.67)" style="font-family: sans-serif; font-size: 10px; fill: #7F7F7F; opacity: 1;">-0.5</text><text text-anchor="middle" transform="translate(190.9090909090909,17.67)" style="font-family: sans-serif; font-size: 10px; fill: #7F7F7F; opacity: 0;">-0.4</text><text text-anchor="middle" transform="translate(218.1818181818182,17.67)" style="font-family: sans-serif; font-size: 10px; fill: #7F7F7F; opacity: 1;">-0.3</text><text text-anchor="middle" transform="translate(245.45454545454544,17.67)" style="font-family: sans-serif; font-size: 10px; fill: #7F7F7F; opacity: 0;">-0.2</text><text text-anchor="middle" transform="translate(272.7272727272727,17.67)" style="font-family: sans-serif; font-size: 10px; fill: #7F7F7F; opacity: 1;">-0.1</text><text text-anchor="middle" transform="translate(300,17.67)" style="font-family: sans-serif; font-size: 10px; fill: #7F7F7F; opacity: 0;">0.0</text><text text-anchor="middle" transform="translate(327.2727272727273,17.67)" style="font-family: sans-serif; font-size: 10px; fill: #7F7F7F; opacity: 1;">0.1</text><text text-anchor="middle" transform="translate(354.5454545454545,17.67)" style="font-family: sans-serif; font-size: 10px; fill: #7F7F7F; opacity: 0;">0.2</text><text text-anchor="middle" transform="translate(381.8181818181818,17.67)" style="font-family: sans-serif; font-size: 10px; fill: #7F7F7F; opacity: 1;">0.3</text><text text-anchor="middle" transform="translate(409.09090909090907,17.67)" style="font-family: sans-serif; font-size: 10px; fill: #7F7F7F; opacity: 0;">0.4</text><text text-anchor="middle" transform="translate(436.3636363636364,17.67)" style="font-family: sans-serif; font-size: 10px; fill: #7F7F7F; opacity: 1;">0.5</text><text text-anchor="middle" transform="translate(463.6363636363636,17.67)" style="font-family: sans-serif; font-size: 10px; fill: #7F7F7F; opacity: 0;">0.6</text><text text-anchor="middle" transform="translate(490.9090909090909,17.67)" style="font-family: sans-serif; font-size: 10px; fill: #7F7F7F; opacity: 1;">0.7</text><text text-anchor="middle" transform="translate(518.1818181818182,17.67)" style="font-family: sans-serif; font-size: 10px; fill: #7F7F7F; opacity: 0;">0.8</text><text text-anchor="middle" transform="translate(545.4545454545454,17.67)" style="font-family: sans-serif; font-size: 10px; fill: #7F7F7F; opacity: 1;">0.9</text><text text-anchor="middle" transform="translate(572.7272727272726,17.67)" style="font-family: sans-serif; font-size: 10px; fill: #7F7F7F; opacity: 0;">1.0</text><text text-anchor="end" transform="translate(600,17.67)" style="font-family: sans-serif; font-size: 10px; fill: #7F7F7F; opacity: 1;">1.1</text></g><g class="mark-text role-axis-title" style="pointer-events: none;"><text text-anchor="middle" transform="translate(300,33.67)" style="font-family: sans-serif; font-size: 11px; font-weight: bold; fill: #000; opacity: 1;">b</text></g></g></g></g><g class="mark-group role-axis"><g transform="translate(0.5,0.5)"><path class="background" d="M0,0h0v0h0Z" style="pointer-events: none; fill: none;"></path><g><g class="mark-rule role-axis-tick" style="pointer-events: none;"><line transform="translate(0,300)" x2="-5.67" y2="0" style="fill: none; stroke: #7F7F7F; stroke-width: 1; opacity: 1;"></line><line transform="translate(0,273)" x2="-5.67" y2="0" style="fill: none; stroke: #7F7F7F; stroke-width: 1; opacity: 1;"></line><line transform="translate(0,245)" x2="-5.67" y2="0" style="fill: none; stroke: #7F7F7F; stroke-width: 1; opacity: 1;"></line><line transform="translate(0,218)" x2="-5.67" y2="0" style="fill: none; stroke: #7F7F7F; stroke-width: 1; opacity: 1;"></line><line transform="translate(0,191)" x2="-5.67" y2="0" style="fill: none; stroke: #7F7F7F; stroke-width: 1; opacity: 1;"></line><line transform="translate(0,164)" x2="-5.67" y2="0" style="fill: none; stroke: #7F7F7F; stroke-width: 1; opacity: 1;"></line><line transform="translate(0,136)" x2="-5.67" y2="0" style="fill: none; stroke: #7F7F7F; stroke-width: 1; opacity: 1;"></line><line transform="translate(0,109)" x2="-5.67" y2="0" style="fill: none; stroke: #7F7F7F; stroke-width: 1; opacity: 1;"></line><line transform="translate(0,82)" x2="-5.67" y2="0" style="fill: none; stroke: #7F7F7F; stroke-width: 1; opacity: 1;"></line><line transform="translate(0,55)" x2="-5.67" y2="0" style="fill: none; stroke: #7F7F7F; stroke-width: 1; opacity: 1;"></line><line transform="translate(0,27)" x2="-5.67" y2="0" style="fill: none; stroke: #7F7F7F; stroke-width: 1; opacity: 1;"></line><line transform="translate(0,0)" x2="-5.67" y2="0" style="fill: none; stroke: #7F7F7F; stroke-width: 1; opacity: 1;"></line></g><g class="mark-text role-axis-label" style="pointer-events: none;"><text text-anchor="end" transform="translate(-9.67,303)" style="font-family: sans-serif; font-size: 10px; fill: #7F7F7F; opacity: 1;">-1.1</text><text text-anchor="end" transform="translate(-9.67,275.72727272727275)" style="font-family: sans-serif; font-size: 10px; fill: #7F7F7F; opacity: 1;">-0.9</text><text text-anchor="end" transform="translate(-9.67,248.45454545454544)" style="font-family: sans-serif; font-size: 10px; fill: #7F7F7F; opacity: 1;">-0.7</text><text text-anchor="end" transform="translate(-9.67,221.1818181818182)" style="font-family: sans-serif; font-size: 10px; fill: #7F7F7F; opacity: 1;">-0.5</text><text text-anchor="end" transform="translate(-9.67,193.9090909090909)" style="font-family: sans-serif; font-size: 10px; fill: #7F7F7F; opacity: 1;">-0.3</text><text text-anchor="end" transform="translate(-9.67,166.63636363636365)" style="font-family: sans-serif; font-size: 10px; fill: #7F7F7F; opacity: 1;">-0.1</text><text text-anchor="end" transform="translate(-9.67,139.36363636363635)" style="font-family: sans-serif; font-size: 10px; fill: #7F7F7F; opacity: 1;">0.1</text><text text-anchor="end" transform="translate(-9.67,112.0909090909091)" style="font-family: sans-serif; font-size: 10px; fill: #7F7F7F; opacity: 1;">0.3</text><text text-anchor="end" transform="translate(-9.67,84.81818181818181)" style="font-family: sans-serif; font-size: 10px; fill: #7F7F7F; opacity: 1;">0.5</text><text text-anchor="end" transform="translate(-9.67,57.54545454545456)" style="font-family: sans-serif; font-size: 10px; fill: #7F7F7F; opacity: 1;">0.7</text><text text-anchor="end" transform="translate(-9.67,30.27272727272731)" style="font-family: sans-serif; font-size: 10px; fill: #7F7F7F; opacity: 1;">0.9</text><text text-anchor="end" transform="translate(-9.67,3)" style="font-family: sans-serif; font-size: 10px; fill: #7F7F7F; opacity: 1;">1.1</text></g><g class="mark-text role-axis-title" style="pointer-events: none;"><text text-anchor="middle" transform="translate(-34,150) rotate(-90) translate(0,-2)" style="font-family: sans-serif; font-size: 11px; font-weight: bold; fill: #000; opacity: 1;">m</text></g></g></g></g></g></g></g></g></svg>