<?xml version="1.0" encoding="utf-8" standalone="no"?>
<!DOCTYPE svg PUBLIC "-//W3C//DTD SVG 1.1//EN"
  "http://www.w3.org/Graphics/SVG/1.1/DTD/svg11.dtd">
<!-- Created with matplotlib (http://matplotlib.org/) -->
<svg height="432pt" version="1.1" viewBox="0 0 576 432" width="576pt" xmlns="http://www.w3.org/2000/svg" xmlns:xlink="http://www.w3.org/1999/xlink">
 <defs>
  <style type="text/css">
*{stroke-linecap:butt;stroke-linejoin:round;}
  </style>
 </defs>
 <g id="figure_1">
  <g id="patch_1">
   <path d="
M0 432
L576 432
L576 0
L0 0
z
" style="fill:#ffffff;"/>
  </g>
  <g id="axes_1">
   <g id="patch_2">
    <path d="
M72 388.8
L518.4 388.8
L518.4 43.2
L72 43.2
z
" style="fill:#ffffff;"/>
   </g>
   <g id="line2d_1">
    <path clip-path="url(#p7ff5b81e1d)" d="
M473.386 213.087
L474.227 215.148
L475.969 216.253
L477.793 216.677
L478.21 217.137
L478.921 217.551
L479.755 217.789
L479.889 218.193
L480.41 218.684
L481.146 218.882
L481.65 218.883
L481.759 219.166
L482.107 219.43
L482.455 219.609
L482.416 219.93
L482.652 220.399
L483.187 220.75
L484.856 221.192
L485.023 221.372
L485.241 221.791
L485.68 222.046
L485.673 222.241
L485.846 222.641
L485.622 222.986
L485.723 223.584
L486.339 224.079
L487.098 224.189
L487.626 224.005
L487.747 224.125
L488.267 224.332
L488.456 224.513
L488.897 224.695
L489.087 224.865
L489.04 225.191
L489.296 225.566
L489.941 226.042
L489.816 226.128
L489.763 226.359
L489.93 226.568
L490.109 226.595
L490.032 226.572
L489.827 226.735
L489.85 227.018
L490.049 227.111
L489.92 226.999
L489.274 227.132
L488.71 227.854
L488.971 228.857
L489.999 229.476
L491.006 229.474
L491.536 229.176
L491.712 229.284
L492.34 229.458
L492.624 229.54
L492.878 229.431
L492.862 229.501
L493.129 229.648
L493.169 229.631
L493.169 229.631
L493.169 229.631
L493.105 229.701
L493.117 229.88
L493.289 230.053
L493.999 230.378
L494.101 230.561
L494.188 230.609
L494.141 230.668
L494.194 230.837
L494.174 230.834
L493.983 230.877
L493.757 231.101
L493.753 231.462
L494.033 231.75
L494.814 231.998
L494.776 232.023
L494.746 232.145
L494.996 232.318
L495.031 232.294
L495.031 232.294
L495.031 232.294
L494.947 232.443
L495.065 232.509
L494.955 232.511
L494.803 232.624
L494.809 232.955
L494.964 233.31
L494.637 233.899
L494.773 233.934
L494.669 233.832
L494.669 233.832
L494.304 233.896
L494.143 234.192
L494.383 234.297
L494.351 233.898
L493.249 233.49
L491.439 233.998
L490.374 235.612
L491.012 237.4
L492.737 238.31
L494.183 238.26
L494.936 237.945
L495.235 238.092
L496.5 238.186
L496.762 238.061
L496.787 238.141
L497.135 238.248
L497.148 238.238
L497.148 238.238
L497.148 238.238
L497.109 238.383
L497.29 238.621
L497.677 238.72
L498.303 238.599
L498.262 238.636
L498.405 238.813
L498.594 238.938
L498.663 239.063
L498.571 239.1
L498.42 239.262
L498.428 239.566
L498.728 239.833
L499.132 239.877
L499.318 239.715
L499.326 239.797
L499.89 240.075
L499.797 240.071
L499.737 240.291
L500.004 240.654
L499.827 240.753
L499.986 240.889
L499.747 240.854
L499.681 241.021
L499.834 241.085
L499.86 240.904
L499.412 240.722
L498.694 240.928
L498.308 241.551
L498.564 242.188
L499.151 242.476
L499.794 242.535
L500.26 242.772
L500.226 242.812
L500.237 242.958
L500.168 243.09
L500.383 243.321
L500.476 243.327
L500.476 243.38
L500.478 243.545
L500.425 243.792
L500.392 243.753
L500.204 243.711
L499.903 243.803
L499.71 244.064
L499.778 244.342
L500.133 244.658
L499.965 244.776
L500.007 245.061
L500.012 245.015
L499.682 245.037
L499.47 245.402
L499.389 245.499
L499.208 245.55
L498.889 245.618
L498.845 245.715
L498.801 245.606
L498.555 245.551
L498.363 245.637
L498.472 245.698
L498.472 245.698
L498.765 245.411
L498.686 244.638
L497.626 243.694
L495.519 243.247
L493.114 243.828
L491.523 245.297
L491.248 246.869
L491.754 248.288
L491.261 248.935
L491.001 250.147
L491.712 251.446
L493.051 252.13
L494.381 252.171
L494.567 252.475
L495.063 252.82
L495.674 252.937
L495.618 253.323
L496.051 253.963
L497.063 254.328
L498.017 254.164
L498.38 253.659
L498.458 253.752
L498.734 253.808
L498.95 253.684
L498.928 253.789
L499.07 253.957
L499.523 254.01
L499.572 253.982
L499.56 254.041
L499.776 254.246
L499.877 254.229
L499.877 254.229
L499.877 254.229
L499.762 254.219
L499.517 254.419
L499.497 254.869
L499.945 255.309
L500.652 255.43
L501.148 255.233
L501.204 254.995
L501.3 255.069
L501.587 255.131
L501.909 255.095
L501.867 255.047
L501.819 255.118
L501.819 255.118
L502.036 255.199
L502.021 255.146
L501.904 255.192
L501.877 255.344
L502.142 255.51
L502.385 255.591
L502.362 255.638
L502.512 255.895
L502.447 255.859
L502.311 255.932
L502.326 256.075
L502.476 256.077
L502.399 255.883
L501.854 255.799
L501.178 256.177
L501.019 256.933
L501.588 257.572
L502.415 257.727
L502.908 257.527
L502.974 257.351
L503.042 257.464
L503.67 257.552
L503.587 257.638
L503.645 257.764
L504.078 257.996
L504.042 258.043
L504.052 258.08
L504.073 258.073
L504.073 258.073
L504.003 258.029
L503.809 258.051
L503.635 258.216
L503.655 258.446
L504 258.584
L504.024 258.562
L504.024 258.562
L504.024 258.562
L504.05 258.655
L504.102 258.663
L504.042 258.711
L504.125 258.887
L504.004 258.871
L503.926 259.071
L503.898 259.202
L503.854 259.202
L503.538 259.308
L503.575 259.281
L503.641 259.123
L503.526 258.773
L502.944 258.371
L501.886 258.26
L500.789 258.67
L500.177 259.445
L500.144 260.199
L500.57 261.138
L500.859 261.55
L501.356 261.858
L501.892 261.912
L502.167 261.732
L502.15 261.832
L502.44 261.965
L502.449 261.933
L502.449 261.933
L502.449 261.933
L502.347 261.997
L502.315 262.174
L502.438 262.357
L502.824 262.475
L503.078 262.534
L503.029 262.636
L503.136 262.848
L503.06 262.755
L502.824 262.805
L502.647 263.008
L502.676 263.266
L503.09 263.468
L503.229 263.516
L503.24 263.603
L503.345 263.734
L503.241 263.685
L503.139 263.861
L503.214 264.005
L503.158 263.993
L502.87 264.134
L503.035 264.006
L502.84 263.73
L502.276 263.588
L501.632 263.787
L501.305 264.243
L501.409 264.667
L501.867 264.857
L501.76 264.939
L501.869 265.168
L501.955 265.194
L501.928 265.277
L501.951 265.315
L501.91 265.315
L501.74 265.395
L501.708 265.593
L501.783 265.732
L501.744 265.715
L501.525 265.862
L501.497 265.717
L501.297 265.635
L501.012 265.654
L500.784 265.801
L500.811 266.091
L500.85 266.091
L500.85 266.091
L500.85 266.091
L500.618 266.184
L500.415 266.36
L500.493 266.242
L500.314 266.164
L499.743 266.274
L499.729 266.213
L499.403 266.009
L499.464 266.108
L499.774 266.088
L500.103 265.864
L500.63 265.053
L500.723 264.294
L500.246 263.41
L499.288 262.834
L498.507 262.624
L497.357 261.433
L495.551 260.784
L493.402 261.076
L492.219 262.049
L492.109 262.682
L491.874 262.627
L490.887 262.611
L489.972 263.147
L489.883 263.633
L489.829 263.351
L488.531 262.788
L486.246 263.134
L484.633 264.64
L484.609 266.277
L485.711 267.339
L485.554 267.623
L485.507 268.1
L485.708 268.468
L485.301 268.575
L484.821 268.975
L484.654 269.528
L484.929 270.096
L484.765 270.122
L484.327 270.293
L484.018 270.702
L484.145 271.007
L484.232 270.75
L483.242 270.152
L480.925 270.264
L478.649 271.891
L478.209 274.459
L479.824 276.473
L481.957 277.111
L483.459 276.838
L483.649 277.097
L484.67 277.836
L485.14 278.071
L485.634 278.071
L485.767 277.943
L485.619 278.032
L485.686 278.344
L486.049 278.494
L486.174 278.364
L485.786 278.368
L485.398 278.835
L485.599 279.483
L486.222 279.817
L486.764 279.825
L486.868 279.988
L487.285 280.064
L487.198 280.067
L487.088 280.247
L487.304 280.607
L487.475 280.944
L487.326 281.027
L487.254 281.23
L487.39 281.312
L487.287 281.054
L486.322 280.811
L484.709 281.357
L483.68 282.977
L484.315 284.941
L486.348 286.134
L488.434 286.148
L489.539 285.565
L489.797 285.175
L490.458 285.228
L490.98 285.052
L491.193 284.764
L491.147 284.617
L491.286 284.716
L491.533 284.622
L491.479 284.747
L491.6 284.91
L492.132 285.026
L492.557 284.882
L492.538 284.903
L492.64 285.037
L492.812 285.158
L492.704 285.118
L492.484 285.187
L492.296 285.422
L492.346 285.754
L492.659 285.989
L493.162 285.926
L493.157 285.898
L493.157 285.898
L493.157 285.898
L493.25 285.998
L493.523 286.094
L493.466 286.089
L493.516 286.221
L493.576 286.186
L493.491 286.143
L493.491 286.143
L493.347 286.209
L493.391 286.447
L493.543 286.58
L493.501 286.597
L493.397 286.804
L493.405 286.759
L493.251 286.865
L493.358 286.753
L492.998 286.51
L492.721 286.357
L492.159 286.186
L491.283 286.274
L490.531 286.769
L490.279 287.388
L490.267 287.775
L489.984 288.057
L489.537 288.667
L489.602 289.616
L490.42 290.369
L491.397 290.559
L492.122 290.476
L492.441 290.604
L492.83 290.574
L492.929 290.448
L492.812 290.548
L492.969 290.877
L493.53 291.057
L494.042 290.889
L494.046 290.579
L494.103 290.656
L494.569 290.703
L494.556 290.807
L494.636 290.803
L494.571 290.737
L494.571 290.737
L494.336 290.792
L494.198 291.051
L494.371 291.342
L494.724 291.45
L495.301 291.363
L495.305 291.405
L495.341 291.407
L495.34 291.395
L495.34 291.395
L495.248 291.488
L495.37 291.61
L495.389 291.602
L495.377 291.612
L495.377 291.612
L495.327 291.771
L495.282 291.707
L495.205 291.619
L494.978 291.532
L494.618 291.559
L494.287 291.761
L494.149 292.069
L494.224 292.349
L494.736 292.722
L495.038 292.814
L494.908 292.832
L494.937 293.017
L495.098 293.084
L495.059 293.17
L495.066 293.183
L495.065 293.181
L495.065 293.181
L494.55 293.251
L494.625 293.466
L494.689 293.472
L494.628 293.571
L494.584 293.651
L494.593 293.604
L494.4 293.611
L494.228 293.721
L494.107 293.652
L494.236 293.69
L494.392 293.417
L494.353 292.81
L494.059 292.54
L493.563 292.393
L493.503 292.151
L493.122 291.755
L492.368 291.545
L490.366 291.831
L489.882 292.149
L489.909 292.423
L490.016 292.191
L489.328 291.673
L487.823 291.675
L486.571 292.535
L486.398 293.638
L486.893 294.239
L487.151 294.371
L487.022 294.549
L487.007 294.895
L487.209 295.076
L487.144 295.032
L486.659 295.174
L486.324 295.722
L486.592 296.297
L487.093 296.461
L487.19 296.362
L486.921 296.468
L486.865 296.838
L487.189 297.057
L487.349 296.915
L486.889 296.783
L486.141 297.159
L485.883 298.022
L486.455 298.849
L487.453 299.187
L488.241 299.052
L488.75 298.736
L489.154 298.883
L489.024 298.852
L488.935 298.971
L489.104 299.176
L489.268 299.243
L489.198 299.284
L489.136 299.456
L489.141 299.397
L489.041 299.271
L488.741 299.16
L488.281 299.199
L487.854 299.457
L487.667 299.851
L487.746 300.212
L488.277 300.751
L488.76 300.856
L488.975 300.815
L488.88 300.872
L488.901 301.021
L489.131 301.208
L488.997 301.164
L488.671 301.236
L488.614 301.4
L488.806 301.694
L488.703 301.62
L488.388 301.758
L488.538 301.616
L488.584 301.328
L488.411 301.126
L487.926 300.833
L487.582 300.571
L486.926 300.489
L486.344 300.736
L486.08 301.18
L485.747 301.251
L484.807 302.288
L485.017 302.69
L485.42 302.832
L485.636 302.762
L485.595 302.803
L485.667 302.982
L485.589 303.077
L485.632 303.012
L485.471 302.92
L485.191 302.948
L484.984 303.122
L484.966 303.333
L485.211 303.682
L485.159 303.649
L485.013 303.756
L485.038 303.775
L485.005 303.785
L485.005 303.785
L484.861 303.773
L484.993 303.679
L484.993 303.515
L484.841 303.348
L484.372 303.25
L483.742 303.347
L483.521 303.675
L483.618 303.868
L483.471 303.802
L483.298 303.955
L483.27 304.02
L483.2 304.014
L483.103 304.022
L483.154 304.017
L483.154 304.017
L483.184 303.866
L482.927 303.703
L482.656 303.809
L482.666 303.867
L482.583 303.822
L482.42 303.841
L482.492 303.821
L482.393 303.686
L482.224 303.677
L482.222 303.607
L482.27 303.522
L482.305 303.611
L482.625 303.644
L483.021 303.557
L484.097 303
L484.337 302.556
L484.161 302.149
L483.883 302.049
L483.956 302.109
L484.31 301.965
L484.473 301.592
L484.342 301.336
L484.393 301.333
L484.94 301.214
L485.551 300.597
L485.547 299.662
L484.875 298.949
L482.993 298.214
L482.957 298.194
L483.168 297.986
L483.253 297.481
L482.894 296.911
L482.24 296.613
L481.784 296.634
L481.899 296.32
L481.627 295.863
L481.096 295.74
L481.137 295.998
L482.218 295.892
L483.469 294.609
L483.258 292.364
L480.933 290.447
L477.64 289.983
L475.168 290.852
L474.235 291.997
L474.176 292.6
L474.05 292.669
L473.545 292.619
L472.862 292.705
L472.223 292.947
L471.768 293.292
L471.596 293.76
L471.484 293.695
L471.122 293.652
L470.792 293.795
L470.801 293.93
L470.951 293.733
L470.695 293.243
L469.85 292.888
L468.869 292.977
L468.275 293.342
L467.912 293.698
L467.421 293.901
L467.393 293.965
L467.393 293.965
L467.393 293.965
L467.34 293.834
L467.025 293.639
L466.545 293.602
L466.039 293.723
L465.585 293.528
L465.442 293.45
L466.15 292.919
L466.701 291.848
L466.321 290.014
L464.129 288.184
L460.594 287.543
L457.474 288.436
L456.023 289.861
L455.605 290.617
L454.658 290.746
L452.845 291.318
L451.467 292.847
L451.602 294.532
L452.63 295.337
L453.14 295.312
L452.769 295.343
L452.385 295.851
L452.597 296.359
L452.914 296.371
L452.594 296.136
L451.72 296.251
L451.01 296.865
L450.877 297.605
L451.343 298.407
L451.628 298.913
L451.216 299.207
L451.176 299.536
L451.198 299.563
L451.198 299.563
L451.198 299.563
L450.908 299.617
L450.83 299.731
L450.87 299.621
L450.646 299.393
L450.166 299.198
L449.478 299.139
L448.697 299.312
L448.062 299.749
L447.811 300.302
L447.969 300.88
L447.707 301.003
L447.515 301.257
L447.568 301.668
L447.558 301.769
L447.264 301.824
L446.928 301.739
L446.521 301.822
L445.997 302.367
L445.93 302.505
L445.887 302.463
L445.522 302.424
L445.16 302.518
L444.865 302.466
L444.983 302.449
L445.169 302.254
L445.192 301.56
L445.189 301.096
L444.996 300.368
L444.197 299.578
L442.979 299.214
L442.184 299.277
L441.567 297.964
L439.515 296.867
L436.559 296.966
L434.615 298.264
L434.396 299.494
L433.33 299.308
L431.918 299.905
L431.709 300.823
L432.305 300.652
L431.439 299.274
L428.008 298.458
L423.801 299.81
L421.534 302.886
L421.953 305.86
L423.641 307.552
L426.022 308.56
L425.659 309.345
L425.682 310.099
L426.162 310.744
L426.954 311.06
L426.842 311.21
L426.758 311.543
L426.89 311.855
L427.061 311.944
L426.918 311.811
L426.172 311.702
L424.876 312.049
L423.648 313.185
L423.392 314.909
L424.463 316.463
L426.204 317.167
L427.545 317.066
L428.104 316.798
L428.301 317.062
L428.748 317.28
L429.518 317.257
L429.683 317.204
L429.712 317.287
L429.953 317.404
L429.771 317.387
L429.583 317.579
L429.567 317.859
L429.888 318.229
L430.212 318.506
L430.181 318.775
L430.257 318.821
L430.259 318.796
L430.259 318.796
L430.066 318.911
L430.138 318.983
L430.205 318.901
L430.205 318.901
L430.062 318.761
L428.743 318.441
L427.894 318.661
L427.403 319.229
L427.409 319.709
L426.744 319.782
L425.918 320.453
L425.883 321.544
L426.749 322.286
L427.621 322.33
L427.819 322.142
L427.677 322.252
L427.821 322.548
L428.182 322.615
L428.223 322.467
L427.868 322.514
L427.632 322.914
L427.86 323.364
L428.309 323.556
L429.015 323.577
L428.962 323.594
L428.973 323.765
L429.063 324
L429.01 323.931
L428.642 323.901
L428.092 324.132
L427.924 324.416
L427.982 324.704
L428.265 324.867
L428.197 324.901
L428.126 325.042
L428.344 325.272
L428.413 325.259
L428.371 325.365
L428.395 325.38
L428.388 325.372
L428.388 325.372
L428.105 325.365
L427.912 325.576
L427.933 325.773
L427.902 325.758
L427.575 325.86
L427.647 325.817
L427.644 325.495
L427.546 325.039
L427.221 324.784
L426.683 324.761
L426.833 324.595
L426.786 324.043
L426.063 323.424
L424.884 323.246
L423.993 323.569
L423.65 323.854
L423.159 323.668
L422.496 323.796
L422.395 324.117
L422.91 323.912
L422.957 322.781
L421.359 321.357
L418.23 320.862
L415.072 321.937
L413.443 324.028
L413.635 325.93
L414.633 326.852
L415.191 326.931
L414.852 326.882
L414.064 327.259
L413.547 328.063
L413.609 328.906
L414.012 329.445
L414.307 329.757
L414.1 329.965
L413.97 330.291
L414.055 330.546
L414.172 330.501
L413.845 330.12
L412.615 329.744
L410.533 329.999
L408.427 331.358
L407.479 333.615
L408.261 335.864
L410.128 337.189
L412.366 337.492
L412.5 337.96
L413.151 338.819
L414.558 339.369
L415.942 339.201
L416.519 338.695
L416.44 338.497
L416.44 338.497
L416.44 338.497
L416.467 338.723
L416.928 338.928
L417.375 338.803
L417.311 338.601
L416.921 338.768
L416.841 339.343
L417.383 339.921
L418.246 340.135
L418.939 340
L419.54 339.565
L419.565 339.618
L419.765 339.796
L420.128 339.939
L419.975 339.873
L419.269 340.145
L418.872 340.497
L418.736 341.103
L419.101 341.699
L419.722 341.973
L420.152 342.057
L420.269 342.396
L420.792 342.746
L421.513 342.792
L421.989 342.572
L422.184 342.331
L422.457 342.22
L422.42 342.158
L422.361 342.237
L422.361 342.237
L422.473 342.39
L422.736 342.458
L423.133 342.252
L423.281 342.234
L423.394 342.27
L423.299 342.272
L423.299 342.272
L423.088 342.444
L423.091 342.594
L423.354 342.749
L423.537 342.825
L423.661 342.842
L423.568 342.856
L423.568 342.856
L423.615 343.001
L423.583 343.09
L423.585 343.062
L423.585 343.062
L423.322 342.806
L422.995 342.731
L422.755 342.59
L422.373 342.579
L421.897 342.889
L421.673 343.248
L421.728 343.307
L421.735 343.222
L421.735 343.222
L421.493 343.078
L421.003 343.075
L420.507 343.32
L420.247 343.727
L420.261 344.119
L420.927 345.089
L421.305 345.186
L421.379 345.144
L421.387 345.244
L421.446 345.255
L421.448 345.229
L421.448 345.229
L421.246 345.247
L421.016 345.501
L421.021 345.704
L421.366 345.978
L421.885 346.029
L421.781 346.093
L421.817 346.256
L421.759 346.143
L421.759 346.143
L421.581 346.04
L420.82 346.18
L420.775 346.483
L420.925 346.647
L420.826 346.628
L420.739 346.804
L420.873 346.968
L420.761 346.874
L420.761 346.874
L420.567 346.872
L420.23 347.075
L420.489 346.842
L420.463 346.813
L420.503 346.818
L420.716 346.656
L420.631 346.342
L420.493 346.178
L420.408 346.185
L420.448 346.227
L420.448 346.227
L420.765 346.074
L420.867 345.686
L420.685 345.262
L420.306 344.968
L420.242 344.796
L420.044 344.603
L419.472 344.511
L419.315 344.6
L419.318 344.554
L419.149 344.432
L419.095 344.466
L419.095 344.466
L419.095 344.466
L419.199 344.501
L419.421 344.435
L419.807 343.976
L419.943 343.608
L419.921 343.092
L419.538 342.549
L418.875 342.237
L418.192 342.169
L418.042 341.824
L417.395 341.389
L416.386 341.337
L415.701 341.73
L415.654 342.093
L415.771 342.068
L415.507 341.882
L415.039 341.95
L414.935 342.212
L415.243 342.213
L415.364 341.768
L414.829 341.232
L413.849 341.061
L412.99 341.327
L412.561 341.765
L412.543 342.301
L412.576 342.352
L412.525 342.346
L411.93 342.309
L411.752 342.509
L411.714 342.348
L411.492 342.342
L411.444 342.463
L411.654 342.473
L411.828 342.269
L411.931 341.88
L412.272 341.462
L412.286 340.575
L411.4 339.655
L410.03 339.333
L409.158 339.492
L408.874 339.365
L408.133 338.713
L406.325 338.318
L404.348 338.905
L403.441 340.063
L403.433 341.017
L402.848 341.288
L402.499 341.929
L402.806 342.371
L402.985 342.182
L402.198 341.889
L400.888 342.307
L400.242 343.408
L400.643 344.402
L401.375 344.797
L401.857 344.94
L402.185 345.071
L402.115 345.007
L401.886 345.085
L401.779 345.303
L401.843 345.584
L401.788 345.691
L401.727 345.596
L401.422 345.204
L400.909 344.942
L400.069 344.839
L399.108 345.074
L398.376 345.631
L398.056 346.29
L398.105 347.348
L398.329 347.802
L398.758 348.122
L399.21 348.182
L399.394 348.07
L399.212 348.166
L399.442 348.307
L399.418 348.233
L399.061 348.265
L398.665 348.547
L398.599 348.815
L398.743 349.042
L399.014 349.062
L398.854 349.161
L398.7 349.348
L398.793 349.404
L398.822 349.346
L398.822 349.346
L398.585 349.395
L398.648 349.473
L398.751 349.411
L398.371 348.579
L397.784 348.301
L395.827 348.217
L394.848 348.387
L393.934 348.985
L393.606 349.832
L393.875 350.454
L394.167 350.646
L394.047 350.705
L393.731 350.994
L393.689 351.448
L393.99 351.712
L393.594 351.767
L393.089 352.204
L393.01 352.913
L393.45 353.498
L394.42 353.812
L395.015 353.862
L394.757 353.936
L394.693 354.22
L394.875 354.497
L395.714 354.825
L395.766 354.789
L395.766 354.789
L395.766 354.789
L395.57 354.901
L395.533 355.092
L395.787 355.486
L396.271 355.642
L397.055 355.553
L396.99 355.67
L397.111 355.818
L396.992 355.699
L396.992 355.699
L396.662 355.708
L396.316 355.75
L396.234 356.028
L396.282 356.066
L396.237 356.074
L396.134 356.257
L396.142 356.424
L396.225 356.595
L396.413 356.679
L396.251 356.617
L396.251 356.617
L396.05 356.764
L395.958 356.899
L395.927 356.887
L395.881 356.881
L395.9 356.888
L395.9 356.888
L396.083 356.696
L396.113 356.538
L396.076 356.382
L396.031 356.2
L395.962 356.166
L395.978 356.163
L396.084 356.096
L396.153 355.918
L396.059 355.7
L395.624 355.517
L395.275 355.517
L395.379 355.506
L395.435 355.336
L395.318 355.13
L394.617 354.882
L394.363 354.921
L394.522 354.813
L394.552 354.582
L394.436 354.282
L394.123 353.967
L393.594 353.737
L392.967 353.703
L391.613 354.192
L391.269 354.411
L391.135 354.725
L391.22 355.114
L391.106 354.884
L390.818 354.758
L390.429 354.773
L390.126 354.933
L389.995 355.267
L390.03 355.328
L390.041 355.311
L390.041 355.311
L389.951 355.241
L389.721 355.208
L389.454 355.299
L389.356 355.608
L389.392 355.621
L389.392 355.621
L389.392 355.621
L389.19 355.661
L389.177 355.749
L389.254 355.747
L389.254 355.747
L389.256 355.624
L389.072 355.47
L388.737 355.394
L388.354 355.436
L388.014 355.59
L387.726 356.024
L387.616 356.208
L387.417 356.33
L387.267 356.569
L387.307 356.839
L387.569 357.209
L387.888 357.711
L388.043 357.767
L387.957 357.729
L387.957 357.729
L387.729 357.817
L387.527 358.033
L387.678 357.848
L387.678 357.848
L387.706 357.699
L387.489 357.321
L387.506 357.188
L387.39 357.002
L387.122 356.878
L386.635 356.953
L386.443 357.148
L386.399 357.041
L385.542 356.984
L385.226 357.065
L385.036 357.336
L385.073 357.644
L384.938 357.638
L384.87 357.68
L384.951 357.644
L384.951 357.644
L384.991 357.379
L384.783 357.282
L384.557 357.228
L384.34 357.18
L384.137 357.326
L384.107 357.154
L383.953 357.055
L384.1 357.152
L384.1 357.152
L384.339 357.149
L384.504 357.169
L384.9 357.247
L385.155 357.031
L385.188 356.913
L385.225 356.976
L386.913 356.768
L387.515 356.094
L387.549 355.86
L387.257 355.604
L387.19 355.624
L387.235 355.624
L387.235 355.624
L387.375 355.59
L387.817 355.637
L388.095 355.505
L388.231 355.291
L388.129 355.043
L388.183 355.074
L388.573 355.037
L388.772 354.881
L388.861 354.609
L388.98 354.5
L388.918 354.404
L388.81 354.488
L388.927 354.704
L389.309 354.852
L390.165 354.756
L390.97 354.398
L391.266 353.93
L392.057 353.782
L392.605 353.316
L392.696 352.69
L392.251 352.216
L392.462 352.112
L392.69 351.754
L392.579 351.346
L392.329 351.195
L392.416 351.22
L392.879 351.028
L393.218 350.438
L393 349.721
L392.345 349.267
L391.702 349.173
L390.989 349.288
L391.083 349.207
L391.08 349.047
L390.798 348.893
L390.776 348.921
L390.776 348.921
L390.776 348.921
L390.867 348.789
L390.756 348.762
L390.838 348.808
L390.838 348.808
L391.049 348.837
L391.257 348.96
L391.761 349.055
L392.466 348.905
L393.055 348.473
L393.357 347.932
L393.51 346.864
L393.307 346.256
L392.75 345.761
L392.045 345.591
L391.483 345.841
L391.506 345.684
L391.267 345.608
L391.438 345.638
L391.659 345.544
L391.868 345.327
L391.935 345.01
L391.792 344.706
L391.299 344.488
L391.201 344.494
L391.286 344.398
L391.363 344.188
L391.249 344.05
L391.354 344.039
L391.374 343.899
L391.315 343.953
L391.315 343.953
L391.387 344.081
L391.711 344.25
L391.854 344.46
L392.283 344.806
L393.124 345.033
L394.064 344.948
L394.772 344.736
L396.67 344.604
L398.201 343.972
L399.173 342.694
L399.072 341.441
L398.561 340.845
L398.617 340.649
L399.162 340.131
L399.254 339.231
L398.65 338.695
L398.405 338.941
L399.543 339.276
L401.632 338.61
L403.168 336.686
L403.109 334.256
L401.582 332.254
L399.385 331.151
L397.356 330.95
L396.147 331.305
L395.945 331.595
L395.945 331.595
L395.945 331.595
L396.189 331.292
L395.98 330.473
L395.01 329.747
L393.826 329.538
L392.758 329.731
L391.949 329.221
L391.654 329.155
L391.685 329.233
L392.431 329.129
L393.597 328.145
L393.827 326.045
L391.881 323.79
L388.293 322.872
L385.15 323.722
L383.931 325.225
L384.074 326.037
L384.026 326.005
L383.192 325.955
L382.267 326.418
L381.956 327.097
L382.232 327.6
L382.14 327.625
L381.831 327.843
L381.844 327.772
L381.758 327.593
L381.471 327.412
L381.07 327.354
L380.49 327.516
L380.218 327.76
L380.161 327.658
L379.783 327.589
L379.626 327.498
L379.542 327.485
L379.55 327.529
L379.55 327.529
L379.85 327.412
L380.07 327.215
L380.404 327.029
L380.655 326.579
L380.492 326.067
L380.151 325.805
L380.58 325.438
L380.629 324.54
L379.726 323.675
L378.399 323.49
L377.642 323.844
L377.595 324.041
L377.505 323.827
L376.967 323.65
L376.506 323.841
L376.651 324.027
L376.988 323.69
L376.673 322.986
L375.603 322.58
L374.519 322.782
L374.007 323.252
L373.729 323.925
L373.774 323.927
L373.7 323.838
L373.317 323.859
L373.175 323.907
L373.034 323.896
L373.08 323.852
L373.215 323.649
L373.219 323.222
L373.024 322.96
L372.685 322.798
L372.247 322.7
L372.04 322.5
L371.634 322.422
L371.308 322.549
L371.256 322.707
L371.273 322.628
L371.047 322.674
L371.143 322.535
L371.042 322.217
L370.691 322.131
L370.575 322.089
L370.607 322.062
L370.547 321.891
L370.454 321.888
L370.544 321.8
L370.468 321.774
L370.455 321.829
L370.455 321.829
L371.042 321.951
L371.621 321.779
L371.811 321.612
L372.007 321.711
L372.507 321.809
L373.242 321.669
L373.831 321.203
L373.95 320.665
L373.798 320.409
L373.905 320.414
L374.375 320.28
L374.66 319.853
L374.409 319.59
L374.242 319.972
L375.19 320.686
L377.355 320.763
L379.599 319.614
L380.668 317.631
L380.288 315.708
L379.075 314.447
L377.82 313.928
L377.094 313.897
L377.122 313.892
L377.569 313.449
L377.683 312.531
L377.068 311.643
L376.195 311.257
L375.774 311.206
L375.798 310.99
L375.699 310.527
L375.111 310.136
L375.335 310.109
L378.428 309.283
L380.599 307.463
L381.308 304.125
L379.049 300.703
L374.895 299.089
L371.64 299.429
L370.541 299.96
L369.988 299.32
L367.964 298.219
L364.835 298.238
L362.677 299.577
L362.391 300.895
L362.755 301.207
L362.397 300.977
L361.523 301.103
L361.133 301.584
L361.367 301.76
L361.465 301.4
L360.984 300.923
L359.516 300.524
L358.712 300.395
L357.746 300.459
L356.967 300.83
L356.575 301.352
L355.686 301.207
L355.296 301.17
L354.816 301.41
L354.856 301.355
L354.686 301.156
L354.323 301.119
L354.233 301.285
L354.575 301.274
L354.859 300.879
L354.624 300.236
L355.027 299.913
L355.391 298.945
L354.733 297.695
L353.314 297.119
L352.649 297.273
L353.286 296.89
L353.53 295.054
L351.39 292.767
L347.353 291.943
L343.962 293.032
L342.673 294.583
L342.406 295.289
L341.634 295.49
L340.616 296.087
L340.46 296.826
L340.797 296.701
L339.928 295.783
L337.321 295.493
L334.64 296.81
L333.745 299.007
L334.579 300.648
L335.7 301.245
L336.416 301.507
L336.582 301.641
L336.332 301.742
L336.153 302.051
L336.278 302.346
L336.469 302.412
L336.424 302.377
L336.248 302.464
L336.313 302.687
L336.172 302.565
L335.937 302.514
L335.736 302.387
L335.344 302.292
L334.859 302.341
L334.453 302.535
L334.101 302.973
L333.819 302.956
L333.384 303.104
L333.116 303.465
L333.214 303.809
L333.454 303.905
L333.301 303.855
L333.221 304.012
L333.341 304.097
L333.409 304.009
L333.255 303.907
L332.462 304.085
L332.312 304.3
L332.117 304.269
L332.065 304.347
L332.006 304.256
L331.937 304.324
L332.038 304.365
L332.038 304.365
L332.144 304.269
L332.008 304.133
L332.1 304.139
L332.262 303.986
L332.217 303.724
L331.838 303.624
L331.987 303.632
L332.217 303.416
L332.233 303.034
L331.977 302.674
L331.58 302.451
L330.784 302.264
L330.602 302.137
L330.432 302.154
L330.432 302.154
L330.432 302.154
L330.624 302.221
L331.179 301.931
L331.447 301.059
L330.74 299.996
L329.183 299.455
L327.677 299.721
L326.956 300.384
L326.942 300.854
L327.063 300.931
L327.063 300.931
L327.063 300.931
L326.938 300.813
L326.584 300.742
L325.884 300.955
L325.622 301.136
L325.272 301.224
L325.323 301.282
L325.417 301.17
L325.245 300.71
L325.336 300.285
L324.975 299.583
L323.933 299.021
L322.624 298.949
L321.585 299.248
L320.128 299.998
L319.521 300.624
L319.428 301.404
L319.89 301.926
L320.365 301.978
L320.397 301.849
L320.17 301.911
L320.134 302.134
L320.321 302.222
L320.385 302.111
L320.186 302.027
L319.617 302.241
L319.438 302.39
L319.387 302.663
L319.232 302.672
L319.091 302.754
L319.232 302.705
L319.232 302.705
L319.087 302.6
L319.133 302.599
L319.218 302.473
L319.125 302.271
L318.72 302.24
L318.81 302.259
L318.932 302.07
L318.797 301.758
L318.386 301.548
L317.935 301.548
L317.224 301.836
L317.304 301.825
L317.385 301.625
L317.18 301.289
L316.601 301.076
L315.932 301.191
L315.565 301.548
L315.584 301.863
L315.775 301.953
L315.617 301.972
L315.344 302.151
L315.317 302.026
L315.288 301.856
L314.964 301.752
L314.874 301.794
L314.857 301.715
L314.505 301.595
L314.096 301.653
L313.937 301.593
L313.82 301.59
L313.826 301.571
L313.738 301.511
L313.857 301.48
L313.857 301.48
L314.021 301.517
L314.096 301.329
L314.028 301.349
L314.112 301.435
L314.343 301.436
L314.595 301.159
L314.707 300.794
L314.705 300.862
L314.921 301.042
L315.492 301.102
L316.139 300.802
L316.4 300.231
L316.162 299.75
L315.613 299.618
L315.811 299.508
L315.839 299.174
L315.756 298.917
L315.678 298.741
L315.65 298.824
L315.836 298.911
L316.142 298.82
L316.234 298.981
L316.739 299.239
L317.63 299.233
L318.435 298.874
L318.97 298.459
L319.619 298.103
L320.549 297.419
L321.075 296.118
L320.414 294.696
L318.885 294.013
L317.713 294.219
L317.534 294.571
L317.734 294.452
L317.513 294.099
L317.024 294.049
L316.936 294.264
L317.307 294.259
L317.567 293.899
L317.205 292.686
L316.734 292.375
L316.253 292.392
L316.167 292.536
L316.332 292.478
L316.338 292.242
L316.076 291.945
L315.994 291.776
L315.786 291.763
L315.926 291.714
L315.942 291.55
L315.785 291.509
L315.802 291.664
L316.15 291.743
L316.52 291.47
L316.664 291.626
L317.342 291.763
L318.195 291.432
L318.438 290.822
L318.114 290.663
L318.318 291.189
L319.842 291.626
L322.031 291.04
L323.464 289.451
L323.549 287.754
L321.869 284.622
L321.485 284.407
L321.981 284.449
L323.592 283.851
L325.14 281.839
L324.858 278.802
L322.121 276.189
L318.18 275.244
L315.023 275.927
L313.639 277.131
L313.468 277.82
L312.988 277.553
L312.182 277.437
L311.416 277.564
L310.564 278.02
L310.015 277.934
L309.833 278.04
L309.928 278.073
L309.928 278.073
L310.078 277.869
L310.02 277.547
L309.86 277.306
L309.912 276.547
L309.502 275.829
L308.55 275.357
L307.655 275.378
L307.366 275.532
L307.409 275.3
L307.028 274.701
L305.983 274.274
L304.83 274.38
L304.181 274.802
L303.941 275.156
L303.461 275.241
L303.411 275.339
L303.48 275.288
L303.48 275.288
L303.449 275.083
L303.228 274.861
L302.346 274.507
L301.967 274.436
L301.591 274.497
L301.452 274.699
L301.469 274.576
L301.285 274.418
L300.571 274.321
L300.599 274.221
L300.556 274.206
L300.556 274.206
L300.556 274.206
L300.648 274.232
L300.855 274.156
L300.996 273.889
L301.2 273.856
L301.568 273.642
L301.686 273.224
L301.434 272.984
L301.379 273.129
L302.005 273.246
L302.893 272.816
L303.237 271.982
L302.793 270.681
L302.691 270.206
L302.314 269.924
L302.17 269.974
L302.55 269.996
L303.559 269.513
L304.54 269.31
L306.198 268.465
L307.366 266.461
L306.669 264.046
L304.453 262.612
L302.559 262.518
L302.084 262.722
L302.263 262.221
L301.823 261.181
L300.6 260.39
L299.337 260.157
L298.13 260.121
L297.36 259.655
L296.881 259.548
L296.702 259.633
L297.081 259.607
L297.655 259.117
L297.865 257.861
L298.638 257.369
L299.907 255.914
L299.911 253.391
L297.849 251.326
L295.733 250.897
L295.943 250.791
L297.316 248.562
L295.851 244.219
L289.854 240.843
L282.433 240.97
L277.748 243.661
L276.383 246.169
L276.004 247.371
L275.278 248.113
L274.875 248.901
L275.029 249.074
L275.029 249.074
L275.029 249.074
L274.489 248.38
L272.478 247.817
L269.986 248.266
L268.241 249.386
L267.192 250.488
L266.358 251.585
L266.048 252.853
L266.603 253.803
L267.254 253.921
L266.994 253.654
L266.099 253.86
L265.655 254.55
L265.95 255.049
L265.605 255.119
L265.37 255.444
L265.507 255.658
L265.309 255.522
L265.167 255.634
L265.301 255.584
L265.238 255.245
L264.79 254.987
L264.476 254.951
L264.479 254.69
L264.071 254.033
L262.874 253.631
L261.85 253.962
L261.984 254.306
L262.496 253.617
L261.634 252.154
L259.076 251.309
L256.36 251.831
L254.837 253.065
L254.071 254.784
L253.97 255.348
L254.13 255.651
L254.153 255.515
L253.603 255.22
L252.665 255.125
L250.343 255.285
L248.617 255.869
L247.27 257.284
L247.291 258.994
L248.41 259.985
L249.279 260.035
L249.19 259.927
L248.798 260.304
L248.92 260.906
L249.408 261.194
L249.656 261.176
L249.588 261.218
L249.568 261.401
L249.768 261.52
L249.594 261.523
L249.213 261.474
L248.218 261.499
L247.805 261.803
L247.774 262.151
L247.93 262.218
L247.93 262.218
L247.93 262.218
L247.758 262.06
L247.178 262.091
L246.7 262.49
L246.695 262.961
L246.972 263.332
L247.139 263.49
L246.974 263.412
L246.33 263.847
L246.305 263.972
L246.29 263.972
L246.093 264.009
L246.028 264.166
L246.015 264.071
L246.015 264.071
L246.029 263.898
L245.83 263.636
L245.838 263.678
L246.056 263.626
L246.222 263.344
L246.06 263.003
L245.116 262.666
L245.126 262.787
L245.392 262.749
L245.533 262.498
L245.45 262.323
L245.572 262.311
L246.091 262.067
L246.412 261.309
L245.906 260.437
L244.885 260.075
L244.165 260.241
L244.056 259.902
L243.462 259.56
L242.746 259.579
L242.355 259.851
L242.214 259.758
L241.816 259.802
L241.925 259.678
L242.18 259.358
L242.304 259.154
L242.612 258.916
L243.068 258.37
L243.096 257.449
L242.349 256.714
L241.646 256.715
L242.231 256.92
L243.851 255.977
L244.396 253.416
L242.141 250.586
L237.848 249.371
L233.988 250.22
L232.157 251.935
L231.966 253.186
L232.209 253.606
L232.181 253.48
L231.667 253.091
L230.515 252.706
L228.837 252.728
L227.223 253.378
L226.253 254.399
L225.947 255.359
L225.98 256.084
L226.182 256.6
L226.577 256.854
L226.291 256.827
L225.865 257.053
L225.735 257.438
L225.937 257.65
L225.75 257.673
L225.616 257.836
L225.688 257.953
L225.657 257.833
L225.657 257.833
L225.566 257.831
L225.59 257.782
L225.566 257.611
L225.307 257.31
L225.26 257.034
L224.918 256.612
L224.213 256.416
L223.777 256.615
L224.101 256.674
L224.549 255.956
L223.935 254.703
L222.059 253.895
L219.99 254.079
L218.717 254.838
L217.978 255.983
L217.931 256.3
L218.068 256.346
L218.018 256.016
L217.448 255.583
L214.684 254.824
L212.875 254.703
L210.853 255.385
L209.707 256.687
L209.463 258.111
L208.58 258.515
L207.659 259.602
L207.757 261.004
L208.716 261.85
L209.559 262.037
L209.561 262.359
L209.9 262.646
L210.218 262.591
L210.067 262.414
L209.62 262.462
L208.458 263.189
L207.995 263.781
L208.019 264.565
L208.567 265.122
L209.312 265.182
L209.156 265.245
L209.005 265.527
L209.065 265.904
L209.342 266.227
L209.729 266.405
L210.349 266.388
L210.155 266.512
L210.295 266.966
L210.407 266.964
L210.299 267.027
L210.38 267.142
L210.27 267.076
L210.27 267.076
L210.174 266.953
L209.985 266.981
L210.086 266.907
L210.045 266.744
L209.857 266.591
L209.322 266.546
L209.024 266.762
L209.038 266.603
L208.893 266.411
L208.863 266.219
L208.664 265.889
L208.107 265.576
L207.301 265.524
L206.607 265.787
L206.128 266.453
L205.932 266.898
L205.993 267.123
L206.188 267.187
L206.082 267.194
L206.084 267.372
L206.164 267.321
L205.952 267.204
L205.9 267.228
L205.922 267.158
L205.816 266.975
L205.486 266.827
L205.075 266.846
L204.734 267.118
L204.729 267.093
L204.577 266.938
L204.162 266.795
L203.568 266.827
L203.025 267.087
L202.723 267.473
L202.728 268.065
L202.749 268.304
L202.577 268.583
L202.65 268.97
L203.103 269.418
L203.046 269.417
L203.105 269.473
L203.067 269.417
L203.067 269.417
L202.7 269.354
L202.817 269.302
L202.71 269.143
L202.435 269.072
L202.038 269.27
L202.019 269.486
L201.881 269.404
L201.35 269.37
L201.104 269.581
L201.096 269.868
L201.18 270.008
L201.109 269.942
L201.109 269.942
L200.936 269.903
L200.77 269.936
L200.611 270.09
L200.655 270.105
L200.621 270.092
L200.621 270.092
L200.437 270.112
L200.405 270.135
L200.455 270.122
L200.455 270.122
L200.453 270.06
L200.533 270.089
L200.608 269.945
L200.55 269.897
L200.639 269.907
L200.639 269.907
L200.852 269.872
L201.042 269.754
L201.071 269.515
L200.772 269.291
L201.051 269.367
L201.284 269.222
L201.275 269.162
L201.353 269.211
L201.735 269.237
L202.022 269.159
L202.288 268.967
L202.414 268.699
L202.392 268.146
L202.465 267.943
L202.419 267.704
L202.087 267.388
L201.631 267.196
L201.444 267.251
L201.431 267.108
L201.231 267.06
L201.358 267.086
L201.358 267.086
L201.829 267.01
L201.813 266.936
L201.751 267.003
L201.751 267.003
L201.897 267.188
L202.327 267.274
L202.792 267.113
L203.016 266.812
L202.948 266.35
L202.894 266.297
L202.861 266.346
L202.861 266.346
L202.995 266.453
L204.643 266.594
L205.356 266.301
L206.858 264.712
L207.059 263.909
L206.666 263.155
L206.008 262.787
L205.44 262.625
L205.273 262.452
L204.937 262.461
L205.162 262.498
L205.499 262.347
L206.107 261.743
L206.435 261.177
L206.391 260.346
L205.683 259.6
L204.672 259.363
L204.078 259.569
L204.123 259.694
L204.274 259.393
L203.96 258.892
L203.236 258.62
L202.57 258.68
L201.764 259.173
L201.803 259.219
L201.844 259.163
L201.844 259.163
L201.579 258.813
L201.216 258.68
L200.87 258.634
L200.605 258.564
L200.81 258.598
L200.81 258.598
L201.2 258.411
L201.152 258.432
L201.242 258.577
L201.585 258.678
L202.001 258.583
L202.355 258.18
L202.48 257.872
L202.381 257.768
L202.288 257.844
L202.44 258.01
L203.092 258.119
L203.54 258.426
L204.52 258.552
L205.59 258.197
L206.225 257.558
L206.82 256.587
L207.2 255.977
L207.192 255.179
L206.658 254.581
L205.908 254.481
L206.021 254.38
L205.994 254.133
L205.769 254.008
L205.658 254.091
L205.829 254.195
L206.449 254.148
L206.813 254.333
L207.568 254.486
L208.619 254.351
L209.555 253.814
L209.932 253.127
L209.84 252.816
L210.1 253.126
L211.563 253.556
L214.094 253.164
L216.471 251.464
L217.42 248.92
L216.65 246.528
L214.877 245.023
L213.141 244.536
L212.252 244.716
L212.569 244.926
L213.801 244.449
L214.967 242.882
L214.908 240.519
L213.122 238.247
L210.153 236.94
L207.168 236.875
L205.16 237.647
L204.394 238.511
L204.375 238.895
L204.311 238.734
L203.758 238.421
L202.926 238.366
L202.307 238.585
L201.942 238.814
L201.459 238.804
L201.361 238.874
L201.409 238.811
L201.409 238.811
L201.921 238.265
L202.817 237.71
L203.172 236.946
L202.888 236.191
L202.425 236.017
L202.425 236.017
L202.425 236.017
L202.942 236.277
L204.844 235.881
L206.822 233.869
L206.857 230.619
L204.196 227.7
L200.093 226.478
L196.623 227.022
L194.995 228.284
L194.96 229.098
L195.431 228.934
L195.373 227.971
L194.303 226.748
L192.297 225.797
L189.751 225.454
L187.177 225.849
L185.133 226.896
L184.057 228.232
L183.914 229.294
L184.036 229.73
L183.654 229.785
L182.712 230.082
L181.945 230.902
L181.968 231.842
L182.526 232.335
L182.878 232.343
L182.753 232.312
L182.554 232.511
L182.647 232.743
L182.855 232.739
L182.821 232.574
L182.389 232.492
L182.246 232.252
L181.757 232.016
L181.08 232.02
L180.562 232.265
L180.172 232.616
L179.828 232.583
L179.39 232.688
L179.055 232.927
L178.832 233.518
L178.885 233.724
L178.942 233.709
L178.887 233.633
L178.545 233.625
L177.994 233.933
L178.023 233.972
L178.005 233.954
L178.005 233.954
L177.739 234.04
L177.679 234.072
L177.71 234.006
L177.71 234.006
L177.837 233.923
L177.957 233.742
L178.225 233.566
L178.315 233.24
L178.19 232.97
L178.022 232.954
L178.132 233.01
L178.132 233.01
L178.524 232.859
L178.881 232.737
L179.29 232.568
L179.592 232.175
L179.551 231.766
L179.397 231.603
L179.581 231.578
L180.091 231.283
L180.345 230.583
L179.928 229.868
L179.169 229.585
L178.703 229.736
L178.722 229.566
L178.497 229.401
L178.272 229.458
L178.365 229.596
L178.668 229.562
L178.86 229.319
L179.102 229.446
L179.811 229.488
L180.722 229.131
L181.312 228.413
L181.367 227.714
L181.243 227.374
L182.642 227.109
L184.099 226.171
L185.056 224.387
L184.748 222.207
L183.103 220.389
L180.81 219.49
L178.847 219.529
L177.89 220.029
L178.002 220.336
L178.672 219.94
L179.056 218.701
L178.341 216.951
L176.205 215.413
L173.145 214.839
L170.306 215.481
L168.719 216.839
L168.501 218.019
L168.831 218.474
L168.794 218.399
L168.221 218.364
L167.61 218.643
L166.979 219.546
L166.954 219.523
L166.896 219.516
L166.93 219.514
L167.026 219.409
L167.083 219.036
L167.361 218.736
L167.367 218.191
L166.938 217.777
L166.616 217.752
L166.616 217.752
L166.616 217.752
L166.991 217.73
L167.729 217.059
L167.773 215.701
L166.582 214.388
L164.728 213.799
L163.127 213.903
L162.097 214.257
L161.46 214.621
L161.161 214.97
L161.263 215.142
L161.482 214.893
L161.298 214.312
L160.58 213.798
L158.189 213.258
L157.19 213.237
L156.325 213.539
L155.955 213.886
L155.507 213.518
L154.416 213.329
L153.258 213.69
L152.693 214.36
L152.736 214.994
L152.407 215.256
L152.474 215.405
L152.604 215.342
L152.538 215.153
L152.296 214.952
L152.371 214.638
L152.126 214.026
L151.243 213.459
L150.036 213.348
L149.172 213.664
L148.909 213.933
L148.787 213.783
L148.173 213.366
L146.956 213.155
L145.59 213.441
L144.567 214.124
L144.06 214.936
L144.008 215.667
L144.277 216.177
L144.642 216.368
L144.791 216.285
L144.558 216.161
L144.106 216.222
L143.741 216.476
L143.343 217.376
L143.372 217.706
L143.262 217.954
L143.215 218.088
L143.192 217.98
L143.192 217.98
L143.249 217.845
L143.211 217.465
L143.275 217.087
L143.208 216.582
L143.007 216.259
L142.615 216.022
L142.207 215.995
L142.067 216.119
L142.301 216.157
L142.706 215.894
L142.95 215.311
L142.8 214.549
L142.179 213.8
L141.152 213.272
L139.973 213.133
L139.056 213.358
L138.56 213.673
L138.26 213.395
L137.497 213.148
L136.546 213.244
L135.867 213.639
L135.384 214.544
L135.389 214.625
L135.428 214.607
L135.428 214.607
L135.279 213.935
L134.962 213.513
L134.288 213.183
L133.482 213.145
L132.635 213.428
L132.285 213.203
L131.688 213.093
L129.206 213.521
L129.042 213.902
L129.242 214.036
L129.331 213.797
L128.975 213.451
L128.349 213.289
L127.287 213.218
L126.58 213.11
L125.62 213.181
L124.688 213.559
L124.048 214.121
L123.689 214.687
L123.494 215.218
L123.461 215.727
L123.625 216.15
L124.209 216.729
L123.856 216.37
L123.856 216.37
L123.597 216.1
L123.068 215.878
L122.395 215.826
L121.144 216.116
L120.567 216.405
L120.113 216.827
L119.915 217.291
L119.818 218.471
L120.052 218.68
L120.246 218.663
L120.148 218.563
L120.148 218.563
L119.842 218.611
L119.624 218.828
L119.479 219.256
L119.386 219.622
L119.464 219.778
L119.186 220.096
L119.249 220.46
L119.578 220.586
L119.307 220.61
L119.07 220.923
L119.112 220.986
L119.043 221.006
L118.913 221.276
L118.864 221.517
L118.816 221.637
L118.833 221.537
L118.833 221.537
L118.899 221.397
L118.968 221.139
L119.17 220.59
L119.081 220.425
L118.708 220.348
L118.967 220.267
L119.257 219.955
L119.29 219.6
L119.416 219.257
L119.481 219.015
L119.568 218.784
L119.466 218.496
L119.189 218.341
L119.008 218.381
L119.114 218.449
L119.114 218.449
L119.384 218.351
L119.625 217.841
L119.994 216.867
L119.899 216.276
L119.486 215.678
L118.785 215.209
L117.918 214.974
L117.087 215.013
L116.498 215.248
L115.84 215.87
L116.43 215.373
L116.64 214.943
L116.549 214.394
L116.165 213.917
L115.154 213.327
L114.582 213.144
L113.527 213.14
L112.092 213.384
L112.074 213.567
L112.193 213.517
L112.096 213.277
L111.713 213.102
L108.451 213.285
L108.298 213.598
L108.322 213.633
L108.294 213.616
L108.294 213.616
L108.27 213.378
L108.06 213.204
L107.474 213.098
L105.222 213.124
L104.985 213.416
L104.917 213.206
L104.552 213.082
L104.097 213.113
L103.707 213.277
L103.321 213.762
L103.287 214.477
L103.343 213.884
L103.343 213.884
L103.34 213.677
L103.215 213.416
L102.913 213.177
L102.481 213.063
L101.868 213.251
L101.835 213.336
L101.84 213.298
L101.532 213.101
L100.515 213.12
L100.194 213.102
L99.5196 213.139
L99.2724 213.314
L99.3128 213.404
L99.3272 213.36
L99.3272 213.36
L99.2051 213.201
L98.8809 213.083
L97.263 213.139
L97.2053 213.21
L97.1811 213.14
L96.8409 213.079
L96.5483 213.072
L95.7057 213.102
L95.4444 213.324
L95.4266 213.514
L95.4349 213.401
L95.4349 213.401
L95.3195 213.184
L94.9103 213.073
L94.6328 213.11
L94.3422 213.08
L94.079 213.072
L92.0467 213.18
L92.0213 213.296
L92.0269 213.177
L91.7529 213.095
L89.9231 213.26
L89.5641 213.629
L89.5597 214.084
L89.6148 213.65
L89.6148 213.65
L89.4918 213.395
L88.81 213.072
L88.1386 213.099
L87.6041 213.09
L87.3534 213.09
L86.3867 213.08
L86.0098 213.089
L85.2434 213.15
L85.2158 213.237
L85.1559 213.12
L84.8214 213.093
L83.8965 213.087
L83.6097 213.082
L82.0694 213.095
L82.002 213.209
L81.9332 213.094
L81.467 213.09
L80.5804 213.084
L80.2764 213.082
L79.6043 213.093
L79.6084 213.09
L79.508 213.083
L79.6064 213.089
L79.6064 213.089
L80.0863 213.093
L80.3975 213.085
L80.7562 213.088
L81.5907 213.089
L82.0171 212.977
L82.013 213.04
L82.2722 213.089
L86.637 213.091
L87.4404 213.038
L87.4599 212.972
L87.5092 213.048
L87.8732 213.078
L88.81 213.103
L89.1793 213.006
L89.6148 212.525
L89.551 212.225
L89.5597 212.091
L89.5761 212.224
L89.5761 212.224
L89.5732 212.448
L89.6122 212.663
L90.0472 213.001
L90.4214 213.103
L92.0628 212.911
L92.0467 212.995
L92.394 213.088
L93.7632 213.007
L93.7705 212.988
L93.7705 212.988
L93.7705 212.988
L93.9157 213.098
L95.1316 213.086
L95.4128 212.869
L95.4266 212.66
L95.4444 212.851
L95.7057 213.073
L96.1097 213.063
L96.2454 213.051
L96.5483 213.103
L96.8409 213.095
L97.1811 213.035
L97.2207 212.959
L97.263 213.035
L97.667 213.068
L98.7051 213.092
L99.0628 213.05
L99.3272 212.815
L99.3128 212.77
L99.2734 212.783
L99.2734 212.783
L99.3605 212.962
L99.8582 213.086
L101.532 213.074
L101.835 212.839
L101.868 212.924
L102.083 213.06
L102.481 213.112
L102.913 212.998
L103.215 212.758
L103.343 212.291
L103.32 211.898
L103.287 211.697
L103.311 211.852
L103.311 211.852
L103.321 212.413
L103.443 212.664
L103.707 212.897
L104.097 213.062
L104.552 213.093
L104.917 212.969
L105.042 212.799
L104.996 212.893
L105.222 213.05
L106.375 213.097
L106.826 213.005
L107.474 213.076
L108.06 212.971
L108.319 212.632
L108.303 212.547
L108.298 212.577
L108.298 212.577
L108.301 212.708
L108.451 212.89
L109.037 213.063
L109.841 213.011
L110.082 212.974
L110.623 213.109
L111.314 213.063
L111.713 213.073
L112.096 212.898
L112.193 212.658
L112.074 212.608
L112.092 212.791
L112.416 212.987
L113.993 213.086
L114.582 213.03
L115.67 212.594
L116.165 212.258
L116.549 211.781
L116.64 211.232
L116.43 210.801
L115.84 210.305
L116.213 210.662
L116.213 210.662
L116.498 210.927
L117.087 211.161
L117.918 211.2
L118.785 210.966
L119.486 210.497
L119.899 209.899
L119.994 209.307
L119.57 208.074
L119.384 207.824
L119.008 207.793
L119.189 207.834
L119.466 207.679
L119.568 207.391
L119.246 206.391
L119.164 206.068
L118.708 205.827
L118.904 205.837
L119.17 205.585
L119.05 205.337
L118.995 205.17
L118.909 204.918
L118.819 204.637
L118.831 204.63
L118.816 204.538
L118.864 204.643
L118.864 204.643
L118.943 204.795
L119.027 204.806
L118.913 204.899
L119.07 205.252
L119.148 205.445
L119.525 205.618
L119.578 205.589
L119.544 205.596
L119.544 205.596
L119.249 205.714
L119.186 206.079
L119.386 206.553
L119.376 206.743
L119.842 207.563
L120.148 207.612
L120.246 207.512
L120.052 207.495
L119.818 207.703
L119.781 208.023
L119.903 208.529
L119.915 208.884
L120.113 209.348
L120.567 209.77
L121.745 210.246
L122.395 210.348
L123.068 210.297
L123.597 210.075
L124.209 209.445
L123.625 210.025
L123.461 210.448
L123.494 210.957
L123.689 211.487
L124.048 212.054
L124.688 212.615
L125.62 212.993
L126.58 213.065
L128.975 212.724
L129.331 212.378
L129.242 212.139
L129.042 212.272
L129.206 212.654
L129.771 212.926
L132.285 212.972
L132.733 212.664
L132.923 212.827
L133.482 213.03
L134.288 212.992
L134.962 212.661
L135.279 212.239
L135.389 211.55
L135.46 211.748
L135.867 212.536
L136.546 212.931
L137.497 213.026
L138.26 212.78
L138.656 212.523
L139.056 212.817
L139.973 213.042
L141.152 212.903
L142.179 212.375
L142.8 211.626
L142.95 210.863
L142.706 210.28
L142.301 210.018
L142.067 210.056
L142.207 210.18
L142.615 210.152
L143.007 209.916
L143.262 209.312
L143.211 208.71
L143.087 208.559
L143.134 208.522
L143.249 208.329
L143.215 208.086
L143.262 208.286
L143.262 208.286
L143.372 208.469
L143.466 208.532
L143.343 208.799
L143.575 209.416
L143.741 209.699
L144.106 209.952
L144.558 210.014
L144.791 209.89
L144.642 209.807
L144.277 209.998
L144.008 210.508
L144.06 211.239
L144.567 212.05
L145.59 212.734
L146.956 213.019
L148.173 212.809
L148.909 212.242
L149.172 212.511
L150.036 212.827
L151.243 212.716
L152.126 212.149
L152.371 211.536
L152.343 211.138
L152.538 211.021
L152.604 210.833
L152.474 210.77
L152.407 210.918
L152.692 211.334
L152.693 211.815
L153.258 212.485
L154.416 212.846
L155.507 212.657
L155.994 212.273
L156.325 212.635
L157.19 212.938
L158.189 212.916
L160.58 212.377
L161.298 211.862
L161.482 211.281
L161.263 211.033
L161.161 211.204
L161.46 211.554
L162.097 211.918
L163.127 212.272
L164.728 212.376
L166.582 211.787
L167.773 210.474
L167.729 209.116
L166.991 208.445
L166.616 208.423
L166.938 208.398
L167.367 207.983
L167.361 207.438
L167.021 206.947
L166.93 206.661
L166.896 206.658
L166.896 206.658
L166.896 206.658
L166.979 206.629
L166.972 206.685
L167.256 206.89
L167.347 206.944
L167.362 207.15
L167.61 207.532
L168.221 207.811
L168.831 207.7
L168.501 208.156
L168.719 209.336
L170.306 210.693
L173.145 211.336
L176.205 210.761
L178.341 209.224
L179.056 207.474
L178.672 206.235
L178.002 205.839
L177.89 206.146
L178.847 206.646
L180.81 206.684
L183.103 205.786
L184.748 203.968
L185.056 201.788
L184.099 200.004
L182.642 199.066
L181.243 198.801
L181.367 198.461
L181.312 197.762
L180.722 197.044
L179.811 196.687
L179.102 196.729
L178.86 196.856
L178.839 196.793
L178.668 196.613
L178.365 196.578
L178.272 196.717
L178.497 196.774
L178.722 196.609
L178.703 196.439
L178.713 196.495
L179.169 196.59
L179.928 196.307
L180.345 195.591
L180.091 194.891
L179.397 194.572
L179.551 194.409
L179.592 194
L179.29 193.607
L178.132 193.165
L178.022 193.221
L178.073 193.258
L178.073 193.258
L178.276 193.084
L178.303 192.77
L178.091 192.491
L177.85 192.326
L177.708 192.114
L177.672 192.113
L177.693 192.119
L177.693 192.119
L177.805 192.167
L178.429 192.506
L178.718 192.581
L178.942 192.466
L178.832 192.656
L179.055 193.248
L179.39 193.487
L179.828 193.592
L180.357 193.638
L180.562 193.91
L181.08 194.154
L181.757 194.159
L182.246 193.923
L182.403 193.63
L182.569 193.674
L182.821 193.601
L182.855 193.436
L182.647 193.432
L182.554 193.664
L182.878 193.832
L182.526 193.84
L181.968 194.333
L181.945 195.273
L182.712 196.093
L184.036 196.445
L183.914 196.88
L184.057 197.942
L185.133 199.279
L187.177 200.326
L189.751 200.72
L192.297 200.378
L194.303 199.427
L195.373 198.204
L195.431 197.241
L194.96 197.077
L194.995 197.891
L196.623 199.153
L200.093 199.696
L204.196 198.475
L206.857 195.555
L206.822 192.306
L204.844 190.294
L202.942 189.898
L202.425 190.158
L202.888 189.984
L203.172 189.229
L202.817 188.465
L201.409 187.364
L201.361 187.3
L201.361 187.3
L201.361 187.3
L201.459 187.371
L202.307 187.589
L202.926 187.809
L203.758 187.753
L204.375 187.28
L204.394 187.664
L205.16 188.528
L207.168 189.299
L210.153 189.235
L213.122 187.927
L214.908 185.655
L214.967 183.292
L213.801 181.726
L212.569 181.248
L212.252 181.458
L213.141 181.638
L214.877 181.152
L216.65 179.647
L217.42 177.254
L216.471 174.711
L214.094 173.011
L211.563 172.619
L210.1 173.049
L209.84 173.359
L209.932 173.048
L209.555 172.361
L208.619 171.824
L207.568 171.689
L206.449 172.026
L206.296 172.073
L205.829 171.98
L205.658 172.084
L205.769 172.167
L205.994 172.042
L206.021 171.794
L205.908 171.693
L205.908 171.693
L205.908 171.693
L206.076 171.746
L206.658 171.594
L207.192 170.996
L207.2 170.198
L206.225 168.617
L205.59 167.977
L204.52 167.623
L203.54 167.749
L202.98 168.169
L202.77 168.12
L202.44 168.165
L202.288 168.331
L202.381 168.407
L202.48 168.302
L202.253 167.809
L202.001 167.592
L201.585 167.497
L201.242 167.598
L201.152 167.743
L201.172 167.686
L200.712 167.589
L200.605 167.611
L200.674 167.615
L200.674 167.615
L200.929 167.447
L201.412 167.462
L201.801 167.106
L201.803 166.956
L201.838 167.106
L202.57 167.495
L203.236 167.555
L203.96 167.282
L204.274 166.781
L204.123 166.481
L204.078 166.605
L204.672 166.812
L205.683 166.575
L206.391 165.829
L206.435 164.997
L205.787 164.093
L205.499 163.828
L205.162 163.677
L204.937 163.714
L205.018 163.795
L205.018 163.795
L205.273 163.723
L205.585 163.46
L206.008 163.388
L206.666 163.019
L207.059 162.265
L206.858 161.463
L205.356 159.873
L204.643 159.581
L203.974 159.598
L203.485 159.753
L202.995 159.722
L202.894 159.878
L202.969 159.733
L202.969 159.733
L203.016 159.363
L202.792 159.061
L202.327 158.901
L201.897 158.987
L201.813 159.239
L201.71 159.088
L201.231 159.115
L201.497 158.99
L201.444 158.924
L201.494 158.966
L201.79 158.938
L202.266 158.664
L202.419 158.471
L202.465 158.232
L202.376 157.711
L202.414 157.475
L202.288 157.207
L201.735 156.937
L201.209 156.856
L200.92 156.839
L200.772 156.884
L200.848 156.843
L200.848 156.843
L201.071 156.66
L201.042 156.42
L200.696 156.26
L200.538 156.261
L200.598 156.165
L200.469 156.087
L200.453 156.115
L200.484 156.118
L200.484 156.118
L200.494 156.04
L200.584 156.099
L200.655 156.07
L200.643 156.176
L200.854 156.234
L200.9 156.2
L200.936 156.271
L201.19 156.188
L201.16 156.177
L201.17 156.197
L201.17 156.197
L201.188 156.201
L201.181 156.199
L201.181 156.199
L201.06 156.38
L201.104 156.594
L201.35 156.805
L201.718 156.827
L202.048 156.691
L201.999 156.801
L202.172 157.033
L202.435 157.102
L202.71 157.031
L202.752 156.783
L202.7 156.821
L202.788 156.882
L203.067 156.758
L203.105 156.702
L203.055 156.708
L203.055 156.708
L203.043 156.912
L202.945 156.881
L202.56 157.385
L202.667 157.756
L202.772 157.971
L202.669 158.348
L202.723 158.701
L203.025 159.088
L203.568 159.348
L204.162 159.38
L204.729 159.082
L204.734 159.057
L204.734 159.057
L204.734 159.057
L204.803 159.179
L205.075 159.328
L205.486 159.347
L205.816 159.2
L205.952 158.971
L206.164 158.854
L206.011 158.879
L206.188 158.987
L206.145 158.96
L205.993 159.052
L205.932 159.277
L206.255 160.011
L206.607 160.388
L207.301 160.651
L208.107 160.599
L208.664 160.286
L209.076 159.467
L209.024 159.413
L209.047 159.471
L209.047 159.471
L209.322 159.629
L209.857 159.583
L210.086 159.268
L209.985 159.194
L210.048 159.234
L210.048 159.234
L210.259 159.155
L210.351 159.022
L210.299 159.148
L210.299 159.148
L210.404 159.251
L210.295 159.209
L210.18 159.415
L210.269 159.833
L210.235 159.813
L210.066 159.754
L209.729 159.77
L209.342 159.947
L209.065 160.271
L209.005 160.648
L209.312 160.992
L209.139 160.924
L208.567 161.053
L208.019 161.61
L207.995 162.394
L208.458 162.986
L209.62 163.712
L210.067 163.76
L210.218 163.584
L209.9 163.528
L209.561 163.816
L209.464 164.186
L208.716 164.324
L207.757 165.171
L207.659 166.573
L208.58 167.659
L209.463 168.064
L209.599 168.453
L209.707 169.488
L210.853 170.79
L212.875 171.471
L214.684 171.351
L217.448 170.592
L218.018 170.159
L218.068 169.829
L217.931 169.875
L217.978 170.191
L218.205 170.65
L218.717 171.336
L219.99 172.096
L222.059 172.28
L223.935 171.472
L224.549 170.219
L224.101 169.501
L223.777 169.56
L224.213 169.759
L224.918 169.563
L225.26 169.141
L225.411 168.733
L225.59 168.393
L225.566 168.344
L225.657 168.342
L225.752 168.268
L225.688 168.221
L225.688 168.221
L225.616 168.338
L225.75 168.501
L225.937 168.525
L225.89 168.519
L225.735 168.736
L225.865 169.122
L226.291 169.348
L226.577 169.32
L226.471 169.314
L226.182 169.575
L225.98 170.091
L225.947 170.816
L226.253 171.776
L227.223 172.797
L228.837 173.446
L230.515 173.468
L231.667 173.084
L232.209 172.568
L231.966 172.989
L232.157 174.239
L233.988 175.955
L237.848 176.803
L242.141 175.589
L244.396 172.759
L243.851 170.197
L242.231 169.255
L241.646 169.46
L242.349 169.461
L243.096 168.726
L243.068 167.805
L241.835 166.355
L241.955 166.441
L242.406 166.383
L242.746 166.595
L243.462 166.614
L244.056 166.272
L244.165 165.934
L244.23 165.969
L244.885 166.1
L245.906 165.737
L246.412 164.865
L246.091 164.108
L245.45 163.852
L245.533 163.677
L245.392 163.426
L245.126 163.388
L245.116 163.509
L245.345 163.513
L245.717 163.318
L246.06 163.171
L246.222 162.831
L246.056 162.549
L245.838 162.496
L245.942 162.494
L246.015 162.104
L245.962 162.102
L246.005 162.116
L246.005 162.116
L246.117 162.053
L246.093 162.166
L246.33 162.328
L246.329 162.451
L246.45 162.6
L247.123 162.751
L247.139 162.685
L247.022 162.709
L246.928 162.987
L246.695 163.213
L246.7 163.685
L247.178 164.084
L247.758 164.114
L247.93 163.957
L247.774 164.024
L247.805 164.371
L248.218 164.675
L249.213 164.701
L249.768 164.654
L249.568 164.774
L249.656 164.998
L249.408 164.981
L248.92 165.268
L248.798 165.87
L249.19 166.248
L249.279 166.14
L248.41 166.19
L247.291 167.181
L247.27 168.89
L248.617 170.305
L250.343 170.889
L252.665 171.05
L253.603 170.955
L254.153 170.659
L254.13 170.524
L253.97 170.826
L254.071 171.391
L254.322 172.081
L254.837 173.11
L256.36 174.343
L259.076 174.865
L261.634 174.021
L262.496 172.557
L261.984 171.869
L261.85 172.213
L262.874 172.544
L264.071 172.142
L264.479 171.484
L264.476 171.224
L264.79 171.188
L265.238 170.93
L265.301 170.591
L265.167 170.541
L265.167 170.541
L265.167 170.541
L265.309 170.653
L265.56 170.598
L265.37 170.731
L265.605 171.056
L265.95 171.126
L265.864 171.155
L265.655 171.624
L266.099 172.315
L266.994 172.521
L267.254 172.254
L266.603 172.371
L266.048 173.321
L266.358 174.589
L267.192 175.687
L268.241 176.788
L269.986 177.909
L272.478 178.358
L274.489 177.794
L275.029 177.101
L274.875 177.273
L275.278 178.062
L276.004 178.804
L276.383 180.006
L277.748 182.514
L282.433 185.205
L289.854 185.332
L295.851 181.956
L297.316 177.613
L295.943 175.384
L295.733 175.278
L297.849 174.849
L299.911 172.783
L299.907 170.261
L298.638 168.806
L297.865 168.313
L297.832 167.809
L297.655 167.058
L297.081 166.568
L296.702 166.542
L296.881 166.627
L296.881 166.627
L297.36 166.519
L298.13 166.054
L298.546 165.995
L299.337 166.018
L300.6 165.785
L301.823 164.994
L302.263 163.954
L302.084 163.452
L302.559 163.657
L304.453 163.563
L306.669 162.129
L307.366 159.714
L306.198 157.71
L304.54 156.864
L303.559 156.662
L302.55 156.179
L302.17 156.201
L302.314 156.251
L302.691 155.968
L302.981 154.848
L303.237 154.193
L302.893 153.359
L302.005 152.929
L301.379 153.046
L301.434 153.191
L301.686 152.95
L301.568 152.533
L300.571 151.853
L300.625 151.882
L301.285 151.757
L301.452 151.476
L301.414 151.529
L301.591 151.677
L301.967 151.739
L302.922 151.458
L303.449 151.091
L303.411 150.836
L303.461 150.933
L304.027 151.071
L304.181 151.373
L304.83 151.795
L305.983 151.901
L307.028 151.474
L307.409 150.875
L307.366 150.642
L307.655 150.797
L308.55 150.818
L309.502 150.345
L309.912 149.628
L309.86 148.869
L310.02 148.628
L310.078 148.306
L309.833 148.135
L310.015 148.241
L310.686 148.181
L310.914 148.368
L311.416 148.611
L312.182 148.737
L312.988 148.622
L313.49 148.351
L313.639 149.044
L315.023 150.248
L318.18 150.931
L322.121 149.986
L324.858 147.372
L325.14 144.336
L323.592 142.324
L321.981 141.726
L321.485 141.768
L321.869 141.553
L322.299 140.925
L322.539 140.24
L323.549 138.42
L323.464 136.723
L322.031 135.135
L319.842 134.549
L318.318 134.986
L318.114 135.512
L318.438 135.353
L318.195 134.743
L317.342 134.411
L316.664 134.549
L316.52 134.705
L316.475 134.585
L316.15 134.432
L315.802 134.511
L315.785 134.665
L315.942 134.625
L315.926 134.46
L315.786 134.412
L315.813 134.459
L315.813 134.459
L315.994 134.398
L316.332 133.697
L316.167 133.638
L316.253 133.783
L316.253 133.783
L316.734 133.8
L317.205 133.489
L317.567 132.275
L317.307 131.916
L316.936 131.911
L317.024 132.125
L317.513 132.076
L317.734 131.723
L317.534 131.604
L317.713 131.956
L318.885 132.162
L320.414 131.479
L321.075 130.056
L320.549 128.756
L318.435 127.3
L317.63 126.941
L316.739 126.936
L316.071 127.307
L315.836 127.263
L315.678 127.434
L315.756 127.258
L315.671 127.187
L315.757 127.13
L315.862 126.835
L315.688 126.555
L315.613 126.557
L315.613 126.557
L315.613 126.557
L315.778 126.591
L316.162 126.425
L316.4 125.944
L316.139 125.373
L315.492 125.073
L314.921 125.132
L314.598 125.315
L314.619 125.27
L314.536 124.865
L314.343 124.738
L313.857 124.694
L313.875 124.676
L313.758 124.614
L313.884 124.582
L313.884 124.516
L313.937 124.582
L314.228 124.444
L314.304 124.377
L314.28 124.414
L314.332 124.508
L314.722 124.557
L314.964 124.423
L315.288 124.318
L315.439 124.056
L315.445 124.092
L315.7 124.233
L315.775 124.222
L315.735 124.202
L315.735 124.202
L315.584 124.312
L315.565 124.627
L315.932 124.984
L316.601 125.099
L317.18 124.886
L317.385 124.55
L317.224 124.338
L317.42 124.39
L317.548 124.389
L317.65 124.5
L317.935 124.627
L318.386 124.627
L318.797 124.417
L318.932 124.105
L318.72 123.935
L318.87 123.995
L319.125 123.904
L319.218 123.702
L319.087 123.575
L319.17 123.565
L319.165 123.392
L319.091 123.421
L319.144 123.479
L319.144 123.479
L319.387 123.512
L319.389 123.536
L319.554 123.594
L319.445 123.609
L319.438 123.785
L319.809 123.962
L320.385 124.064
L320.321 123.953
L320.134 124.041
L320.17 124.263
L320.397 124.326
L320.365 124.196
L319.89 124.249
L319.428 124.77
L319.521 125.55
L320.128 126.177
L321.585 126.926
L322.624 127.226
L323.933 127.153
L324.975 126.592
L325.336 125.89
L325.206 125.326
L325.417 125.005
L325.323 124.892
L325.272 124.951
L325.272 124.951
L325.416 125.042
L325.752 125.062
L325.884 125.22
L326.183 125.375
L326.584 125.433
L327.063 125.244
L326.942 125.321
L326.956 125.791
L327.677 126.454
L329.183 126.719
L330.74 126.179
L331.447 125.116
L331.179 124.243
L330.624 123.954
L330.432 124.02
L330.602 124.038
L330.602 124.038
L330.94 123.791
L331.58 123.724
L331.977 123.501
L332.233 123.141
L332.217 122.759
L331.838 122.551
L331.972 122.591
L332.217 122.451
L332.262 122.189
L332.008 122.042
L332.09 122.029
L332.144 121.906
L331.937 121.85
L332.117 121.906
L332.117 121.906
L332.513 121.874
L332.426 121.926
L332.462 122.09
L332.88 122.188
L333.042 122.241
L333.255 122.268
L333.409 122.166
L333.341 122.078
L333.221 122.163
L333.301 122.32
L333.482 122.341
L333.454 122.27
L333.454 122.27
L333.214 122.366
L333.116 122.71
L333.384 123.071
L334.234 123.395
L334.453 123.64
L334.859 123.834
L335.344 123.883
L336.314 123.556
L336.313 123.488
L336.216 123.545
L336.216 123.545
L336.248 123.711
L336.469 123.763
L336.278 123.829
L336.153 124.123
L336.332 124.433
L336.58 124.545
L336.234 124.812
L335.7 124.93
L334.579 125.527
L333.745 127.168
L334.64 129.365
L337.321 130.681
L339.928 130.392
L340.797 129.474
L340.46 129.349
L340.616 130.087
L341.634 130.685
L342.406 130.885
L342.673 131.591
L343.962 133.143
L347.353 134.232
L351.39 133.407
L353.53 131.12
L353.286 129.285
L352.649 128.902
L353.314 129.056
L354.733 128.48
L355.391 127.229
L355.027 126.262
L354.624 125.938
L354.859 125.296
L354.575 124.901
L354.233 124.89
L354.323 125.056
L354.686 125.019
L354.816 124.765
L354.927 124.903
L355.296 125.005
L356.575 124.823
L356.688 124.755
L356.682 124.92
L356.967 125.345
L357.746 125.716
L358.712 125.78
L360.231 125.51
L360.984 125.252
L361.465 124.775
L361.367 124.415
L361.133 124.591
L361.523 125.072
L362.397 125.198
L362.755 124.968
L362.755 124.968
L362.755 124.968
L362.391 125.279
L362.677 126.598
L364.835 127.937
L367.964 127.956
L369.988 126.855
L370.541 126.215
L371.64 126.746
L374.895 127.086
L379.049 125.472
L381.308 122.05
L380.599 118.712
L378.428 116.892
L375.335 116.066
L375.111 116.038
L375.32 115.985
L375.699 115.648
L375.774 114.969
L376.195 114.918
L377.068 114.531
L377.683 113.644
L377.569 112.725
L377.094 112.278
L377.82 112.246
L379.075 111.728
L380.288 110.467
L380.668 108.544
L379.599 106.561
L377.355 105.412
L375.19 105.489
L374.242 106.202
L374.409 106.585
L374.66 106.322
L374.375 105.895
L373.798 105.765
L373.95 105.51
L373.831 104.972
L373.242 104.506
L372.507 104.366
L371.746 104.533
L371.361 104.26
L370.811 104.285
L370.669 104.33
L370.454 104.287
L370.547 104.284
L370.607 104.113
L370.575 104.086
L370.641 104.014
L370.641 104.014
L370.856 104.05
L371.123 103.812
L371.108 103.481
L371.116 103.565
L371.326 103.46
L371.308 103.626
L371.634 103.753
L372.04 103.675
L372.383 103.386
L372.685 103.377
L373.024 103.214
L373.219 102.953
L373.215 102.525
L373.034 102.279
L373.175 102.268
L373.317 102.316
L373.7 102.337
L373.774 102.248
L373.744 102.364
L373.921 102.608
L374.007 102.923
L374.519 103.393
L375.603 103.594
L376.673 103.188
L376.988 102.485
L376.651 102.148
L376.506 102.334
L376.967 102.525
L377.505 102.348
L377.595 102.134
L377.642 102.331
L378.399 102.684
L379.726 102.499
L380.629 101.635
L380.58 100.737
L380.13 100.336
L380.492 100.108
L380.655 99.5962
L380.404 99.1457
L379.55 98.6458
L379.677 98.6157
L379.783 98.5858
L380.161 98.5171
L380.218 98.4148
L380.231 98.4699
L380.49 98.6586
L381.07 98.8203
L381.471 98.7623
L381.844 98.4031
L381.831 98.3321
L381.847 98.3485
L381.847 98.3485
L382.232 98.5743
L382.116 98.6685
L381.956 99.078
L382.267 99.7572
L383.192 100.219
L384.074 100.138
L383.931 100.949
L385.15 102.453
L388.293 103.303
L391.881 102.385
L393.827 100.13
L393.597 98.0301
L392.431 97.0462
L391.654 97.0201
L391.949 96.9542
L392.758 96.4441
L393.826 96.6372
L395.01 96.4278
L395.98 95.7015
L396.189 94.8832
L395.945 94.5801
L396.147 94.8702
L397.356 95.2251
L399.385 95.0233
L401.582 93.9205
L403.109 91.9186
L403.168 89.4889
L401.632 87.565
L399.543 86.8991
L398.405 87.2335
L398.65 87.4798
L399.254 86.9441
L399.162 86.0436
L398.561 85.3302
L399.072 84.7333
L399.173 83.4806
L398.201 82.2029
L396.67 81.571
L394.772 81.4385
L394.064 81.2267
L393.124 81.1414
L392.283 81.3687
L391.315 82.2219
L391.374 82.2759
L391.417 82.2174
L391.417 82.2174
L391.363 81.9871
L391.234 81.7177
L391.203 81.6737
L391.203 81.6737
L391.203 81.6737
L391.524 81.6466
L391.792 81.4692
L391.935 81.1648
L391.868 80.8481
L391.438 80.5368
L391.267 80.5664
L391.367 80.5735
L391.367 80.5735
L391.542 80.3611
L391.483 80.3336
L391.483 80.3336
L391.483 80.3336
L391.578 80.4687
L392.045 80.5836
L392.75 80.4134
L393.307 79.9185
L393.51 79.3105
L393.357 78.2424
L393.055 77.7016
L392.466 77.2694
L391.761 77.1197
L390.756 77.4128
L390.867 77.3861
L390.776 77.2536
L390.945 77.2588
L391.08 77.1276
L391.007 76.8859
L391.178 76.8918
L391.702 77.0019
L392.345 76.9081
L393 76.454
L393.218 75.7368
L392.879 75.1467
L392.329 74.9797
L392.579 74.8288
L392.69 74.4206
L392.462 74.0628
L392.251 73.9587
L392.407 73.8763
L392.696 73.4848
L392.605 72.8587
L392.057 72.3927
L391.266 72.2445
L390.97 71.7769
L390.165 71.4186
L389.309 71.3226
L388.927 71.4705
L388.81 71.687
L388.918 71.7705
L388.98 71.6751
L388.721 71.565
L388.813 71.4867
L388.772 71.2934
L388.343 71.0866
L388.113 71.1282
L388.204 71.0605
L388.231 70.8842
L388.095 70.6699
L387.817 70.5378
L387.291 70.6291
L387.232 70.6824
L387.267 70.6707
L387.267 70.6707
L387.235 70.5506
L387.257 70.5707
L387.425 70.5052
L387.549 70.3147
L387.515 70.0806
L386.913 69.4065
L386.44 69.2311
L385.888 69.2615
L385.68 69.2775
L385.155 69.1435
L384.9 68.9275
L384.504 69.0062
L383.953 69.12
L384.194 68.9389
L384.202 68.8374
L384.215 68.9193
L384.215 68.9193
L384.432 68.9956
L384.991 68.7957
L384.951 68.5305
L384.87 68.4951
L384.938 68.537
L384.938 68.537
L385.084 68.5581
L384.988 68.6435
L385.114 69.021
L385.376 69.1711
L385.992 69.1458
L386.256 69.1552
L386.528 69.1446
L386.832 69.2968
L387.122 69.2972
L387.39 69.1726
L387.489 68.8536
L387.525 68.7609
L387.678 68.3272
L387.527 68.1417
L387.69 68.1855
L387.714 68.1657
L387.697 68.1853
L387.697 68.1853
L387.682 68.3005
L387.957 68.4461
L388.036 68.3892
L387.992 68.4646
L387.992 68.4646
L387.678 68.5579
L387.569 68.9655
L387.486 69.1723
L387.307 69.3358
L387.267 69.6054
L387.616 69.9663
L387.726 70.1505
L387.797 70.3604
L388.014 70.5846
L388.354 70.7387
L388.737 70.7812
L389.256 70.5512
L389.177 70.4259
L389.19 70.5138
L389.19 70.5138
L389.392 70.5542
L389.323 70.6967
L389.454 70.8762
L389.951 70.9333
L390.03 70.8469
L389.995 70.9076
L389.999 71.0472
L390.126 71.2421
L390.429 71.4013
L390.818 71.4171
L391.206 71.1442
L391.208 71.0566
L391.226 71.0919
L391.226 71.0919
L391.349 71.1787
L391.234 71.2236
L391.135 71.4498
L391.269 71.7634
L391.946 72.0662
L392.967 72.4714
L393.594 72.4378
L394.123 72.2079
L394.436 71.8927
L394.522 71.3619
L394.363 71.2535
L394.447 71.2997
L395.088 71.1651
L395.318 71.0445
L395.435 70.8391
L395.277 70.6245
L395.484 70.6661
L395.837 70.6165
L396.059 70.4752
L396.153 70.2571
L396.023 69.7204
L396.125 69.5508
L395.894 69.2854
L396.137 69.4974
L396.137 69.4974
L396.33 69.5481
L396.401 69.4775
L396.359 69.5514
L396.359 69.5514
L396.151 69.6522
L396.149 70.0316
L396.282 70.1093
L396.234 70.1463
L396.205 70.2743
L396.316 70.4249
L396.883 70.5071
L397.124 70.3747
L396.967 70.5504
L397 70.6375
L396.934 70.5871
L396.934 70.5871
L396.641 70.543
L395.787 70.6892
L395.533 71.0823
L395.685 71.3829
L395.766 71.3863
L395.714 71.3501
L395.714 71.3501
L395.331 71.5019
L394.875 71.6778
L394.693 71.9544
L394.757 72.2389
L395.015 72.3126
L394.871 72.2729
L394.029 72.4213
L393.45 72.6766
L393.01 73.2622
L393.089 73.9707
L393.594 74.4077
L393.99 74.4624
L393.932 74.4572
L393.689 74.7265
L393.731 75.1805
L394.167 75.5291
L393.875 75.7205
L393.606 76.3423
L393.934 77.1898
L394.848 77.7873
L395.827 77.9575
L397.784 77.8737
L398.371 77.5961
L398.611 77.2235
L398.579 76.9518
L398.751 76.7638
L398.585 76.7793
L398.822 76.8283
L398.793 76.7707
L398.7 76.827
L398.854 77.0133
L398.944 77.1081
L399.014 77.1125
L398.951 77.0706
L398.951 77.0706
L398.743 77.1329
L398.599 77.3596
L398.665 77.6273
L399.061 77.9102
L399.418 77.9422
L399.442 77.8673
L399.308 77.8689
L399.212 78.0083
L399.394 78.1045
L399.394 78.1045
L399.394 78.1045
L399.21 77.9924
L398.758 78.0523
L398.329 78.3732
L398.105 78.8263
L398.023 79.3138
L398.056 79.8852
L398.376 80.544
L399.108 81.1008
L400.069 81.3355
L400.909 81.2329
L401.422 80.9709
L401.805 80.4851
L401.843 80.5909
L401.947 80.6528
L401.861 80.6983
L401.779 80.8713
L401.886 81.0899
L402.185 81.1034
L402.02 81.1012
L401.753 81.3296
L401.375 81.3778
L400.643 81.7728
L400.242 82.7671
L400.888 83.8682
L402.198 84.2862
L402.985 83.9923
L402.806 83.8033
L402.499 84.246
L402.848 84.8864
L403.433 85.1574
L403.505 85.3465
L403.441 86.1113
L404.348 87.2701
L406.325 87.857
L408.133 87.4623
L409.158 86.6825
L410.03 86.8423
L411.4 86.5199
L412.286 85.5993
L412.272 84.7129
L411.824 84.1308
L411.828 83.9062
L411.654 83.702
L411.444 83.7121
L411.492 83.8323
L411.714 83.8267
L411.813 83.7051
L411.756 83.7646
L412.15 83.878
L412.576 83.8231
L412.543 83.8733
L412.485 84.0566
L412.561 84.4098
L412.99 84.848
L413.849 85.1135
L414.829 84.9425
L415.364 84.4068
L415.243 83.9615
L414.935 83.9628
L415.039 84.2248
L415.507 84.2925
L415.771 84.107
L415.654 84.0816
L415.701 84.4451
L416.386 84.8377
L417.395 84.7855
L418.042 84.3511
L418.192 84.0062
L418.348 83.9609
L418.875 83.9375
L419.538 83.626
L419.921 83.0825
L419.943 82.5672
L419.637 81.9292
L419.199 81.6733
L419.095 81.7092
L419.149 81.743
L419.149 81.743
L419.472 81.6641
L419.741 81.6772
L420.044 81.5721
L420.306 81.2065
L420.491 81.0479
L420.823 80.7069
L420.848 80.286
L420.607 79.9723
L420.408 79.9899
L420.59 79.9263
L420.716 79.5186
L420.311 79.1278
L420.216 79.1153
L420.298 79.1129
L420.298 79.1129
L420.761 79.3004
L420.911 79.2626
L420.803 79.3084
L420.803 79.3084
L420.739 79.473
L420.914 79.5509
L420.83 79.6261
L420.737 79.8242
L420.82 79.995
L421.228 80.1
L421.435 80.1217
L421.705 80.0892
L421.841 79.9335
L421.803 80.1312
L421.883 80.1535
L421.815 80.16
L421.815 80.16
L421.366 80.1966
L421.021 80.4707
L421.112 80.8337
L421.448 80.946
L421.446 80.9202
L421.387 80.9306
L421.387 80.9306
L421.361 81.0375
L421.305 80.9886
L420.927 81.0861
L420.417 81.7803
L420.261 82.0559
L420.247 82.448
L420.507 82.8544
L421.003 83.1002
L421.493 83.0969
L421.728 82.8675
L421.713 83.0523
L422.056 83.4567
L422.373 83.5958
L422.755 83.5849
L423.647 83.1561
L423.563 83.2087
L423.624 83.3447
L423.661 83.3326
L423.628 83.3674
L423.628 83.3674
L423.088 83.7312
L423.347 83.924
L423.394 83.9044
L423.362 83.9071
L423.362 83.9071
L423.193 84.0024
L423.192 83.9885
L422.971 83.7721
L422.736 83.7169
L422.473 83.7851
L422.42 84.0171
L422.338 83.8635
L422.124 83.7995
L421.989 83.6026
L421.513 83.3831
L420.792 83.429
L420.269 83.7786
L420.107 84.2014
L419.722 84.2017
L419.101 84.4754
L418.736 85.0713
L418.872 85.6779
L419.269 86.0293
L420.118 86.2874
L420.128 86.2362
L420.034 86.2483
L419.928 86.3549
L419.629 86.4643
L419.448 86.6072
L418.939 86.1748
L418.246 86.0397
L417.383 86.2539
L416.841 86.8315
L416.921 87.4068
L417.311 87.574
L417.375 87.3719
L416.928 87.2466
L416.467 87.4519
L416.44 87.6775
L416.519 87.4795
L415.942 86.9737
L414.558 86.8062
L413.151 87.356
L412.5 88.215
L412.366 88.683
L411.744 88.6916
L410.128 88.9856
L408.261 90.3109
L407.479 92.5598
L408.427 94.8166
L410.533 96.1755
L412.615 96.4312
L413.845 96.0546
L414.172 95.6741
L414.055 95.6287
L413.97 95.8838
L414.1 96.2096
L414.318 96.5198
L414.012 96.7293
L413.609 97.2685
L413.547 98.1117
L414.064 98.9162
L414.852 99.2932
L415.191 99.2435
L415.191 99.2435
L415.191 99.2435
L414.633 99.3232
L413.635 100.244
L413.443 102.147
L415.072 104.237
L418.23 105.313
L421.359 104.818
L422.957 103.393
L422.91 102.262
L422.395 102.058
L422.496 102.379
L423.159 102.506
L423.74 102.276
L423.993 102.606
L424.884 102.928
L426.063 102.751
L426.786 102.132
L426.833 101.579
L426.683 101.414
L426.823 101.461
L427.221 101.391
L427.546 101.136
L427.656 100.563
L427.598 100.313
L427.575 100.315
L427.599 100.331
L427.599 100.331
L427.955 100.468
L427.912 100.598
L428.105 100.809
L428.413 100.916
L428.344 100.902
L428.198 100.97
L428.126 101.133
L428.265 101.307
L428.17 101.322
L427.982 101.47
L427.924 101.759
L428.092 102.043
L428.642 102.274
L429.096 102.271
L429.025 102.358
L428.934 102.495
L429.015 102.598
L428.842 102.567
L428.604 102.623
L428.309 102.618
L427.86 102.811
L427.632 103.26
L427.868 103.661
L428.223 103.708
L428.182 103.559
L427.821 103.627
L427.677 103.923
L427.819 104.033
L427.819 104.033
L427.819 104.033
L427.621 103.845
L426.749 103.889
L425.883 104.63
L425.918 105.721
L426.744 106.392
L427.449 106.506
L427.403 106.945
L427.894 107.514
L428.743 107.734
L430.062 107.414
L430.138 107.192
L430.144 107.367
L430.259 107.378
L430.181 107.399
L430.212 107.668
L430.261 107.787
L430.174 107.802
L429.71 108.087
L429.567 108.316
L429.583 108.596
L429.952 108.816
L429.953 108.771
L429.712 108.888
L429.651 108.977
L429.214 108.854
L428.748 108.895
L428.301 109.113
L428.041 109.393
L427.545 109.109
L426.204 109.008
L424.463 109.712
L423.392 111.266
L423.648 112.99
L424.876 114.126
L426.172 114.473
L427.061 114.231
L426.89 114.32
L426.758 114.632
L426.954 115.115
L426.736 115.16
L426.162 115.43
L425.682 116.076
L425.659 116.829
L426.022 117.615
L425.781 117.788
L425.055 118.008
L423.641 118.623
L421.953 120.315
L421.534 123.288
L423.801 126.364
L428.008 127.717
L431.439 126.9
L432.305 125.522
L431.709 125.351
L431.918 126.27
L433.33 126.866
L434.396 126.681
L434.37 126.776
L434.615 127.91
L436.559 129.208
L439.515 129.308
L441.567 128.211
L442.184 126.898
L442.979 126.961
L444.197 126.597
L444.996 125.807
L445.189 125.079
L445.169 123.92
L444.865 123.709
L445.065 123.713
L445.272 123.646
L445.728 123.762
L445.93 123.669
L445.931 123.712
L446.262 124.149
L446.521 124.352
L446.928 124.436
L447.381 124.226
L447.364 124.199
L447.364 124.199
L447.364 124.199
L447.462 124.354
L447.568 124.507
L447.499 124.662
L447.515 124.917
L447.707 125.172
L448.059 125.321
L447.916 125.465
L447.811 125.873
L448.062 126.426
L448.697 126.863
L449.478 127.036
L450.166 126.977
L450.646 126.781
L450.875 126.417
L450.908 126.558
L451.198 126.612
L451.176 126.639
L451.141 126.776
L451.379 127.119
L451.635 127.322
L450.877 128.569
L451.01 129.31
L451.72 129.924
L452.594 130.039
L452.914 129.803
L452.597 129.816
L452.385 130.323
L452.769 130.832
L453.14 130.863
L453.14 130.863
L453.14 130.863
L452.63 130.838
L451.602 131.643
L451.467 133.328
L452.845 134.857
L454.658 135.428
L455.605 135.557
L456.023 136.314
L457.474 137.739
L460.594 138.632
L464.129 137.991
L466.321 136.161
L466.701 134.326
L466.15 133.256
L465.443 132.669
L465.835 132.584
L466.208 132.45
L466.545 132.573
L467.025 132.536
L467.393 132.209
L467.421 132.274
L467.912 132.477
L468.075 132.558
L468.275 132.833
L468.869 133.198
L469.85 133.287
L470.695 132.932
L470.951 132.441
L470.801 132.245
L470.792 132.38
L470.792 132.38
L471.122 132.523
L471.596 132.415
L471.591 132.554
L471.768 132.883
L472.223 133.228
L472.862 133.47
L473.545 133.556
L474.176 133.575
L474.235 134.177
L475.168 135.322
L477.64 136.191
L480.933 135.728
L483.258 133.811
L483.469 131.566
L482.218 130.283
L481.137 130.177
L481.096 130.435
L481.627 130.312
L481.899 129.854
L481.784 129.54
L481.785 129.543
L482.24 129.561
L482.894 129.264
L483.253 128.694
L483.168 128.189
L482.957 127.981
L482.993 127.961
L483.275 127.872
L483.717 127.523
L484.12 127.476
L484.875 127.225
L485.547 126.513
L485.551 125.578
L484.94 124.961
L484.342 124.839
L484.473 124.583
L484.31 124.21
L483.883 124.125
L484.161 124.026
L484.337 123.619
L484.097 123.175
L482.452 122.522
L482.221 122.621
L482.393 122.489
L482.393 122.489
L482.492 122.354
L482.42 122.334
L482.505 122.324
L482.505 122.324
L482.692 122.316
L482.656 122.366
L482.927 122.471
L483.184 122.309
L483.164 122.132
L483.298 122.22
L483.363 122.335
L483.58 122.355
L483.618 122.307
L483.567 122.331
L483.567 122.331
L483.678 122.387
L483.596 122.384
L483.521 122.5
L483.564 122.678
L483.974 122.898
L484.599 122.913
L484.993 122.66
L484.911 122.413
L484.861 122.365
L484.901 122.383
L484.901 122.383
L485.011 122.366
L485.013 122.419
L485.08 122.52
L485.238 122.535
L485.191 122.61
L485.24 122.672
L485.191 122.669
L484.966 122.842
L484.984 123.053
L485.191 123.227
L485.632 123.163
L485.629 123.087
L485.653 123.161
L485.653 123.161
L485.752 123.334
L485.686 123.31
L485.614 123.449
L485.636 123.413
L485.42 123.342
L485.017 123.484
L484.807 123.887
L484.99 124.286
L485.452 124.531
L485.513 124.703
L485.747 124.924
L486.212 124.965
L486.168 125.098
L486.344 125.439
L486.926 125.686
L487.582 125.604
L488.584 124.847
L488.494 124.42
L488.388 124.417
L488.477 124.415
L488.477 124.415
L488.625 124.447
L488.614 124.457
L488.703 124.554
L488.83 124.516
L488.777 124.606
L488.83 124.672
L488.71 124.654
L488.614 124.775
L488.671 124.939
L488.997 125.011
L489.131 124.967
L489.091 125.073
L489.101 125.097
L489.107 125.089
L489.107 125.089
L488.971 125.093
L488.88 125.302
L488.975 125.36
L488.881 125.397
L488.881 125.397
L488.76 125.319
L488.277 125.424
L487.746 125.963
L487.667 126.324
L487.854 126.718
L488.281 126.976
L488.741 127.014
L489.141 126.778
L489.136 126.719
L489.197 126.758
L489.197 126.758
L489.176 126.995
L488.983 127.063
L488.935 127.204
L489.144 127.336
L489.154 127.292
L489.073 127.296
L489.073 127.296
L489.065 127.405
L489.001 127.351
L488.565 127.522
L488.55 127.39
L488.241 127.122
L487.453 126.988
L486.455 127.326
L485.883 128.153
L486.141 129.016
L486.889 129.392
L487.349 129.26
L487.189 129.117
L486.865 129.337
L486.921 129.706
L487.19 129.813
L487.093 129.713
L486.592 129.877
L486.324 130.452
L486.659 131.001
L487.209 131.099
L487.007 131.28
L487.022 131.625
L487.151 131.804
L486.893 131.935
L486.398 132.537
L486.571 133.64
L487.823 134.5
L489.328 134.502
L490.016 133.984
L489.909 133.752
L489.882 134.025
L490.366 134.344
L491.68 134.522
L492.368 134.629
L493.122 134.42
L493.503 134.024
L493.563 133.781
L494.059 133.635
L494.353 133.365
L494.392 132.758
L494.236 132.484
L494.107 132.523
L494.233 132.462
L494.233 132.462
L494.689 132.703
L494.625 132.709
L494.55 132.924
L494.867 133.091
L495.098 133.091
L494.937 133.157
L494.908 133.343
L495.038 133.361
L494.947 133.415
L494.947 133.415
L494.736 133.453
L494.224 133.826
L494.149 134.105
L494.287 134.414
L494.618 134.616
L495.205 134.556
L495.383 134.442
L495.364 134.525
L495.405 134.532
L495.37 134.565
L495.37 134.565
L495.248 134.687
L495.291 134.827
L495.25 134.789
L494.972 134.79
L494.724 134.725
L494.371 134.833
L494.198 135.124
L494.336 135.383
L494.636 135.372
L494.374 135.484
L494.046 135.595
L494.144 135.542
L494.042 135.286
L493.53 135.118
L492.969 135.298
L492.812 135.627
L492.929 135.726
L492.929 135.726
L492.929 135.726
L492.83 135.601
L492.441 135.57
L491.921 135.722
L491.397 135.616
L490.42 135.806
L489.602 136.559
L489.537 137.508
L490.267 138.4
L490.279 138.787
L490.531 139.406
L491.283 139.901
L492.159 139.988
L493.21 139.562
L493.338 139.3
L493.251 139.309
L493.283 139.395
L493.482 139.533
L493.449 139.697
L493.314 139.824
L493.347 139.966
L493.576 139.989
L493.364 140.061
L493.157 140.277
L493.162 140.249
L493.006 140.162
L492.659 140.185
L492.346 140.42
L492.296 140.753
L492.484 140.988
L492.812 141.035
L492.64 141.138
L492.38 141.299
L492.132 141.149
L491.6 141.265
L491.492 141.545
L491.533 141.552
L491.533 141.552
L491.533 141.552
L491.469 141.486
L491.135 141.52
L491.147 141.557
L491.147 141.557
L491.147 141.557
L491.193 141.41
L490.98 141.123
L490.458 140.947
L489.797 141
L489.539 140.61
L488.434 140.027
L486.348 140.041
L484.315 141.233
L483.68 143.198
L484.709 144.818
L486.322 145.363
L487.287 145.121
L487.39 144.862
L487.254 144.944
L487.254 144.944
L487.326 145.148
L487.473 145.256
L487.161 145.699
L487.088 145.927
L487.285 146.11
L487.126 146.074
L485.599 146.692
L485.398 147.339
L485.786 147.807
L486.174 147.811
L486.049 147.681
L485.686 147.831
L485.619 148.143
L485.767 148.232
L485.767 148.232
L485.767 148.232
L485.634 148.104
L485.14 148.104
L484.371 148.591
L483.649 149.078
L483.459 149.337
L483.163 149.255
L481.957 149.064
L479.824 149.702
L478.209 151.716
L478.649 154.284
L480.925 155.91
L483.242 156.023
L484.232 155.424
L484.145 155.168
L484.018 155.473
L484.327 155.882
L484.929 156.078
L484.794 156.231
L484.654 156.647
L484.821 157.2
L485.301 157.6
L485.707 157.76
L485.507 158.074
L485.554 158.551
L485.711 158.836
L485.364 159.059
L484.609 159.898
L484.633 161.535
L486.246 163.041
L488.531 163.387
L489.829 162.824
L489.883 162.542
L489.972 163.028
L490.887 163.563
L492.109 163.493
L492.219 164.125
L493.402 165.099
L495.551 165.391
L497.357 164.741
L498.507 163.551
L499.288 163.341
L500.246 162.765
L500.723 161.881
L500.63 161.122
L500.103 160.311
L499.774 160.087
L499.403 160.166
L499.623 160.032
L499.539 159.952
L499.616 160.022
L500.077 159.895
L500.131 159.966
L500.314 160.01
L500.501 159.819
L500.415 159.814
L500.435 159.893
L500.435 159.893
L500.719 160.03
L500.85 160.084
L500.734 160.186
L500.784 160.373
L501.012 160.521
L501.497 160.458
L501.649 160.338
L501.626 160.378
L501.688 160.682
L501.831 160.84
L501.955 160.981
L501.772 161.098
L501.839 161.325
L501.867 161.318
L501.867 161.318
L501.867 161.318
L501.698 161.318
L501.409 161.508
L501.305 161.932
L501.632 162.388
L502.276 162.587
L502.84 162.445
L503.035 162.169
L502.87 162.041
L503.115 162.119
L503.115 162.119
L503.241 162.489
L503.358 162.522
L503.296 162.52
L503.296 162.52
L503.09 162.707
L502.88 162.738
L502.676 162.908
L502.647 163.167
L502.824 163.37
L503.167 163.478
L503.089 163.467
L502.824 163.7
L502.438 163.818
L502.315 164.001
L502.449 164.241
L502.282 164.222
L502.167 164.443
L502.169 164.385
L501.892 164.263
L501.356 164.317
L500.859 164.625
L500.36 165.446
L500.144 165.975
L500.177 166.729
L500.789 167.505
L501.886 167.915
L502.944 167.804
L503.526 167.402
L503.641 167.051
L503.538 166.866
L503.683 166.882
L503.786 166.953
L503.939 167.066
L503.926 167.104
L504.004 167.304
L504.17 167.385
L504.07 167.387
L504.024 167.613
L504 167.59
L503.842 167.592
L503.655 167.728
L503.635 167.959
L503.809 168.124
L504.078 168.179
L504.032 168.229
L503.939 168.395
L503.921 168.369
L503.645 168.411
L503.48 168.677
L502.908 168.648
L502.415 168.448
L501.588 168.603
L501.019 169.241
L501.178 169.998
L501.854 170.376
L502.399 170.292
L502.476 170.098
L502.326 170.099
L502.311 170.243
L502.512 170.28
L502.367 170.345
L502.385 170.584
L502.326 170.582
L501.877 170.831
L502.021 171.029
L502.036 170.975
L501.819 171.057
L501.867 171.128
L501.909 171.08
L501.909 171.08
L501.784 171.006
L501.514 171.151
L501.545 171.175
L501.545 171.175
L501.545 171.175
L501.481 171.112
L501.204 171.18
L501.247 171.157
L501.148 170.941
L500.652 170.745
L499.945 170.866
L499.497 171.306
L499.517 171.755
L499.877 171.946
L499.776 171.928
L499.56 172.134
L499.572 172.193
L499.523 172.165
L499.329 172.138
L499.07 172.218
L498.95 172.491
L498.944 172.443
L498.734 172.367
L498.38 172.516
L498.394 172.375
L498.017 172.011
L497.063 171.847
L496.051 172.212
L495.618 172.852
L495.574 173.274
L495.063 173.355
L494.567 173.7
L494.381 174.004
L493.051 174.045
L491.712 174.729
L491.001 176.028
L491.261 177.24
L491.754 177.887
L491.671 178.339
L491.248 179.305
L491.523 180.878
L493.114 182.347
L495.519 182.927
L497.626 182.48
L498.686 181.537
L498.765 180.764
L498.472 180.476
L498.363 180.538
L498.555 180.624
L498.879 180.462
L498.889 180.557
L499.54 180.92
L499.682 181.138
L500.012 181.16
L500.007 181.113
L499.948 181.161
L499.948 181.161
L500.098 181.288
L500.113 181.252
L500.113 181.252
L500.113 181.252
L499.965 181.399
L500.133 181.517
L500.026 181.587
L500.085 181.709
L499.983 181.706
L499.778 181.833
L499.71 182.111
L499.903 182.372
L500.392 182.422
L500.425 182.383
L500.443 182.461
L500.49 182.57
L500.383 182.854
L500.168 183.084
L500.26 183.403
L500.238 183.386
L500.003 183.466
L499.794 183.639
L499.568 183.726
L499.151 183.699
L498.564 183.986
L498.308 184.624
L498.694 185.246
L499.412 185.453
L499.86 185.271
L499.834 185.089
L499.681 185.154
L499.747 185.321
L499.986 185.286
L499.827 185.422
L500.001 185.65
L499.95 185.646
L499.737 185.884
L499.797 186.104
L499.89 186.1
L499.85 186.06
L499.85 186.06
L499.732 186.207
L499.81 186.23
L499.785 186.169
L499.785 186.169
L499.621 186.169
L499.318 186.46
L499.336 186.411
L499.132 186.297
L498.728 186.342
L498.428 186.609
L498.42 186.912
L498.594 187.237
L498.405 187.362
L498.262 187.538
L498.303 187.576
L498.272 187.534
L498.272 187.534
L498.003 187.603
L498.01 187.643
L498.01 187.643
L498.01 187.643
L497.964 187.549
L497.677 187.455
L497.29 187.553
L497.109 187.792
L497.148 187.937
L497.135 187.927
L496.787 188.034
L496.762 188.113
L496.717 188.065
L496.209 187.993
L494.762 188.208
L494.183 187.915
L492.737 187.865
L491.012 188.775
L490.374 190.563
L491.439 192.177
L493.249 192.685
L494.351 192.277
L494.383 191.878
L494.143 191.983
L494.304 192.279
L494.669 192.343
L494.773 192.241
L494.637 192.276
L494.637 192.276
L494.606 192.478
L494.997 192.901
L494.958 192.941
L494.757 193.369
L494.803 193.55
L495.065 193.665
L494.947 193.732
L495.031 193.881
L494.996 193.856
L494.746 194.03
L494.814 194.176
L494.733 194.175
L494.372 194.343
L494.033 194.425
L493.753 194.713
L493.757 195.073
L494.174 195.341
L494.194 195.337
L494.194 195.337
L494.194 195.337
L494.141 195.506
L494.181 195.579
L494.101 195.614
L494.005 195.864
L493.89 195.962
L493.682 196.045
L493.289 196.122
L493.117 196.295
L493.169 196.543
L493.129 196.527
L492.862 196.674
L492.878 196.744
L492.849 196.691
L492.624 196.634
L492.211 196.863
L492.178 196.902
L492.007 196.854
L491.448 196.941
L491.006 196.701
L489.999 196.698
L488.971 197.318
L488.71 198.32
L489.274 199.043
L489.92 199.176
L490.049 199.063
L490.049 199.063
L490.049 199.063
L489.85 199.157
L489.827 199.44
L490.109 199.58
L489.93 199.607
L489.763 199.816
L489.797 200.215
L489.683 200.449
L489.296 200.608
L489.04 200.984
L489.026 201.383
L488.725 201.605
L488.456 201.662
L488.023 201.956
L487.526 202.122
L487.098 201.986
L486.339 202.096
L485.723 202.591
L485.622 203.188
L485.948 203.625
L485.673 203.934
L485.675 204.199
L485.241 204.384
L484.678 205.068
L484.112 205.294
L483.187 205.425
L482.652 205.776
L482.416 206.245
L482.42 206.658
L482.107 206.744
L481.759 207.009
L481.582 207.347
L481.146 207.293
L480.41 207.491
L479.889 207.982
L479.755 208.386
L479.547 208.501
L478.921 208.624
L478.21 209.037
L477.793 209.498
L477.269 209.674
L475.969 209.922
L474.227 211.027
L473.386 213.087
L473.386 213.087" style="fill:none;stroke:#000000;stroke-linecap:square;"/>
   </g>
   <g id="matplotlib.axis_1">
    <g id="xtick_1">
     <g id="line2d_2">
      <defs>
       <path d="
M0 0
L0 -4" id="m93b0483c22" style="stroke:#000000;stroke-width:0.5;"/>
      </defs>
      <g>
       <use style="stroke:#000000;stroke-width:0.5;" x="79.5127826604" xlink:href="#m93b0483c22" y="388.8"/>
      </g>
     </g>
     <g id="line2d_3">
      <defs>
       <path d="
M0 0
L0 4" id="m741efc42ff" style="stroke:#000000;stroke-width:0.5;"/>
      </defs>
      <g>
       <use style="stroke:#000000;stroke-width:0.5;" x="79.5127826604" xlink:href="#m741efc42ff" y="43.2"/>
      </g>
     </g>
     <g id="text_1">
      <!-- 2.0 -->
      <defs>
       <path d="
M10.5938 35.5
L73.1875 35.5
L73.1875 27.2031
L10.5938 27.2031
z
" id="BitstreamVeraSans-Roman-2212"/>
       <path d="
M19.1875 8.29688
L53.6094 8.29688
L53.6094 0
L7.32812 0
L7.32812 8.29688
Q12.9375 14.1094 22.625 23.8906
Q32.3281 33.6875 34.8125 36.5312
Q39.5469 41.8438 41.4219 45.5312
Q43.3125 49.2188 43.3125 52.7812
Q43.3125 58.5938 39.2344 62.25
Q35.1562 65.9219 28.6094 65.9219
Q23.9688 65.9219 18.8125 64.3125
Q13.6719 62.7031 7.8125 59.4219
L7.8125 69.3906
Q13.7656 71.7812 18.9375 73
Q24.125 74.2188 28.4219 74.2188
Q39.75 74.2188 46.4844 68.5469
Q53.2188 62.8906 53.2188 53.4219
Q53.2188 48.9219 51.5312 44.8906
Q49.8594 40.875 45.4062 35.4062
Q44.1875 33.9844 37.6406 27.2188
Q31.1094 20.4531 19.1875 8.29688" id="BitstreamVeraSans-Roman-32"/>
       <path d="
M31.7812 66.4062
Q24.1719 66.4062 20.3281 58.9062
Q16.5 51.4219 16.5 36.375
Q16.5 21.3906 20.3281 13.8906
Q24.1719 6.39062 31.7812 6.39062
Q39.4531 6.39062 43.2812 13.8906
Q47.125 21.3906 47.125 36.375
Q47.125 51.4219 43.2812 58.9062
Q39.4531 66.4062 31.7812 66.4062
M31.7812 74.2188
Q44.0469 74.2188 50.5156 64.5156
Q56.9844 54.8281 56.9844 36.375
Q56.9844 17.9688 50.5156 8.26562
Q44.0469 -1.42188 31.7812 -1.42188
Q19.5312 -1.42188 13.0625 8.26562
Q6.59375 17.9688 6.59375 36.375
Q6.59375 54.8281 13.0625 64.5156
Q19.5312 74.2188 31.7812 74.2188" id="BitstreamVeraSans-Roman-30"/>
       <path d="
M10.6875 12.4062
L21 12.4062
L21 0
L10.6875 0
z
" id="BitstreamVeraSans-Roman-2e"/>
      </defs>
      <g transform="translate(65.9771576604 401.918125)scale(0.12 -0.12)">
       <use xlink:href="#BitstreamVeraSans-Roman-2212"/>
       <use x="83.7890625" xlink:href="#BitstreamVeraSans-Roman-32"/>
       <use x="147.412109375" xlink:href="#BitstreamVeraSans-Roman-2e"/>
       <use x="179.19921875" xlink:href="#BitstreamVeraSans-Roman-30"/>
      </g>
     </g>
    </g>
    <g id="xtick_2">
     <g id="line2d_4">
      <g>
       <use style="stroke:#000000;stroke-width:0.5;" x="165.428562321" xlink:href="#m93b0483c22" y="388.8"/>
      </g>
     </g>
     <g id="line2d_5">
      <g>
       <use style="stroke:#000000;stroke-width:0.5;" x="165.428562321" xlink:href="#m741efc42ff" y="43.2"/>
      </g>
     </g>
     <g id="text_2">
      <!-- 1.5 -->
      <defs>
       <path d="
M12.4062 8.29688
L28.5156 8.29688
L28.5156 63.9219
L10.9844 60.4062
L10.9844 69.3906
L28.4219 72.9062
L38.2812 72.9062
L38.2812 8.29688
L54.3906 8.29688
L54.3906 0
L12.4062 0
z
" id="BitstreamVeraSans-Roman-31"/>
       <path d="
M10.7969 72.9062
L49.5156 72.9062
L49.5156 64.5938
L19.8281 64.5938
L19.8281 46.7344
Q21.9688 47.4688 24.1094 47.8281
Q26.2656 48.1875 28.4219 48.1875
Q40.625 48.1875 47.75 41.5
Q54.8906 34.8125 54.8906 23.3906
Q54.8906 11.625 47.5625 5.09375
Q40.2344 -1.42188 26.9062 -1.42188
Q22.3125 -1.42188 17.5469 -0.640625
Q12.7969 0.140625 7.71875 1.70312
L7.71875 11.625
Q12.1094 9.23438 16.7969 8.0625
Q21.4844 6.89062 26.7031 6.89062
Q35.1562 6.89062 40.0781 11.3281
Q45.0156 15.7656 45.0156 23.3906
Q45.0156 31 40.0781 35.4375
Q35.1562 39.8906 26.7031 39.8906
Q22.75 39.8906 18.8125 39.0156
Q14.8906 38.1406 10.7969 36.2812
z
" id="BitstreamVeraSans-Roman-35"/>
      </defs>
      <g transform="translate(152.018562321 401.918125)scale(0.12 -0.12)">
       <use xlink:href="#BitstreamVeraSans-Roman-2212"/>
       <use x="83.7890625" xlink:href="#BitstreamVeraSans-Roman-31"/>
       <use x="147.412109375" xlink:href="#BitstreamVeraSans-Roman-2e"/>
       <use x="179.19921875" xlink:href="#BitstreamVeraSans-Roman-35"/>
      </g>
     </g>
    </g>
    <g id="xtick_3">
     <g id="line2d_6">
      <g>
       <use style="stroke:#000000;stroke-width:0.5;" x="251.344341982" xlink:href="#m93b0483c22" y="388.8"/>
      </g>
     </g>
     <g id="line2d_7">
      <g>
       <use style="stroke:#000000;stroke-width:0.5;" x="251.344341982" xlink:href="#m741efc42ff" y="43.2"/>
      </g>
     </g>
     <g id="text_3">
      <!-- 1.0 -->
      <g transform="translate(237.808716982 401.918125)scale(0.12 -0.12)">
       <use xlink:href="#BitstreamVeraSans-Roman-2212"/>
       <use x="83.7890625" xlink:href="#BitstreamVeraSans-Roman-31"/>
       <use x="147.412109375" xlink:href="#BitstreamVeraSans-Roman-2e"/>
       <use x="179.19921875" xlink:href="#BitstreamVeraSans-Roman-30"/>
      </g>
     </g>
    </g>
    <g id="xtick_4">
     <g id="line2d_8">
      <g>
       <use style="stroke:#000000;stroke-width:0.5;" x="337.260121643" xlink:href="#m93b0483c22" y="388.8"/>
      </g>
     </g>
     <g id="line2d_9">
      <g>
       <use style="stroke:#000000;stroke-width:0.5;" x="337.260121643" xlink:href="#m741efc42ff" y="43.2"/>
      </g>
     </g>
     <g id="text_4">
      <!-- 0.5 -->
      <g transform="translate(323.850121643 401.918125)scale(0.12 -0.12)">
       <use xlink:href="#BitstreamVeraSans-Roman-2212"/>
       <use x="83.7890625" xlink:href="#BitstreamVeraSans-Roman-30"/>
       <use x="147.412109375" xlink:href="#BitstreamVeraSans-Roman-2e"/>
       <use x="179.19921875" xlink:href="#BitstreamVeraSans-Roman-35"/>
      </g>
     </g>
    </g>
    <g id="xtick_5">
     <g id="line2d_10">
      <g>
       <use style="stroke:#000000;stroke-width:0.5;" x="423.175901304" xlink:href="#m93b0483c22" y="388.8"/>
      </g>
     </g>
     <g id="line2d_11">
      <g>
       <use style="stroke:#000000;stroke-width:0.5;" x="423.175901304" xlink:href="#m741efc42ff" y="43.2"/>
      </g>
     </g>
     <g id="text_5">
      <!-- 0.0 -->
      <g transform="translate(414.428088804 401.918125)scale(0.12 -0.12)">
       <use xlink:href="#BitstreamVeraSans-Roman-30"/>
       <use x="63.623046875" xlink:href="#BitstreamVeraSans-Roman-2e"/>
       <use x="95.41015625" xlink:href="#BitstreamVeraSans-Roman-30"/>
      </g>
     </g>
    </g>
    <g id="xtick_6">
     <g id="line2d_12">
      <g>
       <use style="stroke:#000000;stroke-width:0.5;" x="509.091680965" xlink:href="#m93b0483c22" y="388.8"/>
      </g>
     </g>
     <g id="line2d_13">
      <g>
       <use style="stroke:#000000;stroke-width:0.5;" x="509.091680965" xlink:href="#m741efc42ff" y="43.2"/>
      </g>
     </g>
     <g id="text_6">
      <!-- 0.5 -->
      <g transform="translate(500.469493465 401.918125)scale(0.12 -0.12)">
       <use xlink:href="#BitstreamVeraSans-Roman-30"/>
       <use x="63.623046875" xlink:href="#BitstreamVeraSans-Roman-2e"/>
       <use x="95.41015625" xlink:href="#BitstreamVeraSans-Roman-35"/>
      </g>
     </g>
    </g>
   </g>
   <g id="matplotlib.axis_2">
    <g id="ytick_1">
     <g id="line2d_14">
      <defs>
       <path d="
M0 0
L4 0" id="m728421d6d4" style="stroke:#000000;stroke-width:0.5;"/>
      </defs>
      <g>
       <use style="stroke:#000000;stroke-width:0.5;" x="72.0" xlink:href="#m728421d6d4" y="342.188991086"/>
      </g>
     </g>
     <g id="line2d_15">
      <defs>
       <path d="
M0 0
L-4 0" id="mcb0005524f" style="stroke:#000000;stroke-width:0.5;"/>
      </defs>
      <g>
       <use style="stroke:#000000;stroke-width:0.5;" x="518.4" xlink:href="#mcb0005524f" y="342.188991086"/>
      </g>
     </g>
     <g id="text_7">
      <!-- 1.0 -->
      <g transform="translate(40.92875 345.500241086)scale(0.12 -0.12)">
       <use xlink:href="#BitstreamVeraSans-Roman-2212"/>
       <use x="83.7890625" xlink:href="#BitstreamVeraSans-Roman-31"/>
       <use x="147.412109375" xlink:href="#BitstreamVeraSans-Roman-2e"/>
       <use x="179.19921875" xlink:href="#BitstreamVeraSans-Roman-30"/>
      </g>
     </g>
    </g>
    <g id="ytick_2">
     <g id="line2d_16">
      <g>
       <use style="stroke:#000000;stroke-width:0.5;" x="72.0" xlink:href="#m728421d6d4" y="277.638187951"/>
      </g>
     </g>
     <g id="line2d_17">
      <g>
       <use style="stroke:#000000;stroke-width:0.5;" x="518.4" xlink:href="#mcb0005524f" y="277.638187951"/>
      </g>
     </g>
     <g id="text_8">
      <!-- 0.5 -->
      <g transform="translate(41.18 280.949437951)scale(0.12 -0.12)">
       <use xlink:href="#BitstreamVeraSans-Roman-2212"/>
       <use x="83.7890625" xlink:href="#BitstreamVeraSans-Roman-30"/>
       <use x="147.412109375" xlink:href="#BitstreamVeraSans-Roman-2e"/>
       <use x="179.19921875" xlink:href="#BitstreamVeraSans-Roman-35"/>
      </g>
     </g>
    </g>
    <g id="ytick_3">
     <g id="line2d_18">
      <g>
       <use style="stroke:#000000;stroke-width:0.5;" x="72.0" xlink:href="#m728421d6d4" y="213.087384815"/>
      </g>
     </g>
     <g id="line2d_19">
      <g>
       <use style="stroke:#000000;stroke-width:0.5;" x="518.4" xlink:href="#mcb0005524f" y="213.087384815"/>
      </g>
     </g>
     <g id="text_9">
      <!-- 0.0 -->
      <g transform="translate(50.504375 216.398634815)scale(0.12 -0.12)">
       <use xlink:href="#BitstreamVeraSans-Roman-30"/>
       <use x="63.623046875" xlink:href="#BitstreamVeraSans-Roman-2e"/>
       <use x="95.41015625" xlink:href="#BitstreamVeraSans-Roman-30"/>
      </g>
     </g>
    </g>
    <g id="ytick_4">
     <g id="line2d_20">
      <g>
       <use style="stroke:#000000;stroke-width:0.5;" x="72.0" xlink:href="#m728421d6d4" y="148.53658168"/>
      </g>
     </g>
     <g id="line2d_21">
      <g>
       <use style="stroke:#000000;stroke-width:0.5;" x="518.4" xlink:href="#mcb0005524f" y="148.53658168"/>
      </g>
     </g>
     <g id="text_10">
      <!-- 0.5 -->
      <g transform="translate(50.755625 151.84783168)scale(0.12 -0.12)">
       <use xlink:href="#BitstreamVeraSans-Roman-30"/>
       <use x="63.623046875" xlink:href="#BitstreamVeraSans-Roman-2e"/>
       <use x="95.41015625" xlink:href="#BitstreamVeraSans-Roman-35"/>
      </g>
     </g>
    </g>
    <g id="ytick_5">
     <g id="line2d_22">
      <g>
       <use style="stroke:#000000;stroke-width:0.5;" x="72.0" xlink:href="#m728421d6d4" y="83.9857785442"/>
      </g>
     </g>
     <g id="line2d_23">
      <g>
       <use style="stroke:#000000;stroke-width:0.5;" x="518.4" xlink:href="#mcb0005524f" y="83.9857785442"/>
      </g>
     </g>
     <g id="text_11">
      <!-- 1.0 -->
      <g transform="translate(51.03125 87.2970285442)scale(0.12 -0.12)">
       <use xlink:href="#BitstreamVeraSans-Roman-31"/>
       <use x="63.623046875" xlink:href="#BitstreamVeraSans-Roman-2e"/>
       <use x="95.41015625" xlink:href="#BitstreamVeraSans-Roman-30"/>
      </g>
     </g>
    </g>
   </g>
   <g id="patch_3">
    <path d="
M72 43.2
L518.4 43.2" style="fill:none;stroke:#000000;stroke-linecap:square;stroke-linejoin:miter;"/>
   </g>
   <g id="patch_4">
    <path d="
M518.4 388.8
L518.4 43.2" style="fill:none;stroke:#000000;stroke-linecap:square;stroke-linejoin:miter;"/>
   </g>
   <g id="patch_5">
    <path d="
M72 388.8
L518.4 388.8" style="fill:none;stroke:#000000;stroke-linecap:square;stroke-linejoin:miter;"/>
   </g>
   <g id="patch_6">
    <path d="
M72 388.8
L72 43.2" style="fill:none;stroke:#000000;stroke-linecap:square;stroke-linejoin:miter;"/>
   </g>
  </g>
 </g>
 <defs>
  <clipPath id="p7ff5b81e1d">
   <rect height="345.6" width="446.4" x="72.0" y="43.2"/>
  </clipPath>
 </defs>
</svg>
