<?xml version="1.0" encoding="UTF-8" standalone="no"?>
<!-- Created with Inkscape (http://www.inkscape.org/) -->

<svg
   xmlns:dc="http://purl.org/dc/elements/1.1/"
   xmlns:cc="http://creativecommons.org/ns#"
   xmlns:rdf="http://www.w3.org/1999/02/22-rdf-syntax-ns#"
   xmlns:svg="http://www.w3.org/2000/svg"
   xmlns="http://www.w3.org/2000/svg"
   xmlns:sodipodi="http://sodipodi.sourceforge.net/DTD/sodipodi-0.dtd"
   xmlns:inkscape="http://www.inkscape.org/namespaces/inkscape"
   width="269.35312mm"
   height="12.423797mm"
   viewBox="0 0 269.35312 12.423796"
   version="1.1"
   id="svg2603"
   inkscape:version="0.92.4 (5da689c313, 2019-01-14)"
   sodipodi:docname="nav.svg">
  <defs
     id="defs2597">
    <inkscape:path-effect
       effect="sketch"
       id="path-effect3152"
       is_visible="true"
       nbiter_approxstrokes="7"
       strokelength="100"
       strokelength_rdm="0.3;1"
       strokeoverlap="0"
       strokeoverlap_rdm="0.3;1"
       ends_tolerance="0.1;1"
       parallel_offset="2;1"
       tremble_size="2;1"
       tremble_frequency="1"
       nbtangents="1"
       tgt_places_rdmness="1;1"
       tgtscale="10"
       tgtlength="40"
       tgtlength_rdm="0.3;1" />
    <inkscape:path-effect
       effect="spiro"
       id="path-effect3150"
       is_visible="true" />
  </defs>
  <sodipodi:namedview
     id="base"
     pagecolor="#ffffff"
     bordercolor="#666666"
     borderopacity="1.0"
     inkscape:pageopacity="0.0"
     inkscape:pageshadow="2"
     inkscape:zoom="0.7"
     inkscape:cx="589.41491"
     inkscape:cy="313.86989"
     inkscape:document-units="mm"
     inkscape:current-layer="layer1"
     showgrid="false"
     inkscape:window-width="1920"
     inkscape:window-height="1016"
     inkscape:window-x="0"
     inkscape:window-y="27"
     inkscape:window-maximized="1"
     fit-margin-top="1"
     fit-margin-left="1"
     fit-margin-right="1"
     fit-margin-bottom="1" />
  <metadata
     id="metadata2600">
    <rdf:RDF>
      <cc:Work
         rdf:about="">
        <dc:format>image/svg+xml</dc:format>
        <dc:type
           rdf:resource="http://purl.org/dc/dcmitype/StillImage" />
        <dc:title></dc:title>
      </cc:Work>
    </rdf:RDF>
  </metadata>
  <g
     inkscape:label="Layer 1"
     inkscape:groupmode="layer"
     id="layer1"
     transform="translate(29.771259,-14.718022)">
    <path
       style="fill:none;stroke:#000000;stroke-width:0.26458332px;stroke-linecap:butt;stroke-linejoin:miter;stroke-opacity:1"
       d="m 15.181628,23.04179 c 8.831112,-1.002338 17.621097,-1.430213 26.340527,-1.304651 12.585826,0.18124 24.994677,1.512443 37.384468,2.482475 5.406631,0.4233 10.82048,0.77756 16.237779,0.988204 M 94.681041,21.13112 c 11.285329,0.321108 22.684659,0.118609 34.062189,-1.240649 10.06365,-1.202292 20.1,-3.308145 30.32719,-3.572918 2.53714,-0.06568 5.07197,-0.01788 7.60583,0.110664 m -2.59206,2.291627 c 11.31179,0.42072 22.71353,2.544893 34.27794,3.118648 5.88996,0.292223 11.82172,0.181526 17.74655,-0.238112 7.46908,-0.529013 14.92549,-1.548167 22.40399,-2.249055 m 2.23785,1.107467 c 1.81547,-0.104304 3.62942,-0.190274 5.44283,-0.24627 7.88702,-0.243542 15.75121,0.08283 23.52441,0.989992 M 14.078346,18.430311 c 7.939393,-0.827668 16.01853,-1.196299 24.172448,-1.117368 12.716782,0.123099 25.591562,1.332243 38.61246,2.13555 7.849926,0.484292 15.776446,0.820468 23.733556,0.816707 m -0.20692,2.584255 c 9.16226,0.233898 18.44288,-0.138297 27.74908,-1.420953 10.09442,-1.391296 20.20845,-3.851701 30.56176,-4.588112 6.37554,-0.453479 12.75948,-0.249542 19.15463,0.117876 m -2.88827,1.587144 c 7.71326,0.863533 15.49876,2.030876 23.38863,2.490069 5.91347,0.344166 11.88477,0.289721 17.86736,-0.06566 9.36,-0.556007 18.7459,-1.847276 28.23538,-2.31474 2.00983,-0.09901 4.02348,-0.160865 6.03926,-0.18567 m 1.93672,-1.585463 c 8.4854,-0.06671 16.90223,0.631755 25.14585,2.081984 M 12.525448,20.068372 c 9.249349,-0.924882 18.490766,-1.357398 27.675873,-1.278022 12.559564,0.108539 24.997166,1.172089 37.408675,1.791881 8.793306,0.43911 17.610242,0.654577 26.418784,0.36905 m 1.28291,-0.46646 c 7.88516,0.136955 15.81646,-0.144144 23.74683,-1.024737 10.03753,-1.114574 20.05798,-3.187688 30.29283,-3.406192 12.54077,-0.267734 25.03491,2.253126 37.65551,3.743026 m -1.95092,0.408364 c 1.75263,0.1721 3.50307,0.319967 5.25211,0.432939 5.96528,0.385304 11.91454,0.364041 17.81807,0.03691 9.23638,-0.511808 18.35956,-1.770951 27.51312,-2.206767 10.52356,-0.501044 21.06294,0.09185 31.44798,1.781337 M 13.370673,17.524317 c 8.412485,-0.706758 16.788053,-1.017242 25.10353,-0.912458 12.621329,0.159042 25.084213,1.272456 37.533949,1.958078 9.025624,0.497052 18.081202,0.768377 27.148408,0.522719 m -0.45402,3.109233 c 7.8578,3.06e-4 15.67305,-0.307242 23.43821,-1.109041 10.08335,-1.041165 20.08571,-2.916568 30.25245,-2.851251 10.19666,0.06551 20.31956,2.076741 30.5682,3.915479 m 1.53208,-2.913491 c 3.89326,0.547058 7.79597,1.043541 11.71309,1.3615 5.79752,0.470594 11.62551,0.549329 17.4339,0.34448 9.08791,-0.320511 18.12821,-1.333814 27.19144,-1.440142 5.35553,-0.06283 10.71263,0.192537 16.03316,0.772471 m 0.93733,-2.437515 c 2.66254,0.144145 5.31575,0.362499 7.95618,0.654344 M 16.799165,19.754358 c 7.510206,-0.568867 15.10494,-0.766439 22.736301,-0.57724 12.660254,0.313876 25.388666,1.688853 38.218558,2.747992 10.572545,0.872789 21.252572,1.530295 31.936876,1.544585 m -0.20747,-0.59225 c 6.5354,-0.07323 13.04117,-0.477706 19.50043,-1.320094 10.01397,-1.305977 19.90416,-3.662387 29.94616,-4.284997 14.02022,-0.869262 27.88374,1.651161 41.90551,1.819321 1.83902,0.02206 3.68074,0.0036 5.52414,-0.05226 m -0.63764,0.454627 c 4.04479,0.123466 8.09597,0.0775 12.1405,-0.104561 9.21286,-0.414713 18.39048,-1.53419 27.63851,-1.779326 10.08845,-0.267413 20.23879,0.510793 30.25645,2.347842 M 10.265106,18.348389 c 9.847491,-1.124863 19.82864,-1.642784 29.860971,-1.539123 12.762462,0.131871 25.587339,1.267334 38.532373,1.987999 5.048185,0.281038 10.125025,0.498728 15.222662,0.605593 m -4.737676,3.677855 c 12.122124,0.373774 24.246624,0.169022 36.311754,-1.360997 10.15219,-1.287433 20.24734,-3.5108 30.57693,-3.932786 8.25811,-0.337361 16.5198,0.480679 24.84896,1.350481 m 0.28249,0.212036 c 5.99917,0.701699 11.98571,1.44362 17.98127,1.770237 5.87717,0.320167 11.76369,0.240626 17.62278,-0.143636 9.16668,-0.601186 18.2641,-1.946888 27.406,-2.488324 10.32912,-0.61175 20.69153,-0.191255 30.88268,1.232435 m -261.692172,0.0068 c 8.76601,-1.103962 17.668606,-1.555916 26.620998,-1.390138 12.640152,0.234066 25.346096,1.696118 38.127174,2.842223 11.327355,1.015746 22.75246,1.782133 34.13972,1.651035 m -1.22251,0.598449 c 5.70715,-0.211979 11.40258,-0.670755 17.0713,-1.456609 9.9918,-1.385163 19.88832,-3.784074 29.94606,-4.453993 14.04219,-0.935313 27.94604,1.509687 41.97459,1.480133 1.76188,-0.0037 3.5257,-0.0465 5.29048,-0.125856 m -2.41806,3.038449 c 4.0875,0.07597 8.19201,-0.02242 12.29836,-0.262453 9.17616,-0.536377 18.35996,-1.778684 27.63827,-2.176917 9.88523,-0.424283 19.85685,0.114456 29.71085,1.593343 m -120.54341,-6.017115 63.86209,7.858266"
       id="path3148"
       inkscape:connector-curvature="0"
       inkscape:path-effect="#path-effect3150;#path-effect3152"
       inkscape:original-d="M 7.4835466,20.643308 C 18.352772,20.019415 29.221731,19.395786 40.090428,18.772421 c 10.868697,-0.623364 25.1236,1.603353 37.685003,2.405426 12.561404,0.802073 33.676229,-0.178444 50.513939,-0.267269 16.83772,-0.08883 19.95639,-2.494781 29.93419,-3.741774 9.9778,-1.246993 27.97447,2.316072 41.96131,3.474504 13.98685,1.158433 11.76013,-2.64e-4 17.63979,0 5.87967,2.65e-4 18.35277,-1.425702 27.52876,-2.138156 9.17599,-0.712454 21.73819,1.425173 32.60687,2.138156"
       transform="translate(-39.021351,0.80180858)" />
  </g>
</svg>
