<?xml version="1.0" encoding="UTF-8" standalone="no"?>
<svg
   xmlns:dc="http://purl.org/dc/elements/1.1/"
   xmlns:cc="http://creativecommons.org/ns#"
   xmlns:rdf="http://www.w3.org/1999/02/22-rdf-syntax-ns#"
   xmlns:svg="http://www.w3.org/2000/svg"
   xmlns="http://www.w3.org/2000/svg"
   xmlns:sodipodi="http://sodipodi.sourceforge.net/DTD/sodipodi-0.dtd"
   xmlns:inkscape="http://www.inkscape.org/namespaces/inkscape"
   width="3.2982965mm"
   height="3.3886583mm"
   viewBox="0 0 3.2982965 3.3886583"
   version="1.1"
   id="svg8"
   sodipodi:docname="long-line.svg"
   inkscape:version="1.0.2 (e86c870879, 2021-01-15)">
  <defs
     id="defs2" />
  <sodipodi:namedview
     id="base"
     pagecolor="#ffffff"
     bordercolor="#666666"
     borderopacity="1.0"
     inkscape:pageopacity="0.0"
     inkscape:pageshadow="2"
     inkscape:zoom="6.0208926"
     inkscape:cx="19.513607"
     inkscape:cy="62.04018"
     inkscape:document-units="mm"
     inkscape:current-layer="layer1"
     inkscape:document-rotation="0"
     showgrid="false"
     inkscape:window-width="1920"
     inkscape:window-height="1043"
     inkscape:window-x="0"
     inkscape:window-y="0"
     inkscape:window-maximized="1"
     fit-margin-top="5"
     fit-margin-left="5"
     fit-margin-right="5"
     fit-margin-bottom="5" />
  <metadata
     id="metadata5">
    <rdf:RDF>
      <cc:Work
         rdf:about="">
        <dc:format>image/svg+xml</dc:format>
        <dc:type
           rdf:resource="http://purl.org/dc/dcmitype/StillImage" />
        <dc:title />
      </cc:Work>
    </rdf:RDF>
  </metadata>
  <g
     inkscape:label="Layer 1"
     inkscape:groupmode="layer"
     id="layer1"
     transform="translate(-64.865547,-36.973226)">
    <g
       id="g1964"
       style="stroke:none"
       transform="translate(37.203085,1.9518409)">
      <path
         style="opacity:1;fill:#0044ab;fill-opacity:1;stroke:none;stroke-width:1.05833px;stroke-linejoin:round;stroke-miterlimit:10;stroke-opacity:1"
         d="m 28.5657,35.0795 c 0,0.2199 0.7226,0.4308 1.3661,0.5862 0.628,0.1493 1.1946,0.2357 0.9843,0.2424 -0.0088,3e-4 -0.0176,0.0236 -0.0264,0.066 -0.2198,0.2136 -0.4307,0.8279 -0.5862,1.3662 -0.1555,0.6544 -0.2428,1.2427 -0.2428,1.0228 v -3e-4 c 2e-4,-0.449 -2.7958,-0.8145 -2.3501,-0.8283 0.0087,-3e-4 0.0174,-0.0236 0.0261,-0.066 0.4579,-0.4628 0.829,-2.8469 0.829,-2.389 z"
         id="path1826" />
    </g>
  </g>
</svg>
