<?xml version="1.0" encoding="UTF-8" standalone="no"?>
<!-- Created with Inkscape (http://www.inkscape.org/) -->

<svg
   xmlns:dc="http://purl.org/dc/elements/1.1/"
   xmlns:cc="http://creativecommons.org/ns#"
   xmlns:rdf="http://www.w3.org/1999/02/22-rdf-syntax-ns#"
   xmlns:svg="http://www.w3.org/2000/svg"
   xmlns="http://www.w3.org/2000/svg"
   xmlns:sodipodi="http://sodipodi.sourceforge.net/DTD/sodipodi-0.dtd"
   xmlns:inkscape="http://www.inkscape.org/namespaces/inkscape"
   id="svg8"
   version="1.1"
   viewBox="0 0 314.32646 1329.7283"
   height="5025.7451"
   width="1188.0055"
   inkscape:version="0.92.4 (5da689c313, 2019-01-14)"
   sodipodi:docname="scrolls.svg">
  <defs
     id="defs2">
    <inkscape:path-effect
       effect="spiro"
       id="path-effect1706"
       is_visible="true" />
    <inkscape:path-effect
       effect="spiro"
       id="path-effect817"
       is_visible="true" />
  </defs>
  <sodipodi:namedview
     id="base"
     pagecolor="#ffffff"
     bordercolor="#666666"
     borderopacity="1.0"
     inkscape:pageopacity="0.0"
     inkscape:pageshadow="2"
     inkscape:zoom="0.0875"
     inkscape:cx="-1837.7805"
     inkscape:cy="2827.2777"
     inkscape:document-units="mm"
     inkscape:current-layer="layer1"
     showgrid="false"
     inkscape:window-width="1920"
     inkscape:window-height="1016"
     inkscape:window-x="0"
     inkscape:window-y="27"
     inkscape:window-maximized="1"
     units="px"
     fit-margin-top="5"
     fit-margin-left="5"
     fit-margin-right="5"
     fit-margin-bottom="5" />
  <metadata
     id="metadata5">
    <rdf:RDF>
      <cc:Work
         rdf:about="">
        <dc:format>image/svg+xml</dc:format>
        <dc:type
           rdf:resource="http://purl.org/dc/dcmitype/StillImage" />
        <dc:title></dc:title>
      </cc:Work>
    </rdf:RDF>
  </metadata>
  <g
     inkscape:label="Layer 1"
     inkscape:groupmode="layer"
     id="layer1"
     transform="translate(56.732813,1017.321)">
    <g
       id="g2297"
       style="stroke:#c8c8c8;stroke-opacity:1">
      <g
         id="g2294"
         style="fill:none;stroke:#c8c8c8;stroke-width:0.26458332px;stroke-linecap:butt;stroke-linejoin:miter;stroke-opacity:1">
        <path
           id="path2068"
           d="m 36.348656,-1005.1367 c 14.675384,-8.7518 32.354033,-12.3558 49.284204,-10.0471 l 46.98463,17.10101 c -16.93017,-2.30871 -34.608819,1.2953 -49.284203,10.0471 z"
           inkscape:connector-curvature="0"
           style="stroke:#c8c8c8;stroke-opacity:1" />
        <path
           id="path2070"
           d="m 85.63286,-1015.1838 c 5.319286,0.7254 10.553485,2.0329 15.59683,3.8685 l 46.98464,17.10101 c -5.04335,-1.83563 -10.27755,-3.14313 -15.59684,-3.8685 z"
           inkscape:connector-curvature="0"
           style="stroke:#c8c8c8;stroke-opacity:1" />
        <path
           id="path2072"
           d="m 101.22969,-1011.3153 c 11.00858,4.0068 21.10783,10.5299 29.19784,19.00757 l 46.98463,17.10101 c -8.09001,-8.47769 -18.18926,-15.00078 -29.19783,-19.00757 z"
           inkscape:connector-curvature="0"
           style="stroke:#c8c8c8;stroke-opacity:1" />
        <path
           id="path2074"
           d="m 130.42753,-992.30773 c 12.44315,13.03943 19.82806,29.97731 29.93419,44.90128 l 46.98463,17.10101 c -10.10613,-14.92397 -17.49104,-31.86185 -29.93419,-44.90128 z"
           inkscape:connector-curvature="0"
           style="stroke:#c8c8c8;stroke-opacity:1" />
        <path
           id="path2076"
           d="m 160.36172,-947.40645 c 8.34441,12.3224 18.6069,23.35335 25.90096,36.32514 l 46.98463,17.10101 c -7.29406,-12.97179 -17.55655,-24.00274 -25.90096,-36.32514 z"
           inkscape:connector-curvature="0"
           style="stroke:#c8c8c8;stroke-opacity:1" />
        <path
           id="path2078"
           d="m 186.26268,-911.08131 c 3.64704,6.48589 6.53299,13.46415 7.83023,20.79115 l 46.98463,17.10101 c -1.29724,-7.327 -4.18319,-14.30526 -7.83023,-20.79115 z"
           inkscape:connector-curvature="0"
           style="stroke:#c8c8c8;stroke-opacity:1" />
        <path
           id="path2080"
           d="m 194.09291,-890.29016 c 1.29724,7.32699 0.95387,15.02833 -1.65885,21.99549 l 46.98463,17.10101 c 2.61272,-6.96716 2.95609,-14.6685 1.65885,-21.99549 z"
           inkscape:connector-curvature="0"
           style="stroke:#c8c8c8;stroke-opacity:1" />
        <path
           id="path2082"
           d="m 192.43406,-868.29467 c -2.52542,6.73437 -7.11452,12.61104 -12.75013,17.07976 l 46.98463,17.10101 c 5.63561,-4.46872 10.22471,-10.34539 12.75013,-17.07976 z"
           inkscape:connector-curvature="0"
           style="stroke:#c8c8c8;stroke-opacity:1" />
        <path
           id="path2084"
           d="m 179.68393,-851.21491 c -5.6356,4.46872 -12.29047,7.56396 -19.22532,9.47117 l 46.98463,17.10101 c 6.93485,-1.90721 13.58972,-5.00245 19.22532,-9.47117 z"
           inkscape:connector-curvature="0"
           style="stroke:#c8c8c8;stroke-opacity:1" />
        <path
           id="path2086"
           d="m 160.45861,-841.74374 c -13.86969,3.81442 -28.57376,2.92467 -42.86002,1.2451 l 46.98463,17.10101 c 14.28626,1.67957 28.99033,2.56932 42.86002,-1.2451 z"
           inkscape:connector-curvature="0"
           style="stroke:#c8c8c8;stroke-opacity:1" />
        <path
           id="path2088"
           d="m 117.59859,-840.49864 c -14.74076,-1.733 -29.486782,-4.27977 -44.318222,-3.7127 l 46.984632,17.10101 c 14.83144,-0.56707 29.57746,1.9797 44.31822,3.7127 z"
           inkscape:connector-curvature="0"
           style="stroke:#c8c8c8;stroke-opacity:1" />
        <path
           id="path2090"
           d="m 73.280368,-844.21134 c -14.83144,0.56707 -30.08193,4.57988 -41.208024,14.40348 l 46.984631,17.10101 c 11.126094,-9.8236 26.376585,-13.83641 41.208025,-14.40348 z"
           inkscape:connector-curvature="0"
           style="stroke:#c8c8c8;stroke-opacity:1" />
        <path
           id="path2092"
           d="m 32.072344,-829.80786 c -8.347483,7.37028 -13.98173,18.02681 -14.320978,29.15724 l 46.984631,17.10101 c 0.339248,-11.13043 5.973495,-21.78696 14.320978,-29.15724 z"
           inkscape:connector-curvature="0"
           style="stroke:#c8c8c8;stroke-opacity:1" />
        <path
           id="path2094"
           d="m 17.751366,-800.65062 c -0.169624,5.56521 0.970782,11.1824 3.423802,16.18071 l 46.984631,17.10101 c -2.45302,-4.99831 -3.593426,-10.6155 -3.423802,-16.18071 z"
           inkscape:connector-curvature="0"
           style="stroke:#c8c8c8;stroke-opacity:1" />
        <path
           id="path2096"
           d="m 21.175168,-784.46991 c 2.453021,4.9983 6.226911,9.36093 10.897176,12.39226 l 46.984631,17.10101 c -4.670265,-3.03133 -8.444155,-7.39396 -10.897176,-12.39226 z"
           inkscape:connector-curvature="0"
           style="stroke:#c8c8c8;stroke-opacity:1" />
        <path
           id="path2098"
           d="m 32.072344,-772.07765 c 1.981588,1.28619 4.093726,2.31648 6.293657,3.11719 l 46.984631,17.10101 c -2.199931,-0.80071 -4.312069,-1.831 -6.293657,-3.11719 z"
           inkscape:connector-curvature="0"
           style="stroke:#c8c8c8;stroke-opacity:1" />
        <path
           id="path2100"
           d="m 38.366001,-768.96046 c 6.824109,2.48377 14.492985,2.75847 21.730485,1.60962 l 46.984634,17.10101 c -7.237503,1.14885 -14.906379,0.87415 -21.730488,-1.60962 z"
           inkscape:connector-curvature="0"
           style="stroke:#c8c8c8;stroke-opacity:1" />
        <path
           id="path2102"
           d="m 60.096486,-767.35084 c 9.570697,-1.51921 18.606802,-5.31467 27.567917,-9.00312 l 46.984627,17.10101 c -8.96111,3.68845 -17.99722,7.48391 -27.56791,9.00312 z"
           inkscape:connector-curvature="0"
           style="stroke:#c8c8c8;stroke-opacity:1" />
        <path
           id="path2104"
           d="m 87.664403,-776.35396 c 10.043544,-4.13399 20.175797,-8.18807 30.754747,-10.64741 l 46.98463,17.10101 c -10.57895,2.45934 -20.7112,6.51342 -30.75475,10.64741 z"
           inkscape:connector-curvature="0"
           style="stroke:#c8c8c8;stroke-opacity:1" />
        <path
           id="path2106"
           d="m 118.41915,-787.00137 c 10.57896,-2.45933 21.69642,-3.28067 32.29654,-0.91423 l 46.98463,17.10101 c -10.60012,-2.36644 -21.71758,-1.5451 -32.29654,0.91423 z"
           inkscape:connector-curvature="0"
           style="stroke:#c8c8c8;stroke-opacity:1" />
        <path
           id="path2108"
           d="m 150.71569,-787.9156 c 2.14526,0.47892 4.26839,1.09714 6.34256,1.85208 l 46.98463,17.10101 c -2.07417,-0.75494 -4.1973,-1.37316 -6.34256,-1.85208 z"
           inkscape:connector-curvature="0"
           style="stroke:#c8c8c8;stroke-opacity:1" />
        <path
           id="path2110"
           d="m 157.05825,-786.06352 c 8.17468,2.97534 15.58904,8.07435 20.60194,15.13963 l 46.98463,17.10101 c -5.0129,-7.06529 -12.42726,-12.16429 -20.60194,-15.13963 z"
           inkscape:connector-curvature="0"
           style="stroke:#c8c8c8;stroke-opacity:1" />
        <path
           id="path2112"
           d="m 177.66019,-770.92389 c 3.14241,4.42898 5.30216,9.57702 6.07497,14.95228 l 46.98463,17.10101 c -0.77281,-5.37526 -2.93256,-10.5233 -6.07497,-14.95228 z"
           inkscape:connector-curvature="0"
           style="stroke:#c8c8c8;stroke-opacity:1" />
        <path
           id="path2114"
           d="m 183.73516,-755.97161 c 0.77281,5.37526 0.13785,10.97081 -1.99188,15.9663 l 46.98463,17.10101 c 2.12973,-4.99549 2.76469,-10.59104 1.99188,-15.9663 z"
           inkscape:connector-curvature="0"
           style="stroke:#c8c8c8;stroke-opacity:1" />
        <path
           id="path2116"
           d="m 181.74328,-740.00531 c -3.13845,7.36155 -9.40431,13.13322 -16.60627,16.62236 l 46.98463,17.10101 c 7.20196,-3.48914 13.46782,-9.26081 16.60627,-16.62236 z"
           inkscape:connector-curvature="0"
           style="stroke:#c8c8c8;stroke-opacity:1" />
        <path
           id="path2118"
           d="m 165.13701,-723.38295 c -7.20196,3.48913 -15.29352,4.83633 -23.29524,4.9576 l 46.98463,17.10101 c 8.00172,-0.12127 16.09328,-1.46847 23.29524,-4.9576 z"
           inkscape:connector-curvature="0"
           style="stroke:#c8c8c8;stroke-opacity:1" />
        <path
           id="path2120"
           d="m 141.84177,-718.42535 c -16.00345,0.24254 -31.75938,-4.23694 -47.762896,-4.4747 l 46.984636,17.10101 c 16.00351,0.23776 31.75944,4.71724 47.76289,4.4747 z"
           inkscape:connector-curvature="0"
           style="stroke:#c8c8c8;stroke-opacity:1" />
        <path
           id="path2122"
           d="m 94.078874,-722.90005 c -11.444884,-0.17004 -22.978879,1.87934 -33.440927,6.5226 l 46.984633,17.10101 c 10.46205,-4.64326 21.99604,-6.69264 33.44093,-6.5226 z"
           inkscape:connector-curvature="0"
           style="stroke:#c8c8c8;stroke-opacity:1" />
        <path
           id="path2124"
           d="m 60.637947,-716.37745 c -10.462048,4.64326 -19.820249,11.92682 -26.427447,21.27344 l 46.984631,17.10101 c 6.607198,-9.34662 15.965399,-16.63018 26.427449,-21.27344 z"
           inkscape:connector-curvature="0"
           style="stroke:#c8c8c8;stroke-opacity:1" />
        <path
           id="path2126"
           d="m 34.2105,-695.10401 c -7.202921,10.18933 -10.9823,22.61687 -11.511567,35.08381 l 46.984631,17.10101 c 0.529267,-12.46694 4.308646,-24.89448 11.511567,-35.08381 z"
           inkscape:connector-curvature="0"
           style="stroke:#c8c8c8;stroke-opacity:1" />
        <path
           id="path2128"
           d="m 22.698933,-660.0202 c -0.529267,12.46693 2.104864,24.96394 6.839589,36.50893 l 46.984631,17.10101 c -4.734725,-11.54499 -7.368856,-24.042 -6.839589,-36.50893 z"
           inkscape:connector-curvature="0"
           style="stroke:#c8c8c8;stroke-opacity:1" />
        <path
           id="path2130"
           d="m 29.538522,-623.51127 c 9.46945,23.09 26.905575,41.9654 45.296944,58.83478 l 46.984634,17.10101 c -18.39137,-16.86938 -35.827497,-35.74478 -45.296947,-58.83478 z"
           inkscape:connector-curvature="0"
           style="stroke:#c8c8c8;stroke-opacity:1" />
        <path
           id="path2132"
           d="m 74.835466,-564.67649 c 26.096374,23.93675 54.776384,44.90209 81.249934,68.42101 l 46.98463,17.10101 c -26.47355,-23.51892 -55.15356,-44.48426 -81.24993,-68.42101 z"
           inkscape:connector-curvature="0"
           style="stroke:#c8c8c8;stroke-opacity:1" />
        <path
           id="path2134"
           d="m 156.0854,-496.25548 c 12.1921,10.83138 23.9781,22.27807 33.49424,35.52228 l 46.98463,17.10101 c -9.51614,-13.24421 -21.30214,-24.6909 -33.49424,-35.52228 z"
           inkscape:connector-curvature="0"
           style="stroke:#c8c8c8;stroke-opacity:1" />
        <path
           id="path2136"
           d="m 189.57964,-460.7332 c 9.51613,13.2442 16.7257,28.43202 18.91189,44.59329 l 46.98463,17.10101 c -2.18619,-16.16127 -9.39576,-31.34909 -18.91189,-44.59329 z"
           inkscape:connector-curvature="0"
           style="stroke:#c8c8c8;stroke-opacity:1" />
        <path
           id="path2138"
           d="m 208.49153,-416.13991 c 2.18619,16.16126 -0.97518,33.3451 -10.46857,46.60563 l 46.98463,17.10101 c 9.49339,-13.26053 12.65476,-30.44437 10.46857,-46.60563 z"
           inkscape:connector-curvature="0"
           style="stroke:#c8c8c8;stroke-opacity:1" />
        <path
           id="path2140"
           d="m 198.02296,-369.53428 c -4.74669,6.63026 -11.01509,12.20136 -18.28004,15.90432 l 46.98463,17.10101 c 7.26495,-3.70296 13.53335,-9.27406 18.28004,-15.90432 z"
           inkscape:connector-curvature="0"
           style="stroke:#c8c8c8;stroke-opacity:1" />
        <path
           id="path2142"
           d="m 179.74292,-353.62996 c -7.26496,3.70296 -15.52531,5.50614 -23.65752,4.90725 l 46.98463,17.10101 c 8.13221,0.59889 16.39256,-1.20429 23.65752,-4.90725 z"
           inkscape:connector-curvature="0"
           style="stroke:#c8c8c8;stroke-opacity:1" />
        <path
           id="path2144"
           d="m 156.0854,-348.72271 c -4.06712,-0.29952 -8.07626,-1.19462 -11.90932,-2.58974 l 46.98463,17.10101 c 3.83306,1.39512 7.8422,2.29022 11.90932,2.58974 z"
           inkscape:connector-curvature="0"
           style="stroke:#c8c8c8;stroke-opacity:1" />
        <path
           id="path2146"
           d="m 144.17608,-351.31245 c -3.16671,-1.15259 -6.21325,-2.64646 -9.07303,-4.42774 l 46.98463,17.10101 c 2.85978,1.78128 5.90632,3.27515 9.07303,4.42774 z"
           inkscape:connector-curvature="0"
           style="stroke:#c8c8c8;stroke-opacity:1" />
        <path
           id="path2148"
           d="m 135.10305,-355.74019 c -6.32133,-3.93739 -11.74003,-9.25561 -16.06332,-15.31955 l 46.98463,17.10101 c 4.32329,6.06394 9.74199,11.38216 16.06332,15.31955 z"
           inkscape:connector-curvature="0"
           style="stroke:#c8c8c8;stroke-opacity:1" />
        <path
           id="path2150"
           d="m 119.03973,-371.05974 c -8.64658,-12.12789 -12.80941,-26.98488 -14.27008,-41.80768 l 46.98463,17.10101 c 1.46067,14.8228 5.6235,29.67979 14.27008,41.80768 z"
           inkscape:connector-curvature="0"
           style="stroke:#c8c8c8;stroke-opacity:1" />
        <path
           id="path2152"
           d="m 104.76965,-412.86742 c -1.16309,-11.80302 -0.71091,-23.69786 -1.00076,-35.55451 l 46.98463,17.10101 c 0.28985,11.85665 -0.16233,23.75149 1.00076,35.55451 z"
           inkscape:connector-curvature="0"
           style="stroke:#c8c8c8;stroke-opacity:1" />
        <path
           id="path2154"
           d="m 103.76889,-448.42193 c -0.28985,-11.85665 -1.3587,-23.85917 -5.413704,-35.00462 l 46.984634,17.10101 c 4.055,11.14545 5.12385,23.14797 5.4137,35.00462 z"
           inkscape:connector-curvature="0"
           style="stroke:#c8c8c8;stroke-opacity:1" />
        <path
           id="path2156"
           d="m 98.355186,-483.42655 c -4.06361,-11.16911 -11.105798,-21.22154 -20.129272,-28.95709 l 46.984636,17.10101 c 9.02347,7.73555 16.06566,17.78798 20.12927,28.95709 z"
           inkscape:connector-curvature="0"
           style="stroke:#c8c8c8;stroke-opacity:1" />
        <path
           id="path2158"
           d="m 78.225914,-512.38364 c -6.597844,-5.65614 -14.240428,-10.07062 -22.408022,-13.04338 l 46.984628,17.10101 c 8.1676,2.97276 15.81018,7.38724 22.40803,13.04338 z"
           inkscape:connector-curvature="0"
           style="stroke:#c8c8c8;stroke-opacity:1" />
        <path
           id="path2160"
           d="m 55.817892,-525.42702 c -3.002733,-1.0929 -6.076426,-1.99095 -9.195253,-2.68419 l 46.984631,17.10101 c 3.118827,0.69324 6.19252,1.59128 9.19525,2.68419 z"
           inkscape:connector-curvature="0"
           style="stroke:#c8c8c8;stroke-opacity:1" />
        <path
           id="path2162"
           d="m 46.622639,-528.11121 c -23.204411,-5.1578 -48.5214885,1.49868 -66.828845,16.66075 l 46.984631,17.10101 C 45.085782,-509.51152 70.402859,-516.168 93.60727,-511.0102 Z"
           inkscape:connector-curvature="0"
           style="stroke:#c8c8c8;stroke-opacity:1" />
        <path
           id="path2164"
           d="m -20.206206,-511.45046 c -18.307356,15.16206 -29.476637,38.33266 -30.93517,62.0586 l 46.984631,17.10101 c 1.458533,-23.72594 12.627814,-46.89654 30.93517,-62.0586 z"
           inkscape:connector-curvature="0"
           style="stroke:#c8c8c8;stroke-opacity:1" />
        <path
           id="path2166"
           d="m -51.141376,-449.39186 c -1.458533,23.72594 6.565709,47.73232 21.207191,66.45863 l 46.984631,17.10101 C 2.408964,-384.55853 -5.615278,-408.56491 -4.156745,-432.29085 Z"
           inkscape:connector-curvature="0"
           style="stroke:#c8c8c8;stroke-opacity:1" />
        <path
           id="path2168"
           d="m -29.934185,-382.93323 c 13.931034,17.81765 33.2292573,30.66894 53.148413,41.382 l 46.984631,17.10101 c -19.919156,-10.71306 -39.217379,-23.56435 -53.148413,-41.382 z"
           inkscape:connector-curvature="0"
           style="stroke:#c8c8c8;stroke-opacity:1" />
        <path
           id="path2170"
           d="m 23.214228,-341.55123 c 19.919156,10.71306 40.816286,19.61803 60.173862,31.31532 l 46.98463,17.10101 c -19.35757,-11.69729 -40.254705,-20.60226 -60.173861,-31.31532 z"
           inkscape:connector-curvature="0"
           style="stroke:#c8c8c8;stroke-opacity:1" />
        <path
           id="path2172"
           d="m 83.38809,-310.23591 c 34.82885,21.04619 64.06519,50.95148 85.52625,85.52624 l 46.98463,17.10101 c -21.46106,-34.57476 -50.6974,-64.48005 -85.52625,-85.52624 z"
           inkscape:connector-curvature="0"
           style="stroke:#c8c8c8;stroke-opacity:1" />
        <path
           id="path2174"
           d="m 168.91434,-224.70967 c 5.20993,8.39344 10.00349,17.12697 13.07476,26.51635 l 46.98463,17.10101 c -3.07127,-9.38938 -7.86483,-18.12291 -13.07476,-26.51635 z"
           inkscape:connector-curvature="0"
           style="stroke:#c8c8c8;stroke-opacity:1" />
        <path
           id="path2176"
           d="m 181.9891,-198.19332 c 3.07128,9.38938 4.36549,19.51259 2.4966,29.21313 l 46.98463,17.10101 c 1.86889,-9.70054 0.57468,-19.82375 -2.4966,-29.21313 z"
           inkscape:connector-curvature="0"
           style="stroke:#c8c8c8;stroke-opacity:1" />
        <path
           id="path2178"
           d="m 184.4857,-168.98019 c -1.86889,9.70054 -7.10562,18.93525 -15.22016,24.56974 l 46.98463,17.10101 c 8.11454,-5.63449 13.35127,-14.8692 15.22016,-24.56974 z"
           inkscape:connector-curvature="0"
           style="stroke:#c8c8c8;stroke-opacity:1" />
        <path
           id="path2180"
           d="m 169.26554,-144.41045 c -4.05726,2.81725 -8.7805,4.70156 -13.68443,5.29296 l 46.98463,17.10101 c 4.90393,-0.5914 9.62717,-2.47571 13.68443,-5.29296 z"
           inkscape:connector-curvature="0"
           style="stroke:#c8c8c8;stroke-opacity:1" />
        <path
           id="path2182"
           d="m 155.58111,-139.11749 c -4.20073,0.5066 -8.52821,0.051 -12.50022,-1.39471 l 46.98463,17.10101 c 3.97201,1.4457 8.29949,1.9013 12.50022,1.39471 z"
           inkscape:connector-curvature="0"
           style="stroke:#c8c8c8;stroke-opacity:1" />
        <path
           id="path2184"
           d="m 143.08089,-140.5122 c -0.66491,-0.242 -1.31986,-0.51175 -1.96258,-0.80938 l 46.98463,17.10101 c 0.64273,0.29762 1.29767,0.56737 1.96258,0.80938 z"
           inkscape:connector-curvature="0"
           style="stroke:#c8c8c8;stroke-opacity:1" />
        <path
           id="path2186"
           d="m 141.11831,-141.32158 c -6.80534,-3.15135 -11.89282,-9.20339 -15.5009,-15.778 l 46.98463,17.10101 c 3.60808,6.57461 8.69556,12.62665 15.5009,15.778 z"
           inkscape:connector-curvature="0"
           style="stroke:#c8c8c8;stroke-opacity:1" />
        <path
           id="path2188"
           d="m 125.61741,-157.09958 c -3.60808,-6.5746 -5.93297,-13.75814 -8.70762,-20.72556 l 46.98463,17.10101 c 2.77465,6.96742 5.09954,14.15096 8.70762,20.72556 z"
           inkscape:connector-curvature="0"
           style="stroke:#c8c8c8;stroke-opacity:1" />
        <path
           id="path2190"
           d="m 116.90979,-177.82514 c -2.77466,-6.96742 -6.1049,-13.88376 -11.31661,-19.2765 l 46.98463,17.10101 c 5.21171,5.39274 8.54195,12.30908 11.31661,19.2765 z"
           inkscape:connector-curvature="0"
           style="stroke:#c8c8c8;stroke-opacity:1" />
        <path
           id="path2192"
           d="m 105.59318,-197.10164 c -2.60586,-2.69638 -5.669548,-4.97928 -9.099997,-6.49352 l 46.984627,17.10101 c 3.43045,1.51424 6.49414,3.79714 9.1,6.49352 z"
           inkscape:connector-curvature="0"
           style="stroke:#c8c8c8;stroke-opacity:1" />
        <path
           id="path2194"
           d="m 96.493183,-203.59516 c -0.488278,-0.21553 -0.984146,-0.41514 -1.486313,-0.59791 l 46.98463,17.10101 c 0.50217,0.18277 0.99804,0.38238 1.48631,0.59791 z"
           inkscape:connector-curvature="0"
           style="stroke:#c8c8c8;stroke-opacity:1" />
        <path
           id="path2196"
           d="m 95.00687,-204.19307 c -3.025856,-1.10132 -6.280364,-1.59156 -9.480623,-1.27319 l 46.984633,17.10101 c 3.20026,-0.31838 6.45476,0.17187 9.48062,1.27319 z"
           inkscape:connector-curvature="0"
           style="stroke:#c8c8c8;stroke-opacity:1" />
        <path
           id="path2198"
           d="m 85.526247,-205.46626 c -4.444146,0.44212 -8.681556,2.44895 -12.00095,5.43685 l 46.984633,17.10101 c 3.31939,-2.9879 7.5568,-4.99473 12.00095,-5.43685 z"
           inkscape:connector-curvature="0"
           style="stroke:#c8c8c8;stroke-opacity:1" />
        <path
           id="path2200"
           d="m 73.525297,-200.02941 c -3.319394,2.9879 -5.733248,6.92494 -7.119638,11.17039 l 46.984631,17.10101 c 1.38639,-4.24545 3.80024,-8.18249 7.11964,-11.17039 z"
           inkscape:connector-curvature="0"
           style="stroke:#c8c8c8;stroke-opacity:1" />
        <path
           id="path2202"
           d="m 66.405659,-188.85902 c -2.77278,8.49089 -1.417684,17.90979 2.015339,26.15588 l 46.984632,17.10101 c -3.43302,-8.24609 -4.78812,-17.66499 -2.01534,-26.15588 z"
           inkscape:connector-curvature="0"
           style="stroke:#c8c8c8;stroke-opacity:1" />
        <path
           id="path2204"
           d="m 68.420998,-162.70314 c 4.106442,9.86364 11.040492,18.36949 19.082188,25.40407 l 46.984634,17.10101 c -8.0417,-7.03458 -14.97575,-15.54043 -19.08219,-25.40407 z"
           inkscape:connector-curvature="0"
           style="stroke:#c8c8c8;stroke-opacity:1" />
        <path
           id="path2206"
           d="m 87.503186,-137.29907 c 8.041696,7.03458 17.193274,12.68231 26.510394,17.9116 l 46.98463,17.10101 c -9.31712,-5.22929 -18.4687,-10.87702 -26.51039,-17.9116 z"
           inkscape:connector-curvature="0"
           style="stroke:#c8c8c8;stroke-opacity:1" />
        <path
           id="path2208"
           d="m 114.01358,-119.38747 c 18.63423,10.45859 38.62759,19.770575 52.7626,35.796124 l 46.98463,17.101007 c -14.13501,-16.025549 -34.12837,-25.337534 -52.7626,-35.796121 z"
           inkscape:connector-curvature="0"
           style="stroke:#c8c8c8;stroke-opacity:1" />
        <path
           id="path2210"
           d="m 166.77618,-83.591346 c 9.64692,10.937187 16.16233,25.152219 15.69305,39.728396 l 46.98463,17.101007 c 0.46928,-14.576177 -6.04613,-28.791209 -15.69305,-39.728396 z"
           inkscape:connector-curvature="0"
           style="stroke:#c8c8c8;stroke-opacity:1" />
        <path
           id="path2212"
           d="m 182.46923,-43.86295 c -0.23464,7.288089 -2.22723,14.552746 -6.0221,20.779321 l 46.98463,17.1010072 c 3.79487,-6.2265752 5.78746,-13.4912322 6.0221,-20.7793212 z"
           inkscape:connector-curvature="0"
           style="stroke:#c8c8c8;stroke-opacity:1" />
        <path
           id="path2214"
           d="m 176.44713,-23.083629 c -3.79487,6.226575 -9.41692,11.377736 -16.08541,14.3277464 l 46.98463,17.1010072 c 6.66849,-2.9500104 12.29054,-8.10117143 16.08541,-14.3277464 z"
           inkscape:connector-curvature="0"
           style="stroke:#c8c8c8;stroke-opacity:1" />
        <path
           id="path2216"
           d="m 160.36172,-8.7558826 c -5.92059,2.6191557 -12.52408,3.4720897 -18.98823,3.114079 l 46.98463,17.1010076 c 6.46415,0.35801 13.06764,-0.494924 18.98823,-3.1140794 z"
           inkscape:connector-curvature="0"
           style="stroke:#c8c8c8;stroke-opacity:1" />
        <path
           id="path2218"
           d="M 141.37349,-5.6418036 C 134.90934,-5.9998144 128.55901,-7.5322884 122.39666,-9.51692 l 46.98463,17.1010072 c 6.16235,1.9846316 12.51268,3.5171058 18.97683,3.8751168 z"
           inkscape:connector-curvature="0"
           style="stroke:#c8c8c8;stroke-opacity:1" />
        <path
           id="path2220"
           d="m 122.39666,-9.51692 c -2.0654,-0.665177 -4.11608,-1.382191 -6.15895,-2.125735 l 46.98463,17.1010071 c 2.04287,0.7435441 4.09355,1.4605583 6.15895,2.1257351 z"
           inkscape:connector-curvature="0"
           style="stroke:#c8c8c8;stroke-opacity:1" />
        <path
           id="path2222"
           d="m 116.23771,-11.642655 c -5.29082,-1.925701 -10.52926,-4.029352 -15.83542,-5.871315 l 46.98463,17.10100753 c 5.30616,1.84196287 10.5446,3.94561397 15.83542,5.87131457 z"
           inkscape:connector-curvature="0"
           style="stroke:#c8c8c8;stroke-opacity:1" />
        <path
           id="path2224"
           d="m 100.40229,-17.51397 c -4.870671,-1.690788 -9.798393,-3.161081 -14.876043,-4.070844 l 46.984633,17.1010072 c 5.07765,0.909763 10.00537,2.3800555 14.87604,4.07084433 z"
           inkscape:connector-curvature="0"
           style="stroke:#c8c8c8;stroke-opacity:1" />
        <path
           id="path2226"
           d="m 85.526247,-21.584814 c -8.615998,-1.543729 -17.616327,-1.405793 -25.9898,1.144397 l 46.984633,17.1010072 c 8.37347,-2.55019 17.3738,-2.688126 25.9898,-1.144397 z"
           inkscape:connector-curvature="0"
           style="stroke:#c8c8c8;stroke-opacity:1" />
        <path
           id="path2228"
           d="m 59.536447,-20.440417 c -8.373473,2.55019 -16.085229,7.604542 -21.177705,14.7238966 L 85.343373,11.384487 C 90.435849,4.2651322 98.147605,-0.78921983 106.52108,-3.3394098 Z"
           inkscape:connector-curvature="0"
           style="stroke:#c8c8c8;stroke-opacity:1" />
        <path
           id="path2230"
           d="M 38.358742,-5.7165204 C 33.266266,1.402834 30.968225,10.626984 32.832681,19.179312 l 46.984631,17.101007 c -1.864456,-8.552328 0.433585,-17.776478 5.526061,-24.895832 z"
           inkscape:connector-curvature="0"
           style="stroke:#c8c8c8;stroke-opacity:1" />
        <path
           id="path2232"
           d="m 32.832681,19.179312 c 0.932228,4.276164 2.877902,8.339307 5.698817,11.685508 L 85.516129,47.965827 C 82.695214,44.619626 80.74954,40.556483 79.817312,36.280319 Z"
           inkscape:connector-curvature="0"
           style="stroke:#c8c8c8;stroke-opacity:1" />
        <path
           id="path2234"
           d="m 38.531498,30.86482 c 2.771856,3.288008 6.39059,5.871035 10.431159,7.341682 L 95.947288,55.307509 C 91.906719,53.836862 88.287985,51.253835 85.516129,47.965827 Z"
           inkscape:connector-curvature="0"
           style="stroke:#c8c8c8;stroke-opacity:1" />
        <path
           id="path2236"
           d="m 48.962657,38.206502 c 0.07151,0.02603 0.14316,0.05171 0.214936,0.07704 l 46.984631,17.101007 c -0.07178,-0.02533 -0.143422,-0.05101 -0.214936,-0.07704 z"
           inkscape:connector-curvature="0"
           style="stroke:#c8c8c8;stroke-opacity:1" />
        <path
           id="path2238"
           d="m 49.177593,38.283541 c 6.312912,2.227832 13.362013,1.67367 19.712944,-0.443348 L 115.87517,54.9412 c -6.35093,2.117018 -13.40003,2.67118 -19.712946,0.443348 z"
           inkscape:connector-curvature="0"
           style="stroke:#c8c8c8;stroke-opacity:1" />
        <path
           id="path2240"
           d="M 68.890537,37.840193 C 75.241469,35.723175 80.994125,32.13284 86.478666,28.294102 L 133.4633,45.395109 c -5.48454,3.838738 -11.2372,7.429073 -17.58813,9.546091 z"
           inkscape:connector-curvature="0"
           style="stroke:#c8c8c8;stroke-opacity:1" />
        <path
           id="path2242"
           d="m 86.478666,28.294102 c 5.484541,-3.838738 10.783635,-7.967374 16.568154,-11.337151 l 46.98463,17.101007 c -5.78452,3.369777 -11.08361,7.498413 -16.56815,11.337151 z"
           inkscape:connector-curvature="0"
           style="stroke:#c8c8c8;stroke-opacity:1" />
        <path
           id="path2244"
           d="m 103.04682,16.956951 c 5.78453,-3.369776 12.15104,-5.98643 18.82808,-6.469423 l 46.98463,17.101007 c -6.67704,0.482993 -13.04355,3.099647 -18.82808,6.469423 z"
           inkscape:connector-curvature="0"
           style="stroke:#c8c8c8;stroke-opacity:1" />
        <path
           id="path2246"
           d="m 121.8749,10.487528 c 4.79559,-0.346897 9.60676,0.439468 14.13048,2.085969 l 46.98463,17.101007 c -4.52372,-1.646501 -9.33488,-2.432865 -14.13048,-2.085969 z"
           inkscape:connector-curvature="0"
           style="stroke:#c8c8c8;stroke-opacity:1" />
        <path
           id="path2248"
           d="m 136.00538,12.573497 c 3.45263,1.256653 6.73782,3.014349 9.72086,5.15166 l 46.98463,17.101007 c -2.98304,-2.13731 -6.26823,-3.895007 -9.72086,-5.15166 z"
           inkscape:connector-curvature="0"
           style="stroke:#c8c8c8;stroke-opacity:1" />
        <path
           id="path2250"
           d="m 145.72624,17.725157 c 6.8915,4.937672 12.25086,11.799276 16.25332,19.272808 l 46.98463,17.101007 C 204.96173,46.62544 199.60237,39.763836 192.71087,34.826164 Z"
           inkscape:connector-curvature="0"
           style="stroke:#c8c8c8;stroke-opacity:1" />
        <path
           id="path2252"
           d="m 161.97956,36.997965 c 8.00493,14.947064 10.69752,32.060013 15.4874,48.325026 L 224.45159,102.424 c -4.78988,-16.265015 -7.48247,-33.377964 -15.4874,-48.325028 z"
           inkscape:connector-curvature="0"
           style="stroke:#c8c8c8;stroke-opacity:1" />
        <path
           id="path2254"
           d="m 177.46696,85.322991 c 6.84767,23.252679 18.25921,45.886619 17.78099,70.121909 l 46.98463,17.10101 C 242.7108,148.31062 231.29926,125.67668 224.45159,102.424 Z"
           inkscape:connector-curvature="0"
           style="stroke:#c8c8c8;stroke-opacity:1" />
        <path
           id="path2256"
           d="m 195.24795,155.4449 c -0.2391,12.11764 -3.70629,24.4541 -11.41592,33.80589 l 46.98463,17.10101 c 7.70963,-9.35179 11.17682,-21.68825 11.41592,-33.80589 z"
           inkscape:connector-curvature="0"
           style="stroke:#c8c8c8;stroke-opacity:1" />
        <path
           id="path2258"
           d="m 183.83203,189.25079 c -3.85482,4.6759 -8.7317,8.54116 -14.27159,10.99741 l 46.98463,17.10101 c 5.53989,-2.45625 10.41677,-6.32151 14.27159,-10.99741 z"
           inkscape:connector-curvature="0"
           style="stroke:#c8c8c8;stroke-opacity:1" />
        <path
           id="path2260"
           d="m 169.56044,200.2482 c -5.5399,2.45625 -11.74471,3.47578 -17.75135,2.67338 l 46.98463,17.10101 c 6.00664,0.8024 12.21145,-0.21713 17.75135,-2.67338 z"
           inkscape:connector-curvature="0"
           style="stroke:#c8c8c8;stroke-opacity:1" />
        <path
           id="path2262"
           d="m 151.80909,202.92158 c -2.29308,-0.30632 -4.52964,-0.87324 -6.69013,-1.65959 l 46.98463,17.101 c 2.16049,0.78636 4.39705,1.35328 6.69013,1.6596 z"
           inkscape:connector-curvature="0"
           style="stroke:#c8c8c8;stroke-opacity:1" />
        <path
           id="path2264"
           d="m 145.11896,201.26199 c -6.25139,-2.27532 -11.86584,-6.38781 -16.36959,-11.34015 l 46.98463,17.10101 c 4.50375,4.95233 10.1182,9.06482 16.36959,11.34014 z"
           inkscape:connector-curvature="0"
           style="stroke:#c8c8c8;stroke-opacity:1" />
        <path
           id="path2266"
           d="m 128.74937,189.92184 c -6.06026,-6.66387 -10.29222,-14.78336 -13.8113,-23.07492 l 46.98463,17.10101 c 3.51908,8.29156 7.75104,16.41105 13.8113,23.07492 z"
           inkscape:connector-curvature="0"
           style="stroke:#c8c8c8;stroke-opacity:1" />
        <path
           id="path2268"
           d="m 114.93807,166.84692 c -3.51908,-8.29156 -6.39443,-16.85208 -10.13416,-25.04648 l 46.98463,17.10101 c 3.73973,8.1944 6.61508,16.75492 10.13416,25.04648 z"
           inkscape:connector-curvature="0"
           style="stroke:#c8c8c8;stroke-opacity:1" />
        <path
           id="path2270"
           d="m 104.80391,141.80044 c -3.73973,-8.19441 -8.426095,-16.11067 -15.001351,-22.26696 l 46.984631,17.10101 c 6.57526,6.15629 11.26162,14.07255 15.00135,22.26696 z"
           inkscape:connector-curvature="0"
           style="stroke:#c8c8c8;stroke-opacity:1" />
        <path
           id="path2272"
           d="m 89.802559,119.53348 c -5.545795,-5.19243 -12.245317,-8.94029 -19.408271,-11.54739 l 46.984632,17.10101 c 7.16295,2.6071 13.86247,6.35496 19.40827,11.54739 z"
           inkscape:connector-curvature="0"
           style="stroke:#c8c8c8;stroke-opacity:1" />
        <path
           id="path2274"
           d="m 70.394288,107.98609 c -4.112157,-1.4967 -8.377049,-2.61744 -12.664071,-3.41969 l 46.984633,17.10101 c 4.28702,0.80225 8.55191,1.92298 12.66407,3.41969 z"
           inkscape:connector-curvature="0"
           style="stroke:#c8c8c8;stroke-opacity:1" />
        <path
           id="path2276"
           d="M 57.730217,104.5664 C 41.02563,101.44039 23.489346,102.88234 7.5197577,108.69503 l 46.9846313,17.10101 c 15.969588,-5.81269 33.505872,-7.25464 50.210461,-4.12863 z"
           inkscape:connector-curvature="0"
           style="stroke:#c8c8c8;stroke-opacity:1" />
        <path
           id="path2278"
           d="m 7.5197577,108.69503 c -15.969588,5.8127 -30.3297557,15.98059 -41.1164987,29.11305 l 46.984631,17.10101 c 10.786743,-13.13246 25.146911,-23.30035 41.116499,-29.11305 z"
           inkscape:connector-curvature="0"
           style="stroke:#c8c8c8;stroke-opacity:1" />
        <path
           id="path2280"
           d="m -33.596741,137.80808 c -10.786743,13.13245 -17.971203,29.19433 -20.57078,45.9889 l 46.984631,17.10101 c 2.599577,-16.79457 9.784037,-32.85645 20.57078,-45.9889 z"
           inkscape:connector-curvature="0"
           style="stroke:#c8c8c8;stroke-opacity:1" />
        <path
           id="path2282"
           d="m -54.167521,183.79698 c -2.599577,16.79456 -0.607316,34.27688 5.704306,50.05593 l 46.984631,17.10101 C -7.790206,235.17487 -9.782467,217.69255 -7.18289,200.89799 Z"
           inkscape:connector-curvature="0"
           style="stroke:#c8c8c8;stroke-opacity:1" />
        <path
           id="path2284"
           d="m -48.463215,233.85291 c 6.311623,15.77906 16.925721,29.81264 30.390631,40.18141 l 46.984631,17.10101 C 15.447137,280.76656 4.833039,266.73298 -1.478584,250.95392 Z"
           inkscape:connector-curvature="0"
           style="stroke:#c8c8c8;stroke-opacity:1" />
        <path
           id="path2286"
           d="m -18.072584,274.03432 c 7.755542,5.97222 16.4449031,10.71942 25.642628,14.06712 l 46.984631,17.101 C 45.35695,301.85475 36.667589,297.10755 28.912047,291.13533 Z"
           inkscape:connector-curvature="0"
           style="stroke:#c8c8c8;stroke-opacity:1" />
        <path
           id="path2288"
           d="m 7.570044,288.10144 c 6.771056,2.46446 13.817615,4.17048 20.969937,5.04844 l 46.984631,17.10101 c -7.152322,-0.87797 -14.198881,-2.58398 -20.969937,-5.04845 z"
           inkscape:connector-curvature="0"
           style="stroke:#c8c8c8;stroke-opacity:1" />
        <path
           id="path2290"
           d="m 28.539981,293.14988 c 16.867955,2.07057 34.279037,-0.47003 49.851978,-7.27435 l 46.984631,17.10101 c -15.57294,6.80432 -32.984023,9.34492 -49.851978,7.27435 z"
           inkscape:connector-curvature="0"
           style="stroke:#c8c8c8;stroke-opacity:1" />
        <path
           id="path2292"
           d="M 78.391959,285.87553 C 93.9649,279.07122 107.65804,268.0214 117.59859,254.23733 l 46.98463,17.10101 c -9.94055,13.78407 -23.63369,24.83389 -39.20663,31.6382 z"
           inkscape:connector-curvature="0"
           style="stroke:#c8c8c8;stroke-opacity:1" />
      </g>
      <path
         inkscape:original-d="m 36.348656,-1005.1367 c 31.359888,4.2761 62.719513,8.55239 94.078874,12.82897 31.35936,4.27657 19.95639,29.93392 29.93419,44.90128 9.97779,14.96736 21.38182,52.74092 32.07234,79.11178 10.69051,26.37085 -49.89005,18.53042 -74.83547,27.79603 -24.945418,9.26561 -57.017233,7.12692 -85.526246,10.69078 -28.5090148,3.56386 2.65e-4,38.48654 0,57.73021 -2.64e-4,19.24367 37.061637,-2.85114 55.592059,-4.27631 18.530427,-1.42517 62.719517,24.23216 94.078877,36.34865 31.35935,12.11649 -58.44268,11.40325 -87.664406,17.10526 -29.221734,5.70201 -39.911986,18.53041 -59.868374,27.79604 -19.95639,9.2656 27.083575,86.95142 40.624966,130.42752 13.541391,43.47609 54.166884,45.61374 81.249934,68.42101 27.08305,22.80724 2.7e-4,98.35491 0,147.53277 -2.6e-4,49.17784 -34.21023,-42.76341 -51.31575,-64.14471 -17.105512,-21.38129 -4.27604,-47.03969 -6.414464,-70.55913 -2.138421,-23.51948 -85.525984,66.99528 -128.289371,100.49332 -42.76339,33.49805 75.548449,48.46463 113.322275,72.69732 37.77383,24.23271 57.01776,57.01723 85.52625,85.52624 28.50848,28.50901 -18.53042,55.59182 -27.79603,83.38809 -9.26561,27.79631 -37.06111,-42.76338 -55.592063,-64.14468 -18.530951,-21.3813 -11.403235,28.50848 -17.105249,42.76312 -5.702014,14.25464 65.570392,52.74093 98.355182,79.111794 32.7848,26.370862 -4.27604,49.890044 -6.41446,74.8354634 C 158.22329,16.189536 110.47167,-17.308777 85.526247,-21.584814 60.580828,-25.860877 61.294075,18.327158 49.177593,38.283541 37.06111,58.23995 97.642732,19.752601 121.8749,10.487528 146.10707,1.2224544 158.93654,60.377572 177.46696,85.322991 195.99739,110.26841 160.36198,163.72178 151.80909,202.92158 143.2562,242.12137 110.47167,147.32926 89.802559,119.53348 69.133452,91.737708 68.421262,109.55515 57.730217,104.5664 47.039172,99.57763 97.642732,204.34675 117.59859,254.23733"
         inkscape:path-effect="#path-effect1706"
         inkscape:connector-curvature="0"
         id="path1704"
         d="m 36.348656,-1005.1367 c 14.675384,-8.7518 32.354033,-12.3558 49.284204,-10.0471 16.93017,2.3087 32.99839,10.5145 44.79467,22.87607 12.44315,13.03943 19.82806,29.97731 29.93419,44.90128 8.34441,12.3224 18.6069,23.35335 25.90096,36.32514 3.64704,6.48589 6.53299,13.46415 7.83023,20.79115 1.29724,7.32699 0.95387,15.02833 -1.65885,21.99549 -2.52542,6.73437 -7.11452,12.61104 -12.75013,17.07976 -5.6356,4.46872 -12.29047,7.56396 -19.22532,9.47117 -13.86969,3.81442 -28.57376,2.92467 -42.86002,1.2451 -14.74076,-1.733 -29.486782,-4.27977 -44.318222,-3.7127 -14.83144,0.56707 -30.08193,4.57988 -41.208024,14.40348 -8.347483,7.37028 -13.98173,18.02681 -14.320978,29.15724 -0.169624,5.56521 0.970782,11.1824 3.423802,16.18071 2.453021,4.9983 6.226911,9.36093 10.897176,12.39226 8.128407,5.27591 18.453444,6.24602 28.024142,4.72681 9.570697,-1.51921 18.606802,-5.31467 27.567917,-9.00312 10.043544,-4.13399 20.175797,-8.18807 30.754747,-10.64741 10.57896,-2.45933 21.69642,-3.28067 32.29654,-0.91423 10.60012,2.36645 20.65967,8.13374 26.9445,16.99171 3.14241,4.42898 5.30216,9.57702 6.07497,14.95228 0.77281,5.37526 0.13785,10.97081 -1.99188,15.9663 -3.13845,7.36155 -9.40431,13.13322 -16.60627,16.62236 -7.20196,3.48913 -15.29352,4.83633 -23.29524,4.9576 -16.00345,0.24254 -31.75938,-4.23694 -47.762896,-4.4747 -11.444884,-0.17004 -22.978879,1.87934 -33.440927,6.5226 -10.462048,4.64326 -19.820249,11.92682 -26.427447,21.27344 -7.202921,10.18933 -10.9823,22.61687 -11.511567,35.08381 -0.529267,12.46693 2.104864,24.96394 6.839589,36.50893 9.46945,23.09 26.905575,41.9654 45.296944,58.83478 26.096374,23.93675 54.776384,44.90209 81.249934,68.42101 12.1921,10.83138 23.9781,22.27807 33.49424,35.52228 9.51613,13.2442 16.7257,28.43202 18.91189,44.59329 2.18619,16.16126 -0.97518,33.3451 -10.46857,46.60563 -4.74669,6.63026 -11.01509,12.20136 -18.28004,15.90432 -7.26496,3.70296 -15.52531,5.50614 -23.65752,4.90725 -7.42719,-0.54697 -14.66102,-3.08009 -20.98235,-7.01748 -6.32133,-3.93739 -11.74003,-9.25561 -16.06332,-15.31955 -8.64658,-12.12789 -12.80941,-26.98488 -14.27008,-41.80768 -1.16309,-11.80302 -0.71091,-23.69786 -1.00076,-35.55451 -0.28985,-11.85665 -1.3587,-23.85917 -5.413704,-35.00462 -4.06361,-11.16911 -11.105798,-21.22154 -20.129272,-28.95709 -9.023474,-7.73556 -20.001069,-13.14867 -31.603275,-15.72757 -23.204411,-5.1578 -48.5214885,1.49868 -66.828845,16.66075 -18.307356,15.16206 -29.476637,38.33266 -30.93517,62.0586 -1.458533,23.72594 6.565709,47.73232 21.207191,66.45863 13.931034,17.81765 33.2292573,30.66894 53.148413,41.382 19.919156,10.71306 40.816286,19.61803 60.173862,31.31532 34.82885,21.04619 64.06519,50.95148 85.52625,85.52624 5.20993,8.39344 10.00349,17.12697 13.07476,26.51635 3.07128,9.38938 4.36549,19.51259 2.4966,29.21313 -1.86889,9.70054 -7.10562,18.93525 -15.22016,24.56974 -4.05726,2.81725 -8.7805,4.70156 -13.68443,5.29296 -4.90393,0.5914 -9.98058,-0.12851 -14.4628,-2.20409 -6.80534,-3.15135 -11.89282,-9.20339 -15.5009,-15.778 -3.60808,-6.5746 -5.93297,-13.75814 -8.70762,-20.72556 -2.77466,-6.96742 -6.1049,-13.88376 -11.31661,-19.2765 -2.60586,-2.69638 -5.669548,-4.97928 -9.099997,-6.49352 -3.43045,-1.51424 -7.235567,-2.24231 -10.966936,-1.8711 -4.444146,0.44212 -8.681556,2.44895 -12.00095,5.43685 -3.319394,2.9879 -5.733248,6.92494 -7.119638,11.17039 -2.77278,8.49089 -1.417684,17.90979 2.015339,26.15588 4.106442,9.86364 11.040492,18.36949 19.082188,25.40407 8.041696,7.03458 17.193274,12.68231 26.510394,17.9116 18.63423,10.45859 38.62759,19.770575 52.7626,35.796124 9.64692,10.937187 16.16233,25.152219 15.69305,39.728396 -0.23464,7.288089 -2.22723,14.552746 -6.0221,20.779321 -3.79487,6.226575 -9.41692,11.377736 -16.08541,14.3277464 -5.92059,2.6191557 -12.52408,3.4720897 -18.98823,3.114079 -6.46415,-0.3580108 -12.81448,-1.8904848 -18.97683,-3.8751164 -12.32471,-3.969263 -24.12526,-9.784344 -36.870413,-12.067894 -8.615998,-1.543729 -17.616327,-1.405793 -25.9898,1.144397 -8.373473,2.55019 -16.085229,7.604542 -21.177705,14.7238966 -5.092476,7.1193544 -7.390517,16.3435044 -5.526061,24.8958324 0.932228,4.276164 2.877902,8.339307 5.698817,11.685508 2.820915,3.346202 6.518951,5.962248 10.646095,7.418721 6.312912,2.227832 13.362013,1.67367 19.712944,-0.443348 6.350932,-2.117018 12.103588,-5.707353 17.588129,-9.546091 5.484541,-3.838738 10.783635,-7.967374 16.568154,-11.337151 5.78453,-3.369776 12.15104,-5.98643 18.82808,-6.469423 8.45572,-0.6116574 16.95984,2.299957 23.85134,7.237629 6.8915,4.937672 12.25086,11.799276 16.25332,19.272808 8.00493,14.947064 10.69752,32.060013 15.4874,48.325026 6.84767,23.252679 18.25921,45.886619 17.78099,70.121909 -0.2391,12.11764 -3.70629,24.4541 -11.41592,33.80589 -3.85482,4.6759 -8.7317,8.54116 -14.27159,10.99741 -5.5399,2.45625 -11.74471,3.47578 -17.75135,2.67338 -8.92813,-1.19266 -16.99947,-6.33587 -23.05972,-12.99974 -6.06026,-6.66387 -10.29222,-14.78336 -13.8113,-23.07492 -3.51908,-8.29156 -6.39443,-16.85208 -10.13416,-25.04648 -3.73973,-8.19441 -8.426095,-16.11067 -15.001351,-22.26696 -8.729563,-8.17333 -20.317771,-12.76739 -32.072342,-14.96708 -16.704587,-3.12601 -34.240871,-1.68406 -50.2104593,4.12863 -15.969588,5.8127 -30.3297557,15.98059 -41.1164987,29.11305 -10.786743,13.13245 -17.971203,29.19433 -20.57078,45.9889 -2.599577,16.79456 -0.607316,34.27688 5.704306,50.05593 6.311623,15.77906 16.925721,29.81264 30.390631,40.18141 13.4649107,10.36877 29.74461,17.04498 46.612565,19.11556 16.867955,2.07057 34.279037,-0.47003 49.851978,-7.27435 15.572941,-6.80431 29.266081,-17.85413 39.206631,-31.6382"
         style="fill:none;stroke:#c8c8c8;stroke-width:0.26458332px;stroke-linecap:butt;stroke-linejoin:miter;stroke-opacity:1" />
    </g>
  </g>
</svg>
