<?xml version="1.0" encoding="UTF-8" standalone="no"?>
<!-- Created with Inkscape (http://www.inkscape.org/) -->

<svg
   xmlns:dc="http://purl.org/dc/elements/1.1/"
   xmlns:cc="http://creativecommons.org/ns#"
   xmlns:rdf="http://www.w3.org/1999/02/22-rdf-syntax-ns#"
   xmlns:svg="http://www.w3.org/2000/svg"
   xmlns="http://www.w3.org/2000/svg"
   xmlns:sodipodi="http://sodipodi.sourceforge.net/DTD/sodipodi-0.dtd"
   xmlns:inkscape="http://www.inkscape.org/namespaces/inkscape"
   width="346.36575mm"
   height="48.134705mm"
   viewBox="0 0 346.36575 48.134705"
   version="1.1"
   id="svg8"
   inkscape:version="0.92.4 (5da689c313, 2019-01-14)"
   sodipodi:docname="welcome.svg">
  <defs
     id="defs2" />
  <sodipodi:namedview
     id="base"
     pagecolor="#ffffff"
     bordercolor="#666666"
     borderopacity="1.0"
     inkscape:pageopacity="0.0"
     inkscape:pageshadow="2"
     inkscape:zoom="0.35"
     inkscape:cx="30.897638"
     inkscape:cy="-288.12788"
     inkscape:document-units="mm"
     inkscape:current-layer="layer1"
     showgrid="false"
     inkscape:window-width="1920"
     inkscape:window-height="1016"
     inkscape:window-x="0"
     inkscape:window-y="27"
     inkscape:window-maximized="1"
     fit-margin-top="5"
     fit-margin-left="5"
     fit-margin-right="5"
     fit-margin-bottom="5" />
  <metadata
     id="metadata5">
    <rdf:RDF>
      <cc:Work
         rdf:about="">
        <dc:format>image/svg+xml</dc:format>
        <dc:type
           rdf:resource="http://purl.org/dc/dcmitype/StillImage" />
        <dc:title></dc:title>
      </cc:Work>
    </rdf:RDF>
  </metadata>
  <g
     inkscape:label="Layer 1"
     inkscape:groupmode="layer"
     id="layer1"
     transform="translate(53.532143,2.7494907)">
    <path
       id="path818"
       d="m -44.416402,28.72619 8.437268,-26.4583329 h 4.527315 L -23.01455,28.72619 h -5.526852 L -34.77381,9.5585979 -40.976819,28.72619 Z M -47.47381,27.667857 V 4.3845238 h 5.291667 V 28.723721 l 1.202884,-2.2e-5 -0.331582,1.060825 h -7.221302 V 28.72619 c 0.593787,0 1.056969,-0.529654 1.058333,-1.058333 z m 22.225,-1.175926 V 4.3845238 h 5.291667 V 27.667857 c -0.03547,0.616267 0.644408,1.095135 1.175926,1.058333 v 1.058334 h -9.428999 l -0.331186,-1.058334 h 2.116667 V 26.491931 Z M -48.532143,3.3018012 V 2.2678571 h 7.408333 v 1.0583334 c -0.571009,0.013943 -1.040321,0.4652057 -1.058333,1.0583333 h -5.291667 c 0.01055,-0.5628458 -0.448878,-1.0728736 -1.058333,-1.0827226 z m 29.633333,0 c -0.609454,0.00985 -1.06888,0.5198768 -1.058333,1.0827226 H -25.24881 C -25.266822,3.7913962 -25.736134,3.340134 -26.307143,3.3261905 V 2.2678571 h 7.408333 z m 7.202701,26.4152388 c -1.45949,-0.152414 -2.957129,-0.658497 -4.067313,-1.374429 -1.171303,-0.738655 -2.076061,-1.908678 -2.076061,-3.320587 -0.04261,-1.422497 0.950068,-2.592972 2.095845,-3.334171 0.458048,-0.29631 1.356347,-0.733189 1.736597,-0.844577 0.08795,-0.02576 0.166589,-0.07647 0.249884,-0.114701 -0.320973,-0.183806 -0.668562,-0.340607 -0.99125,-0.533301 -1.114493,-0.697536 -2.030862,-1.757076 -2.030862,-3.11075 -0.06555,-2.220447 2.370288,-3.436856 4.227436,-3.989859 0.557871,-0.128468 1.417714,-0.242182 1.837385,-0.242992 l 0.249884,-4.83e-4 v 1.058334 h -0.193434 c -1.664902,0.08359 -2.981566,1.532882 -2.981566,3.175 -0.02225,1.650822 1.333495,3.079334 2.981566,3.175 0.06448,0 0.128956,0 0.193434,0 v 1.032306 l -0.417331,0.06571 c -1.276361,0.176661 -2.175642,1.22641 -2.564768,2.39912 -0.242842,0.792095 -0.262452,1.739771 0,2.53072 0.199998,0.792982 0.688281,1.418774 1.298193,1.913687 0.472165,0.383138 1.081729,0.462694 1.683906,0.551146 v 1.032307 l -0.367477,-0.0078 c -0.202112,-0.0043 -0.590943,-0.03115 -0.864068,-0.05967 z m 5.4057016,-12.684175 c -1.0496086,-0.397754 -1.1805397,-1.37285 -0.5987633,-2.230143 -1.1171067,-0.547278 -2.3270862,-0.891648 -3.5753933,-0.893198 v -1.07569 c 1.971408,0.05513 3.8888793,0.704249 5.4002822,1.978104 0.5197328,0.438046 0.5228372,1.327509 0.046197,1.852035 -0.274975,0.3026 -0.9167612,0.503633 -1.2723226,0.368892 z M -10.464564,28.74241 c 3.2366455,-0.230446 4.9376118,-2.202663 5.3098629,-5.307886 h 1.040137 v 5.291666 h -1.0449812 c -0.045421,-0.351036 -0.1076102,-0.742447 -0.4530966,-0.916288 -0.1576241,-0.03956 -0.151173,-0.04371 -0.8816693,0.566392 -1.1312443,0.952787 -2.5308525,1.312574 -3.9702528,1.425578 z M 2.8335362,25.55119 h -4.2333334 v -8.466666 h 4.2333334 z m 1.0583333,3.19939 v 1.033944 h -6.35 V 28.75058 c 0.390087,-0.104333 0.770158,-0.230776 0.9468362,-0.637129 0.09071,-0.20863 0.1090906,-0.397949 0.110206,-1.401034 l 0.00129,-1.161227 h 4.2333334 l 0.00129,1.161227 c 0.00112,1.003085 0.00497,1.199525 0.1102061,1.401034 0.1994246,0.38188 0.5329049,0.557049 0.9468361,0.637129 z M 2.8335362,8.6178571 V 17.084524 H -1.3997972 V 8.6178571 Z m -7.4083334,-6.35 c 3.62058307,0.010169 7.3955381,2.5942708 7.4083334,6.35 h -4.2333334 c -0.00235,-2.092196 -0.7683117,-5.2945329 -3.175,-5.2916666 z m 0,1.0421138 C -7.8114427,3.5404165 -9.512409,5.5126342 -9.8846601,8.6178571 H -10.924797 V 3.3261905 h 1.0449811 c 0.045421,0.3510362 0.1076102,0.7424473 0.4530966,0.9162885 0.1576241,0.039561 0.1511729,0.043705 0.8816693,-0.5663918 1.1312443,-0.9527869 2.5308525,-1.3125738 3.9702528,-1.4255779 z M 4.9506969,21.258812 C 4.9043613,17.121892 7.984604,12.85119 12.335248,12.85119 v 1.030506 c -2.218897,0.02515 -3.1512889,5.046991 -3.1456016,7.436161 0.00569,2.38917 0.9601956,7.45563 3.1456016,7.436162 v 1.030505 C 7.836943,29.746759 4.9970319,25.395731 4.9506969,21.258812 Z m 11.5587081,4.344037 c 0.355561,-0.134741 0.997347,0.06629 1.272322,0.368893 0.476641,0.524525 0.473536,1.413989 -0.0462,1.852035 -1.511403,1.273854 -3.428875,1.922972 -5.400283,1.978103 v -1.07569 c 1.248307,-0.0015 2.458287,-0.34592 3.575394,-0.893198 -0.581777,-0.857293 -0.450846,-1.832389 0.598763,-2.230143 z M 12.335248,13.893304 v -1.059461 c 1.439401,0.113004 2.839009,0.472791 3.970253,1.425578 0.730496,0.610096 0.724045,0.605952 0.881669,0.566391 0.345487,-0.173841 0.407676,-0.565252 0.453097,-0.916288 h 1.044981 V 19.20119 H 17.645111 C 17.27286,16.095968 15.571894,14.12375 12.335248,13.893304 Z m 8.206452,7.365508 c -0.04634,-4.13692 3.033907,-8.407622 7.384551,-8.407622 v 1.030506 c -2.218897,0.02515 -3.151289,5.046991 -3.145602,7.436161 0.0057,2.38917 0.960195,7.45563 3.145602,7.436162 v 1.030505 C 23.427946,29.746759 20.588035,25.395731 20.5417,21.258812 Z m 14.769102,0 c -0.04633,4.136919 -2.886246,8.487947 -7.384551,8.525712 v -1.030505 c 2.185407,0.01947 3.139916,-5.046992 3.145602,-7.436162 0.0057,-2.38917 -0.926705,-7.411007 -3.145602,-7.436161 V 12.85119 c 4.350644,0 7.430887,4.270702 7.384551,8.407622 z m 2.117161,-4.174288 h 4.233333 v 8.466666 h -4.233333 z m 0,-2.045491 C 37.426233,14.376948 36.96303,14.057224 36.36963,13.885135 V 12.85119 h 5.291666 v 0.69976 c 0.975732,-0.562747 2.075279,-0.66264 3.175,-0.717062 v 1.054553 c -1.79644,0.20174 -2.931862,1.454035 -3.196083,3.196083 h -4.21225 z m 10.591431,3.749469 C 48.062744,16.899281 47.042763,13.96 44.836296,13.89354 v -1.04235 c 2.539848,0.02354 4.826079,0.751117 6.362484,2.817267 1.006489,-1.416181 2.04047,-2.810439 4.22085,-2.817267 v 1.043184 c -1.86296,-0.0044 -3.171395,2.878257 -3.175,4.994777 v 6.662039 h -4.225236 z m 10.529486,0.400295 c -0.0037,-2.015598 -0.812241,-5.286175 -3.12925,-5.295257 v -1.057978 c 4.014742,0.0049 7.376257,1.490165 7.376257,5.39549 l 0.03708,7.320138 h -4.230239 z m 4.279083,9.537393 h 1.058333 v 1.058334 H 56.477963 V 28.72619 h 2.116667 v -3.175 h 4.233333 z m 0,5.291667 H 58.59463 v -4.233333 h 4.233333 z m 1.058333,3.199389 v 1.033944 h -6.35 v -1.033944 c 0.390087,-0.104332 0.770158,-0.230776 0.946837,-0.637129 0.09071,-0.208629 0.10909,-0.397948 0.110206,-1.401033 l 0.0013,-1.161227 h 4.233333 l 0.0013,1.161227 c 0.0011,1.003085 0.005,1.199525 0.110206,1.401033 0.199425,0.381881 0.532905,0.557049 0.946836,0.637129 z M 46.948887,27.680153 v -1.04515 c 0.576018,-0.03088 1.064868,-0.541046 1.062409,-1.083813 h 4.233334 v 4.230557 z M 42.654278,26.02896 c 2.789432,1.346776 4.385052,3.811843 4.416278,6.930564 0.03122,3.118721 -1.837343,5.910458 -4.770223,7.0657 -0.886431,0.349159 -1.816956,0.353717 -2.795685,0.342633 v -1.058333 c 2.620698,-0.0045 3.018827,-3.883234 3.007757,-6.35 -0.01107,-2.466766 -0.49974,-6.110804 -3.841715,-6.232067 -0.521332,-0.01892 -0.643042,-0.01927 -0.843612,-0.132 -0.442132,-0.255292 -0.399115,-0.582997 -0.399115,-1.044267 h 4.233333 c 0.171612,0.308832 0.688188,0.330611 0.992982,0.47777 z m -7.283805,10.157223 c 1.049609,0.397753 1.18054,1.37285 0.598763,2.230143 1.117107,0.547277 2.327087,0.891647 3.575394,0.893198 v 1.07569 c -1.971408,-0.05513 -3.88888,-0.704249 -5.400282,-1.978104 -0.519733,-0.438046 -0.522838,-1.327509 -0.0462,-1.852035 0.274975,-0.3026 0.916761,-0.503633 1.272322,-0.368892 z m 29.55754,-14.927371 c -0.04634,-4.13692 3.033907,-8.407622 7.384552,-8.407622 v 1.030506 c -2.218897,0.02515 -3.15129,5.046991 -3.145602,7.436161 0.0057,2.38917 0.960195,7.45563 3.145602,7.436162 v 1.030505 c -4.498306,-0.03777 -7.338217,-4.388793 -7.384552,-8.525712 z m 4.209552,-0.999288 h 6.326387 c -0.222289,-2.169381 -0.63951,-5.782043 -3.151387,-6.377828 V 12.85119 c 4.721299,0.06514 7.131325,4.185862 7.425143,8.466667 H 69.137565 Z m 7.349156,5.343325 c 0.355561,-0.134741 0.997348,0.06629 1.272323,0.368893 0.47664,0.524525 0.473536,1.413989 -0.0462,1.852035 -1.511403,1.273854 -3.428874,1.922972 -5.400282,1.978103 v -1.07569 c 1.248307,-0.0015 2.458286,-0.34592 3.575393,-0.893198 -0.581776,-0.857293 -0.450845,-1.832389 0.598763,-2.230143 z m 13.824563,-8.518325 h 4.233333 v 8.466666 h -4.233333 z m 0,-3.175 H 89.25295 V 12.85119 h 7.408334 v 1.058334 h -2.116667 v 3.175 h -4.233333 z m 0,-5.2916669 h 4.233333 V 12.85119 H 90.311284 Z M 95.607026,6.488895 v 1.0451494 c -0.576018,0.030878 -1.064868,0.5410465 -1.062409,1.0838127 H 90.311284 V 4.3873002 Z M 94.544617,28.72619 h 1.058333 v 1.058334 H 88.194617 V 28.72619 h 2.116667 v -3.175 h 4.233333 z m 0,5.291667 h -4.233333 v -4.233333 h 4.233333 z m -7.408333,6.35 v -1.058333 c 2.406688,0.0029 3.172648,-3.199471 3.175,-5.291667 h 4.233333 c -0.01279,3.755729 -3.78775,6.339831 -7.408333,6.35 z m -4.174157,-4.181674 c 1.049608,0.397753 1.18054,1.37285 0.598763,2.230143 1.117107,0.547277 2.327086,0.891647 3.575394,0.893198 v 1.07569 c -1.971409,-0.05513 -3.88888,-0.704249 -5.400283,-1.978104 -0.519732,-0.438046 -0.522837,-1.327509 -0.0462,-1.852035 0.274975,-0.3026 0.916762,-0.503633 1.272323,-0.368892 z M 96.661778,21.258812 c -0.04634,-4.13692 3.033907,-8.407622 7.384552,-8.407622 v 1.030506 c -2.2189,0.02515 -3.15129,5.046991 -3.1456,7.436161 0.006,2.38917 0.96019,7.45563 3.1456,7.436162 v 1.030505 c -4.498306,-0.03777 -7.338217,-4.388793 -7.384552,-8.525712 z m 14.769102,0 c -0.0463,4.136919 -2.88625,8.487947 -7.38455,8.525712 v -1.030505 c 2.18541,0.01947 3.13992,-5.046992 3.1456,-7.436162 0.006,-2.38917 -0.9267,-7.411007 -3.1456,-7.436161 V 12.85119 c 4.35064,0 7.43089,4.270702 7.38455,8.407622 z m 10.58383,-4.174288 h 4.23333 v 8.466666 h -4.23333 z m 0,-2.045491 c -0.002,-0.662085 -0.46494,-0.981809 -1.05834,-1.153898 V 12.85119 h 5.29167 v 0.69976 c 0.97573,-0.562747 2.07528,-0.66264 3.175,-0.717062 v 1.054553 c -1.79644,0.20174 -2.93186,1.454035 -3.19608,3.196083 h -4.21225 z m 10.59143,3.749469 c 0.0433,-1.889221 -0.97663,-4.828502 -3.1831,-4.894962 v -1.04235 c 2.53985,0.02354 4.82608,0.751117 6.36248,2.817267 1.00649,-1.416181 2.04047,-2.810439 4.22085,-2.817267 v 1.043184 c -1.86296,-0.0044 -3.17139,2.878257 -3.175,4.994777 v 6.662039 h -4.22523 z m 10.52949,0.400295 c -0.004,-2.015598 -0.81225,-5.286175 -3.12926,-5.295257 v -1.057978 c 4.01475,0.0049 7.37626,1.490165 7.37626,5.39549 l 0.0371,7.320138 h -4.23024 z m -0.94724,6.840163 c 0.3048,-0.147159 0.82137,-0.168938 0.99298,-0.47777 h 4.23334 c 0,0.46127 0.043,0.788975 -0.39912,1.044267 -0.20057,0.112726 -0.32228,0.113083 -0.84361,0.132 -3.34197,0.121263 -3.83064,3.765301 -3.84171,6.232067 -0.0111,2.466766 0.38706,6.345481 3.00775,6.35 v 1.058333 c -0.97873,0.01108 -1.90925,0.0065 -2.79568,-0.342633 -2.93288,-1.155242 -4.80145,-3.946979 -4.77022,-7.0657 0.0312,-3.118721 1.62684,-5.583788 4.41627,-6.930564 z m 7.28381,10.157223 c 0.35556,-0.134741 0.99735,0.06629 1.27232,0.368892 0.47664,0.524526 0.47354,1.413989 -0.0462,1.852035 -1.5114,1.273855 -3.42887,1.922972 -5.40028,1.978104 v -1.07569 c 1.24831,-0.0016 2.45829,-0.345921 3.57539,-0.893198 -0.58177,-0.857293 -0.45084,-1.83239 0.59877,-2.230143 z M 131.60506,26.02896 c 0.30479,-0.147159 0.82137,-0.168938 0.99298,-0.47777 h 4.23333 c 0,0.46127 0.043,0.788975 -0.39911,1.044267 -0.20057,0.112726 -0.32228,0.113083 -0.84361,0.132 -3.34198,0.121263 -3.83065,3.765301 -3.84172,6.232067 -0.0111,2.466766 0.38706,6.345481 3.00776,6.35 v 1.058333 c -0.97873,0.01108 -1.90925,0.0065 -2.79569,-0.342633 -2.93288,-1.155242 -4.80144,-3.946979 -4.77022,-7.0657 0.0312,-3.118721 1.62685,-5.583788 4.41628,-6.930564 z m 7.2838,10.157223 c 0.35557,-0.134741 0.99735,0.06629 1.27233,0.368892 0.47664,0.524526 0.47353,1.413989 -0.0462,1.852035 -1.5114,1.273855 -3.42887,1.922972 -5.40028,1.978104 v -1.07569 c 1.2483,-0.0016 2.45828,-0.345921 3.57539,-0.893198 -0.58178,-0.857293 -0.45084,-1.83239 0.59876,-2.230143 z M 126.24804,28.72619 h 1.05833 v 1.058334 h -7.40833 V 28.72619 h 2.11667 v -3.175 h 4.23333 z m 0,3.174682 -4.23333,2.117303 v -4.233651 h 4.23333 z m 24.42298,-12.699423 0.007,-4.204194 5.28507,10.495139 6.35274,-12.646768 1.05562,2.12681 v 4.229013 l -5.2918,10.583075 h -2.11641 z m -2.23141,-4.393387 c -0.29022,-0.571232 -0.63027,-0.839861 -1.27764,-0.898538 h -0.19512 V 12.85119 h 4.7625 v 1.058334 h -0.44549 c -0.414,0 -0.45579,0.01405 -0.61736,0.171866 -0.30669,0.299549 -0.12946,0.651362 0.0137,0.926227 l -0.006,4.19789 z m 13.87308,-0.134186 h -0.82315 c 0.0683,-0.819186 -0.6798,-0.764352 -1.29352,-0.764352 V 12.85119 h 6.87917 v 1.042001 c -0.53009,0.02112 -0.99841,0.109133 -1.29468,0.577693 l -2.4119,4.730306 h -1.05592 z m -2.64049,22.469496 -3.7097,-7.358848 2.14625,0.0092 3.18794,6.427221 c 0.28998,-0.670509 0.81116,-1.103512 1.54516,-1.112582 0.95345,-0.01178 1.49446,0.698954 1.57467,1.584775 0.12356,1.364522 -1.10933,1.95423 -2.30126,2.025817 -1.1627,0.06983 -1.95177,-0.600986 -2.44306,-1.575534 z m 20.13822,-17.941923 0.007,-4.204194 5.28507,10.495139 6.35273,-12.646768 1.05563,2.12681 v 4.229013 l -5.2918,10.583075 h -2.11641 z m -2.23141,-4.393387 c -0.29022,-0.571232 -0.63027,-0.839861 -1.27765,-0.898538 h -0.19511 V 12.85119 h 4.7625 v 1.058334 h -0.4455 c -0.41399,0 -0.45578,0.01405 -0.61736,0.171866 -0.30668,0.299549 -0.12945,0.651362 0.0137,0.926227 l -0.006,4.19789 z m 14.93141,4.393387 0.007,-4.204194 5.28507,10.495139 6.35273,-12.646768 1.05563,2.12681 v 4.229013 l -5.2918,10.583075 h -2.11641 z m 11.64166,-4.527573 h -0.82315 c 0.0684,-0.819186 -0.6798,-0.764352 -1.29351,-0.764352 V 12.85119 h 6.87916 v 1.042001 c -0.53008,0.02112 -0.9984,0.109133 -1.29467,0.577693 l -2.4119,4.730306 h -1.05593 z m 3.24567,6.584936 c -0.0463,-4.13692 3.03391,-8.407622 7.38455,-8.407622 v 1.030506 c -2.2189,0.02515 -3.15129,5.046991 -3.1456,7.436161 0.006,2.38917 0.96019,7.45563 3.1456,7.436162 v 1.030505 c -4.49831,-0.03777 -7.33822,-4.388793 -7.38455,-8.525712 z m 4.20955,-0.999288 h 6.32639 c -0.22229,-2.169381 -0.63951,-5.782043 -3.15139,-6.377828 V 12.85119 c 4.7213,0.06514 7.13133,4.185862 7.42514,8.466667 H 211.6073 Z m 7.34916,5.343325 c 0.35556,-0.134741 0.99734,0.06629 1.27232,0.368893 0.47664,0.524525 0.47353,1.413989 -0.0462,1.852035 -1.5114,1.273854 -3.42887,1.922972 -5.40028,1.978103 v -1.07569 c 1.24831,-0.0015 2.45829,-0.34592 3.57539,-0.893198 -0.58177,-0.857293 -0.45084,-1.832389 0.59877,-2.230143 z m 3.30679,-1.198186 v -7.320139 h 4.23333 v 7.728361 c 0,1.622761 1.19474,3.938309 3.175,3.913305 v 1.058334 c -3.71861,-0.01943 -7.38857,-1.101524 -7.40833,-5.379861 z m 0,-11.553473 h 4.23333 v 0.69976 c 0.97573,-0.562747 2.07528,-0.66264 3.175,-0.717062 v 1.054553 c -1.79594,0.201347 -2.93194,1.454586 -3.19608,3.196083 h -4.21225 z m 0,-4.2333329 h 4.23333 V 12.85119 h -4.23333 z m 7.40833,-6.35 v 1.0583334 c -2.40669,-0.00287 -3.17265,3.1994706 -3.175,5.2916666 h -4.23333 c 0.0128,-3.7557292 3.78775,-6.3398309 7.40833,-6.35 z m 0,1.0421138 V 2.2505093 c 1.4394,0.1130041 2.83901,0.472791 3.97025,1.4255779 0.7305,0.6100969 0.72405,0.6059529 0.88167,0.5663918 0.34549,-0.1738412 0.40768,-0.5652523 0.4531,-0.9162885 h 1.04498 v 5.2916666 h -1.04013 c -0.37226,-3.1052229 -2.07322,-5.0774406 -5.30987,-5.3078862 z m 7.38455,18.0669311 c 0.0463,4.13692 -3.0339,8.407622 -7.38455,8.407622 v -1.030505 c 2.2189,-0.02515 3.15129,-5.046992 3.1456,-7.436162 -0.006,-2.38917 -0.96019,-7.45563 -3.1456,-7.436161 V 12.85119 c 4.49831,0.03776 7.33822,4.388793 7.38455,8.525712 z m 9.00649,7.349288 c 1.5205,0.01376 3.12702,-1.029833 3.1456,-2.645833 0.02,-1.793805 -1.68154,-2.496388 -3.2338,-2.645295 -3.10714,-0.0099 -5.90685,-1.484232 -6.9367,-3.652814 -1.31199,-4.662599 3.03253,-6.924167 7.0249,-6.931058 v 1.058334 c -1.5205,-0.01376 -3.12702,1.029833 -3.1456,2.645833 -0.02,1.793806 1.68153,2.496389 3.23379,2.645295 3.10715,0.0099 5.90686,1.484232 6.93671,3.652814 1.31199,4.6626 -3.03253,6.924166 -7.0249,6.931058 z m 4.17416,-11.693325 c -1.04961,-0.397754 -1.18054,-1.37285 -0.59877,-2.230143 -1.1171,-0.547278 -2.32708,-0.891648 -3.57539,-0.893198 v -1.07569 c 1.97141,0.05513 3.88888,0.704249 5.40028,1.978104 0.51973,0.438046 0.52284,1.327509 0.0462,1.852035 -0.27498,0.3026 -0.91676,0.503633 -1.27232,0.368892 z m -4.17416,11.709545 v 1.059462 c -1.4394,-0.113004 -2.83901,-0.472791 -3.97025,-1.425578 -0.7305,-0.610097 -0.72405,-0.605953 -0.88167,-0.566392 -0.34549,0.173841 -0.40768,0.565252 -0.4531,0.916288 h -1.04498 v -5.291666 h 1.04014 c 0.37225,3.105223 2.07321,5.07744 5.30986,5.307886 z m 13.61211,-3.19122 h -4.23334 v -8.466666 h 4.23334 z m -4.23334,0 h 4.23334 c -1.8e-4,0.740642 0.59007,2.084412 1.66293,2.105002 0.6418,-0.02518 0.82565,-0.607943 1.20374,-0.987872 l 0.89629,0.751837 c -0.54774,1.464582 -2.17685,2.313616 -3.62574,2.366646 -2.64677,0.09687 -4.36275,-2.034469 -4.37056,-4.235613 z m 4.20927,-16.9668297 c 7.5e-4,1.1173184 -0.87249,2.1287467 -2.0926,2.1228777 -1.21425,-0.0058 -2.10026,-0.9348868 -2.09855,-2.0905997 0.002,-1.1498441 0.91174,-2.0888675 2.08616,-2.085981 1.16854,0.00287 2.10423,0.9364039 2.10499,2.053703 z m -5.27167,6.3712017 5.29574,-2.101595 v 4.230557 h -4.23334 c 0.002,-0.542766 -0.48639,-1.052935 -1.0624,-1.083813 z m 10.64175,2.128962 h 4.23333 v 8.466666 h -4.23333 z m 0,-3.175 h -1.05833 V 12.85119 h 7.40833 v 1.058334 h -2.11667 v 3.175 h -4.23333 z m 0,-5.2916669 h 4.23333 V 12.85119 h -4.23333 z m 7.40833,-6.35 v 1.0583334 c -2.40669,-0.00287 -3.17265,3.1994706 -3.175,5.2916666 h -4.23333 c 0.0128,-3.7557292 3.78775,-6.3398309 7.40833,-6.35 z m 0,1.0421138 V 2.2505093 c 1.4394,0.1130041 2.83901,0.472791 3.97026,1.4255779 0.73049,0.6100969 0.72404,0.6059529 0.88166,0.5663918 0.34549,-0.1738412 0.40768,-0.5652523 0.4531,-0.9162885 h 1.04498 v 5.2916666 h -1.04013 C 277.36668,5.5126342 275.66572,3.5404165 272.42907,3.3099709 Z M 265.02074,25.55119 h 4.23333 c -1.7e-4,0.740642 0.59008,2.084412 1.66293,2.105002 0.64181,-0.02518 0.82566,-0.607943 1.20374,-0.987872 l 0.8963,0.751837 c -0.54774,1.464582 -2.17685,2.313616 -3.62574,2.366646 -2.64678,0.09687 -4.36275,-2.034469 -4.37056,-4.235613 z m 15.23132,4.16585 c -1.45949,-0.152414 -2.95713,-0.658497 -4.06731,-1.374429 -1.1713,-0.738655 -2.07606,-1.908678 -2.07606,-3.320587 -0.0426,-1.422497 0.95007,-2.592972 2.09584,-3.334171 0.45805,-0.29631 1.35635,-0.733189 1.7366,-0.844577 0.088,-0.02576 0.16659,-0.07647 0.24988,-0.114701 -0.32097,-0.183806 -0.66856,-0.340607 -0.99125,-0.533301 -1.11449,-0.697536 -2.03086,-1.757076 -2.03086,-3.11075 -0.0656,-2.220447 2.37029,-3.436856 4.22744,-3.989859 0.55787,-0.128468 1.41771,-0.242182 1.83738,-0.242992 l 0.24989,-4.83e-4 v 1.058334 h -0.19344 c -1.6649,0.08359 -2.98156,1.532882 -2.98156,3.175 -0.0222,1.650822 1.33349,3.079334 2.98156,3.175 0.0645,0 0.12896,0 0.19344,0 v 1.032306 l -0.41734,0.06571 c -1.27636,0.176661 -2.17564,1.22641 -2.56476,2.39912 -0.24284,0.792095 -0.26245,1.739771 0,2.53072 0.19999,0.792982 0.68828,1.418774 1.29819,1.913687 0.47217,0.383138 1.08173,0.462694 1.68391,0.551146 v 1.032307 l -0.36748,-0.0078 c -0.20211,-0.0043 -0.59094,-0.03115 -0.86407,-0.05967 z m 1.23155,-15.823736 v -1.059461 c 1.4394,0.113004 2.839,0.472791 3.97025,1.425578 0.7305,0.610096 0.72404,0.605952 0.88167,0.566391 0.34548,-0.173841 0.40767,-0.565252 0.45309,-0.916288 h 1.04499 v 5.291666 h -1.04014 c -0.37225,-3.105222 -2.07322,-5.07744 -5.30986,-5.307886 z m 0,14.849106 c 3.23664,-0.230446 4.93761,-2.202663 5.30986,-5.307886 h 1.04014 v 5.291666 h -1.04499 c -0.0454,-0.351036 -0.10761,-0.742447 -0.45309,-0.916288 -0.15763,-0.03956 -0.15117,-0.04371 -0.88167,0.566392 -1.13125,0.952787 -2.53085,1.312574 -3.97025,1.425578 z"
       style="fill:#ffffff;stroke:none;fill-opacity:1"
       inkscape:connector-curvature="0" />
  </g>
</svg>
